<?xml version="1.0" encoding="UTF-8" standalone="no"?>
<!DOCTYPE svg PUBLIC "-//W3C//DTD SVG 1.1//EN"
 "http://www.w3.org/Graphics/SVG/1.1/DTD/svg11.dtd">
<!-- Generated by graphviz version 2.40.1 (20161225.0304)
 -->
<!-- Title: sources/CUser.cpp Pages: 1 -->
<svg width="310pt" height="146pt"
 viewBox="0.00 0.00 310.00 146.00" xmlns="http://www.w3.org/2000/svg" xmlns:xlink="http://www.w3.org/1999/xlink">
<g id="graph0" class="graph" transform="scale(1 1) rotate(0) translate(4 142)">
<title>sources/CUser.cpp</title>
<!-- Node1 -->
<g id="node1" class="node">
<title>Node1</title>
<g id="a_node1"><a xlink:title=" ">
<polygon fill="#bfbfbf" stroke="#000000" points="56.5,-116.5 56.5,-137.5 175.5,-137.5 175.5,-116.5 56.5,-116.5"/>
<text text-anchor="middle" x="116" y="-123.9" font-family="Helvetica,sans-Serif" font-size="12.00" fill="#000000">sources/CUser.cpp</text>
</a>
</g>
</g>
<!-- Node2 -->
<g id="node2" class="node">
<title>Node2</title>
<g id="a_node2"><a xlink:title=" ">
<polygon fill="none" stroke="#bfbfbf" points="0,-58.5 0,-79.5 62,-79.5 62,-58.5 0,-58.5"/>
<text text-anchor="middle" x="31" y="-65.9" font-family="Helvetica,sans-Serif" font-size="12.00" fill="#000000">iostream</text>
</a>
</g>
</g>
<!-- Node1&#45;&gt;Node2 -->
<g id="edge1" class="edge">
<title>Node1&#45;&gt;Node2</title>
<path fill="none" stroke="#191970" d="M100.4097,-116.3619C87.709,-107.6955 69.5615,-95.3126 55.0079,-85.3819"/>
<polygon fill="#191970" stroke="#191970" points="56.7245,-82.316 46.4915,-79.5707 52.779,-88.0982 56.7245,-82.316"/>
</g>
<!-- Node3 -->
<g id="node3" class="node">
<title>Node3</title>
<g id="a_node3"><a xlink:title=" ">
<polygon fill="none" stroke="#bfbfbf" points="144,-.5 144,-21.5 190,-21.5 190,-.5 144,-.5"/>
<text text-anchor="middle" x="167" y="-7.9" font-family="Helvetica,sans-Serif" font-size="12.00" fill="#000000">string</text>
</a>
</g>
</g>
<!-- Node1&#45;&gt;Node3 -->
<g id="edge2" class="edge">
<title>Node1&#45;&gt;Node3</title>
<path fill="none" stroke="#191970" d="M111.8009,-116.1218C107.0552,-101.9995 101.0764,-76.924 110,-58 115.9568,-45.3676 127.1589,-34.9782 138.0663,-27.2091"/>
<polygon fill="#191970" stroke="#191970" points="140.2265,-29.977 146.6448,-21.5475 136.3707,-24.1346 140.2265,-29.977"/>
</g>
<!-- Node4 -->
<g id="node4" class="node">
<title>Node4</title>
<g id="a_node4"><a xlink:title=" ">
<polygon fill="none" stroke="#bfbfbf" points="118.5,-58.5 118.5,-79.5 167.5,-79.5 167.5,-58.5 118.5,-58.5"/>
<text text-anchor="middle" x="143" y="-65.9" font-family="Helvetica,sans-Serif" font-size="12.00" fill="#000000">cmath</text>
</a>
</g>
</g>
<!-- Node1&#45;&gt;Node4 -->
<g id="edge3" class="edge">
<title>Node1&#45;&gt;Node4</title>
<path fill="none" stroke="#191970" d="M120.9522,-116.3619C124.5298,-108.6766 129.4681,-98.0686 133.7642,-88.8399"/>
<polygon fill="#191970" stroke="#191970" points="137.0319,-90.1136 138.0792,-79.5707 130.6858,-87.1594 137.0319,-90.1136"/>
</g>
<!-- Node5 -->
<g id="node5" class="node">
<title>Node5</title>
<g id="a_node5"><a xlink:href="../../de/d98/CUser_8h.html" target="_top" xlink:title=" ">
<polygon fill="none" stroke="#000000" points="186,-58.5 186,-79.5 302,-79.5 302,-58.5 186,-58.5"/>
<text text-anchor="middle" x="244" y="-65.9" font-family="Helvetica,sans-Serif" font-size="12.00" fill="#000000">../headers/CUser.h</text>
</a>
</g>
</g>
<!-- Node1&#45;&gt;Node5 -->
<g id="edge4" class="edge">
<title>Node1&#45;&gt;Node5</title>
<path fill="none" stroke="#191970" d="M139.1798,-116.4966C159.3519,-107.3562 188.8096,-94.0082 211.3638,-83.7883"/>
<polygon fill="#191970" stroke="#191970" points="212.8961,-86.9366 220.5601,-79.6212 210.0069,-80.5606 212.8961,-86.9366"/>
</g>
<!-- Node5&#45;&gt;Node3 -->
<g id="edge5" class="edge">
<title>Node5&#45;&gt;Node3</title>
<path fill="none" stroke="#191970" d="M229.877,-58.3619C218.4802,-49.7773 202.2419,-37.5459 189.1223,-27.6636"/>
<polygon fill="#191970" stroke="#191970" points="191.1268,-24.7916 181.0335,-21.5707 186.9152,-30.3829 191.1268,-24.7916"/>
</g>
</g>
</svg>
