<?xml version="1.0" encoding="UTF-8" standalone="no"?>
<!DOCTYPE svg PUBLIC "-//W3C//DTD SVG 1.1//EN"
 "http://www.w3.org/Graphics/SVG/1.1/DTD/svg11.dtd">
<!-- Generated by graphviz version 2.40.1 (20161225.0304)
 -->
<!-- Title: CStock::stockInfo Pages: 1 -->
<svg width="898pt" height="390pt"
 viewBox="0.00 0.00 898.00 390.00" xmlns="http://www.w3.org/2000/svg" xmlns:xlink="http://www.w3.org/1999/xlink">
<g id="graph0" class="graph" transform="scale(1 1) rotate(0) translate(4 386)">
<title>CStock::stockInfo</title>
<!-- Node1 -->
<g id="node1" class="node">
<title>Node1</title>
<g id="a_node1"><a xlink:title="Method gets and sets all info about stock using switch statement, case, if, else if,...">
<polygon fill="#bfbfbf" stroke="#000000" points="0,-113.5 0,-134.5 109,-134.5 109,-113.5 0,-113.5"/>
<text text-anchor="middle" x="54.5" y="-120.9" font-family="Helvetica,sans-Serif" font-size="12.00" fill="#000000">CStock::stockInfo</text>
</a>
</g>
</g>
<!-- Node2 -->
<g id="node2" class="node">
<title>Node2</title>
<g id="a_node2"><a xlink:href="../../dc/d85/classCAsset.html#ab68c11feace8e8f4b9852404a458796c" target="_top" xlink:title="Method get data from database through the class CDataBase.">
<polygon fill="none" stroke="#000000" points="368.5,-180.5 368.5,-201.5 502.5,-201.5 502.5,-180.5 368.5,-180.5"/>
<text text-anchor="middle" x="435.5" y="-187.9" font-family="Helvetica,sans-Serif" font-size="12.00" fill="#000000">CAsset::getFromBase</text>
</a>
</g>
</g>
<!-- Node1&#45;&gt;Node2 -->
<g id="edge1" class="edge">
<title>Node1&#45;&gt;Node2</title>
<path fill="none" stroke="#191970" d="M73.6118,-134.6364C91.4901,-144.0484 119.2311,-157.2985 145,-164 215.7844,-182.4082 299.1399,-188.6402 358.365,-190.5754"/>
<polygon fill="#191970" stroke="#191970" points="358.296,-194.0748 368.3944,-190.8697 358.5014,-187.0778 358.296,-194.0748"/>
</g>
<!-- Node13 -->
<g id="node13" class="node">
<title>Node13</title>
<g id="a_node13"><a xlink:href="../../d5/de1/classCDataBase.html#a763fc57fb5ad33e7d4ef92dd32698f34" target="_top" xlink:title="Method get and set data of Stocks to database in this program database are the files and relation wit...">
<polygon fill="none" stroke="#000000" points="145,-133.5 145,-154.5 304,-154.5 304,-133.5 145,-133.5"/>
<text text-anchor="middle" x="224.5" y="-140.9" font-family="Helvetica,sans-Serif" font-size="12.00" fill="#000000">CDataBase::inputForStock</text>
</a>
</g>
</g>
<!-- Node1&#45;&gt;Node13 -->
<g id="edge12" class="edge">
<title>Node1&#45;&gt;Node13</title>
<path fill="none" stroke="#191970" d="M109.2248,-130.4382C117.3872,-131.3985 125.9781,-132.4092 134.6365,-133.4278"/>
<polygon fill="#191970" stroke="#191970" points="134.4696,-136.9322 144.8101,-134.6247 135.2875,-129.9802 134.4696,-136.9322"/>
</g>
<!-- Node18 -->
<g id="node18" class="node">
<title>Node18</title>
<g id="a_node18"><a xlink:href="../../dc/d85/classCAsset.html#ad26f4802c080f55f65007d3622afb394" target="_top" xlink:title="Method gets risk of one Asset.">
<polygon fill="none" stroke="#000000" points="163.5,-93.5 163.5,-114.5 285.5,-114.5 285.5,-93.5 163.5,-93.5"/>
<text text-anchor="middle" x="224.5" y="-100.9" font-family="Helvetica,sans-Serif" font-size="12.00" fill="#000000">CAsset::riskOfAsset</text>
</a>
</g>
</g>
<!-- Node1&#45;&gt;Node18 -->
<g id="edge18" class="edge">
<title>Node1&#45;&gt;Node18</title>
<path fill="none" stroke="#191970" d="M109.2248,-117.5618C123.2626,-115.9103 138.5676,-114.1097 153.3039,-112.376"/>
<polygon fill="#191970" stroke="#191970" points="153.87,-115.8336 163.3925,-111.1891 153.0521,-108.8816 153.87,-115.8336"/>
</g>
<!-- Node19 -->
<g id="node19" class="node">
<title>Node19</title>
<g id="a_node19"><a xlink:href="../../d7/d8f/classCStock.html#a6540c1c901a28b07ddf9038ef8b7506f" target="_top" xlink:title="Method which gets the items of Stock info menu with the switch statement and the cases conditions.">
<polygon fill="none" stroke="#000000" points="165,-53.5 165,-74.5 284,-74.5 284,-53.5 165,-53.5"/>
<text text-anchor="middle" x="224.5" y="-60.9" font-family="Helvetica,sans-Serif" font-size="12.00" fill="#000000">CStock::stockMenu</text>
</a>
</g>
</g>
<!-- Node1&#45;&gt;Node19 -->
<g id="edge19" class="edge">
<title>Node1&#45;&gt;Node19</title>
<path fill="none" stroke="#191970" d="M75.6665,-113.4165C93.7514,-104.674 120.6342,-92.3817 145,-84 152.1118,-81.5536 159.675,-79.265 167.2002,-77.1732"/>
<polygon fill="#191970" stroke="#191970" points="168.2761,-80.5085 177.0299,-74.5401 166.4648,-73.7469 168.2761,-80.5085"/>
</g>
<!-- Node3 -->
<g id="node3" class="node">
<title>Node3</title>
<g id="a_node3"><a xlink:href="../../d7/d8f/classCStock.html#ac29f9a8363a2388481e44526a0d4aa06" target="_top" xlink:title=" ">
<polygon fill="none" stroke="#000000" points="584,-360.5 584,-381.5 751,-381.5 751,-360.5 584,-360.5"/>
<text text-anchor="middle" x="667.5" y="-367.9" font-family="Helvetica,sans-Serif" font-size="12.00" fill="#000000">CStock::getMStrPathToAppl</text>
</a>
</g>
</g>
<!-- Node2&#45;&gt;Node3 -->
<g id="edge2" class="edge">
<title>Node2&#45;&gt;Node3</title>
<path fill="none" stroke="#191970" d="M440.8687,-201.7126C456.1296,-230.9643 502.8404,-312.5715 567,-351 570.6056,-353.1596 574.4017,-355.0909 578.3223,-356.8177"/>
<polygon fill="#191970" stroke="#191970" points="577.0781,-360.0893 587.6655,-360.4869 579.6369,-353.5737 577.0781,-360.0893"/>
</g>
<!-- Node4 -->
<g id="node4" class="node">
<title>Node4</title>
<g id="a_node4"><a xlink:href="../../d7/d8f/classCStock.html#a71879b1e890394887791d3746cb7ef04" target="_top" xlink:title=" ">
<polygon fill="none" stroke="#000000" points="577,-320.5 577,-341.5 758,-341.5 758,-320.5 577,-320.5"/>
<text text-anchor="middle" x="667.5" y="-327.9" font-family="Helvetica,sans-Serif" font-size="12.00" fill="#000000">CStock::getMStrPathToGoogle</text>
</a>
</g>
</g>
<!-- Node2&#45;&gt;Node4 -->
<g id="edge3" class="edge">
<title>Node2&#45;&gt;Node4</title>
<path fill="none" stroke="#191970" d="M443.7053,-201.7109C462.6041,-225.5567 511.8351,-283.1118 567,-311 571.6439,-313.3477 576.5386,-315.42 581.5662,-317.2492"/>
<polygon fill="#191970" stroke="#191970" points="580.7743,-320.6732 591.3673,-320.4757 582.9632,-314.0242 580.7743,-320.6732"/>
</g>
<!-- Node5 -->
<g id="node5" class="node">
<title>Node5</title>
<g id="a_node5"><a xlink:href="../../d0/dc4/classCETF.html#af8e267a244a73e0ad7038f83b5ec26b0" target="_top" xlink:title=" ">
<polygon fill="none" stroke="#000000" points="592,-280.5 592,-301.5 743,-301.5 743,-280.5 592,-280.5"/>
<text text-anchor="middle" x="667.5" y="-287.9" font-family="Helvetica,sans-Serif" font-size="12.00" fill="#000000">CETF::getMStrPathToIxn</text>
</a>
</g>
</g>
<!-- Node2&#45;&gt;Node5 -->
<g id="edge4" class="edge">
<title>Node2&#45;&gt;Node5</title>
<path fill="none" stroke="#191970" d="M449.2308,-201.6261C472.2542,-218.9013 520.6862,-252.957 567,-271 573.7239,-273.6195 580.8401,-275.911 588.0555,-277.9127"/>
<polygon fill="#191970" stroke="#191970" points="587.3708,-281.3507 597.9287,-280.4662 589.1236,-274.5737 587.3708,-281.3507"/>
</g>
<!-- Node6 -->
<g id="node6" class="node">
<title>Node6</title>
<g id="a_node6"><a xlink:href="../../d0/dc4/classCETF.html#a8d19cc867f54575686cf448a2d17af38" target="_top" xlink:title=" ">
<polygon fill="none" stroke="#000000" points="588.5,-240.5 588.5,-261.5 746.5,-261.5 746.5,-240.5 588.5,-240.5"/>
<text text-anchor="middle" x="667.5" y="-247.9" font-family="Helvetica,sans-Serif" font-size="12.00" fill="#000000">CETF::getMStrPathToQqq</text>
</a>
</g>
</g>
<!-- Node2&#45;&gt;Node6 -->
<g id="edge5" class="edge">
<title>Node2&#45;&gt;Node6</title>
<path fill="none" stroke="#191970" d="M466.8743,-201.5C493.3637,-210.1339 532.3981,-222.317 567,-231 577.5027,-233.6356 588.6924,-236.1485 599.6488,-238.448"/>
<polygon fill="#191970" stroke="#191970" points="599.1189,-241.9122 609.6188,-240.4973 600.5283,-235.0555 599.1189,-241.9122"/>
</g>
<!-- Node7 -->
<g id="node7" class="node">
<title>Node7</title>
<g id="a_node7"><a xlink:href="../../d0/dc4/classCETF.html#a477bc0a30dca4ce9bf7a9a52e121324b" target="_top" xlink:title=" ">
<polygon fill="none" stroke="#000000" points="591.5,-200.5 591.5,-221.5 743.5,-221.5 743.5,-200.5 591.5,-200.5"/>
<text text-anchor="middle" x="667.5" y="-207.9" font-family="Helvetica,sans-Serif" font-size="12.00" fill="#000000">CETF::getMStrPathToXlk</text>
</a>
</g>
</g>
<!-- Node2&#45;&gt;Node7 -->
<g id="edge6" class="edge">
<title>Node2&#45;&gt;Node7</title>
<path fill="none" stroke="#191970" d="M502.604,-196.7848C527.0595,-198.8931 555.064,-201.3072 580.9686,-203.5404"/>
<polygon fill="#191970" stroke="#191970" points="580.8968,-207.0471 591.1604,-204.419 581.498,-200.073 580.8968,-207.0471"/>
</g>
<!-- Node8 -->
<g id="node8" class="node">
<title>Node8</title>
<g id="a_node8"><a xlink:href="../../d7/d8f/classCStock.html#a157bab205439811406e6aa5da0fcaddd" target="_top" xlink:title=" ">
<polygon fill="none" stroke="#000000" points="567,-160.5 567,-181.5 768,-181.5 768,-160.5 567,-160.5"/>
<text text-anchor="middle" x="667.5" y="-167.9" font-family="Helvetica,sans-Serif" font-size="12.00" fill="#000000">CStock::getMStrPathtToAmznDate</text>
</a>
</g>
</g>
<!-- Node2&#45;&gt;Node8 -->
<g id="edge7" class="edge">
<title>Node2&#45;&gt;Node8</title>
<path fill="none" stroke="#191970" d="M502.604,-185.2152C519.6197,-183.7483 538.3534,-182.1333 556.9026,-180.5343"/>
<polygon fill="#191970" stroke="#191970" points="557.2124,-184.0206 566.8748,-179.6746 556.6111,-177.0465 557.2124,-184.0206"/>
</g>
<!-- Node9 -->
<g id="node9" class="node">
<title>Node9</title>
<g id="a_node9"><a xlink:href="../../dc/d85/classCAsset.html#a48d22720b57dc24776a9023be661bff9" target="_top" xlink:title="Method calculate mean of one Asset.">
<polygon fill="none" stroke="#000000" points="600.5,-120.5 600.5,-141.5 734.5,-141.5 734.5,-120.5 600.5,-120.5"/>
<text text-anchor="middle" x="667.5" y="-127.9" font-family="Helvetica,sans-Serif" font-size="12.00" fill="#000000">CAsset::meanOfAsset</text>
</a>
</g>
</g>
<!-- Node2&#45;&gt;Node9 -->
<g id="edge8" class="edge">
<title>Node2&#45;&gt;Node9</title>
<path fill="none" stroke="#191970" d="M499.19,-180.4537C509.9659,-177.8803 520.9207,-174.7567 531,-171 548.1508,-164.6076 549.8175,-157.3066 567,-151 574.5394,-148.2328 582.5451,-145.8196 590.6181,-143.7216"/>
<polygon fill="#191970" stroke="#191970" points="591.5873,-147.0878 600.472,-141.3162 589.9273,-140.2875 591.5873,-147.0878"/>
</g>
<!-- Node10 -->
<g id="node10" class="node">
<title>Node10</title>
<g id="a_node10"><a xlink:href="../../dc/d85/classCAsset.html#aa855b3cfd867f9788d1cc0e5db7c3870" target="_top" xlink:title="Method return diffrence between vector of returns and double value of mean of return of Asset.">
<polygon fill="none" stroke="#000000" points="571.5,-80.5 571.5,-101.5 763.5,-101.5 763.5,-80.5 571.5,-80.5"/>
<text text-anchor="middle" x="667.5" y="-87.9" font-family="Helvetica,sans-Serif" font-size="12.00" fill="#000000">CAsset::returnAndMeanDiffrence</text>
</a>
</g>
</g>
<!-- Node2&#45;&gt;Node10 -->
<g id="edge9" class="edge">
<title>Node2&#45;&gt;Node10</title>
<path fill="none" stroke="#191970" d="M502.6619,-184.2929C512.7512,-181.2617 522.5806,-176.9905 531,-171 556.339,-152.971 541.5711,-128.902 567,-111 569.6912,-109.1054 572.5182,-107.3802 575.4474,-105.8098"/>
<polygon fill="#191970" stroke="#191970" points="576.9485,-108.9717 584.508,-101.5484 573.9693,-102.6373 576.9485,-108.9717"/>
</g>
<!-- Node11 -->
<g id="node11" class="node">
<title>Node11</title>
<g id="a_node11"><a xlink:href="../../dc/d85/classCAsset.html#a96031ecbece20a71af492b3cf5063f0b" target="_top" xlink:title="Method returns what is returns of one Asset in the setting period, get info for this from database.">
<polygon fill="none" stroke="#000000" points="600.5,-40.5 600.5,-61.5 734.5,-61.5 734.5,-40.5 600.5,-40.5"/>
<text text-anchor="middle" x="667.5" y="-47.9" font-family="Helvetica,sans-Serif" font-size="12.00" fill="#000000">CAsset::returnOfAsset</text>
</a>
</g>
</g>
<!-- Node2&#45;&gt;Node11 -->
<g id="edge10" class="edge">
<title>Node2&#45;&gt;Node11</title>
<path fill="none" stroke="#191970" d="M502.7653,-185.9793C513.0748,-182.7712 522.9476,-178.0035 531,-171 566.6421,-140.0008 531.2033,-101.8206 567,-71 573.9304,-65.033 582.1299,-60.656 590.8094,-57.471"/>
<polygon fill="#191970" stroke="#191970" points="591.8878,-60.8009 600.3786,-54.4639 589.7892,-54.1229 591.8878,-60.8009"/>
</g>
<!-- Node12 -->
<g id="node12" class="node">
<title>Node12</title>
<g id="a_node12"><a xlink:href="../../dc/d85/classCAsset.html#ae862a51b2a6ea0668c19a07f081e0b3c" target="_top" xlink:title="Method helps to set size of vector for next method returnOfAsset()">
<polygon fill="none" stroke="#000000" points="804,-40.5 804,-61.5 890,-61.5 890,-40.5 804,-40.5"/>
<text text-anchor="middle" x="847" y="-47.9" font-family="Helvetica,sans-Serif" font-size="12.00" fill="#000000">CAsset::slice</text>
</a>
</g>
</g>
<!-- Node11&#45;&gt;Node12 -->
<g id="edge11" class="edge">
<title>Node11&#45;&gt;Node12</title>
<path fill="none" stroke="#191970" d="M734.5944,-51C754.171,-51 775.2863,-51 793.8725,-51"/>
<polygon fill="#191970" stroke="#191970" points="793.9121,-54.5001 803.9121,-51 793.912,-47.5001 793.9121,-54.5001"/>
</g>
<!-- Node13&#45;&gt;Node2 -->
<g id="edge14" class="edge">
<title>Node13&#45;&gt;Node2</title>
<path fill="none" stroke="#191970" d="M268.5964,-154.5614C290.1066,-159.6485 316.3765,-165.7659 340,-171 351.0007,-173.4373 362.732,-175.9583 374.0716,-178.3549"/>
<polygon fill="#191970" stroke="#191970" points="373.4014,-181.7905 383.9077,-180.4238 374.8423,-174.9403 373.4014,-181.7905"/>
</g>
<!-- Node14 -->
<g id="node14" class="node">
<title>Node14</title>
<g id="a_node14"><a xlink:href="../../db/d52/classCRisk.html#aea7aecfae721440bbed175e109518464" target="_top" xlink:title="Method calculate matrix of covariance and variance for portfolio to help calculate risk of the portfo...">
<polygon fill="none" stroke="#000000" points="354.5,-127 354.5,-161 516.5,-161 516.5,-127 354.5,-127"/>
<text text-anchor="start" x="362.5" y="-147.4" font-family="Helvetica,sans-Serif" font-size="12.00" fill="#000000">CRisk::covarianceVariance</text>
<text text-anchor="middle" x="435.5" y="-134.4" font-family="Helvetica,sans-Serif" font-size="12.00" fill="#000000">Matrix</text>
</a>
</g>
</g>
<!-- Node13&#45;&gt;Node14 -->
<g id="edge13" class="edge">
<title>Node13&#45;&gt;Node14</title>
<path fill="none" stroke="#191970" d="M304.2701,-144C317.2896,-144 330.866,-144 344.1383,-144"/>
<polygon fill="#191970" stroke="#191970" points="344.2143,-147.5001 354.2143,-144 344.2142,-140.5001 344.2143,-147.5001"/>
</g>
<!-- Node15 -->
<g id="node15" class="node">
<title>Node15</title>
<g id="a_node15"><a xlink:href="../../d5/de1/classCDataBase.html#a4d52b0dbf60c0295aea772711839332d" target="_top" xlink:title=" ">
<polygon fill="none" stroke="#000000" points="340,-86.5 340,-107.5 531,-107.5 531,-86.5 340,-86.5"/>
<text text-anchor="middle" x="435.5" y="-93.9" font-family="Helvetica,sans-Serif" font-size="12.00" fill="#000000">CDataBase::getMStrToItPortfolio</text>
</a>
</g>
</g>
<!-- Node13&#45;&gt;Node15 -->
<g id="edge15" class="edge">
<title>Node13&#45;&gt;Node15</title>
<path fill="none" stroke="#191970" d="M271.1326,-133.4473C292.1678,-128.7014 317.3285,-123.0444 340,-118 352.1601,-115.2944 365.1959,-112.4143 377.6062,-109.6822"/>
<polygon fill="#191970" stroke="#191970" points="378.3816,-113.0954 387.3963,-107.529 376.8778,-106.2588 378.3816,-113.0954"/>
</g>
<!-- Node16 -->
<g id="node16" class="node">
<title>Node16</title>
<g id="a_node16"><a xlink:href="../../dd/d09/classCReturn.html#a4ae6568cb0c834cce8f257e8a82966c3" target="_top" xlink:title="Method calculate portfolio which have the biggest return with the lowest risk.">
<polygon fill="none" stroke="#000000" points="360,-33.5 360,-54.5 511,-54.5 511,-33.5 360,-33.5"/>
<text text-anchor="middle" x="435.5" y="-40.9" font-family="Helvetica,sans-Serif" font-size="12.00" fill="#000000">CReturn::optimalPortfolio</text>
</a>
</g>
</g>
<!-- Node13&#45;&gt;Node16 -->
<g id="edge16" class="edge">
<title>Node13&#45;&gt;Node16</title>
<path fill="none" stroke="#191970" d="M284.949,-133.4347C291.6651,-130.9303 298.1736,-127.8323 304,-124 325.9833,-109.5403 318.6605,-92.3939 340,-77 351.3334,-68.8243 364.8611,-62.5413 378.1201,-57.7648"/>
<polygon fill="#191970" stroke="#191970" points="379.3282,-61.0512 387.6919,-54.5474 377.0979,-54.416 379.3282,-61.0512"/>
</g>
<!-- Node17 -->
<g id="node17" class="node">
<title>Node17</title>
<g id="a_node17"><a xlink:href="../../db/d52/classCRisk.html#a8742c21ca8a8034b4fe20b3676ab931b" target="_top" xlink:title="Method calculate risk of the portfolio &#45; standard deviation to help calculate std of portfolio taking...">
<polygon fill="none" stroke="#000000" points="609.5,-.5 609.5,-21.5 725.5,-21.5 725.5,-.5 609.5,-.5"/>
<text text-anchor="middle" x="667.5" y="-7.9" font-family="Helvetica,sans-Serif" font-size="12.00" fill="#000000">CRisk::portfolioStd</text>
</a>
</g>
</g>
<!-- Node16&#45;&gt;Node17 -->
<g id="edge17" class="edge">
<title>Node16&#45;&gt;Node17</title>
<path fill="none" stroke="#191970" d="M509.5441,-33.4679C538.2439,-29.3856 570.9036,-24.74 599.0476,-20.7368"/>
<polygon fill="#191970" stroke="#191970" points="599.789,-24.1666 609.1964,-19.2932 598.8032,-17.2364 599.789,-24.1666"/>
</g>
</g>
</svg>
