<?xml version="1.0" encoding="UTF-8" standalone="no"?>
<!DOCTYPE svg PUBLIC "-//W3C//DTD SVG 1.1//EN"
 "http://www.w3.org/Graphics/SVG/1.1/DTD/svg11.dtd">
<!-- Generated by graphviz version 2.40.1 (20161225.0304)
 -->
<!-- Title: CStock::portfolioVariance Pages: 1 -->
<svg width="864pt" height="28pt"
 viewBox="0.00 0.00 864.00 28.00" xmlns="http://www.w3.org/2000/svg" xmlns:xlink="http://www.w3.org/1999/xlink">
<g id="graph0" class="graph" transform="scale(1 1) rotate(0) translate(4 24)">
<title>CStock::portfolioVariance</title>
<!-- Node1 -->
<g id="node1" class="node">
<title>Node1</title>
<g id="a_node1"><a xlink:title=" ">
<polygon fill="#bfbfbf" stroke="#000000" points="728,-.5 728,-19.5 856,-19.5 856,-.5 728,-.5"/>
<text text-anchor="middle" x="792" y="-7.5" font-family="Helvetica,sans-Serif" font-size="10.00" fill="#000000">CStock::portfolioVariance</text>
</a>
</g>
</g>
<!-- Node2 -->
<g id="node2" class="node">
<title>Node2</title>
<g id="a_node2"><a xlink:href="../../d7/d8f/classCStock.html#a0ef2eda44098e896ddb09d5d4629d7aa" target="_top" xlink:title=" ">
<polygon fill="none" stroke="#000000" points="596,-.5 596,-19.5 692,-19.5 692,-.5 596,-.5"/>
<text text-anchor="middle" x="644" y="-7.5" font-family="Helvetica,sans-Serif" font-size="10.00" fill="#000000">CStock::stockInfo</text>
</a>
</g>
</g>
<!-- Node1&#45;&gt;Node2 -->
<g id="edge1" class="edge">
<title>Node1&#45;&gt;Node2</title>
<path fill="none" stroke="#191970" d="M717.739,-10C709.0215,-10 700.3088,-10 692.0849,-10"/>
<polygon fill="#191970" stroke="#191970" points="717.9459,-13.5001 727.9458,-10 717.9458,-6.5001 717.9459,-13.5001"/>
</g>
<!-- Node3 -->
<g id="node3" class="node">
<title>Node3</title>
<g id="a_node3"><a xlink:href="../../d9/d52/classCPortfolio.html#a1253d72b078e2ad23e28744f232a078a" target="_top" xlink:title=" ">
<polygon fill="none" stroke="#000000" points="439,-.5 439,-19.5 560,-19.5 560,-.5 439,-.5"/>
<text text-anchor="middle" x="499.5" y="-7.5" font-family="Helvetica,sans-Serif" font-size="10.00" fill="#000000">CPortfolio::userPortfolio</text>
</a>
</g>
</g>
<!-- Node2&#45;&gt;Node3 -->
<g id="edge2" class="edge">
<title>Node2&#45;&gt;Node3</title>
<path fill="none" stroke="#191970" d="M585.7183,-10C577.2494,-10 568.5142,-10 560.0026,-10"/>
<polygon fill="#191970" stroke="#191970" points="585.8836,-13.5001 595.8836,-10 585.8836,-6.5001 585.8836,-13.5001"/>
</g>
<!-- Node4 -->
<g id="node4" class="node">
<title>Node4</title>
<g id="a_node4"><a xlink:href="../../d1/d60/classCMyHolding.html#a2da746680d2dd9d7af60d49719b0fd37" target="_top" xlink:title=" ">
<polygon fill="none" stroke="#000000" points="242,-.5 242,-19.5 403,-19.5 403,-.5 242,-.5"/>
<text text-anchor="middle" x="322.5" y="-7.5" font-family="Helvetica,sans-Serif" font-size="10.00" fill="#000000">CMyHolding::createHoldingMenu</text>
</a>
</g>
</g>
<!-- Node3&#45;&gt;Node4 -->
<g id="edge3" class="edge">
<title>Node3&#45;&gt;Node4</title>
<path fill="none" stroke="#191970" d="M428.5516,-10C420.2196,-10 411.6713,-10 403.2185,-10"/>
<polygon fill="#191970" stroke="#191970" points="428.5867,-13.5001 438.5866,-10 428.5866,-6.5001 428.5867,-13.5001"/>
</g>
<!-- Node5 -->
<g id="node5" class="node">
<title>Node5</title>
<g id="a_node5"><a xlink:href="../../df/da7/classCClient.html#a1cb513868f3ae0f1130528cdaeb3fb26" target="_top" xlink:title=" ">
<polygon fill="none" stroke="#000000" points="74,-.5 74,-19.5 206,-19.5 206,-.5 74,-.5"/>
<text text-anchor="middle" x="140" y="-7.5" font-family="Helvetica,sans-Serif" font-size="10.00" fill="#000000">CClient::createClientMenu</text>
</a>
</g>
</g>
<!-- Node4&#45;&gt;Node5 -->
<g id="edge4" class="edge">
<title>Node4&#45;&gt;Node5</title>
<path fill="none" stroke="#191970" d="M231.8106,-10C223.1792,-10 214.5411,-10 206.2052,-10"/>
<polygon fill="#191970" stroke="#191970" points="231.9216,-13.5001 241.9216,-10 231.9216,-6.5001 231.9216,-13.5001"/>
</g>
<!-- Node6 -->
<g id="node6" class="node">
<title>Node6</title>
<g id="a_node6"><a xlink:href="../../df/d0a/main_8cpp.html#ae66f6b31b5ad750f1fe042a706a4e3d4" target="_top" xlink:title=" ">
<polygon fill="none" stroke="#000000" points="0,-.5 0,-19.5 38,-19.5 38,-.5 0,-.5"/>
<text text-anchor="middle" x="19" y="-7.5" font-family="Helvetica,sans-Serif" font-size="10.00" fill="#000000">main</text>
</a>
</g>
</g>
<!-- Node5&#45;&gt;Node6 -->
<g id="edge5" class="edge">
<title>Node5&#45;&gt;Node6</title>
<path fill="none" stroke="#191970" d="M63.7939,-10C54.309,-10 45.3774,-10 38.0227,-10"/>
<polygon fill="#191970" stroke="#191970" points="63.8355,-13.5001 73.8355,-10 63.8355,-6.5001 63.8355,-13.5001"/>
</g>
</g>
</svg>
