<?xml version="1.0" encoding="UTF-8" standalone="no"?>
<!DOCTYPE svg PUBLIC "-//W3C//DTD SVG 1.1//EN"
 "http://www.w3.org/Graphics/SVG/1.1/DTD/svg11.dtd">
<!-- Generated by graphviz version 2.40.1 (20161225.0304)
 -->
<!-- Title: sources/CRisk.cpp Pages: 1 -->
<svg width="243pt" height="146pt"
 viewBox="0.00 0.00 242.50 146.00" xmlns="http://www.w3.org/2000/svg" xmlns:xlink="http://www.w3.org/1999/xlink">
<g id="graph0" class="graph" transform="scale(1 1) rotate(0) translate(4 142)">
<title>sources/CRisk.cpp</title>
<!-- Node1 -->
<g id="node1" class="node">
<title>Node1</title>
<g id="a_node1"><a xlink:title=" ">
<polygon fill="#bfbfbf" stroke="#000000" points="55.5,-116.5 55.5,-137.5 172.5,-137.5 172.5,-116.5 55.5,-116.5"/>
<text text-anchor="middle" x="114" y="-123.9" font-family="Helvetica,sans-Serif" font-size="12.00" fill="#000000">sources/CRisk.cpp</text>
</a>
</g>
</g>
<!-- Node2 -->
<g id="node2" class="node">
<title>Node2</title>
<g id="a_node2"><a xlink:href="../../d2/d92/CRisk_8h.html" target="_top" xlink:title=" ">
<polygon fill="none" stroke="#000000" points="13.5,-58.5 13.5,-79.5 128.5,-79.5 128.5,-58.5 13.5,-58.5"/>
<text text-anchor="middle" x="71" y="-65.9" font-family="Helvetica,sans-Serif" font-size="12.00" fill="#000000">../headers/CRisk.h</text>
</a>
</g>
</g>
<!-- Node1&#45;&gt;Node2 -->
<g id="edge1" class="edge">
<title>Node1&#45;&gt;Node2</title>
<path fill="none" stroke="#191970" d="M106.1131,-116.3619C100.173,-108.3496 91.8776,-97.1605 84.8412,-87.6696"/>
<polygon fill="#191970" stroke="#191970" points="87.6041,-85.5193 78.8369,-79.5707 81.9809,-89.6883 87.6041,-85.5193"/>
</g>
<!-- Node3 -->
<g id="node3" class="node">
<title>Node3</title>
<g id="a_node3"><a xlink:title=" ">
<polygon fill="none" stroke="#bfbfbf" points="0,-.5 0,-21.5 62,-21.5 62,-.5 0,-.5"/>
<text text-anchor="middle" x="31" y="-7.9" font-family="Helvetica,sans-Serif" font-size="12.00" fill="#000000">iostream</text>
</a>
</g>
</g>
<!-- Node1&#45;&gt;Node3 -->
<g id="edge4" class="edge">
<title>Node1&#45;&gt;Node3</title>
<path fill="none" stroke="#191970" d="M58.5237,-116.4906C38.1484,-109.6552 17.1182,-98.422 5,-80 -5.1373,-64.5893 4.3745,-44.6665 14.6276,-30.1933"/>
<polygon fill="#191970" stroke="#191970" points="17.6238,-32.0381 20.9383,-21.9751 12.0718,-27.7748 17.6238,-32.0381"/>
</g>
<!-- Node4 -->
<g id="node4" class="node">
<title>Node4</title>
<g id="a_node4"><a xlink:title=" ">
<polygon fill="none" stroke="#bfbfbf" points="86.5,-.5 86.5,-21.5 135.5,-21.5 135.5,-.5 86.5,-.5"/>
<text text-anchor="middle" x="111" y="-7.9" font-family="Helvetica,sans-Serif" font-size="12.00" fill="#000000">vector</text>
</a>
</g>
</g>
<!-- Node1&#45;&gt;Node4 -->
<g id="edge5" class="edge">
<title>Node1&#45;&gt;Node4</title>
<path fill="none" stroke="#191970" d="M121.8725,-116.3965C130.8563,-102.98 143.6233,-79.0777 138,-58 135.3916,-48.223 130.2107,-38.367 125.0786,-30.2234"/>
<polygon fill="#191970" stroke="#191970" points="127.9318,-28.1941 119.4448,-21.8521 122.1244,-32.1025 127.9318,-28.1941"/>
</g>
<!-- Node5 -->
<g id="node5" class="node">
<title>Node5</title>
<g id="a_node5"><a xlink:title=" ">
<polygon fill="none" stroke="#bfbfbf" points="185.5,-58.5 185.5,-79.5 234.5,-79.5 234.5,-58.5 185.5,-58.5"/>
<text text-anchor="middle" x="210" y="-65.9" font-family="Helvetica,sans-Serif" font-size="12.00" fill="#000000">cmath</text>
</a>
</g>
</g>
<!-- Node1&#45;&gt;Node5 -->
<g id="edge6" class="edge">
<title>Node1&#45;&gt;Node5</title>
<path fill="none" stroke="#191970" d="M131.6079,-116.3619C146.2229,-107.532 167.2238,-94.844 183.8112,-84.8224"/>
<polygon fill="#191970" stroke="#191970" points="185.7545,-87.7376 192.5037,-79.5707 182.1347,-81.7461 185.7545,-87.7376"/>
</g>
<!-- Node2&#45;&gt;Node3 -->
<g id="edge2" class="edge">
<title>Node2&#45;&gt;Node3</title>
<path fill="none" stroke="#191970" d="M63.6634,-58.3619C58.194,-50.4313 50.5783,-39.3885 44.0763,-29.9606"/>
<polygon fill="#191970" stroke="#191970" points="46.8487,-27.8157 38.2901,-21.5707 41.0862,-31.7899 46.8487,-27.8157"/>
</g>
<!-- Node2&#45;&gt;Node4 -->
<g id="edge3" class="edge">
<title>Node2&#45;&gt;Node4</title>
<path fill="none" stroke="#191970" d="M78.3366,-58.3619C83.806,-50.4313 91.4217,-39.3885 97.9237,-29.9606"/>
<polygon fill="#191970" stroke="#191970" points="100.9138,-31.7899 103.7099,-21.5707 95.1513,-27.8157 100.9138,-31.7899"/>
</g>
</g>
</svg>
