<?xml version="1.0" encoding="UTF-8" standalone="no"?>
<!DOCTYPE svg PUBLIC "-//W3C//DTD SVG 1.1//EN"
 "http://www.w3.org/Graphics/SVG/1.1/DTD/svg11.dtd">
<!-- Generated by graphviz version 2.40.1 (20161225.0304)
 -->
<!-- Title: sources/CAsset.cpp Pages: 1 -->
<!--zoomable 320 -->
<svg id="main" version="1.1" xmlns="http://www.w3.org/2000/svg" xmlns:xlink="http://www.w3.org/1999/xlink" xml:space="preserve" onload="init(evt)">
<style type="text/css"><![CDATA[
.edge:hover path { stroke: red; }
.edge:hover polygon { stroke: red; fill: red; }
]]></style>
<script type="text/javascript"><![CDATA[
var edges = document.getElementsByTagName('g');
if (edges && edges.length) {
  for (var i=0;i<edges.length;i++) {
    if (edges[i].id.substr(0,4)=='edge') {
      edges[i].setAttribute('class','edge');
    }
  }
}
]]></script>
        <defs>
                <circle id="rim" cx="0" cy="0" r="7"/>
                <circle id="rim2" cx="0" cy="0" r="3.5"/>
                <g id="zoomPlus">
                        <use xlink:href="#rim" fill="#404040">
                                <set attributeName="fill" to="#808080" begin="zoomplus.mouseover" end="zoomplus.mouseout"/>
                        </use>
                        <path d="M-4,0h8M0,-4v8" fill="none" stroke="white" stroke-width="1.5" pointer-events="none"/>
                </g>
                <g id="zoomMin">
                        <use xlink:href="#rim" fill="#404040">
                                <set attributeName="fill" to="#808080" begin="zoomminus.mouseover" end="zoomminus.mouseout"/>
                        </use>
                        <path d="M-4,0h8" fill="none" stroke="white" stroke-width="1.5" pointer-events="none"/>
                </g>
                <g id="dirArrow">
                        <path fill="none" stroke="white" stroke-width="1.5" d="M0,-3.0v7 M-2.5,-0.5L0,-3.0L2.5,-0.5"/>
                </g>
               <g id="resetDef">
                       <use xlink:href="#rim2" fill="#404040">
                               <set attributeName="fill" to="#808080" begin="reset.mouseover" end="reset.mouseout"/>
                       </use>
               </g>
        </defs>

<script type="text/javascript">
var viewWidth = 523;
var viewHeight = 320;
var sectionId = 'dynsection-0';
</script>
<script xlink:href="../../svgpan.js"/>
<svg id="graph" class="graph">
<g id="viewport">
<title>sources/CAsset.cpp</title>
<!-- Node1 -->
<g id="node1" class="node">
<title>Node1</title>
<g id="a_node1"><a xlink:title=" ">
<polygon fill="#bfbfbf" stroke="#000000" points="147.5,-290.5 147.5,-311.5 270.5,-311.5 270.5,-290.5 147.5,-290.5"/>
<text text-anchor="middle" x="209" y="-297.9" font-family="Helvetica,sans-Serif" font-size="12.00" fill="#000000">sources/CAsset.cpp</text>
</a>
</g>
</g>
<!-- Node2 -->
<g id="node2" class="node">
<title>Node2</title>
<g id="a_node2"><a xlink:title=" ">
<polygon fill="none" stroke="#bfbfbf" points="26,-.5 26,-21.5 88,-21.5 88,-.5 26,-.5"/>
<text text-anchor="middle" x="57" y="-7.9" font-family="Helvetica,sans-Serif" font-size="12.00" fill="#000000">iostream</text>
</a>
</g>
</g>
<!-- Node1&#45;&gt;Node2 -->
<g id="edge1" class="edge">
<title>Node1&#45;&gt;Node2</title>
<path fill="none" stroke="#191970" d="M147.4235,-293.1928C85.7737,-281.5232 0,-253.0581 0,-185 0,-185 0,-185 0,-127 0,-89.5289 24.2542,-51.5841 41.12,-29.7281"/>
<polygon fill="#191970" stroke="#191970" points="44.0675,-31.6467 47.5876,-21.6538 38.6041,-27.2705 44.0675,-31.6467"/>
</g>
<!-- Node3 -->
<g id="node3" class="node">
<title>Node3</title>
<g id="a_node3"><a xlink:title=" ">
<polygon fill="none" stroke="#bfbfbf" points="384,-58.5 384,-79.5 430,-79.5 430,-58.5 384,-58.5"/>
<text text-anchor="middle" x="407" y="-65.9" font-family="Helvetica,sans-Serif" font-size="12.00" fill="#000000">string</text>
</a>
</g>
</g>
<!-- Node1&#45;&gt;Node3 -->
<g id="edge2" class="edge">
<title>Node1&#45;&gt;Node3</title>
<path fill="none" stroke="#191970" d="M270.7499,-298.1015C336.6238,-293.5626 434.6629,-282.1542 458,-254 499.1606,-204.3433 448.9021,-123.9926 421.9526,-87.7687"/>
<polygon fill="#191970" stroke="#191970" points="424.5273,-85.3738 415.673,-79.5555 418.9664,-89.6255 424.5273,-85.3738"/>
</g>
<!-- Node4 -->
<g id="node4" class="node">
<title>Node4</title>
<g id="a_node4"><a xlink:title=" ">
<polygon fill="none" stroke="#bfbfbf" points="89.5,-232.5 89.5,-253.5 138.5,-253.5 138.5,-232.5 89.5,-232.5"/>
<text text-anchor="middle" x="114" y="-239.9" font-family="Helvetica,sans-Serif" font-size="12.00" fill="#000000">cmath</text>
</a>
</g>
</g>
<!-- Node1&#45;&gt;Node4 -->
<g id="edge3" class="edge">
<title>Node1&#45;&gt;Node4</title>
<path fill="none" stroke="#191970" d="M191.5755,-290.3619C177.1128,-281.532 156.3306,-268.844 139.916,-258.8224"/>
<polygon fill="#191970" stroke="#191970" points="141.6729,-255.7943 131.314,-253.5707 138.0252,-261.7688 141.6729,-255.7943"/>
</g>
<!-- Node5 -->
<g id="node5" class="node">
<title>Node5</title>
<g id="a_node5"><a xlink:title=" ">
<polygon fill="none" stroke="#bfbfbf" points="28.5,-116.5 28.5,-137.5 71.5,-137.5 71.5,-116.5 28.5,-116.5"/>
<text text-anchor="middle" x="50" y="-123.9" font-family="Helvetica,sans-Serif" font-size="12.00" fill="#000000">tuple</text>
</a>
</g>
</g>
<!-- Node1&#45;&gt;Node5 -->
<g id="edge4" class="edge">
<title>Node1&#45;&gt;Node5</title>
<path fill="none" stroke="#191970" d="M147.3192,-291.5138C123.2105,-284.8208 97.2618,-273.4179 80,-254 53.5411,-224.2363 49.2735,-175.4686 49.197,-147.828"/>
<polygon fill="#191970" stroke="#191970" points="52.6983,-147.7654 49.357,-137.7113 45.6992,-147.6547 52.6983,-147.7654"/>
</g>
<!-- Node6 -->
<g id="node6" class="node">
<title>Node6</title>
<g id="a_node6"><a xlink:title=" ">
<polygon fill="none" stroke="#bfbfbf" points="231.5,-.5 231.5,-21.5 280.5,-21.5 280.5,-.5 231.5,-.5"/>
<text text-anchor="middle" x="256" y="-7.9" font-family="Helvetica,sans-Serif" font-size="12.00" fill="#000000">vector</text>
</a>
</g>
</g>
<!-- Node1&#45;&gt;Node6 -->
<g id="edge5" class="edge">
<title>Node1&#45;&gt;Node6</title>
<path fill="none" stroke="#191970" d="M270.7881,-296.3357C339.3875,-290.1029 444.7171,-277.0716 477,-254 505.4834,-233.6438 515,-220.0097 515,-185 515,-185 515,-185 515,-127 515,-86.9383 491.1378,-78.9653 457,-58 429.4165,-41.0599 340.6717,-24.6236 290.82,-16.4156"/>
<polygon fill="#191970" stroke="#191970" points="291.24,-12.9381 280.8086,-14.7918 290.1192,-19.8478 291.24,-12.9381"/>
</g>
<!-- Node7 -->
<g id="node7" class="node">
<title>Node7</title>
<g id="a_node7"><a xlink:href="../../d7/d79/CAsset_8h.html" target="_top" xlink:title=" ">
<polygon fill="none" stroke="#000000" points="191.5,-174.5 191.5,-195.5 312.5,-195.5 312.5,-174.5 191.5,-174.5"/>
<text text-anchor="middle" x="252" y="-181.9" font-family="Helvetica,sans-Serif" font-size="12.00" fill="#000000">../headers/CAsset.h</text>
</a>
</g>
</g>
<!-- Node1&#45;&gt;Node7 -->
<g id="edge6" class="edge">
<title>Node1&#45;&gt;Node7</title>
<path fill="none" stroke="#191970" d="M200.3335,-290.308C190.1758,-276.387 175.9324,-251.5289 186,-232 192.8984,-218.6187 205.564,-208.2114 217.9691,-200.6302"/>
<polygon fill="#191970" stroke="#191970" points="219.881,-203.5702 226.8697,-195.6072 216.4406,-197.4739 219.881,-203.5702"/>
</g>
<!-- Node12 -->
<g id="node12" class="node">
<title>Node12</title>
<g id="a_node12"><a xlink:href="../../d2/d2d/CStock_8h.html" target="_top" xlink:title=" ">
<polygon fill="none" stroke="#000000" points="327.5,-232.5 327.5,-253.5 448.5,-253.5 448.5,-232.5 327.5,-232.5"/>
<text text-anchor="middle" x="388" y="-239.9" font-family="Helvetica,sans-Serif" font-size="12.00" fill="#000000">../headers/CStock.h</text>
</a>
</g>
</g>
<!-- Node1&#45;&gt;Node12 -->
<g id="edge21" class="edge">
<title>Node1&#45;&gt;Node12</title>
<path fill="none" stroke="#191970" d="M241.4155,-290.4966C270.7237,-281.0001 314.0485,-266.9619 346.0007,-256.6087"/>
<polygon fill="#191970" stroke="#191970" points="347.0895,-259.9352 355.5237,-253.5231 344.9317,-253.276 347.0895,-259.9352"/>
</g>
<!-- Node13 -->
<g id="node13" class="node">
<title>Node13</title>
<g id="a_node13"><a xlink:href="../../dc/d09/CETF_8h.html" target="_top" xlink:title=" ">
<polygon fill="none" stroke="#000000" points="195,-232.5 195,-253.5 309,-253.5 309,-232.5 195,-232.5"/>
<text text-anchor="middle" x="252" y="-239.9" font-family="Helvetica,sans-Serif" font-size="12.00" fill="#000000">../headers/CETF.h</text>
</a>
</g>
</g>
<!-- Node1&#45;&gt;Node13 -->
<g id="edge24" class="edge">
<title>Node1&#45;&gt;Node13</title>
<path fill="none" stroke="#191970" d="M216.8869,-290.3619C222.827,-282.3496 231.1224,-271.1605 238.1588,-261.6696"/>
<polygon fill="#191970" stroke="#191970" points="241.0191,-263.6883 244.1631,-253.5707 235.3959,-259.5193 241.0191,-263.6883"/>
</g>
<!-- Node7&#45;&gt;Node2 -->
<g id="edge7" class="edge">
<title>Node7&#45;&gt;Node2</title>
<path fill="none" stroke="#191970" d="M217.9745,-174.3752C177.1042,-159.8086 109.4989,-129.6331 73,-80 62.7826,-66.1058 58.9581,-46.7258 57.5886,-32.041"/>
<polygon fill="#191970" stroke="#191970" points="61.0715,-31.6575 56.9545,-21.8953 54.0852,-32.0941 61.0715,-31.6575"/>
</g>
<!-- Node7&#45;&gt;Node3 -->
<g id="edge8" class="edge">
<title>Node7&#45;&gt;Node3</title>
<path fill="none" stroke="#191970" d="M266.3042,-174.2949C293.2948,-154.0955 351.9272,-110.2158 384.3336,-85.9632"/>
<polygon fill="#191970" stroke="#191970" points="386.8213,-88.4731 392.7304,-79.6792 382.627,-82.8688 386.8213,-88.4731"/>
</g>
<!-- Node7&#45;&gt;Node5 -->
<g id="edge10" class="edge">
<title>Node7&#45;&gt;Node5</title>
<path fill="none" stroke="#191970" d="M214.0265,-174.4886C180.3388,-165.1064 129.8189,-150.8963 86,-138 84.5502,-137.5733 83.0686,-137.134 81.5727,-136.6877"/>
<polygon fill="#191970" stroke="#191970" points="82.265,-133.2408 71.6803,-133.7036 80.2434,-139.9425 82.265,-133.2408"/>
</g>
<!-- Node7&#45;&gt;Node6 -->
<g id="edge9" class="edge">
<title>Node7&#45;&gt;Node6</title>
<path fill="none" stroke="#191970" d="M296.8862,-174.4977C365.3881,-156.3655 483.6168,-115.5238 439,-58 420.973,-34.758 338.3926,-21.0142 290.5518,-14.8671"/>
<polygon fill="#191970" stroke="#191970" points="290.9758,-11.393 280.6211,-13.6359 290.1145,-18.3398 290.9758,-11.393"/>
</g>
<!-- Node8 -->
<g id="node8" class="node">
<title>Node8</title>
<g id="a_node8"><a xlink:href="../../dd/d85/CDataBase_8h.html" target="_top" xlink:title=" ">
<polygon fill="none" stroke="#000000" points="207.5,-116.5 207.5,-137.5 296.5,-137.5 296.5,-116.5 207.5,-116.5"/>
<text text-anchor="middle" x="252" y="-123.9" font-family="Helvetica,sans-Serif" font-size="12.00" fill="#000000">CDataBase.h</text>
</a>
</g>
</g>
<!-- Node7&#45;&gt;Node8 -->
<g id="edge11" class="edge">
<title>Node7&#45;&gt;Node8</title>
<path fill="none" stroke="#191970" d="M252,-174.3619C252,-166.9219 252,-156.7427 252,-147.7276"/>
<polygon fill="#191970" stroke="#191970" points="255.5001,-147.5706 252,-137.5707 248.5001,-147.5707 255.5001,-147.5706"/>
</g>
<!-- Node8&#45;&gt;Node2 -->
<g id="edge12" class="edge">
<title>Node8&#45;&gt;Node2</title>
<path fill="none" stroke="#191970" d="M207.1524,-122.7696C173.2062,-117.5502 127.1016,-105.9134 95,-80 79.4372,-67.4372 69.254,-46.7088 63.383,-31.2447"/>
<polygon fill="#191970" stroke="#191970" points="66.5967,-29.8311 59.9944,-21.5449 59.9883,-32.1398 66.5967,-29.8311"/>
</g>
<!-- Node8&#45;&gt;Node3 -->
<g id="edge13" class="edge">
<title>Node8&#45;&gt;Node3</title>
<path fill="none" stroke="#191970" d="M280.0693,-116.4966C306.4866,-106.6115 346.055,-91.8052 373.9781,-81.3566"/>
<polygon fill="#191970" stroke="#191970" points="375.5536,-84.5041 383.6927,-77.7214 373.1003,-77.9481 375.5536,-84.5041"/>
</g>
<!-- Node8&#45;&gt;Node6 -->
<g id="edge15" class="edge">
<title>Node8&#45;&gt;Node6</title>
<path fill="none" stroke="#191970" d="M238.2393,-116.3135C223.1496,-103.197 202.1732,-79.9825 211,-58 215.5764,-46.6028 224.3818,-36.4093 232.9988,-28.4526"/>
<polygon fill="#191970" stroke="#191970" points="235.4312,-30.9771 240.7327,-21.804 230.8679,-25.6689 235.4312,-30.9771"/>
</g>
<!-- Node9 -->
<g id="node9" class="node">
<title>Node9</title>
<g id="a_node9"><a xlink:title=" ">
<polygon fill="none" stroke="#bfbfbf" points="310,-58.5 310,-79.5 366,-79.5 366,-58.5 310,-58.5"/>
<text text-anchor="middle" x="338" y="-65.9" font-family="Helvetica,sans-Serif" font-size="12.00" fill="#000000">fstream</text>
</a>
</g>
</g>
<!-- Node8&#45;&gt;Node9 -->
<g id="edge14" class="edge">
<title>Node8&#45;&gt;Node9</title>
<path fill="none" stroke="#191970" d="M267.7737,-116.3619C280.6239,-107.6955 298.9848,-95.3126 313.7097,-85.3819"/>
<polygon fill="#191970" stroke="#191970" points="315.9925,-88.0639 322.3263,-79.5707 312.0785,-82.2604 315.9925,-88.0639"/>
</g>
<!-- Node10 -->
<g id="node10" class="node">
<title>Node10</title>
<g id="a_node10"><a xlink:href="../../d2/d92/CRisk_8h.html" target="_top" xlink:title=" ">
<polygon fill="none" stroke="#000000" points="104.5,-58.5 104.5,-79.5 163.5,-79.5 163.5,-58.5 104.5,-58.5"/>
<text text-anchor="middle" x="134" y="-65.9" font-family="Helvetica,sans-Serif" font-size="12.00" fill="#000000">CRisk.h</text>
</a>
</g>
</g>
<!-- Node8&#45;&gt;Node10 -->
<g id="edge16" class="edge">
<title>Node8&#45;&gt;Node10</title>
<path fill="none" stroke="#191970" d="M230.6311,-116.4966C212.201,-107.4378 185.3629,-94.2462 164.6449,-84.0628"/>
<polygon fill="#191970" stroke="#191970" points="166.1271,-80.8914 155.6087,-79.6212 163.0392,-87.1735 166.1271,-80.8914"/>
</g>
<!-- Node11 -->
<g id="node11" class="node">
<title>Node11</title>
<g id="a_node11"><a xlink:href="../../d3/d97/CReturn_8h.html" target="_top" xlink:title=" ">
<polygon fill="none" stroke="#000000" points="220.5,-58.5 220.5,-79.5 291.5,-79.5 291.5,-58.5 220.5,-58.5"/>
<text text-anchor="middle" x="256" y="-65.9" font-family="Helvetica,sans-Serif" font-size="12.00" fill="#000000">CReturn.h</text>
</a>
</g>
</g>
<!-- Node8&#45;&gt;Node11 -->
<g id="edge19" class="edge">
<title>Node8&#45;&gt;Node11</title>
<path fill="none" stroke="#191970" d="M252.7337,-116.3619C253.2468,-108.9219 253.9488,-98.7427 254.5705,-89.7276"/>
<polygon fill="#191970" stroke="#191970" points="258.0746,-89.7878 255.271,-79.5707 251.0912,-89.3061 258.0746,-89.7878"/>
</g>
<!-- Node10&#45;&gt;Node2 -->
<g id="edge17" class="edge">
<title>Node10&#45;&gt;Node2</title>
<path fill="none" stroke="#191970" d="M119.877,-58.3619C108.4802,-49.7773 92.2419,-37.5459 79.1223,-27.6636"/>
<polygon fill="#191970" stroke="#191970" points="81.1268,-24.7916 71.0335,-21.5707 76.9152,-30.3829 81.1268,-24.7916"/>
</g>
<!-- Node10&#45;&gt;Node6 -->
<g id="edge18" class="edge">
<title>Node10&#45;&gt;Node6</title>
<path fill="none" stroke="#191970" d="M156.0933,-58.4966C175.234,-49.397 203.1461,-36.1273 224.6053,-25.9253"/>
<polygon fill="#191970" stroke="#191970" points="226.1302,-29.0758 233.6588,-21.6212 223.1247,-22.7539 226.1302,-29.0758"/>
</g>
<!-- Node11&#45;&gt;Node6 -->
<g id="edge20" class="edge">
<title>Node11&#45;&gt;Node6</title>
<path fill="none" stroke="#191970" d="M256,-58.3619C256,-50.9219 256,-40.7427 256,-31.7276"/>
<polygon fill="#191970" stroke="#191970" points="259.5001,-31.5706 256,-21.5707 252.5001,-31.5707 259.5001,-31.5706"/>
</g>
<!-- Node12&#45;&gt;Node3 -->
<g id="edge22" class="edge">
<title>Node12&#45;&gt;Node3</title>
<path fill="none" stroke="#191970" d="M389.1599,-232.3774C392.2266,-204.293 400.5931,-127.6735 404.6848,-90.2027"/>
<polygon fill="#191970" stroke="#191970" points="408.2005,-90.2486 405.8067,-79.9277 401.2418,-89.4887 408.2005,-90.2486"/>
</g>
<!-- Node12&#45;&gt;Node7 -->
<g id="edge23" class="edge">
<title>Node12&#45;&gt;Node7</title>
<path fill="none" stroke="#191970" d="M363.3714,-232.4966C341.8429,-223.3154 310.3602,-209.8889 286.3554,-199.6516"/>
<polygon fill="#191970" stroke="#191970" points="287.4764,-196.3247 276.9049,-195.6212 284.7303,-202.7636 287.4764,-196.3247"/>
</g>
<!-- Node13&#45;&gt;Node7 -->
<g id="edge25" class="edge">
<title>Node13&#45;&gt;Node7</title>
<path fill="none" stroke="#191970" d="M252,-232.3619C252,-224.9219 252,-214.7427 252,-205.7276"/>
<polygon fill="#191970" stroke="#191970" points="255.5001,-205.5706 252,-195.5707 248.5001,-205.5707 255.5001,-205.5706"/>
</g>
</g>
</svg>
        <g id="navigator" transform="translate(0 0)" fill="#404254">
                <rect fill="#f2f5e9" fill-opacity="0.5" stroke="#606060" stroke-width=".5" x="0" y="0" width="60" height="60"/>
                <use id="zoomplus" xlink:href="#zoomPlus" x="17" y="9" onmousedown="handleZoom(evt,'in')"/>
                <use id="zoomminus" xlink:href="#zoomMin" x="42" y="9" onmousedown="handleZoom(evt,'out')"/>
                <use id="reset" xlink:href="#resetDef" x="30" y="36" onmousedown="handleReset()"/>
                <g id="arrowUp" xlink:href="#dirArrow" transform="translate(30 24)" onmousedown="handlePan(0,-1)">
                  <use xlink:href="#rim" fill="#404040">
                        <set attributeName="fill" to="#808080" begin="arrowUp.mouseover" end="arrowUp.mouseout"/>
                  </use>
                  <path fill="none" stroke="white" stroke-width="1.5" d="M0,-3.0v7 M-2.5,-0.5L0,-3.0L2.5,-0.5"/>
                </g>
                <g id="arrowRight" xlink:href="#dirArrow" transform="rotate(90) translate(36 -43)" onmousedown="handlePan(1,0)">
                  <use xlink:href="#rim" fill="#404040">
                        <set attributeName="fill" to="#808080" begin="arrowRight.mouseover" end="arrowRight.mouseout"/>
                  </use>
                  <path fill="none" stroke="white" stroke-width="1.5" d="M0,-3.0v7 M-2.5,-0.5L0,-3.0L2.5,-0.5"/>
                </g>
                <g id="arrowDown" xlink:href="#dirArrow" transform="rotate(180) translate(-30 -48)" onmousedown="handlePan(0,1)">
                  <use xlink:href="#rim" fill="#404040">
                        <set attributeName="fill" to="#808080" begin="arrowDown.mouseover" end="arrowDown.mouseout"/>
                  </use>
                  <path fill="none" stroke="white" stroke-width="1.5" d="M0,-3.0v7 M-2.5,-0.5L0,-3.0L2.5,-0.5"/>
                </g>
                <g id="arrowLeft" xlink:href="#dirArrow" transform="rotate(270) translate(-36 17)" onmousedown="handlePan(-1,0)">
                  <use xlink:href="#rim" fill="#404040">
                        <set attributeName="fill" to="#808080" begin="arrowLeft.mouseover" end="arrowLeft.mouseout"/>
                  </use>
                  <path fill="none" stroke="white" stroke-width="1.5" d="M0,-3.0v7 M-2.5,-0.5L0,-3.0L2.5,-0.5"/>
                </g>
        </g>
        <svg viewBox="0 0 15 15" width="100%" height="30px" preserveAspectRatio="xMaxYMin meet">
         <g id="arrow_out" transform="scale(0.3 0.3)">
          <a xlink:href="CAsset_8cpp__incl_org.svg" target="_base">
           <rect id="button" ry="5" rx="5" y="6" x="6" height="38" width="38"
                fill="#f2f5e9" fill-opacity="0.5" stroke="#606060" stroke-width="1.0"/>
           <path id="arrow"
             d="M 11.500037,31.436501 C 11.940474,20.09759 22.043105,11.32322 32.158766,21.979434 L 37.068811,17.246167 C 37.068811,17.246167 37.088388,32 37.088388,32 L 22.160133,31.978069 C 22.160133,31.978069 26.997745,27.140456 26.997745,27.140456 C 18.528582,18.264221 13.291696,25.230495 11.500037,31.436501 z"
             style="fill:#404040;"/>
          </a>
         </g>
        </svg>
</svg>
