<?xml version="1.0" encoding="UTF-8" standalone="no"?>
<!DOCTYPE svg PUBLIC "-//W3C//DTD SVG 1.1//EN"
 "http://www.w3.org/Graphics/SVG/1.1/DTD/svg11.dtd">
<!-- Generated by graphviz version 2.40.1 (20161225.0304)
 -->
<!-- Title: sources/CMyHoldings.cpp Pages: 1 -->
<svg width="920pt" height="494pt"
 viewBox="0.00 0.00 919.50 494.00" xmlns="http://www.w3.org/2000/svg" xmlns:xlink="http://www.w3.org/1999/xlink">
<g id="graph0" class="graph" transform="scale(1 1) rotate(0) translate(4 490)">
<title>sources/CMyHoldings.cpp</title>
<!-- Node1 -->
<g id="node1" class="node">
<title>Node1</title>
<g id="a_node1"><a xlink:title=" ">
<polygon fill="#bfbfbf" stroke="#000000" points="415.5,-464.5 415.5,-485.5 572.5,-485.5 572.5,-464.5 415.5,-464.5"/>
<text text-anchor="middle" x="494" y="-471.9" font-family="Helvetica,sans-Serif" font-size="12.00" fill="#000000">sources/CMyHoldings.cpp</text>
</a>
</g>
</g>
<!-- Node2 -->
<g id="node2" class="node">
<title>Node2</title>
<g id="a_node2"><a xlink:href="../../df/dca/CMyHoldings_8h.html" target="_top" xlink:title=" ">
<polygon fill="none" stroke="#000000" points="104.5,-290.5 104.5,-311.5 259.5,-311.5 259.5,-290.5 104.5,-290.5"/>
<text text-anchor="middle" x="182" y="-297.9" font-family="Helvetica,sans-Serif" font-size="12.00" fill="#000000">../headers/CMyHoldings.h</text>
</a>
</g>
</g>
<!-- Node1&#45;&gt;Node2 -->
<g id="edge1" class="edge">
<title>Node1&#45;&gt;Node2</title>
<path fill="none" stroke="#191970" d="M439.5239,-464.4729C381.15,-450.9226 288.3589,-422.5938 225,-370 209.2045,-356.8883 197.4779,-336.4044 190.295,-321.1567"/>
<polygon fill="#191970" stroke="#191970" points="193.3071,-319.315 186.054,-311.5921 186.908,-322.1525 193.3071,-319.315"/>
</g>
<!-- Node5 -->
<g id="node5" class="node">
<title>Node5</title>
<g id="a_node5"><a xlink:title=" ">
<polygon fill="none" stroke="#bfbfbf" points="233,-58.5 233,-79.5 279,-79.5 279,-58.5 233,-58.5"/>
<text text-anchor="middle" x="256" y="-65.9" font-family="Helvetica,sans-Serif" font-size="12.00" fill="#000000">string</text>
</a>
</g>
</g>
<!-- Node1&#45;&gt;Node5 -->
<g id="edge43" class="edge">
<title>Node1&#45;&gt;Node5</title>
<path fill="none" stroke="#191970" d="M415.3513,-471.0996C284.9059,-462.4583 38,-435.9399 38,-359 38,-359 38,-359 38,-185 38,-102.4953 161.1945,-78.4817 222.3631,-71.6434"/>
<polygon fill="#191970" stroke="#191970" points="223.0785,-75.0886 232.6702,-70.5885 222.3658,-68.125 223.0785,-75.0886"/>
</g>
<!-- Node7 -->
<g id="node7" class="node">
<title>Node7</title>
<g id="a_node7"><a xlink:title=" ">
<polygon fill="none" stroke="#bfbfbf" points="415,-.5 415,-21.5 477,-21.5 477,-.5 415,-.5"/>
<text text-anchor="middle" x="446" y="-7.9" font-family="Helvetica,sans-Serif" font-size="12.00" fill="#000000">iostream</text>
</a>
</g>
</g>
<!-- Node1&#45;&gt;Node7 -->
<g id="edge42" class="edge">
<title>Node1&#45;&gt;Node7</title>
<path fill="none" stroke="#191970" d="M415.1078,-472.0636C310.6871,-467.1749 132.9139,-455.0865 74,-428 33.1433,-409.2156 0,-403.968 0,-359 0,-359 0,-359 0,-127 0,-43.7774 294.5403,-19.21 404.903,-12.9258"/>
<polygon fill="#191970" stroke="#191970" points="405.1986,-16.415 414.9922,-12.3734 404.8158,-9.4254 405.1986,-16.415"/>
</g>
<!-- Node8 -->
<g id="node8" class="node">
<title>Node8</title>
<g id="a_node8"><a xlink:title=" ">
<polygon fill="none" stroke="#bfbfbf" points="717,-58.5 717,-79.5 773,-79.5 773,-58.5 717,-58.5"/>
<text text-anchor="middle" x="745" y="-65.9" font-family="Helvetica,sans-Serif" font-size="12.00" fill="#000000">fstream</text>
</a>
</g>
</g>
<!-- Node1&#45;&gt;Node8 -->
<g id="edge44" class="edge">
<title>Node1&#45;&gt;Node8</title>
<path fill="none" stroke="#191970" d="M544.0724,-464.4662C622.8852,-446.4266 767,-406.8922 767,-359 767,-359 767,-359 767,-185 767,-151.0248 757.7775,-112.4169 751.2749,-89.418"/>
<polygon fill="#191970" stroke="#191970" points="754.611,-88.3562 748.4375,-79.7458 747.894,-90.3266 754.611,-88.3562"/>
</g>
<!-- Node14 -->
<g id="node14" class="node">
<title>Node14</title>
<g id="a_node14"><a xlink:href="../../d1/dea/CPortfolio_8h.html" target="_top" xlink:title=" ">
<polygon fill="none" stroke="#000000" points="426.5,-406.5 426.5,-427.5 561.5,-427.5 561.5,-406.5 426.5,-406.5"/>
<text text-anchor="middle" x="494" y="-413.9" font-family="Helvetica,sans-Serif" font-size="12.00" fill="#000000">../headers/CPortfolio.h</text>
</a>
</g>
</g>
<!-- Node1&#45;&gt;Node14 -->
<g id="edge23" class="edge">
<title>Node1&#45;&gt;Node14</title>
<path fill="none" stroke="#191970" d="M494,-464.3619C494,-456.9219 494,-446.7427 494,-437.7276"/>
<polygon fill="#191970" stroke="#191970" points="497.5001,-437.5706 494,-427.5707 490.5001,-437.5707 497.5001,-437.5706"/>
</g>
<!-- Node18 -->
<g id="node18" class="node">
<title>Node18</title>
<g id="a_node18"><a xlink:title=" ">
<polygon fill="none" stroke="#bfbfbf" points="795.5,-406.5 795.5,-427.5 848.5,-427.5 848.5,-406.5 795.5,-406.5"/>
<text text-anchor="middle" x="822" y="-413.9" font-family="Helvetica,sans-Serif" font-size="12.00" fill="#000000">chrono</text>
</a>
</g>
</g>
<!-- Node1&#45;&gt;Node18 -->
<g id="edge45" class="edge">
<title>Node1&#45;&gt;Node18</title>
<path fill="none" stroke="#191970" d="M571.4394,-464.457C629.4226,-456.0458 710.5423,-443.1812 781,-428 782.4409,-427.6895 783.9069,-427.3604 785.3853,-427.0175"/>
<polygon fill="#191970" stroke="#191970" points="786.3135,-430.3936 795.1871,-424.6048 784.6403,-423.5965 786.3135,-430.3936"/>
</g>
<!-- Node19 -->
<g id="node19" class="node">
<title>Node19</title>
<g id="a_node19"><a xlink:title=" ">
<polygon fill="none" stroke="#bfbfbf" points="866.5,-406.5 866.5,-427.5 911.5,-427.5 911.5,-406.5 866.5,-406.5"/>
<text text-anchor="middle" x="889" y="-413.9" font-family="Helvetica,sans-Serif" font-size="12.00" fill="#000000">ctime</text>
</a>
</g>
</g>
<!-- Node1&#45;&gt;Node19 -->
<g id="edge46" class="edge">
<title>Node1&#45;&gt;Node19</title>
<path fill="none" stroke="#191970" d="M572.6217,-469.6989C644.6165,-463.7437 754.068,-451.9214 856.5828,-427.971"/>
<polygon fill="#191970" stroke="#191970" points="857.5626,-431.3357 866.4804,-425.6152 855.9417,-424.5259 857.5626,-431.3357"/>
</g>
<!-- Node3 -->
<g id="node3" class="node">
<title>Node3</title>
<g id="a_node3"><a xlink:href="../../df/d1a/CBroker_8h.html" target="_top" xlink:title=" ">
<polygon fill="none" stroke="#000000" points="302.5,-232.5 302.5,-253.5 373.5,-253.5 373.5,-232.5 302.5,-232.5"/>
<text text-anchor="middle" x="338" y="-239.9" font-family="Helvetica,sans-Serif" font-size="12.00" fill="#000000">CBroker.h</text>
</a>
</g>
</g>
<!-- Node2&#45;&gt;Node3 -->
<g id="edge2" class="edge">
<title>Node2&#45;&gt;Node3</title>
<path fill="none" stroke="#191970" d="M210.2504,-290.4966C235.4625,-281.1229 272.5762,-267.3242 300.3121,-257.0122"/>
<polygon fill="#191970" stroke="#191970" points="301.5432,-260.2886 309.6966,-253.5231 299.1037,-253.7274 301.5432,-260.2886"/>
</g>
<!-- Node2&#45;&gt;Node5 -->
<g id="edge22" class="edge">
<title>Node2&#45;&gt;Node5</title>
<path fill="none" stroke="#191970" d="M178.8193,-290.4334C172.6754,-268.1858 160.9638,-215.175 175,-174 187.0668,-138.6023 216.4323,-105.851 236.2854,-86.6394"/>
<polygon fill="#191970" stroke="#191970" points="238.7432,-89.1326 243.626,-79.73 233.9454,-84.0354 238.7432,-89.1326"/>
</g>
<!-- Node4 -->
<g id="node4" class="node">
<title>Node4</title>
<g id="a_node4"><a xlink:href="../../de/d98/CUser_8h.html" target="_top" xlink:title=" ">
<polygon fill="none" stroke="#000000" points="184.5,-174.5 184.5,-195.5 245.5,-195.5 245.5,-174.5 184.5,-174.5"/>
<text text-anchor="middle" x="215" y="-181.9" font-family="Helvetica,sans-Serif" font-size="12.00" fill="#000000">CUser.h</text>
</a>
</g>
</g>
<!-- Node3&#45;&gt;Node4 -->
<g id="edge3" class="edge">
<title>Node3&#45;&gt;Node4</title>
<path fill="none" stroke="#191970" d="M315.7256,-232.4966C296.4281,-223.397 268.2871,-210.1273 246.652,-199.9253"/>
<polygon fill="#191970" stroke="#191970" points="248.062,-196.7206 237.5243,-195.6212 245.0764,-203.052 248.062,-196.7206"/>
</g>
<!-- Node3&#45;&gt;Node5 -->
<g id="edge15" class="edge">
<title>Node3&#45;&gt;Node5</title>
<path fill="none" stroke="#191970" d="M332.994,-232.3774C319.6447,-204.0509 283.0265,-126.3488 265.5395,-89.2424"/>
<polygon fill="#191970" stroke="#191970" points="268.5789,-87.4815 261.1498,-79.9277 262.2468,-90.4656 268.5789,-87.4815"/>
</g>
<!-- Node6 -->
<g id="node6" class="node">
<title>Node6</title>
<g id="a_node6"><a xlink:href="../../dd/d85/CDataBase_8h.html" target="_top" xlink:title=" ">
<polygon fill="none" stroke="#000000" points="535.5,-116.5 535.5,-137.5 624.5,-137.5 624.5,-116.5 535.5,-116.5"/>
<text text-anchor="middle" x="580" y="-123.9" font-family="Helvetica,sans-Serif" font-size="12.00" fill="#000000">CDataBase.h</text>
</a>
</g>
</g>
<!-- Node3&#45;&gt;Node6 -->
<g id="edge5" class="edge">
<title>Node3&#45;&gt;Node6</title>
<path fill="none" stroke="#191970" d="M356.3447,-232.3324C380.9238,-218.2208 426.0801,-192.9267 466,-174 491.1068,-162.0964 520.0592,-150.1817 542.5038,-141.3269"/>
<polygon fill="#191970" stroke="#191970" points="543.9709,-144.5114 552.007,-137.6069 541.4192,-137.993 543.9709,-144.5114"/>
</g>
<!-- Node12 -->
<g id="node12" class="node">
<title>Node12</title>
<g id="a_node12"><a xlink:href="../../d7/d79/CAsset_8h.html" target="_top" xlink:title=" ">
<polygon fill="none" stroke="#000000" points="474.5,-174.5 474.5,-195.5 539.5,-195.5 539.5,-174.5 474.5,-174.5"/>
<text text-anchor="middle" x="507" y="-181.9" font-family="Helvetica,sans-Serif" font-size="12.00" fill="#000000">CAsset.h</text>
</a>
</g>
</g>
<!-- Node3&#45;&gt;Node12 -->
<g id="edge16" class="edge">
<title>Node3&#45;&gt;Node12</title>
<path fill="none" stroke="#191970" d="M368.6046,-232.4966C396.0369,-223.082 436.4756,-209.2036 466.5644,-198.8773"/>
<polygon fill="#191970" stroke="#191970" points="468.0157,-202.0797 476.338,-195.5231 465.7433,-195.4588 468.0157,-202.0797"/>
</g>
<!-- Node4&#45;&gt;Node5 -->
<g id="edge4" class="edge">
<title>Node4&#45;&gt;Node5</title>
<path fill="none" stroke="#191970" d="M218.7837,-174.2949C225.618,-154.9588 240.1221,-113.9229 248.8686,-89.1767"/>
<polygon fill="#191970" stroke="#191970" points="252.1929,-90.274 252.2255,-79.6792 245.593,-87.9412 252.1929,-90.274"/>
</g>
<!-- Node6&#45;&gt;Node5 -->
<g id="edge7" class="edge">
<title>Node6&#45;&gt;Node5</title>
<path fill="none" stroke="#191970" d="M535.4882,-117.6509C532.6177,-117.0823 529.7695,-116.5274 527,-116 441.6037,-99.7375 340.6156,-82.8361 289.3976,-74.4287"/>
<polygon fill="#191970" stroke="#191970" points="289.6813,-70.9286 279.2472,-72.7669 288.5503,-77.8367 289.6813,-70.9286"/>
</g>
<!-- Node6&#45;&gt;Node7 -->
<g id="edge6" class="edge">
<title>Node6&#45;&gt;Node7</title>
<path fill="none" stroke="#191970" d="M567.6338,-116.2949C544.3997,-96.1819 494.044,-52.5904 465.9558,-28.2752"/>
<polygon fill="#191970" stroke="#191970" points="468.1877,-25.578 458.3363,-21.6792 463.6062,-30.8705 468.1877,-25.578"/>
</g>
<!-- Node6&#45;&gt;Node8 -->
<g id="edge8" class="edge">
<title>Node6&#45;&gt;Node8</title>
<path fill="none" stroke="#191970" d="M609.8803,-116.4966C637.2473,-106.8767 677.8728,-92.5962 707.4287,-82.2069"/>
<polygon fill="#191970" stroke="#191970" points="708.7191,-85.4633 716.9925,-78.8451 706.3977,-78.8594 708.7191,-85.4633"/>
</g>
<!-- Node9 -->
<g id="node9" class="node">
<title>Node9</title>
<g id="a_node9"><a xlink:title=" ">
<polygon fill="none" stroke="#bfbfbf" points="596.5,-.5 596.5,-21.5 645.5,-21.5 645.5,-.5 596.5,-.5"/>
<text text-anchor="middle" x="621" y="-7.9" font-family="Helvetica,sans-Serif" font-size="12.00" fill="#000000">vector</text>
</a>
</g>
</g>
<!-- Node6&#45;&gt;Node9 -->
<g id="edge9" class="edge">
<title>Node6&#45;&gt;Node9</title>
<path fill="none" stroke="#191970" d="M566.9186,-116.4294C551.7703,-102.8468 530.3049,-78.5662 542,-58 551.6281,-41.0686 570.0315,-29.5987 586.6547,-22.2311"/>
<polygon fill="#191970" stroke="#191970" points="588.2183,-25.3734 596.1567,-18.3569 585.5754,-18.8915 588.2183,-25.3734"/>
</g>
<!-- Node10 -->
<g id="node10" class="node">
<title>Node10</title>
<g id="a_node10"><a xlink:href="../../d2/d92/CRisk_8h.html" target="_top" xlink:title=" ">
<polygon fill="none" stroke="#000000" points="550.5,-58.5 550.5,-79.5 609.5,-79.5 609.5,-58.5 550.5,-58.5"/>
<text text-anchor="middle" x="580" y="-65.9" font-family="Helvetica,sans-Serif" font-size="12.00" fill="#000000">CRisk.h</text>
</a>
</g>
</g>
<!-- Node6&#45;&gt;Node10 -->
<g id="edge10" class="edge">
<title>Node6&#45;&gt;Node10</title>
<path fill="none" stroke="#191970" d="M580,-116.3619C580,-108.9219 580,-98.7427 580,-89.7276"/>
<polygon fill="#191970" stroke="#191970" points="583.5001,-89.5706 580,-79.5707 576.5001,-89.5707 583.5001,-89.5706"/>
</g>
<!-- Node11 -->
<g id="node11" class="node">
<title>Node11</title>
<g id="a_node11"><a xlink:href="../../d3/d97/CReturn_8h.html" target="_top" xlink:title=" ">
<polygon fill="none" stroke="#000000" points="627.5,-58.5 627.5,-79.5 698.5,-79.5 698.5,-58.5 627.5,-58.5"/>
<text text-anchor="middle" x="663" y="-65.9" font-family="Helvetica,sans-Serif" font-size="12.00" fill="#000000">CReturn.h</text>
</a>
</g>
</g>
<!-- Node6&#45;&gt;Node11 -->
<g id="edge13" class="edge">
<title>Node6&#45;&gt;Node11</title>
<path fill="none" stroke="#191970" d="M595.2235,-116.3619C607.6254,-107.6955 625.3458,-95.3126 639.557,-85.3819"/>
<polygon fill="#191970" stroke="#191970" points="641.6809,-88.1676 647.873,-79.5707 637.6712,-82.4297 641.6809,-88.1676"/>
</g>
<!-- Node10&#45;&gt;Node7 -->
<g id="edge11" class="edge">
<title>Node10&#45;&gt;Node7</title>
<path fill="none" stroke="#191970" d="M555.7336,-58.4966C534.5217,-49.3154 503.5019,-35.8889 479.8502,-25.6516"/>
<polygon fill="#191970" stroke="#191970" points="481.1062,-22.3815 470.5387,-21.6212 478.3256,-28.8055 481.1062,-22.3815"/>
</g>
<!-- Node10&#45;&gt;Node9 -->
<g id="edge12" class="edge">
<title>Node10&#45;&gt;Node9</title>
<path fill="none" stroke="#191970" d="M587.52,-58.3619C593.1261,-50.4313 600.9322,-39.3885 607.5968,-29.9606"/>
<polygon fill="#191970" stroke="#191970" points="610.6133,-31.7568 613.5276,-21.5707 604.8972,-27.7161 610.6133,-31.7568"/>
</g>
<!-- Node11&#45;&gt;Node9 -->
<g id="edge14" class="edge">
<title>Node11&#45;&gt;Node9</title>
<path fill="none" stroke="#191970" d="M655.2966,-58.3619C649.5537,-50.4313 641.5572,-39.3885 634.7301,-29.9606"/>
<polygon fill="#191970" stroke="#191970" points="637.3546,-27.6173 628.6546,-21.5707 631.6849,-31.7229 637.3546,-27.6173"/>
</g>
<!-- Node12&#45;&gt;Node5 -->
<g id="edge18" class="edge">
<title>Node12&#45;&gt;Node5</title>
<path fill="none" stroke="#191970" d="M483.8364,-174.2949C438.801,-153.4818 339.3649,-107.5272 288.0413,-83.808"/>
<polygon fill="#191970" stroke="#191970" points="289.2909,-80.5298 278.7451,-79.5117 286.3542,-86.884 289.2909,-80.5298"/>
</g>
<!-- Node12&#45;&gt;Node6 -->
<g id="edge21" class="edge">
<title>Node12&#45;&gt;Node6</title>
<path fill="none" stroke="#191970" d="M520.3893,-174.3619C531.0912,-165.859 546.296,-153.7785 558.6707,-143.9466"/>
<polygon fill="#191970" stroke="#191970" points="561.0432,-146.5318 566.6956,-137.5707 556.6887,-141.0511 561.0432,-146.5318"/>
</g>
<!-- Node12&#45;&gt;Node7 -->
<g id="edge17" class="edge">
<title>Node12&#45;&gt;Node7</title>
<path fill="none" stroke="#191970" d="M494.4998,-174.3589C485.0824,-165.5976 472.6873,-152.325 466,-138 449.7977,-103.2927 446.3303,-58.0492 445.8051,-31.9907"/>
<polygon fill="#191970" stroke="#191970" points="449.3036,-31.754 445.7334,-21.7788 442.3038,-31.8032 449.3036,-31.754"/>
</g>
<!-- Node12&#45;&gt;Node9 -->
<g id="edge19" class="edge">
<title>Node12&#45;&gt;Node9</title>
<path fill="none" stroke="#191970" d="M539.5675,-177.4656C606.0756,-161.3465 753.633,-121.5843 782,-80 814.1988,-32.7985 712.4058,-17.715 655.9621,-13.0301"/>
<polygon fill="#191970" stroke="#191970" points="655.8983,-9.5153 645.6619,-12.2481 655.3682,-16.4952 655.8983,-9.5153"/>
</g>
<!-- Node13 -->
<g id="node13" class="node">
<title>Node13</title>
<g id="a_node13"><a xlink:title=" ">
<polygon fill="none" stroke="#bfbfbf" points="474.5,-116.5 474.5,-137.5 517.5,-137.5 517.5,-116.5 474.5,-116.5"/>
<text text-anchor="middle" x="496" y="-123.9" font-family="Helvetica,sans-Serif" font-size="12.00" fill="#000000">tuple</text>
</a>
</g>
</g>
<!-- Node12&#45;&gt;Node13 -->
<g id="edge20" class="edge">
<title>Node12&#45;&gt;Node13</title>
<path fill="none" stroke="#191970" d="M504.9824,-174.3619C503.5559,-166.8401 501.5984,-156.5187 499.8748,-147.4308"/>
<polygon fill="#191970" stroke="#191970" points="503.3069,-146.7433 498.0048,-137.5707 496.4295,-148.0477 503.3069,-146.7433"/>
</g>
<!-- Node14&#45;&gt;Node2 -->
<g id="edge41" class="edge">
<title>Node14&#45;&gt;Node2</title>
<path fill="none" stroke="#191970" d="M426.3073,-407.5209C367.644,-398.5713 287.7889,-384.4081 259,-370 234.2586,-357.6176 211.3972,-335.133 197.1208,-319.1995"/>
<polygon fill="#191970" stroke="#191970" points="199.6755,-316.8034 190.4732,-311.5527 194.3926,-321.3959 199.6755,-316.8034"/>
</g>
<!-- Node14&#45;&gt;Node3 -->
<g id="edge37" class="edge">
<title>Node14&#45;&gt;Node3</title>
<path fill="none" stroke="#191970" d="M484.4763,-406.3774C458.646,-377.5667 387.0216,-297.6779 354.4746,-261.3755"/>
<polygon fill="#191970" stroke="#191970" points="357.0787,-259.037 347.7973,-253.9277 351.8667,-263.7099 357.0787,-259.037"/>
</g>
<!-- Node14&#45;&gt;Node5 -->
<g id="edge24" class="edge">
<title>Node14&#45;&gt;Node5</title>
<path fill="none" stroke="#191970" d="M426.4281,-408.4984C324.2671,-394.18 137.8346,-361.8427 95,-312 74.2683,-287.8764 76,-274.8081 76,-243 76,-243 76,-243 76,-185 76,-115.9599 170.7207,-86.0429 222.7385,-74.8188"/>
<polygon fill="#191970" stroke="#191970" points="223.7382,-78.1871 232.8366,-72.7585 222.3388,-71.3284 223.7382,-78.1871"/>
</g>
<!-- Node14&#45;&gt;Node6 -->
<g id="edge40" class="edge">
<title>Node14&#45;&gt;Node6</title>
<path fill="none" stroke="#191970" d="M521.0461,-406.4308C538.839,-398.4567 561.7537,-386.1304 578,-370 599.0464,-349.1038 603.4144,-340.6716 611,-312 626.6253,-252.9405 602.7042,-181.0962 588.8045,-146.9179"/>
<polygon fill="#191970" stroke="#191970" points="591.9764,-145.4317 584.8674,-137.5759 585.5258,-148.1503 591.9764,-145.4317"/>
</g>
<!-- Node14&#45;&gt;Node10 -->
<g id="edge38" class="edge">
<title>Node14&#45;&gt;Node10</title>
<path fill="none" stroke="#191970" d="M521.0461,-406.4308C538.839,-398.4567 561.7537,-386.1304 578,-370 599.0464,-349.1038 601.548,-340.1117 611,-312 638.9526,-228.8646 670.3476,-195.8229 634,-116 628.4068,-103.7168 617.842,-93.3973 607.5299,-85.5857"/>
<polygon fill="#191970" stroke="#191970" points="609.2372,-82.5079 599.0418,-79.6259 605.2147,-88.2368 609.2372,-82.5079"/>
</g>
<!-- Node14&#45;&gt;Node11 -->
<g id="edge39" class="edge">
<title>Node14&#45;&gt;Node11</title>
<path fill="none" stroke="#191970" d="M532.8055,-406.4638C599.5521,-387.1848 729,-344.2234 729,-301 729,-301 729,-301 729,-185 729,-146.1687 700.7148,-108.4657 681.1781,-87.0553"/>
<polygon fill="#191970" stroke="#191970" points="683.6122,-84.5355 674.196,-79.679 678.5284,-89.3475 683.6122,-84.5355"/>
</g>
<!-- Node14&#45;&gt;Node12 -->
<g id="edge25" class="edge">
<title>Node14&#45;&gt;Node12</title>
<path fill="none" stroke="#191970" d="M510.2819,-406.4955C534.392,-389.849 578.6094,-354.8603 596,-312 613.858,-267.9877 564.8389,-224.3246 532.6346,-201.4301"/>
<polygon fill="#191970" stroke="#191970" points="534.2902,-198.321 524.0668,-195.5403 530.3248,-204.0895 534.2902,-198.321"/>
</g>
<!-- Node15 -->
<g id="node15" class="node">
<title>Node15</title>
<g id="a_node15"><a xlink:href="../../dd/d2c/CClient_8h.html" target="_top" xlink:title=" ">
<polygon fill="none" stroke="#000000" points="268.5,-348.5 268.5,-369.5 335.5,-369.5 335.5,-348.5 268.5,-348.5"/>
<text text-anchor="middle" x="302" y="-355.9" font-family="Helvetica,sans-Serif" font-size="12.00" fill="#000000">CClient.h</text>
</a>
</g>
</g>
<!-- Node14&#45;&gt;Node15 -->
<g id="edge26" class="edge">
<title>Node14&#45;&gt;Node15</title>
<path fill="none" stroke="#191970" d="M459.2302,-406.4966C427.2646,-396.8404 379.7543,-382.4883 345.3301,-372.0893"/>
<polygon fill="#191970" stroke="#191970" points="346.1308,-368.675 335.5459,-369.1337 344.1065,-375.376 346.1308,-368.675"/>
</g>
<!-- Node16 -->
<g id="node16" class="node">
<title>Node16</title>
<g id="a_node16"><a xlink:href="../../d2/d2d/CStock_8h.html" target="_top" xlink:title=" ">
<polygon fill="none" stroke="#000000" points="430.5,-232.5 430.5,-253.5 495.5,-253.5 495.5,-232.5 430.5,-232.5"/>
<text text-anchor="middle" x="463" y="-239.9" font-family="Helvetica,sans-Serif" font-size="12.00" fill="#000000">CStock.h</text>
</a>
</g>
</g>
<!-- Node14&#45;&gt;Node16 -->
<g id="edge32" class="edge">
<title>Node14&#45;&gt;Node16</title>
<path fill="none" stroke="#191970" d="M492.1075,-406.3774C487.1039,-378.293 473.4533,-301.6735 466.7775,-264.2027"/>
<polygon fill="#191970" stroke="#191970" points="470.1467,-263.1588 464.9469,-253.9277 463.2552,-264.3866 470.1467,-263.1588"/>
</g>
<!-- Node17 -->
<g id="node17" class="node">
<title>Node17</title>
<g id="a_node17"><a xlink:href="../../dc/d09/CETF_8h.html" target="_top" xlink:title=" ">
<polygon fill="none" stroke="#000000" points="527.5,-290.5 527.5,-311.5 586.5,-311.5 586.5,-290.5 527.5,-290.5"/>
<text text-anchor="middle" x="557" y="-297.9" font-family="Helvetica,sans-Serif" font-size="12.00" fill="#000000">CETF.h</text>
</a>
</g>
</g>
<!-- Node14&#45;&gt;Node17 -->
<g id="edge35" class="edge">
<title>Node14&#45;&gt;Node17</title>
<path fill="none" stroke="#191970" d="M499.814,-406.2949C510.4093,-386.7861 533.0011,-345.1884 546.3998,-320.5177"/>
<polygon fill="#191970" stroke="#191970" points="549.5031,-322.1373 551.2001,-311.6792 543.3518,-318.7964 549.5031,-322.1373"/>
</g>
<!-- Node15&#45;&gt;Node2 -->
<g id="edge30" class="edge">
<title>Node15&#45;&gt;Node2</title>
<path fill="none" stroke="#191970" d="M280.2689,-348.4966C261.5264,-339.4378 234.2335,-326.2462 213.1643,-316.0628"/>
<polygon fill="#191970" stroke="#191970" points="214.5015,-312.8217 203.9749,-311.6212 211.4553,-319.1242 214.5015,-312.8217"/>
</g>
<!-- Node15&#45;&gt;Node4 -->
<g id="edge29" class="edge">
<title>Node15&#45;&gt;Node4</title>
<path fill="none" stroke="#191970" d="M296.7317,-348.2276C290.0758,-334.637 278.2517,-310.5551 268,-290 253.1302,-260.1854 235.6857,-225.7233 224.9887,-204.6488"/>
<polygon fill="#191970" stroke="#191970" points="228.1003,-203.0459 220.4512,-195.7149 221.8591,-206.2158 228.1003,-203.0459"/>
</g>
<!-- Node15&#45;&gt;Node5 -->
<g id="edge28" class="edge">
<title>Node15&#45;&gt;Node5</title>
<path fill="none" stroke="#191970" d="M300.3083,-348.3348C293.5461,-305.7036 268.3862,-147.0869 259.2998,-89.8034"/>
<polygon fill="#191970" stroke="#191970" points="262.7306,-89.0903 257.7071,-79.7622 255.817,-90.187 262.7306,-89.0903"/>
</g>
<!-- Node15&#45;&gt;Node6 -->
<g id="edge31" class="edge">
<title>Node15&#45;&gt;Node6</title>
<path fill="none" stroke="#191970" d="M334.4756,-348.4578C377.5418,-333.1889 454.0332,-301.45 505,-254 528.6816,-231.9524 532.4862,-223.8246 549,-196 558.2936,-180.341 566.614,-161.4029 572.2891,-147.3315"/>
<polygon fill="#191970" stroke="#191970" points="575.6915,-148.242 576.0855,-137.6545 569.175,-145.6855 575.6915,-148.242"/>
</g>
<!-- Node15&#45;&gt;Node7 -->
<g id="edge27" class="edge">
<title>Node15&#45;&gt;Node7</title>
<path fill="none" stroke="#191970" d="M312.6322,-348.3679C329.9412,-330.461 364.1666,-292.4589 383,-254 420.6535,-177.1092 437.6165,-75.1348 443.4711,-31.8504"/>
<polygon fill="#191970" stroke="#191970" points="446.9707,-32.0784 444.7814,-21.7122 440.0284,-31.1811 446.9707,-32.0784"/>
</g>
<!-- Node16&#45;&gt;Node5 -->
<g id="edge33" class="edge">
<title>Node16&#45;&gt;Node5</title>
<path fill="none" stroke="#191970" d="M450.3628,-232.3774C415.7176,-203.2554 318.9871,-121.9457 276.479,-86.2142"/>
<polygon fill="#191970" stroke="#191970" points="278.6418,-83.46 268.7348,-79.7046 274.1376,-88.8184 278.6418,-83.46"/>
</g>
<!-- Node16&#45;&gt;Node12 -->
<g id="edge34" class="edge">
<title>Node16&#45;&gt;Node12</title>
<path fill="none" stroke="#191970" d="M471.0703,-232.3619C477.1486,-224.3496 485.6369,-213.1605 492.8369,-203.6696"/>
<polygon fill="#191970" stroke="#191970" points="495.7254,-205.653 498.9809,-195.5707 490.1486,-201.4222 495.7254,-205.653"/>
</g>
<!-- Node17&#45;&gt;Node12 -->
<g id="edge36" class="edge">
<title>Node17&#45;&gt;Node12</title>
<path fill="none" stroke="#191970" d="M552.3857,-290.2949C544.0512,-270.9588 526.3633,-229.9229 515.6968,-205.1767"/>
<polygon fill="#191970" stroke="#191970" points="518.7756,-203.477 511.6031,-195.6792 512.3473,-206.2479 518.7756,-203.477"/>
</g>
</g>
</svg>
