<?xml version="1.0" encoding="UTF-8" standalone="no"?>
<!DOCTYPE svg PUBLIC "-//W3C//DTD SVG 1.1//EN"
 "http://www.w3.org/Graphics/SVG/1.1/DTD/svg11.dtd">
<!-- Generated by graphviz version 2.40.1 (20161225.0304)
 -->
<!-- Title: headers/CAsset.h Pages: 1 -->
<svg width="1186pt" height="320pt"
 viewBox="0.00 0.00 1186.00 320.00" xmlns="http://www.w3.org/2000/svg" xmlns:xlink="http://www.w3.org/1999/xlink">
<g id="graph0" class="graph" transform="scale(1 1) rotate(0) translate(4 316)">
<title>headers/CAsset.h</title>
<!-- Node1 -->
<g id="node1" class="node">
<title>Node1</title>
<g id="a_node1"><a xlink:title=" ">
<polygon fill="#bfbfbf" stroke="#000000" points="603,-290.5 603,-311.5 715,-311.5 715,-290.5 603,-290.5"/>
<text text-anchor="middle" x="659" y="-297.9" font-family="Helvetica,sans-Serif" font-size="12.00" fill="#000000">headers/CAsset.h</text>
</a>
</g>
</g>
<!-- Node2 -->
<g id="node2" class="node">
<title>Node2</title>
<g id="a_node2"><a xlink:href="../../df/d1a/CBroker_8h.html" target="_top" xlink:title=" ">
<polygon fill="none" stroke="#000000" points="212.5,-232.5 212.5,-253.5 329.5,-253.5 329.5,-232.5 212.5,-232.5"/>
<text text-anchor="middle" x="271" y="-239.9" font-family="Helvetica,sans-Serif" font-size="12.00" fill="#000000">headers/CBroker.h</text>
</a>
</g>
</g>
<!-- Node1&#45;&gt;Node2 -->
<g id="edge1" class="edge">
<title>Node1&#45;&gt;Node2</title>
<path fill="none" stroke="#191970" d="M593.0317,-291.1855C529.2957,-281.6963 430.0322,-266.9001 344,-254 339.3103,-253.2968 334.4512,-252.5671 329.5698,-251.8332"/>
<polygon fill="#191970" stroke="#191970" points="592.5421,-294.6511 602.9485,-292.6617 593.5729,-287.7274 592.5421,-294.6511"/>
</g>
<!-- Node6 -->
<g id="node6" class="node">
<title>Node6</title>
<g id="a_node6"><a xlink:href="../../df/d0a/main_8cpp.html" target="_top" xlink:title=" ">
<polygon fill="none" stroke="#000000" points="700.5,-.5 700.5,-21.5 765.5,-21.5 765.5,-.5 700.5,-.5"/>
<text text-anchor="middle" x="733" y="-7.9" font-family="Helvetica,sans-Serif" font-size="12.00" fill="#000000">main.cpp</text>
</a>
</g>
</g>
<!-- Node1&#45;&gt;Node6 -->
<g id="edge30" class="edge">
<title>Node1&#45;&gt;Node6</title>
<path fill="none" stroke="#191970" d="M725.234,-292.472C825.4337,-277.6926 1004,-243.1908 1004,-185 1004,-185 1004,-185 1004,-127 1004,-75.6945 837.7667,-33.599 765.6889,-17.7581"/>
<polygon fill="#191970" stroke="#191970" points="724.5933,-289.0282 715.198,-293.9251 725.5964,-295.956 724.5933,-289.0282"/>
</g>
<!-- Node8 -->
<g id="node8" class="node">
<title>Node8</title>
<g id="a_node8"><a xlink:href="../../d1/dea/CPortfolio_8h.html" target="_top" xlink:title=" ">
<polygon fill="none" stroke="#000000" points="295,-58.5 295,-79.5 421,-79.5 421,-58.5 295,-58.5"/>
<text text-anchor="middle" x="358" y="-65.9" font-family="Helvetica,sans-Serif" font-size="12.00" fill="#000000">headers/CPortfolio.h</text>
</a>
</g>
</g>
<!-- Node1&#45;&gt;Node8 -->
<g id="edge24" class="edge">
<title>Node1&#45;&gt;Node8</title>
<path fill="none" stroke="#191970" d="M592.9217,-288.2532C538.1982,-274.4249 462.0432,-247.1089 415,-196 382.4295,-160.6145 366.0529,-103.501 360.375,-79.8218"/>
<polygon fill="#191970" stroke="#191970" points="592.334,-291.7123 602.8785,-290.6809 593.9922,-284.9116 592.334,-291.7123"/>
</g>
<!-- Node13 -->
<g id="node13" class="node">
<title>Node13</title>
<g id="a_node13"><a xlink:href="../../dc/d09/CETF_8h.html" target="_top" xlink:title=" ">
<polygon fill="none" stroke="#000000" points="741.5,-232.5 741.5,-253.5 846.5,-253.5 846.5,-232.5 741.5,-232.5"/>
<text text-anchor="middle" x="794" y="-239.9" font-family="Helvetica,sans-Serif" font-size="12.00" fill="#000000">headers/CETF.h</text>
</a>
</g>
</g>
<!-- Node1&#45;&gt;Node13 -->
<g id="edge19" class="edge">
<title>Node1&#45;&gt;Node13</title>
<path fill="none" stroke="#191970" d="M692.798,-286.4794C716.5625,-276.2695 747.8239,-262.8386 769.2782,-253.6212"/>
<polygon fill="#191970" stroke="#191970" points="691.2538,-283.3334 683.4475,-290.4966 694.017,-289.7649 691.2538,-283.3334"/>
</g>
<!-- Node14 -->
<g id="node14" class="node">
<title>Node14</title>
<g id="a_node14"><a xlink:href="../../d3/d59/CAsset_8cpp.html" target="_top" xlink:title=" ">
<polygon fill="none" stroke="#000000" points="642.5,-174.5 642.5,-195.5 765.5,-195.5 765.5,-174.5 642.5,-174.5"/>
<text text-anchor="middle" x="704" y="-181.9" font-family="Helvetica,sans-Serif" font-size="12.00" fill="#000000">sources/CAsset.cpp</text>
</a>
</g>
</g>
<!-- Node1&#45;&gt;Node14 -->
<g id="edge31" class="edge">
<title>Node1&#45;&gt;Node14</title>
<path fill="none" stroke="#191970" d="M667.8015,-280.9871C671.3801,-272.6805 675.4904,-262.9169 679,-254 687.0261,-233.6077 695.5525,-209.4699 700.2839,-195.825"/>
<polygon fill="#191970" stroke="#191970" points="664.5552,-279.6758 663.7763,-290.2419 670.9743,-282.4677 664.5552,-279.6758"/>
</g>
<!-- Node16 -->
<g id="node16" class="node">
<title>Node16</title>
<g id="a_node16"><a xlink:href="../../d2/d2d/CStock_8h.html" target="_top" xlink:title=" ">
<polygon fill="none" stroke="#000000" points="558,-232.5 558,-253.5 670,-253.5 670,-232.5 558,-232.5"/>
<text text-anchor="middle" x="614" y="-239.9" font-family="Helvetica,sans-Serif" font-size="12.00" fill="#000000">headers/CStock.h</text>
</a>
</g>
</g>
<!-- Node1&#45;&gt;Node16 -->
<g id="edge25" class="edge">
<title>Node1&#45;&gt;Node16</title>
<path fill="none" stroke="#191970" d="M644.4529,-282.2504C637.0819,-272.75 628.4039,-261.5651 622.2014,-253.5707"/>
<polygon fill="#191970" stroke="#191970" points="641.851,-284.6065 650.7463,-290.3619 647.3816,-280.3155 641.851,-284.6065"/>
</g>
<!-- Node17 -->
<g id="node17" class="node">
<title>Node17</title>
<g id="a_node17"><a xlink:href="../../d0/d8b/CStock_8cpp.html" target="_top" xlink:title=" ">
<polygon fill="none" stroke="#000000" points="424.5,-174.5 424.5,-195.5 547.5,-195.5 547.5,-174.5 424.5,-174.5"/>
<text text-anchor="middle" x="486" y="-181.9" font-family="Helvetica,sans-Serif" font-size="12.00" fill="#000000">sources/CStock.cpp</text>
</a>
</g>
</g>
<!-- Node1&#45;&gt;Node17 -->
<g id="edge33" class="edge">
<title>Node1&#45;&gt;Node17</title>
<path fill="none" stroke="#191970" d="M614.6697,-286.999C593.6641,-279.1671 568.8822,-268.1135 549,-254 525.4551,-237.2866 504.1944,-210.4566 493.4244,-195.6586"/>
<polygon fill="#191970" stroke="#191970" points="613.7367,-290.3829 624.3311,-290.4769 616.1077,-283.7967 613.7367,-290.3829"/>
</g>
<!-- Node18 -->
<g id="node18" class="node">
<title>Node18</title>
<g id="a_node18"><a xlink:href="../../d9/d0a/CDataBase_8cpp.html" target="_top" xlink:title=" ">
<polygon fill="none" stroke="#000000" points="1032,-232.5 1032,-253.5 1178,-253.5 1178,-232.5 1032,-232.5"/>
<text text-anchor="middle" x="1105" y="-239.9" font-family="Helvetica,sans-Serif" font-size="12.00" fill="#000000">sources/CDataBase.cpp</text>
</a>
</g>
</g>
<!-- Node1&#45;&gt;Node18 -->
<g id="edge32" class="edge">
<title>Node1&#45;&gt;Node18</title>
<path fill="none" stroke="#191970" d="M724.9902,-292.4183C807.0186,-281.7509 946.5802,-263.6017 1031.8155,-252.5173"/>
<polygon fill="#191970" stroke="#191970" points="724.4997,-288.9525 715.0346,-293.713 725.4025,-295.8941 724.4997,-288.9525"/>
</g>
<!-- Node3 -->
<g id="node3" class="node">
<title>Node3</title>
<g id="a_node3"><a xlink:href="../../df/dca/CMyHoldings_8h.html" target="_top" xlink:title=" ">
<polygon fill="none" stroke="#000000" points="146,-174.5 146,-195.5 292,-195.5 292,-174.5 146,-174.5"/>
<text text-anchor="middle" x="219" y="-181.9" font-family="Helvetica,sans-Serif" font-size="12.00" fill="#000000">headers/CMyHoldings.h</text>
</a>
</g>
</g>
<!-- Node2&#45;&gt;Node3 -->
<g id="edge2" class="edge">
<title>Node2&#45;&gt;Node3</title>
<path fill="none" stroke="#191970" d="M254.7096,-224.8299C246.0829,-215.2078 235.7908,-203.7282 228.4771,-195.5707"/>
<polygon fill="#191970" stroke="#191970" points="252.1809,-227.2526 261.4624,-232.3619 257.3929,-222.5798 252.1809,-227.2526"/>
</g>
<!-- Node2&#45;&gt;Node6 -->
<g id="edge17" class="edge">
<title>Node2&#45;&gt;Node6</title>
<path fill="none" stroke="#191970" d="M297.2699,-227.3339C325.3979,-211.3082 371.8272,-186.9753 415,-174 527.143,-140.2963 582.2859,-208.2116 676,-138 715.0695,-108.7287 727.9718,-46.5785 731.6765,-21.6613"/>
<polygon fill="#191970" stroke="#191970" points="295.3714,-224.3886 288.4636,-232.4219 298.8733,-230.4497 295.3714,-224.3886"/>
</g>
<!-- Node2&#45;&gt;Node8 -->
<g id="edge16" class="edge">
<title>Node2&#45;&gt;Node8</title>
<path fill="none" stroke="#191970" d="M283.9651,-224.0879C289.5067,-215.6611 295.8671,-205.5087 301,-196 323.501,-154.3171 344.9597,-102.0161 353.7824,-79.7897"/>
<polygon fill="#191970" stroke="#191970" points="281.0263,-222.1862 278.3701,-232.4427 286.8426,-226.0813 281.0263,-222.1862"/>
</g>
<!-- Node12 -->
<g id="node12" class="node">
<title>Node12</title>
<g id="a_node12"><a xlink:href="../../d3/d2d/CBroker_8cpp.html" target="_top" xlink:title=" ">
<polygon fill="none" stroke="#000000" points="0,-174.5 0,-195.5 128,-195.5 128,-174.5 0,-174.5"/>
<text text-anchor="middle" x="64" y="-181.9" font-family="Helvetica,sans-Serif" font-size="12.00" fill="#000000">sources/CBroker.cpp</text>
</a>
</g>
</g>
<!-- Node2&#45;&gt;Node12 -->
<g id="edge18" class="edge">
<title>Node2&#45;&gt;Node12</title>
<path fill="none" stroke="#191970" d="M223.4597,-229.6795C186.4405,-219.307 135.7639,-205.1078 101.5564,-195.5231"/>
<polygon fill="#191970" stroke="#191970" points="222.9404,-233.1687 233.5139,-232.4966 224.829,-226.4283 222.9404,-233.1687"/>
</g>
<!-- Node4 -->
<g id="node4" class="node">
<title>Node4</title>
<g id="a_node4"><a xlink:href="../../dd/d2c/CClient_8h.html" target="_top" xlink:title=" ">
<polygon fill="none" stroke="#000000" points="553.5,-116.5 553.5,-137.5 666.5,-137.5 666.5,-116.5 553.5,-116.5"/>
<text text-anchor="middle" x="610" y="-123.9" font-family="Helvetica,sans-Serif" font-size="12.00" fill="#000000">headers/CClient.h</text>
</a>
</g>
</g>
<!-- Node3&#45;&gt;Node4 -->
<g id="edge3" class="edge">
<title>Node3&#45;&gt;Node4</title>
<path fill="none" stroke="#191970" d="M299.7809,-173.0172C375.4761,-161.7887 486.677,-145.2934 553.3501,-135.4033"/>
<polygon fill="#191970" stroke="#191970" points="299.1853,-169.5671 289.8072,-174.4966 300.2125,-176.4913 299.1853,-169.5671"/>
</g>
<!-- Node3&#45;&gt;Node8 -->
<g id="edge14" class="edge">
<title>Node3&#45;&gt;Node8</title>
<path fill="none" stroke="#191970" d="M239.738,-167.6935C268.894,-143.3618 321.1265,-99.7721 345.2034,-79.6792"/>
<polygon fill="#191970" stroke="#191970" points="237.2628,-165.2004 231.8276,-174.2949 241.7479,-170.5748 237.2628,-165.2004"/>
</g>
<!-- Node10 -->
<g id="node10" class="node">
<title>Node10</title>
<g id="a_node10"><a xlink:href="../../d0/dce/CMyHoldings_8cpp.html" target="_top" xlink:title=" ">
<polygon fill="none" stroke="#000000" points="44.5,-.5 44.5,-21.5 201.5,-21.5 201.5,-.5 44.5,-.5"/>
<text text-anchor="middle" x="123" y="-7.9" font-family="Helvetica,sans-Serif" font-size="12.00" fill="#000000">sources/CMyHoldings.cpp</text>
</a>
</g>
</g>
<!-- Node3&#45;&gt;Node10 -->
<g id="edge15" class="edge">
<title>Node3&#45;&gt;Node10</title>
<path fill="none" stroke="#191970" d="M208.0501,-165.1534C187.7381,-128.3378 144.8513,-50.6056 129.0291,-21.9277"/>
<polygon fill="#191970" stroke="#191970" points="205.2439,-167.3124 213.1393,-174.3774 211.373,-163.9309 205.2439,-167.3124"/>
</g>
<!-- Node5 -->
<g id="node5" class="node">
<title>Node5</title>
<g id="a_node5"><a xlink:href="../../d6/d5c/CAdministrator_8h.html" target="_top" xlink:title=" ">
<polygon fill="none" stroke="#000000" points="477,-58.5 477,-79.5 629,-79.5 629,-58.5 477,-58.5"/>
<text text-anchor="middle" x="553" y="-65.9" font-family="Helvetica,sans-Serif" font-size="12.00" fill="#000000">headers/CAdministrator.h</text>
</a>
</g>
</g>
<!-- Node4&#45;&gt;Node5 -->
<g id="edge4" class="edge">
<title>Node4&#45;&gt;Node5</title>
<path fill="none" stroke="#191970" d="M592.4263,-109.118C582.913,-99.4377 571.4855,-87.8098 563.3884,-79.5707"/>
<polygon fill="#191970" stroke="#191970" points="590.0397,-111.6829 599.5453,-116.3619 595.0323,-106.7763 590.0397,-111.6829"/>
</g>
<!-- Node4&#45;&gt;Node6 -->
<g id="edge12" class="edge">
<title>Node4&#45;&gt;Node6</title>
<path fill="none" stroke="#191970" d="M628.1762,-108.9817C642.4176,-94.9506 662.7998,-75.0584 681,-58 694.4956,-45.351 710.2972,-31.1534 720.9087,-21.7054"/>
<polygon fill="#191970" stroke="#191970" points="625.6052,-106.6017 620.949,-116.1185 630.5237,-111.5825 625.6052,-106.6017"/>
</g>
<!-- Node4&#45;&gt;Node8 -->
<g id="edge7" class="edge">
<title>Node4&#45;&gt;Node8</title>
<path fill="none" stroke="#191970" d="M554.4213,-114.2081C509.1731,-103.7938 446.0766,-89.2716 403.7209,-79.5231"/>
<polygon fill="#191970" stroke="#191970" points="553.8344,-117.6644 564.3647,-116.4966 555.4045,-110.8428 553.8344,-117.6644"/>
</g>
<!-- Node9 -->
<g id="node9" class="node">
<title>Node9</title>
<g id="a_node9"><a xlink:href="../../d8/d8c/CClient_8cpp.html" target="_top" xlink:title=" ">
<polygon fill="none" stroke="#000000" points="374.5,-.5 374.5,-21.5 499.5,-21.5 499.5,-.5 374.5,-.5"/>
<text text-anchor="middle" x="437" y="-7.9" font-family="Helvetica,sans-Serif" font-size="12.00" fill="#000000">sources/CClient.cpp</text>
</a>
</g>
</g>
<!-- Node4&#45;&gt;Node9 -->
<g id="edge13" class="edge">
<title>Node4&#45;&gt;Node9</title>
<path fill="none" stroke="#191970" d="M543.5027,-116.9093C517.4435,-110.1262 488.8568,-98.8193 468,-80 450.5472,-64.2521 442.3449,-36.7921 438.9897,-21.6979"/>
<polygon fill="#191970" stroke="#191970" points="542.8021,-120.3408 553.345,-119.2938 544.4503,-113.5376 542.8021,-120.3408"/>
</g>
<!-- Node5&#45;&gt;Node6 -->
<g id="edge5" class="edge">
<title>Node5&#45;&gt;Node6</title>
<path fill="none" stroke="#191970" d="M595.1673,-55.4127C627.2822,-45.0646 670.8509,-31.0258 700.3422,-21.5231"/>
<polygon fill="#191970" stroke="#191970" points="594.0413,-52.0983 585.5966,-58.4966 596.1882,-58.761 594.0413,-52.0983"/>
</g>
<!-- Node7 -->
<g id="node7" class="node">
<title>Node7</title>
<g id="a_node7"><a xlink:href="../../d2/da4/CAdministrator_8cpp.html" target="_top" xlink:title=" ">
<polygon fill="none" stroke="#000000" points="518,-.5 518,-21.5 682,-21.5 682,-.5 518,-.5"/>
<text text-anchor="middle" x="600" y="-7.9" font-family="Helvetica,sans-Serif" font-size="12.00" fill="#000000">sources/CAdministrator.cpp</text>
</a>
</g>
</g>
<!-- Node5&#45;&gt;Node7 -->
<g id="edge6" class="edge">
<title>Node5&#45;&gt;Node7</title>
<path fill="none" stroke="#191970" d="M567.9584,-50.5407C575.707,-40.9786 584.8898,-29.6467 591.4341,-21.5707"/>
<polygon fill="#191970" stroke="#191970" points="565.1971,-48.389 561.6205,-58.3619 570.6357,-52.7961 565.1971,-48.389"/>
</g>
<!-- Node8&#45;&gt;Node6 -->
<g id="edge8" class="edge">
<title>Node8&#45;&gt;Node6</title>
<path fill="none" stroke="#191970" d="M431.4259,-61.1157C499.1767,-53.2551 602.3865,-39.7953 691,-22 693.956,-21.4064 697.0137,-20.7297 700.069,-20.0104"/>
<polygon fill="#191970" stroke="#191970" points="430.8141,-57.6628 421.2791,-62.2818 431.6134,-64.6171 430.8141,-57.6628"/>
</g>
<!-- Node8&#45;&gt;Node9 -->
<g id="edge9" class="edge">
<title>Node8&#45;&gt;Node9</title>
<path fill="none" stroke="#191970" d="M380.8029,-52.2587C394.2799,-42.3641 410.9353,-30.1361 422.602,-21.5707"/>
<polygon fill="#191970" stroke="#191970" points="378.4793,-49.6225 372.4898,-58.3619 382.622,-55.2651 378.4793,-49.6225"/>
</g>
<!-- Node8&#45;&gt;Node10 -->
<g id="edge10" class="edge">
<title>Node8&#45;&gt;Node10</title>
<path fill="none" stroke="#191970" d="M305.6379,-56.0766C263.4808,-45.6718 204.969,-31.2306 165.6365,-21.5231"/>
<polygon fill="#191970" stroke="#191970" points="304.8959,-59.4984 315.4433,-58.4966 306.5733,-52.7023 304.8959,-59.4984"/>
</g>
<!-- Node11 -->
<g id="node11" class="node">
<title>Node11</title>
<g id="a_node11"><a xlink:href="../../d8/dbf/CPortfolio_8cpp.html" target="_top" xlink:title=" ">
<polygon fill="none" stroke="#000000" points="219.5,-.5 219.5,-21.5 356.5,-21.5 356.5,-.5 219.5,-.5"/>
<text text-anchor="middle" x="288" y="-7.9" font-family="Helvetica,sans-Serif" font-size="12.00" fill="#000000">sources/CPortfolio.cpp</text>
</a>
</g>
</g>
<!-- Node8&#45;&gt;Node11 -->
<g id="edge11" class="edge">
<title>Node8&#45;&gt;Node11</title>
<path fill="none" stroke="#191970" d="M337.453,-51.9753C325.5725,-42.1315 310.9969,-30.0545 300.7577,-21.5707"/>
<polygon fill="#191970" stroke="#191970" points="335.2276,-54.6768 345.1609,-58.3619 339.6938,-49.2866 335.2276,-54.6768"/>
</g>
<!-- Node13&#45;&gt;Node6 -->
<g id="edge21" class="edge">
<title>Node13&#45;&gt;Node6</title>
<path fill="none" stroke="#191970" d="M856.7833,-238.0475C907.3366,-231.06 966.9471,-214.2677 947,-174 907.3008,-93.8582 807.2465,-42.4055 759.3486,-21.5655"/>
<polygon fill="#191970" stroke="#191970" points="856.2964,-234.5812 846.8196,-239.3183 857.1821,-241.5249 856.2964,-234.5812"/>
</g>
<!-- Node13&#45;&gt;Node8 -->
<g id="edge20" class="edge">
<title>Node13&#45;&gt;Node8</title>
<path fill="none" stroke="#191970" d="M793.9607,-222.0461C792.7456,-206.4916 788.4306,-185.9794 775,-174 697.4575,-104.8364 643.121,-169.1685 544,-138 522.763,-131.322 519.6054,-124.4275 499,-116 464.0114,-101.6899 422.8926,-88.3662 394.1181,-79.5864"/>
<polygon fill="#191970" stroke="#191970" points="790.4745,-222.4558 794.3836,-232.3031 797.4686,-222.1673 790.4745,-222.4558"/>
</g>
<!-- Node13&#45;&gt;Node14 -->
<g id="edge22" class="edge">
<title>Node13&#45;&gt;Node14</title>
<path fill="none" stroke="#191970" d="M768.8954,-226.8215C753.3933,-216.8312 733.9471,-204.2993 720.4027,-195.5707"/>
<polygon fill="#191970" stroke="#191970" points="767.1909,-229.8869 777.4926,-232.3619 770.9829,-224.0028 767.1909,-229.8869"/>
</g>
<!-- Node15 -->
<g id="node15" class="node">
<title>Node15</title>
<g id="a_node15"><a xlink:href="../../db/d85/CETF_8cpp.html" target="_top" xlink:title=" ">
<polygon fill="none" stroke="#000000" points="822,-174.5 822,-195.5 938,-195.5 938,-174.5 822,-174.5"/>
<text text-anchor="middle" x="880" y="-181.9" font-family="Helvetica,sans-Serif" font-size="12.00" fill="#000000">sources/CETF.cpp</text>
</a>
</g>
</g>
<!-- Node13&#45;&gt;Node15 -->
<g id="edge23" class="edge">
<title>Node13&#45;&gt;Node15</title>
<path fill="none" stroke="#191970" d="M818.4051,-226.5407C833.1488,-216.5973 851.5048,-204.2177 864.3263,-195.5707"/>
<polygon fill="#191970" stroke="#191970" points="816.1075,-223.8687 809.7737,-232.3619 820.0215,-229.6722 816.1075,-223.8687"/>
</g>
<!-- Node16&#45;&gt;Node6 -->
<g id="edge27" class="edge">
<title>Node16&#45;&gt;Node6</title>
<path fill="none" stroke="#191970" d="M615.5635,-222.1285C617.6631,-207.2231 622.5666,-187.5001 634,-174 657.8959,-145.7848 686.4759,-167.322 709,-138 736.2019,-102.5885 735.6157,-45.4894 734.006,-21.818"/>
<polygon fill="#191970" stroke="#191970" points="612.0477,-222.0843 614.4427,-232.4049 619.0064,-222.8433 612.0477,-222.0843"/>
</g>
<!-- Node16&#45;&gt;Node8 -->
<g id="edge26" class="edge">
<title>Node16&#45;&gt;Node8</title>
<path fill="none" stroke="#191970" d="M600.8642,-223.6073C590.08,-208.7143 573.7397,-188.3365 556,-174 501.5278,-129.9778 425.7689,-95.9514 385.588,-79.6281"/>
<polygon fill="#191970" stroke="#191970" points="598.2038,-225.9083 606.8237,-232.0684 603.9267,-221.8773 598.2038,-225.9083"/>
</g>
<!-- Node16&#45;&gt;Node14 -->
<g id="edge28" class="edge">
<title>Node16&#45;&gt;Node14</title>
<path fill="none" stroke="#191970" d="M639.1046,-226.8215C654.6067,-216.8312 674.0529,-204.2993 687.5973,-195.5707"/>
<polygon fill="#191970" stroke="#191970" points="637.0171,-224.0028 630.5074,-232.3619 640.8091,-229.8869 637.0171,-224.0028"/>
</g>
<!-- Node16&#45;&gt;Node17 -->
<g id="edge29" class="edge">
<title>Node16&#45;&gt;Node17</title>
<path fill="none" stroke="#191970" d="M581.6537,-228.3431C559.159,-218.1502 529.6914,-204.7977 509.4399,-195.6212"/>
<polygon fill="#191970" stroke="#191970" points="580.267,-231.5573 590.8202,-232.4966 583.1562,-225.1813 580.267,-231.5573"/>
</g>
</g>
</svg>
