<?xml version="1.0" encoding="UTF-8" standalone="no"?>
<!DOCTYPE svg PUBLIC "-//W3C//DTD SVG 1.1//EN"
 "http://www.w3.org/Graphics/SVG/1.1/DTD/svg11.dtd">
<!-- Generated by graphviz version 2.40.1 (20161225.0304)
 -->
<!-- Title: sources/CAdministrator.cpp Pages: 1 -->
<svg width="779pt" height="494pt"
 viewBox="0.00 0.00 778.50 494.00" xmlns="http://www.w3.org/2000/svg" xmlns:xlink="http://www.w3.org/1999/xlink">
<g id="graph0" class="graph" transform="scale(1 1) rotate(0) translate(4 490)">
<title>sources/CAdministrator.cpp</title>
<!-- Node1 -->
<g id="node1" class="node">
<title>Node1</title>
<g id="a_node1"><a xlink:title=" ">
<polygon fill="#bfbfbf" stroke="#000000" points="423,-464.5 423,-485.5 587,-485.5 587,-464.5 423,-464.5"/>
<text text-anchor="middle" x="505" y="-471.9" font-family="Helvetica,sans-Serif" font-size="12.00" fill="#000000">sources/CAdministrator.cpp</text>
</a>
</g>
</g>
<!-- Node2 -->
<g id="node2" class="node">
<title>Node2</title>
<g id="a_node2"><a xlink:title=" ">
<polygon fill="none" stroke="#bfbfbf" points="276,-.5 276,-21.5 338,-21.5 338,-.5 276,-.5"/>
<text text-anchor="middle" x="307" y="-7.9" font-family="Helvetica,sans-Serif" font-size="12.00" fill="#000000">iostream</text>
</a>
</g>
</g>
<!-- Node1&#45;&gt;Node2 -->
<g id="edge1" class="edge">
<title>Node1&#45;&gt;Node2</title>
<path fill="none" stroke="#191970" d="M422.6794,-472.1805C315.3527,-467.4551 134.2206,-455.5844 74,-428 33.1169,-409.2732 0,-403.968 0,-359 0,-359 0,-359 0,-127 0,-70.8007 182.3011,-32.3326 265.9431,-17.6405"/>
<polygon fill="#191970" stroke="#191970" points="266.6147,-21.0764 275.8737,-15.9267 265.4241,-14.1784 266.6147,-21.0764"/>
</g>
<!-- Node3 -->
<g id="node3" class="node">
<title>Node3</title>
<g id="a_node3"><a xlink:title=" ">
<polygon fill="none" stroke="#bfbfbf" points="186,-58.5 186,-79.5 232,-79.5 232,-58.5 186,-58.5"/>
<text text-anchor="middle" x="209" y="-65.9" font-family="Helvetica,sans-Serif" font-size="12.00" fill="#000000">string</text>
</a>
</g>
</g>
<!-- Node1&#45;&gt;Node3 -->
<g id="edge2" class="edge">
<title>Node1&#45;&gt;Node3</title>
<path fill="none" stroke="#191970" d="M422.8527,-471.3674C288.8525,-463.1745 38,-437.3711 38,-359 38,-359 38,-359 38,-301 38,-206.4576 79.6638,-186.1911 143,-116 153.8439,-103.9825 168.2741,-93.2725 180.8758,-85.1226"/>
<polygon fill="#191970" stroke="#191970" points="183.0122,-87.9155 189.6511,-79.6586 179.3122,-81.9732 183.0122,-87.9155"/>
</g>
<!-- Node4 -->
<g id="node4" class="node">
<title>Node4</title>
<g id="a_node4"><a xlink:title=" ">
<polygon fill="none" stroke="#bfbfbf" points="598,-58.5 598,-79.5 654,-79.5 654,-58.5 598,-58.5"/>
<text text-anchor="middle" x="626" y="-65.9" font-family="Helvetica,sans-Serif" font-size="12.00" fill="#000000">fstream</text>
</a>
</g>
</g>
<!-- Node1&#45;&gt;Node4 -->
<g id="edge3" class="edge">
<title>Node1&#45;&gt;Node4</title>
<path fill="none" stroke="#191970" d="M530.3656,-464.3889C565.8466,-447.6506 626,-411.5273 626,-359 626,-359 626,-359 626,-185 626,-151.5978 626,-112.7853 626,-89.5939"/>
<polygon fill="#191970" stroke="#191970" points="629.5001,-89.5561 626,-79.5561 622.5001,-89.5561 629.5001,-89.5561"/>
</g>
<!-- Node5 -->
<g id="node5" class="node">
<title>Node5</title>
<g id="a_node5"><a xlink:title=" ">
<polygon fill="none" stroke="#bfbfbf" points="654.5,-406.5 654.5,-427.5 707.5,-427.5 707.5,-406.5 654.5,-406.5"/>
<text text-anchor="middle" x="681" y="-413.9" font-family="Helvetica,sans-Serif" font-size="12.00" fill="#000000">chrono</text>
</a>
</g>
</g>
<!-- Node1&#45;&gt;Node5 -->
<g id="edge4" class="edge">
<title>Node1&#45;&gt;Node5</title>
<path fill="none" stroke="#191970" d="M536.8723,-464.4966C567.174,-454.5109 612.7141,-439.5033 644.4681,-429.0389"/>
<polygon fill="#191970" stroke="#191970" points="645.8546,-432.2672 654.2567,-425.8131 643.6636,-425.6189 645.8546,-432.2672"/>
</g>
<!-- Node6 -->
<g id="node6" class="node">
<title>Node6</title>
<g id="a_node6"><a xlink:title=" ">
<polygon fill="none" stroke="#bfbfbf" points="725.5,-406.5 725.5,-427.5 770.5,-427.5 770.5,-406.5 725.5,-406.5"/>
<text text-anchor="middle" x="748" y="-413.9" font-family="Helvetica,sans-Serif" font-size="12.00" fill="#000000">ctime</text>
</a>
</g>
</g>
<!-- Node1&#45;&gt;Node6 -->
<g id="edge5" class="edge">
<title>Node1&#45;&gt;Node6</title>
<path fill="none" stroke="#191970" d="M561.2663,-464.4852C601.9137,-456.444 658.2502,-444.3885 715.4788,-428.2216"/>
<polygon fill="#191970" stroke="#191970" points="716.7677,-431.4932 725.4171,-425.3745 714.8399,-424.7639 716.7677,-431.4932"/>
</g>
<!-- Node7 -->
<g id="node7" class="node">
<title>Node7</title>
<g id="a_node7"><a xlink:href="../../d6/d5c/CAdministrator_8h.html" target="_top" xlink:title=" ">
<polygon fill="none" stroke="#000000" points="303.5,-406.5 303.5,-427.5 464.5,-427.5 464.5,-406.5 303.5,-406.5"/>
<text text-anchor="middle" x="384" y="-413.9" font-family="Helvetica,sans-Serif" font-size="12.00" fill="#000000">../headers/CAdministrator.h</text>
</a>
</g>
</g>
<!-- Node1&#45;&gt;Node7 -->
<g id="edge6" class="edge">
<title>Node1&#45;&gt;Node7</title>
<path fill="none" stroke="#191970" d="M483.0878,-464.4966C464.1892,-455.4378 436.6688,-442.2462 415.424,-432.0628"/>
<polygon fill="#191970" stroke="#191970" points="416.6885,-428.7876 406.1581,-427.6212 413.6627,-435.0999 416.6885,-428.7876"/>
</g>
<!-- Node7&#45;&gt;Node2 -->
<g id="edge7" class="edge">
<title>Node7&#45;&gt;Node2</title>
<path fill="none" stroke="#191970" d="M404.1155,-406.3605C485.1975,-362.1947 778.2571,-189.4738 663,-58 652.6867,-46.2357 439.6039,-24.0175 348.1299,-14.9771"/>
<polygon fill="#191970" stroke="#191970" points="348.4089,-11.4877 338.1143,-13.9919 347.7236,-18.4541 348.4089,-11.4877"/>
</g>
<!-- Node7&#45;&gt;Node3 -->
<g id="edge8" class="edge">
<title>Node7&#45;&gt;Node3</title>
<path fill="none" stroke="#191970" d="M310.8581,-406.4594C256.1699,-394.1761 185.6117,-367.8735 154,-312 111.0905,-236.1577 111.1107,-188.8004 159,-116 166.3934,-104.7607 176.9928,-94.292 186.5314,-86.1008"/>
<polygon fill="#191970" stroke="#191970" points="189.0284,-88.5791 194.5334,-79.5267 184.5848,-83.1703 189.0284,-88.5791"/>
</g>
<!-- Node8 -->
<g id="node8" class="node">
<title>Node8</title>
<g id="a_node8"><a xlink:href="../../de/d98/CUser_8h.html" target="_top" xlink:title=" ">
<polygon fill="none" stroke="#000000" points="218.5,-174.5 218.5,-195.5 279.5,-195.5 279.5,-174.5 218.5,-174.5"/>
<text text-anchor="middle" x="249" y="-181.9" font-family="Helvetica,sans-Serif" font-size="12.00" fill="#000000">CUser.h</text>
</a>
</g>
</g>
<!-- Node7&#45;&gt;Node8 -->
<g id="edge9" class="edge">
<title>Node7&#45;&gt;Node8</title>
<path fill="none" stroke="#191970" d="M379.4595,-406.0882C367.0253,-376.735 330.5661,-294.1129 289,-232 282.2262,-221.8777 273.5814,-211.478 266.0627,-203.0429"/>
<polygon fill="#191970" stroke="#191970" points="268.6238,-200.657 259.297,-195.6309 263.4537,-205.3763 268.6238,-200.657"/>
</g>
<!-- Node9 -->
<g id="node9" class="node">
<title>Node9</title>
<g id="a_node9"><a xlink:href="../../dd/d2c/CClient_8h.html" target="_top" xlink:title=" ">
<polygon fill="none" stroke="#000000" points="235.5,-348.5 235.5,-369.5 302.5,-369.5 302.5,-348.5 235.5,-348.5"/>
<text text-anchor="middle" x="269" y="-355.9" font-family="Helvetica,sans-Serif" font-size="12.00" fill="#000000">CClient.h</text>
</a>
</g>
</g>
<!-- Node7&#45;&gt;Node9 -->
<g id="edge11" class="edge">
<title>Node7&#45;&gt;Node9</title>
<path fill="none" stroke="#191970" d="M363.1744,-406.4966C345.2937,-397.4786 319.2926,-384.3649 299.139,-374.2006"/>
<polygon fill="#191970" stroke="#191970" points="300.5641,-370.9994 290.0593,-369.6212 297.4119,-377.2495 300.5641,-370.9994"/>
</g>
<!-- Node8&#45;&gt;Node3 -->
<g id="edge10" class="edge">
<title>Node8&#45;&gt;Node3</title>
<path fill="none" stroke="#191970" d="M245.3086,-174.2949C238.641,-154.9588 224.4907,-113.9229 215.9575,-89.1767"/>
<polygon fill="#191970" stroke="#191970" points="219.2513,-87.9919 212.6825,-79.6792 212.6337,-90.2739 219.2513,-87.9919"/>
</g>
<!-- Node9&#45;&gt;Node2 -->
<g id="edge12" class="edge">
<title>Node9&#45;&gt;Node2</title>
<path fill="none" stroke="#191970" d="M235.3339,-353.2827C209.689,-347.237 175.2766,-335.2145 154,-312 92.949,-245.3883 59.6751,-196.8594 100,-116 131.1256,-53.5871 214.7805,-27.5726 265.7099,-17.268"/>
<polygon fill="#191970" stroke="#191970" points="266.5747,-20.6662 275.7422,-15.3552 265.2636,-13.7901 266.5747,-20.6662"/>
</g>
<!-- Node9&#45;&gt;Node3 -->
<g id="edge13" class="edge">
<title>Node9&#45;&gt;Node3</title>
<path fill="none" stroke="#191970" d="M235.4356,-350.6802C214.0862,-343.725 187.4566,-331.6911 171,-312 150.6024,-287.5933 152,-274.8081 152,-243 152,-243 152,-243 152,-185 152,-147.5289 176.2542,-109.5841 193.12,-87.7281"/>
<polygon fill="#191970" stroke="#191970" points="196.0675,-89.6467 199.5876,-79.6538 190.6041,-85.2705 196.0675,-89.6467"/>
</g>
<!-- Node9&#45;&gt;Node8 -->
<g id="edge14" class="edge">
<title>Node9&#45;&gt;Node8</title>
<path fill="none" stroke="#191970" d="M274.7786,-348.1643C279.3897,-338.8679 285.4797,-324.9591 288,-312 289.8666,-302.4021 289.7295,-299.6236 288,-290 282.4428,-259.078 268.3666,-225.3653 258.7375,-204.7004"/>
<polygon fill="#191970" stroke="#191970" points="261.8937,-203.1875 254.4245,-195.6733 255.5775,-206.2052 261.8937,-203.1875"/>
</g>
<!-- Node10 -->
<g id="node10" class="node">
<title>Node10</title>
<g id="a_node10"><a xlink:href="../../df/dca/CMyHoldings_8h.html" target="_top" xlink:title=" ">
<polygon fill="none" stroke="#000000" points="180.5,-290.5 180.5,-311.5 279.5,-311.5 279.5,-290.5 180.5,-290.5"/>
<text text-anchor="middle" x="230" y="-297.9" font-family="Helvetica,sans-Serif" font-size="12.00" fill="#000000">CMyHoldings.h</text>
</a>
</g>
</g>
<!-- Node9&#45;&gt;Node10 -->
<g id="edge15" class="edge">
<title>Node9&#45;&gt;Node10</title>
<path fill="none" stroke="#191970" d="M261.8468,-348.3619C256.5142,-340.4313 249.0888,-329.3885 242.7494,-319.9606"/>
<polygon fill="#191970" stroke="#191970" points="245.5923,-317.9161 237.1079,-311.5707 239.7834,-321.8221 245.5923,-317.9161"/>
</g>
<!-- Node12 -->
<g id="node12" class="node">
<title>Node12</title>
<g id="a_node12"><a xlink:href="../../dd/d85/CDataBase_8h.html" target="_top" xlink:title=" ">
<polygon fill="none" stroke="#000000" points="470.5,-116.5 470.5,-137.5 559.5,-137.5 559.5,-116.5 470.5,-116.5"/>
<text text-anchor="middle" x="515" y="-123.9" font-family="Helvetica,sans-Serif" font-size="12.00" fill="#000000">CDataBase.h</text>
</a>
</g>
</g>
<!-- Node9&#45;&gt;Node12 -->
<g id="edge36" class="edge">
<title>Node9&#45;&gt;Node12</title>
<path fill="none" stroke="#191970" d="M299.8069,-348.3887C340.1171,-333.1381 410.8083,-301.5205 455,-254 484.0448,-222.7673 501.4088,-174.9308 509.4954,-147.7571"/>
<polygon fill="#191970" stroke="#191970" points="512.9581,-148.3748 512.3159,-137.7995 506.2231,-146.4671 512.9581,-148.3748"/>
</g>
<!-- Node10&#45;&gt;Node3 -->
<g id="edge35" class="edge">
<title>Node10&#45;&gt;Node3</title>
<path fill="none" stroke="#191970" d="M227.1491,-290.373C222.2585,-271.5329 212.4622,-230.9644 209,-196 205.3072,-158.7066 206.518,-114.9507 207.7489,-89.7532"/>
<polygon fill="#191970" stroke="#191970" points="211.2543,-89.7459 208.2982,-79.5718 204.2644,-89.3687 211.2543,-89.7459"/>
</g>
<!-- Node11 -->
<g id="node11" class="node">
<title>Node11</title>
<g id="a_node11"><a xlink:href="../../df/d1a/CBroker_8h.html" target="_top" xlink:title=" ">
<polygon fill="none" stroke="#000000" points="374.5,-232.5 374.5,-253.5 445.5,-253.5 445.5,-232.5 374.5,-232.5"/>
<text text-anchor="middle" x="410" y="-239.9" font-family="Helvetica,sans-Serif" font-size="12.00" fill="#000000">CBroker.h</text>
</a>
</g>
</g>
<!-- Node10&#45;&gt;Node11 -->
<g id="edge16" class="edge">
<title>Node10&#45;&gt;Node11</title>
<path fill="none" stroke="#191970" d="M262.5966,-290.4966C292.0685,-281.0001 335.6354,-266.9619 367.766,-256.6087"/>
<polygon fill="#191970" stroke="#191970" points="368.8976,-259.9214 377.3422,-253.5231 366.7507,-253.2587 368.8976,-259.9214"/>
</g>
<!-- Node11&#45;&gt;Node3 -->
<g id="edge28" class="edge">
<title>Node11&#45;&gt;Node3</title>
<path fill="none" stroke="#191970" d="M389.8028,-232.4959C373.7232,-223.7129 351.0071,-210.3451 333,-196 290.1244,-161.8437 246.9607,-113.8329 224.6125,-87.7151"/>
<polygon fill="#191970" stroke="#191970" points="226.9971,-85.1153 217.862,-79.7487 221.6566,-89.6407 226.9971,-85.1153"/>
</g>
<!-- Node11&#45;&gt;Node8 -->
<g id="edge17" class="edge">
<title>Node11&#45;&gt;Node8</title>
<path fill="none" stroke="#191970" d="M380.8441,-232.4966C354.824,-223.1229 316.5207,-209.3242 287.8959,-199.0122"/>
<polygon fill="#191970" stroke="#191970" points="288.805,-195.6195 278.2106,-195.5231 286.4324,-202.2052 288.805,-195.6195"/>
</g>
<!-- Node11&#45;&gt;Node12 -->
<g id="edge18" class="edge">
<title>Node11&#45;&gt;Node12</title>
<path fill="none" stroke="#191970" d="M416.7298,-232.1192C425.7168,-217.994 442.5413,-192.9154 460,-174 469.9484,-163.2215 482.2657,-152.4962 492.7204,-144.0186"/>
<polygon fill="#191970" stroke="#191970" points="494.9688,-146.7025 500.6247,-137.7435 490.6164,-141.22 494.9688,-146.7025"/>
</g>
<!-- Node16 -->
<g id="node16" class="node">
<title>Node16</title>
<g id="a_node16"><a xlink:href="../../d7/d79/CAsset_8h.html" target="_top" xlink:title=" ">
<polygon fill="none" stroke="#000000" points="342.5,-174.5 342.5,-195.5 407.5,-195.5 407.5,-174.5 342.5,-174.5"/>
<text text-anchor="middle" x="375" y="-181.9" font-family="Helvetica,sans-Serif" font-size="12.00" fill="#000000">CAsset.h</text>
</a>
</g>
</g>
<!-- Node11&#45;&gt;Node16 -->
<g id="edge29" class="edge">
<title>Node11&#45;&gt;Node16</title>
<path fill="none" stroke="#191970" d="M403.5805,-232.3619C398.8441,-224.5131 392.2682,-213.6159 386.618,-204.2527"/>
<polygon fill="#191970" stroke="#191970" points="389.5422,-202.3242 381.3788,-195.5707 383.5489,-205.9409 389.5422,-202.3242"/>
</g>
<!-- Node12&#45;&gt;Node2 -->
<g id="edge19" class="edge">
<title>Node12&#45;&gt;Node2</title>
<path fill="none" stroke="#191970" d="M470.1341,-118.699C426.5952,-109.9299 364.3431,-95.2795 345,-80 329.3052,-67.6024 319.1409,-46.8504 313.3103,-31.3358"/>
<polygon fill="#191970" stroke="#191970" points="316.5212,-29.9107 309.9514,-21.5987 309.9038,-32.1934 316.5212,-29.9107"/>
</g>
<!-- Node12&#45;&gt;Node3 -->
<g id="edge20" class="edge">
<title>Node12&#45;&gt;Node3</title>
<path fill="none" stroke="#191970" d="M470.1773,-118.5042C408.1077,-106.7394 297.4068,-85.7568 242.2054,-75.2938"/>
<polygon fill="#191970" stroke="#191970" points="242.7288,-71.8308 232.2519,-73.4072 241.4251,-78.7083 242.7288,-71.8308"/>
</g>
<!-- Node12&#45;&gt;Node4 -->
<g id="edge21" class="edge">
<title>Node12&#45;&gt;Node4</title>
<path fill="none" stroke="#191970" d="M535.1013,-116.4966C552.2819,-107.5194 577.2298,-94.4835 596.6449,-84.3387"/>
<polygon fill="#191970" stroke="#191970" points="598.4311,-87.3544 605.6732,-79.6212 595.1893,-81.1503 598.4311,-87.3544"/>
</g>
<!-- Node13 -->
<g id="node13" class="node">
<title>Node13</title>
<g id="a_node13"><a xlink:title=" ">
<polygon fill="none" stroke="#bfbfbf" points="436.5,-.5 436.5,-21.5 485.5,-21.5 485.5,-.5 436.5,-.5"/>
<text text-anchor="middle" x="461" y="-7.9" font-family="Helvetica,sans-Serif" font-size="12.00" fill="#000000">vector</text>
</a>
</g>
</g>
<!-- Node12&#45;&gt;Node13 -->
<g id="edge22" class="edge">
<title>Node12&#45;&gt;Node13</title>
<path fill="none" stroke="#191970" d="M510.0166,-116.2949C500.9751,-96.8724 481.7416,-55.5561 470.2388,-30.8462"/>
<polygon fill="#191970" stroke="#191970" points="473.3647,-29.2679 465.9714,-21.6792 467.0187,-32.2222 473.3647,-29.2679"/>
</g>
<!-- Node14 -->
<g id="node14" class="node">
<title>Node14</title>
<g id="a_node14"><a xlink:href="../../d2/d92/CRisk_8h.html" target="_top" xlink:title=" ">
<polygon fill="none" stroke="#000000" points="354.5,-58.5 354.5,-79.5 413.5,-79.5 413.5,-58.5 354.5,-58.5"/>
<text text-anchor="middle" x="384" y="-65.9" font-family="Helvetica,sans-Serif" font-size="12.00" fill="#000000">CRisk.h</text>
</a>
</g>
</g>
<!-- Node12&#45;&gt;Node14 -->
<g id="edge23" class="edge">
<title>Node12&#45;&gt;Node14</title>
<path fill="none" stroke="#191970" d="M491.2769,-116.4966C470.632,-107.3562 440.4839,-94.0082 417.4011,-83.7883"/>
<polygon fill="#191970" stroke="#191970" points="418.5501,-80.4694 407.9893,-79.6212 415.7162,-86.8701 418.5501,-80.4694"/>
</g>
<!-- Node15 -->
<g id="node15" class="node">
<title>Node15</title>
<g id="a_node15"><a xlink:href="../../d3/d97/CReturn_8h.html" target="_top" xlink:title=" ">
<polygon fill="none" stroke="#000000" points="508.5,-58.5 508.5,-79.5 579.5,-79.5 579.5,-58.5 508.5,-58.5"/>
<text text-anchor="middle" x="544" y="-65.9" font-family="Helvetica,sans-Serif" font-size="12.00" fill="#000000">CReturn.h</text>
</a>
</g>
</g>
<!-- Node12&#45;&gt;Node15 -->
<g id="edge26" class="edge">
<title>Node12&#45;&gt;Node15</title>
<path fill="none" stroke="#191970" d="M520.319,-116.3619C524.2026,-108.5949 529.5787,-97.8426 534.2271,-88.5458"/>
<polygon fill="#191970" stroke="#191970" points="537.373,-90.0802 538.7147,-79.5707 531.112,-86.9497 537.373,-90.0802"/>
</g>
<!-- Node14&#45;&gt;Node2 -->
<g id="edge24" class="edge">
<title>Node14&#45;&gt;Node2</title>
<path fill="none" stroke="#191970" d="M369.877,-58.3619C358.4802,-49.7773 342.2419,-37.5459 329.1223,-27.6636"/>
<polygon fill="#191970" stroke="#191970" points="331.1268,-24.7916 321.0335,-21.5707 326.9152,-30.3829 331.1268,-24.7916"/>
</g>
<!-- Node14&#45;&gt;Node13 -->
<g id="edge25" class="edge">
<title>Node14&#45;&gt;Node13</title>
<path fill="none" stroke="#191970" d="M398.123,-58.3619C409.5198,-49.7773 425.7581,-37.5459 438.8777,-27.6636"/>
<polygon fill="#191970" stroke="#191970" points="441.0848,-30.3829 446.9665,-21.5707 436.8732,-24.7916 441.0848,-30.3829"/>
</g>
<!-- Node15&#45;&gt;Node13 -->
<g id="edge27" class="edge">
<title>Node15&#45;&gt;Node13</title>
<path fill="none" stroke="#191970" d="M528.7765,-58.3619C516.3746,-49.6955 498.6542,-37.3126 484.443,-27.3819"/>
<polygon fill="#191970" stroke="#191970" points="486.3288,-24.4297 476.127,-21.5707 482.3191,-30.1676 486.3288,-24.4297"/>
</g>
<!-- Node16&#45;&gt;Node2 -->
<g id="edge30" class="edge">
<title>Node16&#45;&gt;Node2</title>
<path fill="none" stroke="#191970" d="M376.3452,-174.4492C377.6419,-160.2456 378.1333,-134.6117 368,-116 355.7527,-93.5055 336.6474,-101.6737 323,-80 313.8103,-65.4057 309.8875,-46.0927 308.2189,-31.6116"/>
<polygon fill="#191970" stroke="#191970" points="311.7041,-31.2887 307.3324,-21.6379 304.7316,-31.9085 311.7041,-31.2887"/>
</g>
<!-- Node16&#45;&gt;Node3 -->
<g id="edge31" class="edge">
<title>Node16&#45;&gt;Node3</title>
<path fill="none" stroke="#191970" d="M373.3191,-174.339C370.3999,-159.2896 362.9918,-131.8836 346,-116 330.7439,-101.7388 277.6089,-86.1973 242.1727,-77.0409"/>
<polygon fill="#191970" stroke="#191970" points="242.8032,-73.59 232.2495,-74.5233 241.0817,-80.3751 242.8032,-73.59"/>
</g>
<!-- Node16&#45;&gt;Node12 -->
<g id="edge34" class="edge">
<title>Node16&#45;&gt;Node12</title>
<path fill="none" stroke="#191970" d="M400.3529,-174.4966C422.6131,-165.2746 455.2116,-151.7695 479.9631,-141.5153"/>
<polygon fill="#191970" stroke="#191970" points="481.4636,-144.6822 489.3626,-137.6212 478.7844,-138.2152 481.4636,-144.6822"/>
</g>
<!-- Node16&#45;&gt;Node13 -->
<g id="edge32" class="edge">
<title>Node16&#45;&gt;Node13</title>
<path fill="none" stroke="#191970" d="M380.2502,-174.3774C394.2507,-146.0509 432.6552,-68.3488 450.9951,-31.2424"/>
<polygon fill="#191970" stroke="#191970" points="454.3057,-32.4433 455.5989,-21.9277 448.0303,-29.3417 454.3057,-32.4433"/>
</g>
<!-- Node17 -->
<g id="node17" class="node">
<title>Node17</title>
<g id="a_node17"><a xlink:title=" ">
<polygon fill="none" stroke="#bfbfbf" points="294.5,-116.5 294.5,-137.5 337.5,-137.5 337.5,-116.5 294.5,-116.5"/>
<text text-anchor="middle" x="316" y="-123.9" font-family="Helvetica,sans-Serif" font-size="12.00" fill="#000000">tuple</text>
</a>
</g>
</g>
<!-- Node16&#45;&gt;Node17 -->
<g id="edge33" class="edge">
<title>Node16&#45;&gt;Node17</title>
<path fill="none" stroke="#191970" d="M364.1785,-174.3619C355.7785,-166.1043 343.9462,-154.4725 334.1098,-144.8029"/>
<polygon fill="#191970" stroke="#191970" points="336.3378,-142.0851 326.7529,-137.5707 331.4305,-147.077 336.3378,-142.0851"/>
</g>
</g>
</svg>
