<?xml version="1.0" encoding="UTF-8" standalone="no"?>
<!DOCTYPE svg PUBLIC "-//W3C//DTD SVG 1.1//EN"
 "http://www.w3.org/Graphics/SVG/1.1/DTD/svg11.dtd">
<!-- Generated by graphviz version 2.40.1 (20161225.0304)
 -->
<!-- Title: sources/CDataBase.cpp Pages: 1 -->
<!--zoomable 262 -->
<svg id="main" version="1.1" xmlns="http://www.w3.org/2000/svg" xmlns:xlink="http://www.w3.org/1999/xlink" xml:space="preserve" onload="init(evt)">
<style type="text/css"><![CDATA[
.edge:hover path { stroke: red; }
.edge:hover polygon { stroke: red; fill: red; }
]]></style>
<script type="text/javascript"><![CDATA[
var edges = document.getElementsByTagName('g');
if (edges && edges.length) {
  for (var i=0;i<edges.length;i++) {
    if (edges[i].id.substr(0,4)=='edge') {
      edges[i].setAttribute('class','edge');
    }
  }
}
]]></script>
        <defs>
                <circle id="rim" cx="0" cy="0" r="7"/>
                <circle id="rim2" cx="0" cy="0" r="3.5"/>
                <g id="zoomPlus">
                        <use xlink:href="#rim" fill="#404040">
                                <set attributeName="fill" to="#808080" begin="zoomplus.mouseover" end="zoomplus.mouseout"/>
                        </use>
                        <path d="M-4,0h8M0,-4v8" fill="none" stroke="white" stroke-width="1.5" pointer-events="none"/>
                </g>
                <g id="zoomMin">
                        <use xlink:href="#rim" fill="#404040">
                                <set attributeName="fill" to="#808080" begin="zoomminus.mouseover" end="zoomminus.mouseout"/>
                        </use>
                        <path d="M-4,0h8" fill="none" stroke="white" stroke-width="1.5" pointer-events="none"/>
                </g>
                <g id="dirArrow">
                        <path fill="none" stroke="white" stroke-width="1.5" d="M0,-3.0v7 M-2.5,-0.5L0,-3.0L2.5,-0.5"/>
                </g>
               <g id="resetDef">
                       <use xlink:href="#rim2" fill="#404040">
                               <set attributeName="fill" to="#808080" begin="reset.mouseover" end="reset.mouseout"/>
                       </use>
               </g>
        </defs>

<script type="text/javascript">
var viewWidth = 641;
var viewHeight = 262;
var sectionId = 'dynsection-0';
</script>
<script xlink:href="../../svgpan.js"/>
<svg id="graph" class="graph">
<g id="viewport">
<title>sources/CDataBase.cpp</title>
<!-- Node1 -->
<g id="node1" class="node">
<title>Node1</title>
<g id="a_node1"><a xlink:title=" ">
<polygon fill="#bfbfbf" stroke="#000000" points="283.5431,-232.5 283.5431,-253.5 429.5431,-253.5 429.5431,-232.5 283.5431,-232.5"/>
<text text-anchor="middle" x="356.5431" y="-239.9" font-family="Helvetica,sans-Serif" font-size="12.00" fill="#000000">sources/CDataBase.cpp</text>
</a>
</g>
</g>
<!-- Node2 -->
<g id="node2" class="node">
<title>Node2</title>
<g id="a_node2"><a xlink:href="../../dd/d85/CDataBase_8h.html" target="_top" xlink:title=" ">
<polygon fill="none" stroke="#000000" points="172.5431,-116.5 172.5431,-137.5 316.5431,-137.5 316.5431,-116.5 172.5431,-116.5"/>
<text text-anchor="middle" x="244.5431" y="-123.9" font-family="Helvetica,sans-Serif" font-size="12.00" fill="#000000">../headers/CDataBase.h</text>
</a>
</g>
</g>
<!-- Node1&#45;&gt;Node2 -->
<g id="edge1" class="edge">
<title>Node1&#45;&gt;Node2</title>
<path fill="none" stroke="#191970" d="M346.2071,-232.2949C326.9543,-212.3545 285.4201,-169.337 261.8312,-144.9056"/>
<polygon fill="#191970" stroke="#191970" points="264.3179,-142.4422 254.854,-137.6792 259.2821,-147.3043 264.3179,-142.4422"/>
</g>
<!-- Node3 -->
<g id="node3" class="node">
<title>Node3</title>
<g id="a_node3"><a xlink:title=" ">
<polygon fill="none" stroke="#bfbfbf" points="20.5431,-.5 20.5431,-21.5 82.5431,-21.5 82.5431,-.5 20.5431,-.5"/>
<text text-anchor="middle" x="51.5431" y="-7.9" font-family="Helvetica,sans-Serif" font-size="12.00" fill="#000000">iostream</text>
</a>
</g>
</g>
<!-- Node1&#45;&gt;Node3 -->
<g id="edge19" class="edge">
<title>Node1&#45;&gt;Node3</title>
<path fill="none" stroke="#191970" d="M283.4377,-234.5387C218.3057,-226.1446 128.5014,-212.2143 96.5431,-196 37.366,-165.9761 19.5154,-144.1506 2.5431,-80 .0422,-70.5475 -1.2926,-66.994 2.5431,-58 7.6216,-46.0915 17.3613,-35.7503 26.828,-27.8235"/>
<polygon fill="#191970" stroke="#191970" points="29.2108,-30.4041 34.9529,-21.5002 24.9115,-24.8799 29.2108,-30.4041"/>
</g>
<!-- Node4 -->
<g id="node4" class="node">
<title>Node4</title>
<g id="a_node4"><a xlink:title=" ">
<polygon fill="none" stroke="#bfbfbf" points="18.5431,-58.5 18.5431,-79.5 64.5431,-79.5 64.5431,-58.5 18.5431,-58.5"/>
<text text-anchor="middle" x="41.5431" y="-65.9" font-family="Helvetica,sans-Serif" font-size="12.00" fill="#000000">string</text>
</a>
</g>
</g>
<!-- Node1&#45;&gt;Node4 -->
<g id="edge20" class="edge">
<title>Node1&#45;&gt;Node4</title>
<path fill="none" stroke="#191970" d="M283.2755,-234.3966C225.319,-226.462 150.0525,-213.2992 124.5431,-196 85.3239,-169.4037 60.2367,-117.4675 48.788,-88.9422"/>
<polygon fill="#191970" stroke="#191970" points="52.0441,-87.6582 45.1862,-79.5823 45.5112,-90.1722 52.0441,-87.6582"/>
</g>
<!-- Node5 -->
<g id="node5" class="node">
<title>Node5</title>
<g id="a_node5"><a xlink:title=" ">
<polygon fill="none" stroke="#bfbfbf" points="381.5431,-58.5 381.5431,-79.5 437.5431,-79.5 437.5431,-58.5 381.5431,-58.5"/>
<text text-anchor="middle" x="409.5431" y="-65.9" font-family="Helvetica,sans-Serif" font-size="12.00" fill="#000000">fstream</text>
</a>
</g>
</g>
<!-- Node1&#45;&gt;Node5 -->
<g id="edge21" class="edge">
<title>Node1&#45;&gt;Node5</title>
<path fill="none" stroke="#191970" d="M371.0947,-232.4378C381.5881,-223.9066 395.0098,-210.8977 401.5431,-196 416.7691,-161.2803 415.1769,-116.0411 412.4723,-89.9867"/>
<polygon fill="#191970" stroke="#191970" points="415.9139,-89.2894 411.2494,-79.7766 408.9635,-90.1219 415.9139,-89.2894"/>
</g>
<!-- Node6 -->
<g id="node6" class="node">
<title>Node6</title>
<g id="a_node6"><a xlink:title=" ">
<polygon fill="none" stroke="#bfbfbf" points="222.0431,-.5 222.0431,-21.5 271.0431,-21.5 271.0431,-.5 222.0431,-.5"/>
<text text-anchor="middle" x="246.5431" y="-7.9" font-family="Helvetica,sans-Serif" font-size="12.00" fill="#000000">vector</text>
</a>
</g>
</g>
<!-- Node1&#45;&gt;Node6 -->
<g id="edge22" class="edge">
<title>Node1&#45;&gt;Node6</title>
<path fill="none" stroke="#191970" d="M377.4861,-232.4687C391.4789,-224.3657 409.16,-211.8735 419.5431,-196 453.754,-143.699 485.3519,-106.9862 446.5431,-58 426.2877,-32.4328 332.8873,-19.408 281.198,-14.0542"/>
<polygon fill="#191970" stroke="#191970" points="281.4434,-10.5614 271.1463,-13.0553 280.7512,-17.5271 281.4434,-10.5614"/>
</g>
<!-- Node7 -->
<g id="node7" class="node">
<title>Node7</title>
<g id="a_node7"><a xlink:href="../../d2/d92/CRisk_8h.html" target="_top" xlink:title=" ">
<polygon fill="none" stroke="#000000" points="83.0431,-58.5 83.0431,-79.5 142.0431,-79.5 142.0431,-58.5 83.0431,-58.5"/>
<text text-anchor="middle" x="112.5431" y="-65.9" font-family="Helvetica,sans-Serif" font-size="12.00" fill="#000000">CRisk.h</text>
</a>
</g>
</g>
<!-- Node1&#45;&gt;Node7 -->
<g id="edge18" class="edge">
<title>Node1&#45;&gt;Node7</title>
<path fill="none" stroke="#191970" d="M283.4777,-235.2875C229.6124,-228.113 162.4,-215.5461 142.5431,-196 114.0201,-167.9235 110.5771,-118.1185 111.1826,-89.944"/>
<polygon fill="#191970" stroke="#191970" points="114.6923,-89.7798 111.6084,-79.6438 107.6982,-89.4906 114.6923,-89.7798"/>
</g>
<!-- Node8 -->
<g id="node8" class="node">
<title>Node8</title>
<g id="a_node8"><a xlink:href="../../d3/d97/CReturn_8h.html" target="_top" xlink:title=" ">
<polygon fill="none" stroke="#000000" points="275.0431,-58.5 275.0431,-79.5 346.0431,-79.5 346.0431,-58.5 275.0431,-58.5"/>
<text text-anchor="middle" x="310.5431" y="-65.9" font-family="Helvetica,sans-Serif" font-size="12.00" fill="#000000">CReturn.h</text>
</a>
</g>
</g>
<!-- Node1&#45;&gt;Node8 -->
<g id="edge17" class="edge">
<title>Node1&#45;&gt;Node8</title>
<path fill="none" stroke="#191970" d="M363.828,-232.4308C378.4925,-209.7268 408.3817,-155.1828 386.5431,-116 378.6747,-101.8826 364.624,-91.4717 350.726,-84.0886"/>
<polygon fill="#191970" stroke="#191970" points="352.2025,-80.9146 341.6815,-79.6655 349.1273,-87.2029 352.2025,-80.9146"/>
</g>
<!-- Node9 -->
<g id="node9" class="node">
<title>Node9</title>
<g id="a_node9"><a xlink:href="../../d7/d79/CAsset_8h.html" target="_top" xlink:title=" ">
<polygon fill="none" stroke="#000000" points="152.0431,-174.5 152.0431,-195.5 273.0431,-195.5 273.0431,-174.5 152.0431,-174.5"/>
<text text-anchor="middle" x="212.5431" y="-181.9" font-family="Helvetica,sans-Serif" font-size="12.00" fill="#000000">../headers/CAsset.h</text>
</a>
</g>
</g>
<!-- Node1&#45;&gt;Node9 -->
<g id="edge11" class="edge">
<title>Node1&#45;&gt;Node9</title>
<path fill="none" stroke="#191970" d="M330.4657,-232.4966C307.4682,-223.2337 273.7427,-209.6499 248.2435,-199.3793"/>
<polygon fill="#191970" stroke="#191970" points="249.4965,-196.1108 238.913,-195.6212 246.8812,-202.6039 249.4965,-196.1108"/>
</g>
<!-- Node10 -->
<g id="node10" class="node">
<title>Node10</title>
<g id="a_node10"><a xlink:title=" ">
<polygon fill="none" stroke="#bfbfbf" points="335.0431,-116.5 335.0431,-137.5 378.0431,-137.5 378.0431,-116.5 335.0431,-116.5"/>
<text text-anchor="middle" x="356.5431" y="-123.9" font-family="Helvetica,sans-Serif" font-size="12.00" fill="#000000">tuple</text>
</a>
</g>
</g>
<!-- Node1&#45;&gt;Node10 -->
<g id="edge23" class="edge">
<title>Node1&#45;&gt;Node10</title>
<path fill="none" stroke="#191970" d="M356.5431,-232.2949C356.5431,-213.1314 356.5431,-172.654 356.5431,-147.8434"/>
<polygon fill="#191970" stroke="#191970" points="360.0432,-147.6792 356.5431,-137.6792 353.0432,-147.6792 360.0432,-147.6792"/>
</g>
<!-- Node11 -->
<g id="node11" class="node">
<title>Node11</title>
<g id="a_node11"><a xlink:title=" ">
<polygon fill="none" stroke="#bfbfbf" points="511.0431,-174.5 511.0431,-195.5 556.0431,-195.5 556.0431,-174.5 511.0431,-174.5"/>
<text text-anchor="middle" x="533.5431" y="-181.9" font-family="Helvetica,sans-Serif" font-size="12.00" fill="#000000">ctime</text>
</a>
</g>
</g>
<!-- Node1&#45;&gt;Node11 -->
<g id="edge24" class="edge">
<title>Node1&#45;&gt;Node11</title>
<path fill="none" stroke="#191970" d="M388.5964,-232.4966C420.5086,-222.0395 469.2265,-206.0755 501.2296,-195.5886"/>
<polygon fill="#191970" stroke="#191970" points="502.5775,-198.8301 510.9904,-192.3901 500.3977,-192.1781 502.5775,-198.8301"/>
</g>
<!-- Node12 -->
<g id="node12" class="node">
<title>Node12</title>
<g id="a_node12"><a xlink:title=" ">
<polygon fill="none" stroke="#bfbfbf" points="574.0431,-174.5 574.0431,-195.5 633.0431,-195.5 633.0431,-174.5 574.0431,-174.5"/>
<text text-anchor="middle" x="603.5431" y="-181.9" font-family="Helvetica,sans-Serif" font-size="12.00" fill="#000000">iomanip</text>
</a>
</g>
</g>
<!-- Node1&#45;&gt;Node12 -->
<g id="edge25" class="edge">
<title>Node1&#45;&gt;Node12</title>
<path fill="none" stroke="#191970" d="M407.4282,-232.4583C447.6378,-223.924 505.3875,-211.2172 563.9363,-196.3253"/>
<polygon fill="#191970" stroke="#191970" points="564.9011,-199.6912 573.7191,-193.8182 563.1633,-192.9104 564.9011,-199.6912"/>
</g>
<!-- Node2&#45;&gt;Node3 -->
<g id="edge2" class="edge">
<title>Node2&#45;&gt;Node3</title>
<path fill="none" stroke="#191970" d="M231.7039,-116.3474C214.0929,-102.0284 181.1354,-76.2643 150.5431,-58 129.9997,-45.7352 105.7502,-34.1787 86.3928,-25.5942"/>
<polygon fill="#191970" stroke="#191970" points="87.6068,-22.3052 77.042,-21.5086 84.8041,-28.7196 87.6068,-22.3052"/>
</g>
<!-- Node2&#45;&gt;Node4 -->
<g id="edge3" class="edge">
<title>Node2&#45;&gt;Node4</title>
<path fill="none" stroke="#191970" d="M203.2159,-116.42C170.5561,-107.8842 123.6287,-95.2351 74.1529,-80.0683"/>
<polygon fill="#191970" stroke="#191970" points="75.1459,-76.7119 64.5583,-77.1049 73.0801,-83.4002 75.1459,-76.7119"/>
</g>
<!-- Node2&#45;&gt;Node5 -->
<g id="edge4" class="edge">
<title>Node2&#45;&gt;Node5</title>
<path fill="none" stroke="#191970" d="M274.4233,-116.4966C301.7904,-106.8767 342.4158,-92.5962 371.9717,-82.2069"/>
<polygon fill="#191970" stroke="#191970" points="373.2621,-85.4633 381.5355,-78.8451 370.9407,-78.8594 373.2621,-85.4633"/>
</g>
<!-- Node2&#45;&gt;Node6 -->
<g id="edge5" class="edge">
<title>Node2&#45;&gt;Node6</title>
<path fill="none" stroke="#191970" d="M244.7276,-116.2949C245.058,-97.1314 245.7559,-56.654 246.1837,-31.8434"/>
<polygon fill="#191970" stroke="#191970" points="249.6859,-31.7381 246.3589,-21.6792 242.687,-31.6173 249.6859,-31.7381"/>
</g>
<!-- Node2&#45;&gt;Node7 -->
<g id="edge6" class="edge">
<title>Node2&#45;&gt;Node7</title>
<path fill="none" stroke="#191970" d="M220.6388,-116.4966C199.7435,-107.3154 169.1867,-93.8889 145.888,-83.6516"/>
<polygon fill="#191970" stroke="#191970" points="147.2787,-80.4397 136.7155,-79.6212 144.4627,-86.8483 147.2787,-80.4397"/>
</g>
<!-- Node2&#45;&gt;Node8 -->
<g id="edge9" class="edge">
<title>Node2&#45;&gt;Node8</title>
<path fill="none" stroke="#191970" d="M256.6485,-116.3619C266.2311,-107.9408 279.807,-96.0105 290.9356,-86.2308"/>
<polygon fill="#191970" stroke="#191970" points="293.3131,-88.8009 298.5144,-79.5707 288.6923,-83.5427 293.3131,-88.8009"/>
</g>
<!-- Node7&#45;&gt;Node3 -->
<g id="edge7" class="edge">
<title>Node7&#45;&gt;Node3</title>
<path fill="none" stroke="#191970" d="M101.3547,-58.3619C92.584,-50.0226 80.1939,-38.2418 69.9653,-28.5162"/>
<polygon fill="#191970" stroke="#191970" points="72.3192,-25.9248 62.6605,-21.5707 67.4958,-30.9978 72.3192,-25.9248"/>
</g>
<!-- Node7&#45;&gt;Node6 -->
<g id="edge8" class="edge">
<title>Node7&#45;&gt;Node6</title>
<path fill="none" stroke="#191970" d="M136.8094,-58.4966C158.0214,-49.3154 189.0411,-35.8889 212.6928,-25.6516"/>
<polygon fill="#191970" stroke="#191970" points="214.2174,-28.8055 222.0044,-21.6212 211.4368,-22.3815 214.2174,-28.8055"/>
</g>
<!-- Node8&#45;&gt;Node6 -->
<g id="edge10" class="edge">
<title>Node8&#45;&gt;Node6</title>
<path fill="none" stroke="#191970" d="M298.8045,-58.3619C289.6024,-50.0226 276.603,-38.2418 265.8713,-28.5162"/>
<polygon fill="#191970" stroke="#191970" points="267.9674,-25.6924 258.2072,-21.5707 263.2668,-30.8793 267.9674,-25.6924"/>
</g>
<!-- Node9&#45;&gt;Node2 -->
<g id="edge16" class="edge">
<title>Node9&#45;&gt;Node2</title>
<path fill="none" stroke="#191970" d="M218.4123,-174.3619C222.6976,-166.5949 228.6299,-155.8426 233.7591,-146.5458"/>
<polygon fill="#191970" stroke="#191970" points="236.9447,-148.0172 238.711,-137.5707 230.8156,-144.6357 236.9447,-148.0172"/>
</g>
<!-- Node9&#45;&gt;Node3 -->
<g id="edge12" class="edge">
<title>Node9&#45;&gt;Node3</title>
<path fill="none" stroke="#191970" d="M157.1865,-174.4339C107.7428,-161.6265 38.7503,-134.5742 9.5431,-80 -.1492,-61.8899 14.9979,-41.9159 29.7337,-28.1392"/>
<polygon fill="#191970" stroke="#191970" points="32.0501,-30.7631 37.2684,-21.5424 27.439,-25.4964 32.0501,-30.7631"/>
</g>
<!-- Node9&#45;&gt;Node4 -->
<g id="edge13" class="edge">
<title>Node9&#45;&gt;Node4</title>
<path fill="none" stroke="#191970" d="M192.1899,-174.36C175.3044,-165.2921 150.8592,-151.6019 130.5431,-138 106.1104,-121.642 79.6693,-100.6906 62.0115,-86.1881"/>
<polygon fill="#191970" stroke="#191970" points="64.0308,-83.3161 54.096,-79.6352 59.5669,-88.7082 64.0308,-83.3161"/>
</g>
<!-- Node9&#45;&gt;Node6 -->
<g id="edge14" class="edge">
<title>Node9&#45;&gt;Node6</title>
<path fill="none" stroke="#191970" d="M195.9529,-174.4998C184.4674,-166.1736 170.1093,-153.3968 163.5431,-138 159.7074,-129.006 160.3335,-125.236 163.5431,-116 175.933,-80.3464 206.0168,-47.6639 226.3518,-28.5368"/>
<polygon fill="#191970" stroke="#191970" points="228.8528,-30.9926 233.8703,-21.6612 224.1288,-25.8269 228.8528,-30.9926"/>
</g>
<!-- Node9&#45;&gt;Node10 -->
<g id="edge15" class="edge">
<title>Node9&#45;&gt;Node10</title>
<path fill="none" stroke="#191970" d="M238.6204,-174.4966C263.0552,-164.6548 299.601,-149.935 325.5227,-139.4943"/>
<polygon fill="#191970" stroke="#191970" points="326.9216,-142.7042 334.8898,-135.7214 324.3063,-136.2111 326.9216,-142.7042"/>
</g>
</g>
</svg>
        <g id="navigator" transform="translate(0 0)" fill="#404254">
                <rect fill="#f2f5e9" fill-opacity="0.5" stroke="#606060" stroke-width=".5" x="0" y="0" width="60" height="60"/>
                <use id="zoomplus" xlink:href="#zoomPlus" x="17" y="9" onmousedown="handleZoom(evt,'in')"/>
                <use id="zoomminus" xlink:href="#zoomMin" x="42" y="9" onmousedown="handleZoom(evt,'out')"/>
                <use id="reset" xlink:href="#resetDef" x="30" y="36" onmousedown="handleReset()"/>
                <g id="arrowUp" xlink:href="#dirArrow" transform="translate(30 24)" onmousedown="handlePan(0,-1)">
                  <use xlink:href="#rim" fill="#404040">
                        <set attributeName="fill" to="#808080" begin="arrowUp.mouseover" end="arrowUp.mouseout"/>
                  </use>
                  <path fill="none" stroke="white" stroke-width="1.5" d="M0,-3.0v7 M-2.5,-0.5L0,-3.0L2.5,-0.5"/>
                </g>
                <g id="arrowRight" xlink:href="#dirArrow" transform="rotate(90) translate(36 -43)" onmousedown="handlePan(1,0)">
                  <use xlink:href="#rim" fill="#404040">
                        <set attributeName="fill" to="#808080" begin="arrowRight.mouseover" end="arrowRight.mouseout"/>
                  </use>
                  <path fill="none" stroke="white" stroke-width="1.5" d="M0,-3.0v7 M-2.5,-0.5L0,-3.0L2.5,-0.5"/>
                </g>
                <g id="arrowDown" xlink:href="#dirArrow" transform="rotate(180) translate(-30 -48)" onmousedown="handlePan(0,1)">
                  <use xlink:href="#rim" fill="#404040">
                        <set attributeName="fill" to="#808080" begin="arrowDown.mouseover" end="arrowDown.mouseout"/>
                  </use>
                  <path fill="none" stroke="white" stroke-width="1.5" d="M0,-3.0v7 M-2.5,-0.5L0,-3.0L2.5,-0.5"/>
                </g>
                <g id="arrowLeft" xlink:href="#dirArrow" transform="rotate(270) translate(-36 17)" onmousedown="handlePan(-1,0)">
                  <use xlink:href="#rim" fill="#404040">
                        <set attributeName="fill" to="#808080" begin="arrowLeft.mouseover" end="arrowLeft.mouseout"/>
                  </use>
                  <path fill="none" stroke="white" stroke-width="1.5" d="M0,-3.0v7 M-2.5,-0.5L0,-3.0L2.5,-0.5"/>
                </g>
        </g>
        <svg viewBox="0 0 15 15" width="100%" height="30px" preserveAspectRatio="xMaxYMin meet">
         <g id="arrow_out" transform="scale(0.3 0.3)">
          <a xlink:href="CDataBase_8cpp__incl_org.svg" target="_base">
           <rect id="button" ry="5" rx="5" y="6" x="6" height="38" width="38"
                fill="#f2f5e9" fill-opacity="0.5" stroke="#606060" stroke-width="1.0"/>
           <path id="arrow"
             d="M 11.500037,31.436501 C 11.940474,20.09759 22.043105,11.32322 32.158766,21.979434 L 37.068811,17.246167 C 37.068811,17.246167 37.088388,32 37.088388,32 L 22.160133,31.978069 C 22.160133,31.978069 26.997745,27.140456 26.997745,27.140456 C 18.528582,18.264221 13.291696,25.230495 11.500037,31.436501 z"
             style="fill:#404040;"/>
          </a>
         </g>
        </svg>
</svg>
