<?xml version="1.0" encoding="UTF-8" standalone="no"?>
<!DOCTYPE svg PUBLIC "-//W3C//DTD SVG 1.1//EN"
 "http://www.w3.org/Graphics/SVG/1.1/DTD/svg11.dtd">
<!-- Generated by graphviz version 2.40.1 (20161225.0304)
 -->
<!-- Title: headers/CBroker.h Pages: 1 -->
<!--zoomable 262 -->
<svg id="main" version="1.1" xmlns="http://www.w3.org/2000/svg" xmlns:xlink="http://www.w3.org/1999/xlink" xml:space="preserve" onload="init(evt)">
<style type="text/css"><![CDATA[
.edge:hover path { stroke: red; }
.edge:hover polygon { stroke: red; fill: red; }
]]></style>
<script type="text/javascript"><![CDATA[
var edges = document.getElementsByTagName('g');
if (edges && edges.length) {
  for (var i=0;i<edges.length;i++) {
    if (edges[i].id.substr(0,4)=='edge') {
      edges[i].setAttribute('class','edge');
    }
  }
}
]]></script>
        <defs>
                <circle id="rim" cx="0" cy="0" r="7"/>
                <circle id="rim2" cx="0" cy="0" r="3.5"/>
                <g id="zoomPlus">
                        <use xlink:href="#rim" fill="#404040">
                                <set attributeName="fill" to="#808080" begin="zoomplus.mouseover" end="zoomplus.mouseout"/>
                        </use>
                        <path d="M-4,0h8M0,-4v8" fill="none" stroke="white" stroke-width="1.5" pointer-events="none"/>
                </g>
                <g id="zoomMin">
                        <use xlink:href="#rim" fill="#404040">
                                <set attributeName="fill" to="#808080" begin="zoomminus.mouseover" end="zoomminus.mouseout"/>
                        </use>
                        <path d="M-4,0h8" fill="none" stroke="white" stroke-width="1.5" pointer-events="none"/>
                </g>
                <g id="dirArrow">
                        <path fill="none" stroke="white" stroke-width="1.5" d="M0,-3.0v7 M-2.5,-0.5L0,-3.0L2.5,-0.5"/>
                </g>
               <g id="resetDef">
                       <use xlink:href="#rim2" fill="#404040">
                               <set attributeName="fill" to="#808080" begin="reset.mouseover" end="reset.mouseout"/>
                       </use>
               </g>
        </defs>

<script type="text/javascript">
var viewWidth = 729;
var viewHeight = 262;
var sectionId = 'dynsection-1';
</script>
<script xlink:href="../../svgpan.js"/>
<svg id="graph" class="graph">
<g id="viewport">
<title>headers/CBroker.h</title>
<!-- Node1 -->
<g id="node1" class="node">
<title>Node1</title>
<g id="a_node1"><a xlink:title=" ">
<polygon fill="#bfbfbf" stroke="#000000" points="435.5,-232.5 435.5,-253.5 552.5,-253.5 552.5,-232.5 435.5,-232.5"/>
<text text-anchor="middle" x="494" y="-239.9" font-family="Helvetica,sans-Serif" font-size="12.00" fill="#000000">headers/CBroker.h</text>
</a>
</g>
</g>
<!-- Node2 -->
<g id="node2" class="node">
<title>Node2</title>
<g id="a_node2"><a xlink:href="../../df/dca/CMyHoldings_8h.html" target="_top" xlink:title=" ">
<polygon fill="none" stroke="#000000" points="371,-174.5 371,-195.5 517,-195.5 517,-174.5 371,-174.5"/>
<text text-anchor="middle" x="444" y="-181.9" font-family="Helvetica,sans-Serif" font-size="12.00" fill="#000000">headers/CMyHoldings.h</text>
</a>
</g>
</g>
<!-- Node1&#45;&gt;Node2 -->
<g id="edge1" class="edge">
<title>Node1&#45;&gt;Node2</title>
<path fill="none" stroke="#191970" d="M478.0868,-224.5407C469.8436,-214.9786 460.0747,-203.6467 453.1126,-195.5707"/>
<polygon fill="#191970" stroke="#191970" points="475.6489,-227.0731 484.8292,-232.3619 480.9507,-222.5025 475.6489,-227.0731"/>
</g>
<!-- Node5 -->
<g id="node5" class="node">
<title>Node5</title>
<g id="a_node5"><a xlink:href="../../df/d0a/main_8cpp.html" target="_top" xlink:title=" ">
<polygon fill="none" stroke="#000000" points="182.5,-.5 182.5,-21.5 247.5,-21.5 247.5,-.5 182.5,-.5"/>
<text text-anchor="middle" x="215" y="-7.9" font-family="Helvetica,sans-Serif" font-size="12.00" fill="#000000">main.cpp</text>
</a>
</g>
</g>
<!-- Node1&#45;&gt;Node5 -->
<g id="edge16" class="edge">
<title>Node1&#45;&gt;Node5</title>
<path fill="none" stroke="#191970" d="M425.279,-236.2028C335.8665,-223.2175 183.1578,-185.9176 116,-80 110.7641,-71.7422 110.7749,-66.2646 116,-58 123.8287,-45.6171 158.0644,-31.1242 184.1031,-21.5409"/>
<polygon fill="#191970" stroke="#191970" points="424.9397,-239.6892 435.3262,-237.5984 425.9028,-232.7558 424.9397,-239.6892"/>
</g>
<!-- Node7 -->
<g id="node7" class="node">
<title>Node7</title>
<g id="a_node7"><a xlink:href="../../d1/dea/CPortfolio_8h.html" target="_top" xlink:title=" ">
<polygon fill="none" stroke="#000000" points="371,-58.5 371,-79.5 497,-79.5 497,-58.5 371,-58.5"/>
<text text-anchor="middle" x="434" y="-65.9" font-family="Helvetica,sans-Serif" font-size="12.00" fill="#000000">headers/CPortfolio.h</text>
</a>
</g>
</g>
<!-- Node1&#45;&gt;Node7 -->
<g id="edge15" class="edge">
<title>Node1&#45;&gt;Node7</title>
<path fill="none" stroke="#191970" d="M511.2134,-224.7051C521.9681,-210.9796 532.6214,-191.6044 526,-174 510.3859,-132.4863 470.0829,-96.669 448.3673,-79.6177"/>
<polygon fill="#191970" stroke="#191970" points="508.444,-222.5596 504.6575,-232.4547 513.7882,-227.0806 508.444,-222.5596"/>
</g>
<!-- Node11 -->
<g id="node11" class="node">
<title>Node11</title>
<g id="a_node11"><a xlink:href="../../d3/d2d/CBroker_8cpp.html" target="_top" xlink:title=" ">
<polygon fill="none" stroke="#000000" points="587,-174.5 587,-195.5 715,-195.5 715,-174.5 587,-174.5"/>
<text text-anchor="middle" x="651" y="-181.9" font-family="Helvetica,sans-Serif" font-size="12.00" fill="#000000">sources/CBroker.cpp</text>
</a>
</g>
</g>
<!-- Node1&#45;&gt;Node11 -->
<g id="edge17" class="edge">
<title>Node1&#45;&gt;Node11</title>
<path fill="none" stroke="#191970" d="M531.8709,-229.0095C559.7713,-218.7023 597.1248,-204.903 622.5152,-195.5231"/>
<polygon fill="#191970" stroke="#191970" points="530.599,-225.7481 522.4315,-232.4966 533.0248,-232.3143 530.599,-225.7481"/>
</g>
<!-- Node3 -->
<g id="node3" class="node">
<title>Node3</title>
<g id="a_node3"><a xlink:href="../../dd/d2c/CClient_8h.html" target="_top" xlink:title=" ">
<polygon fill="none" stroke="#000000" points="286.5,-116.5 286.5,-137.5 399.5,-137.5 399.5,-116.5 286.5,-116.5"/>
<text text-anchor="middle" x="343" y="-123.9" font-family="Helvetica,sans-Serif" font-size="12.00" fill="#000000">headers/CClient.h</text>
</a>
</g>
</g>
<!-- Node2&#45;&gt;Node3 -->
<g id="edge2" class="edge">
<title>Node2&#45;&gt;Node3</title>
<path fill="none" stroke="#191970" d="M416.7979,-169.379C399.2484,-159.3011 376.8915,-146.4624 361.4075,-137.5707"/>
<polygon fill="#191970" stroke="#191970" points="415.0602,-172.4171 425.475,-174.3619 418.5462,-166.3468 415.0602,-172.4171"/>
</g>
<!-- Node2&#45;&gt;Node7 -->
<g id="edge13" class="edge">
<title>Node2&#45;&gt;Node7</title>
<path fill="none" stroke="#191970" d="M442.2003,-164.1231C440.0602,-139.2984 436.571,-98.8235 434.9206,-79.6792"/>
<polygon fill="#191970" stroke="#191970" points="438.7311,-164.6325 443.0771,-174.2949 445.7052,-164.0312 438.7311,-164.6325"/>
</g>
<!-- Node9 -->
<g id="node9" class="node">
<title>Node9</title>
<g id="a_node9"><a xlink:href="../../d0/dce/CMyHoldings_8cpp.html" target="_top" xlink:title=" ">
<polygon fill="none" stroke="#000000" points="563.5,-.5 563.5,-21.5 720.5,-21.5 720.5,-.5 563.5,-.5"/>
<text text-anchor="middle" x="642" y="-7.9" font-family="Helvetica,sans-Serif" font-size="12.00" fill="#000000">sources/CMyHoldings.cpp</text>
</a>
</g>
</g>
<!-- Node2&#45;&gt;Node9 -->
<g id="edge14" class="edge">
<title>Node2&#45;&gt;Node9</title>
<path fill="none" stroke="#191970" d="M463.7286,-167.6628C504.4222,-131.9017 596.638,-50.8636 629.8189,-21.7046"/>
<polygon fill="#191970" stroke="#191970" points="461.289,-165.1472 456.0877,-174.3774 465.9098,-170.4054 461.289,-165.1472"/>
</g>
<!-- Node4 -->
<g id="node4" class="node">
<title>Node4</title>
<g id="a_node4"><a xlink:href="../../d6/d5c/CAdministrator_8h.html" target="_top" xlink:title=" ">
<polygon fill="none" stroke="#000000" points="125,-58.5 125,-79.5 277,-79.5 277,-58.5 125,-58.5"/>
<text text-anchor="middle" x="201" y="-65.9" font-family="Helvetica,sans-Serif" font-size="12.00" fill="#000000">headers/CAdministrator.h</text>
</a>
</g>
</g>
<!-- Node3&#45;&gt;Node4 -->
<g id="edge3" class="edge">
<title>Node3&#45;&gt;Node4</title>
<path fill="none" stroke="#191970" d="M307.7824,-112.6153C282.7453,-102.3889 249.6707,-88.8796 227.0037,-79.6212"/>
<polygon fill="#191970" stroke="#191970" points="306.7039,-115.9555 317.2849,-116.4966 309.3508,-109.4752 306.7039,-115.9555"/>
</g>
<!-- Node3&#45;&gt;Node5 -->
<g id="edge11" class="edge">
<title>Node3&#45;&gt;Node5</title>
<path fill="none" stroke="#191970" d="M329.7586,-108.0573C318.9785,-93.4109 302.8371,-73.1452 286,-58 269.9541,-43.5664 249.1173,-30.3091 234.1733,-21.581"/>
<polygon fill="#191970" stroke="#191970" points="327.0511,-110.2868 335.7363,-116.3546 332.7307,-106.195 327.0511,-110.2868"/>
</g>
<!-- Node3&#45;&gt;Node7 -->
<g id="edge6" class="edge">
<title>Node3&#45;&gt;Node7</title>
<path fill="none" stroke="#191970" d="M368.3835,-110.8215C384.0579,-100.8312 403.7201,-88.2993 417.415,-79.5707"/>
<polygon fill="#191970" stroke="#191970" points="366.2424,-108.0356 359.6908,-116.3619 370.0048,-113.9386 366.2424,-108.0356"/>
</g>
<!-- Node8 -->
<g id="node8" class="node">
<title>Node8</title>
<g id="a_node8"><a xlink:href="../../d8/d8c/CClient_8cpp.html" target="_top" xlink:title=" ">
<polygon fill="none" stroke="#000000" points="265.5,-.5 265.5,-21.5 390.5,-21.5 390.5,-.5 265.5,-.5"/>
<text text-anchor="middle" x="328" y="-7.9" font-family="Helvetica,sans-Serif" font-size="12.00" fill="#000000">sources/CClient.cpp</text>
</a>
</g>
</g>
<!-- Node3&#45;&gt;Node8 -->
<g id="edge12" class="edge">
<title>Node3&#45;&gt;Node8</title>
<path fill="none" stroke="#191970" d="M340.3004,-106.1231C337.0903,-81.2984 331.8565,-40.8235 329.3809,-21.6792"/>
<polygon fill="#191970" stroke="#191970" points="336.8621,-106.8264 341.6157,-116.2949 343.8043,-105.9286 336.8621,-106.8264"/>
</g>
<!-- Node4&#45;&gt;Node5 -->
<g id="edge4" class="edge">
<title>Node4&#45;&gt;Node5</title>
<path fill="none" stroke="#191970" d="M205.9513,-48.4876C208.1467,-39.3924 210.6369,-29.0756 212.4485,-21.5707"/>
<polygon fill="#191970" stroke="#191970" points="202.512,-47.8198 203.5678,-58.3619 209.3166,-49.4623 202.512,-47.8198"/>
</g>
<!-- Node6 -->
<g id="node6" class="node">
<title>Node6</title>
<g id="a_node6"><a xlink:href="../../d2/da4/CAdministrator_8cpp.html" target="_top" xlink:title=" ">
<polygon fill="none" stroke="#000000" points="0,-.5 0,-21.5 164,-21.5 164,-.5 0,-.5"/>
<text text-anchor="middle" x="82" y="-7.9" font-family="Helvetica,sans-Serif" font-size="12.00" fill="#000000">sources/CAdministrator.cpp</text>
</a>
</g>
</g>
<!-- Node4&#45;&gt;Node6 -->
<g id="edge5" class="edge">
<title>Node4&#45;&gt;Node6</title>
<path fill="none" stroke="#191970" d="M170.3663,-54.0693C149.5265,-43.9121 122.4512,-30.7157 103.7918,-21.6212"/>
<polygon fill="#191970" stroke="#191970" points="168.9274,-57.2615 179.45,-58.4966 171.9943,-50.9691 168.9274,-57.2615"/>
</g>
<!-- Node7&#45;&gt;Node5 -->
<g id="edge7" class="edge">
<title>Node7&#45;&gt;Node5</title>
<path fill="none" stroke="#191970" d="M384.3499,-55.9465C348.639,-46.544 299.3365,-33.5348 256,-22 253.2937,-21.2797 250.4875,-20.5308 247.6706,-19.7778"/>
<polygon fill="#191970" stroke="#191970" points="383.484,-59.3377 394.0455,-58.4986 385.2659,-52.5683 383.484,-59.3377"/>
</g>
<!-- Node7&#45;&gt;Node8 -->
<g id="edge8" class="edge">
<title>Node7&#45;&gt;Node8</title>
<path fill="none" stroke="#191970" d="M405.7044,-53.5175C387.2484,-43.4189 363.6438,-30.5032 347.3188,-21.5707"/>
<polygon fill="#191970" stroke="#191970" points="404.1053,-56.6322 414.558,-58.3619 407.4654,-50.4913 404.1053,-56.6322"/>
</g>
<!-- Node7&#45;&gt;Node9 -->
<g id="edge9" class="edge">
<title>Node7&#45;&gt;Node9</title>
<path fill="none" stroke="#191970" d="M481.7699,-55.6795C518.968,-45.307 569.8894,-31.1078 604.2621,-21.5231"/>
<polygon fill="#191970" stroke="#191970" points="480.3596,-52.4392 471.6672,-58.4966 482.2399,-59.182 480.3596,-52.4392"/>
</g>
<!-- Node10 -->
<g id="node10" class="node">
<title>Node10</title>
<g id="a_node10"><a xlink:href="../../d8/dbf/CPortfolio_8cpp.html" target="_top" xlink:title=" ">
<polygon fill="none" stroke="#000000" points="408.5,-.5 408.5,-21.5 545.5,-21.5 545.5,-.5 408.5,-.5"/>
<text text-anchor="middle" x="477" y="-7.9" font-family="Helvetica,sans-Serif" font-size="12.00" fill="#000000">sources/CPortfolio.cpp</text>
</a>
</g>
</g>
<!-- Node7&#45;&gt;Node10 -->
<g id="edge10" class="edge">
<title>Node7&#45;&gt;Node10</title>
<path fill="none" stroke="#191970" d="M447.9006,-50.2504C454.944,-40.75 463.2362,-29.5651 469.1631,-21.5707"/>
<polygon fill="#191970" stroke="#191970" points="445.0309,-48.2443 441.8869,-58.3619 450.6541,-52.4132 445.0309,-48.2443"/>
</g>
</g>
</svg>
        <g id="navigator" transform="translate(0 0)" fill="#404254">
                <rect fill="#f2f5e9" fill-opacity="0.5" stroke="#606060" stroke-width=".5" x="0" y="0" width="60" height="60"/>
                <use id="zoomplus" xlink:href="#zoomPlus" x="17" y="9" onmousedown="handleZoom(evt,'in')"/>
                <use id="zoomminus" xlink:href="#zoomMin" x="42" y="9" onmousedown="handleZoom(evt,'out')"/>
                <use id="reset" xlink:href="#resetDef" x="30" y="36" onmousedown="handleReset()"/>
                <g id="arrowUp" xlink:href="#dirArrow" transform="translate(30 24)" onmousedown="handlePan(0,-1)">
                  <use xlink:href="#rim" fill="#404040">
                        <set attributeName="fill" to="#808080" begin="arrowUp.mouseover" end="arrowUp.mouseout"/>
                  </use>
                  <path fill="none" stroke="white" stroke-width="1.5" d="M0,-3.0v7 M-2.5,-0.5L0,-3.0L2.5,-0.5"/>
                </g>
                <g id="arrowRight" xlink:href="#dirArrow" transform="rotate(90) translate(36 -43)" onmousedown="handlePan(1,0)">
                  <use xlink:href="#rim" fill="#404040">
                        <set attributeName="fill" to="#808080" begin="arrowRight.mouseover" end="arrowRight.mouseout"/>
                  </use>
                  <path fill="none" stroke="white" stroke-width="1.5" d="M0,-3.0v7 M-2.5,-0.5L0,-3.0L2.5,-0.5"/>
                </g>
                <g id="arrowDown" xlink:href="#dirArrow" transform="rotate(180) translate(-30 -48)" onmousedown="handlePan(0,1)">
                  <use xlink:href="#rim" fill="#404040">
                        <set attributeName="fill" to="#808080" begin="arrowDown.mouseover" end="arrowDown.mouseout"/>
                  </use>
                  <path fill="none" stroke="white" stroke-width="1.5" d="M0,-3.0v7 M-2.5,-0.5L0,-3.0L2.5,-0.5"/>
                </g>
                <g id="arrowLeft" xlink:href="#dirArrow" transform="rotate(270) translate(-36 17)" onmousedown="handlePan(-1,0)">
                  <use xlink:href="#rim" fill="#404040">
                        <set attributeName="fill" to="#808080" begin="arrowLeft.mouseover" end="arrowLeft.mouseout"/>
                  </use>
                  <path fill="none" stroke="white" stroke-width="1.5" d="M0,-3.0v7 M-2.5,-0.5L0,-3.0L2.5,-0.5"/>
                </g>
        </g>
        <svg viewBox="0 0 15 15" width="100%" height="30px" preserveAspectRatio="xMaxYMin meet">
         <g id="arrow_out" transform="scale(0.3 0.3)">
          <a xlink:href="CBroker_8h__dep__incl_org.svg" target="_base">
           <rect id="button" ry="5" rx="5" y="6" x="6" height="38" width="38"
                fill="#f2f5e9" fill-opacity="0.5" stroke="#606060" stroke-width="1.0"/>
           <path id="arrow"
             d="M 11.500037,31.436501 C 11.940474,20.09759 22.043105,11.32322 32.158766,21.979434 L 37.068811,17.246167 C 37.068811,17.246167 37.088388,32 37.088388,32 L 22.160133,31.978069 C 22.160133,31.978069 26.997745,27.140456 26.997745,27.140456 C 18.528582,18.264221 13.291696,25.230495 11.500037,31.436501 z"
             style="fill:#404040;"/>
          </a>
         </g>
        </svg>
</svg>
