<?xml version="1.0" encoding="UTF-8" standalone="no"?>
<!DOCTYPE svg PUBLIC "-//W3C//DTD SVG 1.1//EN"
 "http://www.w3.org/Graphics/SVG/1.1/DTD/svg11.dtd">
<!-- Generated by graphviz version 2.40.1 (20161225.0304)
 -->
<!-- Title: headers/CDataBase.h Pages: 1 -->
<!--zoomable 378 -->
<svg id="main" version="1.1" xmlns="http://www.w3.org/2000/svg" xmlns:xlink="http://www.w3.org/1999/xlink" xml:space="preserve" onload="init(evt)">
<style type="text/css"><![CDATA[
.edge:hover path { stroke: red; }
.edge:hover polygon { stroke: red; fill: red; }
]]></style>
<script type="text/javascript"><![CDATA[
var edges = document.getElementsByTagName('g');
if (edges && edges.length) {
  for (var i=0;i<edges.length;i++) {
    if (edges[i].id.substr(0,4)=='edge') {
      edges[i].setAttribute('class','edge');
    }
  }
}
]]></script>
        <defs>
                <circle id="rim" cx="0" cy="0" r="7"/>
                <circle id="rim2" cx="0" cy="0" r="3.5"/>
                <g id="zoomPlus">
                        <use xlink:href="#rim" fill="#404040">
                                <set attributeName="fill" to="#808080" begin="zoomplus.mouseover" end="zoomplus.mouseout"/>
                        </use>
                        <path d="M-4,0h8M0,-4v8" fill="none" stroke="white" stroke-width="1.5" pointer-events="none"/>
                </g>
                <g id="zoomMin">
                        <use xlink:href="#rim" fill="#404040">
                                <set attributeName="fill" to="#808080" begin="zoomminus.mouseover" end="zoomminus.mouseout"/>
                        </use>
                        <path d="M-4,0h8" fill="none" stroke="white" stroke-width="1.5" pointer-events="none"/>
                </g>
                <g id="dirArrow">
                        <path fill="none" stroke="white" stroke-width="1.5" d="M0,-3.0v7 M-2.5,-0.5L0,-3.0L2.5,-0.5"/>
                </g>
               <g id="resetDef">
                       <use xlink:href="#rim2" fill="#404040">
                               <set attributeName="fill" to="#808080" begin="reset.mouseover" end="reset.mouseout"/>
                       </use>
               </g>
        </defs>

<script type="text/javascript">
var viewWidth = 1453;
var viewHeight = 378;
var sectionId = 'dynsection-1';
</script>
<script xlink:href="../../svgpan.js"/>
<svg id="graph" class="graph">
<g id="viewport">
<title>headers/CDataBase.h</title>
<!-- Node1 -->
<g id="node1" class="node">
<title>Node1</title>
<g id="a_node1"><a xlink:title=" ">
<polygon fill="#bfbfbf" stroke="#000000" points="557.5,-348.5 557.5,-369.5 692.5,-369.5 692.5,-348.5 557.5,-348.5"/>
<text text-anchor="middle" x="625" y="-355.9" font-family="Helvetica,sans-Serif" font-size="12.00" fill="#000000">headers/CDataBase.h</text>
</a>
</g>
</g>
<!-- Node2 -->
<g id="node2" class="node">
<title>Node2</title>
<g id="a_node2"><a xlink:href="../../df/d1a/CBroker_8h.html" target="_top" xlink:title=" ">
<polygon fill="none" stroke="#000000" points="458.5,-232.5 458.5,-253.5 575.5,-253.5 575.5,-232.5 458.5,-232.5"/>
<text text-anchor="middle" x="517" y="-239.9" font-family="Helvetica,sans-Serif" font-size="12.00" fill="#000000">headers/CBroker.h</text>
</a>
</g>
</g>
<!-- Node1&#45;&gt;Node2 -->
<g id="edge1" class="edge">
<title>Node1&#45;&gt;Node2</title>
<path fill="none" stroke="#191970" d="M608.0032,-340.7441C585.192,-316.2432 545.409,-273.5134 526.9427,-253.6792"/>
<polygon fill="#191970" stroke="#191970" points="605.6573,-343.3609 615.0332,-348.2949 610.7806,-338.591 605.6573,-343.3609"/>
</g>
<!-- Node4 -->
<g id="node4" class="node">
<title>Node4</title>
<g id="a_node4"><a xlink:href="../../dd/d2c/CClient_8h.html" target="_top" xlink:title=" ">
<polygon fill="none" stroke="#000000" points="185.5,-116.5 185.5,-137.5 298.5,-137.5 298.5,-116.5 185.5,-116.5"/>
<text text-anchor="middle" x="242" y="-123.9" font-family="Helvetica,sans-Serif" font-size="12.00" fill="#000000">headers/CClient.h</text>
</a>
</g>
</g>
<!-- Node1&#45;&gt;Node4 -->
<g id="edge36" class="edge">
<title>Node1&#45;&gt;Node4</title>
<path fill="none" stroke="#191970" d="M547.1469,-352.8605C451.566,-340.6714 293.1691,-304.3211 220,-196 207.6133,-177.6625 222.6568,-151.9258 233.2685,-137.6311"/>
<polygon fill="#191970" stroke="#191970" points="546.9884,-356.3669 557.3376,-354.099 547.833,-349.4181 546.9884,-356.3669"/>
</g>
<!-- Node8 -->
<g id="node8" class="node">
<title>Node8</title>
<g id="a_node8"><a xlink:href="../../d1/dea/CPortfolio_8h.html" target="_top" xlink:title=" ">
<polygon fill="none" stroke="#000000" points="433,-58.5 433,-79.5 559,-79.5 559,-58.5 433,-58.5"/>
<text text-anchor="middle" x="496" y="-65.9" font-family="Helvetica,sans-Serif" font-size="12.00" fill="#000000">headers/CPortfolio.h</text>
</a>
</g>
</g>
<!-- Node1&#45;&gt;Node8 -->
<g id="edge37" class="edge">
<title>Node1&#45;&gt;Node8</title>
<path fill="none" stroke="#191970" d="M625,-338.4061C625,-315.2147 625,-276.4022 625,-243 625,-243 625,-243 625,-185 625,-131.0872 561.931,-95.8549 523.9911,-79.5379"/>
<polygon fill="#191970" stroke="#191970" points="621.5001,-338.4439 625,-348.4439 628.5001,-338.4439 621.5001,-338.4439"/>
</g>
<!-- Node13 -->
<g id="node13" class="node">
<title>Node13</title>
<g id="a_node13"><a xlink:href="../../d7/d79/CAsset_8h.html" target="_top" xlink:title=" ">
<polygon fill="none" stroke="#000000" points="798,-290.5 798,-311.5 910,-311.5 910,-290.5 798,-290.5"/>
<text text-anchor="middle" x="854" y="-297.9" font-family="Helvetica,sans-Serif" font-size="12.00" fill="#000000">headers/CAsset.h</text>
</a>
</g>
</g>
<!-- Node1&#45;&gt;Node13 -->
<g id="edge19" class="edge">
<title>Node1&#45;&gt;Node13</title>
<path fill="none" stroke="#191970" d="M676.2854,-346.0107C717.3465,-335.6109 774.2047,-321.2102 812.4521,-311.5231"/>
<polygon fill="#191970" stroke="#191970" points="675.3047,-342.6485 666.4702,-348.4966 677.0234,-349.4342 675.3047,-342.6485"/>
</g>
<!-- Node19 -->
<g id="node19" class="node">
<title>Node19</title>
<g id="a_node19"><a xlink:href="../../d9/d0a/CDataBase_8cpp.html" target="_top" xlink:title=" ">
<polygon fill="none" stroke="#000000" points="1299,-232.5 1299,-253.5 1445,-253.5 1445,-232.5 1299,-232.5"/>
<text text-anchor="middle" x="1372" y="-239.9" font-family="Helvetica,sans-Serif" font-size="12.00" fill="#000000">sources/CDataBase.cpp</text>
</a>
</g>
</g>
<!-- Node1&#45;&gt;Node19 -->
<g id="edge38" class="edge">
<title>Node1&#45;&gt;Node19</title>
<path fill="none" stroke="#191970" d="M702.891,-346.9045C849.817,-324.0887 1165.5531,-275.0587 1304.2756,-253.5168"/>
<polygon fill="#191970" stroke="#191970" points="701.9532,-343.5081 692.6088,-348.5012 703.0274,-350.4252 701.9532,-343.5081"/>
</g>
<!-- Node3 -->
<g id="node3" class="node">
<title>Node3</title>
<g id="a_node3"><a xlink:href="../../df/dca/CMyHoldings_8h.html" target="_top" xlink:title=" ">
<polygon fill="none" stroke="#000000" points="229,-174.5 229,-195.5 375,-195.5 375,-174.5 229,-174.5"/>
<text text-anchor="middle" x="302" y="-181.9" font-family="Helvetica,sans-Serif" font-size="12.00" fill="#000000">headers/CMyHoldings.h</text>
</a>
</g>
</g>
<!-- Node2&#45;&gt;Node3 -->
<g id="edge2" class="edge">
<title>Node2&#45;&gt;Node3</title>
<path fill="none" stroke="#191970" d="M468.1146,-229.8123C429.6227,-219.4285 376.6892,-205.1487 341.0079,-195.5231"/>
<polygon fill="#191970" stroke="#191970" points="467.4986,-233.2712 478.0651,-232.4966 469.3219,-226.5128 467.4986,-233.2712"/>
</g>
<!-- Node6 -->
<g id="node6" class="node">
<title>Node6</title>
<g id="a_node6"><a xlink:href="../../df/d0a/main_8cpp.html" target="_top" xlink:title=" ">
<polygon fill="none" stroke="#000000" points="655.5,-.5 655.5,-21.5 720.5,-21.5 720.5,-.5 655.5,-.5"/>
<text text-anchor="middle" x="688" y="-7.9" font-family="Helvetica,sans-Serif" font-size="12.00" fill="#000000">main.cpp</text>
</a>
</g>
</g>
<!-- Node2&#45;&gt;Node6 -->
<g id="edge17" class="edge">
<title>Node2&#45;&gt;Node6</title>
<path fill="none" stroke="#191970" d="M538.0886,-225.7011C547.7508,-217.2575 559.0226,-206.6409 568,-196 619.3475,-135.1379 666.4741,-51.0478 682.3413,-21.6537"/>
<polygon fill="#191970" stroke="#191970" points="535.7684,-223.0799 530.4366,-232.2354 540.3141,-228.4031 535.7684,-223.0799"/>
</g>
<!-- Node2&#45;&gt;Node8 -->
<g id="edge16" class="edge">
<title>Node2&#45;&gt;Node8</title>
<path fill="none" stroke="#191970" d="M463.4626,-228.6713C447.3251,-221.577 431.4128,-211.1586 422,-196 395.6152,-153.5092 453.0096,-101.6374 481.3625,-79.6565"/>
<polygon fill="#191970" stroke="#191970" points="462.3585,-231.9995 472.9427,-232.4749 464.9651,-225.5028 462.3585,-231.9995"/>
</g>
<!-- Node12 -->
<g id="node12" class="node">
<title>Node12</title>
<g id="a_node12"><a xlink:href="../../d3/d2d/CBroker_8cpp.html" target="_top" xlink:title=" ">
<polygon fill="none" stroke="#000000" points="431,-174.5 431,-195.5 559,-195.5 559,-174.5 431,-174.5"/>
<text text-anchor="middle" x="495" y="-181.9" font-family="Helvetica,sans-Serif" font-size="12.00" fill="#000000">sources/CBroker.cpp</text>
</a>
</g>
</g>
<!-- Node2&#45;&gt;Node12 -->
<g id="edge18" class="edge">
<title>Node2&#45;&gt;Node12</title>
<path fill="none" stroke="#191970" d="M509.3318,-222.7838C505.8547,-213.617 501.8872,-203.1572 499.0096,-195.5707"/>
<polygon fill="#191970" stroke="#191970" points="506.1458,-224.2532 512.9649,-232.3619 512.6907,-221.7706 506.1458,-224.2532"/>
</g>
<!-- Node3&#45;&gt;Node4 -->
<g id="edge3" class="edge">
<title>Node3&#45;&gt;Node4</title>
<path fill="none" stroke="#191970" d="M283.7983,-167.405C273.7259,-157.6683 261.5428,-145.8914 252.9352,-137.5707"/>
<polygon fill="#191970" stroke="#191970" points="281.3726,-169.9281 290.9951,-174.3619 286.2378,-164.8952 281.3726,-169.9281"/>
</g>
<!-- Node3&#45;&gt;Node8 -->
<g id="edge14" class="edge">
<title>Node3&#45;&gt;Node8</title>
<path fill="none" stroke="#191970" d="M320.9451,-167.6082C337.8983,-152.6417 363.8823,-131.1316 389,-116 413.8526,-101.0281 444.3271,-88.1174 466.3881,-79.6367"/>
<polygon fill="#191970" stroke="#191970" points="318.5058,-165.0944 313.3915,-174.3732 323.1758,-170.3089 318.5058,-165.0944"/>
</g>
<!-- Node10 -->
<g id="node10" class="node">
<title>Node10</title>
<g id="a_node10"><a xlink:href="../../d0/dce/CMyHoldings_8cpp.html" target="_top" xlink:title=" ">
<polygon fill="none" stroke="#000000" points="325.5,-.5 325.5,-21.5 482.5,-21.5 482.5,-.5 325.5,-.5"/>
<text text-anchor="middle" x="404" y="-7.9" font-family="Helvetica,sans-Serif" font-size="12.00" fill="#000000">sources/CMyHoldings.cpp</text>
</a>
</g>
</g>
<!-- Node3&#45;&gt;Node10 -->
<g id="edge15" class="edge">
<title>Node3&#45;&gt;Node10</title>
<path fill="none" stroke="#191970" d="M313.3589,-165.6231C334.8258,-129.0031 380.7111,-50.7281 397.5941,-21.9277"/>
<polygon fill="#191970" stroke="#191970" points="310.2648,-163.9804 308.227,-174.3774 316.3037,-167.5205 310.2648,-163.9804"/>
</g>
<!-- Node5 -->
<g id="node5" class="node">
<title>Node5</title>
<g id="a_node5"><a xlink:href="../../d6/d5c/CAdministrator_8h.html" target="_top" xlink:title=" ">
<polygon fill="none" stroke="#000000" points="65,-58.5 65,-79.5 217,-79.5 217,-58.5 65,-58.5"/>
<text text-anchor="middle" x="141" y="-65.9" font-family="Helvetica,sans-Serif" font-size="12.00" fill="#000000">headers/CAdministrator.h</text>
</a>
</g>
</g>
<!-- Node4&#45;&gt;Node5 -->
<g id="edge4" class="edge">
<title>Node4&#45;&gt;Node5</title>
<path fill="none" stroke="#191970" d="M214.7979,-111.379C197.2484,-101.3011 174.8915,-88.4624 159.4075,-79.5707"/>
<polygon fill="#191970" stroke="#191970" points="213.0602,-114.4171 223.475,-116.3619 216.5462,-108.3468 213.0602,-114.4171"/>
</g>
<!-- Node4&#45;&gt;Node6 -->
<g id="edge12" class="edge">
<title>Node4&#45;&gt;Node6</title>
<path fill="none" stroke="#191970" d="M274.8293,-112.2374C310.7723,-96.6265 370.4372,-72.3186 424,-58 520.9886,-32.0726 548.8341,-43.0349 647,-22 649.7384,-21.4132 652.5671,-20.7583 655.3992,-20.0683"/>
<polygon fill="#191970" stroke="#191970" points="273.0991,-109.1742 265.3453,-116.3943 275.9092,-115.5854 273.0991,-109.1742"/>
</g>
<!-- Node4&#45;&gt;Node8 -->
<g id="edge7" class="edge">
<title>Node4&#45;&gt;Node8</title>
<path fill="none" stroke="#191970" d="M298.0198,-114.2081C343.6272,-103.7938 407.2244,-89.2716 449.9163,-79.5231"/>
<polygon fill="#191970" stroke="#191970" points="296.9674,-110.8582 287.9975,-116.4966 298.5257,-117.6826 296.9674,-110.8582"/>
</g>
<!-- Node9 -->
<g id="node9" class="node">
<title>Node9</title>
<g id="a_node9"><a xlink:href="../../d8/d8c/CClient_8cpp.html" target="_top" xlink:title=" ">
<polygon fill="none" stroke="#000000" points="182.5,-.5 182.5,-21.5 307.5,-21.5 307.5,-.5 182.5,-.5"/>
<text text-anchor="middle" x="245" y="-7.9" font-family="Helvetica,sans-Serif" font-size="12.00" fill="#000000">sources/CClient.cpp</text>
</a>
</g>
</g>
<!-- Node4&#45;&gt;Node9 -->
<g id="edge13" class="edge">
<title>Node4&#45;&gt;Node9</title>
<path fill="none" stroke="#191970" d="M242.5399,-106.1231C243.1819,-81.2984 244.2287,-40.8235 244.7238,-21.6792"/>
<polygon fill="#191970" stroke="#191970" points="239.0367,-106.2077 242.2769,-116.2949 246.0343,-106.3888 239.0367,-106.2077"/>
</g>
<!-- Node5&#45;&gt;Node6 -->
<g id="edge5" class="edge">
<title>Node5&#45;&gt;Node6</title>
<path fill="none" stroke="#191970" d="M227.3178,-61.7863C360.9771,-50.4947 606.8771,-29.1922 647,-22 649.7566,-21.5059 652.5982,-20.9161 655.4388,-20.2699"/>
<polygon fill="#191970" stroke="#191970" points="226.7759,-58.3195 217.1056,-62.648 227.3645,-65.2947 226.7759,-58.3195"/>
</g>
<!-- Node7 -->
<g id="node7" class="node">
<title>Node7</title>
<g id="a_node7"><a xlink:href="../../d2/da4/CAdministrator_8cpp.html" target="_top" xlink:title=" ">
<polygon fill="none" stroke="#000000" points="0,-.5 0,-21.5 164,-21.5 164,-.5 0,-.5"/>
<text text-anchor="middle" x="82" y="-7.9" font-family="Helvetica,sans-Serif" font-size="12.00" fill="#000000">sources/CAdministrator.cpp</text>
</a>
</g>
</g>
<!-- Node5&#45;&gt;Node7 -->
<g id="edge6" class="edge">
<title>Node5&#45;&gt;Node7</title>
<path fill="none" stroke="#191970" d="M122.8097,-51.118C112.9625,-41.4377 101.1341,-29.8098 92.7529,-21.5707"/>
<polygon fill="#191970" stroke="#191970" points="120.5936,-53.8474 130.1785,-58.3619 125.5009,-48.8556 120.5936,-53.8474"/>
</g>
<!-- Node8&#45;&gt;Node6 -->
<g id="edge8" class="edge">
<title>Node8&#45;&gt;Node6</title>
<path fill="none" stroke="#191970" d="M540.7579,-55.4794C575.8576,-44.8763 623.8852,-30.368 655.4094,-20.8451"/>
<polygon fill="#191970" stroke="#191970" points="539.3304,-52.2543 530.7698,-58.4966 541.3547,-58.9553 539.3304,-52.2543"/>
</g>
<!-- Node8&#45;&gt;Node9 -->
<g id="edge9" class="edge">
<title>Node8&#45;&gt;Node9</title>
<path fill="none" stroke="#191970" d="M440.6418,-56.2081C395.5732,-45.7938 332.7271,-31.2716 290.5395,-21.5231"/>
<polygon fill="#191970" stroke="#191970" points="440.0145,-59.6553 450.5458,-58.4966 441.5906,-52.835 440.0145,-59.6553"/>
</g>
<!-- Node8&#45;&gt;Node10 -->
<g id="edge10" class="edge">
<title>Node8&#45;&gt;Node10</title>
<path fill="none" stroke="#191970" d="M470.3375,-52.8215C454.4909,-42.8312 434.6126,-30.2993 420.7672,-21.5707"/>
<polygon fill="#191970" stroke="#191970" points="468.7999,-55.9896 479.1258,-58.3619 472.5331,-50.0681 468.7999,-55.9896"/>
</g>
<!-- Node11 -->
<g id="node11" class="node">
<title>Node11</title>
<g id="a_node11"><a xlink:href="../../d8/dbf/CPortfolio_8cpp.html" target="_top" xlink:title=" ">
<polygon fill="none" stroke="#000000" points="500.5,-.5 500.5,-21.5 637.5,-21.5 637.5,-.5 500.5,-.5"/>
<text text-anchor="middle" x="569" y="-7.9" font-family="Helvetica,sans-Serif" font-size="12.00" fill="#000000">sources/CPortfolio.cpp</text>
</a>
</g>
</g>
<!-- Node8&#45;&gt;Node11 -->
<g id="edge11" class="edge">
<title>Node8&#45;&gt;Node11</title>
<path fill="none" stroke="#191970" d="M517.4276,-51.9753C529.8172,-42.1315 545.0176,-30.0545 555.6956,-21.5707"/>
<polygon fill="#191970" stroke="#191970" points="515.0416,-49.4008 509.3893,-58.3619 519.3962,-54.8815 515.0416,-49.4008"/>
</g>
<!-- Node13&#45;&gt;Node2 -->
<g id="edge20" class="edge">
<title>Node13&#45;&gt;Node2</title>
<path fill="none" stroke="#191970" d="M787.9501,-289.6324C726.227,-279.0094 634.9415,-263.2985 575.7103,-253.1044"/>
<polygon fill="#191970" stroke="#191970" points="787.5242,-293.1104 797.973,-291.3574 788.7116,-286.2119 787.5242,-293.1104"/>
</g>
<!-- Node13&#45;&gt;Node6 -->
<g id="edge32" class="edge">
<title>Node13&#45;&gt;Node6</title>
<path fill="none" stroke="#191970" d="M920.3369,-290.3448C993.6568,-278.4198 1103.9674,-259.9839 1123,-254 1192.234,-232.2327 1271,-257.5752 1271,-185 1271,-185 1271,-185 1271,-127 1271,-70.4339 843.3703,-25.6735 720.5938,-13.9881"/>
<polygon fill="#191970" stroke="#191970" points="919.5599,-286.9251 910.25,-291.9823 920.6816,-293.8346 919.5599,-286.9251"/>
</g>
<!-- Node13&#45;&gt;Node8 -->
<g id="edge26" class="edge">
<title>Node13&#45;&gt;Node8</title>
<path fill="none" stroke="#191970" d="M824.9986,-285.4984C808.6645,-276.5877 787.9931,-265.0085 770,-254 730.3592,-229.747 714.4318,-230.2293 683,-196 655.554,-166.1113 670.2249,-141.9157 639,-116 616.3773,-97.2238 586.0218,-85.8735 559.0988,-79.0485"/>
<polygon fill="#191970" stroke="#191970" points="823.6023,-288.7227 834.0616,-290.412 826.9387,-282.5689 823.6023,-288.7227"/>
</g>
<!-- Node14 -->
<g id="node14" class="node">
<title>Node14</title>
<g id="a_node14"><a xlink:href="../../dc/d09/CETF_8h.html" target="_top" xlink:title=" ">
<polygon fill="none" stroke="#000000" points="1008.5,-232.5 1008.5,-253.5 1113.5,-253.5 1113.5,-232.5 1008.5,-232.5"/>
<text text-anchor="middle" x="1061" y="-239.9" font-family="Helvetica,sans-Serif" font-size="12.00" fill="#000000">headers/CETF.h</text>
</a>
</g>
</g>
<!-- Node13&#45;&gt;Node14 -->
<g id="edge21" class="edge">
<title>Node13&#45;&gt;Node14</title>
<path fill="none" stroke="#191970" d="M901.5403,-287.6795C938.5595,-277.307 989.2361,-263.1078 1023.4436,-253.5231"/>
<polygon fill="#191970" stroke="#191970" points="900.171,-284.4283 891.4861,-290.4966 902.0596,-291.1687 900.171,-284.4283"/>
</g>
<!-- Node15 -->
<g id="node15" class="node">
<title>Node15</title>
<g id="a_node15"><a xlink:href="../../d3/d59/CAsset_8cpp.html" target="_top" xlink:title=" ">
<polygon fill="none" stroke="#000000" points="909.5,-174.5 909.5,-195.5 1032.5,-195.5 1032.5,-174.5 909.5,-174.5"/>
<text text-anchor="middle" x="971" y="-181.9" font-family="Helvetica,sans-Serif" font-size="12.00" fill="#000000">sources/CAsset.cpp</text>
</a>
</g>
</g>
<!-- Node13&#45;&gt;Node15 -->
<g id="edge33" class="edge">
<title>Node13&#45;&gt;Node15</title>
<path fill="none" stroke="#191970" d="M879.9802,-284.8421C892.4673,-276.4419 907.2375,-265.5322 919,-254 937.8513,-235.5178 955.3602,-209.8353 964.4623,-195.5887"/>
<polygon fill="#191970" stroke="#191970" points="877.8113,-282.0788 871.3669,-290.4883 881.649,-287.9332 877.8113,-282.0788"/>
</g>
<!-- Node17 -->
<g id="node17" class="node">
<title>Node17</title>
<g id="a_node17"><a xlink:href="../../d2/d2d/CStock_8h.html" target="_top" xlink:title=" ">
<polygon fill="none" stroke="#000000" points="798,-232.5 798,-253.5 910,-253.5 910,-232.5 798,-232.5"/>
<text text-anchor="middle" x="854" y="-239.9" font-family="Helvetica,sans-Serif" font-size="12.00" fill="#000000">headers/CStock.h</text>
</a>
</g>
</g>
<!-- Node13&#45;&gt;Node17 -->
<g id="edge27" class="edge">
<title>Node13&#45;&gt;Node17</title>
<path fill="none" stroke="#191970" d="M854,-280.1906C854,-271.1684 854,-260.9941 854,-253.5707"/>
<polygon fill="#191970" stroke="#191970" points="850.5001,-280.3619 854,-290.3619 857.5001,-280.3619 850.5001,-280.3619"/>
</g>
<!-- Node18 -->
<g id="node18" class="node">
<title>Node18</title>
<g id="a_node18"><a xlink:href="../../d0/d8b/CStock_8cpp.html" target="_top" xlink:title=" ">
<polygon fill="none" stroke="#000000" points="691.5,-174.5 691.5,-195.5 814.5,-195.5 814.5,-174.5 691.5,-174.5"/>
<text text-anchor="middle" x="753" y="-181.9" font-family="Helvetica,sans-Serif" font-size="12.00" fill="#000000">sources/CStock.cpp</text>
</a>
</g>
</g>
<!-- Node13&#45;&gt;Node18 -->
<g id="edge35" class="edge">
<title>Node13&#45;&gt;Node18</title>
<path fill="none" stroke="#191970" d="M826.12,-284.9731C813.6709,-276.8434 799.4794,-266.1228 789,-254 773.4484,-236.0096 762.2646,-210.1427 756.7935,-195.7328"/>
<polygon fill="#191970" stroke="#191970" points="824.4679,-288.0684 834.7989,-290.4178 828.1879,-282.1386 824.4679,-288.0684"/>
</g>
<!-- Node13&#45;&gt;Node19 -->
<g id="edge34" class="edge">
<title>Node13&#45;&gt;Node19</title>
<path fill="none" stroke="#191970" d="M920.1552,-294.1418C1004.7874,-285.2864 1155.8791,-269.2019 1285,-254 1289.536,-253.466 1294.2036,-252.906 1298.9098,-252.3336"/>
<polygon fill="#191970" stroke="#191970" points="919.7516,-290.6649 910.1696,-295.1854 920.4793,-297.6269 919.7516,-290.6649"/>
</g>
<!-- Node14&#45;&gt;Node6 -->
<g id="edge23" class="edge">
<title>Node14&#45;&gt;Node6</title>
<path fill="none" stroke="#191970" d="M1123.7592,-236.6017C1177.156,-228.515 1241.204,-210.9104 1214,-174 1153.2374,-91.5572 825.7573,-32.9402 720.5586,-16.0137"/>
<polygon fill="#191970" stroke="#191970" points="1123.0016,-233.1742 1113.595,-238.0492 1123.9887,-240.1042 1123.0016,-233.1742"/>
</g>
<!-- Node14&#45;&gt;Node8 -->
<g id="edge22" class="edge">
<title>Node14&#45;&gt;Node8</title>
<path fill="none" stroke="#191970" d="M1060.8397,-222.1794C1059.5598,-206.6963 1055.2166,-186.2151 1042,-174 972.3517,-109.6291 687.9342,-82.2141 559.4869,-72.9477"/>
<polygon fill="#191970" stroke="#191970" points="1057.3532,-222.5537 1061.3133,-232.3805 1064.3456,-222.2289 1057.3532,-222.5537"/>
</g>
<!-- Node14&#45;&gt;Node15 -->
<g id="edge24" class="edge">
<title>Node14&#45;&gt;Node15</title>
<path fill="none" stroke="#191970" d="M1035.8954,-226.8215C1020.3933,-216.8312 1000.9471,-204.2993 987.4027,-195.5707"/>
<polygon fill="#191970" stroke="#191970" points="1034.1909,-229.8869 1044.4926,-232.3619 1037.9829,-224.0028 1034.1909,-229.8869"/>
</g>
<!-- Node16 -->
<g id="node16" class="node">
<title>Node16</title>
<g id="a_node16"><a xlink:href="../../db/d85/CETF_8cpp.html" target="_top" xlink:title=" ">
<polygon fill="none" stroke="#000000" points="1089,-174.5 1089,-195.5 1205,-195.5 1205,-174.5 1089,-174.5"/>
<text text-anchor="middle" x="1147" y="-181.9" font-family="Helvetica,sans-Serif" font-size="12.00" fill="#000000">sources/CETF.cpp</text>
</a>
</g>
</g>
<!-- Node14&#45;&gt;Node16 -->
<g id="edge25" class="edge">
<title>Node14&#45;&gt;Node16</title>
<path fill="none" stroke="#191970" d="M1085.4051,-226.5407C1100.1488,-216.5973 1118.5048,-204.2177 1131.3263,-195.5707"/>
<polygon fill="#191970" stroke="#191970" points="1083.1075,-223.8687 1076.7737,-232.3619 1087.0215,-229.6722 1083.1075,-223.8687"/>
</g>
<!-- Node17&#45;&gt;Node6 -->
<g id="edge29" class="edge">
<title>Node17&#45;&gt;Node6</title>
<path fill="none" stroke="#191970" d="M854.6252,-221.8938C854.2539,-207.7093 852.1872,-188.9483 845,-174 811.2895,-103.8878 735.8066,-44.7229 703.3339,-21.5127"/>
<polygon fill="#191970" stroke="#191970" points="851.1253,-222.128 854.625,-232.1281 858.1253,-222.1282 851.1253,-222.128"/>
</g>
<!-- Node17&#45;&gt;Node8 -->
<g id="edge28" class="edge">
<title>Node17&#45;&gt;Node8</title>
<path fill="none" stroke="#191970" d="M849.5687,-222.4527C845.3324,-207.2796 837.5306,-187.074 824,-174 783.9582,-135.3094 628.5656,-97.3388 546.8614,-79.5199"/>
<polygon fill="#191970" stroke="#191970" points="846.2422,-223.5792 852.0541,-232.4377 853.0349,-221.8883 846.2422,-223.5792"/>
</g>
<!-- Node17&#45;&gt;Node15 -->
<g id="edge30" class="edge">
<title>Node17&#45;&gt;Node15</title>
<path fill="none" stroke="#191970" d="M884.3961,-227.9319C904.8481,-217.7932 931.3113,-204.6748 949.5744,-195.6212"/>
<polygon fill="#191970" stroke="#191970" points="882.5928,-224.9193 875.1878,-232.4966 885.7019,-231.1909 882.5928,-224.9193"/>
</g>
<!-- Node17&#45;&gt;Node18 -->
<g id="edge31" class="edge">
<title>Node17&#45;&gt;Node18</title>
<path fill="none" stroke="#191970" d="M826.7979,-227.379C809.2484,-217.3011 786.8915,-204.4624 771.4075,-195.5707"/>
<polygon fill="#191970" stroke="#191970" points="825.0602,-230.4171 835.475,-232.3619 828.5462,-224.3468 825.0602,-230.4171"/>
</g>
</g>
</svg>
        <g id="navigator" transform="translate(0 0)" fill="#404254">
                <rect fill="#f2f5e9" fill-opacity="0.5" stroke="#606060" stroke-width=".5" x="0" y="0" width="60" height="60"/>
                <use id="zoomplus" xlink:href="#zoomPlus" x="17" y="9" onmousedown="handleZoom(evt,'in')"/>
                <use id="zoomminus" xlink:href="#zoomMin" x="42" y="9" onmousedown="handleZoom(evt,'out')"/>
                <use id="reset" xlink:href="#resetDef" x="30" y="36" onmousedown="handleReset()"/>
                <g id="arrowUp" xlink:href="#dirArrow" transform="translate(30 24)" onmousedown="handlePan(0,-1)">
                  <use xlink:href="#rim" fill="#404040">
                        <set attributeName="fill" to="#808080" begin="arrowUp.mouseover" end="arrowUp.mouseout"/>
                  </use>
                  <path fill="none" stroke="white" stroke-width="1.5" d="M0,-3.0v7 M-2.5,-0.5L0,-3.0L2.5,-0.5"/>
                </g>
                <g id="arrowRight" xlink:href="#dirArrow" transform="rotate(90) translate(36 -43)" onmousedown="handlePan(1,0)">
                  <use xlink:href="#rim" fill="#404040">
                        <set attributeName="fill" to="#808080" begin="arrowRight.mouseover" end="arrowRight.mouseout"/>
                  </use>
                  <path fill="none" stroke="white" stroke-width="1.5" d="M0,-3.0v7 M-2.5,-0.5L0,-3.0L2.5,-0.5"/>
                </g>
                <g id="arrowDown" xlink:href="#dirArrow" transform="rotate(180) translate(-30 -48)" onmousedown="handlePan(0,1)">
                  <use xlink:href="#rim" fill="#404040">
                        <set attributeName="fill" to="#808080" begin="arrowDown.mouseover" end="arrowDown.mouseout"/>
                  </use>
                  <path fill="none" stroke="white" stroke-width="1.5" d="M0,-3.0v7 M-2.5,-0.5L0,-3.0L2.5,-0.5"/>
                </g>
                <g id="arrowLeft" xlink:href="#dirArrow" transform="rotate(270) translate(-36 17)" onmousedown="handlePan(-1,0)">
                  <use xlink:href="#rim" fill="#404040">
                        <set attributeName="fill" to="#808080" begin="arrowLeft.mouseover" end="arrowLeft.mouseout"/>
                  </use>
                  <path fill="none" stroke="white" stroke-width="1.5" d="M0,-3.0v7 M-2.5,-0.5L0,-3.0L2.5,-0.5"/>
                </g>
        </g>
        <svg viewBox="0 0 15 15" width="100%" height="30px" preserveAspectRatio="xMaxYMin meet">
         <g id="arrow_out" transform="scale(0.3 0.3)">
          <a xlink:href="CDataBase_8h__dep__incl_org.svg" target="_base">
           <rect id="button" ry="5" rx="5" y="6" x="6" height="38" width="38"
                fill="#f2f5e9" fill-opacity="0.5" stroke="#606060" stroke-width="1.0"/>
           <path id="arrow"
             d="M 11.500037,31.436501 C 11.940474,20.09759 22.043105,11.32322 32.158766,21.979434 L 37.068811,17.246167 C 37.068811,17.246167 37.088388,32 37.088388,32 L 22.160133,31.978069 C 22.160133,31.978069 26.997745,27.140456 26.997745,27.140456 C 18.528582,18.264221 13.291696,25.230495 11.500037,31.436501 z"
             style="fill:#404040;"/>
          </a>
         </g>
        </svg>
</svg>
