<?xml version="1.0" encoding="UTF-8" standalone="no"?>
<!DOCTYPE svg PUBLIC "-//W3C//DTD SVG 1.1//EN"
 "http://www.w3.org/Graphics/SVG/1.1/DTD/svg11.dtd">
<!-- Generated by graphviz version 2.40.1 (20161225.0304)
 -->
<!-- Title: CStock Pages: 1 -->
<!--zoomable 967 -->
<svg id="main" version="1.1" xmlns="http://www.w3.org/2000/svg" xmlns:xlink="http://www.w3.org/1999/xlink" xml:space="preserve" onload="init(evt)">
<style type="text/css"><![CDATA[
.edge:hover path { stroke: red; }
.edge:hover polygon { stroke: red; fill: red; }
]]></style>
<script type="text/javascript"><![CDATA[
var edges = document.getElementsByTagName('g');
if (edges && edges.length) {
  for (var i=0;i<edges.length;i++) {
    if (edges[i].id.substr(0,4)=='edge') {
      edges[i].setAttribute('class','edge');
    }
  }
}
]]></script>
        <defs>
                <circle id="rim" cx="0" cy="0" r="7"/>
                <circle id="rim2" cx="0" cy="0" r="3.5"/>
                <g id="zoomPlus">
                        <use xlink:href="#rim" fill="#404040">
                                <set attributeName="fill" to="#808080" begin="zoomplus.mouseover" end="zoomplus.mouseout"/>
                        </use>
                        <path d="M-4,0h8M0,-4v8" fill="none" stroke="white" stroke-width="1.5" pointer-events="none"/>
                </g>
                <g id="zoomMin">
                        <use xlink:href="#rim" fill="#404040">
                                <set attributeName="fill" to="#808080" begin="zoomminus.mouseover" end="zoomminus.mouseout"/>
                        </use>
                        <path d="M-4,0h8" fill="none" stroke="white" stroke-width="1.5" pointer-events="none"/>
                </g>
                <g id="dirArrow">
                        <path fill="none" stroke="white" stroke-width="1.5" d="M0,-3.0v7 M-2.5,-0.5L0,-3.0L2.5,-0.5"/>
                </g>
               <g id="resetDef">
                       <use xlink:href="#rim2" fill="#404040">
                               <set attributeName="fill" to="#808080" begin="reset.mouseover" end="reset.mouseout"/>
                       </use>
               </g>
        </defs>

<script type="text/javascript">
var viewWidth = 623;
var viewHeight = 967;
var sectionId = 'dynsection-1';
</script>
<script xlink:href="../../svgpan.js"/>
<svg id="graph" class="graph">
<g id="viewport">
<title>CStock</title>
<!-- Node1 -->
<g id="node1" class="node">
<title>Node1</title>
<g id="a_node1"><a xlink:title="This class show info about Asset &#45; Stocks, it inherited from class CAsset.">
<polygon fill="#bfbfbf" stroke="#000000" points="158.1948,-.5 158.1948,-167.5 331.1948,-167.5 331.1948,-.5 158.1948,-.5"/>
<text text-anchor="middle" x="244.6948" y="-153.9" font-family="Helvetica,sans-Serif" font-size="12.00" fill="#000000">CStock</text>
<polyline fill="none" stroke="#000000" points="158.1948,-146.5 331.1948,-146.5 "/>
<text text-anchor="middle" x="244.6948" y="-132.9" font-family="Helvetica,sans-Serif" font-size="12.00" fill="#000000"> </text>
<polyline fill="none" stroke="#000000" points="158.1948,-125.5 331.1948,-125.5 "/>
<text text-anchor="start" x="166.1948" y="-111.9" font-family="Helvetica,sans-Serif" font-size="12.00" fill="#000000">+ CStock()</text>
<text text-anchor="start" x="166.1948" y="-98.9" font-family="Helvetica,sans-Serif" font-size="12.00" fill="#000000">+ CStock()</text>
<text text-anchor="start" x="166.1948" y="-85.9" font-family="Helvetica,sans-Serif" font-size="12.00" fill="#000000">+ stockMenu()</text>
<text text-anchor="start" x="166.1948" y="-72.9" font-family="Helvetica,sans-Serif" font-size="12.00" fill="#000000">+ stockInfo()</text>
<text text-anchor="start" x="166.1948" y="-59.9" font-family="Helvetica,sans-Serif" font-size="12.00" fill="#000000">+ printAssetInfo()</text>
<text text-anchor="start" x="166.1948" y="-46.9" font-family="Helvetica,sans-Serif" font-size="12.00" fill="#000000">+ getMStrPathToGoogle()</text>
<text text-anchor="start" x="166.1948" y="-33.9" font-family="Helvetica,sans-Serif" font-size="12.00" fill="#000000">+ getMStrPathToAppl()</text>
<text text-anchor="start" x="166.1948" y="-20.9" font-family="Helvetica,sans-Serif" font-size="12.00" fill="#000000">+ getMStrPathtToAmznDate()</text>
<text text-anchor="start" x="166.1948" y="-7.9" font-family="Helvetica,sans-Serif" font-size="12.00" fill="#000000">+ ~CStock()</text>
</a>
</g>
</g>
<!-- Node2 -->
<g id="node2" class="node">
<title>Node2</title>
<g id="a_node2"><a xlink:href="../../dc/d85/classCAsset.html" target="_top" xlink:title="This class is pure virtual class and from it are inhereted those class: CPortfolio,...">
<polygon fill="none" stroke="#000000" points="263.6948,-499.5 263.6948,-692.5 427.6948,-692.5 427.6948,-499.5 263.6948,-499.5"/>
<text text-anchor="middle" x="345.6948" y="-678.9" font-family="Helvetica,sans-Serif" font-size="12.00" fill="#000000">CAsset</text>
<polyline fill="none" stroke="#000000" points="263.6948,-671.5 427.6948,-671.5 "/>
<text text-anchor="middle" x="345.6948" y="-657.9" font-family="Helvetica,sans-Serif" font-size="12.00" fill="#000000"> </text>
<polyline fill="none" stroke="#000000" points="263.6948,-650.5 427.6948,-650.5 "/>
<text text-anchor="start" x="271.6948" y="-636.9" font-family="Helvetica,sans-Serif" font-size="12.00" fill="#000000">+ CAsset()</text>
<text text-anchor="start" x="271.6948" y="-623.9" font-family="Helvetica,sans-Serif" font-size="12.00" fill="#000000">+ CAsset()</text>
<text text-anchor="start" x="271.6948" y="-610.9" font-family="Helvetica,sans-Serif" font-size="12.00" fill="#000000">+ getMStrAssetName()</text>
<text text-anchor="start" x="271.6948" y="-597.9" font-family="Helvetica,sans-Serif" font-size="12.00" fill="#000000">+ getFromBase()</text>
<text text-anchor="start" x="271.6948" y="-584.9" font-family="Helvetica,sans-Serif" font-size="12.00" fill="#000000">+ printAssetInfo()</text>
<text text-anchor="start" x="271.6948" y="-571.9" font-family="Helvetica,sans-Serif" font-size="12.00" fill="#000000">+ slice()</text>
<text text-anchor="start" x="271.6948" y="-558.9" font-family="Helvetica,sans-Serif" font-size="12.00" fill="#000000">+ returnOfAsset()</text>
<text text-anchor="start" x="271.6948" y="-545.9" font-family="Helvetica,sans-Serif" font-size="12.00" fill="#000000">+ meanOfAsset()</text>
<text text-anchor="start" x="271.6948" y="-532.9" font-family="Helvetica,sans-Serif" font-size="12.00" fill="#000000">+ returnAndMeanDiffrence()</text>
<text text-anchor="start" x="271.6948" y="-519.9" font-family="Helvetica,sans-Serif" font-size="12.00" fill="#000000">+ riskOfAsset()</text>
<text text-anchor="start" x="271.6948" y="-506.9" font-family="Helvetica,sans-Serif" font-size="12.00" fill="#000000">+ ~CAsset()</text>
</a>
</g>
</g>
<!-- Node2&#45;&gt;Node1 -->
<g id="edge1" class="edge">
<title>Node2&#45;&gt;Node1</title>
<path fill="none" stroke="#191970" d="M287.3311,-489.9793C277.8678,-468.6822 269.3347,-446.0555 263.6948,-424 241.8717,-338.6574 239.0156,-237.4804 240.4406,-167.8119"/>
<polygon fill="none" stroke="#191970" points="284.2621,-491.6858 291.5871,-499.3406 290.6345,-488.7886 284.2621,-491.6858"/>
</g>
<!-- Node7 -->
<g id="node7" class="node">
<title>Node7</title>
<g id="a_node7"><a xlink:href="../../d5/de1/classCDataBase.html" target="_top" xlink:title="This class connect with database in this program database represent the files with extension ....">
<polygon fill="none" stroke="#000000" points="272.6948,-217.5 272.6948,-423.5 418.6948,-423.5 418.6948,-217.5 272.6948,-217.5"/>
<text text-anchor="middle" x="345.6948" y="-409.9" font-family="Helvetica,sans-Serif" font-size="12.00" fill="#000000">CDataBase</text>
<polyline fill="none" stroke="#000000" points="272.6948,-402.5 418.6948,-402.5 "/>
<text text-anchor="middle" x="345.6948" y="-388.9" font-family="Helvetica,sans-Serif" font-size="12.00" fill="#000000"> </text>
<polyline fill="none" stroke="#000000" points="272.6948,-381.5 418.6948,-381.5 "/>
<text text-anchor="start" x="280.6948" y="-367.9" font-family="Helvetica,sans-Serif" font-size="12.00" fill="#000000">+ CDataBase()</text>
<text text-anchor="start" x="280.6948" y="-354.9" font-family="Helvetica,sans-Serif" font-size="12.00" fill="#000000">+ CDataBase()</text>
<text text-anchor="start" x="280.6948" y="-341.9" font-family="Helvetica,sans-Serif" font-size="12.00" fill="#000000">+ inputForETF()</text>
<text text-anchor="start" x="280.6948" y="-328.9" font-family="Helvetica,sans-Serif" font-size="12.00" fill="#000000">+ inputForStock()</text>
<text text-anchor="start" x="280.6948" y="-315.9" font-family="Helvetica,sans-Serif" font-size="12.00" fill="#000000">+ meanOfAsset()</text>
<text text-anchor="start" x="280.6948" y="-302.9" font-family="Helvetica,sans-Serif" font-size="12.00" fill="#000000">+ slice()</text>
<text text-anchor="start" x="280.6948" y="-289.9" font-family="Helvetica,sans-Serif" font-size="12.00" fill="#000000">+ returnOfAsset()</text>
<text text-anchor="start" x="280.6948" y="-276.9" font-family="Helvetica,sans-Serif" font-size="12.00" fill="#000000">+ choosePortfolio()</text>
<text text-anchor="start" x="280.6948" y="-263.9" font-family="Helvetica,sans-Serif" font-size="12.00" fill="#000000">+ getMStrToItPortfolio()</text>
<text text-anchor="start" x="280.6948" y="-250.9" font-family="Helvetica,sans-Serif" font-size="12.00" fill="#000000">+ setMStrToItPortfolio()</text>
<text text-anchor="start" x="280.6948" y="-237.9" font-family="Helvetica,sans-Serif" font-size="12.00" fill="#000000">+ getMStrToetfPortfolio()</text>
<text text-anchor="start" x="280.6948" y="-224.9" font-family="Helvetica,sans-Serif" font-size="12.00" fill="#000000">+ ~CDataBase()</text>
</a>
</g>
</g>
<!-- Node2&#45;&gt;Node7 -->
<g id="edge9" class="edge">
<title>Node2&#45;&gt;Node7</title>
<path fill="none" stroke="#404040" d="M345.6948,-499.2564C345.6948,-478.6828 345.6948,-456.7663 345.6948,-435.5851"/>
<polygon fill="none" stroke="#404040" points="345.6949,-435.562 341.6949,-429.562 345.6948,-423.562 349.6949,-429.562 345.6949,-435.562"/>
<text text-anchor="middle" x="363.6948" y="-458.4" font-family="Helvetica,sans-Serif" font-size="12.00" fill="#000000"> &#45;asset</text>
</g>
<!-- Node3 -->
<g id="node3" class="node">
<title>Node3</title>
<g id="a_node3"><a xlink:title=" ">
<polygon fill="none" stroke="#bfbfbf" points="443.1948,-781.5 443.1948,-844.5 496.1948,-844.5 496.1948,-781.5 443.1948,-781.5"/>
<text text-anchor="middle" x="469.6948" y="-830.9" font-family="Helvetica,sans-Serif" font-size="12.00" fill="#000000">double</text>
<polyline fill="none" stroke="#bfbfbf" points="443.1948,-823.5 496.1948,-823.5 "/>
<text text-anchor="middle" x="469.6948" y="-809.9" font-family="Helvetica,sans-Serif" font-size="12.00" fill="#000000"> </text>
<polyline fill="none" stroke="#bfbfbf" points="443.1948,-802.5 496.1948,-802.5 "/>
<text text-anchor="middle" x="469.6948" y="-788.9" font-family="Helvetica,sans-Serif" font-size="12.00" fill="#000000"> </text>
</a>
</g>
</g>
<!-- Node3&#45;&gt;Node2 -->
<g id="edge2" class="edge">
<title>Node3&#45;&gt;Node2</title>
<path fill="none" stroke="#404040" d="M442.9682,-792.3245C433.4526,-783.9839 423.2378,-773.7837 415.6948,-763 413.4681,-759.8167 402.5223,-734.1878 389.9236,-703.9236"/>
<polygon fill="none" stroke="#404040" points="389.8223,-703.6794 383.8271,-699.6722 385.2202,-692.5969 391.2154,-696.6042 389.8223,-703.6794"/>
<text text-anchor="middle" x="463.1948" y="-753.4" font-family="Helvetica,sans-Serif" font-size="12.00" fill="#000000"> &#45;m_dDayGain</text>
<text text-anchor="middle" x="463.1948" y="-740.4" font-family="Helvetica,sans-Serif" font-size="12.00" fill="#000000">&#45;m_dMarketValue</text>
<text text-anchor="middle" x="463.1948" y="-727.4" font-family="Helvetica,sans-Serif" font-size="12.00" fill="#000000">&#45;m_dTotalGain</text>
<text text-anchor="middle" x="463.1948" y="-714.4" font-family="Helvetica,sans-Serif" font-size="12.00" fill="#000000">&#45;m_dAmount</text>
</g>
<!-- Node3&#45;&gt;Node7 -->
<g id="edge7" class="edge">
<title>Node3&#45;&gt;Node7</title>
<path fill="none" stroke="#404040" d="M496.262,-787.3795C502.1449,-780.1137 507.5577,-771.7734 510.6948,-763 518.4763,-741.2383 514.5574,-733.7861 510.6948,-711 494.1348,-613.3085 449.3593,-510.3693 410.6249,-434.7199"/>
<polygon fill="none" stroke="#404040" points="410.4697,-434.4197 404.1607,-430.9273 404.9579,-423.7604 411.2669,-427.2527 410.4697,-434.4197"/>
<text text-anchor="middle" x="560.6948" y="-612.4" font-family="Helvetica,sans-Serif" font-size="12.00" fill="#000000"> &#45;dInstrumenAmount</text>
<text text-anchor="middle" x="560.6948" y="-599.4" font-family="Helvetica,sans-Serif" font-size="12.00" fill="#000000">&#45;dMarketValue</text>
<text text-anchor="middle" x="560.6948" y="-586.4" font-family="Helvetica,sans-Serif" font-size="12.00" fill="#000000">&#45;dTotalGain</text>
<text text-anchor="middle" x="560.6948" y="-573.4" font-family="Helvetica,sans-Serif" font-size="12.00" fill="#000000">&#45;dDayGain</text>
</g>
<!-- Node4 -->
<g id="node4" class="node">
<title>Node4</title>
<g id="a_node4"><a xlink:title=" ">
<polygon fill="none" stroke="#bfbfbf" points="265.1948,-781.5 265.1948,-844.5 294.1948,-844.5 294.1948,-781.5 265.1948,-781.5"/>
<text text-anchor="middle" x="279.6948" y="-830.9" font-family="Helvetica,sans-Serif" font-size="12.00" fill="#000000">int</text>
<polyline fill="none" stroke="#bfbfbf" points="265.1948,-823.5 294.1948,-823.5 "/>
<text text-anchor="middle" x="279.6948" y="-809.9" font-family="Helvetica,sans-Serif" font-size="12.00" fill="#000000"> </text>
<polyline fill="none" stroke="#bfbfbf" points="265.1948,-802.5 294.1948,-802.5 "/>
<text text-anchor="middle" x="279.6948" y="-788.9" font-family="Helvetica,sans-Serif" font-size="12.00" fill="#000000"> </text>
</a>
</g>
</g>
<!-- Node4&#45;&gt;Node2 -->
<g id="edge3" class="edge">
<title>Node4&#45;&gt;Node2</title>
<path fill="none" stroke="#404040" d="M275.9699,-781.1993C274.5597,-760.792 274.5455,-733.9197 280.6948,-711 281.3077,-708.7157 281.9767,-706.4289 282.6962,-704.1434"/>
<polygon fill="none" stroke="#404040" points="282.7219,-704.0701 280.931,-697.0849 286.69,-692.7451 288.4809,-699.7303 282.7219,-704.0701"/>
<text text-anchor="middle" x="336.6948" y="-733.9" font-family="Helvetica,sans-Serif" font-size="12.00" fill="#000000"> &#45;m_nPredictionDays</text>
</g>
<!-- Node5 -->
<g id="node5" class="node">
<title>Node5</title>
<g id="a_node5"><a xlink:title="STL class.">
<polygon fill="none" stroke="#bfbfbf" points="93.6948,-781.5 93.6948,-844.5 161.6948,-844.5 161.6948,-781.5 93.6948,-781.5"/>
<text text-anchor="middle" x="127.6948" y="-830.9" font-family="Helvetica,sans-Serif" font-size="12.00" fill="#000000">std::string</text>
<polyline fill="none" stroke="#bfbfbf" points="93.6948,-823.5 161.6948,-823.5 "/>
<text text-anchor="middle" x="127.6948" y="-809.9" font-family="Helvetica,sans-Serif" font-size="12.00" fill="#000000"> </text>
<polyline fill="none" stroke="#bfbfbf" points="93.6948,-802.5 161.6948,-802.5 "/>
<text text-anchor="middle" x="127.6948" y="-788.9" font-family="Helvetica,sans-Serif" font-size="12.00" fill="#000000"> </text>
</a>
</g>
</g>
<!-- Node5&#45;&gt;Node1 -->
<g id="edge10" class="edge">
<title>Node5&#45;&gt;Node1</title>
<path fill="none" stroke="#404040" d="M104.3593,-781.3543C60.1731,-717.4397 -28.0488,-568.2789 9.6948,-442 39.4342,-342.5012 106.6816,-245.0013 161.6528,-176.9406"/>
<polygon fill="none" stroke="#404040" points="161.739,-176.835 162.431,-169.6571 169.3228,-167.5352 168.6308,-174.713 161.739,-176.835"/>
<text text-anchor="middle" x="77.1948" y="-471.4" font-family="Helvetica,sans-Serif" font-size="12.00" fill="#000000"> &#45;m_strPathtToAmznDate</text>
<text text-anchor="middle" x="77.1948" y="-458.4" font-family="Helvetica,sans-Serif" font-size="12.00" fill="#000000">&#45;m_strPathToGoogle</text>
<text text-anchor="middle" x="77.1948" y="-445.4" font-family="Helvetica,sans-Serif" font-size="12.00" fill="#000000">&#45;m_strPathToAppl</text>
</g>
<!-- Node5&#45;&gt;Node2 -->
<g id="edge4" class="edge">
<title>Node5&#45;&gt;Node2</title>
<path fill="none" stroke="#404040" d="M134.8246,-781.2708C141.5805,-758.454 154.0175,-728.7017 175.6948,-711 201.912,-689.5911 220.2305,-709.6593 249.6948,-693 250.8808,-692.3295 252.0618,-691.6401 253.2377,-690.9331"/>
<polygon fill="none" stroke="#404040" points="253.6195,-690.6841 256.4584,-684.0553 263.6692,-684.1263 260.8302,-690.7551 253.6195,-690.6841"/>
<text text-anchor="middle" x="223.6948" y="-746.9" font-family="Helvetica,sans-Serif" font-size="12.00" fill="#000000"> &#45;m_strTradeDate</text>
<text text-anchor="middle" x="223.6948" y="-733.9" font-family="Helvetica,sans-Serif" font-size="12.00" fill="#000000">&#45;m_strAssetName</text>
<text text-anchor="middle" x="223.6948" y="-720.9" font-family="Helvetica,sans-Serif" font-size="12.00" fill="#000000">&#45;m_strSymbol</text>
</g>
<!-- Node5&#45;&gt;Node7 -->
<g id="edge8" class="edge">
<title>Node5&#45;&gt;Node7</title>
<path fill="none" stroke="#404040" d="M120.5362,-781.1867C108.9435,-722.178 91.6166,-593.2074 136.6948,-499 163.3107,-443.3766 216.3118,-398.4252 262.278,-367.5453"/>
<polygon fill="none" stroke="#404040" points="262.5431,-367.3712 265.3611,-360.7335 272.5721,-360.7818 269.754,-367.4195 262.5431,-367.3712"/>
<text text-anchor="middle" x="195.6948" y="-618.9" font-family="Helvetica,sans-Serif" font-size="12.00" fill="#000000"> &#45;strSymbol</text>
<text text-anchor="middle" x="195.6948" y="-605.9" font-family="Helvetica,sans-Serif" font-size="12.00" fill="#000000">&#45;strInstrumentName</text>
<text text-anchor="middle" x="195.6948" y="-592.9" font-family="Helvetica,sans-Serif" font-size="12.00" fill="#000000">&#45;m_strTOETFPortfolio</text>
<text text-anchor="middle" x="195.6948" y="-579.9" font-family="Helvetica,sans-Serif" font-size="12.00" fill="#000000">&#45;m_strToITPortfolio</text>
<text text-anchor="middle" x="195.6948" y="-566.9" font-family="Helvetica,sans-Serif" font-size="12.00" fill="#000000">&#45;strTradeDate</text>
</g>
<!-- Node6 -->
<g id="node6" class="node">
<title>Node6</title>
<g id="a_node6"><a xlink:title="STL class.">
<polygon fill="none" stroke="#bfbfbf" points="72.6948,-882.5 72.6948,-958.5 182.6948,-958.5 182.6948,-882.5 72.6948,-882.5"/>
<text text-anchor="start" x="80.6948" y="-944.9" font-family="Helvetica,sans-Serif" font-size="12.00" fill="#000000">std::basic_string&lt;</text>
<text text-anchor="middle" x="127.6948" y="-931.9" font-family="Helvetica,sans-Serif" font-size="12.00" fill="#000000"> char &gt;</text>
<polyline fill="none" stroke="#bfbfbf" points="72.6948,-924.5 182.6948,-924.5 "/>
<text text-anchor="middle" x="127.6948" y="-910.9" font-family="Helvetica,sans-Serif" font-size="12.00" fill="#000000"> </text>
<polyline fill="none" stroke="#bfbfbf" points="72.6948,-903.5 182.6948,-903.5 "/>
<text text-anchor="middle" x="127.6948" y="-889.9" font-family="Helvetica,sans-Serif" font-size="12.00" fill="#000000"> </text>
</a>
</g>
</g>
<!-- Node6&#45;&gt;Node5 -->
<g id="edge5" class="edge">
<title>Node6&#45;&gt;Node5</title>
<path fill="none" stroke="#191970" d="M127.6948,-872.2888C127.6948,-862.9337 127.6948,-853.3524 127.6948,-844.6948"/>
<polygon fill="none" stroke="#191970" points="124.1949,-872.2968 127.6948,-882.2968 131.1949,-872.2969 124.1949,-872.2968"/>
</g>
<!-- Node7&#45;&gt;Node1 -->
<g id="edge6" class="edge">
<title>Node7&#45;&gt;Node1</title>
<path fill="none" stroke="#404040" d="M301.6886,-217.4556C296.1791,-204.5548 290.5649,-191.4085 285.1139,-178.6447"/>
<polygon fill="none" stroke="#404040" points="285.0855,-178.578 279.0504,-174.6311 280.3725,-167.5422 286.4076,-171.4891 285.0855,-178.578"/>
<text text-anchor="middle" x="323.1948" y="-189.4" font-family="Helvetica,sans-Serif" font-size="12.00" fill="#000000"> &#45;dataStock</text>
</g>
</g>
</svg>
        <g id="navigator" transform="translate(0 0)" fill="#404254">
                <rect fill="#f2f5e9" fill-opacity="0.5" stroke="#606060" stroke-width=".5" x="0" y="0" width="60" height="60"/>
                <use id="zoomplus" xlink:href="#zoomPlus" x="17" y="9" onmousedown="handleZoom(evt,'in')"/>
                <use id="zoomminus" xlink:href="#zoomMin" x="42" y="9" onmousedown="handleZoom(evt,'out')"/>
                <use id="reset" xlink:href="#resetDef" x="30" y="36" onmousedown="handleReset()"/>
                <g id="arrowUp" xlink:href="#dirArrow" transform="translate(30 24)" onmousedown="handlePan(0,-1)">
                  <use xlink:href="#rim" fill="#404040">
                        <set attributeName="fill" to="#808080" begin="arrowUp.mouseover" end="arrowUp.mouseout"/>
                  </use>
                  <path fill="none" stroke="white" stroke-width="1.5" d="M0,-3.0v7 M-2.5,-0.5L0,-3.0L2.5,-0.5"/>
                </g>
                <g id="arrowRight" xlink:href="#dirArrow" transform="rotate(90) translate(36 -43)" onmousedown="handlePan(1,0)">
                  <use xlink:href="#rim" fill="#404040">
                        <set attributeName="fill" to="#808080" begin="arrowRight.mouseover" end="arrowRight.mouseout"/>
                  </use>
                  <path fill="none" stroke="white" stroke-width="1.5" d="M0,-3.0v7 M-2.5,-0.5L0,-3.0L2.5,-0.5"/>
                </g>
                <g id="arrowDown" xlink:href="#dirArrow" transform="rotate(180) translate(-30 -48)" onmousedown="handlePan(0,1)">
                  <use xlink:href="#rim" fill="#404040">
                        <set attributeName="fill" to="#808080" begin="arrowDown.mouseover" end="arrowDown.mouseout"/>
                  </use>
                  <path fill="none" stroke="white" stroke-width="1.5" d="M0,-3.0v7 M-2.5,-0.5L0,-3.0L2.5,-0.5"/>
                </g>
                <g id="arrowLeft" xlink:href="#dirArrow" transform="rotate(270) translate(-36 17)" onmousedown="handlePan(-1,0)">
                  <use xlink:href="#rim" fill="#404040">
                        <set attributeName="fill" to="#808080" begin="arrowLeft.mouseover" end="arrowLeft.mouseout"/>
                  </use>
                  <path fill="none" stroke="white" stroke-width="1.5" d="M0,-3.0v7 M-2.5,-0.5L0,-3.0L2.5,-0.5"/>
                </g>
        </g>
        <svg viewBox="0 0 15 15" width="100%" height="30px" preserveAspectRatio="xMaxYMin meet">
         <g id="arrow_out" transform="scale(0.3 0.3)">
          <a xlink:href="classCStock__coll__graph_org.svg" target="_base">
           <rect id="button" ry="5" rx="5" y="6" x="6" height="38" width="38"
                fill="#f2f5e9" fill-opacity="0.5" stroke="#606060" stroke-width="1.0"/>
           <path id="arrow"
             d="M 11.500037,31.436501 C 11.940474,20.09759 22.043105,11.32322 32.158766,21.979434 L 37.068811,17.246167 C 37.068811,17.246167 37.088388,32 37.088388,32 L 22.160133,31.978069 C 22.160133,31.978069 26.997745,27.140456 26.997745,27.140456 C 18.528582,18.264221 13.291696,25.230495 11.500037,31.436501 z"
             style="fill:#404040;"/>
          </a>
         </g>
        </svg>
</svg>
