<?xml version="1.0" encoding="UTF-8" standalone="no"?>
<!DOCTYPE svg PUBLIC "-//W3C//DTD SVG 1.1//EN"
 "http://www.w3.org/Graphics/SVG/1.1/DTD/svg11.dtd">
<!-- Generated by graphviz version 2.40.1 (20161225.0304)
 -->
<!-- Title: CETF Pages: 1 -->
<svg width="605pt" height="980pt"
 viewBox="0.00 0.00 604.84 980.00" xmlns="http://www.w3.org/2000/svg" xmlns:xlink="http://www.w3.org/1999/xlink">
<g id="graph0" class="graph" transform="scale(1 1) rotate(0) translate(4 976)">
<title>CETF</title>
<!-- Node1 -->
<g id="node1" class="node">
<title>Node1</title>
<g id="a_node1"><a xlink:title="This class show info about Asset &#45; ETF, it inherited from class CAsset.">
<polygon fill="#bfbfbf" stroke="#000000" points="152.8417,-.5 152.8417,-167.5 300.8417,-167.5 300.8417,-.5 152.8417,-.5"/>
<text text-anchor="middle" x="226.8417" y="-153.9" font-family="Helvetica,sans-Serif" font-size="12.00" fill="#000000">CETF</text>
<polyline fill="none" stroke="#000000" points="152.8417,-146.5 300.8417,-146.5 "/>
<text text-anchor="middle" x="226.8417" y="-132.9" font-family="Helvetica,sans-Serif" font-size="12.00" fill="#000000"> </text>
<polyline fill="none" stroke="#000000" points="152.8417,-125.5 300.8417,-125.5 "/>
<text text-anchor="start" x="160.8417" y="-111.9" font-family="Helvetica,sans-Serif" font-size="12.00" fill="#000000">+ CETF()</text>
<text text-anchor="start" x="160.8417" y="-98.9" font-family="Helvetica,sans-Serif" font-size="12.00" fill="#000000">+ printAssetInfo()</text>
<text text-anchor="start" x="160.8417" y="-85.9" font-family="Helvetica,sans-Serif" font-size="12.00" fill="#000000">+ etfMenu()</text>
<text text-anchor="start" x="160.8417" y="-72.9" font-family="Helvetica,sans-Serif" font-size="12.00" fill="#000000">+ etfInfo()</text>
<text text-anchor="start" x="160.8417" y="-59.9" font-family="Helvetica,sans-Serif" font-size="12.00" fill="#000000">+ getMStrPathToEtfInfo()</text>
<text text-anchor="start" x="160.8417" y="-46.9" font-family="Helvetica,sans-Serif" font-size="12.00" fill="#000000">+ getMStrPathToQqq()</text>
<text text-anchor="start" x="160.8417" y="-33.9" font-family="Helvetica,sans-Serif" font-size="12.00" fill="#000000">+ getMStrPathToIxn()</text>
<text text-anchor="start" x="160.8417" y="-20.9" font-family="Helvetica,sans-Serif" font-size="12.00" fill="#000000">+ getMStrPathToXlk()</text>
<text text-anchor="start" x="160.8417" y="-7.9" font-family="Helvetica,sans-Serif" font-size="12.00" fill="#000000">+ ~CETF()</text>
</a>
</g>
</g>
<!-- Node2 -->
<g id="node2" class="node">
<title>Node2</title>
<g id="a_node2"><a xlink:href="../../dc/d85/classCAsset.html" target="_top" xlink:title="This class is pure virtual class and from it are inhereted those class: CPortfolio,...">
<polygon fill="none" stroke="#000000" points="245.8417,-512.5 245.8417,-705.5 409.8417,-705.5 409.8417,-512.5 245.8417,-512.5"/>
<text text-anchor="middle" x="327.8417" y="-691.9" font-family="Helvetica,sans-Serif" font-size="12.00" fill="#000000">CAsset</text>
<polyline fill="none" stroke="#000000" points="245.8417,-684.5 409.8417,-684.5 "/>
<text text-anchor="middle" x="327.8417" y="-670.9" font-family="Helvetica,sans-Serif" font-size="12.00" fill="#000000"> </text>
<polyline fill="none" stroke="#000000" points="245.8417,-663.5 409.8417,-663.5 "/>
<text text-anchor="start" x="253.8417" y="-649.9" font-family="Helvetica,sans-Serif" font-size="12.00" fill="#000000">+ CAsset()</text>
<text text-anchor="start" x="253.8417" y="-636.9" font-family="Helvetica,sans-Serif" font-size="12.00" fill="#000000">+ CAsset()</text>
<text text-anchor="start" x="253.8417" y="-623.9" font-family="Helvetica,sans-Serif" font-size="12.00" fill="#000000">+ getMStrAssetName()</text>
<text text-anchor="start" x="253.8417" y="-610.9" font-family="Helvetica,sans-Serif" font-size="12.00" fill="#000000">+ getFromBase()</text>
<text text-anchor="start" x="253.8417" y="-597.9" font-family="Helvetica,sans-Serif" font-size="12.00" fill="#000000">+ printAssetInfo()</text>
<text text-anchor="start" x="253.8417" y="-584.9" font-family="Helvetica,sans-Serif" font-size="12.00" fill="#000000">+ slice()</text>
<text text-anchor="start" x="253.8417" y="-571.9" font-family="Helvetica,sans-Serif" font-size="12.00" fill="#000000">+ returnOfAsset()</text>
<text text-anchor="start" x="253.8417" y="-558.9" font-family="Helvetica,sans-Serif" font-size="12.00" fill="#000000">+ meanOfAsset()</text>
<text text-anchor="start" x="253.8417" y="-545.9" font-family="Helvetica,sans-Serif" font-size="12.00" fill="#000000">+ returnAndMeanDiffrence()</text>
<text text-anchor="start" x="253.8417" y="-532.9" font-family="Helvetica,sans-Serif" font-size="12.00" fill="#000000">+ riskOfAsset()</text>
<text text-anchor="start" x="253.8417" y="-519.9" font-family="Helvetica,sans-Serif" font-size="12.00" fill="#000000">+ ~CAsset()</text>
</a>
</g>
</g>
<!-- Node2&#45;&gt;Node1 -->
<g id="edge1" class="edge">
<title>Node2&#45;&gt;Node1</title>
<path fill="none" stroke="#191970" d="M273.1358,-503.1898C262.2499,-477.8557 252.2204,-450.4637 245.8417,-424 225.2005,-338.3639 222.1505,-237.235 223.2069,-167.6581"/>
<polygon fill="none" stroke="#191970" points="269.9624,-504.6686 277.18,-512.4248 276.3745,-501.8606 269.9624,-504.6686"/>
</g>
<!-- Node7 -->
<g id="node7" class="node">
<title>Node7</title>
<g id="a_node7"><a xlink:href="../../d5/de1/classCDataBase.html" target="_top" xlink:title="This class connect with database in this program database represent the files with extension ....">
<polygon fill="none" stroke="#000000" points="254.8417,-217.5 254.8417,-423.5 400.8417,-423.5 400.8417,-217.5 254.8417,-217.5"/>
<text text-anchor="middle" x="327.8417" y="-409.9" font-family="Helvetica,sans-Serif" font-size="12.00" fill="#000000">CDataBase</text>
<polyline fill="none" stroke="#000000" points="254.8417,-402.5 400.8417,-402.5 "/>
<text text-anchor="middle" x="327.8417" y="-388.9" font-family="Helvetica,sans-Serif" font-size="12.00" fill="#000000"> </text>
<polyline fill="none" stroke="#000000" points="254.8417,-381.5 400.8417,-381.5 "/>
<text text-anchor="start" x="262.8417" y="-367.9" font-family="Helvetica,sans-Serif" font-size="12.00" fill="#000000">+ CDataBase()</text>
<text text-anchor="start" x="262.8417" y="-354.9" font-family="Helvetica,sans-Serif" font-size="12.00" fill="#000000">+ CDataBase()</text>
<text text-anchor="start" x="262.8417" y="-341.9" font-family="Helvetica,sans-Serif" font-size="12.00" fill="#000000">+ inputForETF()</text>
<text text-anchor="start" x="262.8417" y="-328.9" font-family="Helvetica,sans-Serif" font-size="12.00" fill="#000000">+ inputForStock()</text>
<text text-anchor="start" x="262.8417" y="-315.9" font-family="Helvetica,sans-Serif" font-size="12.00" fill="#000000">+ meanOfAsset()</text>
<text text-anchor="start" x="262.8417" y="-302.9" font-family="Helvetica,sans-Serif" font-size="12.00" fill="#000000">+ slice()</text>
<text text-anchor="start" x="262.8417" y="-289.9" font-family="Helvetica,sans-Serif" font-size="12.00" fill="#000000">+ returnOfAsset()</text>
<text text-anchor="start" x="262.8417" y="-276.9" font-family="Helvetica,sans-Serif" font-size="12.00" fill="#000000">+ choosePortfolio()</text>
<text text-anchor="start" x="262.8417" y="-263.9" font-family="Helvetica,sans-Serif" font-size="12.00" fill="#000000">+ getMStrToItPortfolio()</text>
<text text-anchor="start" x="262.8417" y="-250.9" font-family="Helvetica,sans-Serif" font-size="12.00" fill="#000000">+ setMStrToItPortfolio()</text>
<text text-anchor="start" x="262.8417" y="-237.9" font-family="Helvetica,sans-Serif" font-size="12.00" fill="#000000">+ getMStrToetfPortfolio()</text>
<text text-anchor="start" x="262.8417" y="-224.9" font-family="Helvetica,sans-Serif" font-size="12.00" fill="#000000">+ ~CDataBase()</text>
</a>
</g>
</g>
<!-- Node2&#45;&gt;Node7 -->
<g id="edge9" class="edge">
<title>Node2&#45;&gt;Node7</title>
<path fill="none" stroke="#404040" d="M327.8417,-512.1311C327.8417,-487.6535 327.8417,-461.1282 327.8417,-435.8391"/>
<polygon fill="none" stroke="#404040" points="327.8418,-435.5382 323.8418,-429.5382 327.8417,-423.5382 331.8418,-429.5381 327.8418,-435.5382"/>
<text text-anchor="middle" x="345.8417" y="-464.9" font-family="Helvetica,sans-Serif" font-size="12.00" fill="#000000"> &#45;asset</text>
</g>
<!-- Node3 -->
<g id="node3" class="node">
<title>Node3</title>
<g id="a_node3"><a xlink:title=" ">
<polygon fill="none" stroke="#bfbfbf" points="425.3417,-794.5 425.3417,-857.5 478.3417,-857.5 478.3417,-794.5 425.3417,-794.5"/>
<text text-anchor="middle" x="451.8417" y="-843.9" font-family="Helvetica,sans-Serif" font-size="12.00" fill="#000000">double</text>
<polyline fill="none" stroke="#bfbfbf" points="425.3417,-836.5 478.3417,-836.5 "/>
<text text-anchor="middle" x="451.8417" y="-822.9" font-family="Helvetica,sans-Serif" font-size="12.00" fill="#000000"> </text>
<polyline fill="none" stroke="#bfbfbf" points="425.3417,-815.5 478.3417,-815.5 "/>
<text text-anchor="middle" x="451.8417" y="-801.9" font-family="Helvetica,sans-Serif" font-size="12.00" fill="#000000"> </text>
</a>
</g>
</g>
<!-- Node3&#45;&gt;Node2 -->
<g id="edge2" class="edge">
<title>Node3&#45;&gt;Node2</title>
<path fill="none" stroke="#404040" d="M425.1151,-805.3245C415.5995,-796.9839 405.3847,-786.7837 397.8417,-776 395.6151,-772.8167 384.6692,-747.1878 372.0705,-716.9236"/>
<polygon fill="none" stroke="#404040" points="371.9692,-716.6794 365.974,-712.6722 367.3671,-705.5969 373.3623,-709.6042 371.9692,-716.6794"/>
<text text-anchor="middle" x="445.3417" y="-766.4" font-family="Helvetica,sans-Serif" font-size="12.00" fill="#000000"> &#45;m_dDayGain</text>
<text text-anchor="middle" x="445.3417" y="-753.4" font-family="Helvetica,sans-Serif" font-size="12.00" fill="#000000">&#45;m_dMarketValue</text>
<text text-anchor="middle" x="445.3417" y="-740.4" font-family="Helvetica,sans-Serif" font-size="12.00" fill="#000000">&#45;m_dTotalGain</text>
<text text-anchor="middle" x="445.3417" y="-727.4" font-family="Helvetica,sans-Serif" font-size="12.00" fill="#000000">&#45;m_dAmount</text>
</g>
<!-- Node3&#45;&gt;Node7 -->
<g id="edge7" class="edge">
<title>Node3&#45;&gt;Node7</title>
<path fill="none" stroke="#404040" d="M478.4089,-800.3795C484.2918,-793.1137 489.7046,-784.7734 492.8417,-776 500.6232,-754.2383 496.7043,-746.7861 492.8417,-724 475.5061,-621.7329 429.4405,-513.3166 390.3757,-434.6467"/>
<polygon fill="none" stroke="#404040" points="390.29,-434.4755 384.0258,-430.9034 384.9137,-423.7472 391.178,-427.3192 390.29,-434.4755"/>
<text text-anchor="middle" x="542.8417" y="-625.4" font-family="Helvetica,sans-Serif" font-size="12.00" fill="#000000"> &#45;dInstrumenAmount</text>
<text text-anchor="middle" x="542.8417" y="-612.4" font-family="Helvetica,sans-Serif" font-size="12.00" fill="#000000">&#45;dMarketValue</text>
<text text-anchor="middle" x="542.8417" y="-599.4" font-family="Helvetica,sans-Serif" font-size="12.00" fill="#000000">&#45;dTotalGain</text>
<text text-anchor="middle" x="542.8417" y="-586.4" font-family="Helvetica,sans-Serif" font-size="12.00" fill="#000000">&#45;dDayGain</text>
</g>
<!-- Node4 -->
<g id="node4" class="node">
<title>Node4</title>
<g id="a_node4"><a xlink:title=" ">
<polygon fill="none" stroke="#bfbfbf" points="247.3417,-794.5 247.3417,-857.5 276.3417,-857.5 276.3417,-794.5 247.3417,-794.5"/>
<text text-anchor="middle" x="261.8417" y="-843.9" font-family="Helvetica,sans-Serif" font-size="12.00" fill="#000000">int</text>
<polyline fill="none" stroke="#bfbfbf" points="247.3417,-836.5 276.3417,-836.5 "/>
<text text-anchor="middle" x="261.8417" y="-822.9" font-family="Helvetica,sans-Serif" font-size="12.00" fill="#000000"> </text>
<polyline fill="none" stroke="#bfbfbf" points="247.3417,-815.5 276.3417,-815.5 "/>
<text text-anchor="middle" x="261.8417" y="-801.9" font-family="Helvetica,sans-Serif" font-size="12.00" fill="#000000"> </text>
</a>
</g>
</g>
<!-- Node4&#45;&gt;Node2 -->
<g id="edge3" class="edge">
<title>Node4&#45;&gt;Node2</title>
<path fill="none" stroke="#404040" d="M258.1168,-794.1993C256.7066,-773.792 256.6924,-746.9197 262.8417,-724 263.4546,-721.7157 264.1236,-719.4289 264.8431,-717.1434"/>
<polygon fill="none" stroke="#404040" points="264.8688,-717.0701 263.0779,-710.0849 268.8369,-705.7451 270.6278,-712.7303 264.8688,-717.0701"/>
<text text-anchor="middle" x="318.8417" y="-746.9" font-family="Helvetica,sans-Serif" font-size="12.00" fill="#000000"> &#45;m_nPredictionDays</text>
</g>
<!-- Node5 -->
<g id="node5" class="node">
<title>Node5</title>
<g id="a_node5"><a xlink:title="STL class.">
<polygon fill="none" stroke="#bfbfbf" points="75.8417,-794.5 75.8417,-857.5 143.8417,-857.5 143.8417,-794.5 75.8417,-794.5"/>
<text text-anchor="middle" x="109.8417" y="-843.9" font-family="Helvetica,sans-Serif" font-size="12.00" fill="#000000">std::string</text>
<polyline fill="none" stroke="#bfbfbf" points="75.8417,-836.5 143.8417,-836.5 "/>
<text text-anchor="middle" x="109.8417" y="-822.9" font-family="Helvetica,sans-Serif" font-size="12.00" fill="#000000"> </text>
<polyline fill="none" stroke="#bfbfbf" points="75.8417,-815.5 143.8417,-815.5 "/>
<text text-anchor="middle" x="109.8417" y="-801.9" font-family="Helvetica,sans-Serif" font-size="12.00" fill="#000000"> </text>
</a>
</g>
</g>
<!-- Node5&#45;&gt;Node1 -->
<g id="edge10" class="edge">
<title>Node5&#45;&gt;Node1</title>
<path fill="none" stroke="#404040" d="M89.9492,-794.037C51.4275,-728.0518 -26.494,-572.0438 9.8417,-442 37.1981,-344.0928 99.4402,-246.3022 150.2805,-177.7282"/>
<polygon fill="none" stroke="#404040" points="150.5017,-177.4326 150.8954,-170.2323 157.6933,-167.8262 157.2996,-175.0266 150.5017,-177.4326"/>
<text text-anchor="middle" x="67.3417" y="-484.4" font-family="Helvetica,sans-Serif" font-size="12.00" fill="#000000"> &#45;m_strPathToIXN</text>
<text text-anchor="middle" x="67.3417" y="-471.4" font-family="Helvetica,sans-Serif" font-size="12.00" fill="#000000">&#45;m_strPathToXLK</text>
<text text-anchor="middle" x="67.3417" y="-458.4" font-family="Helvetica,sans-Serif" font-size="12.00" fill="#000000">&#45;m_strPathToETFInfo</text>
<text text-anchor="middle" x="67.3417" y="-445.4" font-family="Helvetica,sans-Serif" font-size="12.00" fill="#000000">&#45;m_strPathToQQQ</text>
</g>
<!-- Node5&#45;&gt;Node2 -->
<g id="edge4" class="edge">
<title>Node5&#45;&gt;Node2</title>
<path fill="none" stroke="#404040" d="M116.9715,-794.2708C123.7274,-771.454 136.1644,-741.7017 157.8417,-724 184.0589,-702.5911 202.3774,-722.6593 231.8417,-706 233.0277,-705.3295 234.2088,-704.6401 235.3846,-703.9331"/>
<polygon fill="none" stroke="#404040" points="235.7664,-703.6841 238.6053,-697.0553 245.8161,-697.1263 242.9771,-703.7551 235.7664,-703.6841"/>
<text text-anchor="middle" x="205.8417" y="-759.9" font-family="Helvetica,sans-Serif" font-size="12.00" fill="#000000"> &#45;m_strTradeDate</text>
<text text-anchor="middle" x="205.8417" y="-746.9" font-family="Helvetica,sans-Serif" font-size="12.00" fill="#000000">&#45;m_strAssetName</text>
<text text-anchor="middle" x="205.8417" y="-733.9" font-family="Helvetica,sans-Serif" font-size="12.00" fill="#000000">&#45;m_strSymbol</text>
</g>
<!-- Node5&#45;&gt;Node7 -->
<g id="edge8" class="edge">
<title>Node5&#45;&gt;Node7</title>
<path fill="none" stroke="#404040" d="M102.9972,-794.3337C91.9217,-735.5669 75.4132,-606.9792 118.8417,-512 145.3428,-454.0416 198.5128,-405.7177 244.5894,-372.1119"/>
<polygon fill="none" stroke="#404040" points="244.8414,-371.9318 247.3969,-365.1887 254.6042,-364.9541 252.0487,-371.6972 244.8414,-371.9318"/>
<text text-anchor="middle" x="177.8417" y="-631.9" font-family="Helvetica,sans-Serif" font-size="12.00" fill="#000000"> &#45;strSymbol</text>
<text text-anchor="middle" x="177.8417" y="-618.9" font-family="Helvetica,sans-Serif" font-size="12.00" fill="#000000">&#45;strInstrumentName</text>
<text text-anchor="middle" x="177.8417" y="-605.9" font-family="Helvetica,sans-Serif" font-size="12.00" fill="#000000">&#45;m_strTOETFPortfolio</text>
<text text-anchor="middle" x="177.8417" y="-592.9" font-family="Helvetica,sans-Serif" font-size="12.00" fill="#000000">&#45;m_strToITPortfolio</text>
<text text-anchor="middle" x="177.8417" y="-579.9" font-family="Helvetica,sans-Serif" font-size="12.00" fill="#000000">&#45;strTradeDate</text>
</g>
<!-- Node6 -->
<g id="node6" class="node">
<title>Node6</title>
<g id="a_node6"><a xlink:title="STL class.">
<polygon fill="none" stroke="#bfbfbf" points="54.8417,-895.5 54.8417,-971.5 164.8417,-971.5 164.8417,-895.5 54.8417,-895.5"/>
<text text-anchor="start" x="62.8417" y="-957.9" font-family="Helvetica,sans-Serif" font-size="12.00" fill="#000000">std::basic_string&lt;</text>
<text text-anchor="middle" x="109.8417" y="-944.9" font-family="Helvetica,sans-Serif" font-size="12.00" fill="#000000"> char &gt;</text>
<polyline fill="none" stroke="#bfbfbf" points="54.8417,-937.5 164.8417,-937.5 "/>
<text text-anchor="middle" x="109.8417" y="-923.9" font-family="Helvetica,sans-Serif" font-size="12.00" fill="#000000"> </text>
<polyline fill="none" stroke="#bfbfbf" points="54.8417,-916.5 164.8417,-916.5 "/>
<text text-anchor="middle" x="109.8417" y="-902.9" font-family="Helvetica,sans-Serif" font-size="12.00" fill="#000000"> </text>
</a>
</g>
</g>
<!-- Node6&#45;&gt;Node5 -->
<g id="edge5" class="edge">
<title>Node6&#45;&gt;Node5</title>
<path fill="none" stroke="#191970" d="M109.8417,-885.2888C109.8417,-875.9337 109.8417,-866.3524 109.8417,-857.6948"/>
<polygon fill="none" stroke="#191970" points="106.3418,-885.2968 109.8417,-895.2968 113.3418,-885.2969 106.3418,-885.2968"/>
</g>
<!-- Node7&#45;&gt;Node1 -->
<g id="edge6" class="edge">
<title>Node7&#45;&gt;Node1</title>
<path fill="none" stroke="#404040" d="M283.8355,-217.4556C278.326,-204.5548 272.7118,-191.4085 267.2608,-178.6447"/>
<polygon fill="none" stroke="#404040" points="267.2324,-178.578 261.1973,-174.6311 262.5194,-167.5422 268.5545,-171.4891 267.2324,-178.578"/>
<text text-anchor="middle" x="297.8417" y="-189.4" font-family="Helvetica,sans-Serif" font-size="12.00" fill="#000000"> &#45;etfData</text>
</g>
</g>
</svg>
