<?xml version="1.0" encoding="UTF-8" standalone="no"?>
<!DOCTYPE svg PUBLIC "-//W3C//DTD SVG 1.1//EN"
 "http://www.w3.org/Graphics/SVG/1.1/DTD/svg11.dtd">
<!-- Generated by graphviz version 2.40.1 (20161225.0304)
 -->
<!-- Title: CReturn::optimalPortfolio Pages: 1 -->
<!--zoomable 212 -->
<svg id="main" version="1.1" xmlns="http://www.w3.org/2000/svg" xmlns:xlink="http://www.w3.org/1999/xlink" xml:space="preserve" onload="init(evt)">
<style type="text/css"><![CDATA[
.edge:hover path { stroke: red; }
.edge:hover polygon { stroke: red; fill: red; }
]]></style>
<script type="text/javascript"><![CDATA[
var edges = document.getElementsByTagName('g');
if (edges && edges.length) {
  for (var i=0;i<edges.length;i++) {
    if (edges[i].id.substr(0,4)=='edge') {
      edges[i].setAttribute('class','edge');
    }
  }
}
]]></script>
        <defs>
                <circle id="rim" cx="0" cy="0" r="7"/>
                <circle id="rim2" cx="0" cy="0" r="3.5"/>
                <g id="zoomPlus">
                        <use xlink:href="#rim" fill="#404040">
                                <set attributeName="fill" to="#808080" begin="zoomplus.mouseover" end="zoomplus.mouseout"/>
                        </use>
                        <path d="M-4,0h8M0,-4v8" fill="none" stroke="white" stroke-width="1.5" pointer-events="none"/>
                </g>
                <g id="zoomMin">
                        <use xlink:href="#rim" fill="#404040">
                                <set attributeName="fill" to="#808080" begin="zoomminus.mouseover" end="zoomminus.mouseout"/>
                        </use>
                        <path d="M-4,0h8" fill="none" stroke="white" stroke-width="1.5" pointer-events="none"/>
                </g>
                <g id="dirArrow">
                        <path fill="none" stroke="white" stroke-width="1.5" d="M0,-3.0v7 M-2.5,-0.5L0,-3.0L2.5,-0.5"/>
                </g>
               <g id="resetDef">
                       <use xlink:href="#rim2" fill="#404040">
                               <set attributeName="fill" to="#808080" begin="reset.mouseover" end="reset.mouseout"/>
                       </use>
               </g>
        </defs>

<script type="text/javascript">
var viewWidth = 1534;
var viewHeight = 212;
var sectionId = 'dynsection-2';
</script>
<script xlink:href="../../svgpan.js"/>
<svg id="graph" class="graph">
<g id="viewport">
<title>CReturn::optimalPortfolio</title>
<!-- Node1 -->
<g id="node1" class="node">
<title>Node1</title>
<g id="a_node1"><a xlink:title="Method calculate portfolio which have the biggest return with the lowest risk.">
<polygon fill="#bfbfbf" stroke="#000000" points="1375,-66.5 1375,-87.5 1526,-87.5 1526,-66.5 1375,-66.5"/>
<text text-anchor="middle" x="1450.5" y="-73.9" font-family="Helvetica,sans-Serif" font-size="12.00" fill="#000000">CReturn::optimalPortfolio</text>
</a>
</g>
</g>
<!-- Node2 -->
<g id="node2" class="node">
<title>Node2</title>
<g id="a_node2"><a xlink:href="../../d5/de1/classCDataBase.html#a06e986cfe90b12db4e651ca70f4c6949" target="_top" xlink:title="Method get and set data of ETF to database in this program database are the files and relation with t...">
<polygon fill="none" stroke="#000000" points="1183.5,-46.5 1183.5,-67.5 1335.5,-67.5 1335.5,-46.5 1183.5,-46.5"/>
<text text-anchor="middle" x="1259.5" y="-53.9" font-family="Helvetica,sans-Serif" font-size="12.00" fill="#000000">CDataBase::inputForETF</text>
</a>
</g>
</g>
<!-- Node1&#45;&gt;Node2 -->
<g id="edge1" class="edge">
<title>Node1&#45;&gt;Node2</title>
<path fill="none" stroke="#191970" d="M1364.7471,-68.0206C1355.0977,-67.0102 1345.3142,-65.9858 1335.7961,-64.9891"/>
<polygon fill="#191970" stroke="#191970" points="1364.4273,-71.5062 1374.7374,-69.0667 1365.1563,-64.5443 1364.4273,-71.5062"/>
</g>
<!-- Node7 -->
<g id="node7" class="node">
<title>Node7</title>
<g id="a_node7"><a xlink:href="../../d5/de1/classCDataBase.html#a763fc57fb5ad33e7d4ef92dd32698f34" target="_top" xlink:title="Method get and set data of Stocks to database in this program database are the files and relation wit...">
<polygon fill="none" stroke="#000000" points="1180,-105.5 1180,-126.5 1339,-126.5 1339,-105.5 1180,-105.5"/>
<text text-anchor="middle" x="1259.5" y="-112.9" font-family="Helvetica,sans-Serif" font-size="12.00" fill="#000000">CDataBase::inputForStock</text>
</a>
</g>
</g>
<!-- Node1&#45;&gt;Node7 -->
<g id="edge9" class="edge">
<title>Node1&#45;&gt;Node7</title>
<path fill="none" stroke="#191970" d="M1389.2361,-89.5094C1364.0197,-94.6583 1335.1328,-100.5566 1311.0276,-105.4787"/>
<polygon fill="#191970" stroke="#191970" points="1389.9667,-92.9325 1399.0643,-87.5026 1388.5662,-86.074 1389.9667,-92.9325"/>
</g>
<!-- Node3 -->
<g id="node3" class="node">
<title>Node3</title>
<g id="a_node3"><a xlink:href="../../d5/de1/classCDataBase.html#aa61685a913b467ab78f3a52823f15339" target="_top" xlink:title=" ">
<polygon fill="none" stroke="#000000" points="976,-66.5 976,-87.5 1144,-87.5 1144,-66.5 976,-66.5"/>
<text text-anchor="middle" x="1060" y="-73.9" font-family="Helvetica,sans-Serif" font-size="12.00" fill="#000000">CDataBase::choosePortfolio</text>
</a>
</g>
</g>
<!-- Node2&#45;&gt;Node3 -->
<g id="edge2" class="edge">
<title>Node2&#45;&gt;Node3</title>
<path fill="none" stroke="#191970" d="M1173.2618,-65.6454C1163.6281,-66.6112 1153.8231,-67.5942 1144.2152,-68.5574"/>
<polygon fill="#191970" stroke="#191970" points="1173.6227,-69.1269 1183.2237,-64.6468 1172.9244,-62.1618 1173.6227,-69.1269"/>
</g>
<!-- Node4 -->
<g id="node4" class="node">
<title>Node4</title>
<g id="a_node4"><a xlink:href="../../da/d8b/classCAdministrator.html#a834db63b1ee3b716b1e8e97a101e51de" target="_top" xlink:title="Method with while loop, switch expression and fstream library to register the administrator and can g...">
<polygon fill="none" stroke="#000000" points="79,-111.5 79,-132.5 315,-132.5 315,-111.5 79,-111.5"/>
<text text-anchor="middle" x="197" y="-118.9" font-family="Helvetica,sans-Serif" font-size="12.00" fill="#000000">CAdministrator::createAdministratorMenu</text>
</a>
</g>
</g>
<!-- Node2&#45;&gt;Node4 -->
<g id="edge3" class="edge">
<title>Node2&#45;&gt;Node4</title>
<path fill="none" stroke="#191970" d="M1204.9271,-44.2843C1127.9321,-27.4856 982.8086,0 857.5,0 857.5,0 857.5,0 642,0 474.1743,0 283.0102,-81.7049 219.101,-111.3867"/>
<polygon fill="#191970" stroke="#191970" points="1204.3587,-47.743 1214.8779,-46.4789 1205.8664,-40.9073 1204.3587,-47.743"/>
</g>
<!-- Node6 -->
<g id="node6" class="node">
<title>Node6</title>
<g id="a_node6"><a xlink:href="../../db/da6/classCBroker.html#abce158f7c4dce747c076db9e7d1cdf52" target="_top" xlink:title="This function create Broker menu through this you can register, change info about Broker.">
<polygon fill="none" stroke="#000000" points="775,-86.5 775,-107.5 940,-107.5 940,-86.5 775,-86.5"/>
<text text-anchor="middle" x="857.5" y="-93.9" font-family="Helvetica,sans-Serif" font-size="12.00" fill="#000000">CBroker::createBrokerMenu</text>
</a>
</g>
</g>
<!-- Node2&#45;&gt;Node6 -->
<g id="edge6" class="edge">
<title>Node2&#45;&gt;Node6</title>
<path fill="none" stroke="#191970" d="M1173.1299,-49.7739C1116.6602,-46.8199 1041.4973,-46.2437 976,-57 942.1464,-62.5596 904.9417,-76.4934 881.418,-86.3467"/>
<polygon fill="#191970" stroke="#191970" points="1173.2701,-53.2871 1183.4499,-50.351 1173.6609,-46.298 1173.2701,-53.2871"/>
</g>
<!-- Node4&#45;&gt;Node4 -->
<g id="edge4" class="edge">
<title>Node4&#45;&gt;Node4</title>
<path fill="none" stroke="#191970" d="M229.3758,-141.6791C227.6409,-146.9746 216.849,-151 197,-151 166.7539,-151 157.5383,-141.6531 169.3532,-132.7079"/>
<polygon fill="#191970" stroke="#191970" points="232.4061,-139.922 224.6468,-132.7079 226.2138,-143.1862 232.4061,-139.922"/>
</g>
<!-- Node5 -->
<g id="node5" class="node">
<title>Node5</title>
<g id="a_node5"><a xlink:href="../../df/d0a/main_8cpp.html#ae66f6b31b5ad750f1fe042a706a4e3d4" target="_top" xlink:title=" ">
<polygon fill="none" stroke="#000000" points="0,-111.5 0,-132.5 43,-132.5 43,-111.5 0,-111.5"/>
<text text-anchor="middle" x="21.5" y="-118.9" font-family="Helvetica,sans-Serif" font-size="12.00" fill="#000000">main</text>
</a>
</g>
</g>
<!-- Node4&#45;&gt;Node5 -->
<g id="edge5" class="edge">
<title>Node4&#45;&gt;Node5</title>
<path fill="none" stroke="#191970" d="M68.7546,-122C59.2156,-122 50.4943,-122 43.2123,-122"/>
<polygon fill="#191970" stroke="#191970" points="68.9653,-125.5001 78.9653,-122 68.9652,-118.5001 68.9653,-125.5001"/>
</g>
<!-- Node6&#45;&gt;Node4 -->
<g id="edge7" class="edge">
<title>Node6&#45;&gt;Node4</title>
<path fill="none" stroke="#191970" d="M764.7791,-100.5095C647.0677,-104.9649 443.8588,-112.6564 315.151,-117.528"/>
<polygon fill="#191970" stroke="#191970" points="764.9892,-104.0041 774.8496,-100.1283 764.7244,-97.0092 764.9892,-104.0041"/>
</g>
<!-- Node6&#45;&gt;Node5 -->
<g id="edge8" class="edge">
<title>Node6&#45;&gt;Node5</title>
<path fill="none" stroke="#191970" d="M764.7482,-96.7395C702.5763,-96.629 618.8756,-96.6037 545,-97 337.8799,-98.1111 283.0408,-66.4007 79,-102 66.818,-104.1254 53.7606,-108.4856 43.1726,-112.5939"/>
<polygon fill="#191970" stroke="#191970" points="764.9194,-100.2397 774.926,-96.7587 764.9327,-93.2397 764.9194,-100.2397"/>
</g>
<!-- Node7&#45;&gt;Node3 -->
<g id="edge10" class="edge">
<title>Node7&#45;&gt;Node3</title>
<path fill="none" stroke="#191970" d="M1195.8591,-103.5589C1169.4382,-98.3939 1139.1101,-92.4651 1113.8207,-87.5213"/>
<polygon fill="#191970" stroke="#191970" points="1195.2895,-107.0137 1205.7752,-105.4974 1196.6325,-100.1438 1195.2895,-107.0137"/>
</g>
<!-- Node7&#45;&gt;Node4 -->
<g id="edge11" class="edge">
<title>Node7&#45;&gt;Node4</title>
<path fill="none" stroke="#191970" d="M1180.2155,-127.9421C1099.2837,-139.0838 969.9379,-154 857.5,-154 857.5,-154 857.5,-154 642,-154 519.8125,-154 379.2379,-141.8491 289.3335,-132.5223"/>
<polygon fill="#191970" stroke="#191970" points="1180.9069,-131.3797 1190.329,-126.5347 1179.942,-124.4465 1180.9069,-131.3797"/>
</g>
<!-- Node7&#45;&gt;Node6 -->
<g id="edge12" class="edge">
<title>Node7&#45;&gt;Node6</title>
<path fill="none" stroke="#191970" d="M1169.2216,-111.7331C1100.5167,-108.4859 1006.7247,-104.0529 940.0135,-100.8999"/>
<polygon fill="#191970" stroke="#191970" points="1169.443,-115.2474 1179.5971,-112.2235 1169.7735,-108.2552 1169.443,-115.2474"/>
</g>
<!-- Node8 -->
<g id="node8" class="node">
<title>Node8</title>
<g id="a_node8"><a xlink:href="../../d7/d8f/classCStock.html#a0ef2eda44098e896ddb09d5d4629d7aa" target="_top" xlink:title="Method gets and sets all info about stock using switch statement, case, if, else if,...">
<polygon fill="none" stroke="#000000" points="1005.5,-182.5 1005.5,-203.5 1114.5,-203.5 1114.5,-182.5 1005.5,-182.5"/>
<text text-anchor="middle" x="1060" y="-189.9" font-family="Helvetica,sans-Serif" font-size="12.00" fill="#000000">CStock::stockInfo</text>
</a>
</g>
</g>
<!-- Node7&#45;&gt;Node8 -->
<g id="edge13" class="edge">
<title>Node7&#45;&gt;Node8</title>
<path fill="none" stroke="#191970" d="M1228.9012,-131.1287C1205.8875,-142.1733 1173.3959,-157.0643 1144,-168 1129.5967,-173.3583 1113.4835,-178.3799 1099.2516,-182.4965"/>
<polygon fill="#191970" stroke="#191970" points="1230.6709,-134.1606 1238.1472,-126.6535 1227.6213,-127.8598 1230.6709,-134.1606"/>
</g>
<!-- Node9 -->
<g id="node9" class="node">
<title>Node9</title>
<g id="a_node9"><a xlink:href="../../d9/d52/classCPortfolio.html#a1253d72b078e2ad23e28744f232a078a" target="_top" xlink:title="Mehtod set and get all information about the portfolios.">
<polygon fill="none" stroke="#000000" points="786,-182.5 786,-203.5 929,-203.5 929,-182.5 786,-182.5"/>
<text text-anchor="middle" x="857.5" y="-189.9" font-family="Helvetica,sans-Serif" font-size="12.00" fill="#000000">CPortfolio::userPortfolio</text>
</a>
</g>
</g>
<!-- Node8&#45;&gt;Node9 -->
<g id="edge14" class="edge">
<title>Node8&#45;&gt;Node9</title>
<path fill="none" stroke="#191970" d="M995.349,-193C974.2994,-193 950.8111,-193 929.2725,-193"/>
<polygon fill="#191970" stroke="#191970" points="995.4674,-196.5001 1005.4673,-193 995.4673,-189.5001 995.4674,-196.5001"/>
</g>
<!-- Node10 -->
<g id="node10" class="node">
<title>Node10</title>
<g id="a_node10"><a xlink:href="../../d1/d60/classCMyHolding.html#a2da746680d2dd9d7af60d49719b0fd37" target="_top" xlink:title="Method set and gets all information about holding of Client.">
<polygon fill="none" stroke="#000000" points="545,-182.5 545,-203.5 739,-203.5 739,-182.5 545,-182.5"/>
<text text-anchor="middle" x="642" y="-189.9" font-family="Helvetica,sans-Serif" font-size="12.00" fill="#000000">CMyHolding::createHoldingMenu</text>
</a>
</g>
</g>
<!-- Node9&#45;&gt;Node10 -->
<g id="edge15" class="edge">
<title>Node9&#45;&gt;Node10</title>
<path fill="none" stroke="#191970" d="M775.4438,-193C763.5784,-193 751.2717,-193 739.1458,-193"/>
<polygon fill="#191970" stroke="#191970" points="775.7417,-196.5001 785.7416,-193 775.7416,-189.5001 775.7417,-196.5001"/>
</g>
<!-- Node11 -->
<g id="node11" class="node">
<title>Node11</title>
<g id="a_node11"><a xlink:href="../../df/da7/classCClient.html#a1cb513868f3ae0f1130528cdaeb3fb26" target="_top" xlink:title="Method create Client menu through which you can set and get data for Client.">
<polygon fill="none" stroke="#000000" points="351,-182.5 351,-203.5 509,-203.5 509,-182.5 351,-182.5"/>
<text text-anchor="middle" x="430" y="-189.9" font-family="Helvetica,sans-Serif" font-size="12.00" fill="#000000">CClient::createClientMenu</text>
</a>
</g>
</g>
<!-- Node10&#45;&gt;Node11 -->
<g id="edge16" class="edge">
<title>Node10&#45;&gt;Node11</title>
<path fill="none" stroke="#191970" d="M534.8542,-193C526.2068,-193 517.5697,-193 509.173,-193"/>
<polygon fill="#191970" stroke="#191970" points="534.9963,-196.5001 544.9962,-193 534.9962,-189.5001 534.9963,-196.5001"/>
</g>
<!-- Node11&#45;&gt;Node4 -->
<g id="edge17" class="edge">
<title>Node11&#45;&gt;Node4</title>
<path fill="none" stroke="#191970" d="M385.6449,-179.4841C340.9207,-165.8557 272.8015,-145.0983 231.821,-132.6107"/>
<polygon fill="#191970" stroke="#191970" points="384.7832,-182.8803 395.3691,-182.4472 386.8236,-176.1843 384.7832,-182.8803"/>
</g>
<!-- Node11&#45;&gt;Node5 -->
<g id="edge18" class="edge">
<title>Node11&#45;&gt;Node5</title>
<path fill="none" stroke="#191970" d="M340.9689,-196.4134C268.4513,-196.4394 164.4554,-190.1192 79,-160 61.8465,-153.9542 44.7918,-141.6913 33.7658,-132.7255"/>
<polygon fill="#191970" stroke="#191970" points="341.0028,-199.9133 350.9873,-196.3694 340.972,-192.9134 341.0028,-199.9133"/>
</g>
</g>
</svg>
        <g id="navigator" transform="translate(0 0)" fill="#404254">
                <rect fill="#f2f5e9" fill-opacity="0.5" stroke="#606060" stroke-width=".5" x="0" y="0" width="60" height="60"/>
                <use id="zoomplus" xlink:href="#zoomPlus" x="17" y="9" onmousedown="handleZoom(evt,'in')"/>
                <use id="zoomminus" xlink:href="#zoomMin" x="42" y="9" onmousedown="handleZoom(evt,'out')"/>
                <use id="reset" xlink:href="#resetDef" x="30" y="36" onmousedown="handleReset()"/>
                <g id="arrowUp" xlink:href="#dirArrow" transform="translate(30 24)" onmousedown="handlePan(0,-1)">
                  <use xlink:href="#rim" fill="#404040">
                        <set attributeName="fill" to="#808080" begin="arrowUp.mouseover" end="arrowUp.mouseout"/>
                  </use>
                  <path fill="none" stroke="white" stroke-width="1.5" d="M0,-3.0v7 M-2.5,-0.5L0,-3.0L2.5,-0.5"/>
                </g>
                <g id="arrowRight" xlink:href="#dirArrow" transform="rotate(90) translate(36 -43)" onmousedown="handlePan(1,0)">
                  <use xlink:href="#rim" fill="#404040">
                        <set attributeName="fill" to="#808080" begin="arrowRight.mouseover" end="arrowRight.mouseout"/>
                  </use>
                  <path fill="none" stroke="white" stroke-width="1.5" d="M0,-3.0v7 M-2.5,-0.5L0,-3.0L2.5,-0.5"/>
                </g>
                <g id="arrowDown" xlink:href="#dirArrow" transform="rotate(180) translate(-30 -48)" onmousedown="handlePan(0,1)">
                  <use xlink:href="#rim" fill="#404040">
                        <set attributeName="fill" to="#808080" begin="arrowDown.mouseover" end="arrowDown.mouseout"/>
                  </use>
                  <path fill="none" stroke="white" stroke-width="1.5" d="M0,-3.0v7 M-2.5,-0.5L0,-3.0L2.5,-0.5"/>
                </g>
                <g id="arrowLeft" xlink:href="#dirArrow" transform="rotate(270) translate(-36 17)" onmousedown="handlePan(-1,0)">
                  <use xlink:href="#rim" fill="#404040">
                        <set attributeName="fill" to="#808080" begin="arrowLeft.mouseover" end="arrowLeft.mouseout"/>
                  </use>
                  <path fill="none" stroke="white" stroke-width="1.5" d="M0,-3.0v7 M-2.5,-0.5L0,-3.0L2.5,-0.5"/>
                </g>
        </g>
        <svg viewBox="0 0 15 15" width="100%" height="30px" preserveAspectRatio="xMaxYMin meet">
         <g id="arrow_out" transform="scale(0.3 0.3)">
          <a xlink:href="classCReturn_a4ae6568cb0c834cce8f257e8a82966c3_icgraph_org.svg" target="_base">
           <rect id="button" ry="5" rx="5" y="6" x="6" height="38" width="38"
                fill="#f2f5e9" fill-opacity="0.5" stroke="#606060" stroke-width="1.0"/>
           <path id="arrow"
             d="M 11.500037,31.436501 C 11.940474,20.09759 22.043105,11.32322 32.158766,21.979434 L 37.068811,17.246167 C 37.068811,17.246167 37.088388,32 37.088388,32 L 22.160133,31.978069 C 22.160133,31.978069 26.997745,27.140456 26.997745,27.140456 C 18.528582,18.264221 13.291696,25.230495 11.500037,31.436501 z"
             style="fill:#404040;"/>
          </a>
         </g>
        </svg>
</svg>
