<?xml version="1.0" encoding="UTF-8" standalone="no"?>
<!DOCTYPE svg PUBLIC "-//W3C//DTD SVG 1.1//EN"
 "http://www.w3.org/Graphics/SVG/1.1/DTD/svg11.dtd">
<!-- Generated by graphviz version 2.40.1 (20161225.0304)
 -->
<!-- Title: headers/CClient.h Pages: 1 -->
<!--zoomable 146 -->
<svg id="main" version="1.1" xmlns="http://www.w3.org/2000/svg" xmlns:xlink="http://www.w3.org/1999/xlink" xml:space="preserve" onload="init(evt)">
<style type="text/css"><![CDATA[
.edge:hover path { stroke: red; }
.edge:hover polygon { stroke: red; fill: red; }
]]></style>
<script type="text/javascript"><![CDATA[
var edges = document.getElementsByTagName('g');
if (edges && edges.length) {
  for (var i=0;i<edges.length;i++) {
    if (edges[i].id.substr(0,4)=='edge') {
      edges[i].setAttribute('class','edge');
    }
  }
}
]]></script>
        <defs>
                <circle id="rim" cx="0" cy="0" r="7"/>
                <circle id="rim2" cx="0" cy="0" r="3.5"/>
                <g id="zoomPlus">
                        <use xlink:href="#rim" fill="#404040">
                                <set attributeName="fill" to="#808080" begin="zoomplus.mouseover" end="zoomplus.mouseout"/>
                        </use>
                        <path d="M-4,0h8M0,-4v8" fill="none" stroke="white" stroke-width="1.5" pointer-events="none"/>
                </g>
                <g id="zoomMin">
                        <use xlink:href="#rim" fill="#404040">
                                <set attributeName="fill" to="#808080" begin="zoomminus.mouseover" end="zoomminus.mouseout"/>
                        </use>
                        <path d="M-4,0h8" fill="none" stroke="white" stroke-width="1.5" pointer-events="none"/>
                </g>
                <g id="dirArrow">
                        <path fill="none" stroke="white" stroke-width="1.5" d="M0,-3.0v7 M-2.5,-0.5L0,-3.0L2.5,-0.5"/>
                </g>
               <g id="resetDef">
                       <use xlink:href="#rim2" fill="#404040">
                               <set attributeName="fill" to="#808080" begin="reset.mouseover" end="reset.mouseout"/>
                       </use>
               </g>
        </defs>

<script type="text/javascript">
var viewWidth = 729;
var viewHeight = 146;
var sectionId = 'dynsection-1';
</script>
<script xlink:href="../../svgpan.js"/>
<svg id="graph" class="graph">
<g id="viewport">
<title>headers/CClient.h</title>
<!-- Node1 -->
<g id="node1" class="node">
<title>Node1</title>
<g id="a_node1"><a xlink:title=" ">
<polygon fill="#bfbfbf" stroke="#000000" points="214.5,-116.5 214.5,-137.5 327.5,-137.5 327.5,-116.5 214.5,-116.5"/>
<text text-anchor="middle" x="271" y="-123.9" font-family="Helvetica,sans-Serif" font-size="12.00" fill="#000000">headers/CClient.h</text>
</a>
</g>
</g>
<!-- Node2 -->
<g id="node2" class="node">
<title>Node2</title>
<g id="a_node2"><a xlink:href="../../d6/d5c/CAdministrator_8h.html" target="_top" xlink:title=" ">
<polygon fill="none" stroke="#000000" points="72,-58.5 72,-79.5 224,-79.5 224,-58.5 72,-58.5"/>
<text text-anchor="middle" x="148" y="-65.9" font-family="Helvetica,sans-Serif" font-size="12.00" fill="#000000">headers/CAdministrator.h</text>
</a>
</g>
</g>
<!-- Node1&#45;&gt;Node2 -->
<g id="edge1" class="edge">
<title>Node1&#45;&gt;Node2</title>
<path fill="none" stroke="#191970" d="M239.6273,-112.2064C218.0485,-102.031 189.8978,-88.7567 170.5243,-79.6212"/>
<polygon fill="#191970" stroke="#191970" points="238.188,-115.3972 248.7256,-116.4966 241.1736,-109.0658 238.188,-115.3972"/>
</g>
<!-- Node3 -->
<g id="node3" class="node">
<title>Node3</title>
<g id="a_node3"><a xlink:href="../../df/d0a/main_8cpp.html" target="_top" xlink:title=" ">
<polygon fill="none" stroke="#000000" points="182.5,-.5 182.5,-21.5 247.5,-21.5 247.5,-.5 182.5,-.5"/>
<text text-anchor="middle" x="215" y="-7.9" font-family="Helvetica,sans-Serif" font-size="12.00" fill="#000000">main.cpp</text>
</a>
</g>
</g>
<!-- Node1&#45;&gt;Node3 -->
<g id="edge9" class="edge">
<title>Node1&#45;&gt;Node3</title>
<path fill="none" stroke="#191970" d="M261.4032,-107.1208C249.4671,-82.3962 229.5225,-41.0822 220.1555,-21.6792"/>
<polygon fill="#191970" stroke="#191970" points="258.3326,-108.811 265.832,-116.2949 264.6364,-105.7678 258.3326,-108.811"/>
</g>
<!-- Node5 -->
<g id="node5" class="node">
<title>Node5</title>
<g id="a_node5"><a xlink:href="../../d1/dea/CPortfolio_8h.html" target="_top" xlink:title=" ">
<polygon fill="none" stroke="#000000" points="318,-58.5 318,-79.5 444,-79.5 444,-58.5 318,-58.5"/>
<text text-anchor="middle" x="381" y="-65.9" font-family="Helvetica,sans-Serif" font-size="12.00" fill="#000000">headers/CPortfolio.h</text>
</a>
</g>
</g>
<!-- Node1&#45;&gt;Node5 -->
<g id="edge4" class="edge">
<title>Node1&#45;&gt;Node5</title>
<path fill="none" stroke="#191970" d="M299.8389,-111.794C319.0309,-101.6746 343.7635,-88.6338 360.8563,-79.6212"/>
<polygon fill="#191970" stroke="#191970" points="298.1334,-108.7365 290.9202,-116.4966 301.3983,-114.9285 298.1334,-108.7365"/>
</g>
<!-- Node6 -->
<g id="node6" class="node">
<title>Node6</title>
<g id="a_node6"><a xlink:href="../../d8/d8c/CClient_8cpp.html" target="_top" xlink:title=" ">
<polygon fill="none" stroke="#000000" points="265.5,-.5 265.5,-21.5 390.5,-21.5 390.5,-.5 265.5,-.5"/>
<text text-anchor="middle" x="328" y="-7.9" font-family="Helvetica,sans-Serif" font-size="12.00" fill="#000000">sources/CClient.cpp</text>
</a>
</g>
</g>
<!-- Node1&#45;&gt;Node6 -->
<g id="edge10" class="edge">
<title>Node1&#45;&gt;Node6</title>
<path fill="none" stroke="#191970" d="M280.7682,-107.1208C292.9174,-82.3962 313.2182,-41.0822 322.7525,-21.6792"/>
<polygon fill="#191970" stroke="#191970" points="277.5292,-105.7763 276.2603,-116.2949 283.8117,-108.8635 277.5292,-105.7763"/>
</g>
<!-- Node2&#45;&gt;Node3 -->
<g id="edge2" class="edge">
<title>Node2&#45;&gt;Node3</title>
<path fill="none" stroke="#191970" d="M167.9952,-51.6908C179.3056,-41.8996 193.083,-29.973 202.7891,-21.5707"/>
<polygon fill="#191970" stroke="#191970" points="165.5587,-49.1706 160.2888,-58.3619 170.1402,-54.4631 165.5587,-49.1706"/>
</g>
<!-- Node4 -->
<g id="node4" class="node">
<title>Node4</title>
<g id="a_node4"><a xlink:href="../../d2/da4/CAdministrator_8cpp.html" target="_top" xlink:title=" ">
<polygon fill="none" stroke="#000000" points="0,-.5 0,-21.5 164,-21.5 164,-.5 0,-.5"/>
<text text-anchor="middle" x="82" y="-7.9" font-family="Helvetica,sans-Serif" font-size="12.00" fill="#000000">sources/CAdministrator.cpp</text>
</a>
</g>
</g>
<!-- Node2&#45;&gt;Node4 -->
<g id="edge3" class="edge">
<title>Node2&#45;&gt;Node4</title>
<path fill="none" stroke="#191970" d="M128.3033,-51.6908C117.1616,-41.8996 103.5899,-29.973 94.0287,-21.5707"/>
<polygon fill="#191970" stroke="#191970" points="126.0725,-54.3898 135.8946,-58.3619 130.6933,-49.1316 126.0725,-54.3898"/>
</g>
<!-- Node5&#45;&gt;Node3 -->
<g id="edge5" class="edge">
<title>Node5&#45;&gt;Node3</title>
<path fill="none" stroke="#191970" d="M341.344,-55.1443C311.8035,-44.8229 272.0809,-30.9439 245.1177,-21.5231"/>
<polygon fill="#191970" stroke="#191970" points="340.3438,-58.5023 350.9387,-58.4966 342.6528,-51.894 340.3438,-58.5023"/>
</g>
<!-- Node5&#45;&gt;Node6 -->
<g id="edge6" class="edge">
<title>Node5&#45;&gt;Node6</title>
<path fill="none" stroke="#191970" d="M364.3963,-50.8299C355.6037,-41.2078 345.1137,-29.7282 337.6594,-21.5707"/>
<polygon fill="#191970" stroke="#191970" points="361.9495,-53.3408 371.279,-58.3619 367.117,-48.6188 361.9495,-53.3408"/>
</g>
<!-- Node7 -->
<g id="node7" class="node">
<title>Node7</title>
<g id="a_node7"><a xlink:href="../../d0/dce/CMyHoldings_8cpp.html" target="_top" xlink:title=" ">
<polygon fill="none" stroke="#000000" points="563.5,-.5 563.5,-21.5 720.5,-21.5 720.5,-.5 563.5,-.5"/>
<text text-anchor="middle" x="642" y="-7.9" font-family="Helvetica,sans-Serif" font-size="12.00" fill="#000000">sources/CMyHoldings.cpp</text>
</a>
</g>
</g>
<!-- Node5&#45;&gt;Node7 -->
<g id="edge7" class="edge">
<title>Node5&#45;&gt;Node7</title>
<path fill="none" stroke="#191970" d="M438.2686,-56.2737C485.1532,-45.8548 550.6856,-31.2921 594.6462,-21.5231"/>
<polygon fill="#191970" stroke="#191970" points="437.2677,-52.9106 428.2651,-58.4966 438.7863,-59.7439 437.2677,-52.9106"/>
</g>
<!-- Node8 -->
<g id="node8" class="node">
<title>Node8</title>
<g id="a_node8"><a xlink:href="../../d8/dbf/CPortfolio_8cpp.html" target="_top" xlink:title=" ">
<polygon fill="none" stroke="#000000" points="408.5,-.5 408.5,-21.5 545.5,-21.5 545.5,-.5 408.5,-.5"/>
<text text-anchor="middle" x="477" y="-7.9" font-family="Helvetica,sans-Serif" font-size="12.00" fill="#000000">sources/CPortfolio.cpp</text>
</a>
</g>
</g>
<!-- Node5&#45;&gt;Node8 -->
<g id="edge8" class="edge">
<title>Node5&#45;&gt;Node8</title>
<path fill="none" stroke="#191970" d="M407.3157,-53.1009C423.9255,-43.0658 444.9214,-30.3808 459.5037,-21.5707"/>
<polygon fill="#191970" stroke="#191970" points="405.3571,-50.195 398.6079,-58.3619 408.977,-56.1864 405.3571,-50.195"/>
</g>
</g>
</svg>
        <g id="navigator" transform="translate(0 0)" fill="#404254">
                <rect fill="#f2f5e9" fill-opacity="0.5" stroke="#606060" stroke-width=".5" x="0" y="0" width="60" height="60"/>
                <use id="zoomplus" xlink:href="#zoomPlus" x="17" y="9" onmousedown="handleZoom(evt,'in')"/>
                <use id="zoomminus" xlink:href="#zoomMin" x="42" y="9" onmousedown="handleZoom(evt,'out')"/>
                <use id="reset" xlink:href="#resetDef" x="30" y="36" onmousedown="handleReset()"/>
                <g id="arrowUp" xlink:href="#dirArrow" transform="translate(30 24)" onmousedown="handlePan(0,-1)">
                  <use xlink:href="#rim" fill="#404040">
                        <set attributeName="fill" to="#808080" begin="arrowUp.mouseover" end="arrowUp.mouseout"/>
                  </use>
                  <path fill="none" stroke="white" stroke-width="1.5" d="M0,-3.0v7 M-2.5,-0.5L0,-3.0L2.5,-0.5"/>
                </g>
                <g id="arrowRight" xlink:href="#dirArrow" transform="rotate(90) translate(36 -43)" onmousedown="handlePan(1,0)">
                  <use xlink:href="#rim" fill="#404040">
                        <set attributeName="fill" to="#808080" begin="arrowRight.mouseover" end="arrowRight.mouseout"/>
                  </use>
                  <path fill="none" stroke="white" stroke-width="1.5" d="M0,-3.0v7 M-2.5,-0.5L0,-3.0L2.5,-0.5"/>
                </g>
                <g id="arrowDown" xlink:href="#dirArrow" transform="rotate(180) translate(-30 -48)" onmousedown="handlePan(0,1)">
                  <use xlink:href="#rim" fill="#404040">
                        <set attributeName="fill" to="#808080" begin="arrowDown.mouseover" end="arrowDown.mouseout"/>
                  </use>
                  <path fill="none" stroke="white" stroke-width="1.5" d="M0,-3.0v7 M-2.5,-0.5L0,-3.0L2.5,-0.5"/>
                </g>
                <g id="arrowLeft" xlink:href="#dirArrow" transform="rotate(270) translate(-36 17)" onmousedown="handlePan(-1,0)">
                  <use xlink:href="#rim" fill="#404040">
                        <set attributeName="fill" to="#808080" begin="arrowLeft.mouseover" end="arrowLeft.mouseout"/>
                  </use>
                  <path fill="none" stroke="white" stroke-width="1.5" d="M0,-3.0v7 M-2.5,-0.5L0,-3.0L2.5,-0.5"/>
                </g>
        </g>
        <svg viewBox="0 0 15 15" width="100%" height="30px" preserveAspectRatio="xMaxYMin meet">
         <g id="arrow_out" transform="scale(0.3 0.3)">
          <a xlink:href="CClient_8h__dep__incl_org.svg" target="_base">
           <rect id="button" ry="5" rx="5" y="6" x="6" height="38" width="38"
                fill="#f2f5e9" fill-opacity="0.5" stroke="#606060" stroke-width="1.0"/>
           <path id="arrow"
             d="M 11.500037,31.436501 C 11.940474,20.09759 22.043105,11.32322 32.158766,21.979434 L 37.068811,17.246167 C 37.068811,17.246167 37.088388,32 37.088388,32 L 22.160133,31.978069 C 22.160133,31.978069 26.997745,27.140456 26.997745,27.140456 C 18.528582,18.264221 13.291696,25.230495 11.500037,31.436501 z"
             style="fill:#404040;"/>
          </a>
         </g>
        </svg>
</svg>
