<?xml version="1.0" encoding="UTF-8" standalone="no"?>
<!DOCTYPE svg PUBLIC "-//W3C//DTD SVG 1.1//EN"
 "http://www.w3.org/Graphics/SVG/1.1/DTD/svg11.dtd">
<!-- Generated by graphviz version 2.40.1 (20161225.0304)
 -->
<!-- Title: CAdministrator::setMStrNameOfAdministrator Pages: 1 -->
<svg width="534pt" height="55pt"
 viewBox="0.00 0.00 534.00 54.50" xmlns="http://www.w3.org/2000/svg" xmlns:xlink="http://www.w3.org/1999/xlink">
<g id="graph0" class="graph" transform="scale(1 1) rotate(0) translate(4 50.5)">
<title>CAdministrator::setMStrNameOfAdministrator</title>
<!-- Node1 -->
<g id="node1" class="node">
<title>Node1</title>
<g id="a_node1"><a xlink:title="Method sets name for object of this class.">
<polygon fill="#bfbfbf" stroke="#000000" points="351,-.5 351,-34.5 526,-34.5 526,-.5 351,-.5"/>
<text text-anchor="start" x="359" y="-20.9" font-family="Helvetica,sans-Serif" font-size="12.00" fill="#000000">CAdministrator::setMStrName</text>
<text text-anchor="middle" x="438.5" y="-7.9" font-family="Helvetica,sans-Serif" font-size="12.00" fill="#000000">OfAdministrator</text>
</a>
</g>
</g>
<!-- Node2 -->
<g id="node2" class="node">
<title>Node2</title>
<g id="a_node2"><a xlink:href="../../da/d8b/classCAdministrator.html#a834db63b1ee3b716b1e8e97a101e51de" target="_top" xlink:title="Method with while loop, switch expression and fstream library to register the administrator and can g...">
<polygon fill="none" stroke="#000000" points="79,-7 79,-28 315,-28 315,-7 79,-7"/>
<text text-anchor="middle" x="197" y="-14.4" font-family="Helvetica,sans-Serif" font-size="12.00" fill="#000000">CAdministrator::createAdministratorMenu</text>
</a>
</g>
</g>
<!-- Node1&#45;&gt;Node2 -->
<g id="edge1" class="edge">
<title>Node1&#45;&gt;Node2</title>
<path fill="none" stroke="#191970" d="M340.8046,-17.5C332.3972,-17.5 323.8349,-17.5 315.289,-17.5"/>
<polygon fill="#191970" stroke="#191970" points="340.9715,-21.0001 350.9715,-17.5 340.9715,-14.0001 340.9715,-21.0001"/>
</g>
<!-- Node2&#45;&gt;Node2 -->
<g id="edge2" class="edge">
<title>Node2&#45;&gt;Node2</title>
<path fill="none" stroke="#191970" d="M229.3758,-37.1791C227.6409,-42.4746 216.849,-46.5 197,-46.5 166.7539,-46.5 157.5383,-37.1531 169.3532,-28.2079"/>
<polygon fill="#191970" stroke="#191970" points="232.4061,-35.422 224.6468,-28.2079 226.2138,-38.6862 232.4061,-35.422"/>
</g>
<!-- Node3 -->
<g id="node3" class="node">
<title>Node3</title>
<g id="a_node3"><a xlink:href="../../df/d0a/main_8cpp.html#ae66f6b31b5ad750f1fe042a706a4e3d4" target="_top" xlink:title=" ">
<polygon fill="none" stroke="#000000" points="0,-7 0,-28 43,-28 43,-7 0,-7"/>
<text text-anchor="middle" x="21.5" y="-14.4" font-family="Helvetica,sans-Serif" font-size="12.00" fill="#000000">main</text>
</a>
</g>
</g>
<!-- Node2&#45;&gt;Node3 -->
<g id="edge3" class="edge">
<title>Node2&#45;&gt;Node3</title>
<path fill="none" stroke="#191970" d="M68.7546,-17.5C59.2156,-17.5 50.4943,-17.5 43.2123,-17.5"/>
<polygon fill="#191970" stroke="#191970" points="68.9653,-21.0001 78.9653,-17.5 68.9652,-14.0001 68.9653,-21.0001"/>
</g>
</g>
</svg>
