<?xml version="1.0" encoding="UTF-8" standalone="no"?>
<!DOCTYPE svg PUBLIC "-//W3C//DTD SVG 1.1//EN"
 "http://www.w3.org/Graphics/SVG/1.1/DTD/svg11.dtd">
<!-- Generated by graphviz version 2.40.1 (20161225.0304)
 -->
<!-- Title: CAdministrator::createAdministratorMenu Pages: 1 -->
<svg width="323pt" height="48pt"
 viewBox="0.00 0.00 323.00 48.00" xmlns="http://www.w3.org/2000/svg" xmlns:xlink="http://www.w3.org/1999/xlink">
<g id="graph0" class="graph" transform="scale(1 1) rotate(0) translate(4 44)">
<title>CAdministrator::createAdministratorMenu</title>
<!-- Node1 -->
<g id="node1" class="node">
<title>Node1</title>
<g id="a_node1"><a xlink:title="Method with while loop, switch expression and fstream library to register the administrator and can g...">
<polygon fill="#bfbfbf" stroke="#000000" points="79,-.5 79,-21.5 315,-21.5 315,-.5 79,-.5"/>
<text text-anchor="middle" x="197" y="-7.9" font-family="Helvetica,sans-Serif" font-size="12.00" fill="#000000">CAdministrator::createAdministratorMenu</text>
</a>
</g>
</g>
<!-- Node1&#45;&gt;Node1 -->
<g id="edge1" class="edge">
<title>Node1&#45;&gt;Node1</title>
<path fill="none" stroke="#191970" d="M229.3758,-30.6791C227.6409,-35.9746 216.849,-40 197,-40 166.7539,-40 157.5383,-30.6531 169.3532,-21.7079"/>
<polygon fill="#191970" stroke="#191970" points="232.4061,-28.922 224.6468,-21.7079 226.2138,-32.1862 232.4061,-28.922"/>
</g>
<!-- Node2 -->
<g id="node2" class="node">
<title>Node2</title>
<g id="a_node2"><a xlink:href="../../df/d0a/main_8cpp.html#ae66f6b31b5ad750f1fe042a706a4e3d4" target="_top" xlink:title=" ">
<polygon fill="none" stroke="#000000" points="0,-.5 0,-21.5 43,-21.5 43,-.5 0,-.5"/>
<text text-anchor="middle" x="21.5" y="-7.9" font-family="Helvetica,sans-Serif" font-size="12.00" fill="#000000">main</text>
</a>
</g>
</g>
<!-- Node1&#45;&gt;Node2 -->
<g id="edge2" class="edge">
<title>Node1&#45;&gt;Node2</title>
<path fill="none" stroke="#191970" d="M68.7546,-11C59.2156,-11 50.4943,-11 43.2123,-11"/>
<polygon fill="#191970" stroke="#191970" points="68.9653,-14.5001 78.9653,-11 68.9652,-7.5001 68.9653,-14.5001"/>
</g>
</g>
</svg>
