<?xml version="1.0" encoding="UTF-8" standalone="no"?>
<!DOCTYPE svg PUBLIC "-//W3C//DTD SVG 1.1//EN"
 "http://www.w3.org/Graphics/SVG/1.1/DTD/svg11.dtd">
<!-- Generated by graphviz version 2.40.1 (20161225.0304)
 -->
<!-- Title: headers/interface.h Pages: 1 -->
<!--zoomable 371 -->
<svg id="main" version="1.1" xmlns="http://www.w3.org/2000/svg" xmlns:xlink="http://www.w3.org/1999/xlink" xml:space="preserve" onload="init(evt)">
<style type="text/css"><![CDATA[
.edge:hover path { stroke: red; }
.edge:hover polygon { stroke: red; fill: red; }
]]></style>
<script type="text/javascript"><![CDATA[
var edges = document.getElementsByTagName('g');
if (edges && edges.length) {
  for (var i=0;i<edges.length;i++) {
    if (edges[i].id.substr(0,4)=='edge') {
      edges[i].setAttribute('class','edge');
    }
  }
}
]]></script>
        <defs>
                <circle id="rim" cx="0" cy="0" r="7"/>
                <circle id="rim2" cx="0" cy="0" r="3.5"/>
                <g id="zoomPlus">
                        <use xlink:href="#rim" fill="#404040">
                                <set attributeName="fill" to="#808080" begin="zoomplus.mouseover" end="zoomplus.mouseout"/>
                        </use>
                        <path d="M-4,0h8M0,-4v8" fill="none" stroke="white" stroke-width="1.5" pointer-events="none"/>
                </g>
                <g id="zoomMin">
                        <use xlink:href="#rim" fill="#404040">
                                <set attributeName="fill" to="#808080" begin="zoomminus.mouseover" end="zoomminus.mouseout"/>
                        </use>
                        <path d="M-4,0h8" fill="none" stroke="white" stroke-width="1.5" pointer-events="none"/>
                </g>
                <g id="dirArrow">
                        <path fill="none" stroke="white" stroke-width="1.5" d="M0,-3.0v7 M-2.5,-0.5L0,-3.0L2.5,-0.5"/>
                </g>
               <g id="resetDef">
                       <use xlink:href="#rim2" fill="#404040">
                               <set attributeName="fill" to="#808080" begin="reset.mouseover" end="reset.mouseout"/>
                       </use>
               </g>
        </defs>

<script type="text/javascript">
var viewWidth = 677;
var viewHeight = 371;
var sectionId = 'dynsection-0';
</script>
<script xlink:href="../../svgpan.js"/>
<svg id="graph" class="graph">
<g id="viewport">
<title>headers/interface.h</title>
<!-- Node1 -->
<g id="node1" class="node">
<title>Node1</title>
<g id="a_node1"><a xlink:title=" ">
<polygon fill="#bfbfbf" stroke="#000000" points="220.098,-342.5 220.098,-362.5 321.681,-362.5 321.681,-342.5 220.098,-342.5"/>
<text text-anchor="middle" x="270.8895" y="-349.5" font-family="Helvetica,sans-Serif" font-size="10.00" fill="#000000">headers/interface.h</text>
</a>
</g>
</g>
<!-- Node2 -->
<g id="node2" class="node">
<title>Node2</title>
<g id="a_node2"><a xlink:title=" ">
<polygon fill="none" stroke="#bfbfbf" points="231.723,-57.5 231.723,-77.5 286.056,-77.5 286.056,-57.5 231.723,-57.5"/>
<text text-anchor="middle" x="258.8895" y="-64.5" font-family="Helvetica,sans-Serif" font-size="10.00" fill="#000000">iostream</text>
</a>
</g>
</g>
<!-- Node1&#45;&gt;Node2 -->
<g id="edge1" class="edge">
<title>Node1&#45;&gt;Node2</title>
<path fill="none" stroke="#191970" d="M256.432,-342.3849C232.652,-324.432 187.8895,-284.5255 187.8895,-238.5 187.8895,-238.5 187.8895,-238.5 187.8895,-181.5 187.8895,-142.4242 218.3175,-105.6539 239.3343,-84.917"/>
<polygon fill="#191970" stroke="#191970" points="242.0049,-87.2076 246.8453,-77.783 237.1842,-82.1321 242.0049,-87.2076"/>
</g>
<!-- Node3 -->
<g id="node3" class="node">
<title>Node3</title>
<g id="a_node3"><a xlink:href="../../d1/dea/CPortfolio_8h.html" target="_top" xlink:title=" ">
<polygon fill="none" stroke="#000000" points="320.7755,-285.5 320.7755,-305.5 389.0035,-305.5 389.0035,-285.5 320.7755,-285.5"/>
<text text-anchor="middle" x="354.8895" y="-292.5" font-family="Helvetica,sans-Serif" font-size="10.00" fill="#000000">CPortfolio.h</text>
</a>
</g>
</g>
<!-- Node1&#45;&gt;Node3 -->
<g id="edge2" class="edge">
<title>Node1&#45;&gt;Node3</title>
<path fill="none" stroke="#191970" d="M285.907,-342.3095C298.5687,-333.7177 316.9042,-321.2758 331.4895,-311.3786"/>
<polygon fill="#191970" stroke="#191970" points="333.6925,-314.1135 340.002,-305.6022 329.762,-308.3211 333.6925,-314.1135"/>
</g>
<!-- Node4 -->
<g id="node4" class="node">
<title>Node4</title>
<g id="a_node4"><a xlink:title=" ">
<polygon fill="none" stroke="#bfbfbf" points="358.667,-.5 358.667,-20.5 399.112,-20.5 399.112,-.5 358.667,-.5"/>
<text text-anchor="middle" x="378.8895" y="-7.5" font-family="Helvetica,sans-Serif" font-size="10.00" fill="#000000">string</text>
</a>
</g>
</g>
<!-- Node3&#45;&gt;Node4 -->
<g id="edge3" class="edge">
<title>Node3&#45;&gt;Node4</title>
<path fill="none" stroke="#191970" d="M389.2666,-294.5886C458.421,-292.0524 610.9903,-282.6879 648.8895,-249 672.1832,-228.2946 667.8895,-212.6658 667.8895,-181.5 667.8895,-181.5 667.8895,-181.5 667.8895,-124.5 667.8895,-79.3233 632.1557,-77.4835 591.8895,-57 531.8659,-26.4658 452.3895,-15.9135 409.4935,-12.317"/>
<polygon fill="#191970" stroke="#191970" points="409.6481,-8.8187 399.41,-11.5446 409.1134,-15.7982 409.6481,-8.8187"/>
</g>
<!-- Node5 -->
<g id="node5" class="node">
<title>Node5</title>
<g id="a_node5"><a xlink:href="../../d7/d79/CAsset_8h.html" target="_top" xlink:title=" ">
<polygon fill="none" stroke="#000000" points="374.6075,-171.5 374.6075,-191.5 431.1715,-191.5 431.1715,-171.5 374.6075,-171.5"/>
<text text-anchor="middle" x="402.8895" y="-178.5" font-family="Helvetica,sans-Serif" font-size="10.00" fill="#000000">CAsset.h</text>
</a>
</g>
</g>
<!-- Node3&#45;&gt;Node5 -->
<g id="edge4" class="edge">
<title>Node3&#45;&gt;Node5</title>
<path fill="none" stroke="#191970" d="M364.4183,-285.2368C372.1745,-276.3181 382.801,-262.71 388.8895,-249 395.5685,-233.9601 399.1116,-215.6035 400.9607,-201.8319"/>
<polygon fill="#191970" stroke="#191970" points="404.4816,-201.85 402.1471,-191.5156 397.5274,-201.0502 404.4816,-201.85"/>
</g>
<!-- Node6 -->
<g id="node6" class="node">
<title>Node6</title>
<g id="a_node6"><a xlink:href="../../dd/d85/CDataBase_8h.html" target="_top" xlink:title=" ">
<polygon fill="none" stroke="#000000" points="345.1595,-114.5 345.1595,-134.5 420.6195,-134.5 420.6195,-114.5 345.1595,-114.5"/>
<text text-anchor="middle" x="382.8895" y="-121.5" font-family="Helvetica,sans-Serif" font-size="10.00" fill="#000000">CDataBase.h</text>
</a>
</g>
</g>
<!-- Node3&#45;&gt;Node6 -->
<g id="edge33" class="edge">
<title>Node3&#45;&gt;Node6</title>
<path fill="none" stroke="#191970" d="M344.2949,-285.1672C336.1304,-276.413 325.4846,-263.0697 320.8895,-249 317.9919,-240.1279 318.4013,-236.9956 320.8895,-228 329.9448,-195.2623 352.4062,-162.4695 367.6559,-142.8278"/>
<polygon fill="#191970" stroke="#191970" points="370.5793,-144.7756 374.0809,-134.7761 365.1078,-140.4094 370.5793,-144.7756"/>
</g>
<!-- Node10 -->
<g id="node10" class="node">
<title>Node10</title>
<g id="a_node10"><a xlink:href="../../dd/d2c/CClient_8h.html" target="_top" xlink:title=" ">
<polygon fill="none" stroke="#000000" points="216.334,-228.5 216.334,-248.5 273.445,-248.5 273.445,-228.5 216.334,-228.5"/>
<text text-anchor="middle" x="244.8895" y="-235.5" font-family="Helvetica,sans-Serif" font-size="10.00" fill="#000000">CClient.h</text>
</a>
</g>
</g>
<!-- Node3&#45;&gt;Node10 -->
<g id="edge13" class="edge">
<title>Node3&#45;&gt;Node10</title>
<path fill="none" stroke="#191970" d="M335.4769,-285.4408C318.3036,-276.5419 293.0181,-263.4394 273.5226,-253.3371"/>
<polygon fill="#191970" stroke="#191970" points="274.9671,-250.1437 264.478,-248.6504 271.7465,-256.3589 274.9671,-250.1437"/>
</g>
<!-- Node12 -->
<g id="node12" class="node">
<title>Node12</title>
<g id="a_node12"><a xlink:href="../../df/dca/CMyHoldings_8h.html" target="_top" xlink:title=" ">
<polygon fill="none" stroke="#000000" points="0,-171.5 0,-191.5 83.779,-191.5 83.779,-171.5 0,-171.5"/>
<text text-anchor="middle" x="41.8895" y="-178.5" font-family="Helvetica,sans-Serif" font-size="10.00" fill="#000000">CMyHoldings.h</text>
</a>
</g>
</g>
<!-- Node3&#45;&gt;Node12 -->
<g id="edge34" class="edge">
<title>Node3&#45;&gt;Node12</title>
<path fill="none" stroke="#191970" d="M320.3502,-292.2033C259.2859,-285.8954 135.1831,-270.782 97.8895,-249 78.0726,-237.4256 62.1792,-216.083 52.4583,-200.4862"/>
<polygon fill="#191970" stroke="#191970" points="55.3338,-198.4732 47.2234,-191.6561 49.3124,-202.043 55.3338,-198.4732"/>
</g>
<!-- Node13 -->
<g id="node13" class="node">
<title>Node13</title>
<g id="a_node13"><a xlink:href="../../df/d1a/CBroker_8h.html" target="_top" xlink:title=" ">
<polygon fill="none" stroke="#000000" points="60.3885,-114.5 60.3885,-134.5 121.3905,-134.5 121.3905,-114.5 60.3885,-114.5"/>
<text text-anchor="middle" x="90.8895" y="-121.5" font-family="Helvetica,sans-Serif" font-size="10.00" fill="#000000">CBroker.h</text>
</a>
</g>
</g>
<!-- Node3&#45;&gt;Node13 -->
<g id="edge30" class="edge">
<title>Node3&#45;&gt;Node13</title>
<path fill="none" stroke="#191970" d="M320.7496,-289.9553C289.3108,-283.6952 242.3156,-271.3376 206.8895,-249 161.7344,-220.5278 122.5314,-170.222 103.3748,-143.0898"/>
<polygon fill="#191970" stroke="#191970" points="106.0243,-140.7676 97.458,-134.5331 100.2668,-144.7488 106.0243,-140.7676"/>
</g>
<!-- Node14 -->
<g id="node14" class="node">
<title>Node14</title>
<g id="a_node14"><a xlink:href="../../d2/d2d/CStock_8h.html" target="_top" xlink:title=" ">
<polygon fill="none" stroke="#000000" points="583.6075,-228.5 583.6075,-248.5 640.1715,-248.5 640.1715,-228.5 583.6075,-228.5"/>
<text text-anchor="middle" x="611.8895" y="-235.5" font-family="Helvetica,sans-Serif" font-size="10.00" fill="#000000">CStock.h</text>
</a>
</g>
</g>
<!-- Node3&#45;&gt;Node14 -->
<g id="edge24" class="edge">
<title>Node3&#45;&gt;Node14</title>
<path fill="none" stroke="#191970" d="M389.3509,-288.972C430.8499,-280.9456 502.8649,-266.4915 573.3286,-249.2802"/>
<polygon fill="#191970" stroke="#191970" points="574.3855,-252.6245 583.2577,-246.8336 572.7108,-245.8278 574.3855,-252.6245"/>
</g>
<!-- Node16 -->
<g id="node16" class="node">
<title>Node16</title>
<g id="a_node16"><a xlink:href="../../dc/d09/CETF_8h.html" target="_top" xlink:title=" ">
<polygon fill="none" stroke="#000000" points="329.6675,-228.5 329.6675,-248.5 380.1115,-248.5 380.1115,-228.5 329.6675,-228.5"/>
<text text-anchor="middle" x="354.8895" y="-235.5" font-family="Helvetica,sans-Serif" font-size="10.00" fill="#000000">CETF.h</text>
</a>
</g>
</g>
<!-- Node3&#45;&gt;Node16 -->
<g id="edge28" class="edge">
<title>Node3&#45;&gt;Node16</title>
<path fill="none" stroke="#191970" d="M354.8895,-285.3095C354.8895,-277.9335 354.8895,-267.72 354.8895,-258.715"/>
<polygon fill="#191970" stroke="#191970" points="358.3896,-258.6022 354.8895,-248.6022 351.3896,-258.6023 358.3896,-258.6022"/>
</g>
<!-- Node17 -->
<g id="node17" class="node">
<title>Node17</title>
<g id="a_node17"><a xlink:href="../../d2/d92/CRisk_8h.html" target="_top" xlink:title=" ">
<polygon fill="none" stroke="#000000" points="435.392,-228.5 435.392,-248.5 486.387,-248.5 486.387,-228.5 435.392,-228.5"/>
<text text-anchor="middle" x="460.8895" y="-235.5" font-family="Helvetica,sans-Serif" font-size="10.00" fill="#000000">CRisk.h</text>
</a>
</g>
</g>
<!-- Node3&#45;&gt;Node17 -->
<g id="edge31" class="edge">
<title>Node3&#45;&gt;Node17</title>
<path fill="none" stroke="#191970" d="M373.8402,-285.3095C390.3456,-276.434 414.4914,-263.4499 433.1681,-253.4068"/>
<polygon fill="#191970" stroke="#191970" points="434.9531,-256.4209 442.1029,-248.6022 431.6379,-250.2557 434.9531,-256.4209"/>
</g>
<!-- Node18 -->
<g id="node18" class="node">
<title>Node18</title>
<g id="a_node18"><a xlink:href="../../d3/d97/CReturn_8h.html" target="_top" xlink:title=" ">
<polygon fill="none" stroke="#000000" points="504.109,-228.5 504.109,-248.5 565.67,-248.5 565.67,-228.5 504.109,-228.5"/>
<text text-anchor="middle" x="534.8895" y="-235.5" font-family="Helvetica,sans-Serif" font-size="10.00" fill="#000000">CReturn.h</text>
</a>
</g>
</g>
<!-- Node3&#45;&gt;Node18 -->
<g id="edge32" class="edge">
<title>Node3&#45;&gt;Node18</title>
<path fill="none" stroke="#191970" d="M386.6555,-285.4408C416.656,-275.9406 461.7853,-261.6497 494.3649,-251.3328"/>
<polygon fill="#191970" stroke="#191970" points="495.5655,-254.624 504.0423,-248.2683 493.4523,-247.9506 495.5655,-254.624"/>
</g>
<!-- Node5&#45;&gt;Node2 -->
<g id="edge5" class="edge">
<title>Node5&#45;&gt;Node2</title>
<path fill="none" stroke="#191970" d="M387.3694,-171.452C373.558,-162.3417 352.9602,-148.3372 335.8895,-135 315.0866,-118.7469 292.5085,-98.6368 277.2147,-84.6135"/>
<polygon fill="#191970" stroke="#191970" points="279.2462,-81.7253 269.5251,-77.5121 274.4971,-86.8679 279.2462,-81.7253"/>
</g>
<!-- Node5&#45;&gt;Node4 -->
<g id="edge6" class="edge">
<title>Node5&#45;&gt;Node4</title>
<path fill="none" stroke="#191970" d="M431.4624,-172.4054C485.0477,-153.8667 591.7829,-109.0321 551.8895,-57 534.6334,-34.4933 454.1602,-20.4544 409.302,-14.2411"/>
<polygon fill="#191970" stroke="#191970" points="409.6265,-10.7534 399.2509,-12.8973 408.6989,-17.6917 409.6265,-10.7534"/>
</g>
<!-- Node5&#45;&gt;Node6 -->
<g id="edge7" class="edge">
<title>Node5&#45;&gt;Node6</title>
<path fill="none" stroke="#191970" d="M399.3139,-171.3095C396.6689,-163.7714 392.9841,-153.2696 389.7748,-144.123"/>
<polygon fill="#191970" stroke="#191970" points="393.0477,-142.8794 386.4341,-134.6022 386.4425,-145.1971 393.0477,-142.8794"/>
</g>
<!-- Node6&#45;&gt;Node2 -->
<g id="edge8" class="edge">
<title>Node6&#45;&gt;Node2</title>
<path fill="none" stroke="#191970" d="M361.0062,-114.4408C341.3833,-105.4205 312.3645,-92.0813 290.2714,-81.9255"/>
<polygon fill="#191970" stroke="#191970" points="291.519,-78.647 280.9711,-77.6504 288.5953,-85.0072 291.519,-78.647"/>
</g>
<!-- Node6&#45;&gt;Node4 -->
<g id="edge9" class="edge">
<title>Node6&#45;&gt;Node4</title>
<path fill="none" stroke="#191970" d="M420.6232,-121.4987C475.227,-115.6537 566.4683,-99.3647 534.8895,-57 519.8572,-36.8333 450.3059,-22.2296 409.3211,-15.2029"/>
<polygon fill="#191970" stroke="#191970" points="409.7608,-11.7281 399.3223,-13.5415 408.6133,-18.6334 409.7608,-11.7281"/>
</g>
<!-- Node7 -->
<g id="node7" class="node">
<title>Node7</title>
<g id="a_node7"><a xlink:title=" ">
<polygon fill="none" stroke="#bfbfbf" points="415.2225,-57.5 415.2225,-77.5 464.5565,-77.5 464.5565,-57.5 415.2225,-57.5"/>
<text text-anchor="middle" x="439.8895" y="-64.5" font-family="Helvetica,sans-Serif" font-size="10.00" fill="#000000">fstream</text>
</a>
</g>
</g>
<!-- Node6&#45;&gt;Node7 -->
<g id="edge10" class="edge">
<title>Node6&#45;&gt;Node7</title>
<path fill="none" stroke="#191970" d="M393.08,-114.3095C401.2666,-106.1229 412.9485,-94.441 422.594,-84.7955"/>
<polygon fill="#191970" stroke="#191970" points="425.1911,-87.1482 429.7873,-77.6022 420.2413,-82.1984 425.1911,-87.1482"/>
</g>
<!-- Node8 -->
<g id="node8" class="node">
<title>Node8</title>
<g id="a_node8"><a xlink:title=" ">
<polygon fill="none" stroke="#bfbfbf" points="482.2765,-57.5 482.2765,-77.5 525.5025,-77.5 525.5025,-57.5 482.2765,-57.5"/>
<text text-anchor="middle" x="503.8895" y="-64.5" font-family="Helvetica,sans-Serif" font-size="10.00" fill="#000000">vector</text>
</a>
</g>
</g>
<!-- Node6&#45;&gt;Node8 -->
<g id="edge11" class="edge">
<title>Node6&#45;&gt;Node8</title>
<path fill="none" stroke="#191970" d="M404.2433,-114.4408C423.3916,-105.4205 451.7082,-92.0813 473.2668,-81.9255"/>
<polygon fill="#191970" stroke="#191970" points="474.7872,-85.0783 482.3421,-77.6504 471.8041,-78.7458 474.7872,-85.0783"/>
</g>
<!-- Node9 -->
<g id="node9" class="node">
<title>Node9</title>
<g id="a_node9"><a xlink:title=" ">
<polygon fill="none" stroke="#bfbfbf" points="304.542,-57.5 304.542,-77.5 397.237,-77.5 397.237,-57.5 304.542,-57.5"/>
<text text-anchor="middle" x="350.8895" y="-64.5" font-family="Helvetica,sans-Serif" font-size="10.00" fill="#000000">boost/variant.hpp</text>
</a>
</g>
</g>
<!-- Node6&#45;&gt;Node9 -->
<g id="edge12" class="edge">
<title>Node6&#45;&gt;Node9</title>
<path fill="none" stroke="#191970" d="M377.1685,-114.3095C372.8456,-106.6093 366.7865,-95.8166 361.5757,-86.5349"/>
<polygon fill="#191970" stroke="#191970" points="364.5083,-84.6087 356.5609,-77.6022 358.4044,-88.0355 364.5083,-84.6087"/>
</g>
<!-- Node10&#45;&gt;Node2 -->
<g id="edge14" class="edge">
<title>Node10&#45;&gt;Node2</title>
<path fill="none" stroke="#191970" d="M245.7233,-228.3153C247.9746,-200.8178 254.2085,-124.6748 257.2194,-87.8993"/>
<polygon fill="#191970" stroke="#191970" points="260.7146,-88.0998 258.0423,-77.8476 253.7379,-87.5286 260.7146,-88.0998"/>
</g>
<!-- Node10&#45;&gt;Node4 -->
<g id="edge23" class="edge">
<title>Node10&#45;&gt;Node4</title>
<path fill="none" stroke="#191970" d="M239.1551,-228.202C223.3774,-198.3396 183.0532,-110.4427 222.8895,-57 237.9218,-36.8333 307.4731,-22.2296 348.4579,-15.2029"/>
<polygon fill="#191970" stroke="#191970" points="349.1657,-18.6334 358.4567,-13.5415 348.0182,-11.7281 349.1657,-18.6334"/>
</g>
<!-- Node10&#45;&gt;Node6 -->
<g id="edge22" class="edge">
<title>Node10&#45;&gt;Node6</title>
<path fill="none" stroke="#191970" d="M256.9332,-228.397C272.7262,-215.164 301.3146,-191.2626 325.8895,-171 337.8631,-161.1275 351.3125,-150.1503 362.1388,-141.3416"/>
<polygon fill="#191970" stroke="#191970" points="364.6286,-143.8283 370.1806,-134.8047 360.2132,-138.3964 364.6286,-143.8283"/>
</g>
<!-- Node11 -->
<g id="node11" class="node">
<title>Node11</title>
<g id="a_node11"><a xlink:href="../../de/d98/CUser_8h.html" target="_top" xlink:title=" ">
<polygon fill="none" stroke="#000000" points="123.5575,-57.5 123.5575,-77.5 176.2215,-77.5 176.2215,-57.5 123.5575,-57.5"/>
<text text-anchor="middle" x="149.8895" y="-64.5" font-family="Helvetica,sans-Serif" font-size="10.00" fill="#000000">CUser.h</text>
</a>
</g>
</g>
<!-- Node10&#45;&gt;Node11 -->
<g id="edge15" class="edge">
<title>Node10&#45;&gt;Node11</title>
<path fill="none" stroke="#191970" d="M237.0782,-228.4654C230.0733,-219.2494 219.7224,-205.0787 211.8895,-192 190.5036,-156.2918 169.8077,-112.2245 158.5687,-87.2447"/>
<polygon fill="#191970" stroke="#191970" points="161.6225,-85.4986 154.3565,-77.7878 155.228,-88.3467 161.6225,-85.4986"/>
</g>
<!-- Node10&#45;&gt;Node12 -->
<g id="edge17" class="edge">
<title>Node10&#45;&gt;Node12</title>
<path fill="none" stroke="#191970" d="M216.2351,-230.4542C182.6844,-221.0336 126.69,-205.311 87.2266,-194.2301"/>
<polygon fill="#191970" stroke="#191970" points="88.1474,-190.8534 77.5735,-191.5196 86.255,-197.5927 88.1474,-190.8534"/>
</g>
<!-- Node11&#45;&gt;Node4 -->
<g id="edge16" class="edge">
<title>Node11&#45;&gt;Node4</title>
<path fill="none" stroke="#191970" d="M176.5547,-60.4391C181.0046,-59.2783 185.5753,-58.0969 189.8895,-57 245.8674,-42.7676 311.3522,-26.8106 348.6927,-17.777"/>
<polygon fill="#191970" stroke="#191970" points="349.5489,-21.1709 358.447,-15.4198 347.9046,-14.3667 349.5489,-21.1709"/>
</g>
<!-- Node12&#45;&gt;Node4 -->
<g id="edge21" class="edge">
<title>Node12&#45;&gt;Node4</title>
<path fill="none" stroke="#191970" d="M41.5706,-171.4454C41.5022,-157.853 42.6761,-133.1179 50.8895,-114 63.7396,-84.0897 68.7625,-73.3898 96.8895,-57 139.2406,-32.3217 284.1846,-18.0389 348.1427,-12.8046"/>
<polygon fill="#191970" stroke="#191970" points="348.7042,-16.271 358.3942,-11.9867 348.1475,-9.2932 348.7042,-16.271"/>
</g>
<!-- Node12&#45;&gt;Node13 -->
<g id="edge18" class="edge">
<title>Node12&#45;&gt;Node13</title>
<path fill="none" stroke="#191970" d="M50.6497,-171.3095C57.548,-163.2851 67.3332,-151.9022 75.5269,-142.3708"/>
<polygon fill="#191970" stroke="#191970" points="78.3403,-144.467 82.2051,-134.6022 73.0321,-139.9038 78.3403,-144.467"/>
</g>
<!-- Node13&#45;&gt;Node4 -->
<g id="edge20" class="edge">
<title>Node13&#45;&gt;Node4</title>
<path fill="none" stroke="#191970" d="M91.4587,-114.0063C92.8727,-98.9522 97.7921,-71.4526 114.8895,-57 149.7595,-27.5241 286.2728,-15.9152 348.1286,-12.1008"/>
<polygon fill="#191970" stroke="#191970" points="348.6473,-15.5764 358.4247,-11.4958 348.2366,-8.5885 348.6473,-15.5764"/>
</g>
<!-- Node13&#45;&gt;Node11 -->
<g id="edge19" class="edge">
<title>Node13&#45;&gt;Node11</title>
<path fill="none" stroke="#191970" d="M101.4375,-114.3095C109.9114,-106.1229 122.0032,-94.441 131.9872,-84.7955"/>
<polygon fill="#191970" stroke="#191970" points="134.6727,-87.0676 139.4328,-77.6022 129.809,-82.0332 134.6727,-87.0676"/>
</g>
<!-- Node14&#45;&gt;Node4 -->
<g id="edge25" class="edge">
<title>Node14&#45;&gt;Node4</title>
<path fill="none" stroke="#191970" d="M613.1131,-228.3202C616.2222,-197.2275 620.8843,-102.8368 569.8895,-57 546.4103,-35.8957 457.1126,-21.0091 409.3913,-14.3757"/>
<polygon fill="#191970" stroke="#191970" points="409.7028,-10.886 399.3237,-13.0131 408.7639,-17.8227 409.7028,-10.886"/>
</g>
<!-- Node14&#45;&gt;Node5 -->
<g id="edge27" class="edge">
<title>Node14&#45;&gt;Node5</title>
<path fill="none" stroke="#191970" d="M583.2162,-230.3249C580.4039,-229.5345 577.5921,-228.7488 574.8895,-228 528.9009,-215.2586 475.8773,-200.9871 440.9986,-191.6567"/>
<polygon fill="#191970" stroke="#191970" points="441.789,-188.2451 431.2243,-189.0442 439.9815,-195.0077 441.789,-188.2451"/>
</g>
<!-- Node15 -->
<g id="node15" class="node">
<title>Node15</title>
<g id="a_node15"><a xlink:title=" ">
<polygon fill="none" stroke="#bfbfbf" points="531.9355,-171.5 531.9355,-191.5 601.8435,-191.5 601.8435,-171.5 531.9355,-171.5"/>
<text text-anchor="middle" x="566.8895" y="-178.5" font-family="Helvetica,sans-Serif" font-size="10.00" fill="#000000">itpp/itbase.h</text>
</a>
</g>
</g>
<!-- Node14&#45;&gt;Node15 -->
<g id="edge26" class="edge">
<title>Node14&#45;&gt;Node15</title>
<path fill="none" stroke="#191970" d="M603.8444,-228.3095C597.5733,-220.3661 588.7041,-209.1319 581.2265,-199.6602"/>
<polygon fill="#191970" stroke="#191970" points="583.8085,-197.2823 574.8649,-191.6022 578.3143,-201.6199 583.8085,-197.2823"/>
</g>
<!-- Node16&#45;&gt;Node5 -->
<g id="edge29" class="edge">
<title>Node16&#45;&gt;Node5</title>
<path fill="none" stroke="#191970" d="M363.4709,-228.3095C370.2284,-220.2851 379.8139,-208.9022 387.8404,-199.3708"/>
<polygon fill="#191970" stroke="#191970" points="390.6182,-201.5059 394.3824,-191.6022 385.2638,-196.9969 390.6182,-201.5059"/>
</g>
</g>
</svg>
        <g id="navigator" transform="translate(0 0)" fill="#404254">
                <rect fill="#f2f5e9" fill-opacity="0.5" stroke="#606060" stroke-width=".5" x="0" y="0" width="60" height="60"/>
                <use id="zoomplus" xlink:href="#zoomPlus" x="17" y="9" onmousedown="handleZoom(evt,'in')"/>
                <use id="zoomminus" xlink:href="#zoomMin" x="42" y="9" onmousedown="handleZoom(evt,'out')"/>
                <use id="reset" xlink:href="#resetDef" x="30" y="36" onmousedown="handleReset()"/>
                <g id="arrowUp" xlink:href="#dirArrow" transform="translate(30 24)" onmousedown="handlePan(0,-1)">
                  <use xlink:href="#rim" fill="#404040">
                        <set attributeName="fill" to="#808080" begin="arrowUp.mouseover" end="arrowUp.mouseout"/>
                  </use>
                  <path fill="none" stroke="white" stroke-width="1.5" d="M0,-3.0v7 M-2.5,-0.5L0,-3.0L2.5,-0.5"/>
                </g>
                <g id="arrowRight" xlink:href="#dirArrow" transform="rotate(90) translate(36 -43)" onmousedown="handlePan(1,0)">
                  <use xlink:href="#rim" fill="#404040">
                        <set attributeName="fill" to="#808080" begin="arrowRight.mouseover" end="arrowRight.mouseout"/>
                  </use>
                  <path fill="none" stroke="white" stroke-width="1.5" d="M0,-3.0v7 M-2.5,-0.5L0,-3.0L2.5,-0.5"/>
                </g>
                <g id="arrowDown" xlink:href="#dirArrow" transform="rotate(180) translate(-30 -48)" onmousedown="handlePan(0,1)">
                  <use xlink:href="#rim" fill="#404040">
                        <set attributeName="fill" to="#808080" begin="arrowDown.mouseover" end="arrowDown.mouseout"/>
                  </use>
                  <path fill="none" stroke="white" stroke-width="1.5" d="M0,-3.0v7 M-2.5,-0.5L0,-3.0L2.5,-0.5"/>
                </g>
                <g id="arrowLeft" xlink:href="#dirArrow" transform="rotate(270) translate(-36 17)" onmousedown="handlePan(-1,0)">
                  <use xlink:href="#rim" fill="#404040">
                        <set attributeName="fill" to="#808080" begin="arrowLeft.mouseover" end="arrowLeft.mouseout"/>
                  </use>
                  <path fill="none" stroke="white" stroke-width="1.5" d="M0,-3.0v7 M-2.5,-0.5L0,-3.0L2.5,-0.5"/>
                </g>
        </g>
        <svg viewBox="0 0 15 15" width="100%" height="30px" preserveAspectRatio="xMaxYMin meet">
         <g id="arrow_out" transform="scale(0.3 0.3)">
          <a xlink:href="interface_8h__incl_org.svg" target="_base">
           <rect id="button" ry="5" rx="5" y="6" x="6" height="38" width="38"
                fill="#f2f5e9" fill-opacity="0.5" stroke="#606060" stroke-width="1.0"/>
           <path id="arrow"
             d="M 11.500037,31.436501 C 11.940474,20.09759 22.043105,11.32322 32.158766,21.979434 L 37.068811,17.246167 C 37.068811,17.246167 37.088388,32 37.088388,32 L 22.160133,31.978069 C 22.160133,31.978069 26.997745,27.140456 26.997745,27.140456 C 18.528582,18.264221 13.291696,25.230495 11.500037,31.436501 z"
             style="fill:#404040;"/>
          </a>
         </g>
        </svg>
</svg>
