<?xml version="1.0" encoding="UTF-8" standalone="no"?>
<!DOCTYPE svg PUBLIC "-//W3C//DTD SVG 1.1//EN"
 "http://www.w3.org/Graphics/SVG/1.1/DTD/svg11.dtd">
<!-- Generated by graphviz version 2.40.1 (20161225.0304)
 -->
<!-- Title: CDataBase Pages: 1 -->
<svg width="520pt" height="724pt"
 viewBox="0.00 0.00 519.74 724.00" xmlns="http://www.w3.org/2000/svg" xmlns:xlink="http://www.w3.org/1999/xlink">
<g id="graph0" class="graph" transform="scale(1 1) rotate(0) translate(4 720)">
<title>CDataBase</title>
<!-- Node1 -->
<g id="node1" class="node">
<title>Node1</title>
<g id="a_node1"><a xlink:title="This class connect with database in this program database represent the files with extension ....">
<polygon fill="#bfbfbf" stroke="#000000" points="151.7361,-.5 151.7361,-206.5 297.7361,-206.5 297.7361,-.5 151.7361,-.5"/>
<text text-anchor="middle" x="224.7361" y="-192.9" font-family="Helvetica,sans-Serif" font-size="12.00" fill="#000000">CDataBase</text>
<polyline fill="none" stroke="#000000" points="151.7361,-185.5 297.7361,-185.5 "/>
<text text-anchor="middle" x="224.7361" y="-171.9" font-family="Helvetica,sans-Serif" font-size="12.00" fill="#000000"> </text>
<polyline fill="none" stroke="#000000" points="151.7361,-164.5 297.7361,-164.5 "/>
<text text-anchor="start" x="159.7361" y="-150.9" font-family="Helvetica,sans-Serif" font-size="12.00" fill="#000000">+ CDataBase()</text>
<text text-anchor="start" x="159.7361" y="-137.9" font-family="Helvetica,sans-Serif" font-size="12.00" fill="#000000">+ CDataBase()</text>
<text text-anchor="start" x="159.7361" y="-124.9" font-family="Helvetica,sans-Serif" font-size="12.00" fill="#000000">+ inputForETF()</text>
<text text-anchor="start" x="159.7361" y="-111.9" font-family="Helvetica,sans-Serif" font-size="12.00" fill="#000000">+ inputForStock()</text>
<text text-anchor="start" x="159.7361" y="-98.9" font-family="Helvetica,sans-Serif" font-size="12.00" fill="#000000">+ meanOfAsset()</text>
<text text-anchor="start" x="159.7361" y="-85.9" font-family="Helvetica,sans-Serif" font-size="12.00" fill="#000000">+ slice()</text>
<text text-anchor="start" x="159.7361" y="-72.9" font-family="Helvetica,sans-Serif" font-size="12.00" fill="#000000">+ returnOfAsset()</text>
<text text-anchor="start" x="159.7361" y="-59.9" font-family="Helvetica,sans-Serif" font-size="12.00" fill="#000000">+ choosePortfolio()</text>
<text text-anchor="start" x="159.7361" y="-46.9" font-family="Helvetica,sans-Serif" font-size="12.00" fill="#000000">+ getMStrToItPortfolio()</text>
<text text-anchor="start" x="159.7361" y="-33.9" font-family="Helvetica,sans-Serif" font-size="12.00" fill="#000000">+ setMStrToItPortfolio()</text>
<text text-anchor="start" x="159.7361" y="-20.9" font-family="Helvetica,sans-Serif" font-size="12.00" fill="#000000">+ getMStrToetfPortfolio()</text>
<text text-anchor="start" x="159.7361" y="-7.9" font-family="Helvetica,sans-Serif" font-size="12.00" fill="#000000">+ ~CDataBase()</text>
</a>
</g>
</g>
<!-- Node2 -->
<g id="node2" class="node">
<title>Node2</title>
<g id="a_node2"><a xlink:title=" ">
<polygon fill="none" stroke="#bfbfbf" points="7.2361,-538.5 7.2361,-601.5 60.2361,-601.5 60.2361,-538.5 7.2361,-538.5"/>
<text text-anchor="middle" x="33.7361" y="-587.9" font-family="Helvetica,sans-Serif" font-size="12.00" fill="#000000">double</text>
<polyline fill="none" stroke="#bfbfbf" points="7.2361,-580.5 60.2361,-580.5 "/>
<text text-anchor="middle" x="33.7361" y="-566.9" font-family="Helvetica,sans-Serif" font-size="12.00" fill="#000000"> </text>
<polyline fill="none" stroke="#bfbfbf" points="7.2361,-559.5 60.2361,-559.5 "/>
<text text-anchor="middle" x="33.7361" y="-545.9" font-family="Helvetica,sans-Serif" font-size="12.00" fill="#000000"> </text>
</a>
</g>
</g>
<!-- Node2&#45;&gt;Node1 -->
<g id="edge1" class="edge">
<title>Node2&#45;&gt;Node1</title>
<path fill="none" stroke="#404040" d="M23.6669,-538.0795C6.9238,-478.8941 -20.4806,-349.6441 25.7361,-256 49.8945,-207.0503 98.1401,-169.4622 141.0757,-143.8511"/>
<polygon fill="none" stroke="#404040" points="141.1922,-143.7835 144.3741,-137.3124 151.5713,-137.7606 148.3894,-144.2318 141.1922,-143.7835"/>
<text text-anchor="middle" x="79.7361" y="-369.4" font-family="Helvetica,sans-Serif" font-size="12.00" fill="#000000"> &#45;dInstrumenAmount</text>
<text text-anchor="middle" x="79.7361" y="-356.4" font-family="Helvetica,sans-Serif" font-size="12.00" fill="#000000">&#45;dMarketValue</text>
<text text-anchor="middle" x="79.7361" y="-343.4" font-family="Helvetica,sans-Serif" font-size="12.00" fill="#000000">&#45;dTotalGain</text>
<text text-anchor="middle" x="79.7361" y="-330.4" font-family="Helvetica,sans-Serif" font-size="12.00" fill="#000000">&#45;dDayGain</text>
</g>
<!-- Node5 -->
<g id="node5" class="node">
<title>Node5</title>
<g id="a_node5"><a xlink:href="../../dc/d85/classCAsset.html" target="_top" xlink:title="This class is pure virtual class and from it are inhereted those class: CPortfolio,...">
<polygon fill="none" stroke="#000000" points="142.7361,-256.5 142.7361,-449.5 306.7361,-449.5 306.7361,-256.5 142.7361,-256.5"/>
<text text-anchor="middle" x="224.7361" y="-435.9" font-family="Helvetica,sans-Serif" font-size="12.00" fill="#000000">CAsset</text>
<polyline fill="none" stroke="#000000" points="142.7361,-428.5 306.7361,-428.5 "/>
<text text-anchor="middle" x="224.7361" y="-414.9" font-family="Helvetica,sans-Serif" font-size="12.00" fill="#000000"> </text>
<polyline fill="none" stroke="#000000" points="142.7361,-407.5 306.7361,-407.5 "/>
<text text-anchor="start" x="150.7361" y="-393.9" font-family="Helvetica,sans-Serif" font-size="12.00" fill="#000000">+ CAsset()</text>
<text text-anchor="start" x="150.7361" y="-380.9" font-family="Helvetica,sans-Serif" font-size="12.00" fill="#000000">+ CAsset()</text>
<text text-anchor="start" x="150.7361" y="-367.9" font-family="Helvetica,sans-Serif" font-size="12.00" fill="#000000">+ getMStrAssetName()</text>
<text text-anchor="start" x="150.7361" y="-354.9" font-family="Helvetica,sans-Serif" font-size="12.00" fill="#000000">+ getFromBase()</text>
<text text-anchor="start" x="150.7361" y="-341.9" font-family="Helvetica,sans-Serif" font-size="12.00" fill="#000000">+ printAssetInfo()</text>
<text text-anchor="start" x="150.7361" y="-328.9" font-family="Helvetica,sans-Serif" font-size="12.00" fill="#000000">+ slice()</text>
<text text-anchor="start" x="150.7361" y="-315.9" font-family="Helvetica,sans-Serif" font-size="12.00" fill="#000000">+ returnOfAsset()</text>
<text text-anchor="start" x="150.7361" y="-302.9" font-family="Helvetica,sans-Serif" font-size="12.00" fill="#000000">+ meanOfAsset()</text>
<text text-anchor="start" x="150.7361" y="-289.9" font-family="Helvetica,sans-Serif" font-size="12.00" fill="#000000">+ returnAndMeanDiffrence()</text>
<text text-anchor="start" x="150.7361" y="-276.9" font-family="Helvetica,sans-Serif" font-size="12.00" fill="#000000">+ riskOfAsset()</text>
<text text-anchor="start" x="150.7361" y="-263.9" font-family="Helvetica,sans-Serif" font-size="12.00" fill="#000000">+ ~CAsset()</text>
</a>
</g>
</g>
<!-- Node2&#45;&gt;Node5 -->
<g id="edge5" class="edge">
<title>Node2&#45;&gt;Node5</title>
<path fill="none" stroke="#404040" d="M35.8937,-538.2768C39.0814,-515.7656 46.8629,-486.3943 65.7361,-468 86.5902,-447.675 103.6764,-464.8328 128.7361,-450 129.9085,-449.3061 131.0766,-448.5944 132.2401,-447.8661"/>
<polygon fill="none" stroke="#404040" points="132.6277,-447.6046 135.3648,-440.9331 142.5758,-440.8937 139.8388,-447.5652 132.6277,-447.6046"/>
<text text-anchor="middle" x="113.2361" y="-510.4" font-family="Helvetica,sans-Serif" font-size="12.00" fill="#000000"> &#45;m_dDayGain</text>
<text text-anchor="middle" x="113.2361" y="-497.4" font-family="Helvetica,sans-Serif" font-size="12.00" fill="#000000">&#45;m_dMarketValue</text>
<text text-anchor="middle" x="113.2361" y="-484.4" font-family="Helvetica,sans-Serif" font-size="12.00" fill="#000000">&#45;m_dTotalGain</text>
<text text-anchor="middle" x="113.2361" y="-471.4" font-family="Helvetica,sans-Serif" font-size="12.00" fill="#000000">&#45;m_dAmount</text>
</g>
<!-- Node3 -->
<g id="node3" class="node">
<title>Node3</title>
<g id="a_node3"><a xlink:title="STL class.">
<polygon fill="none" stroke="#bfbfbf" points="323.7361,-538.5 323.7361,-601.5 391.7361,-601.5 391.7361,-538.5 323.7361,-538.5"/>
<text text-anchor="middle" x="357.7361" y="-587.9" font-family="Helvetica,sans-Serif" font-size="12.00" fill="#000000">std::string</text>
<polyline fill="none" stroke="#bfbfbf" points="323.7361,-580.5 391.7361,-580.5 "/>
<text text-anchor="middle" x="357.7361" y="-566.9" font-family="Helvetica,sans-Serif" font-size="12.00" fill="#000000"> </text>
<polyline fill="none" stroke="#bfbfbf" points="323.7361,-559.5 391.7361,-559.5 "/>
<text text-anchor="middle" x="357.7361" y="-545.9" font-family="Helvetica,sans-Serif" font-size="12.00" fill="#000000"> </text>
</a>
</g>
</g>
<!-- Node3&#45;&gt;Node1 -->
<g id="edge2" class="edge">
<title>Node3&#45;&gt;Node1</title>
<path fill="none" stroke="#404040" d="M389.5985,-538.474C393.7456,-532.7377 397.3692,-526.4977 399.7361,-520 407.6463,-498.2847 404.0696,-490.7012 399.7361,-468 382.7092,-378.8046 338.2058,-286.6811 298.3419,-217.3636"/>
<polygon fill="none" stroke="#404040" points="298.2741,-217.247 291.8007,-214.0697 292.2437,-206.8722 298.7172,-210.0495 298.2741,-217.247"/>
<text text-anchor="middle" x="452.7361" y="-375.9" font-family="Helvetica,sans-Serif" font-size="12.00" fill="#000000"> &#45;strSymbol</text>
<text text-anchor="middle" x="452.7361" y="-362.9" font-family="Helvetica,sans-Serif" font-size="12.00" fill="#000000">&#45;strInstrumentName</text>
<text text-anchor="middle" x="452.7361" y="-349.9" font-family="Helvetica,sans-Serif" font-size="12.00" fill="#000000">&#45;m_strTOETFPortfolio</text>
<text text-anchor="middle" x="452.7361" y="-336.9" font-family="Helvetica,sans-Serif" font-size="12.00" fill="#000000">&#45;m_strToITPortfolio</text>
<text text-anchor="middle" x="452.7361" y="-323.9" font-family="Helvetica,sans-Serif" font-size="12.00" fill="#000000">&#45;strTradeDate</text>
</g>
<!-- Node3&#45;&gt;Node5 -->
<g id="edge7" class="edge">
<title>Node3&#45;&gt;Node5</title>
<path fill="none" stroke="#404040" d="M323.5577,-542.3239C316.431,-535.5192 309.3792,-527.9022 303.7361,-520 289.0499,-499.4346 291.3809,-490.9195 280.7361,-468 279.5961,-465.5454 278.4377,-463.0638 277.2652,-460.5635"/>
<polygon fill="none" stroke="#404040" points="277.1684,-460.3582 270.9906,-456.6385 272.0481,-449.5054 278.2258,-453.225 277.1684,-460.3582"/>
<text text-anchor="middle" x="351.7361" y="-503.9" font-family="Helvetica,sans-Serif" font-size="12.00" fill="#000000"> &#45;m_strTradeDate</text>
<text text-anchor="middle" x="351.7361" y="-490.9" font-family="Helvetica,sans-Serif" font-size="12.00" fill="#000000">&#45;m_strAssetName</text>
<text text-anchor="middle" x="351.7361" y="-477.9" font-family="Helvetica,sans-Serif" font-size="12.00" fill="#000000">&#45;m_strSymbol</text>
</g>
<!-- Node4 -->
<g id="node4" class="node">
<title>Node4</title>
<g id="a_node4"><a xlink:title="STL class.">
<polygon fill="none" stroke="#bfbfbf" points="302.7361,-639.5 302.7361,-715.5 412.7361,-715.5 412.7361,-639.5 302.7361,-639.5"/>
<text text-anchor="start" x="310.7361" y="-701.9" font-family="Helvetica,sans-Serif" font-size="12.00" fill="#000000">std::basic_string&lt;</text>
<text text-anchor="middle" x="357.7361" y="-688.9" font-family="Helvetica,sans-Serif" font-size="12.00" fill="#000000"> char &gt;</text>
<polyline fill="none" stroke="#bfbfbf" points="302.7361,-681.5 412.7361,-681.5 "/>
<text text-anchor="middle" x="357.7361" y="-667.9" font-family="Helvetica,sans-Serif" font-size="12.00" fill="#000000"> </text>
<polyline fill="none" stroke="#bfbfbf" points="302.7361,-660.5 412.7361,-660.5 "/>
<text text-anchor="middle" x="357.7361" y="-646.9" font-family="Helvetica,sans-Serif" font-size="12.00" fill="#000000"> </text>
</a>
</g>
</g>
<!-- Node4&#45;&gt;Node3 -->
<g id="edge3" class="edge">
<title>Node4&#45;&gt;Node3</title>
<path fill="none" stroke="#191970" d="M357.7361,-629.2888C357.7361,-619.9337 357.7361,-610.3524 357.7361,-601.6948"/>
<polygon fill="none" stroke="#191970" points="354.2362,-629.2968 357.7361,-639.2968 361.2362,-629.2969 354.2362,-629.2968"/>
</g>
<!-- Node5&#45;&gt;Node1 -->
<g id="edge4" class="edge">
<title>Node5&#45;&gt;Node1</title>
<path fill="none" stroke="#404040" d="M224.7361,-256.1797C224.7361,-244.0571 224.7361,-231.5637 224.7361,-219.1897"/>
<polygon fill="none" stroke="#404040" points="224.7362,-218.8738 220.7361,-212.8738 224.7361,-206.8738 228.7361,-212.8738 224.7362,-218.8738"/>
<text text-anchor="middle" x="242.7361" y="-228.4" font-family="Helvetica,sans-Serif" font-size="12.00" fill="#000000"> &#45;asset</text>
</g>
<!-- Node6 -->
<g id="node6" class="node">
<title>Node6</title>
<g id="a_node6"><a xlink:title=" ">
<polygon fill="none" stroke="#bfbfbf" points="153.2361,-538.5 153.2361,-601.5 182.2361,-601.5 182.2361,-538.5 153.2361,-538.5"/>
<text text-anchor="middle" x="167.7361" y="-587.9" font-family="Helvetica,sans-Serif" font-size="12.00" fill="#000000">int</text>
<polyline fill="none" stroke="#bfbfbf" points="153.2361,-580.5 182.2361,-580.5 "/>
<text text-anchor="middle" x="167.7361" y="-566.9" font-family="Helvetica,sans-Serif" font-size="12.00" fill="#000000"> </text>
<polyline fill="none" stroke="#bfbfbf" points="153.2361,-559.5 182.2361,-559.5 "/>
<text text-anchor="middle" x="167.7361" y="-545.9" font-family="Helvetica,sans-Serif" font-size="12.00" fill="#000000"> </text>
</a>
</g>
</g>
<!-- Node6&#45;&gt;Node5 -->
<g id="edge6" class="edge">
<title>Node6&#45;&gt;Node5</title>
<path fill="none" stroke="#404040" d="M164.4916,-538.3204C163.2731,-517.9613 163.2919,-491.0974 168.7361,-468 169.2487,-465.8251 169.8076,-463.6434 170.4082,-461.459"/>
<polygon fill="none" stroke="#404040" points="170.474,-461.2444 168.4099,-454.335 173.9938,-449.7722 176.058,-456.6815 170.474,-461.2444"/>
<text text-anchor="middle" x="224.7361" y="-490.9" font-family="Helvetica,sans-Serif" font-size="12.00" fill="#000000"> &#45;m_nPredictionDays</text>
</g>
</g>
</svg>
