<?xml version="1.0" encoding="UTF-8" standalone="no"?>
<!DOCTYPE svg PUBLIC "-//W3C//DTD SVG 1.1//EN"
 "http://www.w3.org/Graphics/SVG/1.1/DTD/svg11.dtd">
<!-- Generated by graphviz version 2.40.1 (20161225.0304)
 -->
<!-- Title: headers/CAdministrator.h Pages: 1 -->
<svg width="256pt" height="88pt"
 viewBox="0.00 0.00 255.50 88.00" xmlns="http://www.w3.org/2000/svg" xmlns:xlink="http://www.w3.org/1999/xlink">
<g id="graph0" class="graph" transform="scale(1 1) rotate(0) translate(4 84)">
<title>headers/CAdministrator.h</title>
<!-- Node1 -->
<g id="node1" class="node">
<title>Node1</title>
<g id="a_node1"><a xlink:title=" ">
<polygon fill="#bfbfbf" stroke="#000000" points="22.5,-58.5 22.5,-79.5 174.5,-79.5 174.5,-58.5 22.5,-58.5"/>
<text text-anchor="middle" x="98.5" y="-65.9" font-family="Helvetica,sans-Serif" font-size="12.00" fill="#000000">headers/CAdministrator.h</text>
</a>
</g>
</g>
<!-- Node2 -->
<g id="node2" class="node">
<title>Node2</title>
<g id="a_node2"><a xlink:href="../../df/d0a/main_8cpp.html" target="_top" xlink:title=" ">
<polygon fill="none" stroke="#000000" points="0,-.5 0,-21.5 65,-21.5 65,-.5 0,-.5"/>
<text text-anchor="middle" x="32.5" y="-7.9" font-family="Helvetica,sans-Serif" font-size="12.00" fill="#000000">main.cpp</text>
</a>
</g>
</g>
<!-- Node1&#45;&gt;Node2 -->
<g id="edge1" class="edge">
<title>Node1&#45;&gt;Node2</title>
<path fill="none" stroke="#191970" d="M78.8033,-51.6908C67.6616,-41.8996 54.0899,-29.973 44.5287,-21.5707"/>
<polygon fill="#191970" stroke="#191970" points="76.5725,-54.3898 86.3946,-58.3619 81.1933,-49.1316 76.5725,-54.3898"/>
</g>
<!-- Node3 -->
<g id="node3" class="node">
<title>Node3</title>
<g id="a_node3"><a xlink:href="../../d2/da4/CAdministrator_8cpp.html" target="_top" xlink:title=" ">
<polygon fill="none" stroke="#000000" points="83.5,-.5 83.5,-21.5 247.5,-21.5 247.5,-.5 83.5,-.5"/>
<text text-anchor="middle" x="165.5" y="-7.9" font-family="Helvetica,sans-Serif" font-size="12.00" fill="#000000">sources/CAdministrator.cpp</text>
</a>
</g>
</g>
<!-- Node1&#45;&gt;Node3 -->
<g id="edge2" class="edge">
<title>Node1&#45;&gt;Node3</title>
<path fill="none" stroke="#191970" d="M118.4952,-51.6908C129.8056,-41.8996 143.583,-29.973 153.2891,-21.5707"/>
<polygon fill="#191970" stroke="#191970" points="116.0587,-49.1706 110.7888,-58.3619 120.6402,-54.4631 116.0587,-49.1706"/>
</g>
</g>
</svg>
