<?xml version="1.0" encoding="UTF-8" standalone="no"?>
<!DOCTYPE svg PUBLIC "-//W3C//DTD SVG 1.1//EN"
 "http://www.w3.org/Graphics/SVG/1.1/DTD/svg11.dtd">
<!-- Generated by graphviz version 2.40.1 (20161225.0304)
 -->
<!-- Title: headers/CPortfolio.h Pages: 1 -->
<!--zoomable 436 -->
<svg id="main" version="1.1" xmlns="http://www.w3.org/2000/svg" xmlns:xlink="http://www.w3.org/1999/xlink" xml:space="preserve" onload="init(evt)">
<style type="text/css"><![CDATA[
.edge:hover path { stroke: red; }
.edge:hover polygon { stroke: red; fill: red; }
]]></style>
<script type="text/javascript"><![CDATA[
var edges = document.getElementsByTagName('g');
if (edges && edges.length) {
  for (var i=0;i<edges.length;i++) {
    if (edges[i].id.substr(0,4)=='edge') {
      edges[i].setAttribute('class','edge');
    }
  }
}
]]></script>
        <defs>
                <circle id="rim" cx="0" cy="0" r="7"/>
                <circle id="rim2" cx="0" cy="0" r="3.5"/>
                <g id="zoomPlus">
                        <use xlink:href="#rim" fill="#404040">
                                <set attributeName="fill" to="#808080" begin="zoomplus.mouseover" end="zoomplus.mouseout"/>
                        </use>
                        <path d="M-4,0h8M0,-4v8" fill="none" stroke="white" stroke-width="1.5" pointer-events="none"/>
                </g>
                <g id="zoomMin">
                        <use xlink:href="#rim" fill="#404040">
                                <set attributeName="fill" to="#808080" begin="zoomminus.mouseover" end="zoomminus.mouseout"/>
                        </use>
                        <path d="M-4,0h8" fill="none" stroke="white" stroke-width="1.5" pointer-events="none"/>
                </g>
                <g id="dirArrow">
                        <path fill="none" stroke="white" stroke-width="1.5" d="M0,-3.0v7 M-2.5,-0.5L0,-3.0L2.5,-0.5"/>
                </g>
               <g id="resetDef">
                       <use xlink:href="#rim2" fill="#404040">
                               <set attributeName="fill" to="#808080" begin="reset.mouseover" end="reset.mouseout"/>
                       </use>
               </g>
        </defs>

<script type="text/javascript">
var viewWidth = 618;
var viewHeight = 436;
var sectionId = 'dynsection-0';
</script>
<script xlink:href="../../svgpan.js"/>
<svg id="graph" class="graph">
<g id="viewport">
<title>headers/CPortfolio.h</title>
<!-- Node1 -->
<g id="node1" class="node">
<title>Node1</title>
<g id="a_node1"><a xlink:title=" ">
<polygon fill="#bfbfbf" stroke="#000000" points="190,-406.5 190,-427.5 316,-427.5 316,-406.5 190,-406.5"/>
<text text-anchor="middle" x="253" y="-413.9" font-family="Helvetica,sans-Serif" font-size="12.00" fill="#000000">headers/CPortfolio.h</text>
</a>
</g>
</g>
<!-- Node2 -->
<g id="node2" class="node">
<title>Node2</title>
<g id="a_node2"><a xlink:title=" ">
<polygon fill="none" stroke="#bfbfbf" points="180,-58.5 180,-79.5 226,-79.5 226,-58.5 180,-58.5"/>
<text text-anchor="middle" x="203" y="-65.9" font-family="Helvetica,sans-Serif" font-size="12.00" fill="#000000">string</text>
</a>
</g>
</g>
<!-- Node1&#45;&gt;Node2 -->
<g id="edge1" class="edge">
<title>Node1&#45;&gt;Node2</title>
<path fill="none" stroke="#191970" d="M209.2196,-406.4832C136.8077,-387.7993 0,-346.4816 0,-301 0,-301 0,-301 0,-185 0,-107.8101 112.0142,-81.2898 169.6279,-72.7544"/>
<polygon fill="#191970" stroke="#191970" points="170.2861,-76.1968 179.7133,-71.3618 169.3285,-69.2626 170.2861,-76.1968"/>
</g>
<!-- Node3 -->
<g id="node3" class="node">
<title>Node3</title>
<g id="a_node3"><a xlink:href="../../d7/d79/CAsset_8h.html" target="_top" xlink:title=" ">
<polygon fill="none" stroke="#000000" points="105.5,-174.5 105.5,-195.5 170.5,-195.5 170.5,-174.5 105.5,-174.5"/>
<text text-anchor="middle" x="138" y="-181.9" font-family="Helvetica,sans-Serif" font-size="12.00" fill="#000000">CAsset.h</text>
</a>
</g>
</g>
<!-- Node1&#45;&gt;Node3 -->
<g id="edge2" class="edge">
<title>Node1&#45;&gt;Node3</title>
<path fill="none" stroke="#191970" d="M247.7599,-406.4286C229.9116,-370.4216 171.2998,-252.1788 147.8378,-204.8467"/>
<polygon fill="#191970" stroke="#191970" points="150.8481,-203.0387 143.2709,-195.6335 144.5763,-206.1476 150.8481,-203.0387"/>
</g>
<!-- Node7 -->
<g id="node7" class="node">
<title>Node7</title>
<g id="a_node7"><a xlink:href="../../dd/d85/CDataBase_8h.html" target="_top" xlink:title=" ">
<polygon fill="none" stroke="#000000" points="401.5,-116.5 401.5,-137.5 490.5,-137.5 490.5,-116.5 401.5,-116.5"/>
<text text-anchor="middle" x="446" y="-123.9" font-family="Helvetica,sans-Serif" font-size="12.00" fill="#000000">CDataBase.h</text>
</a>
</g>
</g>
<!-- Node1&#45;&gt;Node7 -->
<g id="edge38" class="edge">
<title>Node1&#45;&gt;Node7</title>
<path fill="none" stroke="#191970" d="M316.1218,-412.0287C384.5166,-402.7896 484,-376.3929 484,-301 484,-301 484,-301 484,-243 484,-207.7411 467.9491,-169.3154 456.7108,-146.7323"/>
<polygon fill="#191970" stroke="#191970" points="459.8019,-145.0901 452.1054,-137.809 453.5815,-148.3005 459.8019,-145.0901"/>
</g>
<!-- Node9 -->
<g id="node9" class="node">
<title>Node9</title>
<g id="a_node9"><a xlink:href="../../d2/d92/CRisk_8h.html" target="_top" xlink:title=" ">
<polygon fill="none" stroke="#000000" points="484.5,-58.5 484.5,-79.5 543.5,-79.5 543.5,-58.5 484.5,-58.5"/>
<text text-anchor="middle" x="514" y="-65.9" font-family="Helvetica,sans-Serif" font-size="12.00" fill="#000000">CRisk.h</text>
</a>
</g>
</g>
<!-- Node1&#45;&gt;Node9 -->
<g id="edge36" class="edge">
<title>Node1&#45;&gt;Node9</title>
<path fill="none" stroke="#191970" d="M316.0027,-409.6516C418.4903,-395.9231 610,-362.0959 610,-301 610,-301 610,-301 610,-185 610,-141.173 568.8253,-104.9984 540.4071,-85.2506"/>
<polygon fill="#191970" stroke="#191970" points="542.3134,-82.3149 532.0569,-79.659 538.4186,-88.1313 542.3134,-82.3149"/>
</g>
<!-- Node10 -->
<g id="node10" class="node">
<title>Node10</title>
<g id="a_node10"><a xlink:href="../../d3/d97/CReturn_8h.html" target="_top" xlink:title=" ">
<polygon fill="none" stroke="#000000" points="356.5,-58.5 356.5,-79.5 427.5,-79.5 427.5,-58.5 356.5,-58.5"/>
<text text-anchor="middle" x="392" y="-65.9" font-family="Helvetica,sans-Serif" font-size="12.00" fill="#000000">CReturn.h</text>
</a>
</g>
</g>
<!-- Node1&#45;&gt;Node10 -->
<g id="edge37" class="edge">
<title>Node1&#45;&gt;Node10</title>
<path fill="none" stroke="#191970" d="M316.0697,-408.0576C370.1092,-399.5259 443.0487,-385.6775 468,-370 500.973,-349.2823 522,-339.9416 522,-301 522,-301 522,-301 522,-185 522,-152.8123 521.5725,-139.8888 500,-116 483.5992,-97.8382 458.9312,-86.3858 437.3094,-79.3387"/>
<polygon fill="#191970" stroke="#191970" points="438.2154,-75.9561 427.63,-76.4026 436.1835,-82.6547 438.2154,-75.9561"/>
</g>
<!-- Node11 -->
<g id="node11" class="node">
<title>Node11</title>
<g id="a_node11"><a xlink:href="../../dd/d2c/CClient_8h.html" target="_top" xlink:title=" ">
<polygon fill="none" stroke="#000000" points="355.5,-348.5 355.5,-369.5 422.5,-369.5 422.5,-348.5 355.5,-348.5"/>
<text text-anchor="middle" x="389" y="-355.9" font-family="Helvetica,sans-Serif" font-size="12.00" fill="#000000">CClient.h</text>
</a>
</g>
</g>
<!-- Node1&#45;&gt;Node11 -->
<g id="edge17" class="edge">
<title>Node1&#45;&gt;Node11</title>
<path fill="none" stroke="#191970" d="M277.6286,-406.4966C299.1571,-397.3154 330.6398,-383.8889 354.6446,-373.6516"/>
<polygon fill="#191970" stroke="#191970" points="356.2697,-376.7636 364.0951,-369.6212 353.5236,-370.3247 356.2697,-376.7636"/>
</g>
<!-- Node13 -->
<g id="node13" class="node">
<title>Node13</title>
<g id="a_node13"><a xlink:href="../../df/dca/CMyHoldings_8h.html" target="_top" xlink:title=" ">
<polygon fill="none" stroke="#000000" points="242.5,-290.5 242.5,-311.5 341.5,-311.5 341.5,-290.5 242.5,-290.5"/>
<text text-anchor="middle" x="292" y="-297.9" font-family="Helvetica,sans-Serif" font-size="12.00" fill="#000000">CMyHoldings.h</text>
</a>
</g>
</g>
<!-- Node1&#45;&gt;Node13 -->
<g id="edge39" class="edge">
<title>Node1&#45;&gt;Node13</title>
<path fill="none" stroke="#191970" d="M256.5991,-406.2949C263.1001,-386.9588 276.8966,-345.9229 285.2165,-321.1767"/>
<polygon fill="#191970" stroke="#191970" points="288.5403,-322.2732 288.4096,-311.6792 281.9052,-320.0424 288.5403,-322.2732"/>
</g>
<!-- Node14 -->
<g id="node14" class="node">
<title>Node14</title>
<g id="a_node14"><a xlink:href="../../df/d1a/CBroker_8h.html" target="_top" xlink:title=" ">
<polygon fill="none" stroke="#000000" points="191.5,-232.5 191.5,-253.5 262.5,-253.5 262.5,-232.5 191.5,-232.5"/>
<text text-anchor="middle" x="227" y="-239.9" font-family="Helvetica,sans-Serif" font-size="12.00" fill="#000000">CBroker.h</text>
</a>
</g>
</g>
<!-- Node1&#45;&gt;Node14 -->
<g id="edge35" class="edge">
<title>Node1&#45;&gt;Node14</title>
<path fill="none" stroke="#191970" d="M250.7813,-406.3125C246.9146,-387.3787 238.8878,-346.6698 234,-312 231.7413,-295.9788 229.9251,-277.7657 228.7093,-264.0759"/>
<polygon fill="#191970" stroke="#191970" points="232.1691,-263.4545 227.8326,-253.7879 225.1944,-264.0489 232.1691,-263.4545"/>
</g>
<!-- Node15 -->
<g id="node15" class="node">
<title>Node15</title>
<g id="a_node15"><a xlink:href="../../d2/d2d/CStock_8h.html" target="_top" xlink:title=" ">
<polygon fill="none" stroke="#000000" points="28.5,-232.5 28.5,-253.5 93.5,-253.5 93.5,-232.5 28.5,-232.5"/>
<text text-anchor="middle" x="61" y="-239.9" font-family="Helvetica,sans-Serif" font-size="12.00" fill="#000000">CStock.h</text>
</a>
</g>
</g>
<!-- Node1&#45;&gt;Node15 -->
<g id="edge30" class="edge">
<title>Node1&#45;&gt;Node15</title>
<path fill="none" stroke="#191970" d="M216.1286,-406.4071C174.6382,-392.3204 109.113,-363.0555 79,-312 70.2656,-297.1911 65.7105,-278.1436 63.3708,-263.8143"/>
<polygon fill="#191970" stroke="#191970" points="66.7807,-262.9252 61.9318,-253.5051 59.8479,-263.8929 66.7807,-262.9252"/>
</g>
<!-- Node16 -->
<g id="node16" class="node">
<title>Node16</title>
<g id="a_node16"><a xlink:href="../../dc/d09/CETF_8h.html" target="_top" xlink:title=" ">
<polygon fill="none" stroke="#000000" points="88.5,-290.5 88.5,-311.5 147.5,-311.5 147.5,-290.5 88.5,-290.5"/>
<text text-anchor="middle" x="118" y="-297.9" font-family="Helvetica,sans-Serif" font-size="12.00" fill="#000000">CETF.h</text>
</a>
</g>
</g>
<!-- Node1&#45;&gt;Node16 -->
<g id="edge33" class="edge">
<title>Node1&#45;&gt;Node16</title>
<path fill="none" stroke="#191970" d="M223.5325,-406.4482C204.4256,-398.5506 179.8591,-386.305 162,-370 146.8254,-356.1459 134.7533,-335.9234 127.1214,-320.9496"/>
<polygon fill="#191970" stroke="#191970" points="130.0805,-319.0309 122.5636,-311.5645 123.7838,-322.0889 130.0805,-319.0309"/>
</g>
<!-- Node3&#45;&gt;Node2 -->
<g id="edge4" class="edge">
<title>Node3&#45;&gt;Node2</title>
<path fill="none" stroke="#191970" d="M143.9985,-174.2949C154.9302,-154.7861 178.2393,-113.1884 192.0633,-88.5177"/>
<polygon fill="#191970" stroke="#191970" points="195.1809,-90.1139 197.016,-79.6792 189.0743,-86.6921 195.1809,-90.1139"/>
</g>
<!-- Node4 -->
<g id="node4" class="node">
<title>Node4</title>
<g id="a_node4"><a xlink:title=" ">
<polygon fill="none" stroke="#bfbfbf" points="454,-.5 454,-21.5 516,-21.5 516,-.5 454,-.5"/>
<text text-anchor="middle" x="485" y="-7.9" font-family="Helvetica,sans-Serif" font-size="12.00" fill="#000000">iostream</text>
</a>
</g>
</g>
<!-- Node3&#45;&gt;Node4 -->
<g id="edge3" class="edge">
<title>Node3&#45;&gt;Node4</title>
<path fill="none" stroke="#191970" d="M137.2012,-174.1732C136.0289,-149.4502 136.9577,-88.6234 171,-58 191.0018,-40.007 363.1213,-22.1224 443.705,-14.6458"/>
<polygon fill="#191970" stroke="#191970" points="444.3452,-18.1019 453.9835,-13.7027 443.7054,-11.1312 444.3452,-18.1019"/>
</g>
<!-- Node5 -->
<g id="node5" class="node">
<title>Node5</title>
<g id="a_node5"><a xlink:title=" ">
<polygon fill="none" stroke="#bfbfbf" points="293.5,-.5 293.5,-21.5 342.5,-21.5 342.5,-.5 293.5,-.5"/>
<text text-anchor="middle" x="318" y="-7.9" font-family="Helvetica,sans-Serif" font-size="12.00" fill="#000000">vector</text>
</a>
</g>
</g>
<!-- Node3&#45;&gt;Node5 -->
<g id="edge5" class="edge">
<title>Node3&#45;&gt;Node5</title>
<path fill="none" stroke="#191970" d="M106.928,-174.4022C79.2105,-162.9889 44.7536,-142.799 57,-116 73.3698,-80.1777 88.9858,-76.0337 124,-58 175.7551,-31.3442 243.1235,-19.4333 283.3283,-14.3941"/>
<polygon fill="#191970" stroke="#191970" points="283.9046,-17.8504 293.4253,-13.2021 283.0839,-10.8987 283.9046,-17.8504"/>
</g>
<!-- Node6 -->
<g id="node6" class="node">
<title>Node6</title>
<g id="a_node6"><a xlink:title=" ">
<polygon fill="none" stroke="#bfbfbf" points="66.5,-116.5 66.5,-137.5 109.5,-137.5 109.5,-116.5 66.5,-116.5"/>
<text text-anchor="middle" x="88" y="-123.9" font-family="Helvetica,sans-Serif" font-size="12.00" fill="#000000">tuple</text>
</a>
</g>
</g>
<!-- Node3&#45;&gt;Node6 -->
<g id="edge6" class="edge">
<title>Node3&#45;&gt;Node6</title>
<path fill="none" stroke="#191970" d="M128.8292,-174.3619C121.8516,-166.2678 112.0792,-154.9318 103.8445,-145.3796"/>
<polygon fill="#191970" stroke="#191970" points="106.293,-142.8595 97.1126,-137.5707 100.9911,-147.4301 106.293,-142.8595"/>
</g>
<!-- Node3&#45;&gt;Node7 -->
<g id="edge7" class="edge">
<title>Node3&#45;&gt;Node7</title>
<path fill="none" stroke="#191970" d="M170.6698,-178.8479C223.2806,-168.9407 327.3411,-149.3449 391.3801,-137.2856"/>
<polygon fill="#191970" stroke="#191970" points="392.1208,-140.7077 401.3003,-135.4175 390.8253,-133.8286 392.1208,-140.7077"/>
</g>
<!-- Node7&#45;&gt;Node2 -->
<g id="edge9" class="edge">
<title>Node7&#45;&gt;Node2</title>
<path fill="none" stroke="#191970" d="M401.1923,-117.6513C359.326,-108.7098 295.1736,-94.4794 240,-80 238.5821,-79.6279 237.1363,-79.2391 235.6778,-78.8391"/>
<polygon fill="#191970" stroke="#191970" points="236.6038,-75.4637 226.0279,-76.0966 234.6902,-82.1971 236.6038,-75.4637"/>
</g>
<!-- Node7&#45;&gt;Node4 -->
<g id="edge8" class="edge">
<title>Node7&#45;&gt;Node4</title>
<path fill="none" stroke="#191970" d="M449.5991,-116.2949C456.1001,-96.9588 469.8966,-55.9229 478.2165,-31.1767"/>
<polygon fill="#191970" stroke="#191970" points="481.5403,-32.2732 481.4096,-21.6792 474.9052,-30.0424 481.5403,-32.2732"/>
</g>
<!-- Node7&#45;&gt;Node5 -->
<g id="edge11" class="edge">
<title>Node7&#45;&gt;Node5</title>
<path fill="none" stroke="#191970" d="M401.1072,-117.7447C352.5352,-107.2794 280.916,-90.3535 273,-80 260.0109,-63.0113 277.549,-42.3276 294.3836,-28.0616"/>
<polygon fill="#191970" stroke="#191970" points="296.8232,-30.5925 302.4545,-21.6182 292.4558,-25.122 296.8232,-30.5925"/>
</g>
<!-- Node8 -->
<g id="node8" class="node">
<title>Node8</title>
<g id="a_node8"><a xlink:title=" ">
<polygon fill="none" stroke="#bfbfbf" points="282,-58.5 282,-79.5 338,-79.5 338,-58.5 282,-58.5"/>
<text text-anchor="middle" x="310" y="-65.9" font-family="Helvetica,sans-Serif" font-size="12.00" fill="#000000">fstream</text>
</a>
</g>
</g>
<!-- Node7&#45;&gt;Node8 -->
<g id="edge10" class="edge">
<title>Node7&#45;&gt;Node8</title>
<path fill="none" stroke="#191970" d="M421.3714,-116.4966C399.8429,-107.3154 368.3602,-93.8889 344.3554,-83.6516"/>
<polygon fill="#191970" stroke="#191970" points="345.4764,-80.3247 334.9049,-79.6212 342.7303,-86.7636 345.4764,-80.3247"/>
</g>
<!-- Node7&#45;&gt;Node9 -->
<g id="edge12" class="edge">
<title>Node7&#45;&gt;Node9</title>
<path fill="none" stroke="#191970" d="M458.4722,-116.3619C468.3453,-107.9408 482.3325,-96.0105 493.7984,-86.2308"/>
<polygon fill="#191970" stroke="#191970" points="496.2698,-88.7231 501.6068,-79.5707 491.7271,-83.3972 496.2698,-88.7231"/>
</g>
<!-- Node7&#45;&gt;Node10 -->
<g id="edge15" class="edge">
<title>Node7&#45;&gt;Node10</title>
<path fill="none" stroke="#191970" d="M436.0956,-116.3619C428.4836,-108.1861 417.792,-96.7025 408.843,-87.0907"/>
<polygon fill="#191970" stroke="#191970" points="411.2175,-84.5046 401.8416,-79.5707 406.0942,-89.2746 411.2175,-84.5046"/>
</g>
<!-- Node9&#45;&gt;Node4 -->
<g id="edge13" class="edge">
<title>Node9&#45;&gt;Node4</title>
<path fill="none" stroke="#191970" d="M508.681,-58.3619C504.7974,-50.5949 499.4213,-39.8426 494.7729,-30.5458"/>
<polygon fill="#191970" stroke="#191970" points="497.888,-28.9497 490.2853,-21.5707 491.627,-32.0802 497.888,-28.9497"/>
</g>
<!-- Node9&#45;&gt;Node5 -->
<g id="edge14" class="edge">
<title>Node9&#45;&gt;Node5</title>
<path fill="none" stroke="#191970" d="M484.2318,-60.191C448.8944,-49.7341 390.0596,-32.3238 352.6927,-21.2662"/>
<polygon fill="#191970" stroke="#191970" points="353.342,-17.8084 342.7599,-18.3269 351.3557,-24.5207 353.342,-17.8084"/>
</g>
<!-- Node10&#45;&gt;Node5 -->
<g id="edge16" class="edge">
<title>Node10&#45;&gt;Node5</title>
<path fill="none" stroke="#191970" d="M378.4273,-58.3619C367.5788,-49.859 352.1657,-37.7785 339.6215,-27.9466"/>
<polygon fill="#191970" stroke="#191970" points="341.5164,-24.9848 331.4867,-21.5707 337.1982,-30.4942 341.5164,-24.9848"/>
</g>
<!-- Node11&#45;&gt;Node2 -->
<g id="edge19" class="edge">
<title>Node11&#45;&gt;Node2</title>
<path fill="none" stroke="#191970" d="M392.3488,-348.4867C401.1604,-318.7456 422.1176,-232.3886 389,-174 356.5825,-116.8457 279.928,-88.5067 235.8077,-76.4756"/>
<polygon fill="#191970" stroke="#191970" points="236.6853,-73.0875 226.126,-73.9551 234.9216,-79.8617 236.6853,-73.0875"/>
</g>
<!-- Node11&#45;&gt;Node4 -->
<g id="edge18" class="edge">
<title>Node11&#45;&gt;Node4</title>
<path fill="none" stroke="#191970" d="M422.565,-353.4174C475.3956,-342.4981 572,-312.9657 572,-243 572,-243 572,-243 572,-127 572,-95.1919 571.4132,-83.9366 553,-58 543.7526,-44.9742 529.6907,-34.3901 516.7494,-26.5869"/>
<polygon fill="#191970" stroke="#191970" points="518.4647,-23.536 508.0421,-21.6332 515.0032,-29.6203 518.4647,-23.536"/>
</g>
<!-- Node11&#45;&gt;Node7 -->
<g id="edge29" class="edge">
<title>Node11&#45;&gt;Node7</title>
<path fill="none" stroke="#191970" d="M398.811,-348.3068C406.4615,-339.3138 416.6561,-325.7542 422,-312 443.9085,-255.6121 446.6234,-183.0223 446.49,-147.892"/>
<polygon fill="#191970" stroke="#191970" points="449.9896,-147.8267 446.3673,-137.8703 442.9901,-147.9124 449.9896,-147.8267"/>
</g>
<!-- Node12 -->
<g id="node12" class="node">
<title>Node12</title>
<g id="a_node12"><a xlink:href="../../de/d98/CUser_8h.html" target="_top" xlink:title=" ">
<polygon fill="none" stroke="#000000" points="318.5,-174.5 318.5,-195.5 379.5,-195.5 379.5,-174.5 318.5,-174.5"/>
<text text-anchor="middle" x="349" y="-181.9" font-family="Helvetica,sans-Serif" font-size="12.00" fill="#000000">CUser.h</text>
</a>
</g>
</g>
<!-- Node11&#45;&gt;Node12 -->
<g id="edge20" class="edge">
<title>Node11&#45;&gt;Node12</title>
<path fill="none" stroke="#191970" d="M386.558,-348.3774C380.074,-320.1719 362.3361,-243.0121 353.7633,-205.7203"/>
<polygon fill="#191970" stroke="#191970" points="357.1636,-204.8893 351.5121,-195.9277 350.3416,-206.4577 357.1636,-204.8893"/>
</g>
<!-- Node11&#45;&gt;Node13 -->
<g id="edge22" class="edge">
<title>Node11&#45;&gt;Node13</title>
<path fill="none" stroke="#191970" d="M371.2087,-348.3619C356.4415,-339.532 335.2218,-326.844 318.4616,-316.8224"/>
<polygon fill="#191970" stroke="#191970" points="320.0574,-313.6987 309.6785,-311.5707 316.4651,-319.7066 320.0574,-313.6987"/>
</g>
<!-- Node12&#45;&gt;Node2 -->
<g id="edge21" class="edge">
<title>Node12&#45;&gt;Node2</title>
<path fill="none" stroke="#191970" d="M336.5137,-174.2702C320.417,-160.5194 291.4651,-136.0613 266,-116 252.8891,-105.6713 237.9251,-94.4834 225.8717,-85.615"/>
<polygon fill="#191970" stroke="#191970" points="227.813,-82.6985 217.6774,-79.6129 223.6766,-88.3457 227.813,-82.6985"/>
</g>
<!-- Node13&#45;&gt;Node2 -->
<g id="edge28" class="edge">
<title>Node13&#45;&gt;Node2</title>
<path fill="none" stroke="#191970" d="M289.2458,-290.1271C285.6864,-276.4328 279.098,-252.2439 272,-232 253.5387,-179.3477 246.0493,-167.2534 224,-116 220.1834,-107.1284 215.8471,-97.3718 212.1098,-89.0583"/>
<polygon fill="#191970" stroke="#191970" points="215.2295,-87.4625 207.9235,-79.7896 208.8501,-90.3439 215.2295,-87.4625"/>
</g>
<!-- Node13&#45;&gt;Node14 -->
<g id="edge23" class="edge">
<title>Node13&#45;&gt;Node14</title>
<path fill="none" stroke="#191970" d="M280.078,-290.3619C270.6405,-281.9408 257.2704,-270.0105 246.3104,-260.2308"/>
<polygon fill="#191970" stroke="#191970" points="248.6381,-257.6171 238.8464,-253.5707 243.9776,-262.8401 248.6381,-257.6171"/>
</g>
<!-- Node14&#45;&gt;Node2 -->
<g id="edge26" class="edge">
<title>Node14&#45;&gt;Node2</title>
<path fill="none" stroke="#191970" d="M225.5348,-232.3774C221.6611,-204.293 211.0929,-127.6735 205.9245,-90.2027"/>
<polygon fill="#191970" stroke="#191970" points="209.3409,-89.3557 204.5073,-79.9277 202.4066,-90.3122 209.3409,-89.3557"/>
</g>
<!-- Node14&#45;&gt;Node3 -->
<g id="edge27" class="edge">
<title>Node14&#45;&gt;Node3</title>
<path fill="none" stroke="#191970" d="M210.676,-232.3619C197.2522,-223.6138 178.0171,-211.0786 162.7074,-201.1015"/>
<polygon fill="#191970" stroke="#191970" points="164.5094,-198.0982 154.2205,-195.5707 160.6875,-203.9628 164.5094,-198.0982"/>
</g>
<!-- Node14&#45;&gt;Node7 -->
<g id="edge25" class="edge">
<title>Node14&#45;&gt;Node7</title>
<path fill="none" stroke="#191970" d="M237.3274,-232.2471C252.165,-217.337 280.941,-190.3746 310,-174 335.9563,-159.3737 367.2451,-148.1746 393.2644,-140.3839"/>
<polygon fill="#191970" stroke="#191970" points="394.3318,-143.7186 402.9564,-137.5649 392.3768,-136.9971 394.3318,-143.7186"/>
</g>
<!-- Node14&#45;&gt;Node12 -->
<g id="edge24" class="edge">
<title>Node14&#45;&gt;Node12</title>
<path fill="none" stroke="#191970" d="M249.0933,-232.4966C268.234,-223.397 296.1461,-210.1273 317.6053,-199.9253"/>
<polygon fill="#191970" stroke="#191970" points="319.1302,-203.0758 326.6588,-195.6212 316.1247,-196.7539 319.1302,-203.0758"/>
</g>
<!-- Node15&#45;&gt;Node2 -->
<g id="edge31" class="edge">
<title>Node15&#45;&gt;Node2</title>
<path fill="none" stroke="#191970" d="M56.6486,-232.1921C47.9052,-208.5409 31.1489,-151.4795 57,-116 70.423,-97.5776 131.1886,-82.7754 169.9724,-74.9904"/>
<polygon fill="#191970" stroke="#191970" points="170.6492,-78.4245 179.7937,-73.0739 169.3085,-71.554 170.6492,-78.4245"/>
</g>
<!-- Node15&#45;&gt;Node3 -->
<g id="edge32" class="edge">
<title>Node15&#45;&gt;Node3</title>
<path fill="none" stroke="#191970" d="M75.123,-232.3619C86.5198,-223.7773 102.7581,-211.5459 115.8777,-201.6636"/>
<polygon fill="#191970" stroke="#191970" points="118.0848,-204.3829 123.9665,-195.5707 113.8732,-198.7916 118.0848,-204.3829"/>
</g>
<!-- Node16&#45;&gt;Node3 -->
<g id="edge34" class="edge">
<title>Node16&#45;&gt;Node3</title>
<path fill="none" stroke="#191970" d="M119.8457,-290.2949C123.1498,-271.1314 130.1286,-230.654 134.4063,-205.8434"/>
<polygon fill="#191970" stroke="#191970" points="137.9087,-206.1285 136.1588,-195.6792 131.0105,-204.9391 137.9087,-206.1285"/>
</g>
</g>
</svg>
        <g id="navigator" transform="translate(0 0)" fill="#404254">
                <rect fill="#f2f5e9" fill-opacity="0.5" stroke="#606060" stroke-width=".5" x="0" y="0" width="60" height="60"/>
                <use id="zoomplus" xlink:href="#zoomPlus" x="17" y="9" onmousedown="handleZoom(evt,'in')"/>
                <use id="zoomminus" xlink:href="#zoomMin" x="42" y="9" onmousedown="handleZoom(evt,'out')"/>
                <use id="reset" xlink:href="#resetDef" x="30" y="36" onmousedown="handleReset()"/>
                <g id="arrowUp" xlink:href="#dirArrow" transform="translate(30 24)" onmousedown="handlePan(0,-1)">
                  <use xlink:href="#rim" fill="#404040">
                        <set attributeName="fill" to="#808080" begin="arrowUp.mouseover" end="arrowUp.mouseout"/>
                  </use>
                  <path fill="none" stroke="white" stroke-width="1.5" d="M0,-3.0v7 M-2.5,-0.5L0,-3.0L2.5,-0.5"/>
                </g>
                <g id="arrowRight" xlink:href="#dirArrow" transform="rotate(90) translate(36 -43)" onmousedown="handlePan(1,0)">
                  <use xlink:href="#rim" fill="#404040">
                        <set attributeName="fill" to="#808080" begin="arrowRight.mouseover" end="arrowRight.mouseout"/>
                  </use>
                  <path fill="none" stroke="white" stroke-width="1.5" d="M0,-3.0v7 M-2.5,-0.5L0,-3.0L2.5,-0.5"/>
                </g>
                <g id="arrowDown" xlink:href="#dirArrow" transform="rotate(180) translate(-30 -48)" onmousedown="handlePan(0,1)">
                  <use xlink:href="#rim" fill="#404040">
                        <set attributeName="fill" to="#808080" begin="arrowDown.mouseover" end="arrowDown.mouseout"/>
                  </use>
                  <path fill="none" stroke="white" stroke-width="1.5" d="M0,-3.0v7 M-2.5,-0.5L0,-3.0L2.5,-0.5"/>
                </g>
                <g id="arrowLeft" xlink:href="#dirArrow" transform="rotate(270) translate(-36 17)" onmousedown="handlePan(-1,0)">
                  <use xlink:href="#rim" fill="#404040">
                        <set attributeName="fill" to="#808080" begin="arrowLeft.mouseover" end="arrowLeft.mouseout"/>
                  </use>
                  <path fill="none" stroke="white" stroke-width="1.5" d="M0,-3.0v7 M-2.5,-0.5L0,-3.0L2.5,-0.5"/>
                </g>
        </g>
        <svg viewBox="0 0 15 15" width="100%" height="30px" preserveAspectRatio="xMaxYMin meet">
         <g id="arrow_out" transform="scale(0.3 0.3)">
          <a xlink:href="CPortfolio_8h__incl_org.svg" target="_base">
           <rect id="button" ry="5" rx="5" y="6" x="6" height="38" width="38"
                fill="#f2f5e9" fill-opacity="0.5" stroke="#606060" stroke-width="1.0"/>
           <path id="arrow"
             d="M 11.500037,31.436501 C 11.940474,20.09759 22.043105,11.32322 32.158766,21.979434 L 37.068811,17.246167 C 37.068811,17.246167 37.088388,32 37.088388,32 L 22.160133,31.978069 C 22.160133,31.978069 26.997745,27.140456 26.997745,27.140456 C 18.528582,18.264221 13.291696,25.230495 11.500037,31.436501 z"
             style="fill:#404040;"/>
          </a>
         </g>
        </svg>
</svg>
