<?xml version="1.0" encoding="UTF-8" standalone="no"?>
<!DOCTYPE svg PUBLIC "-//W3C//DTD SVG 1.1//EN"
 "http://www.w3.org/Graphics/SVG/1.1/DTD/svg11.dtd">
<!-- Generated by graphviz version 2.40.1 (20161225.0304)
 -->
<!-- Title: CAsset Pages: 1 -->
<!--zoomable 468 -->
<svg id="main" version="1.1" xmlns="http://www.w3.org/2000/svg" xmlns:xlink="http://www.w3.org/1999/xlink" xml:space="preserve" onload="init(evt)">
<style type="text/css"><![CDATA[
.edge:hover path { stroke: red; }
.edge:hover polygon { stroke: red; fill: red; }
]]></style>
<script type="text/javascript"><![CDATA[
var edges = document.getElementsByTagName('g');
if (edges && edges.length) {
  for (var i=0;i<edges.length;i++) {
    if (edges[i].id.substr(0,4)=='edge') {
      edges[i].setAttribute('class','edge');
    }
  }
}
]]></script>
        <defs>
                <circle id="rim" cx="0" cy="0" r="7"/>
                <circle id="rim2" cx="0" cy="0" r="3.5"/>
                <g id="zoomPlus">
                        <use xlink:href="#rim" fill="#404040">
                                <set attributeName="fill" to="#808080" begin="zoomplus.mouseover" end="zoomplus.mouseout"/>
                        </use>
                        <path d="M-4,0h8M0,-4v8" fill="none" stroke="white" stroke-width="1.5" pointer-events="none"/>
                </g>
                <g id="zoomMin">
                        <use xlink:href="#rim" fill="#404040">
                                <set attributeName="fill" to="#808080" begin="zoomminus.mouseover" end="zoomminus.mouseout"/>
                        </use>
                        <path d="M-4,0h8" fill="none" stroke="white" stroke-width="1.5" pointer-events="none"/>
                </g>
                <g id="dirArrow">
                        <path fill="none" stroke="white" stroke-width="1.5" d="M0,-3.0v7 M-2.5,-0.5L0,-3.0L2.5,-0.5"/>
                </g>
               <g id="resetDef">
                       <use xlink:href="#rim2" fill="#404040">
                               <set attributeName="fill" to="#808080" begin="reset.mouseover" end="reset.mouseout"/>
                       </use>
               </g>
        </defs>

<script type="text/javascript">
var viewWidth = 379;
var viewHeight = 468;
var sectionId = 'dynsection-1';
</script>
<script xlink:href="../../svgpan.js"/>
<svg id="graph" class="graph">
<g id="viewport">
<title>CAsset</title>
<!-- Node1 -->
<g id="node1" class="node">
<title>Node1</title>
<g id="a_node1"><a xlink:title="This class is pure virtual class and from it are inhereted those class: CPortfolio,...">
<polygon fill="#bfbfbf" stroke="#000000" points="62.5,-.5 62.5,-193.5 226.5,-193.5 226.5,-.5 62.5,-.5"/>
<text text-anchor="middle" x="144.5" y="-179.9" font-family="Helvetica,sans-Serif" font-size="12.00" fill="#000000">CAsset</text>
<polyline fill="none" stroke="#000000" points="62.5,-172.5 226.5,-172.5 "/>
<text text-anchor="middle" x="144.5" y="-158.9" font-family="Helvetica,sans-Serif" font-size="12.00" fill="#000000"> </text>
<polyline fill="none" stroke="#000000" points="62.5,-151.5 226.5,-151.5 "/>
<text text-anchor="start" x="70.5" y="-137.9" font-family="Helvetica,sans-Serif" font-size="12.00" fill="#000000">+ CAsset()</text>
<text text-anchor="start" x="70.5" y="-124.9" font-family="Helvetica,sans-Serif" font-size="12.00" fill="#000000">+ CAsset()</text>
<text text-anchor="start" x="70.5" y="-111.9" font-family="Helvetica,sans-Serif" font-size="12.00" fill="#000000">+ getMStrAssetName()</text>
<text text-anchor="start" x="70.5" y="-98.9" font-family="Helvetica,sans-Serif" font-size="12.00" fill="#000000">+ getFromBase()</text>
<text text-anchor="start" x="70.5" y="-85.9" font-family="Helvetica,sans-Serif" font-size="12.00" fill="#000000">+ printAssetInfo()</text>
<text text-anchor="start" x="70.5" y="-72.9" font-family="Helvetica,sans-Serif" font-size="12.00" fill="#000000">+ slice()</text>
<text text-anchor="start" x="70.5" y="-59.9" font-family="Helvetica,sans-Serif" font-size="12.00" fill="#000000">+ returnOfAsset()</text>
<text text-anchor="start" x="70.5" y="-46.9" font-family="Helvetica,sans-Serif" font-size="12.00" fill="#000000">+ meanOfAsset()</text>
<text text-anchor="start" x="70.5" y="-33.9" font-family="Helvetica,sans-Serif" font-size="12.00" fill="#000000">+ returnAndMeanDiffrence()</text>
<text text-anchor="start" x="70.5" y="-20.9" font-family="Helvetica,sans-Serif" font-size="12.00" fill="#000000">+ riskOfAsset()</text>
<text text-anchor="start" x="70.5" y="-7.9" font-family="Helvetica,sans-Serif" font-size="12.00" fill="#000000">+ ~CAsset()</text>
</a>
</g>
</g>
<!-- Node2 -->
<g id="node2" class="node">
<title>Node2</title>
<g id="a_node2"><a xlink:title=" ">
<polygon fill="none" stroke="#bfbfbf" points="0,-282.5 0,-345.5 53,-345.5 53,-282.5 0,-282.5"/>
<text text-anchor="middle" x="26.5" y="-331.9" font-family="Helvetica,sans-Serif" font-size="12.00" fill="#000000">double</text>
<polyline fill="none" stroke="#bfbfbf" points="0,-324.5 53,-324.5 "/>
<text text-anchor="middle" x="26.5" y="-310.9" font-family="Helvetica,sans-Serif" font-size="12.00" fill="#000000"> </text>
<polyline fill="none" stroke="#bfbfbf" points="0,-303.5 53,-303.5 "/>
<text text-anchor="middle" x="26.5" y="-289.9" font-family="Helvetica,sans-Serif" font-size="12.00" fill="#000000"> </text>
</a>
</g>
</g>
<!-- Node2&#45;&gt;Node1 -->
<g id="edge1" class="edge">
<title>Node2&#45;&gt;Node1</title>
<path fill="none" stroke="#404040" d="M28.1234,-282.3335C30.2005,-261.4925 34.9003,-234.0857 45.5,-212 48.5305,-205.6857 51.9992,-199.4426 55.7825,-193.324"/>
<polygon fill="none" stroke="#404040" points="55.8629,-193.2009 55.7948,-185.9901 62.4247,-183.1538 62.4928,-190.3646 55.8629,-193.2009"/>
<text text-anchor="middle" x="93" y="-254.4" font-family="Helvetica,sans-Serif" font-size="12.00" fill="#000000"> &#45;m_dDayGain</text>
<text text-anchor="middle" x="93" y="-241.4" font-family="Helvetica,sans-Serif" font-size="12.00" fill="#000000">&#45;m_dMarketValue</text>
<text text-anchor="middle" x="93" y="-228.4" font-family="Helvetica,sans-Serif" font-size="12.00" fill="#000000">&#45;m_dTotalGain</text>
<text text-anchor="middle" x="93" y="-215.4" font-family="Helvetica,sans-Serif" font-size="12.00" fill="#000000">&#45;m_dAmount</text>
</g>
<!-- Node3 -->
<g id="node3" class="node">
<title>Node3</title>
<g id="a_node3"><a xlink:title=" ">
<polygon fill="none" stroke="#bfbfbf" points="130,-282.5 130,-345.5 159,-345.5 159,-282.5 130,-282.5"/>
<text text-anchor="middle" x="144.5" y="-331.9" font-family="Helvetica,sans-Serif" font-size="12.00" fill="#000000">int</text>
<polyline fill="none" stroke="#bfbfbf" points="130,-324.5 159,-324.5 "/>
<text text-anchor="middle" x="144.5" y="-310.9" font-family="Helvetica,sans-Serif" font-size="12.00" fill="#000000"> </text>
<polyline fill="none" stroke="#bfbfbf" points="130,-303.5 159,-303.5 "/>
<text text-anchor="middle" x="144.5" y="-289.9" font-family="Helvetica,sans-Serif" font-size="12.00" fill="#000000"> </text>
</a>
</g>
</g>
<!-- Node3&#45;&gt;Node1 -->
<g id="edge2" class="edge">
<title>Node3&#45;&gt;Node1</title>
<path fill="none" stroke="#404040" d="M144.5,-282.4463C144.5,-262.0697 144.5,-234.2333 144.5,-206.3242"/>
<polygon fill="none" stroke="#404040" points="144.5001,-205.9532 140.5,-199.9532 144.5,-193.9532 148.5,-199.9532 144.5001,-205.9532"/>
<text text-anchor="middle" x="200.5" y="-234.9" font-family="Helvetica,sans-Serif" font-size="12.00" fill="#000000"> &#45;m_nPredictionDays</text>
</g>
<!-- Node4 -->
<g id="node4" class="node">
<title>Node4</title>
<g id="a_node4"><a xlink:title="STL class.">
<polygon fill="none" stroke="#bfbfbf" points="245.5,-282.5 245.5,-345.5 313.5,-345.5 313.5,-282.5 245.5,-282.5"/>
<text text-anchor="middle" x="279.5" y="-331.9" font-family="Helvetica,sans-Serif" font-size="12.00" fill="#000000">std::string</text>
<polyline fill="none" stroke="#bfbfbf" points="245.5,-324.5 313.5,-324.5 "/>
<text text-anchor="middle" x="279.5" y="-310.9" font-family="Helvetica,sans-Serif" font-size="12.00" fill="#000000"> </text>
<polyline fill="none" stroke="#bfbfbf" points="245.5,-303.5 313.5,-303.5 "/>
<text text-anchor="middle" x="279.5" y="-289.9" font-family="Helvetica,sans-Serif" font-size="12.00" fill="#000000"> </text>
</a>
</g>
</g>
<!-- Node4&#45;&gt;Node1 -->
<g id="edge3" class="edge">
<title>Node4&#45;&gt;Node1</title>
<path fill="none" stroke="#404040" d="M277.2378,-282.0696C274.6714,-261.1172 269.1932,-233.6854 257.5,-212 251.1295,-200.1857 243.1807,-188.7623 234.4684,-177.998"/>
<polygon fill="none" stroke="#404040" points="234.3744,-177.8866 227.448,-175.8801 226.6361,-168.7149 233.5624,-170.7213 234.3744,-177.8866"/>
<text text-anchor="middle" x="322.5" y="-247.9" font-family="Helvetica,sans-Serif" font-size="12.00" fill="#000000"> &#45;m_strTradeDate</text>
<text text-anchor="middle" x="322.5" y="-234.9" font-family="Helvetica,sans-Serif" font-size="12.00" fill="#000000">&#45;m_strAssetName</text>
<text text-anchor="middle" x="322.5" y="-221.9" font-family="Helvetica,sans-Serif" font-size="12.00" fill="#000000">&#45;m_strSymbol</text>
</g>
<!-- Node5 -->
<g id="node5" class="node">
<title>Node5</title>
<g id="a_node5"><a xlink:title="STL class.">
<polygon fill="none" stroke="#bfbfbf" points="224.5,-383.5 224.5,-459.5 334.5,-459.5 334.5,-383.5 224.5,-383.5"/>
<text text-anchor="start" x="232.5" y="-445.9" font-family="Helvetica,sans-Serif" font-size="12.00" fill="#000000">std::basic_string&lt;</text>
<text text-anchor="middle" x="279.5" y="-432.9" font-family="Helvetica,sans-Serif" font-size="12.00" fill="#000000"> char &gt;</text>
<polyline fill="none" stroke="#bfbfbf" points="224.5,-425.5 334.5,-425.5 "/>
<text text-anchor="middle" x="279.5" y="-411.9" font-family="Helvetica,sans-Serif" font-size="12.00" fill="#000000"> </text>
<polyline fill="none" stroke="#bfbfbf" points="224.5,-404.5 334.5,-404.5 "/>
<text text-anchor="middle" x="279.5" y="-390.9" font-family="Helvetica,sans-Serif" font-size="12.00" fill="#000000"> </text>
</a>
</g>
</g>
<!-- Node5&#45;&gt;Node4 -->
<g id="edge4" class="edge">
<title>Node5&#45;&gt;Node4</title>
<path fill="none" stroke="#191970" d="M279.5,-373.2888C279.5,-363.9337 279.5,-354.3524 279.5,-345.6948"/>
<polygon fill="none" stroke="#191970" points="276.0001,-373.2968 279.5,-383.2968 283.0001,-373.2969 276.0001,-373.2968"/>
</g>
</g>
</svg>
        <g id="navigator" transform="translate(0 0)" fill="#404254">
                <rect fill="#f2f5e9" fill-opacity="0.5" stroke="#606060" stroke-width=".5" x="0" y="0" width="60" height="60"/>
                <use id="zoomplus" xlink:href="#zoomPlus" x="17" y="9" onmousedown="handleZoom(evt,'in')"/>
                <use id="zoomminus" xlink:href="#zoomMin" x="42" y="9" onmousedown="handleZoom(evt,'out')"/>
                <use id="reset" xlink:href="#resetDef" x="30" y="36" onmousedown="handleReset()"/>
                <g id="arrowUp" xlink:href="#dirArrow" transform="translate(30 24)" onmousedown="handlePan(0,-1)">
                  <use xlink:href="#rim" fill="#404040">
                        <set attributeName="fill" to="#808080" begin="arrowUp.mouseover" end="arrowUp.mouseout"/>
                  </use>
                  <path fill="none" stroke="white" stroke-width="1.5" d="M0,-3.0v7 M-2.5,-0.5L0,-3.0L2.5,-0.5"/>
                </g>
                <g id="arrowRight" xlink:href="#dirArrow" transform="rotate(90) translate(36 -43)" onmousedown="handlePan(1,0)">
                  <use xlink:href="#rim" fill="#404040">
                        <set attributeName="fill" to="#808080" begin="arrowRight.mouseover" end="arrowRight.mouseout"/>
                  </use>
                  <path fill="none" stroke="white" stroke-width="1.5" d="M0,-3.0v7 M-2.5,-0.5L0,-3.0L2.5,-0.5"/>
                </g>
                <g id="arrowDown" xlink:href="#dirArrow" transform="rotate(180) translate(-30 -48)" onmousedown="handlePan(0,1)">
                  <use xlink:href="#rim" fill="#404040">
                        <set attributeName="fill" to="#808080" begin="arrowDown.mouseover" end="arrowDown.mouseout"/>
                  </use>
                  <path fill="none" stroke="white" stroke-width="1.5" d="M0,-3.0v7 M-2.5,-0.5L0,-3.0L2.5,-0.5"/>
                </g>
                <g id="arrowLeft" xlink:href="#dirArrow" transform="rotate(270) translate(-36 17)" onmousedown="handlePan(-1,0)">
                  <use xlink:href="#rim" fill="#404040">
                        <set attributeName="fill" to="#808080" begin="arrowLeft.mouseover" end="arrowLeft.mouseout"/>
                  </use>
                  <path fill="none" stroke="white" stroke-width="1.5" d="M0,-3.0v7 M-2.5,-0.5L0,-3.0L2.5,-0.5"/>
                </g>
        </g>
        <svg viewBox="0 0 15 15" width="100%" height="30px" preserveAspectRatio="xMaxYMin meet">
         <g id="arrow_out" transform="scale(0.3 0.3)">
          <a xlink:href="classCAsset__coll__graph_org.svg" target="_base">
           <rect id="button" ry="5" rx="5" y="6" x="6" height="38" width="38"
                fill="#f2f5e9" fill-opacity="0.5" stroke="#606060" stroke-width="1.0"/>
           <path id="arrow"
             d="M 11.500037,31.436501 C 11.940474,20.09759 22.043105,11.32322 32.158766,21.979434 L 37.068811,17.246167 C 37.068811,17.246167 37.088388,32 37.088388,32 L 22.160133,31.978069 C 22.160133,31.978069 26.997745,27.140456 26.997745,27.140456 C 18.528582,18.264221 13.291696,25.230495 11.500037,31.436501 z"
             style="fill:#404040;"/>
          </a>
         </g>
        </svg>
</svg>
