<?xml version="1.0" encoding="UTF-8" standalone="no"?>
<!DOCTYPE svg PUBLIC "-//W3C//DTD SVG 1.1//EN"
 "http://www.w3.org/Graphics/SVG/1.1/DTD/svg11.dtd">
<!-- Generated by graphviz version 2.40.1 (20161225.0304)
 -->
<!-- Title: CAsset Pages: 1 -->
<svg width="379pt" height="468pt"
 viewBox="0.00 0.00 378.50 468.00" xmlns="http://www.w3.org/2000/svg" xmlns:xlink="http://www.w3.org/1999/xlink">
<g id="graph0" class="graph" transform="scale(1 1) rotate(0) translate(4 464)">
<title>CAsset</title>
<!-- Node1 -->
<g id="node1" class="node">
<title>Node1</title>
<g id="a_node1"><a xlink:title="This class is pure virtual class and from it are inhereted those class: CPortfolio,...">
<polygon fill="#bfbfbf" stroke="#000000" points="62.5,-.5 62.5,-193.5 226.5,-193.5 226.5,-.5 62.5,-.5"/>
<text text-anchor="middle" x="144.5" y="-179.9" font-family="Helvetica,sans-Serif" font-size="12.00" fill="#000000">CAsset</text>
<polyline fill="none" stroke="#000000" points="62.5,-172.5 226.5,-172.5 "/>
<text text-anchor="middle" x="144.5" y="-158.9" font-family="Helvetica,sans-Serif" font-size="12.00" fill="#000000"> </text>
<polyline fill="none" stroke="#000000" points="62.5,-151.5 226.5,-151.5 "/>
<text text-anchor="start" x="70.5" y="-137.9" font-family="Helvetica,sans-Serif" font-size="12.00" fill="#000000">+ CAsset()</text>
<text text-anchor="start" x="70.5" y="-124.9" font-family="Helvetica,sans-Serif" font-size="12.00" fill="#000000">+ CAsset()</text>
<text text-anchor="start" x="70.5" y="-111.9" font-family="Helvetica,sans-Serif" font-size="12.00" fill="#000000">+ getMStrAssetName()</text>
<text text-anchor="start" x="70.5" y="-98.9" font-family="Helvetica,sans-Serif" font-size="12.00" fill="#000000">+ getFromBase()</text>
<text text-anchor="start" x="70.5" y="-85.9" font-family="Helvetica,sans-Serif" font-size="12.00" fill="#000000">+ printAssetInfo()</text>
<text text-anchor="start" x="70.5" y="-72.9" font-family="Helvetica,sans-Serif" font-size="12.00" fill="#000000">+ slice()</text>
<text text-anchor="start" x="70.5" y="-59.9" font-family="Helvetica,sans-Serif" font-size="12.00" fill="#000000">+ returnOfAsset()</text>
<text text-anchor="start" x="70.5" y="-46.9" font-family="Helvetica,sans-Serif" font-size="12.00" fill="#000000">+ meanOfAsset()</text>
<text text-anchor="start" x="70.5" y="-33.9" font-family="Helvetica,sans-Serif" font-size="12.00" fill="#000000">+ returnAndMeanDiffrence()</text>
<text text-anchor="start" x="70.5" y="-20.9" font-family="Helvetica,sans-Serif" font-size="12.00" fill="#000000">+ riskOfAsset()</text>
<text text-anchor="start" x="70.5" y="-7.9" font-family="Helvetica,sans-Serif" font-size="12.00" fill="#000000">+ ~CAsset()</text>
</a>
</g>
</g>
<!-- Node2 -->
<g id="node2" class="node">
<title>Node2</title>
<g id="a_node2"><a xlink:title=" ">
<polygon fill="none" stroke="#bfbfbf" points="0,-282.5 0,-345.5 53,-345.5 53,-282.5 0,-282.5"/>
<text text-anchor="middle" x="26.5" y="-331.9" font-family="Helvetica,sans-Serif" font-size="12.00" fill="#000000">double</text>
<polyline fill="none" stroke="#bfbfbf" points="0,-324.5 53,-324.5 "/>
<text text-anchor="middle" x="26.5" y="-310.9" font-family="Helvetica,sans-Serif" font-size="12.00" fill="#000000"> </text>
<polyline fill="none" stroke="#bfbfbf" points="0,-303.5 53,-303.5 "/>
<text text-anchor="middle" x="26.5" y="-289.9" font-family="Helvetica,sans-Serif" font-size="12.00" fill="#000000"> </text>
</a>
</g>
</g>
<!-- Node2&#45;&gt;Node1 -->
<g id="edge1" class="edge">
<title>Node2&#45;&gt;Node1</title>
<path fill="none" stroke="#404040" d="M28.1234,-282.3335C30.2005,-261.4925 34.9003,-234.0857 45.5,-212 48.5305,-205.6857 51.9992,-199.4426 55.7825,-193.324"/>
<polygon fill="none" stroke="#404040" points="55.8629,-193.2009 55.7948,-185.9901 62.4247,-183.1538 62.4928,-190.3646 55.8629,-193.2009"/>
<text text-anchor="middle" x="93" y="-254.4" font-family="Helvetica,sans-Serif" font-size="12.00" fill="#000000"> &#45;m_dDayGain</text>
<text text-anchor="middle" x="93" y="-241.4" font-family="Helvetica,sans-Serif" font-size="12.00" fill="#000000">&#45;m_dMarketValue</text>
<text text-anchor="middle" x="93" y="-228.4" font-family="Helvetica,sans-Serif" font-size="12.00" fill="#000000">&#45;m_dTotalGain</text>
<text text-anchor="middle" x="93" y="-215.4" font-family="Helvetica,sans-Serif" font-size="12.00" fill="#000000">&#45;m_dAmount</text>
</g>
<!-- Node3 -->
<g id="node3" class="node">
<title>Node3</title>
<g id="a_node3"><a xlink:title=" ">
<polygon fill="none" stroke="#bfbfbf" points="130,-282.5 130,-345.5 159,-345.5 159,-282.5 130,-282.5"/>
<text text-anchor="middle" x="144.5" y="-331.9" font-family="Helvetica,sans-Serif" font-size="12.00" fill="#000000">int</text>
<polyline fill="none" stroke="#bfbfbf" points="130,-324.5 159,-324.5 "/>
<text text-anchor="middle" x="144.5" y="-310.9" font-family="Helvetica,sans-Serif" font-size="12.00" fill="#000000"> </text>
<polyline fill="none" stroke="#bfbfbf" points="130,-303.5 159,-303.5 "/>
<text text-anchor="middle" x="144.5" y="-289.9" font-family="Helvetica,sans-Serif" font-size="12.00" fill="#000000"> </text>
</a>
</g>
</g>
<!-- Node3&#45;&gt;Node1 -->
<g id="edge2" class="edge">
<title>Node3&#45;&gt;Node1</title>
<path fill="none" stroke="#404040" d="M144.5,-282.4463C144.5,-262.0697 144.5,-234.2333 144.5,-206.3242"/>
<polygon fill="none" stroke="#404040" points="144.5001,-205.9532 140.5,-199.9532 144.5,-193.9532 148.5,-199.9532 144.5001,-205.9532"/>
<text text-anchor="middle" x="200.5" y="-234.9" font-family="Helvetica,sans-Serif" font-size="12.00" fill="#000000"> &#45;m_nPredictionDays</text>
</g>
<!-- Node4 -->
<g id="node4" class="node">
<title>Node4</title>
<g id="a_node4"><a xlink:title="STL class.">
<polygon fill="none" stroke="#bfbfbf" points="245.5,-282.5 245.5,-345.5 313.5,-345.5 313.5,-282.5 245.5,-282.5"/>
<text text-anchor="middle" x="279.5" y="-331.9" font-family="Helvetica,sans-Serif" font-size="12.00" fill="#000000">std::string</text>
<polyline fill="none" stroke="#bfbfbf" points="245.5,-324.5 313.5,-324.5 "/>
<text text-anchor="middle" x="279.5" y="-310.9" font-family="Helvetica,sans-Serif" font-size="12.00" fill="#000000"> </text>
<polyline fill="none" stroke="#bfbfbf" points="245.5,-303.5 313.5,-303.5 "/>
<text text-anchor="middle" x="279.5" y="-289.9" font-family="Helvetica,sans-Serif" font-size="12.00" fill="#000000"> </text>
</a>
</g>
</g>
<!-- Node4&#45;&gt;Node1 -->
<g id="edge3" class="edge">
<title>Node4&#45;&gt;Node1</title>
<path fill="none" stroke="#404040" d="M277.2378,-282.0696C274.6714,-261.1172 269.1932,-233.6854 257.5,-212 251.1295,-200.1857 243.1807,-188.7623 234.4684,-177.998"/>
<polygon fill="none" stroke="#404040" points="234.3744,-177.8866 227.448,-175.8801 226.6361,-168.7149 233.5624,-170.7213 234.3744,-177.8866"/>
<text text-anchor="middle" x="322.5" y="-247.9" font-family="Helvetica,sans-Serif" font-size="12.00" fill="#000000"> &#45;m_strTradeDate</text>
<text text-anchor="middle" x="322.5" y="-234.9" font-family="Helvetica,sans-Serif" font-size="12.00" fill="#000000">&#45;m_strAssetName</text>
<text text-anchor="middle" x="322.5" y="-221.9" font-family="Helvetica,sans-Serif" font-size="12.00" fill="#000000">&#45;m_strSymbol</text>
</g>
<!-- Node5 -->
<g id="node5" class="node">
<title>Node5</title>
<g id="a_node5"><a xlink:title="STL class.">
<polygon fill="none" stroke="#bfbfbf" points="224.5,-383.5 224.5,-459.5 334.5,-459.5 334.5,-383.5 224.5,-383.5"/>
<text text-anchor="start" x="232.5" y="-445.9" font-family="Helvetica,sans-Serif" font-size="12.00" fill="#000000">std::basic_string&lt;</text>
<text text-anchor="middle" x="279.5" y="-432.9" font-family="Helvetica,sans-Serif" font-size="12.00" fill="#000000"> char &gt;</text>
<polyline fill="none" stroke="#bfbfbf" points="224.5,-425.5 334.5,-425.5 "/>
<text text-anchor="middle" x="279.5" y="-411.9" font-family="Helvetica,sans-Serif" font-size="12.00" fill="#000000"> </text>
<polyline fill="none" stroke="#bfbfbf" points="224.5,-404.5 334.5,-404.5 "/>
<text text-anchor="middle" x="279.5" y="-390.9" font-family="Helvetica,sans-Serif" font-size="12.00" fill="#000000"> </text>
</a>
</g>
</g>
<!-- Node5&#45;&gt;Node4 -->
<g id="edge4" class="edge">
<title>Node5&#45;&gt;Node4</title>
<path fill="none" stroke="#191970" d="M279.5,-373.2888C279.5,-363.9337 279.5,-354.3524 279.5,-345.6948"/>
<polygon fill="none" stroke="#191970" points="276.0001,-373.2968 279.5,-383.2968 283.0001,-373.2969 276.0001,-373.2968"/>
</g>
</g>
</svg>
