<?xml version="1.0" encoding="UTF-8" standalone="no"?>
<!DOCTYPE svg PUBLIC "-//W3C//DTD SVG 1.1//EN"
 "http://www.w3.org/Graphics/SVG/1.1/DTD/svg11.dtd">
<!-- Generated by graphviz version 2.40.1 (20161225.0304)
 -->
<!-- Title: headers/CDataBase.h Pages: 1 -->
<svg width="347pt" height="146pt"
 viewBox="0.00 0.00 346.99 146.00" xmlns="http://www.w3.org/2000/svg" xmlns:xlink="http://www.w3.org/1999/xlink">
<g id="graph0" class="graph" transform="scale(1 1) rotate(0) translate(4 142)">
<title>headers/CDataBase.h</title>
<!-- Node1 -->
<g id="node1" class="node">
<title>Node1</title>
<g id="a_node1"><a xlink:title=" ">
<polygon fill="#bfbfbf" stroke="#000000" points="75.9895,-116.5 75.9895,-137.5 210.9895,-137.5 210.9895,-116.5 75.9895,-116.5"/>
<text text-anchor="middle" x="143.4895" y="-123.9" font-family="Helvetica,sans-Serif" font-size="12.00" fill="#000000">headers/CDataBase.h</text>
</a>
</g>
</g>
<!-- Node2 -->
<g id="node2" class="node">
<title>Node2</title>
<g id="a_node2"><a xlink:title=" ">
<polygon fill="none" stroke="#bfbfbf" points="44.4895,-.5 44.4895,-21.5 106.4895,-21.5 106.4895,-.5 44.4895,-.5"/>
<text text-anchor="middle" x="75.4895" y="-7.9" font-family="Helvetica,sans-Serif" font-size="12.00" fill="#000000">iostream</text>
</a>
</g>
</g>
<!-- Node1&#45;&gt;Node2 -->
<g id="edge1" class="edge">
<title>Node1&#45;&gt;Node2</title>
<path fill="none" stroke="#191970" d="M93.0926,-116.4405C57.8257,-107.9107 15.1818,-94.9024 4.4895,-80 -10.5032,-59.104 16.2839,-39.0633 41.1342,-26.0164"/>
<polygon fill="#191970" stroke="#191970" points="42.7322,-29.1306 50.1209,-21.5374 39.6097,-22.8656 42.7322,-29.1306"/>
</g>
<!-- Node3 -->
<g id="node3" class="node">
<title>Node3</title>
<g id="a_node3"><a xlink:title=" ">
<polygon fill="none" stroke="#bfbfbf" points="13.4895,-58.5 13.4895,-79.5 59.4895,-79.5 59.4895,-58.5 13.4895,-58.5"/>
<text text-anchor="middle" x="36.4895" y="-65.9" font-family="Helvetica,sans-Serif" font-size="12.00" fill="#000000">string</text>
</a>
</g>
</g>
<!-- Node1&#45;&gt;Node3 -->
<g id="edge2" class="edge">
<title>Node1&#45;&gt;Node3</title>
<path fill="none" stroke="#191970" d="M123.864,-116.3619C107.3481,-107.4094 83.5155,-94.4908 64.9116,-84.4064"/>
<polygon fill="#191970" stroke="#191970" points="66.4499,-81.2592 55.9905,-79.5707 63.1141,-87.4132 66.4499,-81.2592"/>
</g>
<!-- Node4 -->
<g id="node4" class="node">
<title>Node4</title>
<g id="a_node4"><a xlink:title=" ">
<polygon fill="none" stroke="#bfbfbf" points="77.4895,-58.5 77.4895,-79.5 133.4895,-79.5 133.4895,-58.5 77.4895,-58.5"/>
<text text-anchor="middle" x="105.4895" y="-65.9" font-family="Helvetica,sans-Serif" font-size="12.00" fill="#000000">fstream</text>
</a>
</g>
</g>
<!-- Node1&#45;&gt;Node4 -->
<g id="edge3" class="edge">
<title>Node1&#45;&gt;Node4</title>
<path fill="none" stroke="#191970" d="M136.5197,-116.3619C131.3238,-108.4313 124.0888,-97.3885 117.912,-87.9606"/>
<polygon fill="#191970" stroke="#191970" points="120.823,-86.0172 112.4151,-79.5707 114.9678,-89.8534 120.823,-86.0172"/>
</g>
<!-- Node5 -->
<g id="node5" class="node">
<title>Node5</title>
<g id="a_node5"><a xlink:title=" ">
<polygon fill="none" stroke="#bfbfbf" points="214.9895,-.5 214.9895,-21.5 263.9895,-21.5 263.9895,-.5 214.9895,-.5"/>
<text text-anchor="middle" x="239.4895" y="-7.9" font-family="Helvetica,sans-Serif" font-size="12.00" fill="#000000">vector</text>
</a>
</g>
</g>
<!-- Node1&#45;&gt;Node5 -->
<g id="edge4" class="edge">
<title>Node1&#45;&gt;Node5</title>
<path fill="none" stroke="#191970" d="M170.2531,-116.4307C186.6827,-108.6565 206.9164,-96.5551 219.4895,-80 230.0691,-66.0697 235.0594,-46.6931 237.4093,-32.0188"/>
<polygon fill="#191970" stroke="#191970" points="240.9085,-32.2526 238.7404,-21.882 233.9681,-31.3412 240.9085,-32.2526"/>
</g>
<!-- Node6 -->
<g id="node6" class="node">
<title>Node6</title>
<g id="a_node6"><a xlink:href="../../d2/d92/CRisk_8h.html" target="_top" xlink:title=" ">
<polygon fill="none" stroke="#000000" points="151.9895,-58.5 151.9895,-79.5 210.9895,-79.5 210.9895,-58.5 151.9895,-58.5"/>
<text text-anchor="middle" x="181.4895" y="-65.9" font-family="Helvetica,sans-Serif" font-size="12.00" fill="#000000">CRisk.h</text>
</a>
</g>
</g>
<!-- Node1&#45;&gt;Node6 -->
<g id="edge5" class="edge">
<title>Node1&#45;&gt;Node6</title>
<path fill="none" stroke="#191970" d="M150.4593,-116.3619C155.6551,-108.4313 162.8901,-97.3885 169.067,-87.9606"/>
<polygon fill="#191970" stroke="#191970" points="172.0112,-89.8534 174.5639,-79.5707 166.1559,-86.0172 172.0112,-89.8534"/>
</g>
<!-- Node7 -->
<g id="node7" class="node">
<title>Node7</title>
<g id="a_node7"><a xlink:href="../../d3/d97/CReturn_8h.html" target="_top" xlink:title=" ">
<polygon fill="none" stroke="#000000" points="267.9895,-58.5 267.9895,-79.5 338.9895,-79.5 338.9895,-58.5 267.9895,-58.5"/>
<text text-anchor="middle" x="303.4895" y="-65.9" font-family="Helvetica,sans-Serif" font-size="12.00" fill="#000000">CReturn.h</text>
</a>
</g>
</g>
<!-- Node1&#45;&gt;Node7 -->
<g id="edge8" class="edge">
<title>Node1&#45;&gt;Node7</title>
<path fill="none" stroke="#191970" d="M172.4643,-116.4966C198.3227,-107.1229 236.3881,-93.3242 264.8352,-83.0122"/>
<polygon fill="#191970" stroke="#191970" points="266.2518,-86.2216 274.4603,-79.5231 263.8661,-79.6406 266.2518,-86.2216"/>
</g>
<!-- Node6&#45;&gt;Node2 -->
<g id="edge6" class="edge">
<title>Node6&#45;&gt;Node2</title>
<path fill="none" stroke="#191970" d="M162.0474,-58.3619C145.6859,-49.4094 122.076,-36.4908 103.646,-26.4064"/>
<polygon fill="#191970" stroke="#191970" points="105.2609,-23.3004 94.8082,-21.5707 101.9008,-29.4412 105.2609,-23.3004"/>
</g>
<!-- Node6&#45;&gt;Node5 -->
<g id="edge7" class="edge">
<title>Node6&#45;&gt;Node5</title>
<path fill="none" stroke="#191970" d="M192.1276,-58.3619C200.3852,-50.1043 212.017,-38.4725 221.6866,-28.8029"/>
<polygon fill="#191970" stroke="#191970" points="224.3226,-31.1166 228.9188,-21.5707 219.3728,-26.1669 224.3226,-31.1166"/>
</g>
<!-- Node7&#45;&gt;Node5 -->
<g id="edge9" class="edge">
<title>Node7&#45;&gt;Node5</title>
<path fill="none" stroke="#191970" d="M291.7509,-58.3619C282.5488,-50.0226 269.5494,-38.2418 258.8177,-28.5162"/>
<polygon fill="#191970" stroke="#191970" points="260.9139,-25.6924 251.1536,-21.5707 256.2132,-30.8793 260.9139,-25.6924"/>
</g>
</g>
</svg>
