<?xml version="1.0" encoding="UTF-8" standalone="no"?>
<!DOCTYPE svg PUBLIC "-//W3C//DTD SVG 1.1//EN"
 "http://www.w3.org/Graphics/SVG/1.1/DTD/svg11.dtd">
<!-- Generated by graphviz version 2.40.1 (20161225.0304)
 -->
<!-- Title: CServer Pages: 1 -->
<svg width="249pt" height="441pt"
 viewBox="0.00 0.00 248.50 441.00" xmlns="http://www.w3.org/2000/svg" xmlns:xlink="http://www.w3.org/1999/xlink">
<g id="graph0" class="graph" transform="scale(1 1) rotate(0) translate(4 437)">
<title>CServer</title>
<!-- Node1 -->
<g id="node1" class="node">
<title>Node1</title>
<g id="a_node1"><a xlink:title=" ">
<polygon fill="#bfbfbf" stroke="#000000" points="62,-.5 62,-57.5 115,-57.5 115,-.5 62,-.5"/>
<text text-anchor="middle" x="88.5" y="-45.5" font-family="Helvetica,sans-Serif" font-size="10.00" fill="#000000">CServer</text>
<polyline fill="none" stroke="#000000" points="62,-38.5 115,-38.5 "/>
<text text-anchor="middle" x="88.5" y="-26.5" font-family="Helvetica,sans-Serif" font-size="10.00" fill="#000000"> </text>
<polyline fill="none" stroke="#000000" points="62,-19.5 115,-19.5 "/>
<text text-anchor="middle" x="88.5" y="-7.5" font-family="Helvetica,sans-Serif" font-size="10.00" fill="#000000"> </text>
</a>
</g>
</g>
<!-- Node2 -->
<g id="node2" class="node">
<title>Node2</title>
<g id="a_node2"><a xlink:href="../../d5/de1/classCDataBase.html" target="_top" xlink:title=" ">
<polygon fill="none" stroke="#000000" points="41,-105.5 41,-217.5 136,-217.5 136,-105.5 41,-105.5"/>
<text text-anchor="middle" x="88.5" y="-205.5" font-family="Helvetica,sans-Serif" font-size="10.00" fill="#000000">CDataBase</text>
<polyline fill="none" stroke="#000000" points="41,-198.5 136,-198.5 "/>
<text text-anchor="start" x="49" y="-186.5" font-family="Helvetica,sans-Serif" font-size="10.00" fill="#000000">+ path</text>
<text text-anchor="start" x="49" y="-175.5" font-family="Helvetica,sans-Serif" font-size="10.00" fill="#000000">&#45; dBondDayGain</text>
<text text-anchor="start" x="49" y="-164.5" font-family="Helvetica,sans-Serif" font-size="10.00" fill="#000000">&#45; totalGain</text>
<polyline fill="none" stroke="#000000" points="41,-157.5 136,-157.5 "/>
<text text-anchor="start" x="49" y="-145.5" font-family="Helvetica,sans-Serif" font-size="10.00" fill="#000000">+ inputForBond()</text>
<text text-anchor="start" x="49" y="-134.5" font-family="Helvetica,sans-Serif" font-size="10.00" fill="#000000">+ inputForETF()</text>
<text text-anchor="start" x="49" y="-123.5" font-family="Helvetica,sans-Serif" font-size="10.00" fill="#000000">+ inputForOption()</text>
<text text-anchor="start" x="49" y="-112.5" font-family="Helvetica,sans-Serif" font-size="10.00" fill="#000000">+ inputForStock()</text>
</a>
</g>
</g>
<!-- Node2&#45;&gt;Node1 -->
<g id="edge1" class="edge">
<title>Node2&#45;&gt;Node1</title>
<path fill="none" stroke="#404040" d="M88.5,-105.3081C88.5,-93.4189 88.5,-81.0872 88.5,-69.893"/>
<polygon fill="none" stroke="#404040" points="88.5001,-69.822 84.5,-63.822 88.5,-57.822 92.5,-63.822 88.5001,-69.822"/>
<text text-anchor="middle" x="112.5" y="-79" font-family="Helvetica,sans-Serif" font-size="10.00" fill="#000000"> &#45;dataBase</text>
</g>
<!-- Node3 -->
<g id="node3" class="node">
<title>Node3</title>
<g id="a_node3"><a xlink:title=" ">
<polygon fill="none" stroke="#bfbfbf" points="0,-375.5 0,-432.5 45,-432.5 45,-375.5 0,-375.5"/>
<text text-anchor="middle" x="22.5" y="-420.5" font-family="Helvetica,sans-Serif" font-size="10.00" fill="#000000">double</text>
<polyline fill="none" stroke="#bfbfbf" points="0,-413.5 45,-413.5 "/>
<text text-anchor="middle" x="22.5" y="-401.5" font-family="Helvetica,sans-Serif" font-size="10.00" fill="#000000"> </text>
<polyline fill="none" stroke="#bfbfbf" points="0,-394.5 45,-394.5 "/>
<text text-anchor="middle" x="22.5" y="-382.5" font-family="Helvetica,sans-Serif" font-size="10.00" fill="#000000"> </text>
</a>
</g>
</g>
<!-- Node3&#45;&gt;Node2 -->
<g id="edge2" class="edge">
<title>Node3&#45;&gt;Node2</title>
<path fill="none" stroke="#404040" d="M16.7737,-375.2578C11.2399,-340.8974 6.0065,-282.2399 23.5,-236 26.068,-229.212 29.5609,-222.634 33.603,-216.3818"/>
<polygon fill="none" stroke="#404040" points="33.8998,-215.9647 34.1199,-208.7569 40.8578,-206.1878 40.6378,-213.3956 33.8998,-215.9647"/>
<text text-anchor="middle" x="78" y="-349" font-family="Helvetica,sans-Serif" font-size="10.00" fill="#000000"> &#45;dInstrumenAmount</text>
<text text-anchor="middle" x="78" y="-338" font-family="Helvetica,sans-Serif" font-size="10.00" fill="#000000">&#45;dBondMarketValue</text>
<text text-anchor="middle" x="78" y="-327" font-family="Helvetica,sans-Serif" font-size="10.00" fill="#000000">&#45;amount</text>
<text text-anchor="middle" x="78" y="-316" font-family="Helvetica,sans-Serif" font-size="10.00" fill="#000000">&#45;dMarketValue</text>
<text text-anchor="middle" x="78" y="-305" font-family="Helvetica,sans-Serif" font-size="10.00" fill="#000000">&#45;dTotalGain</text>
<text text-anchor="middle" x="78" y="-294" font-family="Helvetica,sans-Serif" font-size="10.00" fill="#000000">&#45;marketValue</text>
<text text-anchor="middle" x="78" y="-283" font-family="Helvetica,sans-Serif" font-size="10.00" fill="#000000">&#45;dBondInstrumenAmount</text>
<text text-anchor="middle" x="78" y="-272" font-family="Helvetica,sans-Serif" font-size="10.00" fill="#000000">&#45;dBondTotalGain</text>
<text text-anchor="middle" x="78" y="-261" font-family="Helvetica,sans-Serif" font-size="10.00" fill="#000000">&#45;dayGain</text>
<text text-anchor="middle" x="78" y="-250" font-family="Helvetica,sans-Serif" font-size="10.00" fill="#000000">&#45;dDayGain</text>
<text text-anchor="middle" x="78" y="-239" font-family="Helvetica,sans-Serif" font-size="10.00" fill="#000000">...</text>
</g>
<!-- Node4 -->
<g id="node4" class="node">
<title>Node4</title>
<g id="a_node4"><a xlink:title=" ">
<polygon fill="none" stroke="#bfbfbf" points="134,-375.5 134,-432.5 175,-432.5 175,-375.5 134,-375.5"/>
<text text-anchor="middle" x="154.5" y="-420.5" font-family="Helvetica,sans-Serif" font-size="10.00" fill="#000000">string</text>
<polyline fill="none" stroke="#bfbfbf" points="134,-413.5 175,-413.5 "/>
<text text-anchor="middle" x="154.5" y="-401.5" font-family="Helvetica,sans-Serif" font-size="10.00" fill="#000000"> </text>
<polyline fill="none" stroke="#bfbfbf" points="134,-394.5 175,-394.5 "/>
<text text-anchor="middle" x="154.5" y="-382.5" font-family="Helvetica,sans-Serif" font-size="10.00" fill="#000000"> </text>
</a>
</g>
</g>
<!-- Node4&#45;&gt;Node2 -->
<g id="edge3" class="edge">
<title>Node4&#45;&gt;Node2</title>
<path fill="none" stroke="#404040" d="M154.216,-375.2638C153.0958,-341.161 148.6958,-283.0003 132.5,-236 131.678,-233.6145 130.7744,-231.2214 129.8036,-228.8318"/>
<polygon fill="none" stroke="#404040" points="129.7303,-228.6682 123.6262,-224.8288 124.8225,-217.7176 130.9266,-221.557 129.7303,-228.6682"/>
<text text-anchor="middle" x="196.5" y="-349" font-family="Helvetica,sans-Serif" font-size="10.00" fill="#000000"> +pathToEtf</text>
<text text-anchor="middle" x="196.5" y="-338" font-family="Helvetica,sans-Serif" font-size="10.00" fill="#000000">&#45;strSymbol</text>
<text text-anchor="middle" x="196.5" y="-327" font-family="Helvetica,sans-Serif" font-size="10.00" fill="#000000">&#45;symbol</text>
<text text-anchor="middle" x="196.5" y="-316" font-family="Helvetica,sans-Serif" font-size="10.00" fill="#000000">&#45;strInstrumentName</text>
<text text-anchor="middle" x="196.5" y="-305" font-family="Helvetica,sans-Serif" font-size="10.00" fill="#000000">&#45;name</text>
<text text-anchor="middle" x="196.5" y="-294" font-family="Helvetica,sans-Serif" font-size="10.00" fill="#000000">&#45;strBondSymbol</text>
<text text-anchor="middle" x="196.5" y="-283" font-family="Helvetica,sans-Serif" font-size="10.00" fill="#000000">&#45;strBondName</text>
<text text-anchor="middle" x="196.5" y="-272" font-family="Helvetica,sans-Serif" font-size="10.00" fill="#000000">&#45;strBondTradeDate</text>
<text text-anchor="middle" x="196.5" y="-261" font-family="Helvetica,sans-Serif" font-size="10.00" fill="#000000">&#45;tradeDate</text>
<text text-anchor="middle" x="196.5" y="-250" font-family="Helvetica,sans-Serif" font-size="10.00" fill="#000000">&#45;strTradeDate</text>
<text text-anchor="middle" x="196.5" y="-239" font-family="Helvetica,sans-Serif" font-size="10.00" fill="#000000">...</text>
</g>
</g>
</svg>
