<?xml version="1.0" encoding="UTF-8" standalone="no"?>
<!DOCTYPE svg PUBLIC "-//W3C//DTD SVG 1.1//EN"
 "http://www.w3.org/Graphics/SVG/1.1/DTD/svg11.dtd">
<!-- Generated by graphviz version 2.40.1 (20161225.0304)
 -->
<!-- Title: CETF::etfInfo Pages: 1 -->
<!--zoomable 350 -->
<svg id="main" version="1.1" xmlns="http://www.w3.org/2000/svg" xmlns:xlink="http://www.w3.org/1999/xlink" xml:space="preserve" onload="init(evt)">
<style type="text/css"><![CDATA[
.edge:hover path { stroke: red; }
.edge:hover polygon { stroke: red; fill: red; }
]]></style>
<script type="text/javascript"><![CDATA[
var edges = document.getElementsByTagName('g');
if (edges && edges.length) {
  for (var i=0;i<edges.length;i++) {
    if (edges[i].id.substr(0,4)=='edge') {
      edges[i].setAttribute('class','edge');
    }
  }
}
]]></script>
        <defs>
                <circle id="rim" cx="0" cy="0" r="7"/>
                <circle id="rim2" cx="0" cy="0" r="3.5"/>
                <g id="zoomPlus">
                        <use xlink:href="#rim" fill="#404040">
                                <set attributeName="fill" to="#808080" begin="zoomplus.mouseover" end="zoomplus.mouseout"/>
                        </use>
                        <path d="M-4,0h8M0,-4v8" fill="none" stroke="white" stroke-width="1.5" pointer-events="none"/>
                </g>
                <g id="zoomMin">
                        <use xlink:href="#rim" fill="#404040">
                                <set attributeName="fill" to="#808080" begin="zoomminus.mouseover" end="zoomminus.mouseout"/>
                        </use>
                        <path d="M-4,0h8" fill="none" stroke="white" stroke-width="1.5" pointer-events="none"/>
                </g>
                <g id="dirArrow">
                        <path fill="none" stroke="white" stroke-width="1.5" d="M0,-3.0v7 M-2.5,-0.5L0,-3.0L2.5,-0.5"/>
                </g>
               <g id="resetDef">
                       <use xlink:href="#rim2" fill="#404040">
                               <set attributeName="fill" to="#808080" begin="reset.mouseover" end="reset.mouseout"/>
                       </use>
               </g>
        </defs>

<script type="text/javascript">
var viewWidth = 624;
var viewHeight = 350;
var sectionId = 'dynsection-2';
</script>
<script xlink:href="../../svgpan.js"/>
<svg id="graph" class="graph">
<g id="viewport">
<title>CETF::etfInfo</title>
<!-- Node1 -->
<g id="node1" class="node">
<title>Node1</title>
<g id="a_node1"><a xlink:title="Method get and set all info about object of class CETF.">
<polygon fill="#bfbfbf" stroke="#000000" points="0,-140.5 0,-161.5 87,-161.5 87,-140.5 0,-140.5"/>
<text text-anchor="middle" x="43.5" y="-147.9" font-family="Helvetica,sans-Serif" font-size="12.00" fill="#000000">CETF::etfInfo</text>
</a>
</g>
</g>
<!-- Node2 -->
<g id="node2" class="node">
<title>Node2</title>
<g id="a_node2"><a xlink:href="../../dc/d85/classCAsset.html#ab68c11feace8e8f4b9852404a458796c" target="_top" xlink:title="Method get data from database through the class CDataBase.">
<polygon fill="none" stroke="#000000" points="123,-160.5 123,-181.5 257,-181.5 257,-160.5 123,-160.5"/>
<text text-anchor="middle" x="190" y="-167.9" font-family="Helvetica,sans-Serif" font-size="12.00" fill="#000000">CAsset::getFromBase</text>
</a>
</g>
</g>
<!-- Node1&#45;&gt;Node2 -->
<g id="edge1" class="edge">
<title>Node1&#45;&gt;Node2</title>
<path fill="none" stroke="#191970" d="M87.0582,-156.9465C95.2086,-158.0592 103.9494,-159.2525 112.7673,-160.4563"/>
<polygon fill="#191970" stroke="#191970" points="112.347,-163.9313 122.7286,-161.8162 113.2939,-156.9956 112.347,-163.9313"/>
</g>
<!-- Node13 -->
<g id="node13" class="node">
<title>Node13</title>
<g id="a_node13"><a xlink:href="../../dc/d85/classCAsset.html#ad26f4802c080f55f65007d3622afb394" target="_top" xlink:title="Method gets risk of one Asset.">
<polygon fill="none" stroke="#000000" points="129,-120.5 129,-141.5 251,-141.5 251,-120.5 129,-120.5"/>
<text text-anchor="middle" x="190" y="-127.9" font-family="Helvetica,sans-Serif" font-size="12.00" fill="#000000">CAsset::riskOfAsset</text>
</a>
</g>
</g>
<!-- Node1&#45;&gt;Node13 -->
<g id="edge12" class="edge">
<title>Node1&#45;&gt;Node13</title>
<path fill="none" stroke="#191970" d="M87.0582,-145.0535C97.132,-143.6782 108.1078,-142.1798 119.0164,-140.6906"/>
<polygon fill="#191970" stroke="#191970" points="119.5533,-144.1499 128.9879,-139.3293 118.6064,-137.2142 119.5533,-144.1499"/>
</g>
<!-- Node3 -->
<g id="node3" class="node">
<title>Node3</title>
<g id="a_node3"><a xlink:href="../../d7/d8f/classCStock.html#ac29f9a8363a2388481e44526a0d4aa06" target="_top" xlink:title=" ">
<polygon fill="none" stroke="#000000" points="310,-320.5 310,-341.5 477,-341.5 477,-320.5 310,-320.5"/>
<text text-anchor="middle" x="393.5" y="-327.9" font-family="Helvetica,sans-Serif" font-size="12.00" fill="#000000">CStock::getMStrPathToAppl</text>
</a>
</g>
</g>
<!-- Node2&#45;&gt;Node3 -->
<g id="edge2" class="edge">
<title>Node2&#45;&gt;Node3</title>
<path fill="none" stroke="#191970" d="M194.4201,-181.5026C206.1542,-207.9981 240.8037,-277.8032 293,-311 296.1899,-313.0288 299.5427,-314.8585 303.0094,-316.5084"/>
<polygon fill="#191970" stroke="#191970" points="301.8435,-319.815 312.4182,-320.4684 304.559,-313.3631 301.8435,-319.815"/>
</g>
<!-- Node4 -->
<g id="node4" class="node">
<title>Node4</title>
<g id="a_node4"><a xlink:href="../../d7/d8f/classCStock.html#a71879b1e890394887791d3746cb7ef04" target="_top" xlink:title=" ">
<polygon fill="none" stroke="#000000" points="303,-280.5 303,-301.5 484,-301.5 484,-280.5 303,-280.5"/>
<text text-anchor="middle" x="393.5" y="-287.9" font-family="Helvetica,sans-Serif" font-size="12.00" fill="#000000">CStock::getMStrPathToGoogle</text>
</a>
</g>
</g>
<!-- Node2&#45;&gt;Node4 -->
<g id="edge3" class="edge">
<title>Node2&#45;&gt;Node4</title>
<path fill="none" stroke="#191970" d="M197.6653,-181.7999C213.1139,-202.6838 250.1918,-248.5212 293,-271 297.3486,-273.2835 301.9282,-275.3071 306.6384,-277.1002"/>
<polygon fill="#191970" stroke="#191970" points="305.8633,-280.5344 316.4579,-280.4668 308.1335,-273.9128 305.8633,-280.5344"/>
</g>
<!-- Node5 -->
<g id="node5" class="node">
<title>Node5</title>
<g id="a_node5"><a xlink:href="../../d0/dc4/classCETF.html#af8e267a244a73e0ad7038f83b5ec26b0" target="_top" xlink:title=" ">
<polygon fill="none" stroke="#000000" points="318,-240.5 318,-261.5 469,-261.5 469,-240.5 318,-240.5"/>
<text text-anchor="middle" x="393.5" y="-247.9" font-family="Helvetica,sans-Serif" font-size="12.00" fill="#000000">CETF::getMStrPathToIxn</text>
</a>
</g>
</g>
<!-- Node2&#45;&gt;Node5 -->
<g id="edge4" class="edge">
<title>Node2&#45;&gt;Node5</title>
<path fill="none" stroke="#191970" d="M204.5681,-181.5996C223.8431,-195.113 259.3243,-218.2492 293,-231 299.9987,-233.65 307.4111,-235.9691 314.9121,-237.9945"/>
<polygon fill="#191970" stroke="#191970" points="314.244,-241.4356 324.7967,-240.4911 315.9583,-234.6488 314.244,-241.4356"/>
</g>
<!-- Node6 -->
<g id="node6" class="node">
<title>Node6</title>
<g id="a_node6"><a xlink:href="../../d0/dc4/classCETF.html#a8d19cc867f54575686cf448a2d17af38" target="_top" xlink:title=" ">
<polygon fill="none" stroke="#000000" points="314.5,-200.5 314.5,-221.5 472.5,-221.5 472.5,-200.5 314.5,-200.5"/>
<text text-anchor="middle" x="393.5" y="-207.9" font-family="Helvetica,sans-Serif" font-size="12.00" fill="#000000">CETF::getMStrPathToQqq</text>
</a>
</g>
</g>
<!-- Node2&#45;&gt;Node6 -->
<g id="edge5" class="edge">
<title>Node2&#45;&gt;Node6</title>
<path fill="none" stroke="#191970" d="M243.4672,-181.5095C270.0021,-186.7252 302.24,-193.0619 330.0219,-198.5227"/>
<polygon fill="#191970" stroke="#191970" points="329.5496,-201.9968 340.0369,-200.4913 330.8998,-195.1282 329.5496,-201.9968"/>
</g>
<!-- Node7 -->
<g id="node7" class="node">
<title>Node7</title>
<g id="a_node7"><a xlink:href="../../d0/dc4/classCETF.html#a477bc0a30dca4ce9bf7a9a52e121324b" target="_top" xlink:title=" ">
<polygon fill="none" stroke="#000000" points="317.5,-160.5 317.5,-181.5 469.5,-181.5 469.5,-160.5 317.5,-160.5"/>
<text text-anchor="middle" x="393.5" y="-167.9" font-family="Helvetica,sans-Serif" font-size="12.00" fill="#000000">CETF::getMStrPathToXlk</text>
</a>
</g>
</g>
<!-- Node2&#45;&gt;Node7 -->
<g id="edge6" class="edge">
<title>Node2&#45;&gt;Node7</title>
<path fill="none" stroke="#191970" d="M257.1975,-171C273.1125,-171 290.3072,-171 306.9472,-171"/>
<polygon fill="#191970" stroke="#191970" points="307.2198,-174.5001 317.2198,-171 307.2198,-167.5001 307.2198,-174.5001"/>
</g>
<!-- Node8 -->
<g id="node8" class="node">
<title>Node8</title>
<g id="a_node8"><a xlink:href="../../d7/d8f/classCStock.html#a157bab205439811406e6aa5da0fcaddd" target="_top" xlink:title=" ">
<polygon fill="none" stroke="#000000" points="293,-120.5 293,-141.5 494,-141.5 494,-120.5 293,-120.5"/>
<text text-anchor="middle" x="393.5" y="-127.9" font-family="Helvetica,sans-Serif" font-size="12.00" fill="#000000">CStock::getMStrPathtToAmznDate</text>
</a>
</g>
</g>
<!-- Node2&#45;&gt;Node8 -->
<g id="edge7" class="edge">
<title>Node2&#45;&gt;Node8</title>
<path fill="none" stroke="#191970" d="M243.4672,-160.4905C270.0021,-155.2748 302.24,-148.9381 330.0219,-143.4773"/>
<polygon fill="#191970" stroke="#191970" points="330.8998,-146.8718 340.0369,-141.5087 329.5496,-140.0032 330.8998,-146.8718"/>
</g>
<!-- Node9 -->
<g id="node9" class="node">
<title>Node9</title>
<g id="a_node9"><a xlink:href="../../dc/d85/classCAsset.html#a48d22720b57dc24776a9023be661bff9" target="_top" xlink:title="Method calculate mean of one Asset.">
<polygon fill="none" stroke="#000000" points="326.5,-80.5 326.5,-101.5 460.5,-101.5 460.5,-80.5 326.5,-80.5"/>
<text text-anchor="middle" x="393.5" y="-87.9" font-family="Helvetica,sans-Serif" font-size="12.00" fill="#000000">CAsset::meanOfAsset</text>
</a>
</g>
</g>
<!-- Node2&#45;&gt;Node9 -->
<g id="edge8" class="edge">
<title>Node2&#45;&gt;Node9</title>
<path fill="none" stroke="#191970" d="M237.2112,-160.4994C244.1257,-157.9552 250.9473,-154.8288 257,-151 277.2129,-138.2137 272.2108,-122.8262 293,-111 300.3353,-106.8272 308.403,-103.5141 316.6798,-100.8854"/>
<polygon fill="#191970" stroke="#191970" points="317.7998,-104.2058 326.4607,-98.1034 315.8846,-97.4728 317.7998,-104.2058"/>
</g>
<!-- Node10 -->
<g id="node10" class="node">
<title>Node10</title>
<g id="a_node10"><a xlink:href="../../dc/d85/classCAsset.html#aa855b3cfd867f9788d1cc0e5db7c3870" target="_top" xlink:title="Method return diffrence between vector of returns and double value of mean of return of Asset.">
<polygon fill="none" stroke="#000000" points="297.5,-40.5 297.5,-61.5 489.5,-61.5 489.5,-40.5 297.5,-40.5"/>
<text text-anchor="middle" x="393.5" y="-47.9" font-family="Helvetica,sans-Serif" font-size="12.00" fill="#000000">CAsset::returnAndMeanDiffrence</text>
</a>
</g>
</g>
<!-- Node2&#45;&gt;Node10 -->
<g id="edge9" class="edge">
<title>Node2&#45;&gt;Node10</title>
<path fill="none" stroke="#191970" d="M242.1337,-160.4463C247.5199,-157.9395 252.6156,-154.8378 257,-151 286.338,-125.3197 262.4921,-95.2789 293,-71 295.0706,-69.3522 297.2399,-67.8283 299.4894,-66.4196"/>
<polygon fill="#191970" stroke="#191970" points="301.3904,-69.3707 308.5247,-61.538 298.063,-63.2121 301.3904,-69.3707"/>
</g>
<!-- Node11 -->
<g id="node11" class="node">
<title>Node11</title>
<g id="a_node11"><a xlink:href="../../dc/d85/classCAsset.html#a96031ecbece20a71af492b3cf5063f0b" target="_top" xlink:title="Method returns what is returns of one Asset in the setting period, get info for this from database.">
<polygon fill="none" stroke="#000000" points="326.5,-.5 326.5,-21.5 460.5,-21.5 460.5,-.5 326.5,-.5"/>
<text text-anchor="middle" x="393.5" y="-7.9" font-family="Helvetica,sans-Serif" font-size="12.00" fill="#000000">CAsset::returnOfAsset</text>
</a>
</g>
</g>
<!-- Node2&#45;&gt;Node11 -->
<g id="edge10" class="edge">
<title>Node2&#45;&gt;Node11</title>
<path fill="none" stroke="#191970" d="M243.967,-160.3344C248.7611,-157.8419 253.2206,-154.7742 257,-151 296.3998,-111.6541 251.8017,-68.4586 293,-31 299.8148,-24.8038 307.9837,-20.2959 316.6802,-17.0467"/>
<polygon fill="#191970" stroke="#191970" points="317.8144,-20.3588 326.2849,-13.9947 315.6945,-13.6875 317.8144,-20.3588"/>
</g>
<!-- Node12 -->
<g id="node12" class="node">
<title>Node12</title>
<g id="a_node12"><a xlink:href="../../dc/d85/classCAsset.html#ae862a51b2a6ea0668c19a07f081e0b3c" target="_top" xlink:title="Method helps to set size of vector for next method returnOfAsset()">
<polygon fill="none" stroke="#000000" points="530,-.5 530,-21.5 616,-21.5 616,-.5 530,-.5"/>
<text text-anchor="middle" x="573" y="-7.9" font-family="Helvetica,sans-Serif" font-size="12.00" fill="#000000">CAsset::slice</text>
</a>
</g>
</g>
<!-- Node11&#45;&gt;Node12 -->
<g id="edge11" class="edge">
<title>Node11&#45;&gt;Node12</title>
<path fill="none" stroke="#191970" d="M460.5944,-11C480.171,-11 501.2863,-11 519.8725,-11"/>
<polygon fill="#191970" stroke="#191970" points="519.9121,-14.5001 529.9121,-11 519.912,-7.5001 519.9121,-14.5001"/>
</g>
</g>
</svg>
        <g id="navigator" transform="translate(0 0)" fill="#404254">
                <rect fill="#f2f5e9" fill-opacity="0.5" stroke="#606060" stroke-width=".5" x="0" y="0" width="60" height="60"/>
                <use id="zoomplus" xlink:href="#zoomPlus" x="17" y="9" onmousedown="handleZoom(evt,'in')"/>
                <use id="zoomminus" xlink:href="#zoomMin" x="42" y="9" onmousedown="handleZoom(evt,'out')"/>
                <use id="reset" xlink:href="#resetDef" x="30" y="36" onmousedown="handleReset()"/>
                <g id="arrowUp" xlink:href="#dirArrow" transform="translate(30 24)" onmousedown="handlePan(0,-1)">
                  <use xlink:href="#rim" fill="#404040">
                        <set attributeName="fill" to="#808080" begin="arrowUp.mouseover" end="arrowUp.mouseout"/>
                  </use>
                  <path fill="none" stroke="white" stroke-width="1.5" d="M0,-3.0v7 M-2.5,-0.5L0,-3.0L2.5,-0.5"/>
                </g>
                <g id="arrowRight" xlink:href="#dirArrow" transform="rotate(90) translate(36 -43)" onmousedown="handlePan(1,0)">
                  <use xlink:href="#rim" fill="#404040">
                        <set attributeName="fill" to="#808080" begin="arrowRight.mouseover" end="arrowRight.mouseout"/>
                  </use>
                  <path fill="none" stroke="white" stroke-width="1.5" d="M0,-3.0v7 M-2.5,-0.5L0,-3.0L2.5,-0.5"/>
                </g>
                <g id="arrowDown" xlink:href="#dirArrow" transform="rotate(180) translate(-30 -48)" onmousedown="handlePan(0,1)">
                  <use xlink:href="#rim" fill="#404040">
                        <set attributeName="fill" to="#808080" begin="arrowDown.mouseover" end="arrowDown.mouseout"/>
                  </use>
                  <path fill="none" stroke="white" stroke-width="1.5" d="M0,-3.0v7 M-2.5,-0.5L0,-3.0L2.5,-0.5"/>
                </g>
                <g id="arrowLeft" xlink:href="#dirArrow" transform="rotate(270) translate(-36 17)" onmousedown="handlePan(-1,0)">
                  <use xlink:href="#rim" fill="#404040">
                        <set attributeName="fill" to="#808080" begin="arrowLeft.mouseover" end="arrowLeft.mouseout"/>
                  </use>
                  <path fill="none" stroke="white" stroke-width="1.5" d="M0,-3.0v7 M-2.5,-0.5L0,-3.0L2.5,-0.5"/>
                </g>
        </g>
        <svg viewBox="0 0 15 15" width="100%" height="30px" preserveAspectRatio="xMaxYMin meet">
         <g id="arrow_out" transform="scale(0.3 0.3)">
          <a xlink:href="classCETF_abfd92cb6e0c471932af46e30df2fd308_cgraph_org.svg" target="_base">
           <rect id="button" ry="5" rx="5" y="6" x="6" height="38" width="38"
                fill="#f2f5e9" fill-opacity="0.5" stroke="#606060" stroke-width="1.0"/>
           <path id="arrow"
             d="M 11.500037,31.436501 C 11.940474,20.09759 22.043105,11.32322 32.158766,21.979434 L 37.068811,17.246167 C 37.068811,17.246167 37.088388,32 37.088388,32 L 22.160133,31.978069 C 22.160133,31.978069 26.997745,27.140456 26.997745,27.140456 C 18.528582,18.264221 13.291696,25.230495 11.500037,31.436501 z"
             style="fill:#404040;"/>
          </a>
         </g>
        </svg>
</svg>
