<?xml version="1.0" encoding="UTF-8" standalone="no"?>
<!DOCTYPE svg PUBLIC "-//W3C//DTD SVG 1.1//EN"
 "http://www.w3.org/Graphics/SVG/1.1/DTD/svg11.dtd">
<!-- Generated by graphviz version 2.40.1 (20161225.0304)
 -->
<!-- Title: sources/CReturn.cpp Pages: 1 -->
<svg width="606pt" height="146pt"
 viewBox="0.00 0.00 606.00 146.00" xmlns="http://www.w3.org/2000/svg" xmlns:xlink="http://www.w3.org/1999/xlink">
<g id="graph0" class="graph" transform="scale(1 1) rotate(0) translate(4 142)">
<title>sources/CReturn.cpp</title>
<!-- Node1 -->
<g id="node1" class="node">
<title>Node1</title>
<g id="a_node1"><a xlink:title=" ">
<polygon fill="#bfbfbf" stroke="#000000" points="288,-116.5 288,-137.5 417,-137.5 417,-116.5 288,-116.5"/>
<text text-anchor="middle" x="352.5" y="-123.9" font-family="Helvetica,sans-Serif" font-size="12.00" fill="#000000">sources/CReturn.cpp</text>
</a>
</g>
</g>
<!-- Node2 -->
<g id="node2" class="node">
<title>Node2</title>
<g id="a_node2"><a xlink:href="../../d3/d97/CReturn_8h.html" target="_top" xlink:title=" ">
<polygon fill="none" stroke="#000000" points="0,-58.5 0,-79.5 127,-79.5 127,-58.5 0,-58.5"/>
<text text-anchor="middle" x="63.5" y="-65.9" font-family="Helvetica,sans-Serif" font-size="12.00" fill="#000000">../headers/CReturn.h</text>
</a>
</g>
</g>
<!-- Node1&#45;&gt;Node2 -->
<g id="edge1" class="edge">
<title>Node1&#45;&gt;Node2</title>
<path fill="none" stroke="#191970" d="M300.1643,-116.4966C251.2138,-106.6727 178.0456,-91.9884 126.0395,-81.5512"/>
<polygon fill="#191970" stroke="#191970" points="126.4271,-78.0592 115.9339,-79.5231 125.0497,-84.9224 126.4271,-78.0592"/>
</g>
<!-- Node3 -->
<g id="node3" class="node">
<title>Node3</title>
<g id="a_node3"><a xlink:title=" ">
<polygon fill="none" stroke="#bfbfbf" points="131,-.5 131,-21.5 180,-21.5 180,-.5 131,-.5"/>
<text text-anchor="middle" x="155.5" y="-7.9" font-family="Helvetica,sans-Serif" font-size="12.00" fill="#000000">vector</text>
</a>
</g>
</g>
<!-- Node1&#45;&gt;Node3 -->
<g id="edge7" class="edge">
<title>Node1&#45;&gt;Node3</title>
<path fill="none" stroke="#191970" d="M287.6397,-116.8357C243.6332,-108.6766 190.6308,-95.9615 174.5,-80 161.7784,-67.4119 157.3575,-47.1454 155.9239,-31.8261"/>
<polygon fill="#191970" stroke="#191970" points="159.4111,-31.5043 155.3319,-21.7262 152.4231,-31.9139 159.4111,-31.5043"/>
</g>
<!-- Node4 -->
<g id="node4" class="node">
<title>Node4</title>
<g id="a_node4"><a xlink:href="../../d2/d92/CRisk_8h.html" target="_top" xlink:title=" ">
<polygon fill="none" stroke="#000000" points="184,-58.5 184,-79.5 299,-79.5 299,-58.5 184,-58.5"/>
<text text-anchor="middle" x="241.5" y="-65.9" font-family="Helvetica,sans-Serif" font-size="12.00" fill="#000000">../headers/CRisk.h</text>
</a>
</g>
</g>
<!-- Node1&#45;&gt;Node4 -->
<g id="edge3" class="edge">
<title>Node1&#45;&gt;Node4</title>
<path fill="none" stroke="#191970" d="M332.3987,-116.4966C315.2181,-107.5194 290.2702,-94.4835 270.8551,-84.3387"/>
<polygon fill="#191970" stroke="#191970" points="272.3107,-81.1503 261.8268,-79.6212 269.0689,-87.3544 272.3107,-81.1503"/>
</g>
<!-- Node5 -->
<g id="node5" class="node">
<title>Node5</title>
<g id="a_node5"><a xlink:title=" ">
<polygon fill="none" stroke="#bfbfbf" points="253.5,-.5 253.5,-21.5 315.5,-21.5 315.5,-.5 253.5,-.5"/>
<text text-anchor="middle" x="284.5" y="-7.9" font-family="Helvetica,sans-Serif" font-size="12.00" fill="#000000">iostream</text>
</a>
</g>
</g>
<!-- Node1&#45;&gt;Node5 -->
<g id="edge6" class="edge">
<title>Node1&#45;&gt;Node5</title>
<path fill="none" stroke="#191970" d="M346.2246,-116.2949C334.7884,-96.7861 310.4035,-55.1884 295.9414,-30.5177"/>
<polygon fill="#191970" stroke="#191970" points="298.8369,-28.5362 290.7602,-21.6792 292.798,-32.0762 298.8369,-28.5362"/>
</g>
<!-- Node6 -->
<g id="node6" class="node">
<title>Node6</title>
<g id="a_node6"><a xlink:title=" ">
<polygon fill="none" stroke="#bfbfbf" points="355.5,-58.5 355.5,-79.5 401.5,-79.5 401.5,-58.5 355.5,-58.5"/>
<text text-anchor="middle" x="378.5" y="-65.9" font-family="Helvetica,sans-Serif" font-size="12.00" fill="#000000">string</text>
</a>
</g>
</g>
<!-- Node1&#45;&gt;Node6 -->
<g id="edge8" class="edge">
<title>Node1&#45;&gt;Node6</title>
<path fill="none" stroke="#191970" d="M357.2688,-116.3619C360.7139,-108.6766 365.4692,-98.0686 369.6063,-88.8399"/>
<polygon fill="#191970" stroke="#191970" points="372.8646,-90.1275 373.7614,-79.5707 366.477,-87.264 372.8646,-90.1275"/>
</g>
<!-- Node7 -->
<g id="node7" class="node">
<title>Node7</title>
<g id="a_node7"><a xlink:title=" ">
<polygon fill="none" stroke="#bfbfbf" points="419.5,-58.5 419.5,-79.5 459.5,-79.5 459.5,-58.5 419.5,-58.5"/>
<text text-anchor="middle" x="439.5" y="-65.9" font-family="Helvetica,sans-Serif" font-size="12.00" fill="#000000">map</text>
</a>
</g>
</g>
<!-- Node1&#45;&gt;Node7 -->
<g id="edge9" class="edge">
<title>Node1&#45;&gt;Node7</title>
<path fill="none" stroke="#191970" d="M368.4571,-116.3619C381.4567,-107.6955 400.0312,-95.3126 414.9272,-85.3819"/>
<polygon fill="#191970" stroke="#191970" points="417.265,-88.0299 423.644,-79.5707 413.382,-82.2055 417.265,-88.0299"/>
</g>
<!-- Node8 -->
<g id="node8" class="node">
<title>Node8</title>
<g id="a_node8"><a xlink:title=" ">
<polygon fill="none" stroke="#bfbfbf" points="478,-58.5 478,-79.5 527,-79.5 527,-58.5 478,-58.5"/>
<text text-anchor="middle" x="502.5" y="-65.9" font-family="Helvetica,sans-Serif" font-size="12.00" fill="#000000">cmath</text>
</a>
</g>
</g>
<!-- Node1&#45;&gt;Node8 -->
<g id="edge10" class="edge">
<title>Node1&#45;&gt;Node8</title>
<path fill="none" stroke="#191970" d="M379.6639,-116.4966C404.4771,-106.9022 441.2795,-92.6719 468.1304,-82.2896"/>
<polygon fill="#191970" stroke="#191970" points="469.4671,-85.5253 477.5319,-78.6543 466.9426,-78.9964 469.4671,-85.5253"/>
</g>
<!-- Node9 -->
<g id="node9" class="node">
<title>Node9</title>
<g id="a_node9"><a xlink:title=" ">
<polygon fill="none" stroke="#bfbfbf" points="545,-58.5 545,-79.5 598,-79.5 598,-58.5 545,-58.5"/>
<text text-anchor="middle" x="571.5" y="-65.9" font-family="Helvetica,sans-Serif" font-size="12.00" fill="#000000">iterator</text>
</a>
</g>
</g>
<!-- Node1&#45;&gt;Node9 -->
<g id="edge11" class="edge">
<title>Node1&#45;&gt;Node9</title>
<path fill="none" stroke="#191970" d="M396.5496,-116.4625C431.7474,-107.882 482.5497,-95.1409 534.9855,-80.3446"/>
<polygon fill="#191970" stroke="#191970" points="536.1293,-83.6582 544.792,-77.5584 534.2161,-76.9247 536.1293,-83.6582"/>
</g>
<!-- Node2&#45;&gt;Node3 -->
<g id="edge2" class="edge">
<title>Node2&#45;&gt;Node3</title>
<path fill="none" stroke="#191970" d="M80.3742,-58.3619C94.2506,-49.6138 114.134,-37.0786 129.9597,-27.1015"/>
<polygon fill="#191970" stroke="#191970" points="132.1401,-29.8645 138.7328,-21.5707 128.4069,-23.943 132.1401,-29.8645"/>
</g>
<!-- Node4&#45;&gt;Node3 -->
<g id="edge5" class="edge">
<title>Node4&#45;&gt;Node3</title>
<path fill="none" stroke="#191970" d="M225.7263,-58.3619C212.8761,-49.6955 194.5152,-37.3126 179.7903,-27.3819"/>
<polygon fill="#191970" stroke="#191970" points="181.4215,-24.2604 171.1737,-21.5707 177.5075,-30.0639 181.4215,-24.2604"/>
</g>
<!-- Node4&#45;&gt;Node5 -->
<g id="edge4" class="edge">
<title>Node4&#45;&gt;Node5</title>
<path fill="none" stroke="#191970" d="M249.3869,-58.3619C255.327,-50.3496 263.6224,-39.1605 270.6588,-29.6696"/>
<polygon fill="#191970" stroke="#191970" points="273.5191,-31.6883 276.6631,-21.5707 267.8959,-27.5193 273.5191,-31.6883"/>
</g>
</g>
</svg>
