<?xml version="1.0" encoding="UTF-8" standalone="no"?>
<!DOCTYPE svg PUBLIC "-//W3C//DTD SVG 1.1//EN"
 "http://www.w3.org/Graphics/SVG/1.1/DTD/svg11.dtd">
<!-- Generated by graphviz version 2.40.1 (20161225.0304)
 -->
<!-- Title: headers/CUser.h Pages: 1 -->
<svg width="729pt" height="320pt"
 viewBox="0.00 0.00 728.50 320.00" xmlns="http://www.w3.org/2000/svg" xmlns:xlink="http://www.w3.org/1999/xlink">
<g id="graph0" class="graph" transform="scale(1 1) rotate(0) translate(4 316)">
<title>headers/CUser.h</title>
<!-- Node1 -->
<g id="node1" class="node">
<title>Node1</title>
<g id="a_node1"><a xlink:title=" ">
<polygon fill="#bfbfbf" stroke="#000000" points="177.5,-290.5 177.5,-311.5 284.5,-311.5 284.5,-290.5 177.5,-290.5"/>
<text text-anchor="middle" x="231" y="-297.9" font-family="Helvetica,sans-Serif" font-size="12.00" fill="#000000">headers/CUser.h</text>
</a>
</g>
</g>
<!-- Node2 -->
<g id="node2" class="node">
<title>Node2</title>
<g id="a_node2"><a xlink:href="../../d6/d5c/CAdministrator_8h.html" target="_top" xlink:title=" ">
<polygon fill="none" stroke="#000000" points="46,-58.5 46,-79.5 198,-79.5 198,-58.5 46,-58.5"/>
<text text-anchor="middle" x="122" y="-65.9" font-family="Helvetica,sans-Serif" font-size="12.00" fill="#000000">headers/CAdministrator.h</text>
</a>
</g>
</g>
<!-- Node1&#45;&gt;Node2 -->
<g id="edge1" class="edge">
<title>Node1&#45;&gt;Node2</title>
<path fill="none" stroke="#191970" d="M221.7137,-281.2348C199.5141,-233.9842 143.9573,-115.7349 126.9959,-79.6335"/>
<polygon fill="#191970" stroke="#191970" points="218.6131,-282.8661 226.0333,-290.4286 224.9487,-279.8894 218.6131,-282.8661"/>
</g>
<!-- Node5 -->
<g id="node5" class="node">
<title>Node5</title>
<g id="a_node5"><a xlink:href="../../dd/d2c/CClient_8h.html" target="_top" xlink:title=" ">
<polygon fill="none" stroke="#000000" points="256.5,-116.5 256.5,-137.5 369.5,-137.5 369.5,-116.5 256.5,-116.5"/>
<text text-anchor="middle" x="313" y="-123.9" font-family="Helvetica,sans-Serif" font-size="12.00" fill="#000000">headers/CClient.h</text>
</a>
</g>
</g>
<!-- Node1&#45;&gt;Node5 -->
<g id="edge4" class="edge">
<title>Node1&#45;&gt;Node5</title>
<path fill="none" stroke="#191970" d="M227.5609,-280.3626C224.2309,-253.3211 222.5336,-205.6303 245,-174 256.3851,-157.9709 275.0593,-145.6376 289.9603,-137.6349"/>
<polygon fill="#191970" stroke="#191970" points="224.0965,-280.8611 228.9714,-290.2678 231.0266,-279.8742 224.0965,-280.8611"/>
</g>
<!-- Node10 -->
<g id="node10" class="node">
<title>Node10</title>
<g id="a_node10"><a xlink:href="../../df/d1a/CBroker_8h.html" target="_top" xlink:title=" ">
<polygon fill="none" stroke="#000000" points="237.5,-232.5 237.5,-253.5 354.5,-253.5 354.5,-232.5 237.5,-232.5"/>
<text text-anchor="middle" x="296" y="-239.9" font-family="Helvetica,sans-Serif" font-size="12.00" fill="#000000">headers/CBroker.h</text>
</a>
</g>
</g>
<!-- Node1&#45;&gt;Node10 -->
<g id="edge13" class="edge">
<title>Node1&#45;&gt;Node10</title>
<path fill="none" stroke="#191970" d="M250.3983,-283.6908C261.3711,-273.8996 274.7372,-261.973 284.1536,-253.5707"/>
<polygon fill="#191970" stroke="#191970" points="248.0532,-281.0925 242.922,-290.3619 252.7137,-286.3155 248.0532,-281.0925"/>
</g>
<!-- Node13 -->
<g id="node13" class="node">
<title>Node13</title>
<g id="a_node13"><a xlink:href="../../df/d61/CUser_8cpp.html" target="_top" xlink:title=" ">
<polygon fill="none" stroke="#000000" points="372.5,-232.5 372.5,-253.5 491.5,-253.5 491.5,-232.5 372.5,-232.5"/>
<text text-anchor="middle" x="432" y="-239.9" font-family="Helvetica,sans-Serif" font-size="12.00" fill="#000000">sources/CUser.cpp</text>
</a>
</g>
</g>
<!-- Node1&#45;&gt;Node13 -->
<g id="edge21" class="edge">
<title>Node1&#45;&gt;Node13</title>
<path fill="none" stroke="#191970" d="M277.1623,-287.6795C313.1085,-277.307 362.3162,-263.1078 395.5322,-253.5231"/>
<polygon fill="#191970" stroke="#191970" points="276.0372,-284.3613 267.3996,-290.4966 277.978,-291.0869 276.0372,-284.3613"/>
</g>
<!-- Node3 -->
<g id="node3" class="node">
<title>Node3</title>
<g id="a_node3"><a xlink:href="../../df/d0a/main_8cpp.html" target="_top" xlink:title=" ">
<polygon fill="none" stroke="#000000" points="182.5,-.5 182.5,-21.5 247.5,-21.5 247.5,-.5 182.5,-.5"/>
<text text-anchor="middle" x="215" y="-7.9" font-family="Helvetica,sans-Serif" font-size="12.00" fill="#000000">main.cpp</text>
</a>
</g>
</g>
<!-- Node2&#45;&gt;Node3 -->
<g id="edge2" class="edge">
<title>Node2&#45;&gt;Node3</title>
<path fill="none" stroke="#191970" d="M147.9414,-52.8215C163.9602,-42.8312 184.0546,-30.2993 198.0505,-21.5707"/>
<polygon fill="#191970" stroke="#191970" points="145.6906,-50.1003 139.0576,-58.3619 149.3949,-56.0399 145.6906,-50.1003"/>
</g>
<!-- Node4 -->
<g id="node4" class="node">
<title>Node4</title>
<g id="a_node4"><a xlink:href="../../d2/da4/CAdministrator_8cpp.html" target="_top" xlink:title=" ">
<polygon fill="none" stroke="#000000" points="0,-.5 0,-21.5 164,-21.5 164,-.5 0,-.5"/>
<text text-anchor="middle" x="82" y="-7.9" font-family="Helvetica,sans-Serif" font-size="12.00" fill="#000000">sources/CAdministrator.cpp</text>
</a>
</g>
</g>
<!-- Node2&#45;&gt;Node4 -->
<g id="edge3" class="edge">
<title>Node2&#45;&gt;Node4</title>
<path fill="none" stroke="#191970" d="M108.8683,-49.9591C102.36,-40.522 94.7472,-29.4835 89.2901,-21.5707"/>
<polygon fill="#191970" stroke="#191970" points="106.1048,-52.1168 114.6634,-58.3619 111.8673,-48.1427 106.1048,-52.1168"/>
</g>
<!-- Node5&#45;&gt;Node2 -->
<g id="edge5" class="edge">
<title>Node5&#45;&gt;Node2</title>
<path fill="none" stroke="#191970" d="M268.6957,-113.5464C234.5771,-103.1857 188.082,-89.0668 156.6535,-79.5231"/>
<polygon fill="#191970" stroke="#191970" points="267.8258,-116.9399 278.4113,-116.4966 269.8598,-110.2419 267.8258,-116.9399"/>
</g>
<!-- Node5&#45;&gt;Node3 -->
<g id="edge11" class="edge">
<title>Node5&#45;&gt;Node3</title>
<path fill="none" stroke="#191970" d="M297.3061,-108.4235C276.5643,-83.8721 240.7057,-41.4272 224.0221,-21.6792"/>
<polygon fill="#191970" stroke="#191970" points="294.8289,-110.9148 303.9561,-116.2949 300.1761,-106.3973 294.8289,-110.9148"/>
</g>
<!-- Node6 -->
<g id="node6" class="node">
<title>Node6</title>
<g id="a_node6"><a xlink:href="../../d1/dea/CPortfolio_8h.html" target="_top" xlink:title=" ">
<polygon fill="none" stroke="#000000" points="347,-58.5 347,-79.5 473,-79.5 473,-58.5 347,-58.5"/>
<text text-anchor="middle" x="410" y="-65.9" font-family="Helvetica,sans-Serif" font-size="12.00" fill="#000000">headers/CPortfolio.h</text>
</a>
</g>
</g>
<!-- Node5&#45;&gt;Node6 -->
<g id="edge6" class="edge">
<title>Node5&#45;&gt;Node6</title>
<path fill="none" stroke="#191970" d="M339.5899,-111.1009C356.3727,-101.0658 377.5872,-88.3808 392.3215,-79.5707"/>
<polygon fill="#191970" stroke="#191970" points="337.5778,-108.226 330.7913,-116.3619 341.1702,-114.2339 337.5778,-108.226"/>
</g>
<!-- Node7 -->
<g id="node7" class="node">
<title>Node7</title>
<g id="a_node7"><a xlink:href="../../d8/d8c/CClient_8cpp.html" target="_top" xlink:title=" ">
<polygon fill="none" stroke="#000000" points="265.5,-.5 265.5,-21.5 390.5,-21.5 390.5,-.5 265.5,-.5"/>
<text text-anchor="middle" x="328" y="-7.9" font-family="Helvetica,sans-Serif" font-size="12.00" fill="#000000">sources/CClient.cpp</text>
</a>
</g>
</g>
<!-- Node5&#45;&gt;Node7 -->
<g id="edge12" class="edge">
<title>Node5&#45;&gt;Node7</title>
<path fill="none" stroke="#191970" d="M315.6996,-106.1231C318.9097,-81.2984 324.1435,-40.8235 326.6191,-21.6792"/>
<polygon fill="#191970" stroke="#191970" points="312.1957,-105.9286 314.3843,-116.2949 319.1379,-106.8264 312.1957,-105.9286"/>
</g>
<!-- Node6&#45;&gt;Node3 -->
<g id="edge7" class="edge">
<title>Node6&#45;&gt;Node3</title>
<path fill="none" stroke="#191970" d="M364.9704,-55.6066C329.1664,-44.9572 279.9174,-30.3088 247.7786,-20.7495"/>
<polygon fill="#191970" stroke="#191970" points="364.1041,-59.0004 374.687,-58.4966 366.0998,-52.2909 364.1041,-59.0004"/>
</g>
<!-- Node6&#45;&gt;Node7 -->
<g id="edge8" class="edge">
<title>Node6&#45;&gt;Node7</title>
<path fill="none" stroke="#191970" d="M386.73,-52.5407C372.6721,-42.5973 355.1698,-30.2177 342.9447,-21.5707"/>
<polygon fill="#191970" stroke="#191970" points="384.7746,-55.4447 394.9599,-58.3619 388.8169,-49.7298 384.7746,-55.4447"/>
</g>
<!-- Node8 -->
<g id="node8" class="node">
<title>Node8</title>
<g id="a_node8"><a xlink:href="../../d0/dce/CMyHoldings_8cpp.html" target="_top" xlink:title=" ">
<polygon fill="none" stroke="#000000" points="563.5,-.5 563.5,-21.5 720.5,-21.5 720.5,-.5 563.5,-.5"/>
<text text-anchor="middle" x="642" y="-7.9" font-family="Helvetica,sans-Serif" font-size="12.00" fill="#000000">sources/CMyHoldings.cpp</text>
</a>
</g>
</g>
<!-- Node6&#45;&gt;Node8 -->
<g id="edge9" class="edge">
<title>Node6&#45;&gt;Node8</title>
<path fill="none" stroke="#191970" d="M461.9573,-56.0107C503.5563,-45.6109 561.1594,-31.2102 599.9078,-21.5231"/>
<polygon fill="#191970" stroke="#191970" points="460.866,-52.6757 452.0134,-58.4966 462.5638,-59.4667 460.866,-52.6757"/>
</g>
<!-- Node9 -->
<g id="node9" class="node">
<title>Node9</title>
<g id="a_node9"><a xlink:href="../../d8/dbf/CPortfolio_8cpp.html" target="_top" xlink:title=" ">
<polygon fill="none" stroke="#000000" points="408.5,-.5 408.5,-21.5 545.5,-21.5 545.5,-.5 408.5,-.5"/>
<text text-anchor="middle" x="477" y="-7.9" font-family="Helvetica,sans-Serif" font-size="12.00" fill="#000000">sources/CPortfolio.cpp</text>
</a>
</g>
</g>
<!-- Node6&#45;&gt;Node9 -->
<g id="edge10" class="edge">
<title>Node6&#45;&gt;Node9</title>
<path fill="none" stroke="#191970" d="M429.9952,-51.6908C441.3056,-41.8996 455.083,-29.973 464.7891,-21.5707"/>
<polygon fill="#191970" stroke="#191970" points="427.5587,-49.1706 422.2888,-58.3619 432.1402,-54.4631 427.5587,-49.1706"/>
</g>
<!-- Node10&#45;&gt;Node3 -->
<g id="edge19" class="edge">
<title>Node10&#45;&gt;Node3</title>
<path fill="none" stroke="#191970" d="M271.5265,-226.1609C261.7482,-218.1583 251.3274,-207.7639 245,-196 212.9414,-136.3964 213.1733,-51.5197 214.3874,-21.7864"/>
<polygon fill="#191970" stroke="#191970" points="269.4288,-228.9631 279.4851,-232.2981 273.7035,-223.4199 269.4288,-228.9631"/>
</g>
<!-- Node10&#45;&gt;Node6 -->
<g id="edge18" class="edge">
<title>Node10&#45;&gt;Node6</title>
<path fill="none" stroke="#191970" d="M346.6065,-228.5439C363.1874,-221.3587 380.1261,-210.9158 391,-196 417.1352,-160.1502 414.1193,-103.2942 411.4807,-79.7528"/>
<polygon fill="#191970" stroke="#191970" points="344.9222,-225.4477 336.9337,-232.4072 347.5186,-231.9484 344.9222,-225.4477"/>
</g>
<!-- Node11 -->
<g id="node11" class="node">
<title>Node11</title>
<g id="a_node11"><a xlink:href="../../df/dca/CMyHoldings_8h.html" target="_top" xlink:title=" ">
<polygon fill="none" stroke="#000000" points="438,-174.5 438,-195.5 584,-195.5 584,-174.5 438,-174.5"/>
<text text-anchor="middle" x="511" y="-181.9" font-family="Helvetica,sans-Serif" font-size="12.00" fill="#000000">headers/CMyHoldings.h</text>
</a>
</g>
</g>
<!-- Node10&#45;&gt;Node11 -->
<g id="edge14" class="edge">
<title>Node10&#45;&gt;Node11</title>
<path fill="none" stroke="#191970" d="M344.8854,-229.8123C383.3773,-219.4285 436.3108,-205.1487 471.9921,-195.5231"/>
<polygon fill="#191970" stroke="#191970" points="343.6781,-226.5128 334.9349,-232.4966 345.5014,-233.2712 343.6781,-226.5128"/>
</g>
<!-- Node12 -->
<g id="node12" class="node">
<title>Node12</title>
<g id="a_node12"><a xlink:href="../../d3/d2d/CBroker_8cpp.html" target="_top" xlink:title=" ">
<polygon fill="none" stroke="#000000" points="254,-174.5 254,-195.5 382,-195.5 382,-174.5 254,-174.5"/>
<text text-anchor="middle" x="318" y="-181.9" font-family="Helvetica,sans-Serif" font-size="12.00" fill="#000000">sources/CBroker.cpp</text>
</a>
</g>
</g>
<!-- Node10&#45;&gt;Node12 -->
<g id="edge20" class="edge">
<title>Node10&#45;&gt;Node12</title>
<path fill="none" stroke="#191970" d="M303.6682,-222.7838C307.1453,-213.617 311.1128,-203.1572 313.9904,-195.5707"/>
<polygon fill="#191970" stroke="#191970" points="300.3093,-221.7706 300.0351,-232.3619 306.8542,-224.2532 300.3093,-221.7706"/>
</g>
<!-- Node11&#45;&gt;Node5 -->
<g id="edge15" class="edge">
<title>Node11&#45;&gt;Node5</title>
<path fill="none" stroke="#191970" d="M465.5267,-171.6795C430.117,-161.307 381.6437,-147.1078 348.9236,-137.5231"/>
<polygon fill="#191970" stroke="#191970" points="464.563,-175.0443 475.1437,-174.4966 466.5309,-168.3265 464.563,-175.0443"/>
</g>
<!-- Node11&#45;&gt;Node6 -->
<g id="edge16" class="edge">
<title>Node11&#45;&gt;Node6</title>
<path fill="none" stroke="#191970" d="M495.1048,-166.7441C473.7721,-142.2432 436.5677,-99.5134 419.2983,-79.6792"/>
<polygon fill="#191970" stroke="#191970" points="492.4729,-169.0514 501.6792,-174.2949 497.7522,-164.4547 492.4729,-169.0514"/>
</g>
<!-- Node11&#45;&gt;Node8 -->
<g id="edge17" class="edge">
<title>Node11&#45;&gt;Node8</title>
<path fill="none" stroke="#191970" d="M525.2381,-166.0883C552.6564,-129.6701 611.9975,-50.8507 633.7728,-21.9277"/>
<polygon fill="#191970" stroke="#191970" points="522.216,-164.2833 518.9974,-174.3774 527.8083,-168.4936 522.216,-164.2833"/>
</g>
</g>
</svg>
