<?xml version="1.0" encoding="UTF-8" standalone="no"?>
<!DOCTYPE svg PUBLIC "-//W3C//DTD SVG 1.1//EN"
 "http://www.w3.org/Graphics/SVG/1.1/DTD/svg11.dtd">
<!-- Generated by graphviz version 2.40.1 (20161225.0304)
 -->
<!-- Title: headers/CAsset.h Pages: 1 -->
<svg width="399pt" height="204pt"
 viewBox="0.00 0.00 399.04 204.00" xmlns="http://www.w3.org/2000/svg" xmlns:xlink="http://www.w3.org/1999/xlink">
<g id="graph0" class="graph" transform="scale(1 1) rotate(0) translate(4 200)">
<title>headers/CAsset.h</title>
<!-- Node1 -->
<g id="node1" class="node">
<title>Node1</title>
<g id="a_node1"><a xlink:title=" ">
<polygon fill="#bfbfbf" stroke="#000000" points="88.4528,-174.5 88.4528,-195.5 200.4528,-195.5 200.4528,-174.5 88.4528,-174.5"/>
<text text-anchor="middle" x="144.4528" y="-181.9" font-family="Helvetica,sans-Serif" font-size="12.00" fill="#000000">headers/CAsset.h</text>
</a>
</g>
</g>
<!-- Node2 -->
<g id="node2" class="node">
<title>Node2</title>
<g id="a_node2"><a xlink:title=" ">
<polygon fill="none" stroke="#bfbfbf" points="55.4528,-.5 55.4528,-21.5 117.4528,-21.5 117.4528,-.5 55.4528,-.5"/>
<text text-anchor="middle" x="86.4528" y="-7.9" font-family="Helvetica,sans-Serif" font-size="12.00" fill="#000000">iostream</text>
</a>
</g>
</g>
<!-- Node1&#45;&gt;Node2 -->
<g id="edge1" class="edge">
<title>Node1&#45;&gt;Node2</title>
<path fill="none" stroke="#191970" d="M116.6466,-174.3971C82.0493,-159.4311 24.9132,-128.4104 3.4528,-80 -.5098,-71.0612 -1.4715,-66.4473 3.4528,-58 12.7247,-42.0942 29.598,-31.1393 45.7214,-23.835"/>
<polygon fill="#191970" stroke="#191970" points="47.1773,-27.0201 55.0647,-19.9463 44.4875,-20.5575 47.1773,-27.0201"/>
</g>
<!-- Node3 -->
<g id="node3" class="node">
<title>Node3</title>
<g id="a_node3"><a xlink:title=" ">
<polygon fill="none" stroke="#bfbfbf" points="12.4528,-58.5 12.4528,-79.5 58.4528,-79.5 58.4528,-58.5 12.4528,-58.5"/>
<text text-anchor="middle" x="35.4528" y="-65.9" font-family="Helvetica,sans-Serif" font-size="12.00" fill="#000000">string</text>
</a>
</g>
</g>
<!-- Node1&#45;&gt;Node3 -->
<g id="edge2" class="edge">
<title>Node1&#45;&gt;Node3</title>
<path fill="none" stroke="#191970" d="M130.9774,-174.4243C119.6705,-165.2864 103.3473,-151.4644 90.4528,-138 75.1851,-122.0577 59.6798,-102.2017 49.0413,-87.8886"/>
<polygon fill="#191970" stroke="#191970" points="51.8287,-85.7709 43.092,-79.7775 46.1842,-89.911 51.8287,-85.7709"/>
</g>
<!-- Node4 -->
<g id="node4" class="node">
<title>Node4</title>
<g id="a_node4"><a xlink:title=" ">
<polygon fill="none" stroke="#bfbfbf" points="209.9528,-.5 209.9528,-21.5 258.9528,-21.5 258.9528,-.5 209.9528,-.5"/>
<text text-anchor="middle" x="234.4528" y="-7.9" font-family="Helvetica,sans-Serif" font-size="12.00" fill="#000000">vector</text>
</a>
</g>
</g>
<!-- Node1&#45;&gt;Node4 -->
<g id="edge3" class="edge">
<title>Node1&#45;&gt;Node4</title>
<path fill="none" stroke="#191970" d="M200.609,-178.3448C258.3292,-168.1597 345.2661,-142.7384 385.4528,-80 414.2376,-35.0617 322.3939,-19.0333 269.3571,-13.6035"/>
<polygon fill="#191970" stroke="#191970" points="269.5996,-10.1109 259.3144,-12.6534 268.9403,-17.0797 269.5996,-10.1109"/>
</g>
<!-- Node5 -->
<g id="node5" class="node">
<title>Node5</title>
<g id="a_node5"><a xlink:title=" ">
<polygon fill="none" stroke="#bfbfbf" points="206.9528,-116.5 206.9528,-137.5 249.9528,-137.5 249.9528,-116.5 206.9528,-116.5"/>
<text text-anchor="middle" x="228.4528" y="-123.9" font-family="Helvetica,sans-Serif" font-size="12.00" fill="#000000">tuple</text>
</a>
</g>
</g>
<!-- Node1&#45;&gt;Node5 -->
<g id="edge4" class="edge">
<title>Node1&#45;&gt;Node5</title>
<path fill="none" stroke="#191970" d="M159.8597,-174.3619C172.411,-165.6955 190.3449,-153.3126 204.7273,-143.3819"/>
<polygon fill="#191970" stroke="#191970" points="206.9032,-146.1327 213.1435,-137.5707 202.9259,-140.3725 206.9032,-146.1327"/>
</g>
<!-- Node6 -->
<g id="node6" class="node">
<title>Node6</title>
<g id="a_node6"><a xlink:href="../../dd/d85/CDataBase_8h.html" target="_top" xlink:title=" ">
<polygon fill="none" stroke="#000000" points="99.9528,-116.5 99.9528,-137.5 188.9528,-137.5 188.9528,-116.5 99.9528,-116.5"/>
<text text-anchor="middle" x="144.4528" y="-123.9" font-family="Helvetica,sans-Serif" font-size="12.00" fill="#000000">CDataBase.h</text>
</a>
</g>
</g>
<!-- Node1&#45;&gt;Node6 -->
<g id="edge5" class="edge">
<title>Node1&#45;&gt;Node6</title>
<path fill="none" stroke="#191970" d="M144.4528,-174.3619C144.4528,-166.9219 144.4528,-156.7427 144.4528,-147.7276"/>
<polygon fill="#191970" stroke="#191970" points="147.9529,-147.5706 144.4528,-137.5707 140.9529,-147.5707 147.9529,-147.5706"/>
</g>
<!-- Node6&#45;&gt;Node2 -->
<g id="edge6" class="edge">
<title>Node6&#45;&gt;Node2</title>
<path fill="none" stroke="#191970" d="M133.36,-116.3924C124.6098,-107.449 112.7086,-93.9143 105.4528,-80 97.565,-64.8739 92.6729,-46.1257 89.8319,-31.9914"/>
<polygon fill="#191970" stroke="#191970" points="93.2113,-31.0131 87.9752,-21.8025 86.3247,-32.268 93.2113,-31.0131"/>
</g>
<!-- Node6&#45;&gt;Node3 -->
<g id="edge7" class="edge">
<title>Node6&#45;&gt;Node3</title>
<path fill="none" stroke="#191970" d="M124.7137,-116.4966C107.8426,-107.5194 83.3442,-94.4835 64.279,-84.3387"/>
<polygon fill="#191970" stroke="#191970" points="65.8855,-81.2289 55.4133,-79.6212 62.5972,-87.4086 65.8855,-81.2289"/>
</g>
<!-- Node6&#45;&gt;Node4 -->
<g id="edge9" class="edge">
<title>Node6&#45;&gt;Node4</title>
<path fill="none" stroke="#191970" d="M153.3121,-116.2565C161.0817,-106.784 172.6378,-92.5719 182.4528,-80 195.4766,-63.3177 209.9401,-44.0646 220.3001,-30.1418"/>
<polygon fill="#191970" stroke="#191970" points="223.31,-31.959 226.4591,-21.843 217.6889,-27.7872 223.31,-31.959"/>
</g>
<!-- Node7 -->
<g id="node7" class="node">
<title>Node7</title>
<g id="a_node7"><a xlink:title=" ">
<polygon fill="none" stroke="#bfbfbf" points="320.4528,-58.5 320.4528,-79.5 376.4528,-79.5 376.4528,-58.5 320.4528,-58.5"/>
<text text-anchor="middle" x="348.4528" y="-65.9" font-family="Helvetica,sans-Serif" font-size="12.00" fill="#000000">fstream</text>
</a>
</g>
</g>
<!-- Node6&#45;&gt;Node7 -->
<g id="edge8" class="edge">
<title>Node6&#45;&gt;Node7</title>
<path fill="none" stroke="#191970" d="M182.6358,-116.4251C214.3965,-107.5906 261.0447,-94.5273 310.3011,-80.3089"/>
<polygon fill="#191970" stroke="#191970" points="311.5497,-83.5913 320.1835,-77.4507 309.6048,-76.8669 311.5497,-83.5913"/>
</g>
<!-- Node8 -->
<g id="node8" class="node">
<title>Node8</title>
<g id="a_node8"><a xlink:href="../../d2/d92/CRisk_8h.html" target="_top" xlink:title=" ">
<polygon fill="none" stroke="#000000" points="114.9528,-58.5 114.9528,-79.5 173.9528,-79.5 173.9528,-58.5 114.9528,-58.5"/>
<text text-anchor="middle" x="144.4528" y="-65.9" font-family="Helvetica,sans-Serif" font-size="12.00" fill="#000000">CRisk.h</text>
</a>
</g>
</g>
<!-- Node6&#45;&gt;Node8 -->
<g id="edge10" class="edge">
<title>Node6&#45;&gt;Node8</title>
<path fill="none" stroke="#191970" d="M144.4528,-116.3619C144.4528,-108.9219 144.4528,-98.7427 144.4528,-89.7276"/>
<polygon fill="#191970" stroke="#191970" points="147.9529,-89.5706 144.4528,-79.5707 140.9529,-89.5707 147.9529,-89.5706"/>
</g>
<!-- Node9 -->
<g id="node9" class="node">
<title>Node9</title>
<g id="a_node9"><a xlink:href="../../d3/d97/CReturn_8h.html" target="_top" xlink:title=" ">
<polygon fill="none" stroke="#000000" points="230.9528,-58.5 230.9528,-79.5 301.9528,-79.5 301.9528,-58.5 230.9528,-58.5"/>
<text text-anchor="middle" x="266.4528" y="-65.9" font-family="Helvetica,sans-Serif" font-size="12.00" fill="#000000">CReturn.h</text>
</a>
</g>
</g>
<!-- Node6&#45;&gt;Node9 -->
<g id="edge13" class="edge">
<title>Node6&#45;&gt;Node9</title>
<path fill="none" stroke="#191970" d="M166.546,-116.4966C185.6867,-107.397 213.5989,-94.1273 235.0581,-83.9253"/>
<polygon fill="#191970" stroke="#191970" points="236.583,-87.0758 244.1116,-79.6212 233.5774,-80.7539 236.583,-87.0758"/>
</g>
<!-- Node8&#45;&gt;Node2 -->
<g id="edge11" class="edge">
<title>Node8&#45;&gt;Node2</title>
<path fill="none" stroke="#191970" d="M133.8147,-58.3619C125.5571,-50.1043 113.9252,-38.4725 104.2556,-28.8029"/>
<polygon fill="#191970" stroke="#191970" points="106.5694,-26.1669 97.0234,-21.5707 101.6196,-31.1166 106.5694,-26.1669"/>
</g>
<!-- Node8&#45;&gt;Node4 -->
<g id="edge12" class="edge">
<title>Node8&#45;&gt;Node4</title>
<path fill="none" stroke="#191970" d="M160.9601,-58.3619C174.5348,-49.6138 193.986,-37.0786 209.4677,-27.1015"/>
<polygon fill="#191970" stroke="#191970" points="211.5403,-29.9297 218.05,-21.5707 207.7483,-24.0457 211.5403,-29.9297"/>
</g>
<!-- Node9&#45;&gt;Node4 -->
<g id="edge14" class="edge">
<title>Node9&#45;&gt;Node4</title>
<path fill="none" stroke="#191970" d="M260.5835,-58.3619C256.2982,-50.5949 250.3659,-39.8426 245.2367,-30.5458"/>
<polygon fill="#191970" stroke="#191970" points="248.1802,-28.6357 240.2848,-21.5707 242.0511,-32.0172 248.1802,-28.6357"/>
</g>
</g>
</svg>
