<?xml version="1.0" encoding="UTF-8" standalone="no"?>
<!DOCTYPE svg PUBLIC "-//W3C//DTD SVG 1.1//EN"
 "http://www.w3.org/Graphics/SVG/1.1/DTD/svg11.dtd">
<!-- Generated by graphviz version 2.40.1 (20161225.0304)
 -->
<!-- Title: headers/CAdministrator.h Pages: 1 -->
<!--zoomable 436 -->
<svg id="main" version="1.1" xmlns="http://www.w3.org/2000/svg" xmlns:xlink="http://www.w3.org/1999/xlink" xml:space="preserve" onload="init(evt)">
<style type="text/css"><![CDATA[
.edge:hover path { stroke: red; }
.edge:hover polygon { stroke: red; fill: red; }
]]></style>
<script type="text/javascript"><![CDATA[
var edges = document.getElementsByTagName('g');
if (edges && edges.length) {
  for (var i=0;i<edges.length;i++) {
    if (edges[i].id.substr(0,4)=='edge') {
      edges[i].setAttribute('class','edge');
    }
  }
}
]]></script>
        <defs>
                <circle id="rim" cx="0" cy="0" r="7"/>
                <circle id="rim2" cx="0" cy="0" r="3.5"/>
                <g id="zoomPlus">
                        <use xlink:href="#rim" fill="#404040">
                                <set attributeName="fill" to="#808080" begin="zoomplus.mouseover" end="zoomplus.mouseout"/>
                        </use>
                        <path d="M-4,0h8M0,-4v8" fill="none" stroke="white" stroke-width="1.5" pointer-events="none"/>
                </g>
                <g id="zoomMin">
                        <use xlink:href="#rim" fill="#404040">
                                <set attributeName="fill" to="#808080" begin="zoomminus.mouseover" end="zoomminus.mouseout"/>
                        </use>
                        <path d="M-4,0h8" fill="none" stroke="white" stroke-width="1.5" pointer-events="none"/>
                </g>
                <g id="dirArrow">
                        <path fill="none" stroke="white" stroke-width="1.5" d="M0,-3.0v7 M-2.5,-0.5L0,-3.0L2.5,-0.5"/>
                </g>
               <g id="resetDef">
                       <use xlink:href="#rim2" fill="#404040">
                               <set attributeName="fill" to="#808080" begin="reset.mouseover" end="reset.mouseout"/>
                       </use>
               </g>
        </defs>

<script type="text/javascript">
var viewWidth = 703;
var viewHeight = 436;
var sectionId = 'dynsection-0';
</script>
<script xlink:href="../../svgpan.js"/>
<svg id="graph" class="graph">
<g id="viewport">
<title>headers/CAdministrator.h</title>
<!-- Node1 -->
<g id="node1" class="node">
<title>Node1</title>
<g id="a_node1"><a xlink:title=" ">
<polygon fill="#bfbfbf" stroke="#000000" points="0,-406.5 0,-427.5 152,-427.5 152,-406.5 0,-406.5"/>
<text text-anchor="middle" x="76" y="-413.9" font-family="Helvetica,sans-Serif" font-size="12.00" fill="#000000">headers/CAdministrator.h</text>
</a>
</g>
</g>
<!-- Node2 -->
<g id="node2" class="node">
<title>Node2</title>
<g id="a_node2"><a xlink:title=" ">
<polygon fill="none" stroke="#bfbfbf" points="236,-.5 236,-21.5 298,-21.5 298,-.5 236,-.5"/>
<text text-anchor="middle" x="267" y="-7.9" font-family="Helvetica,sans-Serif" font-size="12.00" fill="#000000">iostream</text>
</a>
</g>
</g>
<!-- Node1&#45;&gt;Node2 -->
<g id="edge1" class="edge">
<title>Node1&#45;&gt;Node2</title>
<path fill="none" stroke="#191970" d="M64.6344,-406.3546C45.519,-387.2347 9,-344.9553 9,-301 9,-301 9,-301 9,-127 9,-79.9781 153.3598,-38.3969 226.1113,-20.4272"/>
<polygon fill="#191970" stroke="#191970" points="226.9903,-23.8156 235.8792,-18.0502 225.3351,-17.0141 226.9903,-23.8156"/>
</g>
<!-- Node3 -->
<g id="node3" class="node">
<title>Node3</title>
<g id="a_node3"><a xlink:title=" ">
<polygon fill="none" stroke="#bfbfbf" points="193,-58.5 193,-79.5 239,-79.5 239,-58.5 193,-58.5"/>
<text text-anchor="middle" x="216" y="-65.9" font-family="Helvetica,sans-Serif" font-size="12.00" fill="#000000">string</text>
</a>
</g>
</g>
<!-- Node1&#45;&gt;Node3 -->
<g id="edge2" class="edge">
<title>Node1&#45;&gt;Node3</title>
<path fill="none" stroke="#191970" d="M71.4688,-406.3481C63.3125,-386.1783 47,-340.8567 47,-301 47,-301 47,-301 47,-185 47,-119.7154 133.7856,-88.4287 182.9746,-75.9389"/>
<polygon fill="#191970" stroke="#191970" points="183.9562,-79.3025 192.8556,-73.5535 182.3135,-72.498 183.9562,-79.3025"/>
</g>
<!-- Node4 -->
<g id="node4" class="node">
<title>Node4</title>
<g id="a_node4"><a xlink:href="../../de/d98/CUser_8h.html" target="_top" xlink:title=" ">
<polygon fill="none" stroke="#000000" points="75.5,-174.5 75.5,-195.5 136.5,-195.5 136.5,-174.5 75.5,-174.5"/>
<text text-anchor="middle" x="106" y="-181.9" font-family="Helvetica,sans-Serif" font-size="12.00" fill="#000000">CUser.h</text>
</a>
</g>
</g>
<!-- Node1&#45;&gt;Node4 -->
<g id="edge3" class="edge">
<title>Node1&#45;&gt;Node4</title>
<path fill="none" stroke="#191970" d="M77.367,-406.4286C81.9938,-370.6481 97.1212,-253.6628 103.3171,-205.7481"/>
<polygon fill="#191970" stroke="#191970" points="106.8136,-205.9998 104.625,-195.6335 99.8714,-205.1021 106.8136,-205.9998"/>
</g>
<!-- Node5 -->
<g id="node5" class="node">
<title>Node5</title>
<g id="a_node5"><a xlink:href="../../dd/d2c/CClient_8h.html" target="_top" xlink:title=" ">
<polygon fill="none" stroke="#000000" points="188.5,-348.5 188.5,-369.5 255.5,-369.5 255.5,-348.5 188.5,-348.5"/>
<text text-anchor="middle" x="222" y="-355.9" font-family="Helvetica,sans-Serif" font-size="12.00" fill="#000000">CClient.h</text>
</a>
</g>
</g>
<!-- Node1&#45;&gt;Node5 -->
<g id="edge5" class="edge">
<title>Node1&#45;&gt;Node5</title>
<path fill="none" stroke="#191970" d="M102.4395,-406.4966C125.7564,-397.2337 159.9503,-383.6499 185.8037,-373.3793"/>
<polygon fill="#191970" stroke="#191970" points="187.2625,-376.566 195.2638,-369.6212 184.6781,-370.0605 187.2625,-376.566"/>
</g>
<!-- Node4&#45;&gt;Node3 -->
<g id="edge4" class="edge">
<title>Node4&#45;&gt;Node3</title>
<path fill="none" stroke="#191970" d="M116.1514,-174.2949C134.9785,-154.4408 175.5001,-111.709 198.7187,-87.2239"/>
<polygon fill="#191970" stroke="#191970" points="201.5319,-89.3438 205.8732,-79.6792 196.4525,-84.5271 201.5319,-89.3438"/>
</g>
<!-- Node5&#45;&gt;Node2 -->
<g id="edge6" class="edge">
<title>Node5&#45;&gt;Node2</title>
<path fill="none" stroke="#191970" d="M212.5876,-348.3462C196.398,-328.8808 165,-285.6338 165,-243 165,-243 165,-243 165,-127 165,-95.1919 164.4445,-83.0866 184,-58 194.9603,-43.9397 211.3806,-33.3932 226.7304,-25.8917"/>
<polygon fill="#191970" stroke="#191970" points="228.453,-28.9526 236.0911,-21.6102 225.5413,-22.5869 228.453,-28.9526"/>
</g>
<!-- Node5&#45;&gt;Node3 -->
<g id="edge7" class="edge">
<title>Node5&#45;&gt;Node3</title>
<path fill="none" stroke="#191970" d="M219.0313,-348.2216C213.6875,-327.841 203,-282.1819 203,-243 203,-243 203,-243 203,-185 203,-151.3887 208.4569,-112.638 212.2997,-89.5162"/>
<polygon fill="#191970" stroke="#191970" points="215.7745,-89.9614 214.0256,-79.5119 208.8764,-88.7713 215.7745,-89.9614"/>
</g>
<!-- Node5&#45;&gt;Node4 -->
<g id="edge8" class="edge">
<title>Node5&#45;&gt;Node4</title>
<path fill="none" stroke="#191970" d="M214.9183,-348.3774C195.8725,-319.8088 143.3447,-241.017 118.8666,-204.2999"/>
<polygon fill="#191970" stroke="#191970" points="121.7444,-202.3068 113.2851,-195.9277 115.92,-206.1897 121.7444,-202.3068"/>
</g>
<!-- Node6 -->
<g id="node6" class="node">
<title>Node6</title>
<g id="a_node6"><a xlink:href="../../df/dca/CMyHoldings_8h.html" target="_top" xlink:title=" ">
<polygon fill="none" stroke="#000000" points="269.5,-290.5 269.5,-311.5 368.5,-311.5 368.5,-290.5 269.5,-290.5"/>
<text text-anchor="middle" x="319" y="-297.9" font-family="Helvetica,sans-Serif" font-size="12.00" fill="#000000">CMyHoldings.h</text>
</a>
</g>
</g>
<!-- Node5&#45;&gt;Node6 -->
<g id="edge9" class="edge">
<title>Node5&#45;&gt;Node6</title>
<path fill="none" stroke="#191970" d="M239.7913,-348.3619C254.5585,-339.532 275.7782,-326.844 292.5384,-316.8224"/>
<polygon fill="#191970" stroke="#191970" points="294.5349,-319.7066 301.3215,-311.5707 290.9426,-313.6987 294.5349,-319.7066"/>
</g>
<!-- Node8 -->
<g id="node8" class="node">
<title>Node8</title>
<g id="a_node8"><a xlink:href="../../dd/d85/CDataBase_8h.html" target="_top" xlink:title=" ">
<polygon fill="none" stroke="#000000" points="377.5,-116.5 377.5,-137.5 466.5,-137.5 466.5,-116.5 377.5,-116.5"/>
<text text-anchor="middle" x="422" y="-123.9" font-family="Helvetica,sans-Serif" font-size="12.00" fill="#000000">CDataBase.h</text>
</a>
</g>
</g>
<!-- Node5&#45;&gt;Node8 -->
<g id="edge30" class="edge">
<title>Node5&#45;&gt;Node8</title>
<path fill="none" stroke="#191970" d="M255.6223,-352.9274C296.2531,-344.9214 361.2666,-329.7534 378,-312 421.0945,-266.2787 424.4323,-186.2953 423.3078,-148.2593"/>
<polygon fill="#191970" stroke="#191970" points="426.7878,-147.7239 422.8547,-137.8862 419.7945,-148.0294 426.7878,-147.7239"/>
</g>
<!-- Node6&#45;&gt;Node3 -->
<g id="edge29" class="edge">
<title>Node6&#45;&gt;Node3</title>
<path fill="none" stroke="#191970" d="M314.1532,-290.1768C309.8909,-280.6533 303.5232,-266.411 298,-254 271.3338,-194.0792 239.9523,-123.1692 224.9139,-89.1637"/>
<polygon fill="#191970" stroke="#191970" points="228.04,-87.5785 220.7949,-79.8481 221.6379,-90.4093 228.04,-87.5785"/>
</g>
<!-- Node7 -->
<g id="node7" class="node">
<title>Node7</title>
<g id="a_node7"><a xlink:href="../../df/d1a/CBroker_8h.html" target="_top" xlink:title=" ">
<polygon fill="none" stroke="#000000" points="307.5,-232.5 307.5,-253.5 378.5,-253.5 378.5,-232.5 307.5,-232.5"/>
<text text-anchor="middle" x="343" y="-239.9" font-family="Helvetica,sans-Serif" font-size="12.00" fill="#000000">CBroker.h</text>
</a>
</g>
</g>
<!-- Node6&#45;&gt;Node7 -->
<g id="edge10" class="edge">
<title>Node6&#45;&gt;Node7</title>
<path fill="none" stroke="#191970" d="M323.402,-290.3619C326.5821,-282.6766 330.9716,-272.0686 334.7904,-262.8399"/>
<polygon fill="#191970" stroke="#191970" points="338.0364,-264.1491 338.6259,-253.5707 331.5683,-261.4726 338.0364,-264.1491"/>
</g>
<!-- Node7&#45;&gt;Node3 -->
<g id="edge22" class="edge">
<title>Node7&#45;&gt;Node3</title>
<path fill="none" stroke="#191970" d="M340.5057,-232.3671C334.6064,-209.0646 317.9169,-152.6556 287,-116 276.2362,-103.2383 261.1513,-92.5892 247.6527,-84.6725"/>
<polygon fill="#191970" stroke="#191970" points="249.071,-81.4557 238.6336,-79.6358 245.658,-87.5673 249.071,-81.4557"/>
</g>
<!-- Node7&#45;&gt;Node4 -->
<g id="edge11" class="edge">
<title>Node7&#45;&gt;Node4</title>
<path fill="none" stroke="#191970" d="M307.2621,-234.254C264.103,-223.6919 191.6888,-205.9703 146.5004,-194.9115"/>
<polygon fill="#191970" stroke="#191970" points="147.2846,-191.5002 136.7392,-192.5227 145.6206,-198.2995 147.2846,-191.5002"/>
</g>
<!-- Node7&#45;&gt;Node8 -->
<g id="edge12" class="edge">
<title>Node7&#45;&gt;Node8</title>
<path fill="none" stroke="#191970" d="M350.2905,-232.2949C363.6355,-212.6998 392.1572,-170.8198 408.9301,-146.1913"/>
<polygon fill="#191970" stroke="#191970" points="411.991,-147.9147 414.7271,-137.6792 406.2052,-143.9744 411.991,-147.9147"/>
</g>
<!-- Node13 -->
<g id="node13" class="node">
<title>Node13</title>
<g id="a_node13"><a xlink:href="../../d7/d79/CAsset_8h.html" target="_top" xlink:title=" ">
<polygon fill="none" stroke="#000000" points="498.5,-174.5 498.5,-195.5 563.5,-195.5 563.5,-174.5 498.5,-174.5"/>
<text text-anchor="middle" x="531" y="-181.9" font-family="Helvetica,sans-Serif" font-size="12.00" fill="#000000">CAsset.h</text>
</a>
</g>
</g>
<!-- Node7&#45;&gt;Node13 -->
<g id="edge23" class="edge">
<title>Node7&#45;&gt;Node13</title>
<path fill="none" stroke="#191970" d="M377.0454,-232.4966C408.4414,-222.8106 455.152,-208.3999 488.8834,-197.9934"/>
<polygon fill="#191970" stroke="#191970" points="489.9421,-201.3297 498.4659,-195.0371 487.8784,-194.6407 489.9421,-201.3297"/>
</g>
<!-- Node8&#45;&gt;Node2 -->
<g id="edge13" class="edge">
<title>Node8&#45;&gt;Node2</title>
<path fill="none" stroke="#191970" d="M377.6044,-116.4369C343.0101,-107.3611 298.7747,-93.6201 286,-80 273.7566,-66.9464 269.2758,-46.7382 267.6983,-31.559"/>
<polygon fill="#191970" stroke="#191970" points="271.1886,-31.2979 266.9932,-21.5692 264.206,-31.7908 271.1886,-31.2979"/>
</g>
<!-- Node8&#45;&gt;Node3 -->
<g id="edge14" class="edge">
<title>Node8&#45;&gt;Node3</title>
<path fill="none" stroke="#191970" d="M383.3505,-116.4608C349.0608,-107.0605 297.6319,-92.8396 253,-80 251.5912,-79.5947 250.153,-79.1784 248.7007,-78.7558"/>
<polygon fill="#191970" stroke="#191970" points="249.6551,-75.3884 239.0741,-75.9285 247.6825,-82.1047 249.6551,-75.3884"/>
</g>
<!-- Node9 -->
<g id="node9" class="node">
<title>Node9</title>
<g id="a_node9"><a xlink:title=" ">
<polygon fill="none" stroke="#bfbfbf" points="295,-58.5 295,-79.5 351,-79.5 351,-58.5 295,-58.5"/>
<text text-anchor="middle" x="323" y="-65.9" font-family="Helvetica,sans-Serif" font-size="12.00" fill="#000000">fstream</text>
</a>
</g>
</g>
<!-- Node8&#45;&gt;Node9 -->
<g id="edge15" class="edge">
<title>Node8&#45;&gt;Node9</title>
<path fill="none" stroke="#191970" d="M403.8419,-116.3619C388.7701,-107.532 367.1129,-94.844 350.0072,-84.8224"/>
<polygon fill="#191970" stroke="#191970" points="351.4406,-81.6058 341.043,-79.5707 347.9021,-87.6456 351.4406,-81.6058"/>
</g>
<!-- Node10 -->
<g id="node10" class="node">
<title>Node10</title>
<g id="a_node10"><a xlink:title=" ">
<polygon fill="none" stroke="#bfbfbf" points="464.5,-.5 464.5,-21.5 513.5,-21.5 513.5,-.5 464.5,-.5"/>
<text text-anchor="middle" x="489" y="-7.9" font-family="Helvetica,sans-Serif" font-size="12.00" fill="#000000">vector</text>
</a>
</g>
</g>
<!-- Node8&#45;&gt;Node10 -->
<g id="edge16" class="edge">
<title>Node8&#45;&gt;Node10</title>
<path fill="none" stroke="#191970" d="M428.1831,-116.2949C439.4511,-96.7861 463.4774,-55.1884 477.7268,-30.5177"/>
<polygon fill="#191970" stroke="#191970" points="480.861,-32.0891 482.8318,-21.6792 474.7995,-28.588 480.861,-32.0891"/>
</g>
<!-- Node11 -->
<g id="node11" class="node">
<title>Node11</title>
<g id="a_node11"><a xlink:href="../../d2/d92/CRisk_8h.html" target="_top" xlink:title=" ">
<polygon fill="none" stroke="#000000" points="369.5,-58.5 369.5,-79.5 428.5,-79.5 428.5,-58.5 369.5,-58.5"/>
<text text-anchor="middle" x="399" y="-65.9" font-family="Helvetica,sans-Serif" font-size="12.00" fill="#000000">CRisk.h</text>
</a>
</g>
</g>
<!-- Node8&#45;&gt;Node11 -->
<g id="edge17" class="edge">
<title>Node8&#45;&gt;Node11</title>
<path fill="none" stroke="#191970" d="M417.7814,-116.3619C414.7663,-108.7584 410.6166,-98.294 406.9845,-89.1349"/>
<polygon fill="#191970" stroke="#191970" points="410.1317,-87.5762 403.1918,-79.5707 403.6246,-90.1567 410.1317,-87.5762"/>
</g>
<!-- Node12 -->
<g id="node12" class="node">
<title>Node12</title>
<g id="a_node12"><a xlink:href="../../d3/d97/CReturn_8h.html" target="_top" xlink:title=" ">
<polygon fill="none" stroke="#000000" points="485.5,-58.5 485.5,-79.5 556.5,-79.5 556.5,-58.5 485.5,-58.5"/>
<text text-anchor="middle" x="521" y="-65.9" font-family="Helvetica,sans-Serif" font-size="12.00" fill="#000000">CReturn.h</text>
</a>
</g>
</g>
<!-- Node8&#45;&gt;Node12 -->
<g id="edge20" class="edge">
<title>Node8&#45;&gt;Node12</title>
<path fill="none" stroke="#191970" d="M440.1581,-116.3619C455.2299,-107.532 476.8871,-94.844 493.9928,-84.8224"/>
<polygon fill="#191970" stroke="#191970" points="496.0979,-87.6456 502.957,-79.5707 492.5594,-81.6058 496.0979,-87.6456"/>
</g>
<!-- Node11&#45;&gt;Node2 -->
<g id="edge18" class="edge">
<title>Node11&#45;&gt;Node2</title>
<path fill="none" stroke="#191970" d="M375.0958,-58.4966C354.2005,-49.3154 323.6437,-35.8889 300.345,-25.6516"/>
<polygon fill="#191970" stroke="#191970" points="301.7356,-22.4397 291.1724,-21.6212 298.9197,-28.8483 301.7356,-22.4397"/>
</g>
<!-- Node11&#45;&gt;Node10 -->
<g id="edge19" class="edge">
<title>Node11&#45;&gt;Node10</title>
<path fill="none" stroke="#191970" d="M415.5074,-58.3619C429.0821,-49.6138 448.5332,-37.0786 464.015,-27.1015"/>
<polygon fill="#191970" stroke="#191970" points="466.0875,-29.9297 472.5973,-21.5707 462.2956,-24.0457 466.0875,-29.9297"/>
</g>
<!-- Node12&#45;&gt;Node10 -->
<g id="edge21" class="edge">
<title>Node12&#45;&gt;Node10</title>
<path fill="none" stroke="#191970" d="M515.1307,-58.3619C510.8454,-50.5949 504.9131,-39.8426 499.7839,-30.5458"/>
<polygon fill="#191970" stroke="#191970" points="502.7274,-28.6357 494.8321,-21.5707 496.5984,-32.0172 502.7274,-28.6357"/>
</g>
<!-- Node13&#45;&gt;Node2 -->
<g id="edge24" class="edge">
<title>Node13&#45;&gt;Node2</title>
<path fill="none" stroke="#191970" d="M539.5591,-174.4179C557.6432,-150.7241 595.7268,-92.7646 566,-58 549.4341,-38.6266 386.2037,-21.62 308.1581,-14.5225"/>
<polygon fill="#191970" stroke="#191970" points="308.4548,-11.0351 298.1819,-13.6271 307.829,-18.0071 308.4548,-11.0351"/>
</g>
<!-- Node13&#45;&gt;Node3 -->
<g id="edge25" class="edge">
<title>Node13&#45;&gt;Node3</title>
<path fill="none" stroke="#191970" d="M498.4603,-177.4089C465.3338,-169.2537 412.7699,-155.1285 369,-138 348.6397,-130.0324 344.8241,-125.2211 325,-116 299.5601,-104.1668 270.3497,-91.6265 248.5749,-82.4781"/>
<polygon fill="#191970" stroke="#191970" points="249.7097,-79.159 239.1337,-78.5282 247.008,-85.6166 249.7097,-79.159"/>
</g>
<!-- Node13&#45;&gt;Node8 -->
<g id="edge28" class="edge">
<title>Node13&#45;&gt;Node8</title>
<path fill="none" stroke="#191970" d="M511.2609,-174.4966C494.3899,-165.5194 469.8915,-152.4835 450.8262,-142.3387"/>
<polygon fill="#191970" stroke="#191970" points="452.4327,-139.2289 441.9606,-137.6212 449.1445,-145.4086 452.4327,-139.2289"/>
</g>
<!-- Node13&#45;&gt;Node10 -->
<g id="edge26" class="edge">
<title>Node13&#45;&gt;Node10</title>
<path fill="none" stroke="#191970" d="M557.2141,-174.4093C572.3977,-166.7479 590.2018,-154.7763 599,-138 615.5136,-106.5119 618.5893,-87.6725 599,-58 582.4072,-32.8664 549.3142,-21.1258 523.7398,-15.67"/>
<polygon fill="#191970" stroke="#191970" points="524.1377,-12.183 513.66,-13.7542 522.8306,-19.0599 524.1377,-12.183"/>
</g>
<!-- Node14 -->
<g id="node14" class="node">
<title>Node14</title>
<g id="a_node14"><a xlink:title=" ">
<polygon fill="none" stroke="#bfbfbf" points="651.5,-116.5 651.5,-137.5 694.5,-137.5 694.5,-116.5 651.5,-116.5"/>
<text text-anchor="middle" x="673" y="-123.9" font-family="Helvetica,sans-Serif" font-size="12.00" fill="#000000">tuple</text>
</a>
</g>
</g>
<!-- Node13&#45;&gt;Node14 -->
<g id="edge27" class="edge">
<title>Node13&#45;&gt;Node14</title>
<path fill="none" stroke="#191970" d="M556.7151,-174.4966C580.5634,-164.7558 616.1104,-150.2366 641.6203,-139.8171"/>
<polygon fill="#191970" stroke="#191970" points="643.2635,-142.9267 651.1976,-135.9052 640.6166,-136.4464 643.2635,-142.9267"/>
</g>
</g>
</svg>
        <g id="navigator" transform="translate(0 0)" fill="#404254">
                <rect fill="#f2f5e9" fill-opacity="0.5" stroke="#606060" stroke-width=".5" x="0" y="0" width="60" height="60"/>
                <use id="zoomplus" xlink:href="#zoomPlus" x="17" y="9" onmousedown="handleZoom(evt,'in')"/>
                <use id="zoomminus" xlink:href="#zoomMin" x="42" y="9" onmousedown="handleZoom(evt,'out')"/>
                <use id="reset" xlink:href="#resetDef" x="30" y="36" onmousedown="handleReset()"/>
                <g id="arrowUp" xlink:href="#dirArrow" transform="translate(30 24)" onmousedown="handlePan(0,-1)">
                  <use xlink:href="#rim" fill="#404040">
                        <set attributeName="fill" to="#808080" begin="arrowUp.mouseover" end="arrowUp.mouseout"/>
                  </use>
                  <path fill="none" stroke="white" stroke-width="1.5" d="M0,-3.0v7 M-2.5,-0.5L0,-3.0L2.5,-0.5"/>
                </g>
                <g id="arrowRight" xlink:href="#dirArrow" transform="rotate(90) translate(36 -43)" onmousedown="handlePan(1,0)">
                  <use xlink:href="#rim" fill="#404040">
                        <set attributeName="fill" to="#808080" begin="arrowRight.mouseover" end="arrowRight.mouseout"/>
                  </use>
                  <path fill="none" stroke="white" stroke-width="1.5" d="M0,-3.0v7 M-2.5,-0.5L0,-3.0L2.5,-0.5"/>
                </g>
                <g id="arrowDown" xlink:href="#dirArrow" transform="rotate(180) translate(-30 -48)" onmousedown="handlePan(0,1)">
                  <use xlink:href="#rim" fill="#404040">
                        <set attributeName="fill" to="#808080" begin="arrowDown.mouseover" end="arrowDown.mouseout"/>
                  </use>
                  <path fill="none" stroke="white" stroke-width="1.5" d="M0,-3.0v7 M-2.5,-0.5L0,-3.0L2.5,-0.5"/>
                </g>
                <g id="arrowLeft" xlink:href="#dirArrow" transform="rotate(270) translate(-36 17)" onmousedown="handlePan(-1,0)">
                  <use xlink:href="#rim" fill="#404040">
                        <set attributeName="fill" to="#808080" begin="arrowLeft.mouseover" end="arrowLeft.mouseout"/>
                  </use>
                  <path fill="none" stroke="white" stroke-width="1.5" d="M0,-3.0v7 M-2.5,-0.5L0,-3.0L2.5,-0.5"/>
                </g>
        </g>
        <svg viewBox="0 0 15 15" width="100%" height="30px" preserveAspectRatio="xMaxYMin meet">
         <g id="arrow_out" transform="scale(0.3 0.3)">
          <a xlink:href="CAdministrator_8h__incl_org.svg" target="_base">
           <rect id="button" ry="5" rx="5" y="6" x="6" height="38" width="38"
                fill="#f2f5e9" fill-opacity="0.5" stroke="#606060" stroke-width="1.0"/>
           <path id="arrow"
             d="M 11.500037,31.436501 C 11.940474,20.09759 22.043105,11.32322 32.158766,21.979434 L 37.068811,17.246167 C 37.068811,17.246167 37.088388,32 37.088388,32 L 22.160133,31.978069 C 22.160133,31.978069 26.997745,27.140456 26.997745,27.140456 C 18.528582,18.264221 13.291696,25.230495 11.500037,31.436501 z"
             style="fill:#404040;"/>
          </a>
         </g>
        </svg>
</svg>
