<?xml version="1.0" encoding="UTF-8" standalone="no"?>
<!DOCTYPE svg PUBLIC "-//W3C//DTD SVG 1.1//EN"
 "http://www.w3.org/Graphics/SVG/1.1/DTD/svg11.dtd">
<!-- Generated by graphviz version 2.40.1 (20161225.0304)
 -->
<!-- Title: CAsset::meanOfAsset Pages: 1 -->
<svg width="1687pt" height="290pt"
 viewBox="0.00 0.00 1687.00 290.00" xmlns="http://www.w3.org/2000/svg" xmlns:xlink="http://www.w3.org/1999/xlink">
<g id="graph0" class="graph" transform="scale(1 1) rotate(0) translate(4 286)">
<title>CAsset::meanOfAsset</title>
<!-- Node1 -->
<g id="node1" class="node">
<title>Node1</title>
<g id="a_node1"><a xlink:title="Method calculate mean of one Asset.">
<polygon fill="#bfbfbf" stroke="#000000" points="1545,-182.5 1545,-203.5 1679,-203.5 1679,-182.5 1545,-182.5"/>
<text text-anchor="middle" x="1612" y="-189.9" font-family="Helvetica,sans-Serif" font-size="12.00" fill="#000000">CAsset::meanOfAsset</text>
</a>
</g>
</g>
<!-- Node2 -->
<g id="node2" class="node">
<title>Node2</title>
<g id="a_node2"><a xlink:href="../../dc/d85/classCAsset.html#ab68c11feace8e8f4b9852404a458796c" target="_top" xlink:title="Method get data from database through the class CDataBase.">
<polygon fill="none" stroke="#000000" points="1375,-182.5 1375,-203.5 1509,-203.5 1509,-182.5 1375,-182.5"/>
<text text-anchor="middle" x="1442" y="-189.9" font-family="Helvetica,sans-Serif" font-size="12.00" fill="#000000">CAsset::getFromBase</text>
</a>
</g>
</g>
<!-- Node1&#45;&gt;Node2 -->
<g id="edge1" class="edge">
<title>Node1&#45;&gt;Node2</title>
<path fill="none" stroke="#191970" d="M1534.5754,-193C1526.1241,-193 1517.5721,-193 1509.2572,-193"/>
<polygon fill="#191970" stroke="#191970" points="1534.8115,-196.5001 1544.8115,-193 1534.8115,-189.5001 1534.8115,-196.5001"/>
</g>
<!-- Node3 -->
<g id="node3" class="node">
<title>Node3</title>
<g id="a_node3"><a xlink:href="../../d0/dc4/classCETF.html#abfd92cb6e0c471932af46e30df2fd308" target="_top" xlink:title="Method get and set all info about object of class CETF.">
<polygon fill="none" stroke="#000000" points="1216,-260.5 1216,-281.5 1303,-281.5 1303,-260.5 1216,-260.5"/>
<text text-anchor="middle" x="1259.5" y="-267.9" font-family="Helvetica,sans-Serif" font-size="12.00" fill="#000000">CETF::etfInfo</text>
</a>
</g>
</g>
<!-- Node2&#45;&gt;Node3 -->
<g id="edge2" class="edge">
<title>Node2&#45;&gt;Node3</title>
<path fill="none" stroke="#191970" d="M1415.0957,-208.4526C1394.6556,-219.7932 1365.615,-235.0613 1339,-246 1325.7516,-251.4451 1310.8606,-256.4175 1297.5789,-260.4686"/>
<polygon fill="#191970" stroke="#191970" points="1416.8318,-211.4919 1423.8423,-203.5481 1413.4082,-205.3863 1416.8318,-211.4919"/>
</g>
<!-- Node4 -->
<g id="node4" class="node">
<title>Node4</title>
<g id="a_node4"><a xlink:href="../../d9/d52/classCPortfolio.html#a1253d72b078e2ad23e28744f232a078a" target="_top" xlink:title="Mehtod set and get all information about the portfolios.">
<polygon fill="none" stroke="#000000" points="786,-201.5 786,-222.5 929,-222.5 929,-201.5 786,-201.5"/>
<text text-anchor="middle" x="857.5" y="-208.9" font-family="Helvetica,sans-Serif" font-size="12.00" fill="#000000">CPortfolio::userPortfolio</text>
</a>
</g>
</g>
<!-- Node2&#45;&gt;Node4 -->
<g id="edge23" class="edge">
<title>Node2&#45;&gt;Node4</title>
<path fill="none" stroke="#191970" d="M1364.6835,-204.3948C1356.033,-205.4059 1347.3374,-206.307 1339,-207 1178.1991,-220.3654 1137.3539,-213.6808 976,-213 960.8785,-212.9362 944.6719,-212.8266 929.2497,-212.7028"/>
<polygon fill="#191970" stroke="#191970" points="1365.2904,-207.8468 1374.7937,-203.1631 1364.4438,-200.8982 1365.2904,-207.8468"/>
</g>
<!-- Node9 -->
<g id="node9" class="node">
<title>Node9</title>
<g id="a_node9"><a xlink:href="../../d5/de1/classCDataBase.html#a06e986cfe90b12db4e651ca70f4c6949" target="_top" xlink:title="Method get and set data of ETF to database in this program database are the files and relation with t...">
<polygon fill="none" stroke="#000000" points="1183.5,-47.5 1183.5,-68.5 1335.5,-68.5 1335.5,-47.5 1183.5,-47.5"/>
<text text-anchor="middle" x="1259.5" y="-54.9" font-family="Helvetica,sans-Serif" font-size="12.00" fill="#000000">CDataBase::inputForETF</text>
</a>
</g>
</g>
<!-- Node2&#45;&gt;Node9 -->
<g id="edge10" class="edge">
<title>Node2&#45;&gt;Node9</title>
<path fill="none" stroke="#191970" d="M1419.2723,-176.1877C1381.1185,-147.9644 1305.2753,-91.8612 1273.7539,-68.544"/>
<polygon fill="#191970" stroke="#191970" points="1417.5586,-179.2736 1427.6795,-182.4068 1421.7215,-173.6459 1417.5586,-179.2736"/>
</g>
<!-- Node12 -->
<g id="node12" class="node">
<title>Node12</title>
<g id="a_node12"><a xlink:href="../../d5/de1/classCDataBase.html#a763fc57fb5ad33e7d4ef92dd32698f34" target="_top" xlink:title="Method get and set data of Stocks to database in this program database are the files and relation wit...">
<polygon fill="none" stroke="#000000" points="1180,-143.5 1180,-164.5 1339,-164.5 1339,-143.5 1180,-143.5"/>
<text text-anchor="middle" x="1259.5" y="-150.9" font-family="Helvetica,sans-Serif" font-size="12.00" fill="#000000">CDataBase::inputForStock</text>
</a>
</g>
</g>
<!-- Node2&#45;&gt;Node12 -->
<g id="edge16" class="edge">
<title>Node2&#45;&gt;Node12</title>
<path fill="none" stroke="#191970" d="M1382.6265,-180.312C1358.7987,-175.22 1331.6541,-169.4192 1308.9266,-164.5624"/>
<polygon fill="#191970" stroke="#191970" points="1382.1022,-183.7789 1392.6129,-182.446 1383.5651,-176.9334 1382.1022,-183.7789"/>
</g>
<!-- Node13 -->
<g id="node13" class="node">
<title>Node13</title>
<g id="a_node13"><a xlink:href="../../d7/d8f/classCStock.html#a0ef2eda44098e896ddb09d5d4629d7aa" target="_top" xlink:title="Method gets and sets all info about stock using switch statement, case, if, else if,...">
<polygon fill="none" stroke="#000000" points="1005.5,-182.5 1005.5,-203.5 1114.5,-203.5 1114.5,-182.5 1005.5,-182.5"/>
<text text-anchor="middle" x="1060" y="-189.9" font-family="Helvetica,sans-Serif" font-size="12.00" fill="#000000">CStock::stockInfo</text>
</a>
</g>
</g>
<!-- Node2&#45;&gt;Node13 -->
<g id="edge22" class="edge">
<title>Node2&#45;&gt;Node13</title>
<path fill="none" stroke="#191970" d="M1364.3582,-193C1290.1361,-193 1180.1272,-193 1114.6892,-193"/>
<polygon fill="#191970" stroke="#191970" points="1364.5854,-196.5001 1374.5854,-193 1364.5854,-189.5001 1364.5854,-196.5001"/>
</g>
<!-- Node3&#45;&gt;Node4 -->
<g id="edge3" class="edge">
<title>Node3&#45;&gt;Node4</title>
<path fill="none" stroke="#191970" d="M1205.6465,-269.3171C1148.3089,-266.8131 1055.1166,-260.6982 976,-246 945.6982,-240.3706 911.9918,-230.3164 888.2986,-222.5966"/>
<polygon fill="#191970" stroke="#191970" points="1205.7873,-272.8258 1215.9239,-269.7438 1206.0778,-265.8319 1205.7873,-272.8258"/>
</g>
<!-- Node5 -->
<g id="node5" class="node">
<title>Node5</title>
<g id="a_node5"><a xlink:href="../../d1/d60/classCMyHolding.html#a2da746680d2dd9d7af60d49719b0fd37" target="_top" xlink:title="Method set and gets all information about holding of Client.">
<polygon fill="none" stroke="#000000" points="545,-182.5 545,-203.5 739,-203.5 739,-182.5 545,-182.5"/>
<text text-anchor="middle" x="642" y="-189.9" font-family="Helvetica,sans-Serif" font-size="12.00" fill="#000000">CMyHolding::createHoldingMenu</text>
</a>
</g>
</g>
<!-- Node4&#45;&gt;Node5 -->
<g id="edge4" class="edge">
<title>Node4&#45;&gt;Node5</title>
<path fill="none" stroke="#191970" d="M775.4438,-204.7653C763.5784,-203.7192 751.2717,-202.6342 739.1458,-201.5651"/>
<polygon fill="#191970" stroke="#191970" points="775.4728,-208.2814 785.7416,-205.6733 776.0877,-201.3084 775.4728,-208.2814"/>
</g>
<!-- Node6 -->
<g id="node6" class="node">
<title>Node6</title>
<g id="a_node6"><a xlink:href="../../df/da7/classCClient.html#a1cb513868f3ae0f1130528cdaeb3fb26" target="_top" xlink:title="Method create Client menu through which you can set and get data for Client.">
<polygon fill="none" stroke="#000000" points="351,-182.5 351,-203.5 509,-203.5 509,-182.5 351,-182.5"/>
<text text-anchor="middle" x="430" y="-189.9" font-family="Helvetica,sans-Serif" font-size="12.00" fill="#000000">CClient::createClientMenu</text>
</a>
</g>
</g>
<!-- Node5&#45;&gt;Node6 -->
<g id="edge5" class="edge">
<title>Node5&#45;&gt;Node6</title>
<path fill="none" stroke="#191970" d="M534.8542,-193C526.2068,-193 517.5697,-193 509.173,-193"/>
<polygon fill="#191970" stroke="#191970" points="534.9963,-196.5001 544.9962,-193 534.9962,-189.5001 534.9963,-196.5001"/>
</g>
<!-- Node7 -->
<g id="node7" class="node">
<title>Node7</title>
<g id="a_node7"><a xlink:href="../../da/d8b/classCAdministrator.html#a834db63b1ee3b716b1e8e97a101e51de" target="_top" xlink:title="Method with while loop, switch expression and fstream library to register the administrator and can g...">
<polygon fill="none" stroke="#000000" points="79,-115.5 79,-136.5 315,-136.5 315,-115.5 79,-115.5"/>
<text text-anchor="middle" x="197" y="-122.9" font-family="Helvetica,sans-Serif" font-size="12.00" fill="#000000">CAdministrator::createAdministratorMenu</text>
</a>
</g>
</g>
<!-- Node6&#45;&gt;Node7 -->
<g id="edge6" class="edge">
<title>Node6&#45;&gt;Node7</title>
<path fill="none" stroke="#191970" d="M383.4628,-179.618C339.4667,-166.9668 274.3268,-148.2356 233.8331,-136.5915"/>
<polygon fill="#191970" stroke="#191970" points="382.7596,-183.0576 393.3374,-182.4575 384.6941,-176.3302 382.7596,-183.0576"/>
</g>
<!-- Node8 -->
<g id="node8" class="node">
<title>Node8</title>
<g id="a_node8"><a xlink:href="../../df/d0a/main_8cpp.html#ae66f6b31b5ad750f1fe042a706a4e3d4" target="_top" xlink:title=" ">
<polygon fill="none" stroke="#000000" points="0,-115.5 0,-136.5 43,-136.5 43,-115.5 0,-115.5"/>
<text text-anchor="middle" x="21.5" y="-122.9" font-family="Helvetica,sans-Serif" font-size="12.00" fill="#000000">main</text>
</a>
</g>
</g>
<!-- Node6&#45;&gt;Node8 -->
<g id="edge9" class="edge">
<title>Node6&#45;&gt;Node8</title>
<path fill="none" stroke="#191970" d="M340.6624,-197.6785C268.1863,-198.6525 164.4009,-193.5582 79,-164 61.8126,-158.0512 44.7642,-145.7702 33.749,-136.7735"/>
<polygon fill="#191970" stroke="#191970" points="340.7391,-201.1778 350.6761,-197.5027 340.6162,-194.1789 340.7391,-201.1778"/>
</g>
<!-- Node7&#45;&gt;Node7 -->
<g id="edge7" class="edge">
<title>Node7&#45;&gt;Node7</title>
<path fill="none" stroke="#191970" d="M229.3758,-145.6791C227.6409,-150.9746 216.849,-155 197,-155 166.7539,-155 157.5383,-145.6531 169.3532,-136.7079"/>
<polygon fill="#191970" stroke="#191970" points="232.4061,-143.922 224.6468,-136.7079 226.2138,-147.1862 232.4061,-143.922"/>
</g>
<!-- Node7&#45;&gt;Node8 -->
<g id="edge8" class="edge">
<title>Node7&#45;&gt;Node8</title>
<path fill="none" stroke="#191970" d="M68.7546,-126C59.2156,-126 50.4943,-126 43.2123,-126"/>
<polygon fill="#191970" stroke="#191970" points="68.9653,-129.5001 78.9653,-126 68.9652,-122.5001 68.9653,-129.5001"/>
</g>
<!-- Node9&#45;&gt;Node7 -->
<g id="edge12" class="edge">
<title>Node9&#45;&gt;Node7</title>
<path fill="none" stroke="#191970" d="M1205.8685,-45.2677C1129.131,-28.1941 983.3584,0 857.5,0 857.5,0 857.5,0 642,0 472.9808,0 281.0452,-85.1912 218.1574,-115.474"/>
<polygon fill="#191970" stroke="#191970" points="1205.2547,-48.717 1215.779,-47.4966 1206.7907,-41.8876 1205.2547,-48.717"/>
</g>
<!-- Node10 -->
<g id="node10" class="node">
<title>Node10</title>
<g id="a_node10"><a xlink:href="../../d5/de1/classCDataBase.html#aa61685a913b467ab78f3a52823f15339" target="_top" xlink:title=" ">
<polygon fill="none" stroke="#000000" points="976,-66.5 976,-87.5 1144,-87.5 1144,-66.5 976,-66.5"/>
<text text-anchor="middle" x="1060" y="-73.9" font-family="Helvetica,sans-Serif" font-size="12.00" fill="#000000">CDataBase::choosePortfolio</text>
</a>
</g>
</g>
<!-- Node9&#45;&gt;Node10 -->
<g id="edge11" class="edge">
<title>Node9&#45;&gt;Node10</title>
<path fill="none" stroke="#191970" d="M1173.2618,-66.2132C1163.6281,-67.1307 1153.8231,-68.0645 1144.2152,-68.9795"/>
<polygon fill="#191970" stroke="#191970" points="1173.6006,-69.6968 1183.2237,-65.2644 1172.9368,-62.7284 1173.6006,-69.6968"/>
</g>
<!-- Node11 -->
<g id="node11" class="node">
<title>Node11</title>
<g id="a_node11"><a xlink:href="../../db/da6/classCBroker.html#abce158f7c4dce747c076db9e7d1cdf52" target="_top" xlink:title="This function create Broker menu through this you can register, change info about Broker.">
<polygon fill="none" stroke="#000000" points="775,-86.5 775,-107.5 940,-107.5 940,-86.5 775,-86.5"/>
<text text-anchor="middle" x="857.5" y="-93.9" font-family="Helvetica,sans-Serif" font-size="12.00" fill="#000000">CBroker::createBrokerMenu</text>
</a>
</g>
</g>
<!-- Node9&#45;&gt;Node11 -->
<g id="edge13" class="edge">
<title>Node9&#45;&gt;Node11</title>
<path fill="none" stroke="#191970" d="M1173.1301,-50.314C1116.6606,-47.0973 1041.4977,-46.2437 976,-57 942.1464,-62.5596 904.9417,-76.4934 881.418,-86.3467"/>
<polygon fill="#191970" stroke="#191970" points="1173.2566,-53.828 1183.4502,-50.9399 1173.6804,-46.8408 1173.2566,-53.828"/>
</g>
<!-- Node11&#45;&gt;Node7 -->
<g id="edge14" class="edge">
<title>Node11&#45;&gt;Node7</title>
<path fill="none" stroke="#191970" d="M764.7791,-101.071C647.0677,-106.2393 443.8588,-115.1614 315.151,-120.8124"/>
<polygon fill="#191970" stroke="#191970" points="765.0128,-104.5642 774.8496,-100.6289 764.7057,-97.571 765.0128,-104.5642"/>
</g>
<!-- Node11&#45;&gt;Node8 -->
<g id="edge15" class="edge">
<title>Node11&#45;&gt;Node8</title>
<path fill="none" stroke="#191970" d="M764.7471,-97.3843C702.5747,-97.6934 618.8739,-98.2088 545,-99 337.8774,-101.2184 282.9752,-69.961 79,-106 66.8226,-108.1516 53.7656,-112.514 43.1767,-116.617"/>
<polygon fill="#191970" stroke="#191970" points="764.9423,-100.8835 774.925,-97.3346 764.908,-93.8836 764.9423,-100.8835"/>
</g>
<!-- Node12&#45;&gt;Node7 -->
<g id="edge18" class="edge">
<title>Node12&#45;&gt;Node7</title>
<path fill="none" stroke="#191970" d="M1169.5749,-154C1088.104,-154 964.7539,-154 857.5,-154 857.5,-154 857.5,-154 642,-154 526.2725,-154 393.9493,-144.4509 303.8811,-136.5058"/>
<polygon fill="#191970" stroke="#191970" points="1169.7941,-157.5001 1179.794,-154 1169.794,-150.5001 1169.7941,-157.5001"/>
</g>
<!-- Node12&#45;&gt;Node10 -->
<g id="edge17" class="edge">
<title>Node12&#45;&gt;Node10</title>
<path fill="none" stroke="#191970" d="M1228.9012,-138.8713C1205.8875,-127.8267 1173.3959,-112.9357 1144,-102 1129.5967,-96.6417 1113.4835,-91.6201 1099.2516,-87.5035"/>
<polygon fill="#191970" stroke="#191970" points="1227.6213,-142.1402 1238.1472,-143.3465 1230.6709,-135.8394 1227.6213,-142.1402"/>
</g>
<!-- Node12&#45;&gt;Node11 -->
<g id="edge19" class="edge">
<title>Node12&#45;&gt;Node11</title>
<path fill="none" stroke="#191970" d="M1175.3438,-142.0674C1103.3046,-131.8529 1000.5893,-117.2888 931.6085,-107.5079"/>
<polygon fill="#191970" stroke="#191970" points="1174.9062,-145.5403 1185.2985,-143.4789 1175.8889,-138.6096 1174.9062,-145.5403"/>
</g>
<!-- Node12&#45;&gt;Node13 -->
<g id="edge20" class="edge">
<title>Node12&#45;&gt;Node13</title>
<path fill="none" stroke="#191970" d="M1195.8591,-166.4411C1169.4382,-171.6061 1139.1101,-177.5349 1113.8207,-182.4787"/>
<polygon fill="#191970" stroke="#191970" points="1196.6325,-169.8562 1205.7752,-164.5026 1195.2895,-162.9863 1196.6325,-169.8562"/>
</g>
<!-- Node13&#45;&gt;Node4 -->
<g id="edge21" class="edge">
<title>Node13&#45;&gt;Node4</title>
<path fill="none" stroke="#191970" d="M995.349,-199.066C974.2994,-201.041 950.8111,-203.2449 929.2725,-205.2658"/>
<polygon fill="#191970" stroke="#191970" points="995.8381,-202.5356 1005.4673,-198.1166 995.1841,-195.5662 995.8381,-202.5356"/>
</g>
</g>
</svg>
