<?xml version="1.0" encoding="UTF-8" standalone="no"?>
<!DOCTYPE svg PUBLIC "-//W3C//DTD SVG 1.1//EN"
 "http://www.w3.org/Graphics/SVG/1.1/DTD/svg11.dtd">
<!-- Generated by graphviz version 2.40.1 (20161225.0304)
 -->
<!-- Title: CAsset::doubeVecToStr Pages: 1 -->
<svg width="485pt" height="80pt"
 viewBox="0.00 0.00 484.74 80.00" xmlns="http://www.w3.org/2000/svg" xmlns:xlink="http://www.w3.org/1999/xlink">
<g id="graph0" class="graph" transform="scale(1 1) rotate(0) translate(4 76)">
<title>CAsset::doubeVecToStr</title>
<!-- Node1 -->
<g id="node1" class="node">
<title>Node1</title>
<g id="a_node1"><a xlink:title=" ">
<polygon fill="#bfbfbf" stroke="#000000" points="353.484,-22.5 353.484,-42.5 476.736,-42.5 476.736,-22.5 353.484,-22.5"/>
<text text-anchor="middle" x="415.11" y="-29.5" font-family="Helvetica,sans-Serif" font-size="10.00" fill="#000000">CAsset::doubeVecToStr</text>
</a>
</g>
</g>
<!-- Node2 -->
<g id="node2" class="node">
<title>Node2</title>
<g id="a_node2"><a xlink:href="../../dc/d85/classCAsset.html#ace101483df4bf277b7114b60501a3c3d" target="_top" xlink:title=" ">
<polygon fill="none" stroke="#000000" points="203.69,-22.5 203.69,-42.5 317.484,-42.5 317.484,-22.5 203.69,-22.5"/>
<text text-anchor="middle" x="260.587" y="-29.5" font-family="Helvetica,sans-Serif" font-size="10.00" fill="#000000">CAsset::getFromBase</text>
</a>
</g>
</g>
<!-- Node1&#45;&gt;Node2 -->
<g id="edge1" class="edge">
<title>Node1&#45;&gt;Node2</title>
<path fill="none" stroke="#191970" d="M343.1404,-32.5C334.5578,-32.5 325.8877,-32.5 317.5564,-32.5"/>
<polygon fill="#191970" stroke="#191970" points="343.15,-36.0001 353.1499,-32.5 343.1499,-29.0001 343.15,-36.0001"/>
</g>
<!-- Node3 -->
<g id="node3" class="node">
<title>Node3</title>
<g id="a_node3"><a xlink:href="../../df/da7/classCClient.html#a40e2fcb1fce4377489b021569e43907a" target="_top" xlink:title=" ">
<polygon fill="none" stroke="#000000" points="16.1165,-39.5 16.1165,-71.5 151.5735,-71.5 151.5735,-39.5 16.1165,-39.5"/>
<text text-anchor="start" x="24.1165" y="-58.5" font-family="Helvetica,sans-Serif" font-size="10.00" fill="#000000">CClient::getDataFromBase</text>
<text text-anchor="middle" x="83.845" y="-46.5" font-family="Helvetica,sans-Serif" font-size="10.00" fill="#000000">String</text>
</a>
</g>
</g>
<!-- Node2&#45;&gt;Node3 -->
<g id="edge2" class="edge">
<title>Node2&#45;&gt;Node3</title>
<path fill="none" stroke="#191970" d="M193.0122,-41.2937C179.4791,-43.0548 165.2561,-44.9057 151.7131,-46.6681"/>
<polygon fill="#191970" stroke="#191970" points="193.7392,-44.7287 203.2039,-39.9674 192.8359,-37.7872 193.7392,-44.7287"/>
</g>
<!-- Node4 -->
<g id="node4" class="node">
<title>Node4</title>
<g id="a_node4"><a xlink:href="../../d9/d52/classCPortfolio.html#a681ac2c0a2978b1309f135c8b01f71bf" target="_top" xlink:title=" ">
<polygon fill="none" stroke="#000000" points="0,-.5 0,-20.5 167.69,-20.5 167.69,-.5 0,-.5"/>
<text text-anchor="middle" x="83.845" y="-7.5" font-family="Helvetica,sans-Serif" font-size="10.00" fill="#000000">CPortfolio::getDataFromDataBase</text>
</a>
</g>
</g>
<!-- Node2&#45;&gt;Node4 -->
<g id="edge3" class="edge">
<title>Node2&#45;&gt;Node4</title>
<path fill="none" stroke="#191970" d="M193.1489,-24.1056C183.741,-22.9346 173.9972,-21.7217 164.3783,-20.5244"/>
<polygon fill="#191970" stroke="#191970" points="192.8482,-27.5951 203.2039,-25.3572 193.7129,-20.6487 192.8482,-27.5951"/>
</g>
</g>
</svg>
