<?xml version="1.0" encoding="UTF-8" standalone="no"?>
<!DOCTYPE svg PUBLIC "-//W3C//DTD SVG 1.1//EN"
 "http://www.w3.org/Graphics/SVG/1.1/DTD/svg11.dtd">
<!-- Generated by graphviz version 2.40.1 (20161225.0304)
 -->
<!-- Title: CAsset::getMStrPpathToGoogle Pages: 1 -->
<!--zoomable 338 -->
<svg id="main" version="1.1" xmlns="http://www.w3.org/2000/svg" xmlns:xlink="http://www.w3.org/1999/xlink" xml:space="preserve" onload="init(evt)">
<style type="text/css"><![CDATA[
.edge:hover path { stroke: red; }
.edge:hover polygon { stroke: red; fill: red; }
]]></style>
<script type="text/javascript"><![CDATA[
var edges = document.getElementsByTagName('g');
if (edges && edges.length) {
  for (var i=0;i<edges.length;i++) {
    if (edges[i].id.substr(0,4)=='edge') {
      edges[i].setAttribute('class','edge');
    }
  }
}
]]></script>
        <defs>
                <circle id="rim" cx="0" cy="0" r="7"/>
                <circle id="rim2" cx="0" cy="0" r="3.5"/>
                <g id="zoomPlus">
                        <use xlink:href="#rim" fill="#404040">
                                <set attributeName="fill" to="#808080" begin="zoomplus.mouseover" end="zoomplus.mouseout"/>
                        </use>
                        <path d="M-4,0h8M0,-4v8" fill="none" stroke="white" stroke-width="1.5" pointer-events="none"/>
                </g>
                <g id="zoomMin">
                        <use xlink:href="#rim" fill="#404040">
                                <set attributeName="fill" to="#808080" begin="zoomminus.mouseover" end="zoomminus.mouseout"/>
                        </use>
                        <path d="M-4,0h8" fill="none" stroke="white" stroke-width="1.5" pointer-events="none"/>
                </g>
                <g id="dirArrow">
                        <path fill="none" stroke="white" stroke-width="1.5" d="M0,-3.0v7 M-2.5,-0.5L0,-3.0L2.5,-0.5"/>
                </g>
               <g id="resetDef">
                       <use xlink:href="#rim2" fill="#404040">
                               <set attributeName="fill" to="#808080" begin="reset.mouseover" end="reset.mouseout"/>
                       </use>
               </g>
        </defs>

<script type="text/javascript">
var viewWidth = 1741;
var viewHeight = 338;
var sectionId = 'dynsection-6';
</script>
<script xlink:href="../../svgpan.js"/>
<svg id="graph" class="graph">
<g id="viewport">
<title>CAsset::getMStrPpathToGoogle</title>
<!-- Node1 -->
<g id="node1" class="node">
<title>Node1</title>
<g id="a_node1"><a xlink:title=" ">
<polygon fill="#bfbfbf" stroke="#000000" points="1545,-246 1545,-267 1733,-267 1733,-246 1545,-246"/>
<text text-anchor="middle" x="1639" y="-253.4" font-family="Helvetica,sans-Serif" font-size="12.00" fill="#000000">CAsset::getMStrPpathToGoogle</text>
</a>
</g>
</g>
<!-- Node2 -->
<g id="node2" class="node">
<title>Node2</title>
<g id="a_node2"><a xlink:href="../../dc/d85/classCAsset.html#ab68c11feace8e8f4b9852404a458796c" target="_top" xlink:title="Method get data from database through the class CDataBase.">
<polygon fill="none" stroke="#000000" points="1375,-246 1375,-267 1509,-267 1509,-246 1375,-246"/>
<text text-anchor="middle" x="1442" y="-253.4" font-family="Helvetica,sans-Serif" font-size="12.00" fill="#000000">CAsset::getFromBase</text>
</a>
</g>
</g>
<!-- Node1&#45;&gt;Node2 -->
<g id="edge1" class="edge">
<title>Node1&#45;&gt;Node2</title>
<path fill="none" stroke="#191970" d="M1534.6399,-256.5C1525.9717,-256.5 1517.3642,-256.5 1509.0872,-256.5"/>
<polygon fill="#191970" stroke="#191970" points="1534.8274,-260.0001 1544.8274,-256.5 1534.8273,-253.0001 1534.8274,-260.0001"/>
</g>
<!-- Node3 -->
<g id="node3" class="node">
<title>Node3</title>
<g id="a_node3"><a xlink:href="../../d0/dc4/classCETF.html#abfd92cb6e0c471932af46e30df2fd308" target="_top" xlink:title="Method get and set all info about object of class CETF.">
<polygon fill="none" stroke="#000000" points="1016.5,-286 1016.5,-307 1103.5,-307 1103.5,-286 1016.5,-286"/>
<text text-anchor="middle" x="1060" y="-293.4" font-family="Helvetica,sans-Serif" font-size="12.00" fill="#000000">CETF::etfInfo</text>
</a>
</g>
</g>
<!-- Node2&#45;&gt;Node3 -->
<g id="edge2" class="edge">
<title>Node2&#45;&gt;Node3</title>
<path fill="none" stroke="#191970" d="M1364.6321,-267.3742C1355.9911,-268.4821 1347.3119,-269.5483 1339,-270.5 1255.8697,-280.0188 1158.5007,-288.4835 1103.5526,-293.0137"/>
<polygon fill="#191970" stroke="#191970" points="1365.2697,-270.8208 1374.734,-266.0587 1364.3657,-263.8794 1365.2697,-270.8208"/>
</g>
<!-- Node4 -->
<g id="node4" class="node">
<title>Node4</title>
<g id="a_node4"><a xlink:href="../../d9/d52/classCPortfolio.html#a1253d72b078e2ad23e28744f232a078a" target="_top" xlink:title="Mehtod set and get all information about the portfolios.">
<polygon fill="none" stroke="#000000" points="786,-266 786,-287 929,-287 929,-266 786,-266"/>
<text text-anchor="middle" x="857.5" y="-273.4" font-family="Helvetica,sans-Serif" font-size="12.00" fill="#000000">CPortfolio::userPortfolio</text>
</a>
</g>
</g>
<!-- Node2&#45;&gt;Node4 -->
<g id="edge25" class="edge">
<title>Node2&#45;&gt;Node4</title>
<path fill="none" stroke="#191970" d="M1407.1586,-270.7682C1387.4587,-278.3024 1362.1974,-287.0843 1339,-292.5 1181.5483,-329.2586 1135.5484,-342.7018 976,-316.5 942.1464,-310.9404 904.9417,-297.0066 881.418,-287.1533"/>
<polygon fill="#191970" stroke="#191970" points="1408.5829,-273.9696 1416.6305,-267.0786 1406.042,-267.447 1408.5829,-273.9696"/>
</g>
<!-- Node9 -->
<g id="node9" class="node">
<title>Node9</title>
<g id="a_node9"><a xlink:href="../../d5/de1/classCDataBase.html#a864de6c1e2f1669e18258aa1ed7a48c1" target="_top" xlink:title="Method get and set data of ETF to database in this program database are the files and relation with t...">
<polygon fill="none" stroke="#000000" points="1183.5,-207 1183.5,-228 1335.5,-228 1335.5,-207 1183.5,-207"/>
<text text-anchor="middle" x="1259.5" y="-214.4" font-family="Helvetica,sans-Serif" font-size="12.00" fill="#000000">CDataBase::inputForETF</text>
</a>
</g>
</g>
<!-- Node2&#45;&gt;Node9 -->
<g id="edge10" class="edge">
<title>Node2&#45;&gt;Node9</title>
<path fill="none" stroke="#191970" d="M1382.6265,-243.812C1358.7987,-238.72 1331.6541,-232.9192 1308.9266,-228.0624"/>
<polygon fill="#191970" stroke="#191970" points="1382.1022,-247.2789 1392.6129,-245.946 1383.5651,-240.4334 1382.1022,-247.2789"/>
</g>
<!-- Node12 -->
<g id="node12" class="node">
<title>Node12</title>
<g id="a_node12"><a xlink:href="../../d5/de1/classCDataBase.html#a05366b9fffcc574425739ec7007d59f1" target="_top" xlink:title="Method get and set data of Stocks to database in this program database are the files and relation wit...">
<polygon fill="none" stroke="#000000" points="1180,-111 1180,-132 1339,-132 1339,-111 1180,-111"/>
<text text-anchor="middle" x="1259.5" y="-118.4" font-family="Helvetica,sans-Serif" font-size="12.00" fill="#000000">CDataBase::inputForStock</text>
</a>
</g>
</g>
<!-- Node2&#45;&gt;Node12 -->
<g id="edge17" class="edge">
<title>Node2&#45;&gt;Node12</title>
<path fill="none" stroke="#191970" d="M1419.2723,-239.6877C1381.1185,-211.4644 1305.2753,-155.3612 1273.7539,-132.044"/>
<polygon fill="#191970" stroke="#191970" points="1417.5586,-242.7736 1427.6795,-245.9068 1421.7215,-237.1459 1417.5586,-242.7736"/>
</g>
<!-- Node14 -->
<g id="node14" class="node">
<title>Node14</title>
<g id="a_node14"><a xlink:href="../../d7/d8f/classCStock.html#a0ef2eda44098e896ddb09d5d4629d7aa" target="_top" xlink:title="Method gets and sets all info about stock using switch statement, case, if, else if,...">
<polygon fill="none" stroke="#000000" points="1005.5,-246 1005.5,-267 1114.5,-267 1114.5,-246 1005.5,-246"/>
<text text-anchor="middle" x="1060" y="-253.4" font-family="Helvetica,sans-Serif" font-size="12.00" fill="#000000">CStock::stockInfo</text>
</a>
</g>
</g>
<!-- Node2&#45;&gt;Node14 -->
<g id="edge24" class="edge">
<title>Node2&#45;&gt;Node14</title>
<path fill="none" stroke="#191970" d="M1364.3582,-256.5C1290.1361,-256.5 1180.1272,-256.5 1114.6892,-256.5"/>
<polygon fill="#191970" stroke="#191970" points="1364.5854,-260.0001 1374.5854,-256.5 1364.5854,-253.0001 1364.5854,-260.0001"/>
</g>
<!-- Node3&#45;&gt;Node4 -->
<g id="edge3" class="edge">
<title>Node3&#45;&gt;Node4</title>
<path fill="none" stroke="#191970" d="M1005.9204,-291.1588C982.3797,-288.8338 954.4579,-286.0761 929.219,-283.5834"/>
<polygon fill="#191970" stroke="#191970" points="1005.7649,-294.6604 1016.0605,-292.1603 1006.453,-287.6943 1005.7649,-294.6604"/>
</g>
<!-- Node5 -->
<g id="node5" class="node">
<title>Node5</title>
<g id="a_node5"><a xlink:href="../../d1/d60/classCMyHolding.html#a2da746680d2dd9d7af60d49719b0fd37" target="_top" xlink:title="Method set and gets all information about holding of Client.">
<polygon fill="none" stroke="#000000" points="545,-256 545,-277 739,-277 739,-256 545,-256"/>
<text text-anchor="middle" x="642" y="-263.4" font-family="Helvetica,sans-Serif" font-size="12.00" fill="#000000">CMyHolding::createHoldingMenu</text>
</a>
</g>
</g>
<!-- Node4&#45;&gt;Node5 -->
<g id="edge4" class="edge">
<title>Node4&#45;&gt;Node5</title>
<path fill="none" stroke="#191970" d="M775.4438,-272.6923C763.5784,-272.1417 751.2717,-271.5706 739.1458,-271.0079"/>
<polygon fill="#191970" stroke="#191970" points="775.5901,-276.2028 785.7416,-273.1701 775.9146,-269.2103 775.5901,-276.2028"/>
</g>
<!-- Node6 -->
<g id="node6" class="node">
<title>Node6</title>
<g id="a_node6"><a xlink:href="../../df/da7/classCClient.html#a1cb513868f3ae0f1130528cdaeb3fb26" target="_top" xlink:title="Method create Client menu through which you can set and get data for Client.">
<polygon fill="none" stroke="#000000" points="351,-246 351,-267 509,-267 509,-246 351,-246"/>
<text text-anchor="middle" x="430" y="-253.4" font-family="Helvetica,sans-Serif" font-size="12.00" fill="#000000">CClient::createClientMenu</text>
</a>
</g>
</g>
<!-- Node5&#45;&gt;Node6 -->
<g id="edge5" class="edge">
<title>Node5&#45;&gt;Node6</title>
<path fill="none" stroke="#191970" d="M534.8542,-261.446C526.2068,-261.0381 517.5697,-260.6306 509.173,-260.2346"/>
<polygon fill="#191970" stroke="#191970" points="534.8424,-264.9492 544.9962,-261.9244 535.1723,-257.957 534.8424,-264.9492"/>
</g>
<!-- Node7 -->
<g id="node7" class="node">
<title>Node7</title>
<g id="a_node7"><a xlink:href="../../da/d8b/classCAdministrator.html#a834db63b1ee3b716b1e8e97a101e51de" target="_top" xlink:title="Method with while loop, switch expression and fstream library to register the administrator and can g...">
<polygon fill="none" stroke="#000000" points="79,-179 79,-200 315,-200 315,-179 79,-179"/>
<text text-anchor="middle" x="197" y="-186.4" font-family="Helvetica,sans-Serif" font-size="12.00" fill="#000000">CAdministrator::createAdministratorMenu</text>
</a>
</g>
</g>
<!-- Node6&#45;&gt;Node7 -->
<g id="edge6" class="edge">
<title>Node6&#45;&gt;Node7</title>
<path fill="none" stroke="#191970" d="M383.4628,-243.118C339.4667,-230.4668 274.3268,-211.7356 233.8331,-200.0915"/>
<polygon fill="#191970" stroke="#191970" points="382.7596,-246.5576 393.3374,-245.9575 384.6941,-239.8302 382.7596,-246.5576"/>
</g>
<!-- Node8 -->
<g id="node8" class="node">
<title>Node8</title>
<g id="a_node8"><a xlink:href="../../df/d0a/main_8cpp.html#ae66f6b31b5ad750f1fe042a706a4e3d4" target="_top" xlink:title=" ">
<polygon fill="none" stroke="#000000" points="0,-179 0,-200 43,-200 43,-179 0,-179"/>
<text text-anchor="middle" x="21.5" y="-186.4" font-family="Helvetica,sans-Serif" font-size="12.00" fill="#000000">main</text>
</a>
</g>
</g>
<!-- Node6&#45;&gt;Node8 -->
<g id="edge9" class="edge">
<title>Node6&#45;&gt;Node8</title>
<path fill="none" stroke="#191970" d="M340.6624,-261.1785C268.1863,-262.1525 164.4009,-257.0582 79,-227.5 61.8126,-221.5512 44.7642,-209.2702 33.749,-200.2735"/>
<polygon fill="#191970" stroke="#191970" points="340.7391,-264.6778 350.6761,-261.0027 340.6162,-257.6789 340.7391,-264.6778"/>
</g>
<!-- Node7&#45;&gt;Node7 -->
<g id="edge7" class="edge">
<title>Node7&#45;&gt;Node7</title>
<path fill="none" stroke="#191970" d="M229.3758,-209.1791C227.6409,-214.4746 216.849,-218.5 197,-218.5 166.7539,-218.5 157.5383,-209.1531 169.3532,-200.2079"/>
<polygon fill="#191970" stroke="#191970" points="232.4061,-207.422 224.6468,-200.2079 226.2138,-210.6862 232.4061,-207.422"/>
</g>
<!-- Node7&#45;&gt;Node8 -->
<g id="edge8" class="edge">
<title>Node7&#45;&gt;Node8</title>
<path fill="none" stroke="#191970" d="M68.7546,-189.5C59.2156,-189.5 50.4943,-189.5 43.2123,-189.5"/>
<polygon fill="#191970" stroke="#191970" points="68.9653,-193.0001 78.9653,-189.5 68.9652,-186.0001 68.9653,-193.0001"/>
</g>
<!-- Node9&#45;&gt;Node3 -->
<g id="edge16" class="edge">
<title>Node9&#45;&gt;Node3</title>
<path fill="none" stroke="#191970" d="M1233.3274,-233.1572C1210.4338,-246.2886 1175.9401,-264.732 1144,-276.5 1131.1994,-281.2162 1116.8851,-285.1067 1103.7508,-288.1625"/>
<polygon fill="#191970" stroke="#191970" points="1235.2051,-236.1142 1242.0925,-228.0635 1231.6878,-230.062 1235.2051,-236.1142"/>
</g>
<!-- Node9&#45;&gt;Node7 -->
<g id="edge12" class="edge">
<title>Node9&#45;&gt;Node7</title>
<path fill="none" stroke="#191970" d="M1172.9816,-217.5C1091.571,-217.5 966.2598,-217.5 857.5,-217.5 857.5,-217.5 857.5,-217.5 642,-217.5 526.2725,-217.5 393.9493,-207.9509 303.8811,-200.0058"/>
<polygon fill="#191970" stroke="#191970" points="1173.1818,-221.0001 1183.1818,-217.5 1173.1817,-214.0001 1173.1818,-221.0001"/>
</g>
<!-- Node10 -->
<g id="node10" class="node">
<title>Node10</title>
<g id="a_node10"><a xlink:href="../../d5/de1/classCDataBase.html#aa61685a913b467ab78f3a52823f15339" target="_top" xlink:title=" ">
<polygon fill="none" stroke="#000000" points="976,-130 976,-151 1144,-151 1144,-130 976,-130"/>
<text text-anchor="middle" x="1060" y="-137.4" font-family="Helvetica,sans-Serif" font-size="12.00" fill="#000000">CDataBase::choosePortfolio</text>
</a>
</g>
</g>
<!-- Node9&#45;&gt;Node10 -->
<g id="edge11" class="edge">
<title>Node9&#45;&gt;Node10</title>
<path fill="none" stroke="#191970" d="M1228.9012,-202.3713C1205.8875,-191.3267 1173.3959,-176.4357 1144,-165.5 1129.5967,-160.1417 1113.4835,-155.1201 1099.2516,-151.0035"/>
<polygon fill="#191970" stroke="#191970" points="1227.6213,-205.6402 1238.1472,-206.8465 1230.6709,-199.3394 1227.6213,-205.6402"/>
</g>
<!-- Node11 -->
<g id="node11" class="node">
<title>Node11</title>
<g id="a_node11"><a xlink:href="../../db/da6/classCBroker.html#abce158f7c4dce747c076db9e7d1cdf52" target="_top" xlink:title="This function create Broker menu through this you can register, change info about Broker.">
<polygon fill="none" stroke="#000000" points="775,-150 775,-171 940,-171 940,-150 775,-150"/>
<text text-anchor="middle" x="857.5" y="-157.4" font-family="Helvetica,sans-Serif" font-size="12.00" fill="#000000">CBroker::createBrokerMenu</text>
</a>
</g>
</g>
<!-- Node9&#45;&gt;Node11 -->
<g id="edge13" class="edge">
<title>Node9&#45;&gt;Node11</title>
<path fill="none" stroke="#191970" d="M1175.3438,-205.5674C1103.3046,-195.3529 1000.5893,-180.7888 931.6085,-171.0079"/>
<polygon fill="#191970" stroke="#191970" points="1174.9062,-209.0403 1185.2985,-206.9789 1175.8889,-202.1096 1174.9062,-209.0403"/>
</g>
<!-- Node11&#45;&gt;Node7 -->
<g id="edge14" class="edge">
<title>Node11&#45;&gt;Node7</title>
<path fill="none" stroke="#191970" d="M764.7791,-164.571C647.0677,-169.7393 443.8588,-178.6614 315.151,-184.3124"/>
<polygon fill="#191970" stroke="#191970" points="765.0128,-168.0642 774.8496,-164.1289 764.7057,-161.071 765.0128,-168.0642"/>
</g>
<!-- Node11&#45;&gt;Node8 -->
<g id="edge15" class="edge">
<title>Node11&#45;&gt;Node8</title>
<path fill="none" stroke="#191970" d="M764.7471,-160.8843C702.5747,-161.1934 618.8739,-161.7088 545,-162.5 337.8774,-164.7184 282.9752,-133.461 79,-169.5 66.8226,-171.6516 53.7656,-176.014 43.1767,-180.117"/>
<polygon fill="#191970" stroke="#191970" points="764.9423,-164.3835 774.925,-160.8346 764.908,-157.3836 764.9423,-164.3835"/>
</g>
<!-- Node12&#45;&gt;Node7 -->
<g id="edge20" class="edge">
<title>Node12&#45;&gt;Node7</title>
<path fill="none" stroke="#191970" d="M1205.8685,-108.7677C1129.131,-91.6941 983.3584,-63.5 857.5,-63.5 857.5,-63.5 857.5,-63.5 642,-63.5 472.9808,-63.5 281.0452,-148.6912 218.1574,-178.974"/>
<polygon fill="#191970" stroke="#191970" points="1205.2547,-112.217 1215.779,-110.9966 1206.7907,-105.3876 1205.2547,-112.217"/>
</g>
<!-- Node12&#45;&gt;Node10 -->
<g id="edge18" class="edge">
<title>Node12&#45;&gt;Node10</title>
<path fill="none" stroke="#191970" d="M1169.8261,-130.0404C1161.2844,-130.8539 1152.6432,-131.6768 1144.1565,-132.4851"/>
<polygon fill="#191970" stroke="#191970" points="1170.1691,-133.5236 1179.7922,-129.0912 1169.5054,-126.5552 1170.1691,-133.5236"/>
</g>
<!-- Node12&#45;&gt;Node11 -->
<g id="edge21" class="edge">
<title>Node12&#45;&gt;Node11</title>
<path fill="none" stroke="#191970" d="M1169.558,-113.6151C1113.5167,-110.5667 1040.126,-109.9689 976,-120.5 942.1464,-126.0596 904.9417,-139.9934 881.418,-149.8467"/>
<polygon fill="#191970" stroke="#191970" points="1169.628,-117.125 1179.8141,-114.2107 1170.0338,-110.1367 1169.628,-117.125"/>
</g>
<!-- Node13 -->
<g id="node13" class="node">
<title>Node13</title>
<g id="a_node13"><a xlink:href="../../dc/d85/classCAsset.html#a88a8db3713a384a78007fe0ede5851d9" target="_top" xlink:title=" ">
<polygon fill="none" stroke="#000000" points="981,-.5 981,-34.5 1139,-34.5 1139,-.5 981,-.5"/>
<text text-anchor="start" x="989" y="-20.9" font-family="Helvetica,sans-Serif" font-size="12.00" fill="#000000">CAsset::countTotalPriceOf</text>
<text text-anchor="middle" x="1060" y="-7.9" font-family="Helvetica,sans-Serif" font-size="12.00" fill="#000000">Assets</text>
</a>
</g>
</g>
<!-- Node12&#45;&gt;Node13 -->
<g id="edge19" class="edge">
<title>Node12&#45;&gt;Node13</title>
<path fill="none" stroke="#191970" d="M1236.3932,-105.2285C1213.6107,-89.6411 1177.4465,-66.1004 1144,-49.5 1133.0967,-44.0884 1121.0395,-39.0038 1109.5437,-34.5493"/>
<polygon fill="#191970" stroke="#191970" points="1234.5037,-108.1771 1244.7209,-110.9806 1238.482,-102.4175 1234.5037,-108.1771"/>
</g>
<!-- Node12&#45;&gt;Node14 -->
<g id="edge22" class="edge">
<title>Node12&#45;&gt;Node14</title>
<path fill="none" stroke="#191970" d="M1235.4421,-137.7798C1193.9988,-165.8241 1110.2574,-222.4912 1075.5817,-245.956"/>
<polygon fill="#191970" stroke="#191970" points="1237.5251,-140.5963 1243.8456,-132.0932 1233.602,-134.7989 1237.5251,-140.5963"/>
</g>
<!-- Node14&#45;&gt;Node4 -->
<g id="edge23" class="edge">
<title>Node14&#45;&gt;Node4</title>
<path fill="none" stroke="#191970" d="M995.349,-262.8853C974.2994,-264.9643 950.8111,-267.2841 929.2725,-269.4114"/>
<polygon fill="#191970" stroke="#191970" points="995.8598,-266.352 1005.4673,-261.8859 995.1717,-259.3858 995.8598,-266.352"/>
</g>
</g>
</svg>
        <g id="navigator" transform="translate(0 0)" fill="#404254">
                <rect fill="#f2f5e9" fill-opacity="0.5" stroke="#606060" stroke-width=".5" x="0" y="0" width="60" height="60"/>
                <use id="zoomplus" xlink:href="#zoomPlus" x="17" y="9" onmousedown="handleZoom(evt,'in')"/>
                <use id="zoomminus" xlink:href="#zoomMin" x="42" y="9" onmousedown="handleZoom(evt,'out')"/>
                <use id="reset" xlink:href="#resetDef" x="30" y="36" onmousedown="handleReset()"/>
                <g id="arrowUp" xlink:href="#dirArrow" transform="translate(30 24)" onmousedown="handlePan(0,-1)">
                  <use xlink:href="#rim" fill="#404040">
                        <set attributeName="fill" to="#808080" begin="arrowUp.mouseover" end="arrowUp.mouseout"/>
                  </use>
                  <path fill="none" stroke="white" stroke-width="1.5" d="M0,-3.0v7 M-2.5,-0.5L0,-3.0L2.5,-0.5"/>
                </g>
                <g id="arrowRight" xlink:href="#dirArrow" transform="rotate(90) translate(36 -43)" onmousedown="handlePan(1,0)">
                  <use xlink:href="#rim" fill="#404040">
                        <set attributeName="fill" to="#808080" begin="arrowRight.mouseover" end="arrowRight.mouseout"/>
                  </use>
                  <path fill="none" stroke="white" stroke-width="1.5" d="M0,-3.0v7 M-2.5,-0.5L0,-3.0L2.5,-0.5"/>
                </g>
                <g id="arrowDown" xlink:href="#dirArrow" transform="rotate(180) translate(-30 -48)" onmousedown="handlePan(0,1)">
                  <use xlink:href="#rim" fill="#404040">
                        <set attributeName="fill" to="#808080" begin="arrowDown.mouseover" end="arrowDown.mouseout"/>
                  </use>
                  <path fill="none" stroke="white" stroke-width="1.5" d="M0,-3.0v7 M-2.5,-0.5L0,-3.0L2.5,-0.5"/>
                </g>
                <g id="arrowLeft" xlink:href="#dirArrow" transform="rotate(270) translate(-36 17)" onmousedown="handlePan(-1,0)">
                  <use xlink:href="#rim" fill="#404040">
                        <set attributeName="fill" to="#808080" begin="arrowLeft.mouseover" end="arrowLeft.mouseout"/>
                  </use>
                  <path fill="none" stroke="white" stroke-width="1.5" d="M0,-3.0v7 M-2.5,-0.5L0,-3.0L2.5,-0.5"/>
                </g>
        </g>
        <svg viewBox="0 0 15 15" width="100%" height="30px" preserveAspectRatio="xMaxYMin meet">
         <g id="arrow_out" transform="scale(0.3 0.3)">
          <a xlink:href="classCAsset_a330ef2b855ff8074ebe8d36f88053d6f_icgraph_org.svg" target="_base">
           <rect id="button" ry="5" rx="5" y="6" x="6" height="38" width="38"
                fill="#f2f5e9" fill-opacity="0.5" stroke="#606060" stroke-width="1.0"/>
           <path id="arrow"
             d="M 11.500037,31.436501 C 11.940474,20.09759 22.043105,11.32322 32.158766,21.979434 L 37.068811,17.246167 C 37.068811,17.246167 37.088388,32 37.088388,32 L 22.160133,31.978069 C 22.160133,31.978069 26.997745,27.140456 26.997745,27.140456 C 18.528582,18.264221 13.291696,25.230495 11.500037,31.436501 z"
             style="fill:#404040;"/>
          </a>
         </g>
        </svg>
</svg>
