<?xml version="1.0" encoding="UTF-8" standalone="no"?>
<!DOCTYPE svg PUBLIC "-//W3C//DTD SVG 1.1//EN"
 "http://www.w3.org/Graphics/SVG/1.1/DTD/svg11.dtd">
<!-- Generated by graphviz version 2.40.1 (20161225.0304)
 -->
<!-- Title: CAsset::riskOfAsset Pages: 1 -->
<svg width="1229pt" height="88pt"
 viewBox="0.00 0.00 1229.00 88.00" xmlns="http://www.w3.org/2000/svg" xmlns:xlink="http://www.w3.org/1999/xlink">
<g id="graph0" class="graph" transform="scale(1 1) rotate(0) translate(4 84)">
<title>CAsset::riskOfAsset</title>
<!-- Node1 -->
<g id="node1" class="node">
<title>Node1</title>
<g id="a_node1"><a xlink:title="Method gets risk of one Asset.">
<polygon fill="#bfbfbf" stroke="#000000" points="1099,-20.5 1099,-41.5 1221,-41.5 1221,-20.5 1099,-20.5"/>
<text text-anchor="middle" x="1160" y="-27.9" font-family="Helvetica,sans-Serif" font-size="12.00" fill="#000000">CAsset::riskOfAsset</text>
</a>
</g>
</g>
<!-- Node2 -->
<g id="node2" class="node">
<title>Node2</title>
<g id="a_node2"><a xlink:href="../../d0/dc4/classCETF.html#abfd92cb6e0c471932af46e30df2fd308" target="_top" xlink:title="Method get and set all info about object of class CETF.">
<polygon fill="none" stroke="#000000" points="965,-40.5 965,-61.5 1052,-61.5 1052,-40.5 965,-40.5"/>
<text text-anchor="middle" x="1008.5" y="-47.9" font-family="Helvetica,sans-Serif" font-size="12.00" fill="#000000">CETF::etfInfo</text>
</a>
</g>
</g>
<!-- Node1&#45;&gt;Node2 -->
<g id="edge1" class="edge">
<title>Node1&#45;&gt;Node2</title>
<path fill="none" stroke="#191970" d="M1088.8536,-40.3923C1076.3542,-42.0424 1063.6869,-43.7146 1052.22,-45.2284"/>
<polygon fill="#191970" stroke="#191970" points="1089.36,-43.8559 1098.8158,-39.0771 1088.4438,-36.9161 1089.36,-43.8559"/>
</g>
<!-- Node8 -->
<g id="node8" class="node">
<title>Node8</title>
<g id="a_node8"><a xlink:href="../../d7/d8f/classCStock.html#a0ef2eda44098e896ddb09d5d4629d7aa" target="_top" xlink:title="Method gets and sets all info about stock using switch statement, case, if, else if,...">
<polygon fill="none" stroke="#000000" points="954,-.5 954,-21.5 1063,-21.5 1063,-.5 954,-.5"/>
<text text-anchor="middle" x="1008.5" y="-7.9" font-family="Helvetica,sans-Serif" font-size="12.00" fill="#000000">CStock::stockInfo</text>
</a>
</g>
</g>
<!-- Node1&#45;&gt;Node8 -->
<g id="edge9" class="edge">
<title>Node1&#45;&gt;Node8</title>
<path fill="none" stroke="#191970" d="M1088.7481,-21.5938C1080.1183,-20.4546 1071.4104,-19.305 1063.0746,-18.2046"/>
<polygon fill="#191970" stroke="#191970" points="1088.4438,-25.0839 1098.8158,-22.9229 1089.36,-18.1441 1088.4438,-25.0839"/>
</g>
<!-- Node3 -->
<g id="node3" class="node">
<title>Node3</title>
<g id="a_node3"><a xlink:href="../../d9/d52/classCPortfolio.html#a1253d72b078e2ad23e28744f232a078a" target="_top" xlink:title="Mehtod set and get all information about the portfolios.">
<polygon fill="none" stroke="#000000" points="775,-20.5 775,-41.5 918,-41.5 918,-20.5 775,-20.5"/>
<text text-anchor="middle" x="846.5" y="-27.9" font-family="Helvetica,sans-Serif" font-size="12.00" fill="#000000">CPortfolio::userPortfolio</text>
</a>
</g>
</g>
<!-- Node2&#45;&gt;Node3 -->
<g id="edge2" class="edge">
<title>Node2&#45;&gt;Node3</title>
<path fill="none" stroke="#191970" d="M954.6392,-44.3505C942.9534,-42.9078 930.4155,-41.3599 918.1663,-39.8477"/>
<polygon fill="#191970" stroke="#191970" points="954.3069,-47.836 964.6605,-45.5877 955.1647,-40.8887 954.3069,-47.836"/>
</g>
<!-- Node4 -->
<g id="node4" class="node">
<title>Node4</title>
<g id="a_node4"><a xlink:href="../../d1/d60/classCMyHolding.html#a2da746680d2dd9d7af60d49719b0fd37" target="_top" xlink:title="Method set and gets all information about holding of Client.">
<polygon fill="none" stroke="#000000" points="545,-20.5 545,-41.5 739,-41.5 739,-20.5 545,-20.5"/>
<text text-anchor="middle" x="642" y="-27.9" font-family="Helvetica,sans-Serif" font-size="12.00" fill="#000000">CMyHolding::createHoldingMenu</text>
</a>
</g>
</g>
<!-- Node3&#45;&gt;Node4 -->
<g id="edge3" class="edge">
<title>Node3&#45;&gt;Node4</title>
<path fill="none" stroke="#191970" d="M764.7576,-31C756.2874,-31 747.6213,-31 739.0051,-31"/>
<polygon fill="#191970" stroke="#191970" points="764.9759,-34.5001 774.9758,-31 764.9758,-27.5001 764.9759,-34.5001"/>
</g>
<!-- Node5 -->
<g id="node5" class="node">
<title>Node5</title>
<g id="a_node5"><a xlink:href="../../df/da7/classCClient.html#a1cb513868f3ae0f1130528cdaeb3fb26" target="_top" xlink:title="Method create Client menu through which you can set and get data for Client.">
<polygon fill="none" stroke="#000000" points="351,-20.5 351,-41.5 509,-41.5 509,-20.5 351,-20.5"/>
<text text-anchor="middle" x="430" y="-27.9" font-family="Helvetica,sans-Serif" font-size="12.00" fill="#000000">CClient::createClientMenu</text>
</a>
</g>
</g>
<!-- Node4&#45;&gt;Node5 -->
<g id="edge4" class="edge">
<title>Node4&#45;&gt;Node5</title>
<path fill="none" stroke="#191970" d="M534.8542,-31C526.2068,-31 517.5697,-31 509.173,-31"/>
<polygon fill="#191970" stroke="#191970" points="534.9963,-34.5001 544.9962,-31 534.9962,-27.5001 534.9963,-34.5001"/>
</g>
<!-- Node6 -->
<g id="node6" class="node">
<title>Node6</title>
<g id="a_node6"><a xlink:href="../../da/d8b/classCAdministrator.html#a834db63b1ee3b716b1e8e97a101e51de" target="_top" xlink:title="Method with while loop, switch expression and fstream library to register the administrator and can g...">
<polygon fill="none" stroke="#000000" points="79,-40.5 79,-61.5 315,-61.5 315,-40.5 79,-40.5"/>
<text text-anchor="middle" x="197" y="-47.9" font-family="Helvetica,sans-Serif" font-size="12.00" fill="#000000">CAdministrator::createAdministratorMenu</text>
</a>
</g>
</g>
<!-- Node5&#45;&gt;Node6 -->
<g id="edge5" class="edge">
<title>Node5&#45;&gt;Node6</title>
<path fill="none" stroke="#191970" d="M340.7155,-38.6639C332.3642,-39.3808 323.8153,-40.1146 315.2538,-40.8495"/>
<polygon fill="#191970" stroke="#191970" points="341.1277,-42.1415 350.7917,-37.799 340.529,-35.1671 341.1277,-42.1415"/>
</g>
<!-- Node7 -->
<g id="node7" class="node">
<title>Node7</title>
<g id="a_node7"><a xlink:href="../../df/d0a/main_8cpp.html#ae66f6b31b5ad750f1fe042a706a4e3d4" target="_top" xlink:title=" ">
<polygon fill="none" stroke="#000000" points="0,-20.5 0,-41.5 43,-41.5 43,-20.5 0,-20.5"/>
<text text-anchor="middle" x="21.5" y="-27.9" font-family="Helvetica,sans-Serif" font-size="12.00" fill="#000000">main</text>
</a>
</g>
</g>
<!-- Node5&#45;&gt;Node7 -->
<g id="edge8" class="edge">
<title>Node5&#45;&gt;Node7</title>
<path fill="none" stroke="#191970" d="M340.7491,-31C244.6831,-31 98.2696,-31 43.3341,-31"/>
<polygon fill="#191970" stroke="#191970" points="340.7528,-34.5001 350.7527,-31 340.7527,-27.5001 340.7528,-34.5001"/>
</g>
<!-- Node6&#45;&gt;Node6 -->
<g id="edge6" class="edge">
<title>Node6&#45;&gt;Node6</title>
<path fill="none" stroke="#191970" d="M229.3758,-70.6791C227.6409,-75.9746 216.849,-80 197,-80 166.7539,-80 157.5383,-70.6531 169.3532,-61.7079"/>
<polygon fill="#191970" stroke="#191970" points="232.4061,-68.922 224.6468,-61.7079 226.2138,-72.1862 232.4061,-68.922"/>
</g>
<!-- Node6&#45;&gt;Node7 -->
<g id="edge7" class="edge">
<title>Node6&#45;&gt;Node7</title>
<path fill="none" stroke="#191970" d="M94.4501,-39.3134C75.1263,-37.1113 56.7886,-35.0215 43.3323,-33.488"/>
<polygon fill="#191970" stroke="#191970" points="94.2924,-42.818 104.6245,-40.4729 95.0851,-35.863 94.2924,-42.818"/>
</g>
<!-- Node8&#45;&gt;Node3 -->
<g id="edge10" class="edge">
<title>Node8&#45;&gt;Node3</title>
<path fill="none" stroke="#191970" d="M943.6154,-19.0104C935.268,-20.041 926.6826,-21.1009 918.2335,-22.144"/>
<polygon fill="#191970" stroke="#191970" points="944.1584,-22.4701 953.6542,-17.7711 943.3007,-15.5228 944.1584,-22.4701"/>
</g>
</g>
</svg>
