<?xml version="1.0" encoding="UTF-8" standalone="no"?>
<!DOCTYPE svg PUBLIC "-//W3C//DTD SVG 1.1//EN"
 "http://www.w3.org/Graphics/SVG/1.1/DTD/svg11.dtd">
<!-- Generated by graphviz version 2.40.1 (20161225.0304)
 -->
<!-- Title: CAsset::valueFromDiffrentFunction Pages: 1 -->
<svg width="700pt" height="70pt"
 viewBox="0.00 0.00 700.00 70.00" xmlns="http://www.w3.org/2000/svg" xmlns:xlink="http://www.w3.org/1999/xlink">
<g id="graph0" class="graph" transform="scale(1 1) rotate(0) translate(4 66)">
<title>CAsset::valueFromDiffrentFunction</title>
<!-- Node1 -->
<g id="node1" class="node">
<title>Node1</title>
<g id="a_node1"><a xlink:title=" ">
<polygon fill="#bfbfbf" stroke="#000000" points="0,-14 0,-48 157,-48 157,-14 0,-14"/>
<text text-anchor="start" x="8" y="-34.4" font-family="Helvetica,sans-Serif" font-size="12.00" fill="#000000">CAsset::valueFromDiffrent</text>
<text text-anchor="middle" x="78.5" y="-21.4" font-family="Helvetica,sans-Serif" font-size="12.00" fill="#000000">Function</text>
</a>
</g>
</g>
<!-- Node2 -->
<g id="node2" class="node">
<title>Node2</title>
<g id="a_node2"><a xlink:href="../../d5/de1/classCDataBase.html#a05366b9fffcc574425739ec7007d59f1" target="_top" xlink:title="Method get and set data of Stocks to database in this program database are the files and relation wit...">
<polygon fill="none" stroke="#000000" points="193,-20.5 193,-41.5 352,-41.5 352,-20.5 193,-20.5"/>
<text text-anchor="middle" x="272.5" y="-27.9" font-family="Helvetica,sans-Serif" font-size="12.00" fill="#000000">CDataBase::inputForStock</text>
</a>
</g>
</g>
<!-- Node1&#45;&gt;Node2 -->
<g id="edge1" class="edge">
<title>Node1&#45;&gt;Node2</title>
<path fill="none" stroke="#191970" d="M157.1276,-31C165.5826,-31 174.231,-31 182.8029,-31"/>
<polygon fill="#191970" stroke="#191970" points="182.8143,-34.5001 192.8142,-31 182.8142,-27.5001 182.8143,-34.5001"/>
</g>
<!-- Node3 -->
<g id="node3" class="node">
<title>Node3</title>
<g id="a_node3"><a xlink:href="../../d5/de1/classCDataBase.html#a3ac9748e34a93b398f72a9d770b4d0cc" target="_top" xlink:title="calculate meanOfAsset">
<polygon fill="none" stroke="#000000" points="388.5,-40.5 388.5,-61.5 545.5,-61.5 545.5,-40.5 388.5,-40.5"/>
<text text-anchor="middle" x="467" y="-47.9" font-family="Helvetica,sans-Serif" font-size="12.00" fill="#000000">CDataBase::meanOfAsset</text>
</a>
</g>
</g>
<!-- Node2&#45;&gt;Node3 -->
<g id="edge2" class="edge">
<title>Node2&#45;&gt;Node3</title>
<path fill="none" stroke="#191970" d="M352.1718,-39.1925C360.7678,-40.0764 369.5534,-40.9798 378.2477,-41.8738"/>
<polygon fill="#191970" stroke="#191970" points="378.0897,-45.3759 388.3953,-42.9173 378.8058,-38.4126 378.0897,-45.3759"/>
</g>
<!-- Node4 -->
<g id="node4" class="node">
<title>Node4</title>
<g id="a_node4"><a xlink:href="../../d5/de1/classCDataBase.html#addbd9873807ba906964fdc719cc2966f" target="_top" xlink:title="Method calculate return of Assets.">
<polygon fill="none" stroke="#000000" points="388,-.5 388,-21.5 546,-21.5 546,-.5 388,-.5"/>
<text text-anchor="middle" x="467" y="-7.9" font-family="Helvetica,sans-Serif" font-size="12.00" fill="#000000">CDataBase::returnOfAsset</text>
</a>
</g>
</g>
<!-- Node2&#45;&gt;Node4 -->
<g id="edge3" class="edge">
<title>Node2&#45;&gt;Node4</title>
<path fill="none" stroke="#191970" d="M352.1718,-22.8075C360.617,-21.9391 369.2452,-21.0519 377.79,-20.1733"/>
<polygon fill="#191970" stroke="#191970" points="378.1772,-23.652 387.7667,-19.1474 377.4611,-16.6887 378.1772,-23.652"/>
</g>
<!-- Node5 -->
<g id="node5" class="node">
<title>Node5</title>
<g id="a_node5"><a xlink:href="../../d5/de1/classCDataBase.html#ae2c38c644b4bd594c74676aa1983758e" target="_top" xlink:title="Method helps to set size of vector.">
<polygon fill="none" stroke="#000000" points="582,-.5 582,-21.5 692,-21.5 692,-.5 582,-.5"/>
<text text-anchor="middle" x="637" y="-7.9" font-family="Helvetica,sans-Serif" font-size="12.00" fill="#000000">CDataBase::slice</text>
</a>
</g>
</g>
<!-- Node4&#45;&gt;Node5 -->
<g id="edge4" class="edge">
<title>Node4&#45;&gt;Node5</title>
<path fill="none" stroke="#191970" d="M546.0278,-11C554.658,-11 563.3706,-11 571.8076,-11"/>
<polygon fill="#191970" stroke="#191970" points="571.938,-14.5001 581.938,-11 571.9379,-7.5001 571.938,-14.5001"/>
</g>
</g>
</svg>
