<?xml version="1.0" encoding="UTF-8" standalone="no"?>
<!DOCTYPE svg PUBLIC "-//W3C//DTD SVG 1.1//EN"
 "http://www.w3.org/Graphics/SVG/1.1/DTD/svg11.dtd">
<!-- Generated by graphviz version 2.40.1 (20161225.0304)
 -->
<!-- Title: CAsset::setMStrAssetName Pages: 1 -->
<svg width="878pt" height="66pt"
 viewBox="0.00 0.00 878.00 66.00" xmlns="http://www.w3.org/2000/svg" xmlns:xlink="http://www.w3.org/1999/xlink">
<g id="graph0" class="graph" transform="scale(1 1) rotate(0) translate(4 62)">
<title>CAsset::setMStrAssetName</title>
<!-- Node1 -->
<g id="node1" class="node">
<title>Node1</title>
<g id="a_node1"><a xlink:title=" ">
<polygon fill="#bfbfbf" stroke="#000000" points="728,-19.5 728,-38.5 870,-38.5 870,-19.5 728,-19.5"/>
<text text-anchor="middle" x="799" y="-26.5" font-family="Helvetica,sans-Serif" font-size="10.00" fill="#000000">CAsset::setMStrAssetName</text>
</a>
</g>
</g>
<!-- Node2 -->
<g id="node2" class="node">
<title>Node2</title>
<g id="a_node2"><a xlink:href="../../d0/dc4/classCETF.html#abfd92cb6e0c471932af46e30df2fd308" target="_top" xlink:title=" ">
<polygon fill="none" stroke="#000000" points="605.5,-38.5 605.5,-57.5 682.5,-57.5 682.5,-38.5 605.5,-38.5"/>
<text text-anchor="middle" x="644" y="-45.5" font-family="Helvetica,sans-Serif" font-size="10.00" fill="#000000">CETF::etfInfo</text>
</a>
</g>
</g>
<!-- Node1&#45;&gt;Node2 -->
<g id="edge1" class="edge">
<title>Node1&#45;&gt;Node2</title>
<path fill="none" stroke="#191970" d="M717.5917,-38.9791C705.3827,-40.4757 693.3034,-41.9564 682.5698,-43.2721"/>
<polygon fill="#191970" stroke="#191970" points="718.3513,-42.4123 727.8511,-37.7215 717.4995,-35.4643 718.3513,-42.4123"/>
</g>
<!-- Node7 -->
<g id="node7" class="node">
<title>Node7</title>
<g id="a_node7"><a xlink:href="../../d7/d8f/classCStock.html#a0ef2eda44098e896ddb09d5d4629d7aa" target="_top" xlink:title=" ">
<polygon fill="none" stroke="#000000" points="596,-.5 596,-19.5 692,-19.5 692,-.5 596,-.5"/>
<text text-anchor="middle" x="644" y="-7.5" font-family="Helvetica,sans-Serif" font-size="10.00" fill="#000000">CStock::stockInfo</text>
</a>
</g>
</g>
<!-- Node1&#45;&gt;Node7 -->
<g id="edge6" class="edge">
<title>Node1&#45;&gt;Node7</title>
<path fill="none" stroke="#191970" d="M717.9057,-19.0594C709.0987,-17.9798 700.3538,-16.9079 692.1271,-15.8995"/>
<polygon fill="#191970" stroke="#191970" points="717.4995,-22.5357 727.8511,-20.2785 718.3513,-15.5877 717.4995,-22.5357"/>
</g>
<!-- Node3 -->
<g id="node3" class="node">
<title>Node3</title>
<g id="a_node3"><a xlink:href="../../d9/d52/classCPortfolio.html#a1253d72b078e2ad23e28744f232a078a" target="_top" xlink:title=" ">
<polygon fill="none" stroke="#000000" points="439,-19.5 439,-38.5 560,-38.5 560,-19.5 439,-19.5"/>
<text text-anchor="middle" x="499.5" y="-26.5" font-family="Helvetica,sans-Serif" font-size="10.00" fill="#000000">CPortfolio::userPortfolio</text>
</a>
</g>
</g>
<!-- Node2&#45;&gt;Node3 -->
<g id="edge2" class="edge">
<title>Node2&#45;&gt;Node3</title>
<path fill="none" stroke="#191970" d="M595.2061,-41.5842C583.9395,-40.1028 571.8191,-38.5091 560.117,-36.9704"/>
<polygon fill="#191970" stroke="#191970" points="594.9057,-45.0747 605.2767,-42.9083 595.8183,-38.1345 594.9057,-45.0747"/>
</g>
<!-- Node4 -->
<g id="node4" class="node">
<title>Node4</title>
<g id="a_node4"><a xlink:href="../../d1/d60/classCMyHolding.html#a2da746680d2dd9d7af60d49719b0fd37" target="_top" xlink:title=" ">
<polygon fill="none" stroke="#000000" points="242,-19.5 242,-38.5 403,-38.5 403,-19.5 242,-19.5"/>
<text text-anchor="middle" x="322.5" y="-26.5" font-family="Helvetica,sans-Serif" font-size="10.00" fill="#000000">CMyHolding::createHoldingMenu</text>
</a>
</g>
</g>
<!-- Node3&#45;&gt;Node4 -->
<g id="edge3" class="edge">
<title>Node3&#45;&gt;Node4</title>
<path fill="none" stroke="#191970" d="M428.5516,-29C420.2196,-29 411.6713,-29 403.2185,-29"/>
<polygon fill="#191970" stroke="#191970" points="428.5867,-32.5001 438.5866,-29 428.5866,-25.5001 428.5867,-32.5001"/>
</g>
<!-- Node5 -->
<g id="node5" class="node">
<title>Node5</title>
<g id="a_node5"><a xlink:href="../../df/da7/classCClient.html#a1cb513868f3ae0f1130528cdaeb3fb26" target="_top" xlink:title=" ">
<polygon fill="none" stroke="#000000" points="74,-19.5 74,-38.5 206,-38.5 206,-19.5 74,-19.5"/>
<text text-anchor="middle" x="140" y="-26.5" font-family="Helvetica,sans-Serif" font-size="10.00" fill="#000000">CClient::createClientMenu</text>
</a>
</g>
</g>
<!-- Node4&#45;&gt;Node5 -->
<g id="edge4" class="edge">
<title>Node4&#45;&gt;Node5</title>
<path fill="none" stroke="#191970" d="M231.8106,-29C223.1792,-29 214.5411,-29 206.2052,-29"/>
<polygon fill="#191970" stroke="#191970" points="231.9216,-32.5001 241.9216,-29 231.9216,-25.5001 231.9216,-32.5001"/>
</g>
<!-- Node6 -->
<g id="node6" class="node">
<title>Node6</title>
<g id="a_node6"><a xlink:href="../../df/d0a/main_8cpp.html#ae66f6b31b5ad750f1fe042a706a4e3d4" target="_top" xlink:title=" ">
<polygon fill="none" stroke="#000000" points="0,-19.5 0,-38.5 38,-38.5 38,-19.5 0,-19.5"/>
<text text-anchor="middle" x="19" y="-26.5" font-family="Helvetica,sans-Serif" font-size="10.00" fill="#000000">main</text>
</a>
</g>
</g>
<!-- Node5&#45;&gt;Node6 -->
<g id="edge5" class="edge">
<title>Node5&#45;&gt;Node6</title>
<path fill="none" stroke="#191970" d="M63.7939,-29C54.309,-29 45.3774,-29 38.0227,-29"/>
<polygon fill="#191970" stroke="#191970" points="63.8355,-32.5001 73.8355,-29 63.8355,-25.5001 63.8355,-32.5001"/>
</g>
<!-- Node7&#45;&gt;Node3 -->
<g id="edge7" class="edge">
<title>Node7&#45;&gt;Node3</title>
<path fill="none" stroke="#191970" d="M585.7183,-17.6633C577.2494,-18.7769 568.5142,-19.9255 560.0026,-21.0446"/>
<polygon fill="#191970" stroke="#191970" points="586.4252,-21.1006 595.8836,-16.3267 585.5126,-14.1603 586.4252,-21.1006"/>
</g>
</g>
</svg>
