<?xml version="1.0" encoding="UTF-8" standalone="no"?>
<!DOCTYPE svg PUBLIC "-//W3C//DTD SVG 1.1//EN"
 "http://www.w3.org/Graphics/SVG/1.1/DTD/svg11.dtd">
<!-- Generated by graphviz version 2.40.1 (20161225.0304)
 -->
<!-- Title: CAsset::getFromBase Pages: 1 -->
<svg width="292pt" height="68pt"
 viewBox="0.00 0.00 292.15 68.00" xmlns="http://www.w3.org/2000/svg" xmlns:xlink="http://www.w3.org/1999/xlink">
<g id="graph0" class="graph" transform="scale(1 1) rotate(0) translate(4 64)">
<title>CAsset::getFromBase</title>
<!-- Node1 -->
<g id="node1" class="node">
<title>Node1</title>
<g id="a_node1"><a xlink:title=" ">
<polygon fill="#bfbfbf" stroke="#000000" points="0,-19.5 0,-39.5 113.794,-39.5 113.794,-19.5 0,-19.5"/>
<text text-anchor="middle" x="56.897" y="-26.5" font-family="Helvetica,sans-Serif" font-size="10.00" fill="#000000">CAsset::getFromBase</text>
</a>
</g>
</g>
<!-- Node2 -->
<g id="node2" class="node">
<title>Node2</title>
<g id="a_node2"><a xlink:href="../../dc/d85/classCAsset.html#a250e2ea666e815df850ceb34297d95cd" target="_top" xlink:title=" ">
<polygon fill="none" stroke="#000000" points="155.3475,-39.5 155.3475,-59.5 278.5995,-59.5 278.5995,-39.5 155.3475,-39.5"/>
<text text-anchor="middle" x="216.9735" y="-46.5" font-family="Helvetica,sans-Serif" font-size="10.00" fill="#000000">CAsset::doubeVecToStr</text>
</a>
</g>
</g>
<!-- Node1&#45;&gt;Node2 -->
<g id="edge1" class="edge">
<title>Node1&#45;&gt;Node2</title>
<path fill="none" stroke="#191970" d="M114.2361,-36.664C124.1941,-37.9081 134.6631,-39.2161 144.9535,-40.5018"/>
<polygon fill="#191970" stroke="#191970" points="144.8021,-44.01 155.1589,-41.7769 145.67,-37.064 144.8021,-44.01"/>
</g>
<!-- Node3 -->
<g id="node3" class="node">
<title>Node3</title>
<g id="a_node3"><a xlink:href="../../d5/de1/classCDataBase.html#a05366b9fffcc574425739ec7007d59f1" target="_top" xlink:title=" ">
<polygon fill="none" stroke="#000000" points="149.794,-.5 149.794,-20.5 284.153,-20.5 284.153,-.5 149.794,-.5"/>
<text text-anchor="middle" x="216.9735" y="-7.5" font-family="Helvetica,sans-Serif" font-size="10.00" fill="#000000">CDataBase::inputForStock</text>
</a>
</g>
</g>
<!-- Node1&#45;&gt;Node3 -->
<g id="edge2" class="edge">
<title>Node1&#45;&gt;Node3</title>
<path fill="none" stroke="#191970" d="M114.2361,-22.6942C122.4896,-21.7146 131.0941,-20.6933 139.657,-19.6769"/>
<polygon fill="#191970" stroke="#191970" points="140.1488,-23.1432 149.6665,-18.4889 139.3237,-16.192 140.1488,-23.1432"/>
</g>
</g>
</svg>
