<?xml version="1.0" encoding="UTF-8" standalone="no"?>
<!DOCTYPE svg PUBLIC "-//W3C//DTD SVG 1.1//EN"
 "http://www.w3.org/Graphics/SVG/1.1/DTD/svg11.dtd">
<!-- Generated by graphviz version 2.40.1 (20161225.0304)
 -->
<!-- Title: CAsset::getFromBase Pages: 1 -->
<!--zoomable 350 -->
<svg id="main" version="1.1" xmlns="http://www.w3.org/2000/svg" xmlns:xlink="http://www.w3.org/1999/xlink" xml:space="preserve" onload="init(evt)">
<style type="text/css"><![CDATA[
.edge:hover path { stroke: red; }
.edge:hover polygon { stroke: red; fill: red; }
]]></style>
<script type="text/javascript"><![CDATA[
var edges = document.getElementsByTagName('g');
if (edges && edges.length) {
  for (var i=0;i<edges.length;i++) {
    if (edges[i].id.substr(0,4)=='edge') {
      edges[i].setAttribute('class','edge');
    }
  }
}
]]></script>
        <defs>
                <circle id="rim" cx="0" cy="0" r="7"/>
                <circle id="rim2" cx="0" cy="0" r="3.5"/>
                <g id="zoomPlus">
                        <use xlink:href="#rim" fill="#404040">
                                <set attributeName="fill" to="#808080" begin="zoomplus.mouseover" end="zoomplus.mouseout"/>
                        </use>
                        <path d="M-4,0h8M0,-4v8" fill="none" stroke="white" stroke-width="1.5" pointer-events="none"/>
                </g>
                <g id="zoomMin">
                        <use xlink:href="#rim" fill="#404040">
                                <set attributeName="fill" to="#808080" begin="zoomminus.mouseover" end="zoomminus.mouseout"/>
                        </use>
                        <path d="M-4,0h8" fill="none" stroke="white" stroke-width="1.5" pointer-events="none"/>
                </g>
                <g id="dirArrow">
                        <path fill="none" stroke="white" stroke-width="1.5" d="M0,-3.0v7 M-2.5,-0.5L0,-3.0L2.5,-0.5"/>
                </g>
               <g id="resetDef">
                       <use xlink:href="#rim2" fill="#404040">
                               <set attributeName="fill" to="#808080" begin="reset.mouseover" end="reset.mouseout"/>
                       </use>
               </g>
        </defs>

<script type="text/javascript">
var viewWidth = 501;
var viewHeight = 350;
var sectionId = 'dynsection-3';
</script>
<script xlink:href="../../svgpan.js"/>
<svg id="graph" class="graph">
<g id="viewport">
<title>CAsset::getFromBase</title>
<!-- Node1 -->
<g id="node1" class="node">
<title>Node1</title>
<g id="a_node1"><a xlink:title="Method get data from database through the class CDataBase.">
<polygon fill="#bfbfbf" stroke="#000000" points="0,-160.5 0,-181.5 134,-181.5 134,-160.5 0,-160.5"/>
<text text-anchor="middle" x="67" y="-167.9" font-family="Helvetica,sans-Serif" font-size="12.00" fill="#000000">CAsset::getFromBase</text>
</a>
</g>
</g>
<!-- Node2 -->
<g id="node2" class="node">
<title>Node2</title>
<g id="a_node2"><a xlink:href="../../d7/d8f/classCStock.html#ac29f9a8363a2388481e44526a0d4aa06" target="_top" xlink:title=" ">
<polygon fill="none" stroke="#000000" points="187,-320.5 187,-341.5 354,-341.5 354,-320.5 187,-320.5"/>
<text text-anchor="middle" x="270.5" y="-327.9" font-family="Helvetica,sans-Serif" font-size="12.00" fill="#000000">CStock::getMStrPathToAppl</text>
</a>
</g>
</g>
<!-- Node1&#45;&gt;Node2 -->
<g id="edge1" class="edge">
<title>Node1&#45;&gt;Node2</title>
<path fill="none" stroke="#191970" d="M71.4201,-181.5026C83.1542,-207.9981 117.8037,-277.8032 170,-311 173.1899,-313.0288 176.5427,-314.8585 180.0094,-316.5084"/>
<polygon fill="#191970" stroke="#191970" points="178.8435,-319.815 189.4182,-320.4684 181.559,-313.3631 178.8435,-319.815"/>
</g>
<!-- Node3 -->
<g id="node3" class="node">
<title>Node3</title>
<g id="a_node3"><a xlink:href="../../d7/d8f/classCStock.html#a71879b1e890394887791d3746cb7ef04" target="_top" xlink:title=" ">
<polygon fill="none" stroke="#000000" points="180,-280.5 180,-301.5 361,-301.5 361,-280.5 180,-280.5"/>
<text text-anchor="middle" x="270.5" y="-287.9" font-family="Helvetica,sans-Serif" font-size="12.00" fill="#000000">CStock::getMStrPathToGoogle</text>
</a>
</g>
</g>
<!-- Node1&#45;&gt;Node3 -->
<g id="edge2" class="edge">
<title>Node1&#45;&gt;Node3</title>
<path fill="none" stroke="#191970" d="M74.6653,-181.7999C90.1139,-202.6838 127.1918,-248.5212 170,-271 174.3486,-273.2835 178.9282,-275.3071 183.6384,-277.1002"/>
<polygon fill="#191970" stroke="#191970" points="182.8633,-280.5344 193.4579,-280.4668 185.1335,-273.9128 182.8633,-280.5344"/>
</g>
<!-- Node4 -->
<g id="node4" class="node">
<title>Node4</title>
<g id="a_node4"><a xlink:href="../../d0/dc4/classCETF.html#af8e267a244a73e0ad7038f83b5ec26b0" target="_top" xlink:title=" ">
<polygon fill="none" stroke="#000000" points="195,-240.5 195,-261.5 346,-261.5 346,-240.5 195,-240.5"/>
<text text-anchor="middle" x="270.5" y="-247.9" font-family="Helvetica,sans-Serif" font-size="12.00" fill="#000000">CETF::getMStrPathToIxn</text>
</a>
</g>
</g>
<!-- Node1&#45;&gt;Node4 -->
<g id="edge3" class="edge">
<title>Node1&#45;&gt;Node4</title>
<path fill="none" stroke="#191970" d="M81.5681,-181.5996C100.8431,-195.113 136.3243,-218.2492 170,-231 176.9987,-233.65 184.4111,-235.9691 191.9121,-237.9945"/>
<polygon fill="#191970" stroke="#191970" points="191.244,-241.4356 201.7967,-240.4911 192.9583,-234.6488 191.244,-241.4356"/>
</g>
<!-- Node5 -->
<g id="node5" class="node">
<title>Node5</title>
<g id="a_node5"><a xlink:href="../../d0/dc4/classCETF.html#a8d19cc867f54575686cf448a2d17af38" target="_top" xlink:title=" ">
<polygon fill="none" stroke="#000000" points="191.5,-200.5 191.5,-221.5 349.5,-221.5 349.5,-200.5 191.5,-200.5"/>
<text text-anchor="middle" x="270.5" y="-207.9" font-family="Helvetica,sans-Serif" font-size="12.00" fill="#000000">CETF::getMStrPathToQqq</text>
</a>
</g>
</g>
<!-- Node1&#45;&gt;Node5 -->
<g id="edge4" class="edge">
<title>Node1&#45;&gt;Node5</title>
<path fill="none" stroke="#191970" d="M120.4672,-181.5095C147.0021,-186.7252 179.24,-193.0619 207.0219,-198.5227"/>
<polygon fill="#191970" stroke="#191970" points="206.5496,-201.9968 217.0369,-200.4913 207.8998,-195.1282 206.5496,-201.9968"/>
</g>
<!-- Node6 -->
<g id="node6" class="node">
<title>Node6</title>
<g id="a_node6"><a xlink:href="../../d0/dc4/classCETF.html#a477bc0a30dca4ce9bf7a9a52e121324b" target="_top" xlink:title=" ">
<polygon fill="none" stroke="#000000" points="194.5,-160.5 194.5,-181.5 346.5,-181.5 346.5,-160.5 194.5,-160.5"/>
<text text-anchor="middle" x="270.5" y="-167.9" font-family="Helvetica,sans-Serif" font-size="12.00" fill="#000000">CETF::getMStrPathToXlk</text>
</a>
</g>
</g>
<!-- Node1&#45;&gt;Node6 -->
<g id="edge5" class="edge">
<title>Node1&#45;&gt;Node6</title>
<path fill="none" stroke="#191970" d="M134.1975,-171C150.1125,-171 167.3072,-171 183.9472,-171"/>
<polygon fill="#191970" stroke="#191970" points="184.2198,-174.5001 194.2198,-171 184.2198,-167.5001 184.2198,-174.5001"/>
</g>
<!-- Node7 -->
<g id="node7" class="node">
<title>Node7</title>
<g id="a_node7"><a xlink:href="../../d7/d8f/classCStock.html#a157bab205439811406e6aa5da0fcaddd" target="_top" xlink:title=" ">
<polygon fill="none" stroke="#000000" points="170,-120.5 170,-141.5 371,-141.5 371,-120.5 170,-120.5"/>
<text text-anchor="middle" x="270.5" y="-127.9" font-family="Helvetica,sans-Serif" font-size="12.00" fill="#000000">CStock::getMStrPathtToAmznDate</text>
</a>
</g>
</g>
<!-- Node1&#45;&gt;Node7 -->
<g id="edge6" class="edge">
<title>Node1&#45;&gt;Node7</title>
<path fill="none" stroke="#191970" d="M120.4672,-160.4905C147.0021,-155.2748 179.24,-148.9381 207.0219,-143.4773"/>
<polygon fill="#191970" stroke="#191970" points="207.8998,-146.8718 217.0369,-141.5087 206.5496,-140.0032 207.8998,-146.8718"/>
</g>
<!-- Node8 -->
<g id="node8" class="node">
<title>Node8</title>
<g id="a_node8"><a xlink:href="../../dc/d85/classCAsset.html#a48d22720b57dc24776a9023be661bff9" target="_top" xlink:title="Method calculate mean of one Asset.">
<polygon fill="none" stroke="#000000" points="203.5,-80.5 203.5,-101.5 337.5,-101.5 337.5,-80.5 203.5,-80.5"/>
<text text-anchor="middle" x="270.5" y="-87.9" font-family="Helvetica,sans-Serif" font-size="12.00" fill="#000000">CAsset::meanOfAsset</text>
</a>
</g>
</g>
<!-- Node1&#45;&gt;Node8 -->
<g id="edge7" class="edge">
<title>Node1&#45;&gt;Node8</title>
<path fill="none" stroke="#191970" d="M81.5681,-160.4004C100.8431,-146.887 136.3243,-123.7508 170,-111 177.5109,-108.1561 185.498,-105.6933 193.56,-103.5656"/>
<polygon fill="#191970" stroke="#191970" points="194.5354,-106.9299 203.4038,-101.1333 192.8562,-100.1343 194.5354,-106.9299"/>
</g>
<!-- Node9 -->
<g id="node9" class="node">
<title>Node9</title>
<g id="a_node9"><a xlink:href="../../dc/d85/classCAsset.html#aa855b3cfd867f9788d1cc0e5db7c3870" target="_top" xlink:title="Method return diffrence between vector of returns and double value of mean of return of Asset.">
<polygon fill="none" stroke="#000000" points="174.5,-40.5 174.5,-61.5 366.5,-61.5 366.5,-40.5 174.5,-40.5"/>
<text text-anchor="middle" x="270.5" y="-47.9" font-family="Helvetica,sans-Serif" font-size="12.00" fill="#000000">CAsset::returnAndMeanDiffrence</text>
</a>
</g>
</g>
<!-- Node1&#45;&gt;Node9 -->
<g id="edge8" class="edge">
<title>Node1&#45;&gt;Node9</title>
<path fill="none" stroke="#191970" d="M74.6653,-160.2001C90.1139,-139.3162 127.1918,-93.4788 170,-71 174.3486,-68.7165 178.9282,-66.6929 183.6384,-64.8998"/>
<polygon fill="#191970" stroke="#191970" points="185.1335,-68.0872 193.4579,-61.5332 182.8633,-61.4656 185.1335,-68.0872"/>
</g>
<!-- Node10 -->
<g id="node10" class="node">
<title>Node10</title>
<g id="a_node10"><a xlink:href="../../dc/d85/classCAsset.html#a96031ecbece20a71af492b3cf5063f0b" target="_top" xlink:title="Method returns what is returns of one Asset in the setting period, get info for this from database.">
<polygon fill="none" stroke="#000000" points="203.5,-.5 203.5,-21.5 337.5,-21.5 337.5,-.5 203.5,-.5"/>
<text text-anchor="middle" x="270.5" y="-7.9" font-family="Helvetica,sans-Serif" font-size="12.00" fill="#000000">CAsset::returnOfAsset</text>
</a>
</g>
</g>
<!-- Node1&#45;&gt;Node10 -->
<g id="edge9" class="edge">
<title>Node1&#45;&gt;Node10</title>
<path fill="none" stroke="#191970" d="M71.4201,-160.4974C83.1542,-134.0019 117.8037,-64.1968 170,-31 177.3074,-26.3525 185.4698,-22.7493 193.8976,-19.9613"/>
<polygon fill="#191970" stroke="#191970" points="194.8829,-23.3198 203.4943,-17.1477 192.9135,-16.6025 194.8829,-23.3198"/>
</g>
<!-- Node11 -->
<g id="node11" class="node">
<title>Node11</title>
<g id="a_node11"><a xlink:href="../../dc/d85/classCAsset.html#ae862a51b2a6ea0668c19a07f081e0b3c" target="_top" xlink:title="Method helps to set size of vector for next method returnOfAsset()">
<polygon fill="none" stroke="#000000" points="407,-.5 407,-21.5 493,-21.5 493,-.5 407,-.5"/>
<text text-anchor="middle" x="450" y="-7.9" font-family="Helvetica,sans-Serif" font-size="12.00" fill="#000000">CAsset::slice</text>
</a>
</g>
</g>
<!-- Node10&#45;&gt;Node11 -->
<g id="edge10" class="edge">
<title>Node10&#45;&gt;Node11</title>
<path fill="none" stroke="#191970" d="M337.5944,-11C357.171,-11 378.2863,-11 396.8725,-11"/>
<polygon fill="#191970" stroke="#191970" points="396.9121,-14.5001 406.9121,-11 396.912,-7.5001 396.9121,-14.5001"/>
</g>
</g>
</svg>
        <g id="navigator" transform="translate(0 0)" fill="#404254">
                <rect fill="#f2f5e9" fill-opacity="0.5" stroke="#606060" stroke-width=".5" x="0" y="0" width="60" height="60"/>
                <use id="zoomplus" xlink:href="#zoomPlus" x="17" y="9" onmousedown="handleZoom(evt,'in')"/>
                <use id="zoomminus" xlink:href="#zoomMin" x="42" y="9" onmousedown="handleZoom(evt,'out')"/>
                <use id="reset" xlink:href="#resetDef" x="30" y="36" onmousedown="handleReset()"/>
                <g id="arrowUp" xlink:href="#dirArrow" transform="translate(30 24)" onmousedown="handlePan(0,-1)">
                  <use xlink:href="#rim" fill="#404040">
                        <set attributeName="fill" to="#808080" begin="arrowUp.mouseover" end="arrowUp.mouseout"/>
                  </use>
                  <path fill="none" stroke="white" stroke-width="1.5" d="M0,-3.0v7 M-2.5,-0.5L0,-3.0L2.5,-0.5"/>
                </g>
                <g id="arrowRight" xlink:href="#dirArrow" transform="rotate(90) translate(36 -43)" onmousedown="handlePan(1,0)">
                  <use xlink:href="#rim" fill="#404040">
                        <set attributeName="fill" to="#808080" begin="arrowRight.mouseover" end="arrowRight.mouseout"/>
                  </use>
                  <path fill="none" stroke="white" stroke-width="1.5" d="M0,-3.0v7 M-2.5,-0.5L0,-3.0L2.5,-0.5"/>
                </g>
                <g id="arrowDown" xlink:href="#dirArrow" transform="rotate(180) translate(-30 -48)" onmousedown="handlePan(0,1)">
                  <use xlink:href="#rim" fill="#404040">
                        <set attributeName="fill" to="#808080" begin="arrowDown.mouseover" end="arrowDown.mouseout"/>
                  </use>
                  <path fill="none" stroke="white" stroke-width="1.5" d="M0,-3.0v7 M-2.5,-0.5L0,-3.0L2.5,-0.5"/>
                </g>
                <g id="arrowLeft" xlink:href="#dirArrow" transform="rotate(270) translate(-36 17)" onmousedown="handlePan(-1,0)">
                  <use xlink:href="#rim" fill="#404040">
                        <set attributeName="fill" to="#808080" begin="arrowLeft.mouseover" end="arrowLeft.mouseout"/>
                  </use>
                  <path fill="none" stroke="white" stroke-width="1.5" d="M0,-3.0v7 M-2.5,-0.5L0,-3.0L2.5,-0.5"/>
                </g>
        </g>
        <svg viewBox="0 0 15 15" width="100%" height="30px" preserveAspectRatio="xMaxYMin meet">
         <g id="arrow_out" transform="scale(0.3 0.3)">
          <a xlink:href="classCAsset_ab68c11feace8e8f4b9852404a458796c_cgraph_org.svg" target="_base">
           <rect id="button" ry="5" rx="5" y="6" x="6" height="38" width="38"
                fill="#f2f5e9" fill-opacity="0.5" stroke="#606060" stroke-width="1.0"/>
           <path id="arrow"
             d="M 11.500037,31.436501 C 11.940474,20.09759 22.043105,11.32322 32.158766,21.979434 L 37.068811,17.246167 C 37.068811,17.246167 37.088388,32 37.088388,32 L 22.160133,31.978069 C 22.160133,31.978069 26.997745,27.140456 26.997745,27.140456 C 18.528582,18.264221 13.291696,25.230495 11.500037,31.436501 z"
             style="fill:#404040;"/>
          </a>
         </g>
        </svg>
</svg>
