<?xml version="1.0" encoding="UTF-8" standalone="no"?>
<!DOCTYPE svg PUBLIC "-//W3C//DTD SVG 1.1//EN"
 "http://www.w3.org/Graphics/SVG/1.1/DTD/svg11.dtd">
<!-- Generated by graphviz version 2.40.1 (20161225.0304)
 -->
<!-- Title: CAsset::getMStrAssetName Pages: 1 -->
<svg width="913pt" height="180pt"
 viewBox="0.00 0.00 913.00 180.00" xmlns="http://www.w3.org/2000/svg" xmlns:xlink="http://www.w3.org/1999/xlink">
<g id="graph0" class="graph" transform="scale(1 1) rotate(0) translate(4 176)">
<title>CAsset::getMStrAssetName</title>
<!-- Node1 -->
<g id="node1" class="node">
<title>Node1</title>
<g id="a_node1"><a xlink:title=" ">
<polygon fill="#bfbfbf" stroke="#000000" points="763,-76.5 763,-95.5 905,-95.5 905,-76.5 763,-76.5"/>
<text text-anchor="middle" x="834" y="-83.5" font-family="Helvetica,sans-Serif" font-size="10.00" fill="#000000">CAsset::getMStrAssetName</text>
</a>
</g>
</g>
<!-- Node2 -->
<g id="node2" class="node">
<title>Node2</title>
<g id="a_node2"><a xlink:href="../../d0/dc4/classCETF.html#abfd92cb6e0c471932af46e30df2fd308" target="_top" xlink:title=" ">
<polygon fill="none" stroke="#000000" points="623,-152.5 623,-171.5 700,-171.5 700,-152.5 623,-152.5"/>
<text text-anchor="middle" x="661.5" y="-159.5" font-family="Helvetica,sans-Serif" font-size="10.00" fill="#000000">CETF::etfInfo</text>
</a>
</g>
</g>
<!-- Node1&#45;&gt;Node2 -->
<g id="edge1" class="edge">
<title>Node1&#45;&gt;Node2</title>
<path fill="none" stroke="#191970" d="M809.8654,-100.7224C788.6223,-113.2221 756.5561,-130.9922 727,-143 718.2244,-146.5653 708.537,-149.7577 699.3648,-152.4622"/>
<polygon fill="#191970" stroke="#191970" points="811.741,-103.6791 818.5419,-95.5552 808.1592,-97.6648 811.741,-103.6791"/>
</g>
<!-- Node7 -->
<g id="node7" class="node">
<title>Node7</title>
<g id="a_node7"><a xlink:href="../../d9/d52/classCPortfolio.html#a97672d1bb2eac15bfb23ec98e9a06764" target="_top" xlink:title=" ">
<polygon fill="none" stroke="#000000" points="602,-114.5 602,-133.5 721,-133.5 721,-114.5 602,-114.5"/>
<text text-anchor="middle" x="661.5" y="-121.5" font-family="Helvetica,sans-Serif" font-size="10.00" fill="#000000">CPortfolio::getEtfName</text>
</a>
</g>
</g>
<!-- Node1&#45;&gt;Node7 -->
<g id="edge6" class="edge">
<title>Node1&#45;&gt;Node7</title>
<path fill="none" stroke="#191970" d="M780.6495,-97.7526C756.258,-103.1258 727.7373,-109.4086 704.716,-114.4799"/>
<polygon fill="#191970" stroke="#191970" points="781.4581,-101.1584 790.471,-95.589 779.9521,-94.3224 781.4581,-101.1584"/>
</g>
<!-- Node8 -->
<g id="node8" class="node">
<title>Node8</title>
<g id="a_node8"><a xlink:href="../../d9/d52/classCPortfolio.html#a6e841ed667bf102504e3614a1d712d93" target="_top" xlink:title=" ">
<polygon fill="none" stroke="#000000" points="596,-76.5 596,-95.5 727,-95.5 727,-76.5 596,-76.5"/>
<text text-anchor="middle" x="661.5" y="-83.5" font-family="Helvetica,sans-Serif" font-size="10.00" fill="#000000">CPortfolio::getStockName</text>
</a>
</g>
</g>
<!-- Node1&#45;&gt;Node8 -->
<g id="edge7" class="edge">
<title>Node1&#45;&gt;Node8</title>
<path fill="none" stroke="#191970" d="M752.8252,-86C744.249,-86 735.6056,-86 727.2358,-86"/>
<polygon fill="#191970" stroke="#191970" points="752.8418,-89.5001 762.8417,-86 752.8417,-82.5001 752.8418,-89.5001"/>
</g>
<!-- Node9 -->
<g id="node9" class="node">
<title>Node9</title>
<g id="a_node9"><a xlink:href="../../d9/d52/classCPortfolio.html#a18c4743d0bafa9d0a8169af5a5f50a16" target="_top" xlink:title=" ">
<polygon fill="none" stroke="#000000" points="598,-38.5 598,-57.5 725,-57.5 725,-38.5 598,-38.5"/>
<text text-anchor="middle" x="661.5" y="-45.5" font-family="Helvetica,sans-Serif" font-size="10.00" fill="#000000">CPortfolio::printAssetInfo</text>
</a>
</g>
</g>
<!-- Node1&#45;&gt;Node9 -->
<g id="edge8" class="edge">
<title>Node1&#45;&gt;Node9</title>
<path fill="none" stroke="#191970" d="M780.6495,-74.2474C756.258,-68.8742 727.7373,-62.5914 704.716,-57.5201"/>
<polygon fill="#191970" stroke="#191970" points="779.9521,-77.6776 790.471,-76.411 781.4581,-70.8416 779.9521,-77.6776"/>
</g>
<!-- Node10 -->
<g id="node10" class="node">
<title>Node10</title>
<g id="a_node10"><a xlink:href="../../d7/d8f/classCStock.html#a0ef2eda44098e896ddb09d5d4629d7aa" target="_top" xlink:title=" ">
<polygon fill="none" stroke="#000000" points="613.5,-.5 613.5,-19.5 709.5,-19.5 709.5,-.5 613.5,-.5"/>
<text text-anchor="middle" x="661.5" y="-7.5" font-family="Helvetica,sans-Serif" font-size="10.00" fill="#000000">CStock::stockInfo</text>
</a>
</g>
</g>
<!-- Node1&#45;&gt;Node10 -->
<g id="edge9" class="edge">
<title>Node1&#45;&gt;Node10</title>
<path fill="none" stroke="#191970" d="M809.8654,-71.2776C788.6223,-58.7779 756.5561,-41.0078 727,-29 718.2244,-25.4347 708.537,-22.2423 699.3648,-19.5378"/>
<polygon fill="#191970" stroke="#191970" points="808.1592,-74.3352 818.5419,-76.4448 811.741,-68.3209 808.1592,-74.3352"/>
</g>
<!-- Node3 -->
<g id="node3" class="node">
<title>Node3</title>
<g id="a_node3"><a xlink:href="../../d9/d52/classCPortfolio.html#a1253d72b078e2ad23e28744f232a078a" target="_top" xlink:title=" ">
<polygon fill="none" stroke="#000000" points="439,-76.5 439,-95.5 560,-95.5 560,-76.5 439,-76.5"/>
<text text-anchor="middle" x="499.5" y="-83.5" font-family="Helvetica,sans-Serif" font-size="10.00" fill="#000000">CPortfolio::userPortfolio</text>
</a>
</g>
</g>
<!-- Node2&#45;&gt;Node3 -->
<g id="edge2" class="edge">
<title>Node2&#45;&gt;Node3</title>
<path fill="none" stroke="#191970" d="M613.0655,-149.4499C607.2373,-147.5019 601.431,-145.3471 596,-143 564.9216,-129.5687 531.5098,-108.063 513.294,-95.664"/>
<polygon fill="#191970" stroke="#191970" points="612.2426,-152.8602 622.8323,-152.5306 614.3484,-146.1845 612.2426,-152.8602"/>
</g>
<!-- Node4 -->
<g id="node4" class="node">
<title>Node4</title>
<g id="a_node4"><a xlink:href="../../d1/d60/classCMyHolding.html#a2da746680d2dd9d7af60d49719b0fd37" target="_top" xlink:title=" ">
<polygon fill="none" stroke="#000000" points="242,-76.5 242,-95.5 403,-95.5 403,-76.5 242,-76.5"/>
<text text-anchor="middle" x="322.5" y="-83.5" font-family="Helvetica,sans-Serif" font-size="10.00" fill="#000000">CMyHolding::createHoldingMenu</text>
</a>
</g>
</g>
<!-- Node3&#45;&gt;Node4 -->
<g id="edge3" class="edge">
<title>Node3&#45;&gt;Node4</title>
<path fill="none" stroke="#191970" d="M428.5516,-86C420.2196,-86 411.6713,-86 403.2185,-86"/>
<polygon fill="#191970" stroke="#191970" points="428.5867,-89.5001 438.5866,-86 428.5866,-82.5001 428.5867,-89.5001"/>
</g>
<!-- Node5 -->
<g id="node5" class="node">
<title>Node5</title>
<g id="a_node5"><a xlink:href="../../df/da7/classCClient.html#a1cb513868f3ae0f1130528cdaeb3fb26" target="_top" xlink:title=" ">
<polygon fill="none" stroke="#000000" points="74,-76.5 74,-95.5 206,-95.5 206,-76.5 74,-76.5"/>
<text text-anchor="middle" x="140" y="-83.5" font-family="Helvetica,sans-Serif" font-size="10.00" fill="#000000">CClient::createClientMenu</text>
</a>
</g>
</g>
<!-- Node4&#45;&gt;Node5 -->
<g id="edge4" class="edge">
<title>Node4&#45;&gt;Node5</title>
<path fill="none" stroke="#191970" d="M231.8106,-86C223.1792,-86 214.5411,-86 206.2052,-86"/>
<polygon fill="#191970" stroke="#191970" points="231.9216,-89.5001 241.9216,-86 231.9216,-82.5001 231.9216,-89.5001"/>
</g>
<!-- Node6 -->
<g id="node6" class="node">
<title>Node6</title>
<g id="a_node6"><a xlink:href="../../df/d0a/main_8cpp.html#ae66f6b31b5ad750f1fe042a706a4e3d4" target="_top" xlink:title=" ">
<polygon fill="none" stroke="#000000" points="0,-76.5 0,-95.5 38,-95.5 38,-76.5 0,-76.5"/>
<text text-anchor="middle" x="19" y="-83.5" font-family="Helvetica,sans-Serif" font-size="10.00" fill="#000000">main</text>
</a>
</g>
</g>
<!-- Node5&#45;&gt;Node6 -->
<g id="edge5" class="edge">
<title>Node5&#45;&gt;Node6</title>
<path fill="none" stroke="#191970" d="M63.7939,-86C54.309,-86 45.3774,-86 38.0227,-86"/>
<polygon fill="#191970" stroke="#191970" points="63.8355,-89.5001 73.8355,-86 63.8355,-82.5001 63.8355,-89.5001"/>
</g>
<!-- Node10&#45;&gt;Node3 -->
<g id="edge10" class="edge">
<title>Node10&#45;&gt;Node3</title>
<path fill="none" stroke="#191970" d="M612.8414,-22.6251C607.0885,-24.5534 601.3613,-26.683 596,-29 564.9216,-42.4313 531.5098,-63.937 513.294,-76.336"/>
<polygon fill="#191970" stroke="#191970" points="614.0095,-25.9266 622.4874,-19.5724 611.8974,-19.2529 614.0095,-25.9266"/>
</g>
</g>
</svg>
