<?xml version="1.0" encoding="UTF-8" standalone="no"?>
<!DOCTYPE svg PUBLIC "-//W3C//DTD SVG 1.1//EN"
 "http://www.w3.org/Graphics/SVG/1.1/DTD/svg11.dtd">
<!-- Generated by graphviz version 2.40.1 (20161225.0304)
 -->
<!-- Title: CAsset::countTotalPriceOfAssets Pages: 1 -->
<!--zoomable 390 -->
<svg id="main" version="1.1" xmlns="http://www.w3.org/2000/svg" xmlns:xlink="http://www.w3.org/1999/xlink" xml:space="preserve" onload="init(evt)">
<style type="text/css"><![CDATA[
.edge:hover path { stroke: red; }
.edge:hover polygon { stroke: red; fill: red; }
]]></style>
<script type="text/javascript"><![CDATA[
var edges = document.getElementsByTagName('g');
if (edges && edges.length) {
  for (var i=0;i<edges.length;i++) {
    if (edges[i].id.substr(0,4)=='edge') {
      edges[i].setAttribute('class','edge');
    }
  }
}
]]></script>
        <defs>
                <circle id="rim" cx="0" cy="0" r="7"/>
                <circle id="rim2" cx="0" cy="0" r="3.5"/>
                <g id="zoomPlus">
                        <use xlink:href="#rim" fill="#404040">
                                <set attributeName="fill" to="#808080" begin="zoomplus.mouseover" end="zoomplus.mouseout"/>
                        </use>
                        <path d="M-4,0h8M0,-4v8" fill="none" stroke="white" stroke-width="1.5" pointer-events="none"/>
                </g>
                <g id="zoomMin">
                        <use xlink:href="#rim" fill="#404040">
                                <set attributeName="fill" to="#808080" begin="zoomminus.mouseover" end="zoomminus.mouseout"/>
                        </use>
                        <path d="M-4,0h8" fill="none" stroke="white" stroke-width="1.5" pointer-events="none"/>
                </g>
                <g id="dirArrow">
                        <path fill="none" stroke="white" stroke-width="1.5" d="M0,-3.0v7 M-2.5,-0.5L0,-3.0L2.5,-0.5"/>
                </g>
               <g id="resetDef">
                       <use xlink:href="#rim2" fill="#404040">
                               <set attributeName="fill" to="#808080" begin="reset.mouseover" end="reset.mouseout"/>
                       </use>
               </g>
        </defs>

<script type="text/javascript">
var viewWidth = 947;
var viewHeight = 390;
var sectionId = 'dynsection-2';
</script>
<script xlink:href="../../svgpan.js"/>
<svg id="graph" class="graph">
<g id="viewport">
<title>CAsset::countTotalPriceOfAssets</title>
<!-- Node1 -->
<g id="node1" class="node">
<title>Node1</title>
<g id="a_node1"><a xlink:title=" ">
<polygon fill="#bfbfbf" stroke="#000000" points="0,-154 0,-188 158,-188 158,-154 0,-154"/>
<text text-anchor="start" x="8" y="-174.4" font-family="Helvetica,sans-Serif" font-size="12.00" fill="#000000">CAsset::countTotalPriceOf</text>
<text text-anchor="middle" x="79" y="-161.4" font-family="Helvetica,sans-Serif" font-size="12.00" fill="#000000">Assets</text>
</a>
</g>
</g>
<!-- Node2 -->
<g id="node2" class="node">
<title>Node2</title>
<g id="a_node2"><a xlink:href="../../d5/de1/classCDataBase.html#a05366b9fffcc574425739ec7007d59f1" target="_top" xlink:title="Method get and set data of Stocks to database in this program database are the files and relation wit...">
<polygon fill="none" stroke="#000000" points="194,-160.5 194,-181.5 353,-181.5 353,-160.5 194,-160.5"/>
<text text-anchor="middle" x="273.5" y="-167.9" font-family="Helvetica,sans-Serif" font-size="12.00" fill="#000000">CDataBase::inputForStock</text>
</a>
</g>
</g>
<!-- Node1&#45;&gt;Node2 -->
<g id="edge1" class="edge">
<title>Node1&#45;&gt;Node2</title>
<path fill="none" stroke="#191970" d="M158.1106,-171C166.577,-171 175.2336,-171 183.8112,-171"/>
<polygon fill="#191970" stroke="#191970" points="183.8282,-174.5001 193.8282,-171 183.8282,-167.5001 183.8282,-174.5001"/>
</g>
<!-- Node3 -->
<g id="node3" class="node">
<title>Node3</title>
<g id="a_node3"><a xlink:href="../../db/d52/classCRisk.html#aea7aecfae721440bbed175e109518464" target="_top" xlink:title="Method calculate matrix of covariance and variance for portfolio to help calculate risk of the portfo...">
<polygon fill="none" stroke="#000000" points="403.5,-221 403.5,-255 565.5,-255 565.5,-221 403.5,-221"/>
<text text-anchor="start" x="411.5" y="-241.4" font-family="Helvetica,sans-Serif" font-size="12.00" fill="#000000">CRisk::covarianceVariance</text>
<text text-anchor="middle" x="484.5" y="-228.4" font-family="Helvetica,sans-Serif" font-size="12.00" fill="#000000">Matrix</text>
</a>
</g>
</g>
<!-- Node2&#45;&gt;Node3 -->
<g id="edge2" class="edge">
<title>Node2&#45;&gt;Node3</title>
<path fill="none" stroke="#191970" d="M302.7772,-181.6646C326.0323,-190.0081 359.4429,-201.7122 389,-211 396.5958,-213.3869 404.5612,-215.7918 412.5152,-218.1305"/>
<polygon fill="#191970" stroke="#191970" points="411.6064,-221.5111 422.1861,-220.9447 413.5623,-214.7899 411.6064,-221.5111"/>
</g>
<!-- Node4 -->
<g id="node4" class="node">
<title>Node4</title>
<g id="a_node4"><a xlink:href="../../dc/d85/classCAsset.html#ab68c11feace8e8f4b9852404a458796c" target="_top" xlink:title="Method get data from database through the class CDataBase.">
<polygon fill="none" stroke="#000000" points="417.5,-180.5 417.5,-201.5 551.5,-201.5 551.5,-180.5 417.5,-180.5"/>
<text text-anchor="middle" x="484.5" y="-187.9" font-family="Helvetica,sans-Serif" font-size="12.00" fill="#000000">CAsset::getFromBase</text>
</a>
</g>
</g>
<!-- Node2&#45;&gt;Node4 -->
<g id="edge3" class="edge">
<title>Node2&#45;&gt;Node4</title>
<path fill="none" stroke="#191970" d="M353.2701,-178.5611C370.9276,-180.2348 389.6093,-182.0056 407.1678,-183.6699"/>
<polygon fill="#191970" stroke="#191970" points="407.0743,-187.1767 417.36,-184.636 407.7349,-180.2079 407.0743,-187.1767"/>
</g>
<!-- Node15 -->
<g id="node15" class="node">
<title>Node15</title>
<g id="a_node15"><a xlink:href="../../d5/de1/classCDataBase.html#a4d52b0dbf60c0295aea772711839332d" target="_top" xlink:title=" ">
<polygon fill="none" stroke="#000000" points="389,-140.5 389,-161.5 580,-161.5 580,-140.5 389,-140.5"/>
<text text-anchor="middle" x="484.5" y="-147.9" font-family="Helvetica,sans-Serif" font-size="12.00" fill="#000000">CDataBase::getMStrToItPortfolio</text>
</a>
</g>
</g>
<!-- Node2&#45;&gt;Node15 -->
<g id="edge14" class="edge">
<title>Node2&#45;&gt;Node15</title>
<path fill="none" stroke="#191970" d="M353.2701,-163.4389C361.5741,-162.6517 370.1047,-161.8432 378.6385,-161.0343"/>
<polygon fill="#191970" stroke="#191970" points="379.0193,-164.5139 388.6444,-160.0858 378.3587,-157.5452 379.0193,-164.5139"/>
</g>
<!-- Node16 -->
<g id="node16" class="node">
<title>Node16</title>
<g id="a_node16"><a xlink:href="../../dd/d09/classCReturn.html#a4ae6568cb0c834cce8f257e8a82966c3" target="_top" xlink:title="Method calculate portfolio which have the biggest return with the lowest risk.">
<polygon fill="none" stroke="#000000" points="409,-60.5 409,-81.5 560,-81.5 560,-60.5 409,-60.5"/>
<text text-anchor="middle" x="484.5" y="-67.9" font-family="Helvetica,sans-Serif" font-size="12.00" fill="#000000">CReturn::optimalPortfolio</text>
</a>
</g>
</g>
<!-- Node2&#45;&gt;Node16 -->
<g id="edge15" class="edge">
<title>Node2&#45;&gt;Node16</title>
<path fill="none" stroke="#191970" d="M295.6819,-160.4873C333.3568,-142.6318 409.9517,-106.331 453.1112,-85.8762"/>
<polygon fill="#191970" stroke="#191970" points="454.7611,-88.9675 462.2987,-81.5219 451.7632,-82.6419 454.7611,-88.9675"/>
</g>
<!-- Node5 -->
<g id="node5" class="node">
<title>Node5</title>
<g id="a_node5"><a xlink:href="../../d7/d8f/classCStock.html#ac29f9a8363a2388481e44526a0d4aa06" target="_top" xlink:title=" ">
<polygon fill="none" stroke="#000000" points="633,-360.5 633,-381.5 800,-381.5 800,-360.5 633,-360.5"/>
<text text-anchor="middle" x="716.5" y="-367.9" font-family="Helvetica,sans-Serif" font-size="12.00" fill="#000000">CStock::getMStrPathToAppl</text>
</a>
</g>
</g>
<!-- Node4&#45;&gt;Node5 -->
<g id="edge4" class="edge">
<title>Node4&#45;&gt;Node5</title>
<path fill="none" stroke="#191970" d="M551.8765,-195.9965C562.2965,-199.3788 572.1768,-204.4609 580,-212 625.9513,-256.2829 569.608,-307.1791 616,-351 618.4572,-353.321 621.1033,-355.4077 623.8967,-357.282"/>
<polygon fill="#191970" stroke="#191970" points="622.2565,-360.3758 632.677,-362.2899 625.7246,-354.2953 622.2565,-360.3758"/>
</g>
<!-- Node6 -->
<g id="node6" class="node">
<title>Node6</title>
<g id="a_node6"><a xlink:href="../../d7/d8f/classCStock.html#a71879b1e890394887791d3746cb7ef04" target="_top" xlink:title=" ">
<polygon fill="none" stroke="#000000" points="626,-320.5 626,-341.5 807,-341.5 807,-320.5 626,-320.5"/>
<text text-anchor="middle" x="716.5" y="-327.9" font-family="Helvetica,sans-Serif" font-size="12.00" fill="#000000">CStock::getMStrPathToGoogle</text>
</a>
</g>
</g>
<!-- Node4&#45;&gt;Node6 -->
<g id="edge5" class="edge">
<title>Node4&#45;&gt;Node6</title>
<path fill="none" stroke="#191970" d="M551.7765,-196.7964C562.0847,-200.1043 571.9542,-204.9541 580,-212 615.2222,-242.8448 580.471,-280.5092 616,-311 617.755,-312.5062 619.591,-313.9109 621.4951,-315.2207"/>
<polygon fill="#191970" stroke="#191970" points="619.8487,-318.313 630.241,-320.3749 623.4028,-312.2823 619.8487,-318.313"/>
</g>
<!-- Node7 -->
<g id="node7" class="node">
<title>Node7</title>
<g id="a_node7"><a xlink:href="../../d0/dc4/classCETF.html#af8e267a244a73e0ad7038f83b5ec26b0" target="_top" xlink:title=" ">
<polygon fill="none" stroke="#000000" points="641,-280.5 641,-301.5 792,-301.5 792,-280.5 641,-280.5"/>
<text text-anchor="middle" x="716.5" y="-287.9" font-family="Helvetica,sans-Serif" font-size="12.00" fill="#000000">CETF::getMStrPathToIxn</text>
</a>
</g>
</g>
<!-- Node4&#45;&gt;Node7 -->
<g id="edge6" class="edge">
<title>Node4&#45;&gt;Node7</title>
<path fill="none" stroke="#191970" d="M551.6438,-198.5226C561.7354,-201.6454 571.5702,-205.9858 580,-212 605.0063,-229.8406 590.8164,-253.4105 616,-271 620.8118,-274.3608 626.0526,-277.1876 631.5319,-279.5621"/>
<polygon fill="#191970" stroke="#191970" points="630.3536,-282.8585 640.9445,-283.1457 632.8443,-276.3166 630.3536,-282.8585"/>
</g>
<!-- Node8 -->
<g id="node8" class="node">
<title>Node8</title>
<g id="a_node8"><a xlink:href="../../d0/dc4/classCETF.html#a8d19cc867f54575686cf448a2d17af38" target="_top" xlink:title=" ">
<polygon fill="none" stroke="#000000" points="637.5,-240.5 637.5,-261.5 795.5,-261.5 795.5,-240.5 637.5,-240.5"/>
<text text-anchor="middle" x="716.5" y="-247.9" font-family="Helvetica,sans-Serif" font-size="12.00" fill="#000000">CETF::getMStrPathToQqq</text>
</a>
</g>
</g>
<!-- Node4&#45;&gt;Node8 -->
<g id="edge7" class="edge">
<title>Node4&#45;&gt;Node8</title>
<path fill="none" stroke="#191970" d="M544.3054,-201.5566C556.2963,-204.3944 568.6821,-207.8553 580,-212 596.9884,-218.2212 598.9502,-224.9491 616,-231 623.5687,-233.6861 631.5934,-236.0468 639.6777,-238.1133"/>
<polygon fill="#191970" stroke="#191970" points="639.0002,-241.5502 649.5419,-240.4903 640.6401,-234.745 639.0002,-241.5502"/>
</g>
<!-- Node9 -->
<g id="node9" class="node">
<title>Node9</title>
<g id="a_node9"><a xlink:href="../../d0/dc4/classCETF.html#a477bc0a30dca4ce9bf7a9a52e121324b" target="_top" xlink:title=" ">
<polygon fill="none" stroke="#000000" points="640.5,-200.5 640.5,-221.5 792.5,-221.5 792.5,-200.5 640.5,-200.5"/>
<text text-anchor="middle" x="716.5" y="-207.9" font-family="Helvetica,sans-Serif" font-size="12.00" fill="#000000">CETF::getMStrPathToXlk</text>
</a>
</g>
</g>
<!-- Node4&#45;&gt;Node9 -->
<g id="edge8" class="edge">
<title>Node4&#45;&gt;Node9</title>
<path fill="none" stroke="#191970" d="M551.604,-196.7848C576.0595,-198.8931 604.064,-201.3072 629.9686,-203.5404"/>
<polygon fill="#191970" stroke="#191970" points="629.8968,-207.0471 640.1604,-204.419 630.498,-200.073 629.8968,-207.0471"/>
</g>
<!-- Node10 -->
<g id="node10" class="node">
<title>Node10</title>
<g id="a_node10"><a xlink:href="../../d7/d8f/classCStock.html#a157bab205439811406e6aa5da0fcaddd" target="_top" xlink:title=" ">
<polygon fill="none" stroke="#000000" points="616,-160.5 616,-181.5 817,-181.5 817,-160.5 616,-160.5"/>
<text text-anchor="middle" x="716.5" y="-167.9" font-family="Helvetica,sans-Serif" font-size="12.00" fill="#000000">CStock::getMStrPathtToAmznDate</text>
</a>
</g>
</g>
<!-- Node4&#45;&gt;Node10 -->
<g id="edge9" class="edge">
<title>Node4&#45;&gt;Node10</title>
<path fill="none" stroke="#191970" d="M551.604,-185.2152C568.6197,-183.7483 587.3534,-182.1333 605.9026,-180.5343"/>
<polygon fill="#191970" stroke="#191970" points="606.2124,-184.0206 615.8748,-179.6746 605.6111,-177.0465 606.2124,-184.0206"/>
</g>
<!-- Node11 -->
<g id="node11" class="node">
<title>Node11</title>
<g id="a_node11"><a xlink:href="../../dc/d85/classCAsset.html#a48d22720b57dc24776a9023be661bff9" target="_top" xlink:title="Method calculate mean of one Asset.">
<polygon fill="none" stroke="#000000" points="649.5,-120.5 649.5,-141.5 783.5,-141.5 783.5,-120.5 649.5,-120.5"/>
<text text-anchor="middle" x="716.5" y="-127.9" font-family="Helvetica,sans-Serif" font-size="12.00" fill="#000000">CAsset::meanOfAsset</text>
</a>
</g>
</g>
<!-- Node4&#45;&gt;Node11 -->
<g id="edge10" class="edge">
<title>Node4&#45;&gt;Node11</title>
<path fill="none" stroke="#191970" d="M548.19,-180.4537C558.9659,-177.8803 569.9207,-174.7567 580,-171 597.1508,-164.6076 598.8175,-157.3066 616,-151 623.5394,-148.2328 631.5451,-145.8196 639.6181,-143.7216"/>
<polygon fill="#191970" stroke="#191970" points="640.5873,-147.0878 649.472,-141.3162 638.9273,-140.2875 640.5873,-147.0878"/>
</g>
<!-- Node12 -->
<g id="node12" class="node">
<title>Node12</title>
<g id="a_node12"><a xlink:href="../../dc/d85/classCAsset.html#aa855b3cfd867f9788d1cc0e5db7c3870" target="_top" xlink:title="Method return diffrence between vector of returns and double value of mean of return of Asset.">
<polygon fill="none" stroke="#000000" points="620.5,-80.5 620.5,-101.5 812.5,-101.5 812.5,-80.5 620.5,-80.5"/>
<text text-anchor="middle" x="716.5" y="-87.9" font-family="Helvetica,sans-Serif" font-size="12.00" fill="#000000">CAsset::returnAndMeanDiffrence</text>
</a>
</g>
</g>
<!-- Node4&#45;&gt;Node12 -->
<g id="edge11" class="edge">
<title>Node4&#45;&gt;Node12</title>
<path fill="none" stroke="#191970" d="M551.6619,-184.2929C561.7512,-181.2617 571.5806,-176.9905 580,-171 605.339,-152.971 590.5711,-128.902 616,-111 618.6912,-109.1054 621.5182,-107.3802 624.4474,-105.8098"/>
<polygon fill="#191970" stroke="#191970" points="625.9485,-108.9717 633.508,-101.5484 622.9693,-102.6373 625.9485,-108.9717"/>
</g>
<!-- Node13 -->
<g id="node13" class="node">
<title>Node13</title>
<g id="a_node13"><a xlink:href="../../dc/d85/classCAsset.html#a96031ecbece20a71af492b3cf5063f0b" target="_top" xlink:title="Method returns what is returns of one Asset in the setting period, get info for this from database.">
<polygon fill="none" stroke="#000000" points="649.5,-40.5 649.5,-61.5 783.5,-61.5 783.5,-40.5 649.5,-40.5"/>
<text text-anchor="middle" x="716.5" y="-47.9" font-family="Helvetica,sans-Serif" font-size="12.00" fill="#000000">CAsset::returnOfAsset</text>
</a>
</g>
</g>
<!-- Node4&#45;&gt;Node13 -->
<g id="edge12" class="edge">
<title>Node4&#45;&gt;Node13</title>
<path fill="none" stroke="#191970" d="M551.7653,-185.9793C562.0748,-182.7712 571.9476,-178.0035 580,-171 615.6421,-140.0008 580.2033,-101.8206 616,-71 622.9304,-65.033 631.1299,-60.656 639.8094,-57.471"/>
<polygon fill="#191970" stroke="#191970" points="640.8878,-60.8009 649.3786,-54.4639 638.7892,-54.1229 640.8878,-60.8009"/>
</g>
<!-- Node14 -->
<g id="node14" class="node">
<title>Node14</title>
<g id="a_node14"><a xlink:href="../../dc/d85/classCAsset.html#ae862a51b2a6ea0668c19a07f081e0b3c" target="_top" xlink:title="Method helps to set size of vector for next method returnOfAsset()">
<polygon fill="none" stroke="#000000" points="853,-40.5 853,-61.5 939,-61.5 939,-40.5 853,-40.5"/>
<text text-anchor="middle" x="896" y="-47.9" font-family="Helvetica,sans-Serif" font-size="12.00" fill="#000000">CAsset::slice</text>
</a>
</g>
</g>
<!-- Node13&#45;&gt;Node14 -->
<g id="edge13" class="edge">
<title>Node13&#45;&gt;Node14</title>
<path fill="none" stroke="#191970" d="M783.5944,-51C803.171,-51 824.2863,-51 842.8725,-51"/>
<polygon fill="#191970" stroke="#191970" points="842.9121,-54.5001 852.9121,-51 842.912,-47.5001 842.9121,-54.5001"/>
</g>
<!-- Node17 -->
<g id="node17" class="node">
<title>Node17</title>
<g id="a_node17"><a xlink:href="../../db/d52/classCRisk.html#a8742c21ca8a8034b4fe20b3676ab931b" target="_top" xlink:title="Method calculate risk of the portfolio &#45; standard deviation to help calculate std of portfolio taking...">
<polygon fill="none" stroke="#000000" points="658.5,-.5 658.5,-21.5 774.5,-21.5 774.5,-.5 658.5,-.5"/>
<text text-anchor="middle" x="716.5" y="-7.9" font-family="Helvetica,sans-Serif" font-size="12.00" fill="#000000">CRisk::portfolioStd</text>
</a>
</g>
</g>
<!-- Node16&#45;&gt;Node17 -->
<g id="edge16" class="edge">
<title>Node16&#45;&gt;Node17</title>
<path fill="none" stroke="#191970" d="M515.8743,-60.5C542.3637,-51.8661 581.3981,-39.683 616,-31 626.5027,-28.3644 637.6924,-25.8515 648.6488,-23.552"/>
<polygon fill="#191970" stroke="#191970" points="649.5283,-26.9445 658.6188,-21.5027 648.1189,-20.0878 649.5283,-26.9445"/>
</g>
</g>
</svg>
        <g id="navigator" transform="translate(0 0)" fill="#404254">
                <rect fill="#f2f5e9" fill-opacity="0.5" stroke="#606060" stroke-width=".5" x="0" y="0" width="60" height="60"/>
                <use id="zoomplus" xlink:href="#zoomPlus" x="17" y="9" onmousedown="handleZoom(evt,'in')"/>
                <use id="zoomminus" xlink:href="#zoomMin" x="42" y="9" onmousedown="handleZoom(evt,'out')"/>
                <use id="reset" xlink:href="#resetDef" x="30" y="36" onmousedown="handleReset()"/>
                <g id="arrowUp" xlink:href="#dirArrow" transform="translate(30 24)" onmousedown="handlePan(0,-1)">
                  <use xlink:href="#rim" fill="#404040">
                        <set attributeName="fill" to="#808080" begin="arrowUp.mouseover" end="arrowUp.mouseout"/>
                  </use>
                  <path fill="none" stroke="white" stroke-width="1.5" d="M0,-3.0v7 M-2.5,-0.5L0,-3.0L2.5,-0.5"/>
                </g>
                <g id="arrowRight" xlink:href="#dirArrow" transform="rotate(90) translate(36 -43)" onmousedown="handlePan(1,0)">
                  <use xlink:href="#rim" fill="#404040">
                        <set attributeName="fill" to="#808080" begin="arrowRight.mouseover" end="arrowRight.mouseout"/>
                  </use>
                  <path fill="none" stroke="white" stroke-width="1.5" d="M0,-3.0v7 M-2.5,-0.5L0,-3.0L2.5,-0.5"/>
                </g>
                <g id="arrowDown" xlink:href="#dirArrow" transform="rotate(180) translate(-30 -48)" onmousedown="handlePan(0,1)">
                  <use xlink:href="#rim" fill="#404040">
                        <set attributeName="fill" to="#808080" begin="arrowDown.mouseover" end="arrowDown.mouseout"/>
                  </use>
                  <path fill="none" stroke="white" stroke-width="1.5" d="M0,-3.0v7 M-2.5,-0.5L0,-3.0L2.5,-0.5"/>
                </g>
                <g id="arrowLeft" xlink:href="#dirArrow" transform="rotate(270) translate(-36 17)" onmousedown="handlePan(-1,0)">
                  <use xlink:href="#rim" fill="#404040">
                        <set attributeName="fill" to="#808080" begin="arrowLeft.mouseover" end="arrowLeft.mouseout"/>
                  </use>
                  <path fill="none" stroke="white" stroke-width="1.5" d="M0,-3.0v7 M-2.5,-0.5L0,-3.0L2.5,-0.5"/>
                </g>
        </g>
        <svg viewBox="0 0 15 15" width="100%" height="30px" preserveAspectRatio="xMaxYMin meet">
         <g id="arrow_out" transform="scale(0.3 0.3)">
          <a xlink:href="classCAsset_a88a8db3713a384a78007fe0ede5851d9_cgraph_org.svg" target="_base">
           <rect id="button" ry="5" rx="5" y="6" x="6" height="38" width="38"
                fill="#f2f5e9" fill-opacity="0.5" stroke="#606060" stroke-width="1.0"/>
           <path id="arrow"
             d="M 11.500037,31.436501 C 11.940474,20.09759 22.043105,11.32322 32.158766,21.979434 L 37.068811,17.246167 C 37.068811,17.246167 37.088388,32 37.088388,32 L 22.160133,31.978069 C 22.160133,31.978069 26.997745,27.140456 26.997745,27.140456 C 18.528582,18.264221 13.291696,25.230495 11.500037,31.436501 z"
             style="fill:#404040;"/>
          </a>
         </g>
        </svg>
</svg>
