<?xml version="1.0" encoding="UTF-8" standalone="no"?>
<!DOCTYPE svg PUBLIC "-//W3C//DTD SVG 1.1//EN"
 "http://www.w3.org/Graphics/SVG/1.1/DTD/svg11.dtd">
<!-- Generated by graphviz version 2.40.1 (20161225.0304)
 -->
<!-- Title: sources/CBroker.cpp Pages: 1 -->
<!--zoomable 320 -->
<svg id="main" version="1.1" xmlns="http://www.w3.org/2000/svg" xmlns:xlink="http://www.w3.org/1999/xlink" xml:space="preserve" onload="init(evt)">
<style type="text/css"><![CDATA[
.edge:hover path { stroke: red; }
.edge:hover polygon { stroke: red; fill: red; }
]]></style>
<script type="text/javascript"><![CDATA[
var edges = document.getElementsByTagName('g');
if (edges && edges.length) {
  for (var i=0;i<edges.length;i++) {
    if (edges[i].id.substr(0,4)=='edge') {
      edges[i].setAttribute('class','edge');
    }
  }
}
]]></script>
        <defs>
                <circle id="rim" cx="0" cy="0" r="7"/>
                <circle id="rim2" cx="0" cy="0" r="3.5"/>
                <g id="zoomPlus">
                        <use xlink:href="#rim" fill="#404040">
                                <set attributeName="fill" to="#808080" begin="zoomplus.mouseover" end="zoomplus.mouseout"/>
                        </use>
                        <path d="M-4,0h8M0,-4v8" fill="none" stroke="white" stroke-width="1.5" pointer-events="none"/>
                </g>
                <g id="zoomMin">
                        <use xlink:href="#rim" fill="#404040">
                                <set attributeName="fill" to="#808080" begin="zoomminus.mouseover" end="zoomminus.mouseout"/>
                        </use>
                        <path d="M-4,0h8" fill="none" stroke="white" stroke-width="1.5" pointer-events="none"/>
                </g>
                <g id="dirArrow">
                        <path fill="none" stroke="white" stroke-width="1.5" d="M0,-3.0v7 M-2.5,-0.5L0,-3.0L2.5,-0.5"/>
                </g>
               <g id="resetDef">
                       <use xlink:href="#rim2" fill="#404040">
                               <set attributeName="fill" to="#808080" begin="reset.mouseover" end="reset.mouseout"/>
                       </use>
               </g>
        </defs>

<script type="text/javascript">
var viewWidth = 647;
var viewHeight = 320;
var sectionId = 'dynsection-0';
</script>
<script xlink:href="../../svgpan.js"/>
<svg id="graph" class="graph">
<g id="viewport">
<title>sources/CBroker.cpp</title>
<!-- Node1 -->
<g id="node1" class="node">
<title>Node1</title>
<g id="a_node1"><a xlink:title=" ">
<polygon fill="#bfbfbf" stroke="#000000" points="411,-290.5 411,-311.5 539,-311.5 539,-290.5 411,-290.5"/>
<text text-anchor="middle" x="475" y="-297.9" font-family="Helvetica,sans-Serif" font-size="12.00" fill="#000000">sources/CBroker.cpp</text>
</a>
</g>
</g>
<!-- Node2 -->
<g id="node2" class="node">
<title>Node2</title>
<g id="a_node2"><a xlink:href="../../df/d1a/CBroker_8h.html" target="_top" xlink:title=" ">
<polygon fill="none" stroke="#000000" points="159,-232.5 159,-253.5 285,-253.5 285,-232.5 159,-232.5"/>
<text text-anchor="middle" x="222" y="-239.9" font-family="Helvetica,sans-Serif" font-size="12.00" fill="#000000">../headers/CBroker.h</text>
</a>
</g>
</g>
<!-- Node1&#45;&gt;Node2 -->
<g id="edge1" class="edge">
<title>Node1&#45;&gt;Node2</title>
<path fill="none" stroke="#191970" d="M429.1836,-290.4966C386.6879,-280.7545 323.343,-266.2328 277.8911,-255.813"/>
<polygon fill="#191970" stroke="#191970" points="278.4316,-252.3462 267.9023,-253.5231 276.8674,-259.1692 278.4316,-252.3462"/>
</g>
<!-- Node4 -->
<g id="node4" class="node">
<title>Node4</title>
<g id="a_node4"><a xlink:title=" ">
<polygon fill="none" stroke="#bfbfbf" points="0,-58.5 0,-79.5 46,-79.5 46,-58.5 0,-58.5"/>
<text text-anchor="middle" x="23" y="-65.9" font-family="Helvetica,sans-Serif" font-size="12.00" fill="#000000">string</text>
</a>
</g>
</g>
<!-- Node1&#45;&gt;Node4 -->
<g id="edge22" class="edge">
<title>Node1&#45;&gt;Node4</title>
<path fill="none" stroke="#191970" d="M410.9109,-296.0276C329.8132,-288.9996 195.2431,-274.6712 150,-254 85.9294,-224.7266 72.1325,-201.6711 42,-138 34.7026,-122.5804 29.7676,-103.8536 26.76,-89.8021"/>
<polygon fill="#191970" stroke="#191970" points="30.1325,-88.8154 24.7528,-79.688 23.2664,-90.1781 30.1325,-88.8154"/>
</g>
<!-- Node6 -->
<g id="node6" class="node">
<title>Node6</title>
<g id="a_node6"><a xlink:title=" ">
<polygon fill="none" stroke="#bfbfbf" points="267,-.5 267,-21.5 329,-21.5 329,-.5 267,-.5"/>
<text text-anchor="middle" x="298" y="-7.9" font-family="Helvetica,sans-Serif" font-size="12.00" fill="#000000">iostream</text>
</a>
</g>
</g>
<!-- Node1&#45;&gt;Node6 -->
<g id="edge21" class="edge">
<title>Node1&#45;&gt;Node6</title>
<path fill="none" stroke="#191970" d="M477.9688,-290.2216C483.3125,-269.841 494,-224.1819 494,-185 494,-185 494,-185 494,-127 494,-55.5685 396.3959,-27.1864 338.9417,-16.6673"/>
<polygon fill="#191970" stroke="#191970" points="339.5066,-13.2131 329.0568,-14.9603 338.3153,-20.111 339.5066,-13.2131"/>
</g>
<!-- Node7 -->
<g id="node7" class="node">
<title>Node7</title>
<g id="a_node7"><a xlink:title=" ">
<polygon fill="none" stroke="#bfbfbf" points="346,-58.5 346,-79.5 402,-79.5 402,-58.5 346,-58.5"/>
<text text-anchor="middle" x="374" y="-65.9" font-family="Helvetica,sans-Serif" font-size="12.00" fill="#000000">fstream</text>
</a>
</g>
</g>
<!-- Node1&#45;&gt;Node7 -->
<g id="edge23" class="edge">
<title>Node1&#45;&gt;Node7</title>
<path fill="none" stroke="#191970" d="M471.0728,-290.4111C460.3934,-261.8596 429.5707,-181.0506 399,-116 394.7054,-106.8617 389.5233,-96.9633 384.9933,-88.6179"/>
<polygon fill="#191970" stroke="#191970" points="387.9571,-86.7442 380.0672,-79.6731 381.8254,-90.121 387.9571,-86.7442"/>
</g>
<!-- Node13 -->
<g id="node13" class="node">
<title>Node13</title>
<g id="a_node13"><a xlink:title=" ">
<polygon fill="none" stroke="#bfbfbf" points="522.5,-232.5 522.5,-253.5 575.5,-253.5 575.5,-232.5 522.5,-232.5"/>
<text text-anchor="middle" x="549" y="-239.9" font-family="Helvetica,sans-Serif" font-size="12.00" fill="#000000">chrono</text>
</a>
</g>
</g>
<!-- Node1&#45;&gt;Node13 -->
<g id="edge24" class="edge">
<title>Node1&#45;&gt;Node13</title>
<path fill="none" stroke="#191970" d="M488.5727,-290.3619C499.4212,-281.859 514.8343,-269.7785 527.3785,-259.9466"/>
<polygon fill="#191970" stroke="#191970" points="529.8018,-262.4942 535.5133,-253.5707 525.4836,-256.9848 529.8018,-262.4942"/>
</g>
<!-- Node14 -->
<g id="node14" class="node">
<title>Node14</title>
<g id="a_node14"><a xlink:title=" ">
<polygon fill="none" stroke="#bfbfbf" points="593.5,-232.5 593.5,-253.5 638.5,-253.5 638.5,-232.5 593.5,-232.5"/>
<text text-anchor="middle" x="616" y="-239.9" font-family="Helvetica,sans-Serif" font-size="12.00" fill="#000000">ctime</text>
</a>
</g>
</g>
<!-- Node1&#45;&gt;Node14 -->
<g id="edge25" class="edge">
<title>Node1&#45;&gt;Node14</title>
<path fill="none" stroke="#191970" d="M500.534,-290.4966C523.9341,-280.8711 558.6772,-266.5796 583.9378,-256.1887"/>
<polygon fill="#191970" stroke="#191970" points="585.5307,-259.3181 593.4473,-252.277 582.8677,-252.8444 585.5307,-259.3181"/>
</g>
<!-- Node3 -->
<g id="node3" class="node">
<title>Node3</title>
<g id="a_node3"><a xlink:href="../../de/d98/CUser_8h.html" target="_top" xlink:title=" ">
<polygon fill="none" stroke="#000000" points="117.5,-174.5 117.5,-195.5 178.5,-195.5 178.5,-174.5 117.5,-174.5"/>
<text text-anchor="middle" x="148" y="-181.9" font-family="Helvetica,sans-Serif" font-size="12.00" fill="#000000">CUser.h</text>
</a>
</g>
</g>
<!-- Node2&#45;&gt;Node3 -->
<g id="edge2" class="edge">
<title>Node2&#45;&gt;Node3</title>
<path fill="none" stroke="#191970" d="M208.4273,-232.3619C197.5788,-223.859 182.1657,-211.7785 169.6215,-201.9466"/>
<polygon fill="#191970" stroke="#191970" points="171.5164,-198.9848 161.4867,-195.5707 167.1982,-204.4942 171.5164,-198.9848"/>
</g>
<!-- Node2&#45;&gt;Node4 -->
<g id="edge14" class="edge">
<title>Node2&#45;&gt;Node4</title>
<path fill="none" stroke="#191970" d="M180.6301,-232.4314C157.4804,-225.0161 129.1201,-213.2901 108,-196 71.5926,-166.1948 44.836,-116.7372 31.8309,-89.1591"/>
<polygon fill="#191970" stroke="#191970" points="34.8693,-87.387 27.5285,-79.7474 28.5029,-90.2973 34.8693,-87.387"/>
</g>
<!-- Node5 -->
<g id="node5" class="node">
<title>Node5</title>
<g id="a_node5"><a xlink:href="../../dd/d85/CDataBase_8h.html" target="_top" xlink:title=" ">
<polygon fill="none" stroke="#000000" points="177.5,-116.5 177.5,-137.5 266.5,-137.5 266.5,-116.5 177.5,-116.5"/>
<text text-anchor="middle" x="222" y="-123.9" font-family="Helvetica,sans-Serif" font-size="12.00" fill="#000000">CDataBase.h</text>
</a>
</g>
</g>
<!-- Node2&#45;&gt;Node5 -->
<g id="edge4" class="edge">
<title>Node2&#45;&gt;Node5</title>
<path fill="none" stroke="#191970" d="M222,-232.2949C222,-213.1314 222,-172.654 222,-147.8434"/>
<polygon fill="#191970" stroke="#191970" points="225.5001,-147.6792 222,-137.6792 218.5001,-147.6792 225.5001,-147.6792"/>
</g>
<!-- Node11 -->
<g id="node11" class="node">
<title>Node11</title>
<g id="a_node11"><a xlink:href="../../d7/d79/CAsset_8h.html" target="_top" xlink:title=" ">
<polygon fill="none" stroke="#000000" points="268.5,-174.5 268.5,-195.5 333.5,-195.5 333.5,-174.5 268.5,-174.5"/>
<text text-anchor="middle" x="301" y="-181.9" font-family="Helvetica,sans-Serif" font-size="12.00" fill="#000000">CAsset.h</text>
</a>
</g>
</g>
<!-- Node2&#45;&gt;Node11 -->
<g id="edge15" class="edge">
<title>Node2&#45;&gt;Node11</title>
<path fill="none" stroke="#191970" d="M236.4898,-232.3619C248.1827,-223.7773 264.8427,-211.5459 278.3031,-201.6636"/>
<polygon fill="#191970" stroke="#191970" points="280.6126,-204.31 286.602,-195.5707 276.4699,-198.6675 280.6126,-204.31"/>
</g>
<!-- Node3&#45;&gt;Node4 -->
<g id="edge3" class="edge">
<title>Node3&#45;&gt;Node4</title>
<path fill="none" stroke="#191970" d="M138.5786,-174.2844C126.134,-160.3378 103.2975,-135.4521 82,-116 70.4418,-105.4433 56.8143,-94.4982 45.5697,-85.8289"/>
<polygon fill="#191970" stroke="#191970" points="47.5846,-82.9639 37.5092,-79.6872 43.3421,-88.5319 47.5846,-82.9639"/>
</g>
<!-- Node5&#45;&gt;Node4 -->
<g id="edge6" class="edge">
<title>Node5&#45;&gt;Node4</title>
<path fill="none" stroke="#191970" d="M181.9963,-116.4264C150.1694,-107.8609 104.3027,-95.178 55.7612,-80.1288"/>
<polygon fill="#191970" stroke="#191970" points="56.6092,-76.727 46.0206,-77.0879 54.5232,-83.409 56.6092,-76.727"/>
</g>
<!-- Node5&#45;&gt;Node6 -->
<g id="edge5" class="edge">
<title>Node5&#45;&gt;Node6</title>
<path fill="none" stroke="#191970" d="M231.9544,-116.2853C240.256,-107.0627 252.1192,-93.1943 261,-80 271.627,-64.2113 281.6976,-45.0528 288.6414,-30.9337"/>
<polygon fill="#191970" stroke="#191970" points="291.9203,-32.1917 293.1083,-21.6636 285.6142,-29.153 291.9203,-32.1917"/>
</g>
<!-- Node5&#45;&gt;Node7 -->
<g id="edge7" class="edge">
<title>Node5&#45;&gt;Node7</title>
<path fill="none" stroke="#191970" d="M249.5261,-116.4966C273.9843,-107.1639 309.9381,-93.4447 336.9239,-83.1475"/>
<polygon fill="#191970" stroke="#191970" points="338.3272,-86.3582 346.4223,-79.5231 335.8316,-79.8182 338.3272,-86.3582"/>
</g>
<!-- Node8 -->
<g id="node8" class="node">
<title>Node8</title>
<g id="a_node8"><a xlink:title=" ">
<polygon fill="none" stroke="#bfbfbf" points="178.5,-.5 178.5,-21.5 227.5,-21.5 227.5,-.5 178.5,-.5"/>
<text text-anchor="middle" x="203" y="-7.9" font-family="Helvetica,sans-Serif" font-size="12.00" fill="#000000">vector</text>
</a>
</g>
</g>
<!-- Node5&#45;&gt;Node8 -->
<g id="edge8" class="edge">
<title>Node5&#45;&gt;Node8</title>
<path fill="none" stroke="#191970" d="M209.4967,-116.4898C200.2007,-107.8007 188.2547,-94.5614 183,-80 177.0836,-63.6049 183.5868,-44.5476 190.713,-30.6204"/>
<polygon fill="#191970" stroke="#191970" points="193.7677,-32.329 195.6012,-21.894 187.6605,-28.908 193.7677,-32.329"/>
</g>
<!-- Node9 -->
<g id="node9" class="node">
<title>Node9</title>
<g id="a_node9"><a xlink:href="../../d2/d92/CRisk_8h.html" target="_top" xlink:title=" ">
<polygon fill="none" stroke="#000000" points="192.5,-58.5 192.5,-79.5 251.5,-79.5 251.5,-58.5 192.5,-58.5"/>
<text text-anchor="middle" x="222" y="-65.9" font-family="Helvetica,sans-Serif" font-size="12.00" fill="#000000">CRisk.h</text>
</a>
</g>
</g>
<!-- Node5&#45;&gt;Node9 -->
<g id="edge9" class="edge">
<title>Node5&#45;&gt;Node9</title>
<path fill="none" stroke="#191970" d="M222,-116.3619C222,-108.9219 222,-98.7427 222,-89.7276"/>
<polygon fill="#191970" stroke="#191970" points="225.5001,-89.5706 222,-79.5707 218.5001,-89.5707 225.5001,-89.5706"/>
</g>
<!-- Node10 -->
<g id="node10" class="node">
<title>Node10</title>
<g id="a_node10"><a xlink:href="../../d3/d97/CReturn_8h.html" target="_top" xlink:title=" ">
<polygon fill="none" stroke="#000000" points="64.5,-58.5 64.5,-79.5 135.5,-79.5 135.5,-58.5 64.5,-58.5"/>
<text text-anchor="middle" x="100" y="-65.9" font-family="Helvetica,sans-Serif" font-size="12.00" fill="#000000">CReturn.h</text>
</a>
</g>
</g>
<!-- Node5&#45;&gt;Node10 -->
<g id="edge12" class="edge">
<title>Node5&#45;&gt;Node10</title>
<path fill="none" stroke="#191970" d="M199.9067,-116.4966C180.766,-107.397 152.8539,-94.1273 131.3947,-83.9253"/>
<polygon fill="#191970" stroke="#191970" points="132.8753,-80.7539 122.3412,-79.6212 129.8698,-87.0758 132.8753,-80.7539"/>
</g>
<!-- Node9&#45;&gt;Node6 -->
<g id="edge10" class="edge">
<title>Node9&#45;&gt;Node6</title>
<path fill="none" stroke="#191970" d="M235.9396,-58.3619C247.1884,-49.7773 263.2158,-37.5459 276.165,-27.6636"/>
<polygon fill="#191970" stroke="#191970" points="278.3226,-30.4198 284.1488,-21.5707 274.0759,-24.8551 278.3226,-30.4198"/>
</g>
<!-- Node9&#45;&gt;Node8 -->
<g id="edge11" class="edge">
<title>Node9&#45;&gt;Node8</title>
<path fill="none" stroke="#191970" d="M218.5151,-58.3619C216.0243,-50.7584 212.5963,-40.294 209.5959,-31.1349"/>
<polygon fill="#191970" stroke="#191970" points="212.902,-29.9841 206.4628,-21.5707 206.2499,-32.1634 212.902,-29.9841"/>
</g>
<!-- Node10&#45;&gt;Node8 -->
<g id="edge13" class="edge">
<title>Node10&#45;&gt;Node8</title>
<path fill="none" stroke="#191970" d="M118.8918,-58.3619C134.7177,-49.4502 157.5226,-36.6087 175.3947,-26.5447"/>
<polygon fill="#191970" stroke="#191970" points="177.2318,-29.5271 184.228,-21.5707 173.7971,-23.4276 177.2318,-29.5271"/>
</g>
<!-- Node11&#45;&gt;Node4 -->
<g id="edge17" class="edge">
<title>Node11&#45;&gt;Node4</title>
<path fill="none" stroke="#191970" d="M268.3923,-174.5359C241.2453,-165.5727 201.7228,-151.9376 168,-138 127.2596,-121.162 81.527,-98.7997 52.5128,-84.1617"/>
<polygon fill="#191970" stroke="#191970" points="53.8472,-80.9141 43.3454,-79.5128 50.6812,-87.1572 53.8472,-80.9141"/>
</g>
<!-- Node11&#45;&gt;Node5 -->
<g id="edge20" class="edge">
<title>Node11&#45;&gt;Node5</title>
<path fill="none" stroke="#191970" d="M286.5102,-174.3619C274.8173,-165.7773 258.1573,-153.5459 244.6969,-143.6636"/>
<polygon fill="#191970" stroke="#191970" points="246.5301,-140.6675 236.398,-137.5707 242.3874,-146.31 246.5301,-140.6675"/>
</g>
<!-- Node11&#45;&gt;Node6 -->
<g id="edge16" class="edge">
<title>Node11&#45;&gt;Node6</title>
<path fill="none" stroke="#191970" d="M333.5728,-177.4673C355.3369,-170.7397 382.84,-158.6588 399,-138 421.1517,-109.6814 430.9527,-87.9087 411,-58 395.0919,-34.1541 364.5675,-22.3885 339.2506,-16.5933"/>
<polygon fill="#191970" stroke="#191970" points="339.6335,-13.0991 329.1347,-14.5219 338.2293,-19.9569 339.6335,-13.0991"/>
</g>
<!-- Node11&#45;&gt;Node8 -->
<g id="edge18" class="edge">
<title>Node11&#45;&gt;Node8</title>
<path fill="none" stroke="#191970" d="M299.7356,-174.2243C296.5951,-151.1191 286.7476,-95.8417 261,-58 252.8309,-45.9938 240.7019,-35.4937 229.6443,-27.4815"/>
<polygon fill="#191970" stroke="#191970" points="231.3252,-24.3897 221.1021,-21.6079 227.3591,-30.1578 231.3252,-24.3897"/>
</g>
<!-- Node12 -->
<g id="node12" class="node">
<title>Node12</title>
<g id="a_node12"><a xlink:title=" ">
<polygon fill="none" stroke="#bfbfbf" points="346.5,-116.5 346.5,-137.5 389.5,-137.5 389.5,-116.5 346.5,-116.5"/>
<text text-anchor="middle" x="368" y="-123.9" font-family="Helvetica,sans-Serif" font-size="12.00" fill="#000000">tuple</text>
</a>
</g>
</g>
<!-- Node11&#45;&gt;Node12 -->
<g id="edge19" class="edge">
<title>Node11&#45;&gt;Node12</title>
<path fill="none" stroke="#191970" d="M313.2888,-174.3619C323.0167,-165.9408 336.7982,-154.0105 348.0955,-144.2308"/>
<polygon fill="#191970" stroke="#191970" points="350.5192,-146.7619 355.7891,-137.5707 345.9377,-141.4695 350.5192,-146.7619"/>
</g>
</g>
</svg>
        <g id="navigator" transform="translate(0 0)" fill="#404254">
                <rect fill="#f2f5e9" fill-opacity="0.5" stroke="#606060" stroke-width=".5" x="0" y="0" width="60" height="60"/>
                <use id="zoomplus" xlink:href="#zoomPlus" x="17" y="9" onmousedown="handleZoom(evt,'in')"/>
                <use id="zoomminus" xlink:href="#zoomMin" x="42" y="9" onmousedown="handleZoom(evt,'out')"/>
                <use id="reset" xlink:href="#resetDef" x="30" y="36" onmousedown="handleReset()"/>
                <g id="arrowUp" xlink:href="#dirArrow" transform="translate(30 24)" onmousedown="handlePan(0,-1)">
                  <use xlink:href="#rim" fill="#404040">
                        <set attributeName="fill" to="#808080" begin="arrowUp.mouseover" end="arrowUp.mouseout"/>
                  </use>
                  <path fill="none" stroke="white" stroke-width="1.5" d="M0,-3.0v7 M-2.5,-0.5L0,-3.0L2.5,-0.5"/>
                </g>
                <g id="arrowRight" xlink:href="#dirArrow" transform="rotate(90) translate(36 -43)" onmousedown="handlePan(1,0)">
                  <use xlink:href="#rim" fill="#404040">
                        <set attributeName="fill" to="#808080" begin="arrowRight.mouseover" end="arrowRight.mouseout"/>
                  </use>
                  <path fill="none" stroke="white" stroke-width="1.5" d="M0,-3.0v7 M-2.5,-0.5L0,-3.0L2.5,-0.5"/>
                </g>
                <g id="arrowDown" xlink:href="#dirArrow" transform="rotate(180) translate(-30 -48)" onmousedown="handlePan(0,1)">
                  <use xlink:href="#rim" fill="#404040">
                        <set attributeName="fill" to="#808080" begin="arrowDown.mouseover" end="arrowDown.mouseout"/>
                  </use>
                  <path fill="none" stroke="white" stroke-width="1.5" d="M0,-3.0v7 M-2.5,-0.5L0,-3.0L2.5,-0.5"/>
                </g>
                <g id="arrowLeft" xlink:href="#dirArrow" transform="rotate(270) translate(-36 17)" onmousedown="handlePan(-1,0)">
                  <use xlink:href="#rim" fill="#404040">
                        <set attributeName="fill" to="#808080" begin="arrowLeft.mouseover" end="arrowLeft.mouseout"/>
                  </use>
                  <path fill="none" stroke="white" stroke-width="1.5" d="M0,-3.0v7 M-2.5,-0.5L0,-3.0L2.5,-0.5"/>
                </g>
        </g>
        <svg viewBox="0 0 15 15" width="100%" height="30px" preserveAspectRatio="xMaxYMin meet">
         <g id="arrow_out" transform="scale(0.3 0.3)">
          <a xlink:href="CBroker_8cpp__incl_org.svg" target="_base">
           <rect id="button" ry="5" rx="5" y="6" x="6" height="38" width="38"
                fill="#f2f5e9" fill-opacity="0.5" stroke="#606060" stroke-width="1.0"/>
           <path id="arrow"
             d="M 11.500037,31.436501 C 11.940474,20.09759 22.043105,11.32322 32.158766,21.979434 L 37.068811,17.246167 C 37.068811,17.246167 37.088388,32 37.088388,32 L 22.160133,31.978069 C 22.160133,31.978069 26.997745,27.140456 26.997745,27.140456 C 18.528582,18.264221 13.291696,25.230495 11.500037,31.436501 z"
             style="fill:#404040;"/>
          </a>
         </g>
        </svg>
</svg>
