<?xml version="1.0" encoding="UTF-8" standalone="no"?>
<!DOCTYPE svg PUBLIC "-//W3C//DTD SVG 1.1//EN"
 "http://www.w3.org/Graphics/SVG/1.1/DTD/svg11.dtd">
<!-- Generated by graphviz version 2.40.1 (20161225.0304)
 -->
<!-- Title: headers/CBroker.h Pages: 1 -->
<!--zoomable 262 -->
<svg id="main" version="1.1" xmlns="http://www.w3.org/2000/svg" xmlns:xlink="http://www.w3.org/1999/xlink" xml:space="preserve" onload="init(evt)">
<style type="text/css"><![CDATA[
.edge:hover path { stroke: red; }
.edge:hover polygon { stroke: red; fill: red; }
]]></style>
<script type="text/javascript"><![CDATA[
var edges = document.getElementsByTagName('g');
if (edges && edges.length) {
  for (var i=0;i<edges.length;i++) {
    if (edges[i].id.substr(0,4)=='edge') {
      edges[i].setAttribute('class','edge');
    }
  }
}
]]></script>
        <defs>
                <circle id="rim" cx="0" cy="0" r="7"/>
                <circle id="rim2" cx="0" cy="0" r="3.5"/>
                <g id="zoomPlus">
                        <use xlink:href="#rim" fill="#404040">
                                <set attributeName="fill" to="#808080" begin="zoomplus.mouseover" end="zoomplus.mouseout"/>
                        </use>
                        <path d="M-4,0h8M0,-4v8" fill="none" stroke="white" stroke-width="1.5" pointer-events="none"/>
                </g>
                <g id="zoomMin">
                        <use xlink:href="#rim" fill="#404040">
                                <set attributeName="fill" to="#808080" begin="zoomminus.mouseover" end="zoomminus.mouseout"/>
                        </use>
                        <path d="M-4,0h8" fill="none" stroke="white" stroke-width="1.5" pointer-events="none"/>
                </g>
                <g id="dirArrow">
                        <path fill="none" stroke="white" stroke-width="1.5" d="M0,-3.0v7 M-2.5,-0.5L0,-3.0L2.5,-0.5"/>
                </g>
               <g id="resetDef">
                       <use xlink:href="#rim2" fill="#404040">
                               <set attributeName="fill" to="#808080" begin="reset.mouseover" end="reset.mouseout"/>
                       </use>
               </g>
        </defs>

<script type="text/javascript">
var viewWidth = 515;
var viewHeight = 262;
var sectionId = 'dynsection-0';
</script>
<script xlink:href="../../svgpan.js"/>
<svg id="graph" class="graph">
<g id="viewport">
<title>headers/CBroker.h</title>
<!-- Node1 -->
<g id="node1" class="node">
<title>Node1</title>
<g id="a_node1"><a xlink:title=" ">
<polygon fill="#bfbfbf" stroke="#000000" points="81,-232.5 81,-253.5 198,-253.5 198,-232.5 81,-232.5"/>
<text text-anchor="middle" x="139.5" y="-239.9" font-family="Helvetica,sans-Serif" font-size="12.00" fill="#000000">headers/CBroker.h</text>
</a>
</g>
</g>
<!-- Node2 -->
<g id="node2" class="node">
<title>Node2</title>
<g id="a_node2"><a xlink:href="../../de/d98/CUser_8h.html" target="_top" xlink:title=" ">
<polygon fill="none" stroke="#000000" points="0,-174.5 0,-195.5 61,-195.5 61,-174.5 0,-174.5"/>
<text text-anchor="middle" x="30.5" y="-181.9" font-family="Helvetica,sans-Serif" font-size="12.00" fill="#000000">CUser.h</text>
</a>
</g>
</g>
<!-- Node1&#45;&gt;Node2 -->
<g id="edge1" class="edge">
<title>Node1&#45;&gt;Node2</title>
<path fill="none" stroke="#191970" d="M119.7609,-232.4966C102.8899,-223.5194 78.3915,-210.4835 59.3262,-200.3387"/>
<polygon fill="#191970" stroke="#191970" points="60.9327,-197.2289 50.4606,-195.6212 57.6445,-203.4086 60.9327,-197.2289"/>
</g>
<!-- Node3 -->
<g id="node3" class="node">
<title>Node3</title>
<g id="a_node3"><a xlink:title=" ">
<polygon fill="none" stroke="#bfbfbf" points="79.5,-58.5 79.5,-79.5 125.5,-79.5 125.5,-58.5 79.5,-58.5"/>
<text text-anchor="middle" x="102.5" y="-65.9" font-family="Helvetica,sans-Serif" font-size="12.00" fill="#000000">string</text>
</a>
</g>
</g>
<!-- Node1&#45;&gt;Node3 -->
<g id="edge13" class="edge">
<title>Node1&#45;&gt;Node3</title>
<path fill="none" stroke="#191970" d="M137.2412,-232.3774C131.2435,-204.1719 114.8359,-127.0121 106.906,-89.7203"/>
<polygon fill="#191970" stroke="#191970" points="110.3272,-88.981 104.8237,-79.9277 103.4803,-90.437 110.3272,-88.981"/>
</g>
<!-- Node4 -->
<g id="node4" class="node">
<title>Node4</title>
<g id="a_node4"><a xlink:href="../../dd/d85/CDataBase_8h.html" target="_top" xlink:title=" ">
<polygon fill="none" stroke="#000000" points="255,-116.5 255,-137.5 344,-137.5 344,-116.5 255,-116.5"/>
<text text-anchor="middle" x="299.5" y="-123.9" font-family="Helvetica,sans-Serif" font-size="12.00" fill="#000000">CDataBase.h</text>
</a>
</g>
</g>
<!-- Node1&#45;&gt;Node4 -->
<g id="edge3" class="edge">
<title>Node1&#45;&gt;Node4</title>
<path fill="none" stroke="#191970" d="M166.0892,-232.3932C185.4535,-224.0141 211.8039,-211.2177 232.5,-196 252.2917,-181.4474 271.4638,-160.8318 284.1916,-145.9288"/>
<polygon fill="#191970" stroke="#191970" points="287.1711,-147.8214 290.8968,-137.9032 281.7992,-143.3333 287.1711,-147.8214"/>
</g>
<!-- Node10 -->
<g id="node10" class="node">
<title>Node10</title>
<g id="a_node10"><a xlink:href="../../d7/d79/CAsset_8h.html" target="_top" xlink:title=" ">
<polygon fill="none" stroke="#000000" points="158,-174.5 158,-195.5 223,-195.5 223,-174.5 158,-174.5"/>
<text text-anchor="middle" x="190.5" y="-181.9" font-family="Helvetica,sans-Serif" font-size="12.00" fill="#000000">CAsset.h</text>
</a>
</g>
</g>
<!-- Node1&#45;&gt;Node10 -->
<g id="edge14" class="edge">
<title>Node1&#45;&gt;Node10</title>
<path fill="none" stroke="#191970" d="M148.8542,-232.3619C156.0433,-224.1861 166.1409,-212.7025 174.5927,-203.0907"/>
<polygon fill="#191970" stroke="#191970" points="177.2301,-205.3916 181.2051,-195.5707 171.9733,-200.7692 177.2301,-205.3916"/>
</g>
<!-- Node2&#45;&gt;Node3 -->
<g id="edge2" class="edge">
<title>Node2&#45;&gt;Node3</title>
<path fill="none" stroke="#191970" d="M37.1445,-174.2949C49.307,-154.6998 75.3015,-112.8198 90.5882,-88.1913"/>
<polygon fill="#191970" stroke="#191970" points="93.5716,-90.0214 95.8715,-79.6792 87.6241,-86.3298 93.5716,-90.0214"/>
</g>
<!-- Node4&#45;&gt;Node3 -->
<g id="edge5" class="edge">
<title>Node4&#45;&gt;Node3</title>
<path fill="none" stroke="#191970" d="M263.8248,-116.4966C227.2928,-105.741 170.9729,-89.1595 135.4606,-78.7041"/>
<polygon fill="#191970" stroke="#191970" points="136.1728,-75.2653 125.5913,-75.7985 134.1957,-81.9803 136.1728,-75.2653"/>
</g>
<!-- Node5 -->
<g id="node5" class="node">
<title>Node5</title>
<g id="a_node5"><a xlink:title=" ">
<polygon fill="none" stroke="#bfbfbf" points="172.5,-.5 172.5,-21.5 234.5,-21.5 234.5,-.5 172.5,-.5"/>
<text text-anchor="middle" x="203.5" y="-7.9" font-family="Helvetica,sans-Serif" font-size="12.00" fill="#000000">iostream</text>
</a>
</g>
</g>
<!-- Node4&#45;&gt;Node5 -->
<g id="edge4" class="edge">
<title>Node4&#45;&gt;Node5</title>
<path fill="none" stroke="#191970" d="M272.7364,-116.4307C256.3067,-108.6565 236.0731,-96.5551 223.5,-80 212.9204,-66.0697 207.9301,-46.6931 205.5802,-32.0188"/>
<polygon fill="#191970" stroke="#191970" points="209.0214,-31.3412 204.2491,-21.882 202.0809,-32.2526 209.0214,-31.3412"/>
</g>
<!-- Node6 -->
<g id="node6" class="node">
<title>Node6</title>
<g id="a_node6"><a xlink:title=" ">
<polygon fill="none" stroke="#bfbfbf" points="309.5,-58.5 309.5,-79.5 365.5,-79.5 365.5,-58.5 309.5,-58.5"/>
<text text-anchor="middle" x="337.5" y="-65.9" font-family="Helvetica,sans-Serif" font-size="12.00" fill="#000000">fstream</text>
</a>
</g>
</g>
<!-- Node4&#45;&gt;Node6 -->
<g id="edge6" class="edge">
<title>Node4&#45;&gt;Node6</title>
<path fill="none" stroke="#191970" d="M306.4698,-116.3619C311.6657,-108.4313 318.9006,-97.3885 325.0775,-87.9606"/>
<polygon fill="#191970" stroke="#191970" points="328.0217,-89.8534 330.5744,-79.5707 322.1665,-86.0172 328.0217,-89.8534"/>
</g>
<!-- Node7 -->
<g id="node7" class="node">
<title>Node7</title>
<g id="a_node7"><a xlink:title=" ">
<polygon fill="none" stroke="#bfbfbf" points="401,-.5 401,-21.5 450,-21.5 450,-.5 401,-.5"/>
<text text-anchor="middle" x="425.5" y="-7.9" font-family="Helvetica,sans-Serif" font-size="12.00" fill="#000000">vector</text>
</a>
</g>
</g>
<!-- Node4&#45;&gt;Node7 -->
<g id="edge7" class="edge">
<title>Node4&#45;&gt;Node7</title>
<path fill="none" stroke="#191970" d="M321.0146,-116.3392C336.8651,-107.8462 358.3778,-94.9306 374.5,-80 390.2793,-65.387 404.4815,-45.3106 413.8668,-30.5808"/>
<polygon fill="#191970" stroke="#191970" points="417.0237,-32.1304 419.3068,-21.7845 411.0702,-28.4485 417.0237,-32.1304"/>
</g>
<!-- Node8 -->
<g id="node8" class="node">
<title>Node8</title>
<g id="a_node8"><a xlink:href="../../d2/d92/CRisk_8h.html" target="_top" xlink:title=" ">
<polygon fill="none" stroke="#000000" points="232,-58.5 232,-79.5 291,-79.5 291,-58.5 232,-58.5"/>
<text text-anchor="middle" x="261.5" y="-65.9" font-family="Helvetica,sans-Serif" font-size="12.00" fill="#000000">CRisk.h</text>
</a>
</g>
</g>
<!-- Node4&#45;&gt;Node8 -->
<g id="edge8" class="edge">
<title>Node4&#45;&gt;Node8</title>
<path fill="none" stroke="#191970" d="M292.5302,-116.3619C287.3343,-108.4313 280.0994,-97.3885 273.9225,-87.9606"/>
<polygon fill="#191970" stroke="#191970" points="276.8335,-86.0172 268.4256,-79.5707 270.9783,-89.8534 276.8335,-86.0172"/>
</g>
<!-- Node9 -->
<g id="node9" class="node">
<title>Node9</title>
<g id="a_node9"><a xlink:href="../../d3/d97/CReturn_8h.html" target="_top" xlink:title=" ">
<polygon fill="none" stroke="#000000" points="422,-58.5 422,-79.5 493,-79.5 493,-58.5 422,-58.5"/>
<text text-anchor="middle" x="457.5" y="-65.9" font-family="Helvetica,sans-Serif" font-size="12.00" fill="#000000">CReturn.h</text>
</a>
</g>
</g>
<!-- Node4&#45;&gt;Node9 -->
<g id="edge11" class="edge">
<title>Node4&#45;&gt;Node9</title>
<path fill="none" stroke="#191970" d="M328.1126,-116.4966C353.6479,-107.1229 391.2374,-93.3242 419.3289,-83.0122"/>
<polygon fill="#191970" stroke="#191970" points="420.6524,-86.2548 428.8337,-79.5231 418.2401,-79.6835 420.6524,-86.2548"/>
</g>
<!-- Node8&#45;&gt;Node5 -->
<g id="edge9" class="edge">
<title>Node8&#45;&gt;Node5</title>
<path fill="none" stroke="#191970" d="M250.8619,-58.3619C242.6043,-50.1043 230.9725,-38.4725 221.3029,-28.8029"/>
<polygon fill="#191970" stroke="#191970" points="223.6166,-26.1669 214.0707,-21.5707 218.6669,-31.1166 223.6166,-26.1669"/>
</g>
<!-- Node8&#45;&gt;Node7 -->
<g id="edge10" class="edge">
<title>Node8&#45;&gt;Node7</title>
<path fill="none" stroke="#191970" d="M291.1992,-58.4966C319.3955,-48.5247 361.7518,-33.5451 391.3353,-23.0826"/>
<polygon fill="#191970" stroke="#191970" points="392.5786,-26.3554 400.8394,-19.7214 390.2446,-19.756 392.5786,-26.3554"/>
</g>
<!-- Node9&#45;&gt;Node7 -->
<g id="edge12" class="edge">
<title>Node9&#45;&gt;Node7</title>
<path fill="none" stroke="#191970" d="M451.6307,-58.3619C447.3454,-50.5949 441.4131,-39.8426 436.2839,-30.5458"/>
<polygon fill="#191970" stroke="#191970" points="439.2274,-28.6357 431.3321,-21.5707 433.0984,-32.0172 439.2274,-28.6357"/>
</g>
<!-- Node10&#45;&gt;Node3 -->
<g id="edge16" class="edge">
<title>Node10&#45;&gt;Node3</title>
<path fill="none" stroke="#191970" d="M181.2814,-174.3598C173.2266,-164.9536 161.3185,-150.7806 151.5,-138 138.8709,-121.5609 125.2783,-102.2829 115.6206,-88.2888"/>
<polygon fill="#191970" stroke="#191970" points="118.4354,-86.2047 109.892,-79.9387 112.6632,-90.1648 118.4354,-86.2047"/>
</g>
<!-- Node10&#45;&gt;Node4 -->
<g id="edge19" class="edge">
<title>Node10&#45;&gt;Node4</title>
<path fill="none" stroke="#191970" d="M210.2391,-174.4966C227.1101,-165.5194 251.6085,-152.4835 270.6738,-142.3387"/>
<polygon fill="#191970" stroke="#191970" points="272.3555,-145.4086 279.5394,-137.6212 269.0673,-139.2289 272.3555,-145.4086"/>
</g>
<!-- Node10&#45;&gt;Node5 -->
<g id="edge15" class="edge">
<title>Node10&#45;&gt;Node5</title>
<path fill="none" stroke="#191970" d="M188.7266,-174.2101C187.2598,-164.7079 185.2933,-150.4782 184.5,-138 182.0974,-100.207 191.2483,-56.6532 197.6784,-31.6226"/>
<polygon fill="#191970" stroke="#191970" points="201.1012,-32.371 200.308,-21.8059 194.3396,-30.5598 201.1012,-32.371"/>
</g>
<!-- Node10&#45;&gt;Node7 -->
<g id="edge17" class="edge">
<title>Node10&#45;&gt;Node7</title>
<path fill="none" stroke="#191970" d="M223.0261,-179.1081C296.23,-165.1018 470.0782,-127.4121 502.5,-80 518.1801,-57.0702 486.7647,-36.6482 459.4629,-24.0813"/>
<polygon fill="#191970" stroke="#191970" points="460.6263,-20.7701 450.0615,-19.9726 457.823,-27.1844 460.6263,-20.7701"/>
</g>
<!-- Node11 -->
<g id="node11" class="node">
<title>Node11</title>
<g id="a_node11"><a xlink:title=" ">
<polygon fill="none" stroke="#bfbfbf" points="194,-116.5 194,-137.5 237,-137.5 237,-116.5 194,-116.5"/>
<text text-anchor="middle" x="215.5" y="-123.9" font-family="Helvetica,sans-Serif" font-size="12.00" fill="#000000">tuple</text>
</a>
</g>
</g>
<!-- Node10&#45;&gt;Node11 -->
<g id="edge18" class="edge">
<title>Node10&#45;&gt;Node11</title>
<path fill="none" stroke="#191970" d="M195.0854,-174.3619C198.398,-166.6766 202.9704,-156.0686 206.9483,-146.8399"/>
<polygon fill="#191970" stroke="#191970" points="210.1995,-148.1393 210.9437,-137.5707 203.7712,-145.3685 210.1995,-148.1393"/>
</g>
</g>
</svg>
        <g id="navigator" transform="translate(0 0)" fill="#404254">
                <rect fill="#f2f5e9" fill-opacity="0.5" stroke="#606060" stroke-width=".5" x="0" y="0" width="60" height="60"/>
                <use id="zoomplus" xlink:href="#zoomPlus" x="17" y="9" onmousedown="handleZoom(evt,'in')"/>
                <use id="zoomminus" xlink:href="#zoomMin" x="42" y="9" onmousedown="handleZoom(evt,'out')"/>
                <use id="reset" xlink:href="#resetDef" x="30" y="36" onmousedown="handleReset()"/>
                <g id="arrowUp" xlink:href="#dirArrow" transform="translate(30 24)" onmousedown="handlePan(0,-1)">
                  <use xlink:href="#rim" fill="#404040">
                        <set attributeName="fill" to="#808080" begin="arrowUp.mouseover" end="arrowUp.mouseout"/>
                  </use>
                  <path fill="none" stroke="white" stroke-width="1.5" d="M0,-3.0v7 M-2.5,-0.5L0,-3.0L2.5,-0.5"/>
                </g>
                <g id="arrowRight" xlink:href="#dirArrow" transform="rotate(90) translate(36 -43)" onmousedown="handlePan(1,0)">
                  <use xlink:href="#rim" fill="#404040">
                        <set attributeName="fill" to="#808080" begin="arrowRight.mouseover" end="arrowRight.mouseout"/>
                  </use>
                  <path fill="none" stroke="white" stroke-width="1.5" d="M0,-3.0v7 M-2.5,-0.5L0,-3.0L2.5,-0.5"/>
                </g>
                <g id="arrowDown" xlink:href="#dirArrow" transform="rotate(180) translate(-30 -48)" onmousedown="handlePan(0,1)">
                  <use xlink:href="#rim" fill="#404040">
                        <set attributeName="fill" to="#808080" begin="arrowDown.mouseover" end="arrowDown.mouseout"/>
                  </use>
                  <path fill="none" stroke="white" stroke-width="1.5" d="M0,-3.0v7 M-2.5,-0.5L0,-3.0L2.5,-0.5"/>
                </g>
                <g id="arrowLeft" xlink:href="#dirArrow" transform="rotate(270) translate(-36 17)" onmousedown="handlePan(-1,0)">
                  <use xlink:href="#rim" fill="#404040">
                        <set attributeName="fill" to="#808080" begin="arrowLeft.mouseover" end="arrowLeft.mouseout"/>
                  </use>
                  <path fill="none" stroke="white" stroke-width="1.5" d="M0,-3.0v7 M-2.5,-0.5L0,-3.0L2.5,-0.5"/>
                </g>
        </g>
        <svg viewBox="0 0 15 15" width="100%" height="30px" preserveAspectRatio="xMaxYMin meet">
         <g id="arrow_out" transform="scale(0.3 0.3)">
          <a xlink:href="CBroker_8h__incl_org.svg" target="_base">
           <rect id="button" ry="5" rx="5" y="6" x="6" height="38" width="38"
                fill="#f2f5e9" fill-opacity="0.5" stroke="#606060" stroke-width="1.0"/>
           <path id="arrow"
             d="M 11.500037,31.436501 C 11.940474,20.09759 22.043105,11.32322 32.158766,21.979434 L 37.068811,17.246167 C 37.068811,17.246167 37.088388,32 37.088388,32 L 22.160133,31.978069 C 22.160133,31.978069 26.997745,27.140456 26.997745,27.140456 C 18.528582,18.264221 13.291696,25.230495 11.500037,31.436501 z"
             style="fill:#404040;"/>
          </a>
         </g>
        </svg>
</svg>
