<?xml version="1.0" encoding="UTF-8" standalone="no"?>
<!DOCTYPE svg PUBLIC "-//W3C//DTD SVG 1.1//EN"
 "http://www.w3.org/Graphics/SVG/1.1/DTD/svg11.dtd">
<!-- Generated by graphviz version 2.40.1 (20161225.0304)
 -->
<!-- Title: CDataBase::inputForStock Pages: 1 -->
<svg width="1332pt" height="146pt"
 viewBox="0.00 0.00 1332.00 146.00" xmlns="http://www.w3.org/2000/svg" xmlns:xlink="http://www.w3.org/1999/xlink">
<g id="graph0" class="graph" transform="scale(1 1) rotate(0) translate(4 142)">
<title>CDataBase::inputForStock</title>
<!-- Node1 -->
<g id="node1" class="node">
<title>Node1</title>
<g id="a_node1"><a xlink:title="Method get and set data of Stocks to database in this program database are the files and relation wit...">
<polygon fill="#bfbfbf" stroke="#000000" points="1165,-58.5 1165,-79.5 1324,-79.5 1324,-58.5 1165,-58.5"/>
<text text-anchor="middle" x="1244.5" y="-65.9" font-family="Helvetica,sans-Serif" font-size="12.00" fill="#000000">CDataBase::inputForStock</text>
</a>
</g>
</g>
<!-- Node2 -->
<g id="node2" class="node">
<title>Node2</title>
<g id="a_node2"><a xlink:href="../../d5/de1/classCDataBase.html#aa61685a913b467ab78f3a52823f15339" target="_top" xlink:title=" ">
<polygon fill="none" stroke="#000000" points="961,-116.5 961,-137.5 1129,-137.5 1129,-116.5 961,-116.5"/>
<text text-anchor="middle" x="1045" y="-123.9" font-family="Helvetica,sans-Serif" font-size="12.00" fill="#000000">CDataBase::choosePortfolio</text>
</a>
</g>
</g>
<!-- Node1&#45;&gt;Node2 -->
<g id="edge1" class="edge">
<title>Node1&#45;&gt;Node2</title>
<path fill="none" stroke="#191970" d="M1198.6822,-82.3205C1163.0043,-92.693 1114.1638,-106.8922 1081.1957,-116.4769"/>
<polygon fill="#191970" stroke="#191970" points="1199.7467,-85.656 1208.3721,-79.5034 1197.7925,-78.9343 1199.7467,-85.656"/>
</g>
<!-- Node3 -->
<g id="node3" class="node">
<title>Node3</title>
<g id="a_node3"><a xlink:href="../../da/d8b/classCAdministrator.html#a834db63b1ee3b716b1e8e97a101e51de" target="_top" xlink:title="Method with while loop, switch expression and fstream library to register the administrator and can g...">
<polygon fill="none" stroke="#000000" points="79,-39.5 79,-60.5 315,-60.5 315,-39.5 79,-39.5"/>
<text text-anchor="middle" x="197" y="-46.9" font-family="Helvetica,sans-Serif" font-size="12.00" fill="#000000">CAdministrator::createAdministratorMenu</text>
</a>
</g>
</g>
<!-- Node1&#45;&gt;Node3 -->
<g id="edge2" class="edge">
<title>Node1&#45;&gt;Node3</title>
<path fill="none" stroke="#191970" d="M1154.3753,-62.1329C1075.1648,-56.692 956.7539,-50 853.5,-50 853.5,-50 853.5,-50 649,-50 535.6076,-50 406.2141,-50 315.0109,-50"/>
<polygon fill="#191970" stroke="#191970" points="1154.5839,-65.6558 1164.8025,-62.8575 1155.0692,-58.6726 1154.5839,-65.6558"/>
</g>
<!-- Node5 -->
<g id="node5" class="node">
<title>Node5</title>
<g id="a_node5"><a xlink:href="../../db/da6/classCBroker.html#abce158f7c4dce747c076db9e7d1cdf52" target="_top" xlink:title="This function create Broker menu through this you can register, change info about Broker.">
<polygon fill="none" stroke="#000000" points="351,-78.5 351,-99.5 516,-99.5 516,-78.5 351,-78.5"/>
<text text-anchor="middle" x="433.5" y="-85.9" font-family="Helvetica,sans-Serif" font-size="12.00" fill="#000000">CBroker::createBrokerMenu</text>
</a>
</g>
</g>
<!-- Node1&#45;&gt;Node5 -->
<g id="edge5" class="edge">
<title>Node1&#45;&gt;Node5</title>
<path fill="none" stroke="#191970" d="M1154.7042,-71.2144C996.3084,-75.1206 669.5624,-83.1785 516.2892,-86.9583"/>
<polygon fill="#191970" stroke="#191970" points="1154.9797,-74.7088 1164.8903,-70.9632 1154.8071,-67.7109 1154.9797,-74.7088"/>
</g>
<!-- Node6 -->
<g id="node6" class="node">
<title>Node6</title>
<g id="a_node6"><a xlink:href="../../d7/d8f/classCStock.html#a0ef2eda44098e896ddb09d5d4629d7aa" target="_top" xlink:title="Method gets and sets all info about stock using switch statement, case, if, else if,...">
<polygon fill="none" stroke="#000000" points="990.5,-.5 990.5,-21.5 1099.5,-21.5 1099.5,-.5 990.5,-.5"/>
<text text-anchor="middle" x="1045" y="-7.9" font-family="Helvetica,sans-Serif" font-size="12.00" fill="#000000">CStock::stockInfo</text>
</a>
</g>
</g>
<!-- Node1&#45;&gt;Node6 -->
<g id="edge8" class="edge">
<title>Node1&#45;&gt;Node6</title>
<path fill="none" stroke="#191970" d="M1198.6822,-55.6795C1163.0043,-45.307 1114.1638,-31.1078 1081.1957,-21.5231"/>
<polygon fill="#191970" stroke="#191970" points="1197.7925,-59.0657 1208.3721,-58.4966 1199.7467,-52.344 1197.7925,-59.0657"/>
</g>
<!-- Node3&#45;&gt;Node3 -->
<g id="edge3" class="edge">
<title>Node3&#45;&gt;Node3</title>
<path fill="none" stroke="#191970" d="M229.3758,-69.6791C227.6409,-74.9746 216.849,-79 197,-79 166.7539,-79 157.5383,-69.6531 169.3532,-60.7079"/>
<polygon fill="#191970" stroke="#191970" points="232.4061,-67.922 224.6468,-60.7079 226.2138,-71.1862 232.4061,-67.922"/>
</g>
<!-- Node4 -->
<g id="node4" class="node">
<title>Node4</title>
<g id="a_node4"><a xlink:href="../../df/d0a/main_8cpp.html#ae66f6b31b5ad750f1fe042a706a4e3d4" target="_top" xlink:title=" ">
<polygon fill="none" stroke="#000000" points="0,-39.5 0,-60.5 43,-60.5 43,-39.5 0,-39.5"/>
<text text-anchor="middle" x="21.5" y="-46.9" font-family="Helvetica,sans-Serif" font-size="12.00" fill="#000000">main</text>
</a>
</g>
</g>
<!-- Node3&#45;&gt;Node4 -->
<g id="edge4" class="edge">
<title>Node3&#45;&gt;Node4</title>
<path fill="none" stroke="#191970" d="M68.7546,-50C59.2156,-50 50.4943,-50 43.2123,-50"/>
<polygon fill="#191970" stroke="#191970" points="68.9653,-53.5001 78.9653,-50 68.9652,-46.5001 68.9653,-53.5001"/>
</g>
<!-- Node5&#45;&gt;Node3 -->
<g id="edge6" class="edge">
<title>Node5&#45;&gt;Node3</title>
<path fill="none" stroke="#191970" d="M359.7074,-76.8312C328.0039,-71.6032 291.3104,-65.5522 260.8025,-60.5213"/>
<polygon fill="#191970" stroke="#191970" points="359.375,-80.3236 369.8112,-78.4974 360.514,-73.4169 359.375,-80.3236"/>
</g>
<!-- Node5&#45;&gt;Node4 -->
<g id="edge7" class="edge">
<title>Node5&#45;&gt;Node4</title>
<path fill="none" stroke="#191970" d="M360.0863,-100.8238C287.1114,-109.8115 172.8281,-116.3473 79,-88 61.3604,-82.6707 44.1355,-70.0019 33.2097,-60.7525"/>
<polygon fill="#191970" stroke="#191970" points="360.6276,-104.2831 370.1028,-99.5427 359.7395,-97.3397 360.6276,-104.2831"/>
</g>
<!-- Node7 -->
<g id="node7" class="node">
<title>Node7</title>
<g id="a_node7"><a xlink:href="../../d9/d52/classCPortfolio.html#a1253d72b078e2ad23e28744f232a078a" target="_top" xlink:title="Mehtod set and get all information about the portfolios.">
<polygon fill="none" stroke="#000000" points="782,-.5 782,-21.5 925,-21.5 925,-.5 782,-.5"/>
<text text-anchor="middle" x="853.5" y="-7.9" font-family="Helvetica,sans-Serif" font-size="12.00" fill="#000000">CPortfolio::userPortfolio</text>
</a>
</g>
</g>
<!-- Node6&#45;&gt;Node7 -->
<g id="edge9" class="edge">
<title>Node6&#45;&gt;Node7</title>
<path fill="none" stroke="#191970" d="M980.1427,-11C962.4084,-11 943.0905,-11 925.0075,-11"/>
<polygon fill="#191970" stroke="#191970" points="980.3801,-14.5001 990.3801,-11 980.38,-7.5001 980.3801,-14.5001"/>
</g>
<!-- Node8 -->
<g id="node8" class="node">
<title>Node8</title>
<g id="a_node8"><a xlink:href="../../d1/d60/classCMyHolding.html#a2da746680d2dd9d7af60d49719b0fd37" target="_top" xlink:title="Method set and gets all information about holding of Client.">
<polygon fill="none" stroke="#000000" points="552,-.5 552,-21.5 746,-21.5 746,-.5 552,-.5"/>
<text text-anchor="middle" x="649" y="-7.9" font-family="Helvetica,sans-Serif" font-size="12.00" fill="#000000">CMyHolding::createHoldingMenu</text>
</a>
</g>
</g>
<!-- Node7&#45;&gt;Node8 -->
<g id="edge10" class="edge">
<title>Node7&#45;&gt;Node8</title>
<path fill="none" stroke="#191970" d="M771.7576,-11C763.2874,-11 754.6213,-11 746.0051,-11"/>
<polygon fill="#191970" stroke="#191970" points="771.9759,-14.5001 781.9758,-11 771.9758,-7.5001 771.9759,-14.5001"/>
</g>
<!-- Node9 -->
<g id="node9" class="node">
<title>Node9</title>
<g id="a_node9"><a xlink:href="../../df/da7/classCClient.html#a1cb513868f3ae0f1130528cdaeb3fb26" target="_top" xlink:title="Method create Client menu through which you can set and get data for Client.">
<polygon fill="none" stroke="#000000" points="354.5,-.5 354.5,-21.5 512.5,-21.5 512.5,-.5 354.5,-.5"/>
<text text-anchor="middle" x="433.5" y="-7.9" font-family="Helvetica,sans-Serif" font-size="12.00" fill="#000000">CClient::createClientMenu</text>
</a>
</g>
</g>
<!-- Node8&#45;&gt;Node9 -->
<g id="edge11" class="edge">
<title>Node8&#45;&gt;Node9</title>
<path fill="none" stroke="#191970" d="M541.7418,-11C531.9146,-11 522.0819,-11 512.5707,-11"/>
<polygon fill="#191970" stroke="#191970" points="541.9672,-14.5001 551.9671,-11 541.9671,-7.5001 541.9672,-14.5001"/>
</g>
<!-- Node9&#45;&gt;Node3 -->
<g id="edge12" class="edge">
<title>Node9&#45;&gt;Node3</title>
<path fill="none" stroke="#191970" d="M359.7074,-23.1688C328.0039,-28.3968 291.3104,-34.4478 260.8025,-39.4787"/>
<polygon fill="#191970" stroke="#191970" points="360.514,-26.5831 369.8112,-21.5026 359.375,-19.6764 360.514,-26.5831"/>
</g>
<!-- Node9&#45;&gt;Node4 -->
<g id="edge13" class="edge">
<title>Node9&#45;&gt;Node4</title>
<path fill="none" stroke="#191970" d="M343.8042,-8.894C271.619,-8.8496 167.911,-12.5185 79,-30 66.8663,-32.3857 53.8131,-36.7683 43.2153,-40.8241"/>
<polygon fill="#191970" stroke="#191970" points="344.2094,-12.3951 354.2203,-8.9262 344.2312,-5.3952 344.2094,-12.3951"/>
</g>
</g>
</svg>
