<?xml version="1.0" encoding="UTF-8" standalone="no"?>
<!DOCTYPE svg PUBLIC "-//W3C//DTD SVG 1.1//EN"
 "http://www.w3.org/Graphics/SVG/1.1/DTD/svg11.dtd">
<!-- Generated by graphviz version 2.40.1 (20161225.0304)
 -->
<!-- Title: CDataBase::inputForStock Pages: 1 -->
<svg width="873pt" height="148pt"
 viewBox="0.00 0.00 873.00 148.00" xmlns="http://www.w3.org/2000/svg" xmlns:xlink="http://www.w3.org/1999/xlink">
<g id="graph0" class="graph" transform="scale(1 1) rotate(0) translate(4 144)">
<title>CDataBase::inputForStock</title>
<!-- Node1 -->
<g id="node1" class="node">
<title>Node1</title>
<g id="a_node1"><a xlink:title="Method get and set data of Stocks to database in this program database are the files and relation wit...">
<polygon fill="#bfbfbf" stroke="#000000" points="706,-59.5 706,-80.5 865,-80.5 865,-59.5 706,-59.5"/>
<text text-anchor="middle" x="785.5" y="-66.9" font-family="Helvetica,sans-Serif" font-size="12.00" fill="#000000">CDataBase::inputForStock</text>
</a>
</g>
</g>
<!-- Node2 -->
<g id="node2" class="node">
<title>Node2</title>
<g id="a_node2"><a xlink:href="../../d5/de1/classCDataBase.html#aa61685a913b467ab78f3a52823f15339" target="_top" xlink:title=" ">
<polygon fill="none" stroke="#000000" points="502,-118.5 502,-139.5 670,-139.5 670,-118.5 502,-118.5"/>
<text text-anchor="middle" x="586" y="-125.9" font-family="Helvetica,sans-Serif" font-size="12.00" fill="#000000">CDataBase::choosePortfolio</text>
</a>
</g>
</g>
<!-- Node1&#45;&gt;Node2 -->
<g id="edge1" class="edge">
<title>Node1&#45;&gt;Node2</title>
<path fill="none" stroke="#191970" d="M740.0925,-83.4288C704.1984,-94.0441 654.7922,-108.6554 621.6936,-118.444"/>
<polygon fill="#191970" stroke="#191970" points="741.2366,-86.7404 749.8334,-80.548 739.2513,-80.0278 741.2366,-86.7404"/>
</g>
<!-- Node3 -->
<g id="node3" class="node">
<title>Node3</title>
<g id="a_node3"><a xlink:href="../../da/d8b/classCAdministrator.html#a834db63b1ee3b716b1e8e97a101e51de" target="_top" xlink:title="Method with while loop, switch expression and fstream library to register the administrator and can g...">
<polygon fill="none" stroke="#000000" points="230,-79.5 230,-100.5 466,-100.5 466,-79.5 230,-79.5"/>
<text text-anchor="middle" x="348" y="-86.9" font-family="Helvetica,sans-Serif" font-size="12.00" fill="#000000">CAdministrator::createAdministratorMenu</text>
</a>
</g>
</g>
<!-- Node1&#45;&gt;Node3 -->
<g id="edge2" class="edge">
<title>Node1&#45;&gt;Node3</title>
<path fill="none" stroke="#191970" d="M695.7563,-74.1026C629.4699,-77.1328 538.5931,-81.2872 466.3628,-84.5891"/>
<polygon fill="#191970" stroke="#191970" points="695.9348,-77.5982 705.7645,-73.6451 695.615,-70.6055 695.9348,-77.5982"/>
</g>
<!-- Node5 -->
<g id="node5" class="node">
<title>Node5</title>
<g id="a_node5"><a xlink:href="../../db/da6/classCBroker.html#abce158f7c4dce747c076db9e7d1cdf52" target="_top" xlink:title="This function create Broker menu through this you can register, change info about Broker.">
<polygon fill="none" stroke="#000000" points="503.5,-40.5 503.5,-61.5 668.5,-61.5 668.5,-40.5 503.5,-40.5"/>
<text text-anchor="middle" x="586" y="-47.9" font-family="Helvetica,sans-Serif" font-size="12.00" fill="#000000">CBroker::createBrokerMenu</text>
</a>
</g>
</g>
<!-- Node1&#45;&gt;Node5 -->
<g id="edge5" class="edge">
<title>Node1&#45;&gt;Node5</title>
<path fill="none" stroke="#191970" d="M695.6532,-61.4432C686.6176,-60.5826 677.4725,-59.7117 668.5185,-58.8589"/>
<polygon fill="#191970" stroke="#191970" points="695.5054,-64.9448 705.7922,-62.4088 696.1691,-57.9764 695.5054,-64.9448"/>
</g>
<!-- Node6 -->
<g id="node6" class="node">
<title>Node6</title>
<g id="a_node6"><a xlink:href="../../d7/d8f/classCStock.html#a0ef2eda44098e896ddb09d5d4629d7aa" target="_top" xlink:title="Method gets and sets all info about stock using switch statement, case, if, else if,...">
<polygon fill="none" stroke="#000000" points="531.5,-.5 531.5,-21.5 640.5,-21.5 640.5,-.5 531.5,-.5"/>
<text text-anchor="middle" x="586" y="-7.9" font-family="Helvetica,sans-Serif" font-size="12.00" fill="#000000">CStock::stockInfo</text>
</a>
</g>
</g>
<!-- Node1&#45;&gt;Node6 -->
<g id="edge8" class="edge">
<title>Node1&#45;&gt;Node6</title>
<path fill="none" stroke="#191970" d="M747.3049,-56.1183C724.9356,-48.2363 696.048,-38.4815 670,-31 658.3292,-27.6479 645.6343,-24.4148 633.7318,-21.5609"/>
<polygon fill="#191970" stroke="#191970" points="746.1823,-59.4338 756.7771,-59.481 748.5242,-52.8371 746.1823,-59.4338"/>
</g>
<!-- Node3&#45;&gt;Node3 -->
<g id="edge3" class="edge">
<title>Node3&#45;&gt;Node3</title>
<path fill="none" stroke="#191970" d="M392.6238,-108.032C392.7771,-114.117 377.9025,-119 348,-119 306.3965,-119 293.8829,-109.5478 310.4593,-100.5571"/>
<polygon fill="#191970" stroke="#191970" points="394.9596,-105.4084 385.5407,-100.5571 389.8785,-110.2233 394.9596,-105.4084"/>
</g>
<!-- Node4 -->
<g id="node4" class="node">
<title>Node4</title>
<g id="a_node4"><a xlink:href="../../df/d0a/main_8cpp.html#ae66f6b31b5ad750f1fe042a706a4e3d4" target="_top" xlink:title=" ">
<polygon fill="none" stroke="#000000" points="75.5,-59.5 75.5,-80.5 118.5,-80.5 118.5,-59.5 75.5,-59.5"/>
<text text-anchor="middle" x="97" y="-66.9" font-family="Helvetica,sans-Serif" font-size="12.00" fill="#000000">main</text>
</a>
</g>
</g>
<!-- Node3&#45;&gt;Node4 -->
<g id="edge4" class="edge">
<title>Node3&#45;&gt;Node4</title>
<path fill="none" stroke="#191970" d="M219.3866,-79.7519C180.3527,-76.6417 141.7208,-73.5634 118.6072,-71.7217"/>
<polygon fill="#191970" stroke="#191970" points="219.6033,-83.2802 229.8498,-80.5856 220.1594,-76.3023 219.6033,-83.2802"/>
</g>
<!-- Node5&#45;&gt;Node3 -->
<g id="edge6" class="edge">
<title>Node5&#45;&gt;Node3</title>
<path fill="none" stroke="#191970" d="M511.7394,-63.1688C479.8348,-68.3968 442.9086,-74.4478 412.2072,-79.4787"/>
<polygon fill="#191970" stroke="#191970" points="512.6049,-66.5737 521.9073,-61.5026 511.4729,-59.6658 512.6049,-66.5737"/>
</g>
<!-- Node5&#45;&gt;Node4 -->
<g id="edge7" class="edge">
<title>Node5&#45;&gt;Node4</title>
<path fill="none" stroke="#191970" d="M493.3086,-54.6015C376.471,-59.1412 183.0989,-66.6546 118.6501,-69.1588"/>
<polygon fill="#191970" stroke="#191970" points="493.4679,-58.0981 503.3245,-54.2123 493.1961,-51.1033 493.4679,-58.0981"/>
</g>
<!-- Node7 -->
<g id="node7" class="node">
<title>Node7</title>
<g id="a_node7"><a xlink:href="../../d9/d52/classCPortfolio.html#a1253d72b078e2ad23e28744f232a078a" target="_top" xlink:title="Mehtod set and get all information about the portfolios.">
<polygon fill="none" stroke="#000000" points="276.5,-.5 276.5,-21.5 419.5,-21.5 419.5,-.5 276.5,-.5"/>
<text text-anchor="middle" x="348" y="-7.9" font-family="Helvetica,sans-Serif" font-size="12.00" fill="#000000">CPortfolio::userPortfolio</text>
</a>
</g>
</g>
<!-- Node6&#45;&gt;Node7 -->
<g id="edge9" class="edge">
<title>Node6&#45;&gt;Node7</title>
<path fill="none" stroke="#191970" d="M520.9998,-11C489.5663,-11 451.7531,-11 419.5061,-11"/>
<polygon fill="#191970" stroke="#191970" points="521.398,-14.5001 531.398,-11 521.398,-7.5001 521.398,-14.5001"/>
</g>
<!-- Node8 -->
<g id="node8" class="node">
<title>Node8</title>
<g id="a_node8"><a xlink:href="../../d1/d60/classCMyHolding.html#a2da746680d2dd9d7af60d49719b0fd37" target="_top" xlink:title="Method set and gets all information about holding of Client.">
<polygon fill="none" stroke="#000000" points="0,-.5 0,-21.5 194,-21.5 194,-.5 0,-.5"/>
<text text-anchor="middle" x="97" y="-7.9" font-family="Helvetica,sans-Serif" font-size="12.00" fill="#000000">CMyHolding::createHoldingMenu</text>
</a>
</g>
</g>
<!-- Node7&#45;&gt;Node8 -->
<g id="edge10" class="edge">
<title>Node7&#45;&gt;Node8</title>
<path fill="none" stroke="#191970" d="M266.3762,-11C243.4178,-11 218.2184,-11 194.4361,-11"/>
<polygon fill="#191970" stroke="#191970" points="266.4094,-14.5001 276.4094,-11 266.4093,-7.5001 266.4094,-14.5001"/>
</g>
</g>
</svg>
