<?xml version="1.0" encoding="UTF-8" standalone="no"?>
<!DOCTYPE svg PUBLIC "-//W3C//DTD SVG 1.1//EN"
 "http://www.w3.org/Graphics/SVG/1.1/DTD/svg11.dtd">
<!-- Generated by graphviz version 2.40.1 (20161225.0304)
 -->
<!-- Title: CDataBase::inputForETF Pages: 1 -->
<!--zoomable 390 -->
<svg id="main" version="1.1" xmlns="http://www.w3.org/2000/svg" xmlns:xlink="http://www.w3.org/1999/xlink" xml:space="preserve" onload="init(evt)">
<style type="text/css"><![CDATA[
.edge:hover path { stroke: red; }
.edge:hover polygon { stroke: red; fill: red; }
]]></style>
<script type="text/javascript"><![CDATA[
var edges = document.getElementsByTagName('g');
if (edges && edges.length) {
  for (var i=0;i<edges.length;i++) {
    if (edges[i].id.substr(0,4)=='edge') {
      edges[i].setAttribute('class','edge');
    }
  }
}
]]></script>
        <defs>
                <circle id="rim" cx="0" cy="0" r="7"/>
                <circle id="rim2" cx="0" cy="0" r="3.5"/>
                <g id="zoomPlus">
                        <use xlink:href="#rim" fill="#404040">
                                <set attributeName="fill" to="#808080" begin="zoomplus.mouseover" end="zoomplus.mouseout"/>
                        </use>
                        <path d="M-4,0h8M0,-4v8" fill="none" stroke="white" stroke-width="1.5" pointer-events="none"/>
                </g>
                <g id="zoomMin">
                        <use xlink:href="#rim" fill="#404040">
                                <set attributeName="fill" to="#808080" begin="zoomminus.mouseover" end="zoomminus.mouseout"/>
                        </use>
                        <path d="M-4,0h8" fill="none" stroke="white" stroke-width="1.5" pointer-events="none"/>
                </g>
                <g id="dirArrow">
                        <path fill="none" stroke="white" stroke-width="1.5" d="M0,-3.0v7 M-2.5,-0.5L0,-3.0L2.5,-0.5"/>
                </g>
               <g id="resetDef">
                       <use xlink:href="#rim2" fill="#404040">
                               <set attributeName="fill" to="#808080" begin="reset.mouseover" end="reset.mouseout"/>
                       </use>
               </g>
        </defs>

<script type="text/javascript">
var viewWidth = 752;
var viewHeight = 390;
var sectionId = 'dynsection-4';
</script>
<script xlink:href="../../svgpan.js"/>
<svg id="graph" class="graph">
<g id="viewport">
<title>CDataBase::inputForETF</title>
<!-- Node1 -->
<g id="node1" class="node">
<title>Node1</title>
<g id="a_node1"><a xlink:title="Method get and set data of ETF to database in this program database are the files and relation with t...">
<polygon fill="#bfbfbf" stroke="#000000" points="0,-160.5 0,-181.5 152,-181.5 152,-160.5 0,-160.5"/>
<text text-anchor="middle" x="76" y="-167.9" font-family="Helvetica,sans-Serif" font-size="12.00" fill="#000000">CDataBase::inputForETF</text>
</a>
</g>
</g>
<!-- Node2 -->
<g id="node2" class="node">
<title>Node2</title>
<g id="a_node2"><a xlink:href="../../db/d52/classCRisk.html#aea7aecfae721440bbed175e109518464" target="_top" xlink:title="Method calculate matrix of covariance and variance for portfolio to help calculate risk of the portfo...">
<polygon fill="none" stroke="#000000" points="205.5,-221 205.5,-255 367.5,-255 367.5,-221 205.5,-221"/>
<text text-anchor="start" x="213.5" y="-241.4" font-family="Helvetica,sans-Serif" font-size="12.00" fill="#000000">CRisk::covarianceVariance</text>
<text text-anchor="middle" x="286.5" y="-228.4" font-family="Helvetica,sans-Serif" font-size="12.00" fill="#000000">Matrix</text>
</a>
</g>
</g>
<!-- Node1&#45;&gt;Node2 -->
<g id="edge1" class="edge">
<title>Node1&#45;&gt;Node2</title>
<path fill="none" stroke="#191970" d="M103.8788,-181.6181C126.4194,-190.0425 159.0518,-201.8775 188,-211 195.6948,-213.4249 203.7659,-215.8407 211.8365,-218.1741"/>
<polygon fill="#191970" stroke="#191970" points="211.0787,-221.5975 221.6552,-220.9745 212.9987,-214.8659 211.0787,-221.5975"/>
</g>
<!-- Node3 -->
<g id="node3" class="node">
<title>Node3</title>
<g id="a_node3"><a xlink:href="../../dc/d85/classCAsset.html#ab68c11feace8e8f4b9852404a458796c" target="_top" xlink:title="Method get data from database through the class CDataBase.">
<polygon fill="none" stroke="#000000" points="219.5,-180.5 219.5,-201.5 353.5,-201.5 353.5,-180.5 219.5,-180.5"/>
<text text-anchor="middle" x="286.5" y="-187.9" font-family="Helvetica,sans-Serif" font-size="12.00" fill="#000000">CAsset::getFromBase</text>
</a>
</g>
</g>
<!-- Node1&#45;&gt;Node3 -->
<g id="edge2" class="edge">
<title>Node1&#45;&gt;Node3</title>
<path fill="none" stroke="#191970" d="M152.293,-178.2487C170.7581,-180.0031 190.5126,-181.8801 209.0313,-183.6396"/>
<polygon fill="#191970" stroke="#191970" points="208.89,-187.1418 219.1763,-184.6034 209.5522,-180.1732 208.89,-187.1418"/>
</g>
<!-- Node14 -->
<g id="node14" class="node">
<title>Node14</title>
<g id="a_node14"><a xlink:href="../../d5/de1/classCDataBase.html#a57a02c1f3a727f142c42c24789882730" target="_top" xlink:title=" ">
<polygon fill="none" stroke="#000000" points="188,-140.5 188,-161.5 385,-161.5 385,-140.5 188,-140.5"/>
<text text-anchor="middle" x="286.5" y="-147.9" font-family="Helvetica,sans-Serif" font-size="12.00" fill="#000000">CDataBase::getMStrToetfPortfolio</text>
</a>
</g>
</g>
<!-- Node1&#45;&gt;Node14 -->
<g id="edge13" class="edge">
<title>Node1&#45;&gt;Node14</title>
<path fill="none" stroke="#191970" d="M152.293,-163.7513C160.5806,-162.9638 169.1279,-162.1517 177.7067,-161.3367"/>
<polygon fill="#191970" stroke="#191970" points="178.1541,-164.81 187.7782,-160.3797 177.492,-157.8414 178.1541,-164.81"/>
</g>
<!-- Node15 -->
<g id="node15" class="node">
<title>Node15</title>
<g id="a_node15"><a xlink:href="../../dd/d09/classCReturn.html#a4ae6568cb0c834cce8f257e8a82966c3" target="_top" xlink:title="Method calculate portfolio which have the biggest return with the lowest risk.">
<polygon fill="none" stroke="#000000" points="211,-60.5 211,-81.5 362,-81.5 362,-60.5 211,-60.5"/>
<text text-anchor="middle" x="286.5" y="-67.9" font-family="Helvetica,sans-Serif" font-size="12.00" fill="#000000">CReturn::optimalPortfolio</text>
</a>
</g>
</g>
<!-- Node1&#45;&gt;Node15 -->
<g id="edge14" class="edge">
<title>Node1&#45;&gt;Node15</title>
<path fill="none" stroke="#191970" d="M98.1293,-160.4873C135.715,-142.6318 212.1283,-106.331 255.1856,-85.8762"/>
<polygon fill="#191970" stroke="#191970" points="256.8206,-88.9744 264.3513,-81.5219 253.8169,-82.6516 256.8206,-88.9744"/>
</g>
<!-- Node4 -->
<g id="node4" class="node">
<title>Node4</title>
<g id="a_node4"><a xlink:href="../../d7/d8f/classCStock.html#ac29f9a8363a2388481e44526a0d4aa06" target="_top" xlink:title=" ">
<polygon fill="none" stroke="#000000" points="438,-360.5 438,-381.5 605,-381.5 605,-360.5 438,-360.5"/>
<text text-anchor="middle" x="521.5" y="-367.9" font-family="Helvetica,sans-Serif" font-size="12.00" fill="#000000">CStock::getMStrPathToAppl</text>
</a>
</g>
</g>
<!-- Node3&#45;&gt;Node4 -->
<g id="edge3" class="edge">
<title>Node3&#45;&gt;Node4</title>
<path fill="none" stroke="#191970" d="M353.6949,-194.963C365.2755,-198.3623 376.3492,-203.7165 385,-212 431.0927,-256.1357 374.608,-307.1791 421,-351 423.4572,-353.321 426.1033,-355.4077 428.8967,-357.282"/>
<polygon fill="#191970" stroke="#191970" points="427.2565,-360.3758 437.677,-362.2899 430.7246,-354.2953 427.2565,-360.3758"/>
</g>
<!-- Node5 -->
<g id="node5" class="node">
<title>Node5</title>
<g id="a_node5"><a xlink:href="../../d7/d8f/classCStock.html#a71879b1e890394887791d3746cb7ef04" target="_top" xlink:title=" ">
<polygon fill="none" stroke="#000000" points="431,-320.5 431,-341.5 612,-341.5 612,-320.5 431,-320.5"/>
<text text-anchor="middle" x="521.5" y="-327.9" font-family="Helvetica,sans-Serif" font-size="12.00" fill="#000000">CStock::getMStrPathToGoogle</text>
</a>
</g>
</g>
<!-- Node3&#45;&gt;Node5 -->
<g id="edge4" class="edge">
<title>Node3&#45;&gt;Node5</title>
<path fill="none" stroke="#191970" d="M353.5848,-195.789C365.0397,-199.1312 376.0961,-204.2529 385,-212 420.3206,-242.7319 385.471,-280.5092 421,-311 422.755,-312.5062 424.591,-313.9109 426.4951,-315.2207"/>
<polygon fill="#191970" stroke="#191970" points="424.8487,-318.313 435.241,-320.3749 428.4028,-312.2823 424.8487,-318.313"/>
</g>
<!-- Node6 -->
<g id="node6" class="node">
<title>Node6</title>
<g id="a_node6"><a xlink:href="../../d0/dc4/classCETF.html#af8e267a244a73e0ad7038f83b5ec26b0" target="_top" xlink:title=" ">
<polygon fill="none" stroke="#000000" points="446,-280.5 446,-301.5 597,-301.5 597,-280.5 446,-280.5"/>
<text text-anchor="middle" x="521.5" y="-287.9" font-family="Helvetica,sans-Serif" font-size="12.00" fill="#000000">CETF::getMStrPathToIxn</text>
</a>
</g>
</g>
<!-- Node3&#45;&gt;Node6 -->
<g id="edge5" class="edge">
<title>Node3&#45;&gt;Node6</title>
<path fill="none" stroke="#191970" d="M353.6886,-197.6524C364.8127,-200.8408 375.727,-205.4289 385,-212 410.0633,-229.7605 395.8164,-253.4105 421,-271 425.8118,-274.3608 431.0526,-277.1876 436.5319,-279.5621"/>
<polygon fill="#191970" stroke="#191970" points="435.3536,-282.8585 445.9445,-283.1457 437.8443,-276.3166 435.3536,-282.8585"/>
</g>
<!-- Node7 -->
<g id="node7" class="node">
<title>Node7</title>
<g id="a_node7"><a xlink:href="../../d0/dc4/classCETF.html#a8d19cc867f54575686cf448a2d17af38" target="_top" xlink:title=" ">
<polygon fill="none" stroke="#000000" points="442.5,-240.5 442.5,-261.5 600.5,-261.5 600.5,-240.5 442.5,-240.5"/>
<text text-anchor="middle" x="521.5" y="-247.9" font-family="Helvetica,sans-Serif" font-size="12.00" fill="#000000">CETF::getMStrPathToQqq</text>
</a>
</g>
</g>
<!-- Node3&#45;&gt;Node7 -->
<g id="edge6" class="edge">
<title>Node3&#45;&gt;Node7</title>
<path fill="none" stroke="#191970" d="M348.711,-201.5411C360.9149,-204.3674 373.4935,-207.828 385,-212 402.0082,-218.1668 403.9502,-224.9491 421,-231 428.5687,-233.6861 436.5934,-236.0468 444.6777,-238.1133"/>
<polygon fill="#191970" stroke="#191970" points="444.0002,-241.5502 454.5419,-240.4903 445.6401,-234.745 444.0002,-241.5502"/>
</g>
<!-- Node8 -->
<g id="node8" class="node">
<title>Node8</title>
<g id="a_node8"><a xlink:href="../../d0/dc4/classCETF.html#a477bc0a30dca4ce9bf7a9a52e121324b" target="_top" xlink:title=" ">
<polygon fill="none" stroke="#000000" points="445.5,-200.5 445.5,-221.5 597.5,-221.5 597.5,-200.5 445.5,-200.5"/>
<text text-anchor="middle" x="521.5" y="-207.9" font-family="Helvetica,sans-Serif" font-size="12.00" fill="#000000">CETF::getMStrPathToXlk</text>
</a>
</g>
</g>
<!-- Node3&#45;&gt;Node8 -->
<g id="edge7" class="edge">
<title>Node3&#45;&gt;Node8</title>
<path fill="none" stroke="#191970" d="M353.5271,-196.7044C378.9094,-198.8646 408.1713,-201.355 435.0881,-203.6458"/>
<polygon fill="#191970" stroke="#191970" points="435.0156,-207.1522 445.2764,-204.5129 435.6093,-200.1774 435.0156,-207.1522"/>
</g>
<!-- Node9 -->
<g id="node9" class="node">
<title>Node9</title>
<g id="a_node9"><a xlink:href="../../d7/d8f/classCStock.html#a157bab205439811406e6aa5da0fcaddd" target="_top" xlink:title=" ">
<polygon fill="none" stroke="#000000" points="421,-160.5 421,-181.5 622,-181.5 622,-160.5 421,-160.5"/>
<text text-anchor="middle" x="521.5" y="-167.9" font-family="Helvetica,sans-Serif" font-size="12.00" fill="#000000">CStock::getMStrPathtToAmznDate</text>
</a>
</g>
</g>
<!-- Node3&#45;&gt;Node9 -->
<g id="edge8" class="edge">
<title>Node3&#45;&gt;Node9</title>
<path fill="none" stroke="#191970" d="M353.5271,-185.2956C371.318,-183.7814 391.0151,-182.1051 410.4746,-180.449"/>
<polygon fill="#191970" stroke="#191970" points="410.9505,-183.9212 420.6176,-179.5857 410.3568,-176.9464 410.9505,-183.9212"/>
</g>
<!-- Node10 -->
<g id="node10" class="node">
<title>Node10</title>
<g id="a_node10"><a xlink:href="../../dc/d85/classCAsset.html#a48d22720b57dc24776a9023be661bff9" target="_top" xlink:title="Method calculate mean of one Asset.">
<polygon fill="none" stroke="#000000" points="454.5,-120.5 454.5,-141.5 588.5,-141.5 588.5,-120.5 454.5,-120.5"/>
<text text-anchor="middle" x="521.5" y="-127.9" font-family="Helvetica,sans-Serif" font-size="12.00" fill="#000000">CAsset::meanOfAsset</text>
</a>
</g>
</g>
<!-- Node3&#45;&gt;Node10 -->
<g id="edge9" class="edge">
<title>Node3&#45;&gt;Node10</title>
<path fill="none" stroke="#191970" d="M352.7181,-180.469C363.6627,-177.9028 374.7691,-174.7776 385,-171 402.1703,-164.6601 403.8175,-157.3066 421,-151 428.5394,-148.2328 436.5451,-145.8196 444.6181,-143.7216"/>
<polygon fill="#191970" stroke="#191970" points="445.5873,-147.0878 454.472,-141.3162 443.9273,-140.2875 445.5873,-147.0878"/>
</g>
<!-- Node11 -->
<g id="node11" class="node">
<title>Node11</title>
<g id="a_node11"><a xlink:href="../../dc/d85/classCAsset.html#aa855b3cfd867f9788d1cc0e5db7c3870" target="_top" xlink:title="Method return diffrence between vector of returns and double value of mean of return of Asset.">
<polygon fill="none" stroke="#000000" points="425.5,-80.5 425.5,-101.5 617.5,-101.5 617.5,-80.5 425.5,-80.5"/>
<text text-anchor="middle" x="521.5" y="-87.9" font-family="Helvetica,sans-Serif" font-size="12.00" fill="#000000">CAsset::returnAndMeanDiffrence</text>
</a>
</g>
</g>
<!-- Node3&#45;&gt;Node11 -->
<g id="edge10" class="edge">
<title>Node3&#45;&gt;Node11</title>
<path fill="none" stroke="#191970" d="M353.7074,-185.1471C364.8296,-182.0591 375.7382,-177.5473 385,-171 410.3941,-153.0486 395.5711,-128.902 421,-111 423.6912,-109.1054 426.5182,-107.3802 429.4474,-105.8098"/>
<polygon fill="#191970" stroke="#191970" points="430.9485,-108.9717 438.508,-101.5484 427.9693,-102.6373 430.9485,-108.9717"/>
</g>
<!-- Node12 -->
<g id="node12" class="node">
<title>Node12</title>
<g id="a_node12"><a xlink:href="../../dc/d85/classCAsset.html#a96031ecbece20a71af492b3cf5063f0b" target="_top" xlink:title="Method returns what is returns of one Asset in the setting period, get info for this from database.">
<polygon fill="none" stroke="#000000" points="454.5,-40.5 454.5,-61.5 588.5,-61.5 588.5,-40.5 454.5,-40.5"/>
<text text-anchor="middle" x="521.5" y="-47.9" font-family="Helvetica,sans-Serif" font-size="12.00" fill="#000000">CAsset::returnOfAsset</text>
</a>
</g>
</g>
<!-- Node3&#45;&gt;Node12 -->
<g id="edge11" class="edge">
<title>Node3&#45;&gt;Node12</title>
<path fill="none" stroke="#191970" d="M353.5732,-186.9664C365.0292,-183.7335 376.089,-178.7024 385,-171 420.7368,-140.11 385.2033,-101.8206 421,-71 427.9304,-65.033 436.1299,-60.656 444.8094,-57.471"/>
<polygon fill="#191970" stroke="#191970" points="445.8878,-60.8009 454.3786,-54.4639 443.7892,-54.1229 445.8878,-60.8009"/>
</g>
<!-- Node13 -->
<g id="node13" class="node">
<title>Node13</title>
<g id="a_node13"><a xlink:href="../../dc/d85/classCAsset.html#ae862a51b2a6ea0668c19a07f081e0b3c" target="_top" xlink:title="Method helps to set size of vector for next method returnOfAsset()">
<polygon fill="none" stroke="#000000" points="658,-40.5 658,-61.5 744,-61.5 744,-40.5 658,-40.5"/>
<text text-anchor="middle" x="701" y="-47.9" font-family="Helvetica,sans-Serif" font-size="12.00" fill="#000000">CAsset::slice</text>
</a>
</g>
</g>
<!-- Node12&#45;&gt;Node13 -->
<g id="edge12" class="edge">
<title>Node12&#45;&gt;Node13</title>
<path fill="none" stroke="#191970" d="M588.5944,-51C608.171,-51 629.2863,-51 647.8725,-51"/>
<polygon fill="#191970" stroke="#191970" points="647.9121,-54.5001 657.9121,-51 647.912,-47.5001 647.9121,-54.5001"/>
</g>
<!-- Node16 -->
<g id="node16" class="node">
<title>Node16</title>
<g id="a_node16"><a xlink:href="../../db/d52/classCRisk.html#a8742c21ca8a8034b4fe20b3676ab931b" target="_top" xlink:title="Method calculate risk of the portfolio &#45; standard deviation to help calculate std of portfolio taking...">
<polygon fill="none" stroke="#000000" points="463.5,-.5 463.5,-21.5 579.5,-21.5 579.5,-.5 463.5,-.5"/>
<text text-anchor="middle" x="521.5" y="-7.9" font-family="Helvetica,sans-Serif" font-size="12.00" fill="#000000">CRisk::portfolioStd</text>
</a>
</g>
</g>
<!-- Node15&#45;&gt;Node16 -->
<g id="edge15" class="edge">
<title>Node15&#45;&gt;Node16</title>
<path fill="none" stroke="#191970" d="M318.8826,-60.4506C345.9831,-51.8442 385.7657,-39.7253 421,-31 431.5769,-28.3808 442.8457,-25.87 453.8697,-23.5657"/>
<polygon fill="#191970" stroke="#191970" points="454.8046,-26.9469 463.8982,-21.5104 453.3991,-20.0895 454.8046,-26.9469"/>
</g>
</g>
</svg>
        <g id="navigator" transform="translate(0 0)" fill="#404254">
                <rect fill="#f2f5e9" fill-opacity="0.5" stroke="#606060" stroke-width=".5" x="0" y="0" width="60" height="60"/>
                <use id="zoomplus" xlink:href="#zoomPlus" x="17" y="9" onmousedown="handleZoom(evt,'in')"/>
                <use id="zoomminus" xlink:href="#zoomMin" x="42" y="9" onmousedown="handleZoom(evt,'out')"/>
                <use id="reset" xlink:href="#resetDef" x="30" y="36" onmousedown="handleReset()"/>
                <g id="arrowUp" xlink:href="#dirArrow" transform="translate(30 24)" onmousedown="handlePan(0,-1)">
                  <use xlink:href="#rim" fill="#404040">
                        <set attributeName="fill" to="#808080" begin="arrowUp.mouseover" end="arrowUp.mouseout"/>
                  </use>
                  <path fill="none" stroke="white" stroke-width="1.5" d="M0,-3.0v7 M-2.5,-0.5L0,-3.0L2.5,-0.5"/>
                </g>
                <g id="arrowRight" xlink:href="#dirArrow" transform="rotate(90) translate(36 -43)" onmousedown="handlePan(1,0)">
                  <use xlink:href="#rim" fill="#404040">
                        <set attributeName="fill" to="#808080" begin="arrowRight.mouseover" end="arrowRight.mouseout"/>
                  </use>
                  <path fill="none" stroke="white" stroke-width="1.5" d="M0,-3.0v7 M-2.5,-0.5L0,-3.0L2.5,-0.5"/>
                </g>
                <g id="arrowDown" xlink:href="#dirArrow" transform="rotate(180) translate(-30 -48)" onmousedown="handlePan(0,1)">
                  <use xlink:href="#rim" fill="#404040">
                        <set attributeName="fill" to="#808080" begin="arrowDown.mouseover" end="arrowDown.mouseout"/>
                  </use>
                  <path fill="none" stroke="white" stroke-width="1.5" d="M0,-3.0v7 M-2.5,-0.5L0,-3.0L2.5,-0.5"/>
                </g>
                <g id="arrowLeft" xlink:href="#dirArrow" transform="rotate(270) translate(-36 17)" onmousedown="handlePan(-1,0)">
                  <use xlink:href="#rim" fill="#404040">
                        <set attributeName="fill" to="#808080" begin="arrowLeft.mouseover" end="arrowLeft.mouseout"/>
                  </use>
                  <path fill="none" stroke="white" stroke-width="1.5" d="M0,-3.0v7 M-2.5,-0.5L0,-3.0L2.5,-0.5"/>
                </g>
        </g>
        <svg viewBox="0 0 15 15" width="100%" height="30px" preserveAspectRatio="xMaxYMin meet">
         <g id="arrow_out" transform="scale(0.3 0.3)">
          <a xlink:href="classCDataBase_a06e986cfe90b12db4e651ca70f4c6949_cgraph_org.svg" target="_base">
           <rect id="button" ry="5" rx="5" y="6" x="6" height="38" width="38"
                fill="#f2f5e9" fill-opacity="0.5" stroke="#606060" stroke-width="1.0"/>
           <path id="arrow"
             d="M 11.500037,31.436501 C 11.940474,20.09759 22.043105,11.32322 32.158766,21.979434 L 37.068811,17.246167 C 37.068811,17.246167 37.088388,32 37.088388,32 L 22.160133,31.978069 C 22.160133,31.978069 26.997745,27.140456 26.997745,27.140456 C 18.528582,18.264221 13.291696,25.230495 11.500037,31.436501 z"
             style="fill:#404040;"/>
          </a>
         </g>
        </svg>
</svg>
