<?xml version="1.0" encoding="UTF-8" standalone="no"?>
<!DOCTYPE svg PUBLIC "-//W3C//DTD SVG 1.1//EN"
 "http://www.w3.org/Graphics/SVG/1.1/DTD/svg11.dtd">
<!-- Generated by graphviz version 2.40.1 (20161225.0304)
 -->
<!-- Title: CDataBase::getMStrToItPortfolio Pages: 1 -->
<!--zoomable 179 -->
<svg id="main" version="1.1" xmlns="http://www.w3.org/2000/svg" xmlns:xlink="http://www.w3.org/1999/xlink" xml:space="preserve" onload="init(evt)">
<style type="text/css"><![CDATA[
.edge:hover path { stroke: red; }
.edge:hover polygon { stroke: red; fill: red; }
]]></style>
<script type="text/javascript"><![CDATA[
var edges = document.getElementsByTagName('g');
if (edges && edges.length) {
  for (var i=0;i<edges.length;i++) {
    if (edges[i].id.substr(0,4)=='edge') {
      edges[i].setAttribute('class','edge');
    }
  }
}
]]></script>
        <defs>
                <circle id="rim" cx="0" cy="0" r="7"/>
                <circle id="rim2" cx="0" cy="0" r="3.5"/>
                <g id="zoomPlus">
                        <use xlink:href="#rim" fill="#404040">
                                <set attributeName="fill" to="#808080" begin="zoomplus.mouseover" end="zoomplus.mouseout"/>
                        </use>
                        <path d="M-4,0h8M0,-4v8" fill="none" stroke="white" stroke-width="1.5" pointer-events="none"/>
                </g>
                <g id="zoomMin">
                        <use xlink:href="#rim" fill="#404040">
                                <set attributeName="fill" to="#808080" begin="zoomminus.mouseover" end="zoomminus.mouseout"/>
                        </use>
                        <path d="M-4,0h8" fill="none" stroke="white" stroke-width="1.5" pointer-events="none"/>
                </g>
                <g id="dirArrow">
                        <path fill="none" stroke="white" stroke-width="1.5" d="M0,-3.0v7 M-2.5,-0.5L0,-3.0L2.5,-0.5"/>
                </g>
               <g id="resetDef">
                       <use xlink:href="#rim2" fill="#404040">
                               <set attributeName="fill" to="#808080" begin="reset.mouseover" end="reset.mouseout"/>
                       </use>
               </g>
        </defs>

<script type="text/javascript">
var viewWidth = 1559;
var viewHeight = 179;
var sectionId = 'dynsection-3';
</script>
<script xlink:href="../../svgpan.js"/>
<svg id="graph" class="graph">
<g id="viewport">
<title>CDataBase::getMStrToItPortfolio</title>
<!-- Node1 -->
<g id="node1" class="node">
<title>Node1</title>
<g id="a_node1"><a xlink:title=" ">
<polygon fill="#bfbfbf" stroke="#000000" points="1360,-121.9027 1360,-142.9027 1551,-142.9027 1551,-121.9027 1360,-121.9027"/>
<text text-anchor="middle" x="1455.5" y="-129.3027" font-family="Helvetica,sans-Serif" font-size="12.00" fill="#000000">CDataBase::getMStrToItPortfolio</text>
</a>
</g>
</g>
<!-- Node2 -->
<g id="node2" class="node">
<title>Node2</title>
<g id="a_node2"><a xlink:href="../../d5/de1/classCDataBase.html#a763fc57fb5ad33e7d4ef92dd32698f34" target="_top" xlink:title="Method get and set data of Stocks to database in this program database are the files and relation wit...">
<polygon fill="none" stroke="#000000" points="1165,-82.9027 1165,-103.9027 1324,-103.9027 1324,-82.9027 1165,-82.9027"/>
<text text-anchor="middle" x="1244.5" y="-90.3027" font-family="Helvetica,sans-Serif" font-size="12.00" fill="#000000">CDataBase::inputForStock</text>
</a>
</g>
</g>
<!-- Node1&#45;&gt;Node2 -->
<g id="edge1" class="edge">
<title>Node1&#45;&gt;Node2</title>
<path fill="none" stroke="#191970" d="M1388.5596,-120.0299C1360.5294,-114.8489 1328.2881,-108.8896 1301.4232,-103.9241"/>
<polygon fill="#191970" stroke="#191970" points="1388.2087,-123.5242 1398.6783,-121.9001 1389.481,-116.6408 1388.2087,-123.5242"/>
</g>
<!-- Node8 -->
<g id="node8" class="node">
<title>Node8</title>
<g id="a_node8"><a xlink:href="../../d9/d52/classCPortfolio.html#a1253d72b078e2ad23e28744f232a078a" target="_top" xlink:title="Mehtod set and get all information about the portfolios.">
<polygon fill="none" stroke="#000000" points="782,-91.9027 782,-112.9027 925,-112.9027 925,-91.9027 782,-91.9027"/>
<text text-anchor="middle" x="853.5" y="-99.3027" font-family="Helvetica,sans-Serif" font-size="12.00" fill="#000000">CPortfolio::userPortfolio</text>
</a>
</g>
</g>
<!-- Node1&#45;&gt;Node8 -->
<g id="edge15" class="edge">
<title>Node1&#45;&gt;Node8</title>
<path fill="none" stroke="#191970" d="M1396.0883,-144.8186C1302.3268,-162.2153 1114.8778,-188.0531 961,-153.4027 926.5394,-145.6429 890.1514,-125.4944 869.7866,-112.97"/>
<polygon fill="#191970" stroke="#191970" points="1396.7818,-148.2496 1405.9582,-142.9539 1395.4822,-141.3713 1396.7818,-148.2496"/>
</g>
<!-- Node3 -->
<g id="node3" class="node">
<title>Node3</title>
<g id="a_node3"><a xlink:href="../../d5/de1/classCDataBase.html#aa61685a913b467ab78f3a52823f15339" target="_top" xlink:title=" ">
<polygon fill="none" stroke="#000000" points="961,-122.9027 961,-143.9027 1129,-143.9027 1129,-122.9027 961,-122.9027"/>
<text text-anchor="middle" x="1045" y="-130.3027" font-family="Helvetica,sans-Serif" font-size="12.00" fill="#000000">CDataBase::choosePortfolio</text>
</a>
</g>
</g>
<!-- Node2&#45;&gt;Node3 -->
<g id="edge2" class="edge">
<title>Node2&#45;&gt;Node3</title>
<path fill="none" stroke="#191970" d="M1182.2654,-105.8809C1155.0291,-111.3418 1123.4249,-117.6784 1097.4122,-122.894"/>
<polygon fill="#191970" stroke="#191970" points="1182.9669,-109.3099 1192.0837,-103.9123 1181.5908,-102.4465 1182.9669,-109.3099"/>
</g>
<!-- Node4 -->
<g id="node4" class="node">
<title>Node4</title>
<g id="a_node4"><a xlink:href="../../da/d8b/classCAdministrator.html#a834db63b1ee3b716b1e8e97a101e51de" target="_top" xlink:title="Method with while loop, switch expression and fstream library to register the administrator and can g...">
<polygon fill="none" stroke="#000000" points="79,-43.9027 79,-64.9027 315,-64.9027 315,-43.9027 79,-43.9027"/>
<text text-anchor="middle" x="197" y="-51.3027" font-family="Helvetica,sans-Serif" font-size="12.00" fill="#000000">CAdministrator::createAdministratorMenu</text>
</a>
</g>
</g>
<!-- Node2&#45;&gt;Node4 -->
<g id="edge3" class="edge">
<title>Node2&#45;&gt;Node4</title>
<path fill="none" stroke="#191970" d="M1180.4116,-81.101C1163.7241,-78.2289 1145.7312,-75.4229 1129,-73.4027 1007.1497,-58.6905 976.2353,-54.4027 853.5,-54.4027 853.5,-54.4027 853.5,-54.4027 649,-54.4027 535.6076,-54.4027 406.2141,-54.4027 315.0109,-54.4027"/>
<polygon fill="#191970" stroke="#191970" points="1180.1557,-84.6095 1190.6103,-82.8913 1181.3661,-77.7149 1180.1557,-84.6095"/>
</g>
<!-- Node6 -->
<g id="node6" class="node">
<title>Node6</title>
<g id="a_node6"><a xlink:href="../../db/da6/classCBroker.html#abce158f7c4dce747c076db9e7d1cdf52" target="_top" xlink:title="This function create Broker menu through this you can register, change info about Broker.">
<polygon fill="none" stroke="#000000" points="351,-4.9027 351,-25.9027 516,-25.9027 516,-4.9027 351,-4.9027"/>
<text text-anchor="middle" x="433.5" y="-12.3027" font-family="Helvetica,sans-Serif" font-size="12.00" fill="#000000">CBroker::createBrokerMenu</text>
</a>
</g>
</g>
<!-- Node2&#45;&gt;Node6 -->
<g id="edge6" class="edge">
<title>Node2&#45;&gt;Node6</title>
<path fill="none" stroke="#191970" d="M1218.5841,-77.895C1195.8517,-65.193 1161.4504,-48.1059 1129,-40.4027 912.547,10.9797 647.6718,1.3823 516.0006,-8.0572"/>
<polygon fill="#191970" stroke="#191970" points="1216.8603,-80.9411 1227.28,-82.8595 1220.3309,-74.862 1216.8603,-80.9411"/>
</g>
<!-- Node7 -->
<g id="node7" class="node">
<title>Node7</title>
<g id="a_node7"><a xlink:href="../../d7/d8f/classCStock.html#a0ef2eda44098e896ddb09d5d4629d7aa" target="_top" xlink:title="Method gets and sets all info about stock using switch statement, case, if, else if,...">
<polygon fill="none" stroke="#000000" points="990.5,-82.9027 990.5,-103.9027 1099.5,-103.9027 1099.5,-82.9027 990.5,-82.9027"/>
<text text-anchor="middle" x="1045" y="-90.3027" font-family="Helvetica,sans-Serif" font-size="12.00" fill="#000000">CStock::stockInfo</text>
</a>
</g>
</g>
<!-- Node2&#45;&gt;Node7 -->
<g id="edge9" class="edge">
<title>Node2&#45;&gt;Node7</title>
<path fill="none" stroke="#191970" d="M1154.7448,-93.4027C1135.9954,-93.4027 1116.7703,-93.4027 1099.7549,-93.4027"/>
<polygon fill="#191970" stroke="#191970" points="1154.7923,-96.9028 1164.7922,-93.4027 1154.7922,-89.9028 1154.7923,-96.9028"/>
</g>
<!-- Node4&#45;&gt;Node4 -->
<g id="edge4" class="edge">
<title>Node4&#45;&gt;Node4</title>
<path fill="none" stroke="#191970" d="M229.3758,-74.0818C227.6409,-79.3774 216.849,-83.4027 197,-83.4027 166.7539,-83.4027 157.5383,-74.0559 169.3532,-65.1106"/>
<polygon fill="#191970" stroke="#191970" points="232.4061,-72.3247 224.6468,-65.1106 226.2138,-75.5889 232.4061,-72.3247"/>
</g>
<!-- Node5 -->
<g id="node5" class="node">
<title>Node5</title>
<g id="a_node5"><a xlink:href="../../df/d0a/main_8cpp.html#ae66f6b31b5ad750f1fe042a706a4e3d4" target="_top" xlink:title=" ">
<polygon fill="none" stroke="#000000" points="0,-43.9027 0,-64.9027 43,-64.9027 43,-43.9027 0,-43.9027"/>
<text text-anchor="middle" x="21.5" y="-51.3027" font-family="Helvetica,sans-Serif" font-size="12.00" fill="#000000">main</text>
</a>
</g>
</g>
<!-- Node4&#45;&gt;Node5 -->
<g id="edge5" class="edge">
<title>Node4&#45;&gt;Node5</title>
<path fill="none" stroke="#191970" d="M68.7546,-54.4027C59.2156,-54.4027 50.4943,-54.4027 43.2123,-54.4027"/>
<polygon fill="#191970" stroke="#191970" points="68.9653,-57.9028 78.9653,-54.4027 68.9652,-50.9028 68.9653,-57.9028"/>
</g>
<!-- Node6&#45;&gt;Node4 -->
<g id="edge7" class="edge">
<title>Node6&#45;&gt;Node4</title>
<path fill="none" stroke="#191970" d="M359.7074,-27.5715C328.0039,-32.7996 291.3104,-38.8505 260.8025,-43.8814"/>
<polygon fill="#191970" stroke="#191970" points="360.514,-30.9858 369.8112,-25.9053 359.375,-24.0791 360.514,-30.9858"/>
</g>
<!-- Node6&#45;&gt;Node5 -->
<g id="edge8" class="edge">
<title>Node6&#45;&gt;Node5</title>
<path fill="none" stroke="#191970" d="M340.2698,-13.2975C268.2612,-13.3749 166.4699,-17.2046 79,-34.4027 66.8663,-36.7884 53.8131,-41.171 43.2153,-45.2269"/>
<polygon fill="#191970" stroke="#191970" points="340.6677,-16.798 350.6726,-13.3122 340.6776,-9.798 340.6677,-16.798"/>
</g>
<!-- Node7&#45;&gt;Node8 -->
<g id="edge10" class="edge">
<title>Node7&#45;&gt;Node8</title>
<path fill="none" stroke="#191970" d="M980.1427,-96.4509C962.4084,-97.2843 943.0905,-98.1922 925.0075,-99.0421"/>
<polygon fill="#191970" stroke="#191970" points="980.5554,-99.9354 990.3801,-95.9697 980.2267,-92.9431 980.5554,-99.9354"/>
</g>
<!-- Node9 -->
<g id="node9" class="node">
<title>Node9</title>
<g id="a_node9"><a xlink:href="../../d1/d60/classCMyHolding.html#a2da746680d2dd9d7af60d49719b0fd37" target="_top" xlink:title="Method set and gets all information about holding of Client.">
<polygon fill="none" stroke="#000000" points="552,-91.9027 552,-112.9027 746,-112.9027 746,-91.9027 552,-91.9027"/>
<text text-anchor="middle" x="649" y="-99.3027" font-family="Helvetica,sans-Serif" font-size="12.00" fill="#000000">CMyHolding::createHoldingMenu</text>
</a>
</g>
</g>
<!-- Node8&#45;&gt;Node9 -->
<g id="edge11" class="edge">
<title>Node8&#45;&gt;Node9</title>
<path fill="none" stroke="#191970" d="M771.7576,-102.4027C763.2874,-102.4027 754.6213,-102.4027 746.0051,-102.4027"/>
<polygon fill="#191970" stroke="#191970" points="771.9759,-105.9028 781.9758,-102.4027 771.9758,-98.9028 771.9759,-105.9028"/>
</g>
<!-- Node10 -->
<g id="node10" class="node">
<title>Node10</title>
<g id="a_node10"><a xlink:href="../../df/da7/classCClient.html#a1cb513868f3ae0f1130528cdaeb3fb26" target="_top" xlink:title="Method create Client menu through which you can set and get data for Client.">
<polygon fill="none" stroke="#000000" points="354.5,-91.9027 354.5,-112.9027 512.5,-112.9027 512.5,-91.9027 354.5,-91.9027"/>
<text text-anchor="middle" x="433.5" y="-99.3027" font-family="Helvetica,sans-Serif" font-size="12.00" fill="#000000">CClient::createClientMenu</text>
</a>
</g>
</g>
<!-- Node9&#45;&gt;Node10 -->
<g id="edge12" class="edge">
<title>Node9&#45;&gt;Node10</title>
<path fill="none" stroke="#191970" d="M541.7418,-102.4027C531.9146,-102.4027 522.0819,-102.4027 512.5707,-102.4027"/>
<polygon fill="#191970" stroke="#191970" points="541.9672,-105.9028 551.9671,-102.4027 541.9671,-98.9028 541.9672,-105.9028"/>
</g>
<!-- Node10&#45;&gt;Node4 -->
<g id="edge13" class="edge">
<title>Node10&#45;&gt;Node4</title>
<path fill="none" stroke="#191970" d="M371.6174,-89.8431C333.4084,-82.0882 284.9497,-72.253 248.7799,-64.912"/>
<polygon fill="#191970" stroke="#191970" points="371.1027,-93.3099 381.5991,-91.8689 372.4951,-86.4497 371.1027,-93.3099"/>
</g>
<!-- Node10&#45;&gt;Node5 -->
<g id="edge14" class="edge">
<title>Node10&#45;&gt;Node5</title>
<path fill="none" stroke="#191970" d="M344.2554,-113.1942C271.1866,-118.9094 166.0495,-119.9123 79,-92.4027 61.4294,-86.8501 44.1905,-74.2266 33.2426,-65.0488"/>
<polygon fill="#191970" stroke="#191970" points="344.6705,-116.6719 354.3477,-112.359 344.0931,-109.6958 344.6705,-116.6719"/>
</g>
</g>
</svg>
        <g id="navigator" transform="translate(0 0)" fill="#404254">
                <rect fill="#f2f5e9" fill-opacity="0.5" stroke="#606060" stroke-width=".5" x="0" y="0" width="60" height="60"/>
                <use id="zoomplus" xlink:href="#zoomPlus" x="17" y="9" onmousedown="handleZoom(evt,'in')"/>
                <use id="zoomminus" xlink:href="#zoomMin" x="42" y="9" onmousedown="handleZoom(evt,'out')"/>
                <use id="reset" xlink:href="#resetDef" x="30" y="36" onmousedown="handleReset()"/>
                <g id="arrowUp" xlink:href="#dirArrow" transform="translate(30 24)" onmousedown="handlePan(0,-1)">
                  <use xlink:href="#rim" fill="#404040">
                        <set attributeName="fill" to="#808080" begin="arrowUp.mouseover" end="arrowUp.mouseout"/>
                  </use>
                  <path fill="none" stroke="white" stroke-width="1.5" d="M0,-3.0v7 M-2.5,-0.5L0,-3.0L2.5,-0.5"/>
                </g>
                <g id="arrowRight" xlink:href="#dirArrow" transform="rotate(90) translate(36 -43)" onmousedown="handlePan(1,0)">
                  <use xlink:href="#rim" fill="#404040">
                        <set attributeName="fill" to="#808080" begin="arrowRight.mouseover" end="arrowRight.mouseout"/>
                  </use>
                  <path fill="none" stroke="white" stroke-width="1.5" d="M0,-3.0v7 M-2.5,-0.5L0,-3.0L2.5,-0.5"/>
                </g>
                <g id="arrowDown" xlink:href="#dirArrow" transform="rotate(180) translate(-30 -48)" onmousedown="handlePan(0,1)">
                  <use xlink:href="#rim" fill="#404040">
                        <set attributeName="fill" to="#808080" begin="arrowDown.mouseover" end="arrowDown.mouseout"/>
                  </use>
                  <path fill="none" stroke="white" stroke-width="1.5" d="M0,-3.0v7 M-2.5,-0.5L0,-3.0L2.5,-0.5"/>
                </g>
                <g id="arrowLeft" xlink:href="#dirArrow" transform="rotate(270) translate(-36 17)" onmousedown="handlePan(-1,0)">
                  <use xlink:href="#rim" fill="#404040">
                        <set attributeName="fill" to="#808080" begin="arrowLeft.mouseover" end="arrowLeft.mouseout"/>
                  </use>
                  <path fill="none" stroke="white" stroke-width="1.5" d="M0,-3.0v7 M-2.5,-0.5L0,-3.0L2.5,-0.5"/>
                </g>
        </g>
        <svg viewBox="0 0 15 15" width="100%" height="30px" preserveAspectRatio="xMaxYMin meet">
         <g id="arrow_out" transform="scale(0.3 0.3)">
          <a xlink:href="classCDataBase_a4d52b0dbf60c0295aea772711839332d_icgraph_org.svg" target="_base">
           <rect id="button" ry="5" rx="5" y="6" x="6" height="38" width="38"
                fill="#f2f5e9" fill-opacity="0.5" stroke="#606060" stroke-width="1.0"/>
           <path id="arrow"
             d="M 11.500037,31.436501 C 11.940474,20.09759 22.043105,11.32322 32.158766,21.979434 L 37.068811,17.246167 C 37.068811,17.246167 37.088388,32 37.088388,32 L 22.160133,31.978069 C 22.160133,31.978069 26.997745,27.140456 26.997745,27.140456 C 18.528582,18.264221 13.291696,25.230495 11.500037,31.436501 z"
             style="fill:#404040;"/>
          </a>
         </g>
        </svg>
</svg>
