<?xml version="1.0" encoding="UTF-8" standalone="no"?>
<!DOCTYPE svg PUBLIC "-//W3C//DTD SVG 1.1//EN"
 "http://www.w3.org/Graphics/SVG/1.1/DTD/svg11.dtd">
<!-- Generated by graphviz version 2.40.1 (20161225.0304)
 -->
<!-- Title: CDataBase::choosePortfolio Pages: 1 -->
<!--zoomable 390 -->
<svg id="main" version="1.1" xmlns="http://www.w3.org/2000/svg" xmlns:xlink="http://www.w3.org/1999/xlink" xml:space="preserve" onload="init(evt)">
<style type="text/css"><![CDATA[
.edge:hover path { stroke: red; }
.edge:hover polygon { stroke: red; fill: red; }
]]></style>
<script type="text/javascript"><![CDATA[
var edges = document.getElementsByTagName('g');
if (edges && edges.length) {
  for (var i=0;i<edges.length;i++) {
    if (edges[i].id.substr(0,4)=='edge') {
      edges[i].setAttribute('class','edge');
    }
  }
}
]]></script>
        <defs>
                <circle id="rim" cx="0" cy="0" r="7"/>
                <circle id="rim2" cx="0" cy="0" r="3.5"/>
                <g id="zoomPlus">
                        <use xlink:href="#rim" fill="#404040">
                                <set attributeName="fill" to="#808080" begin="zoomplus.mouseover" end="zoomplus.mouseout"/>
                        </use>
                        <path d="M-4,0h8M0,-4v8" fill="none" stroke="white" stroke-width="1.5" pointer-events="none"/>
                </g>
                <g id="zoomMin">
                        <use xlink:href="#rim" fill="#404040">
                                <set attributeName="fill" to="#808080" begin="zoomminus.mouseover" end="zoomminus.mouseout"/>
                        </use>
                        <path d="M-4,0h8" fill="none" stroke="white" stroke-width="1.5" pointer-events="none"/>
                </g>
                <g id="dirArrow">
                        <path fill="none" stroke="white" stroke-width="1.5" d="M0,-3.0v7 M-2.5,-0.5L0,-3.0L2.5,-0.5"/>
                </g>
               <g id="resetDef">
                       <use xlink:href="#rim2" fill="#404040">
                               <set attributeName="fill" to="#808080" begin="reset.mouseover" end="reset.mouseout"/>
                       </use>
               </g>
        </defs>

<script type="text/javascript">
var viewWidth = 963;
var viewHeight = 390;
var sectionId = 'dynsection-1';
</script>
<script xlink:href="../../svgpan.js"/>
<svg id="graph" class="graph">
<g id="viewport">
<title>CDataBase::choosePortfolio</title>
<!-- Node1 -->
<g id="node1" class="node">
<title>Node1</title>
<g id="a_node1"><a xlink:title=" ">
<polygon fill="#bfbfbf" stroke="#000000" points="0,-180.5 0,-201.5 168,-201.5 168,-180.5 0,-180.5"/>
<text text-anchor="middle" x="84" y="-187.9" font-family="Helvetica,sans-Serif" font-size="12.00" fill="#000000">CDataBase::choosePortfolio</text>
</a>
</g>
</g>
<!-- Node2 -->
<g id="node2" class="node">
<title>Node2</title>
<g id="a_node2"><a xlink:href="../../d5/de1/classCDataBase.html#a06e986cfe90b12db4e651ca70f4c6949" target="_top" xlink:title="Method get and set data of ETF to database in this program database are the files and relation with t...">
<polygon fill="none" stroke="#000000" points="207.5,-160.5 207.5,-181.5 359.5,-181.5 359.5,-160.5 207.5,-160.5"/>
<text text-anchor="middle" x="283.5" y="-167.9" font-family="Helvetica,sans-Serif" font-size="12.00" fill="#000000">CDataBase::inputForETF</text>
</a>
</g>
</g>
<!-- Node1&#45;&gt;Node2 -->
<g id="edge1" class="edge">
<title>Node1&#45;&gt;Node2</title>
<path fill="none" stroke="#191970" d="M168.0278,-182.5762C177.6699,-181.6095 187.5131,-180.6227 197.1847,-179.6532"/>
<polygon fill="#191970" stroke="#191970" points="197.5849,-183.1307 207.1858,-178.6505 196.8865,-176.1656 197.5849,-183.1307"/>
</g>
<!-- Node18 -->
<g id="node18" class="node">
<title>Node18</title>
<g id="a_node18"><a xlink:href="../../d5/de1/classCDataBase.html#a763fc57fb5ad33e7d4ef92dd32698f34" target="_top" xlink:title="Method get and set data of Stocks to database in this program database are the files and relation wit...">
<polygon fill="none" stroke="#000000" points="204,-200.5 204,-221.5 363,-221.5 363,-200.5 204,-200.5"/>
<text text-anchor="middle" x="283.5" y="-207.9" font-family="Helvetica,sans-Serif" font-size="12.00" fill="#000000">CDataBase::inputForStock</text>
</a>
</g>
</g>
<!-- Node1&#45;&gt;Node18 -->
<g id="edge17" class="edge">
<title>Node1&#45;&gt;Node18</title>
<path fill="none" stroke="#191970" d="M168.0278,-199.4238C176.5235,-200.2755 185.1754,-201.1429 193.7284,-202.0003"/>
<polygon fill="#191970" stroke="#191970" points="193.4089,-205.4858 203.7082,-203.0008 194.1072,-198.5207 193.4089,-205.4858"/>
</g>
<!-- Node3 -->
<g id="node3" class="node">
<title>Node3</title>
<g id="a_node3"><a xlink:href="../../db/d52/classCRisk.html#aea7aecfae721440bbed175e109518464" target="_top" xlink:title="Method calculate matrix of covariance and variance for portfolio to help calculate risk of the portfo...">
<polygon fill="none" stroke="#000000" points="416.5,-221 416.5,-255 578.5,-255 578.5,-221 416.5,-221"/>
<text text-anchor="start" x="424.5" y="-241.4" font-family="Helvetica,sans-Serif" font-size="12.00" fill="#000000">CRisk::covarianceVariance</text>
<text text-anchor="middle" x="497.5" y="-228.4" font-family="Helvetica,sans-Serif" font-size="12.00" fill="#000000">Matrix</text>
</a>
</g>
</g>
<!-- Node2&#45;&gt;Node3 -->
<g id="edge2" class="edge">
<title>Node2&#45;&gt;Node3</title>
<path fill="none" stroke="#191970" d="M333.7478,-181.5268C343.5947,-184.1783 353.7363,-187.3345 363,-191 380.0195,-197.7343 382.0525,-204.0867 399,-211 404.872,-213.3953 411.0259,-215.6484 417.2682,-217.7521"/>
<polygon fill="#191970" stroke="#191970" points="416.5309,-221.192 427.1226,-220.9341 418.6819,-214.5306 416.5309,-221.192"/>
</g>
<!-- Node4 -->
<g id="node4" class="node">
<title>Node4</title>
<g id="a_node4"><a xlink:href="../../dc/d85/classCAsset.html#ab68c11feace8e8f4b9852404a458796c" target="_top" xlink:title="Method get data from database through the class CDataBase.">
<polygon fill="none" stroke="#000000" points="430.5,-180.5 430.5,-201.5 564.5,-201.5 564.5,-180.5 430.5,-180.5"/>
<text text-anchor="middle" x="497.5" y="-187.9" font-family="Helvetica,sans-Serif" font-size="12.00" fill="#000000">CAsset::getFromBase</text>
</a>
</g>
</g>
<!-- Node2&#45;&gt;Node4 -->
<g id="edge3" class="edge">
<title>Node2&#45;&gt;Node4</title>
<path fill="none" stroke="#191970" d="M359.5509,-178.1076C379.1932,-179.9433 400.3579,-181.9213 420.0697,-183.7635"/>
<polygon fill="#191970" stroke="#191970" points="419.9472,-187.2672 430.2295,-184.713 420.5986,-180.2976 419.9472,-187.2672"/>
</g>
<!-- Node15 -->
<g id="node15" class="node">
<title>Node15</title>
<g id="a_node15"><a xlink:href="../../d5/de1/classCDataBase.html#a57a02c1f3a727f142c42c24789882730" target="_top" xlink:title=" ">
<polygon fill="none" stroke="#000000" points="399,-100.5 399,-121.5 596,-121.5 596,-100.5 399,-100.5"/>
<text text-anchor="middle" x="497.5" y="-107.9" font-family="Helvetica,sans-Serif" font-size="12.00" fill="#000000">CDataBase::getMStrToetfPortfolio</text>
</a>
</g>
</g>
<!-- Node2&#45;&gt;Node15 -->
<g id="edge14" class="edge">
<title>Node2&#45;&gt;Node15</title>
<path fill="none" stroke="#191970" d="M310.7155,-160.4228C333.9194,-151.6841 368.2959,-139.3938 399,-131 408.6574,-128.3599 418.9336,-125.8986 429.0661,-123.6685"/>
<polygon fill="#191970" stroke="#191970" points="430.0759,-127.0318 439.1226,-121.5175 428.6117,-120.1867 430.0759,-127.0318"/>
</g>
<!-- Node16 -->
<g id="node16" class="node">
<title>Node16</title>
<g id="a_node16"><a xlink:href="../../dd/d09/classCReturn.html#a4ae6568cb0c834cce8f257e8a82966c3" target="_top" xlink:title="Method calculate portfolio which have the biggest return with the lowest risk.">
<polygon fill="none" stroke="#000000" points="422,-140.5 422,-161.5 573,-161.5 573,-140.5 422,-140.5"/>
<text text-anchor="middle" x="497.5" y="-147.9" font-family="Helvetica,sans-Serif" font-size="12.00" fill="#000000">CReturn::optimalPortfolio</text>
</a>
</g>
</g>
<!-- Node2&#45;&gt;Node16 -->
<g id="edge15" class="edge">
<title>Node2&#45;&gt;Node16</title>
<path fill="none" stroke="#191970" d="M359.5509,-163.8924C376.4226,-162.3156 394.4175,-160.6339 411.65,-159.0234"/>
<polygon fill="#191970" stroke="#191970" points="412.0631,-162.5001 421.694,-158.0847 411.4116,-155.5305 412.0631,-162.5001"/>
</g>
<!-- Node5 -->
<g id="node5" class="node">
<title>Node5</title>
<g id="a_node5"><a xlink:href="../../d7/d8f/classCStock.html#ac29f9a8363a2388481e44526a0d4aa06" target="_top" xlink:title=" ">
<polygon fill="none" stroke="#000000" points="649,-280.5 649,-301.5 816,-301.5 816,-280.5 649,-280.5"/>
<text text-anchor="middle" x="732.5" y="-287.9" font-family="Helvetica,sans-Serif" font-size="12.00" fill="#000000">CStock::getMStrPathToAppl</text>
</a>
</g>
</g>
<!-- Node4&#45;&gt;Node5 -->
<g id="edge4" class="edge">
<title>Node4&#45;&gt;Node5</title>
<path fill="none" stroke="#191970" d="M564.7074,-196.8529C575.8296,-199.9409 586.7382,-204.4527 596,-211 621.3941,-228.9514 606.5711,-253.098 632,-271 634.6912,-272.8946 637.5182,-274.6198 640.4474,-276.1902"/>
<polygon fill="#191970" stroke="#191970" points="638.9693,-279.3627 649.508,-280.4516 641.9485,-273.0283 638.9693,-279.3627"/>
</g>
<!-- Node6 -->
<g id="node6" class="node">
<title>Node6</title>
<g id="a_node6"><a xlink:href="../../d7/d8f/classCStock.html#a71879b1e890394887791d3746cb7ef04" target="_top" xlink:title=" ">
<polygon fill="none" stroke="#000000" points="642,-240.5 642,-261.5 823,-261.5 823,-240.5 642,-240.5"/>
<text text-anchor="middle" x="732.5" y="-247.9" font-family="Helvetica,sans-Serif" font-size="12.00" fill="#000000">CStock::getMStrPathToGoogle</text>
</a>
</g>
</g>
<!-- Node4&#45;&gt;Node6 -->
<g id="edge5" class="edge">
<title>Node4&#45;&gt;Node6</title>
<path fill="none" stroke="#191970" d="M563.7181,-201.531C574.6627,-204.0972 585.7691,-207.2224 596,-211 613.1703,-217.3399 614.8175,-224.6934 632,-231 639.2805,-233.6722 646.9957,-236.0142 654.7864,-238.0611"/>
<polygon fill="#191970" stroke="#191970" points="654.1209,-241.5018 664.6681,-240.4986 655.7974,-234.7055 654.1209,-241.5018"/>
</g>
<!-- Node7 -->
<g id="node7" class="node">
<title>Node7</title>
<g id="a_node7"><a xlink:href="../../d0/dc4/classCETF.html#af8e267a244a73e0ad7038f83b5ec26b0" target="_top" xlink:title=" ">
<polygon fill="none" stroke="#000000" points="657,-200.5 657,-221.5 808,-221.5 808,-200.5 657,-200.5"/>
<text text-anchor="middle" x="732.5" y="-207.9" font-family="Helvetica,sans-Serif" font-size="12.00" fill="#000000">CETF::getMStrPathToIxn</text>
</a>
</g>
</g>
<!-- Node4&#45;&gt;Node7 -->
<g id="edge6" class="edge">
<title>Node4&#45;&gt;Node7</title>
<path fill="none" stroke="#191970" d="M564.5271,-196.7044C590.0296,-198.8749 619.4488,-201.3786 646.4707,-203.6784"/>
<polygon fill="#191970" stroke="#191970" points="646.4357,-207.1879 656.6965,-204.5486 647.0294,-200.2132 646.4357,-207.1879"/>
</g>
<!-- Node8 -->
<g id="node8" class="node">
<title>Node8</title>
<g id="a_node8"><a xlink:href="../../d0/dc4/classCETF.html#a8d19cc867f54575686cf448a2d17af38" target="_top" xlink:title=" ">
<polygon fill="none" stroke="#000000" points="653.5,-160.5 653.5,-181.5 811.5,-181.5 811.5,-160.5 653.5,-160.5"/>
<text text-anchor="middle" x="732.5" y="-167.9" font-family="Helvetica,sans-Serif" font-size="12.00" fill="#000000">CETF::getMStrPathToQqq</text>
</a>
</g>
</g>
<!-- Node4&#45;&gt;Node8 -->
<g id="edge7" class="edge">
<title>Node4&#45;&gt;Node8</title>
<path fill="none" stroke="#191970" d="M564.5271,-185.2956C588.9592,-183.2162 616.986,-180.831 643.0557,-178.6123"/>
<polygon fill="#191970" stroke="#191970" points="643.6539,-182.0741 653.3211,-177.7386 643.0602,-175.0993 643.6539,-182.0741"/>
</g>
<!-- Node9 -->
<g id="node9" class="node">
<title>Node9</title>
<g id="a_node9"><a xlink:href="../../d0/dc4/classCETF.html#a477bc0a30dca4ce9bf7a9a52e121324b" target="_top" xlink:title=" ">
<polygon fill="none" stroke="#000000" points="656.5,-120.5 656.5,-141.5 808.5,-141.5 808.5,-120.5 656.5,-120.5"/>
<text text-anchor="middle" x="732.5" y="-127.9" font-family="Helvetica,sans-Serif" font-size="12.00" fill="#000000">CETF::getMStrPathToXlk</text>
</a>
</g>
</g>
<!-- Node4&#45;&gt;Node9 -->
<g id="edge8" class="edge">
<title>Node4&#45;&gt;Node9</title>
<path fill="none" stroke="#191970" d="M563.7181,-180.469C574.6627,-177.9028 585.7691,-174.7776 596,-171 613.1703,-164.6601 614.8175,-157.3066 632,-151 639.2805,-148.3278 646.9957,-145.9858 654.7864,-143.9389"/>
<polygon fill="#191970" stroke="#191970" points="655.7974,-147.2945 664.6681,-141.5014 654.1209,-140.4982 655.7974,-147.2945"/>
</g>
<!-- Node10 -->
<g id="node10" class="node">
<title>Node10</title>
<g id="a_node10"><a xlink:href="../../d7/d8f/classCStock.html#a157bab205439811406e6aa5da0fcaddd" target="_top" xlink:title=" ">
<polygon fill="none" stroke="#000000" points="632,-80.5 632,-101.5 833,-101.5 833,-80.5 632,-80.5"/>
<text text-anchor="middle" x="732.5" y="-87.9" font-family="Helvetica,sans-Serif" font-size="12.00" fill="#000000">CStock::getMStrPathtToAmznDate</text>
</a>
</g>
</g>
<!-- Node4&#45;&gt;Node10 -->
<g id="edge9" class="edge">
<title>Node4&#45;&gt;Node10</title>
<path fill="none" stroke="#191970" d="M564.7074,-185.1471C575.8296,-182.0591 586.7382,-177.5473 596,-171 621.3941,-153.0486 606.5711,-128.902 632,-111 634.6912,-109.1054 637.5182,-107.3802 640.4474,-105.8098"/>
<polygon fill="#191970" stroke="#191970" points="641.9485,-108.9717 649.508,-101.5484 638.9693,-102.6373 641.9485,-108.9717"/>
</g>
<!-- Node11 -->
<g id="node11" class="node">
<title>Node11</title>
<g id="a_node11"><a xlink:href="../../dc/d85/classCAsset.html#a48d22720b57dc24776a9023be661bff9" target="_top" xlink:title="Method calculate mean of one Asset.">
<polygon fill="none" stroke="#000000" points="665.5,-40.5 665.5,-61.5 799.5,-61.5 799.5,-40.5 665.5,-40.5"/>
<text text-anchor="middle" x="732.5" y="-47.9" font-family="Helvetica,sans-Serif" font-size="12.00" fill="#000000">CAsset::meanOfAsset</text>
</a>
</g>
</g>
<!-- Node4&#45;&gt;Node11 -->
<g id="edge10" class="edge">
<title>Node4&#45;&gt;Node11</title>
<path fill="none" stroke="#191970" d="M564.5732,-186.9664C576.0292,-183.7335 587.089,-178.7024 596,-171 631.7368,-140.11 596.2033,-101.8206 632,-71 638.9304,-65.033 647.1299,-60.656 655.8094,-57.471"/>
<polygon fill="#191970" stroke="#191970" points="656.8878,-60.8009 665.3786,-54.4639 654.7892,-54.1229 656.8878,-60.8009"/>
</g>
<!-- Node12 -->
<g id="node12" class="node">
<title>Node12</title>
<g id="a_node12"><a xlink:href="../../dc/d85/classCAsset.html#aa855b3cfd867f9788d1cc0e5db7c3870" target="_top" xlink:title="Method return diffrence between vector of returns and double value of mean of return of Asset.">
<polygon fill="none" stroke="#000000" points="636.5,-360.5 636.5,-381.5 828.5,-381.5 828.5,-360.5 636.5,-360.5"/>
<text text-anchor="middle" x="732.5" y="-367.9" font-family="Helvetica,sans-Serif" font-size="12.00" fill="#000000">CAsset::returnAndMeanDiffrence</text>
</a>
</g>
</g>
<!-- Node4&#45;&gt;Node12 -->
<g id="edge11" class="edge">
<title>Node4&#45;&gt;Node12</title>
<path fill="none" stroke="#191970" d="M564.67,-194.2221C576.2528,-197.5091 587.3337,-202.7678 596,-211 642.5808,-255.2474 585.3334,-306.8431 632,-351 633.3326,-352.2609 634.7209,-353.4527 636.1583,-354.5789"/>
<polygon fill="#191970" stroke="#191970" points="634.6068,-357.7485 644.8809,-360.336 638.4629,-351.9063 634.6068,-357.7485"/>
</g>
<!-- Node13 -->
<g id="node13" class="node">
<title>Node13</title>
<g id="a_node13"><a xlink:href="../../dc/d85/classCAsset.html#a96031ecbece20a71af492b3cf5063f0b" target="_top" xlink:title="Method returns what is returns of one Asset in the setting period, get info for this from database.">
<polygon fill="none" stroke="#000000" points="665.5,-320.5 665.5,-341.5 799.5,-341.5 799.5,-320.5 665.5,-320.5"/>
<text text-anchor="middle" x="732.5" y="-327.9" font-family="Helvetica,sans-Serif" font-size="12.00" fill="#000000">CAsset::returnOfAsset</text>
</a>
</g>
</g>
<!-- Node4&#45;&gt;Node13 -->
<g id="edge12" class="edge">
<title>Node4&#45;&gt;Node13</title>
<path fill="none" stroke="#191970" d="M564.5732,-195.0336C576.0292,-198.2665 587.089,-203.2976 596,-211 631.7368,-241.89 596.2033,-280.1794 632,-311 638.9304,-316.967 647.1299,-321.344 655.8094,-324.529"/>
<polygon fill="#191970" stroke="#191970" points="654.7892,-327.8771 665.3786,-327.5361 656.8878,-321.1991 654.7892,-327.8771"/>
</g>
<!-- Node14 -->
<g id="node14" class="node">
<title>Node14</title>
<g id="a_node14"><a xlink:href="../../dc/d85/classCAsset.html#ae862a51b2a6ea0668c19a07f081e0b3c" target="_top" xlink:title="Method helps to set size of vector for next method returnOfAsset()">
<polygon fill="none" stroke="#000000" points="869,-320.5 869,-341.5 955,-341.5 955,-320.5 869,-320.5"/>
<text text-anchor="middle" x="912" y="-327.9" font-family="Helvetica,sans-Serif" font-size="12.00" fill="#000000">CAsset::slice</text>
</a>
</g>
</g>
<!-- Node13&#45;&gt;Node14 -->
<g id="edge13" class="edge">
<title>Node13&#45;&gt;Node14</title>
<path fill="none" stroke="#191970" d="M799.5944,-331C819.171,-331 840.2863,-331 858.8725,-331"/>
<polygon fill="#191970" stroke="#191970" points="858.9121,-334.5001 868.9121,-331 858.912,-327.5001 858.9121,-334.5001"/>
</g>
<!-- Node17 -->
<g id="node17" class="node">
<title>Node17</title>
<g id="a_node17"><a xlink:href="../../db/d52/classCRisk.html#a8742c21ca8a8034b4fe20b3676ab931b" target="_top" xlink:title="Method calculate risk of the portfolio &#45; standard deviation to help calculate std of portfolio taking...">
<polygon fill="none" stroke="#000000" points="674.5,-.5 674.5,-21.5 790.5,-21.5 790.5,-.5 674.5,-.5"/>
<text text-anchor="middle" x="732.5" y="-7.9" font-family="Helvetica,sans-Serif" font-size="12.00" fill="#000000">CRisk::portfolioStd</text>
</a>
</g>
</g>
<!-- Node16&#45;&gt;Node17 -->
<g id="edge16" class="edge">
<title>Node16&#45;&gt;Node17</title>
<path fill="none" stroke="#191970" d="M573.373,-144.0741C581.6195,-140.9453 589.3993,-136.7055 596,-131 631.7368,-100.11 596.2033,-61.8206 632,-31 641.1632,-23.1105 652.5452,-18.0006 664.3217,-14.7504"/>
<polygon fill="#191970" stroke="#191970" points="665.3196,-18.1118 674.2668,-12.4374 663.7339,-11.2937 665.3196,-18.1118"/>
</g>
<!-- Node18&#45;&gt;Node3 -->
<g id="edge18" class="edge">
<title>Node18&#45;&gt;Node3</title>
<path fill="none" stroke="#191970" d="M363.1857,-221.0538C377.1469,-222.8153 391.773,-224.6606 406.0237,-226.4586"/>
<polygon fill="#191970" stroke="#191970" points="405.9598,-229.9782 416.3193,-227.7576 406.8361,-223.0333 405.9598,-229.9782"/>
</g>
<!-- Node18&#45;&gt;Node4 -->
<g id="edge19" class="edge">
<title>Node18&#45;&gt;Node4</title>
<path fill="none" stroke="#191970" d="M363.1857,-203.5527C381.8353,-201.8098 401.6713,-199.956 420.2142,-198.223"/>
<polygon fill="#191970" stroke="#191970" points="420.7362,-201.6895 430.3671,-197.2741 420.0847,-194.7199 420.7362,-201.6895"/>
</g>
<!-- Node18&#45;&gt;Node16 -->
<g id="edge21" class="edge">
<title>Node18&#45;&gt;Node16</title>
<path fill="none" stroke="#191970" d="M333.7478,-200.4732C343.5947,-197.8217 353.7363,-194.6655 363,-191 380.0195,-184.2657 381.8297,-177.3399 399,-171 406.1936,-168.3438 413.82,-166.0103 421.5187,-163.9668"/>
<polygon fill="#191970" stroke="#191970" points="422.4265,-167.3476 431.2819,-161.531 420.732,-160.5558 422.4265,-167.3476"/>
</g>
<!-- Node19 -->
<g id="node19" class="node">
<title>Node19</title>
<g id="a_node19"><a xlink:href="../../d5/de1/classCDataBase.html#a4d52b0dbf60c0295aea772711839332d" target="_top" xlink:title=" ">
<polygon fill="none" stroke="#000000" points="402,-274.5 402,-295.5 593,-295.5 593,-274.5 402,-274.5"/>
<text text-anchor="middle" x="497.5" y="-281.9" font-family="Helvetica,sans-Serif" font-size="12.00" fill="#000000">CDataBase::getMStrToItPortfolio</text>
</a>
</g>
</g>
<!-- Node18&#45;&gt;Node19 -->
<g id="edge20" class="edge">
<title>Node18&#45;&gt;Node19</title>
<path fill="none" stroke="#191970" d="M302.9924,-221.5593C325.532,-233.3839 364.0276,-252.4054 399,-264 408.2734,-267.0745 418.1911,-269.8072 428.0301,-272.201"/>
<polygon fill="#191970" stroke="#191970" points="427.2826,-275.6206 437.816,-274.4819 428.8716,-268.8033 427.2826,-275.6206"/>
</g>
</g>
</svg>
        <g id="navigator" transform="translate(0 0)" fill="#404254">
                <rect fill="#f2f5e9" fill-opacity="0.5" stroke="#606060" stroke-width=".5" x="0" y="0" width="60" height="60"/>
                <use id="zoomplus" xlink:href="#zoomPlus" x="17" y="9" onmousedown="handleZoom(evt,'in')"/>
                <use id="zoomminus" xlink:href="#zoomMin" x="42" y="9" onmousedown="handleZoom(evt,'out')"/>
                <use id="reset" xlink:href="#resetDef" x="30" y="36" onmousedown="handleReset()"/>
                <g id="arrowUp" xlink:href="#dirArrow" transform="translate(30 24)" onmousedown="handlePan(0,-1)">
                  <use xlink:href="#rim" fill="#404040">
                        <set attributeName="fill" to="#808080" begin="arrowUp.mouseover" end="arrowUp.mouseout"/>
                  </use>
                  <path fill="none" stroke="white" stroke-width="1.5" d="M0,-3.0v7 M-2.5,-0.5L0,-3.0L2.5,-0.5"/>
                </g>
                <g id="arrowRight" xlink:href="#dirArrow" transform="rotate(90) translate(36 -43)" onmousedown="handlePan(1,0)">
                  <use xlink:href="#rim" fill="#404040">
                        <set attributeName="fill" to="#808080" begin="arrowRight.mouseover" end="arrowRight.mouseout"/>
                  </use>
                  <path fill="none" stroke="white" stroke-width="1.5" d="M0,-3.0v7 M-2.5,-0.5L0,-3.0L2.5,-0.5"/>
                </g>
                <g id="arrowDown" xlink:href="#dirArrow" transform="rotate(180) translate(-30 -48)" onmousedown="handlePan(0,1)">
                  <use xlink:href="#rim" fill="#404040">
                        <set attributeName="fill" to="#808080" begin="arrowDown.mouseover" end="arrowDown.mouseout"/>
                  </use>
                  <path fill="none" stroke="white" stroke-width="1.5" d="M0,-3.0v7 M-2.5,-0.5L0,-3.0L2.5,-0.5"/>
                </g>
                <g id="arrowLeft" xlink:href="#dirArrow" transform="rotate(270) translate(-36 17)" onmousedown="handlePan(-1,0)">
                  <use xlink:href="#rim" fill="#404040">
                        <set attributeName="fill" to="#808080" begin="arrowLeft.mouseover" end="arrowLeft.mouseout"/>
                  </use>
                  <path fill="none" stroke="white" stroke-width="1.5" d="M0,-3.0v7 M-2.5,-0.5L0,-3.0L2.5,-0.5"/>
                </g>
        </g>
        <svg viewBox="0 0 15 15" width="100%" height="30px" preserveAspectRatio="xMaxYMin meet">
         <g id="arrow_out" transform="scale(0.3 0.3)">
          <a xlink:href="classCDataBase_aa61685a913b467ab78f3a52823f15339_cgraph_org.svg" target="_base">
           <rect id="button" ry="5" rx="5" y="6" x="6" height="38" width="38"
                fill="#f2f5e9" fill-opacity="0.5" stroke="#606060" stroke-width="1.0"/>
           <path id="arrow"
             d="M 11.500037,31.436501 C 11.940474,20.09759 22.043105,11.32322 32.158766,21.979434 L 37.068811,17.246167 C 37.068811,17.246167 37.088388,32 37.088388,32 L 22.160133,31.978069 C 22.160133,31.978069 26.997745,27.140456 26.997745,27.140456 C 18.528582,18.264221 13.291696,25.230495 11.500037,31.436501 z"
             style="fill:#404040;"/>
          </a>
         </g>
        </svg>
</svg>
