<?xml version="1.0" encoding="UTF-8" standalone="no"?>
<!DOCTYPE svg PUBLIC "-//W3C//DTD SVG 1.1//EN"
 "http://www.w3.org/Graphics/SVG/1.1/DTD/svg11.dtd">
<!-- Generated by graphviz version 2.40.1 (20161225.0304)
 -->
<!-- Title: CDataBase::getMStrToetfPortfolio Pages: 1 -->
<svg width="948pt" height="108pt"
 viewBox="0.00 0.00 948.00 108.00" xmlns="http://www.w3.org/2000/svg" xmlns:xlink="http://www.w3.org/1999/xlink">
<g id="graph0" class="graph" transform="scale(1 1) rotate(0) translate(4 104)">
<title>CDataBase::getMStrToetfPortfolio</title>
<!-- Node1 -->
<g id="node1" class="node">
<title>Node1</title>
<g id="a_node1"><a xlink:title=" ">
<polygon fill="#bfbfbf" stroke="#000000" points="743,-39.5 743,-60.5 940,-60.5 940,-39.5 743,-39.5"/>
<text text-anchor="middle" x="841.5" y="-46.9" font-family="Helvetica,sans-Serif" font-size="12.00" fill="#000000">CDataBase::getMStrToetfPortfolio</text>
</a>
</g>
</g>
<!-- Node2 -->
<g id="node2" class="node">
<title>Node2</title>
<g id="a_node2"><a xlink:href="../../d5/de1/classCDataBase.html#a06e986cfe90b12db4e651ca70f4c6949" target="_top" xlink:title="Method get and set data of ETF to database in this program database are the files and relation with t...">
<polygon fill="none" stroke="#000000" points="555,-39.5 555,-60.5 707,-60.5 707,-39.5 555,-39.5"/>
<text text-anchor="middle" x="631" y="-46.9" font-family="Helvetica,sans-Serif" font-size="12.00" fill="#000000">CDataBase::inputForETF</text>
</a>
</g>
</g>
<!-- Node1&#45;&gt;Node2 -->
<g id="edge1" class="edge">
<title>Node1&#45;&gt;Node2</title>
<path fill="none" stroke="#191970" d="M732.6146,-50C724.0057,-50 715.4294,-50 707.1162,-50"/>
<polygon fill="#191970" stroke="#191970" points="732.7217,-53.5001 742.7217,-50 732.7217,-46.5001 732.7217,-53.5001"/>
</g>
<!-- Node3 -->
<g id="node3" class="node">
<title>Node3</title>
<g id="a_node3"><a xlink:href="../../d5/de1/classCDataBase.html#aa61685a913b467ab78f3a52823f15339" target="_top" xlink:title=" ">
<polygon fill="none" stroke="#000000" points="351,-78.5 351,-99.5 519,-99.5 519,-78.5 351,-78.5"/>
<text text-anchor="middle" x="435" y="-85.9" font-family="Helvetica,sans-Serif" font-size="12.00" fill="#000000">CDataBase::choosePortfolio</text>
</a>
</g>
</g>
<!-- Node2&#45;&gt;Node3 -->
<g id="edge2" class="edge">
<title>Node2&#45;&gt;Node3</title>
<path fill="none" stroke="#191970" d="M568.1323,-62.5094C542.2558,-67.6583 512.6127,-73.5566 487.8765,-78.4787"/>
<polygon fill="#191970" stroke="#191970" points="569.0931,-65.8869 578.2178,-60.5026 567.727,-59.0215 569.0931,-65.8869"/>
</g>
<!-- Node4 -->
<g id="node4" class="node">
<title>Node4</title>
<g id="a_node4"><a xlink:href="../../da/d8b/classCAdministrator.html#a834db63b1ee3b716b1e8e97a101e51de" target="_top" xlink:title="Method with while loop, switch expression and fstream library to register the administrator and can g...">
<polygon fill="none" stroke="#000000" points="79,-39.5 79,-60.5 315,-60.5 315,-39.5 79,-39.5"/>
<text text-anchor="middle" x="197" y="-46.9" font-family="Helvetica,sans-Serif" font-size="12.00" fill="#000000">CAdministrator::createAdministratorMenu</text>
</a>
</g>
</g>
<!-- Node2&#45;&gt;Node4 -->
<g id="edge3" class="edge">
<title>Node2&#45;&gt;Node4</title>
<path fill="none" stroke="#191970" d="M544.5822,-50C478.851,-50 387.6703,-50 315.1898,-50"/>
<polygon fill="#191970" stroke="#191970" points="544.9064,-53.5001 554.9063,-50 544.9063,-46.5001 544.9064,-53.5001"/>
</g>
<!-- Node6 -->
<g id="node6" class="node">
<title>Node6</title>
<g id="a_node6"><a xlink:href="../../db/da6/classCBroker.html#abce158f7c4dce747c076db9e7d1cdf52" target="_top" xlink:title="This function create Broker menu through this you can register, change info about Broker.">
<polygon fill="none" stroke="#000000" points="352.5,-.5 352.5,-21.5 517.5,-21.5 517.5,-.5 352.5,-.5"/>
<text text-anchor="middle" x="435" y="-7.9" font-family="Helvetica,sans-Serif" font-size="12.00" fill="#000000">CBroker::createBrokerMenu</text>
</a>
</g>
</g>
<!-- Node2&#45;&gt;Node6 -->
<g id="edge6" class="edge">
<title>Node2&#45;&gt;Node6</title>
<path fill="none" stroke="#191970" d="M568.1323,-37.4906C542.2558,-32.3417 512.6127,-26.4434 487.8765,-21.5213"/>
<polygon fill="#191970" stroke="#191970" points="567.727,-40.9785 578.2178,-39.4974 569.0931,-34.1131 567.727,-40.9785"/>
</g>
<!-- Node4&#45;&gt;Node4 -->
<g id="edge4" class="edge">
<title>Node4&#45;&gt;Node4</title>
<path fill="none" stroke="#191970" d="M229.3758,-69.6791C227.6409,-74.9746 216.849,-79 197,-79 166.7539,-79 157.5383,-69.6531 169.3532,-60.7079"/>
<polygon fill="#191970" stroke="#191970" points="232.4061,-67.922 224.6468,-60.7079 226.2138,-71.1862 232.4061,-67.922"/>
</g>
<!-- Node5 -->
<g id="node5" class="node">
<title>Node5</title>
<g id="a_node5"><a xlink:href="../../df/d0a/main_8cpp.html#ae66f6b31b5ad750f1fe042a706a4e3d4" target="_top" xlink:title=" ">
<polygon fill="none" stroke="#000000" points="0,-19.5 0,-40.5 43,-40.5 43,-19.5 0,-19.5"/>
<text text-anchor="middle" x="21.5" y="-26.9" font-family="Helvetica,sans-Serif" font-size="12.00" fill="#000000">main</text>
</a>
</g>
</g>
<!-- Node4&#45;&gt;Node5 -->
<g id="edge5" class="edge">
<title>Node4&#45;&gt;Node5</title>
<path fill="none" stroke="#191970" d="M94.4501,-38.3134C75.1263,-36.1113 56.7886,-34.0215 43.3323,-32.488"/>
<polygon fill="#191970" stroke="#191970" points="94.2924,-41.818 104.6245,-39.4729 95.0851,-34.863 94.2924,-41.818"/>
</g>
<!-- Node6&#45;&gt;Node4 -->
<g id="edge7" class="edge">
<title>Node6&#45;&gt;Node4</title>
<path fill="none" stroke="#191970" d="M360.7394,-23.1688C328.8348,-28.3968 291.9086,-34.4478 261.2072,-39.4787"/>
<polygon fill="#191970" stroke="#191970" points="361.6049,-26.5737 370.9073,-21.5026 360.4729,-19.6658 361.6049,-26.5737"/>
</g>
<!-- Node6&#45;&gt;Node5 -->
<g id="edge8" class="edge">
<title>Node6&#45;&gt;Node5</title>
<path fill="none" stroke="#191970" d="M342.1624,-15.2658C244.7307,-19.7427 98.2317,-26.4742 43.317,-28.9975"/>
<polygon fill="#191970" stroke="#191970" points="342.4871,-18.7547 352.3159,-14.7993 342.1658,-11.7621 342.4871,-18.7547"/>
</g>
</g>
</svg>
