<?xml version="1.0" encoding="UTF-8" standalone="no"?>
<!DOCTYPE svg PUBLIC "-//W3C//DTD SVG 1.1//EN"
 "http://www.w3.org/Graphics/SVG/1.1/DTD/svg11.dtd">
<!-- Generated by graphviz version 2.40.1 (20161225.0304)
 -->
<!-- Title: CDataBase::inputForStock Pages: 1 -->
<!--zoomable 390 -->
<svg id="main" version="1.1" xmlns="http://www.w3.org/2000/svg" xmlns:xlink="http://www.w3.org/1999/xlink" xml:space="preserve" onload="init(evt)">
<style type="text/css"><![CDATA[
.edge:hover path { stroke: red; }
.edge:hover polygon { stroke: red; fill: red; }
]]></style>
<script type="text/javascript"><![CDATA[
var edges = document.getElementsByTagName('g');
if (edges && edges.length) {
  for (var i=0;i<edges.length;i++) {
    if (edges[i].id.substr(0,4)=='edge') {
      edges[i].setAttribute('class','edge');
    }
  }
}
]]></script>
        <defs>
                <circle id="rim" cx="0" cy="0" r="7"/>
                <circle id="rim2" cx="0" cy="0" r="3.5"/>
                <g id="zoomPlus">
                        <use xlink:href="#rim" fill="#404040">
                                <set attributeName="fill" to="#808080" begin="zoomplus.mouseover" end="zoomplus.mouseout"/>
                        </use>
                        <path d="M-4,0h8M0,-4v8" fill="none" stroke="white" stroke-width="1.5" pointer-events="none"/>
                </g>
                <g id="zoomMin">
                        <use xlink:href="#rim" fill="#404040">
                                <set attributeName="fill" to="#808080" begin="zoomminus.mouseover" end="zoomminus.mouseout"/>
                        </use>
                        <path d="M-4,0h8" fill="none" stroke="white" stroke-width="1.5" pointer-events="none"/>
                </g>
                <g id="dirArrow">
                        <path fill="none" stroke="white" stroke-width="1.5" d="M0,-3.0v7 M-2.5,-0.5L0,-3.0L2.5,-0.5"/>
                </g>
               <g id="resetDef">
                       <use xlink:href="#rim2" fill="#404040">
                               <set attributeName="fill" to="#808080" begin="reset.mouseover" end="reset.mouseout"/>
                       </use>
               </g>
        </defs>

<script type="text/javascript">
var viewWidth = 753;
var viewHeight = 390;
var sectionId = 'dynsection-6';
</script>
<script xlink:href="../../svgpan.js"/>
<svg id="graph" class="graph">
<g id="viewport">
<title>CDataBase::inputForStock</title>
<!-- Node1 -->
<g id="node1" class="node">
<title>Node1</title>
<g id="a_node1"><a xlink:title="Method get and set data of Stocks to database in this program database are the files and relation wit...">
<polygon fill="#bfbfbf" stroke="#000000" points="0,-160.5 0,-181.5 159,-181.5 159,-160.5 0,-160.5"/>
<text text-anchor="middle" x="79.5" y="-167.9" font-family="Helvetica,sans-Serif" font-size="12.00" fill="#000000">CDataBase::inputForStock</text>
</a>
</g>
</g>
<!-- Node2 -->
<g id="node2" class="node">
<title>Node2</title>
<g id="a_node2"><a xlink:href="../../db/d52/classCRisk.html#aea7aecfae721440bbed175e109518464" target="_top" xlink:title="Method calculate matrix of covariance and variance for portfolio to help calculate risk of the portfo...">
<polygon fill="none" stroke="#000000" points="209.5,-221 209.5,-255 371.5,-255 371.5,-221 209.5,-221"/>
<text text-anchor="start" x="217.5" y="-241.4" font-family="Helvetica,sans-Serif" font-size="12.00" fill="#000000">CRisk::covarianceVariance</text>
<text text-anchor="middle" x="290.5" y="-228.4" font-family="Helvetica,sans-Serif" font-size="12.00" fill="#000000">Matrix</text>
</a>
</g>
</g>
<!-- Node1&#45;&gt;Node2 -->
<g id="edge1" class="edge">
<title>Node1&#45;&gt;Node2</title>
<path fill="none" stroke="#191970" d="M108.7772,-181.6646C132.0323,-190.0081 165.4429,-201.7122 195,-211 202.5958,-213.3869 210.5612,-215.7918 218.5152,-218.1305"/>
<polygon fill="#191970" stroke="#191970" points="217.6064,-221.5111 228.1861,-220.9447 219.5623,-214.7899 217.6064,-221.5111"/>
</g>
<!-- Node3 -->
<g id="node3" class="node">
<title>Node3</title>
<g id="a_node3"><a xlink:href="../../dc/d85/classCAsset.html#ab68c11feace8e8f4b9852404a458796c" target="_top" xlink:title="Method get data from database through the class CDataBase.">
<polygon fill="none" stroke="#000000" points="223.5,-180.5 223.5,-201.5 357.5,-201.5 357.5,-180.5 223.5,-180.5"/>
<text text-anchor="middle" x="290.5" y="-187.9" font-family="Helvetica,sans-Serif" font-size="12.00" fill="#000000">CAsset::getFromBase</text>
</a>
</g>
</g>
<!-- Node1&#45;&gt;Node3 -->
<g id="edge2" class="edge">
<title>Node1&#45;&gt;Node3</title>
<path fill="none" stroke="#191970" d="M159.2701,-178.5611C176.9276,-180.2348 195.6093,-182.0056 213.1678,-183.6699"/>
<polygon fill="#191970" stroke="#191970" points="213.0743,-187.1767 223.36,-184.636 213.7349,-180.2079 213.0743,-187.1767"/>
</g>
<!-- Node14 -->
<g id="node14" class="node">
<title>Node14</title>
<g id="a_node14"><a xlink:href="../../d5/de1/classCDataBase.html#a4d52b0dbf60c0295aea772711839332d" target="_top" xlink:title=" ">
<polygon fill="none" stroke="#000000" points="195,-140.5 195,-161.5 386,-161.5 386,-140.5 195,-140.5"/>
<text text-anchor="middle" x="290.5" y="-147.9" font-family="Helvetica,sans-Serif" font-size="12.00" fill="#000000">CDataBase::getMStrToItPortfolio</text>
</a>
</g>
</g>
<!-- Node1&#45;&gt;Node14 -->
<g id="edge13" class="edge">
<title>Node1&#45;&gt;Node14</title>
<path fill="none" stroke="#191970" d="M159.2701,-163.4389C167.5741,-162.6517 176.1047,-161.8432 184.6385,-161.0343"/>
<polygon fill="#191970" stroke="#191970" points="185.0193,-164.5139 194.6444,-160.0858 184.3587,-157.5452 185.0193,-164.5139"/>
</g>
<!-- Node15 -->
<g id="node15" class="node">
<title>Node15</title>
<g id="a_node15"><a xlink:href="../../dd/d09/classCReturn.html#a4ae6568cb0c834cce8f257e8a82966c3" target="_top" xlink:title="Method calculate portfolio which have the biggest return with the lowest risk.">
<polygon fill="none" stroke="#000000" points="215,-60.5 215,-81.5 366,-81.5 366,-60.5 215,-60.5"/>
<text text-anchor="middle" x="290.5" y="-67.9" font-family="Helvetica,sans-Serif" font-size="12.00" fill="#000000">CReturn::optimalPortfolio</text>
</a>
</g>
</g>
<!-- Node1&#45;&gt;Node15 -->
<g id="edge14" class="edge">
<title>Node1&#45;&gt;Node15</title>
<path fill="none" stroke="#191970" d="M101.6819,-160.4873C139.3568,-142.6318 215.9517,-106.331 259.1112,-85.8762"/>
<polygon fill="#191970" stroke="#191970" points="260.7611,-88.9675 268.2987,-81.5219 257.7632,-82.6419 260.7611,-88.9675"/>
</g>
<!-- Node4 -->
<g id="node4" class="node">
<title>Node4</title>
<g id="a_node4"><a xlink:href="../../d7/d8f/classCStock.html#ac29f9a8363a2388481e44526a0d4aa06" target="_top" xlink:title=" ">
<polygon fill="none" stroke="#000000" points="439,-360.5 439,-381.5 606,-381.5 606,-360.5 439,-360.5"/>
<text text-anchor="middle" x="522.5" y="-367.9" font-family="Helvetica,sans-Serif" font-size="12.00" fill="#000000">CStock::getMStrPathToAppl</text>
</a>
</g>
</g>
<!-- Node3&#45;&gt;Node4 -->
<g id="edge3" class="edge">
<title>Node3&#45;&gt;Node4</title>
<path fill="none" stroke="#191970" d="M357.8765,-195.9965C368.2965,-199.3788 378.1768,-204.4609 386,-212 431.9513,-256.2829 375.608,-307.1791 422,-351 424.4572,-353.321 427.1033,-355.4077 429.8967,-357.282"/>
<polygon fill="#191970" stroke="#191970" points="428.2565,-360.3758 438.677,-362.2899 431.7246,-354.2953 428.2565,-360.3758"/>
</g>
<!-- Node5 -->
<g id="node5" class="node">
<title>Node5</title>
<g id="a_node5"><a xlink:href="../../d7/d8f/classCStock.html#a71879b1e890394887791d3746cb7ef04" target="_top" xlink:title=" ">
<polygon fill="none" stroke="#000000" points="432,-320.5 432,-341.5 613,-341.5 613,-320.5 432,-320.5"/>
<text text-anchor="middle" x="522.5" y="-327.9" font-family="Helvetica,sans-Serif" font-size="12.00" fill="#000000">CStock::getMStrPathToGoogle</text>
</a>
</g>
</g>
<!-- Node3&#45;&gt;Node5 -->
<g id="edge4" class="edge">
<title>Node3&#45;&gt;Node5</title>
<path fill="none" stroke="#191970" d="M357.7765,-196.7964C368.0847,-200.1043 377.9542,-204.9541 386,-212 421.2222,-242.8448 386.471,-280.5092 422,-311 423.755,-312.5062 425.591,-313.9109 427.4951,-315.2207"/>
<polygon fill="#191970" stroke="#191970" points="425.8487,-318.313 436.241,-320.3749 429.4028,-312.2823 425.8487,-318.313"/>
</g>
<!-- Node6 -->
<g id="node6" class="node">
<title>Node6</title>
<g id="a_node6"><a xlink:href="../../d0/dc4/classCETF.html#af8e267a244a73e0ad7038f83b5ec26b0" target="_top" xlink:title=" ">
<polygon fill="none" stroke="#000000" points="447,-280.5 447,-301.5 598,-301.5 598,-280.5 447,-280.5"/>
<text text-anchor="middle" x="522.5" y="-287.9" font-family="Helvetica,sans-Serif" font-size="12.00" fill="#000000">CETF::getMStrPathToIxn</text>
</a>
</g>
</g>
<!-- Node3&#45;&gt;Node6 -->
<g id="edge5" class="edge">
<title>Node3&#45;&gt;Node6</title>
<path fill="none" stroke="#191970" d="M357.6438,-198.5226C367.7354,-201.6454 377.5702,-205.9858 386,-212 411.0063,-229.8406 396.8164,-253.4105 422,-271 426.8118,-274.3608 432.0526,-277.1876 437.5319,-279.5621"/>
<polygon fill="#191970" stroke="#191970" points="436.3536,-282.8585 446.9445,-283.1457 438.8443,-276.3166 436.3536,-282.8585"/>
</g>
<!-- Node7 -->
<g id="node7" class="node">
<title>Node7</title>
<g id="a_node7"><a xlink:href="../../d0/dc4/classCETF.html#a8d19cc867f54575686cf448a2d17af38" target="_top" xlink:title=" ">
<polygon fill="none" stroke="#000000" points="443.5,-240.5 443.5,-261.5 601.5,-261.5 601.5,-240.5 443.5,-240.5"/>
<text text-anchor="middle" x="522.5" y="-247.9" font-family="Helvetica,sans-Serif" font-size="12.00" fill="#000000">CETF::getMStrPathToQqq</text>
</a>
</g>
</g>
<!-- Node3&#45;&gt;Node7 -->
<g id="edge6" class="edge">
<title>Node3&#45;&gt;Node7</title>
<path fill="none" stroke="#191970" d="M350.3054,-201.5566C362.2963,-204.3944 374.6821,-207.8553 386,-212 402.9884,-218.2212 404.9502,-224.9491 422,-231 429.5687,-233.6861 437.5934,-236.0468 445.6777,-238.1133"/>
<polygon fill="#191970" stroke="#191970" points="445.0002,-241.5502 455.5419,-240.4903 446.6401,-234.745 445.0002,-241.5502"/>
</g>
<!-- Node8 -->
<g id="node8" class="node">
<title>Node8</title>
<g id="a_node8"><a xlink:href="../../d0/dc4/classCETF.html#a477bc0a30dca4ce9bf7a9a52e121324b" target="_top" xlink:title=" ">
<polygon fill="none" stroke="#000000" points="446.5,-200.5 446.5,-221.5 598.5,-221.5 598.5,-200.5 446.5,-200.5"/>
<text text-anchor="middle" x="522.5" y="-207.9" font-family="Helvetica,sans-Serif" font-size="12.00" fill="#000000">CETF::getMStrPathToXlk</text>
</a>
</g>
</g>
<!-- Node3&#45;&gt;Node8 -->
<g id="edge7" class="edge">
<title>Node3&#45;&gt;Node8</title>
<path fill="none" stroke="#191970" d="M357.604,-196.7848C382.0595,-198.8931 410.064,-201.3072 435.9686,-203.5404"/>
<polygon fill="#191970" stroke="#191970" points="435.8968,-207.0471 446.1604,-204.419 436.498,-200.073 435.8968,-207.0471"/>
</g>
<!-- Node9 -->
<g id="node9" class="node">
<title>Node9</title>
<g id="a_node9"><a xlink:href="../../d7/d8f/classCStock.html#a157bab205439811406e6aa5da0fcaddd" target="_top" xlink:title=" ">
<polygon fill="none" stroke="#000000" points="422,-160.5 422,-181.5 623,-181.5 623,-160.5 422,-160.5"/>
<text text-anchor="middle" x="522.5" y="-167.9" font-family="Helvetica,sans-Serif" font-size="12.00" fill="#000000">CStock::getMStrPathtToAmznDate</text>
</a>
</g>
</g>
<!-- Node3&#45;&gt;Node9 -->
<g id="edge8" class="edge">
<title>Node3&#45;&gt;Node9</title>
<path fill="none" stroke="#191970" d="M357.604,-185.2152C374.6197,-183.7483 393.3534,-182.1333 411.9026,-180.5343"/>
<polygon fill="#191970" stroke="#191970" points="412.2124,-184.0206 421.8748,-179.6746 411.6111,-177.0465 412.2124,-184.0206"/>
</g>
<!-- Node10 -->
<g id="node10" class="node">
<title>Node10</title>
<g id="a_node10"><a xlink:href="../../dc/d85/classCAsset.html#a48d22720b57dc24776a9023be661bff9" target="_top" xlink:title="Method calculate mean of one Asset.">
<polygon fill="none" stroke="#000000" points="455.5,-120.5 455.5,-141.5 589.5,-141.5 589.5,-120.5 455.5,-120.5"/>
<text text-anchor="middle" x="522.5" y="-127.9" font-family="Helvetica,sans-Serif" font-size="12.00" fill="#000000">CAsset::meanOfAsset</text>
</a>
</g>
</g>
<!-- Node3&#45;&gt;Node10 -->
<g id="edge9" class="edge">
<title>Node3&#45;&gt;Node10</title>
<path fill="none" stroke="#191970" d="M354.19,-180.4537C364.9659,-177.8803 375.9207,-174.7567 386,-171 403.1508,-164.6076 404.8175,-157.3066 422,-151 429.5394,-148.2328 437.5451,-145.8196 445.6181,-143.7216"/>
<polygon fill="#191970" stroke="#191970" points="446.5873,-147.0878 455.472,-141.3162 444.9273,-140.2875 446.5873,-147.0878"/>
</g>
<!-- Node11 -->
<g id="node11" class="node">
<title>Node11</title>
<g id="a_node11"><a xlink:href="../../dc/d85/classCAsset.html#aa855b3cfd867f9788d1cc0e5db7c3870" target="_top" xlink:title="Method return diffrence between vector of returns and double value of mean of return of Asset.">
<polygon fill="none" stroke="#000000" points="426.5,-80.5 426.5,-101.5 618.5,-101.5 618.5,-80.5 426.5,-80.5"/>
<text text-anchor="middle" x="522.5" y="-87.9" font-family="Helvetica,sans-Serif" font-size="12.00" fill="#000000">CAsset::returnAndMeanDiffrence</text>
</a>
</g>
</g>
<!-- Node3&#45;&gt;Node11 -->
<g id="edge10" class="edge">
<title>Node3&#45;&gt;Node11</title>
<path fill="none" stroke="#191970" d="M357.6619,-184.2929C367.7512,-181.2617 377.5806,-176.9905 386,-171 411.339,-152.971 396.5711,-128.902 422,-111 424.6912,-109.1054 427.5182,-107.3802 430.4474,-105.8098"/>
<polygon fill="#191970" stroke="#191970" points="431.9485,-108.9717 439.508,-101.5484 428.9693,-102.6373 431.9485,-108.9717"/>
</g>
<!-- Node12 -->
<g id="node12" class="node">
<title>Node12</title>
<g id="a_node12"><a xlink:href="../../dc/d85/classCAsset.html#a96031ecbece20a71af492b3cf5063f0b" target="_top" xlink:title="Method returns what is returns of one Asset in the setting period, get info for this from database.">
<polygon fill="none" stroke="#000000" points="455.5,-40.5 455.5,-61.5 589.5,-61.5 589.5,-40.5 455.5,-40.5"/>
<text text-anchor="middle" x="522.5" y="-47.9" font-family="Helvetica,sans-Serif" font-size="12.00" fill="#000000">CAsset::returnOfAsset</text>
</a>
</g>
</g>
<!-- Node3&#45;&gt;Node12 -->
<g id="edge11" class="edge">
<title>Node3&#45;&gt;Node12</title>
<path fill="none" stroke="#191970" d="M357.7653,-185.9793C368.0748,-182.7712 377.9476,-178.0035 386,-171 421.6421,-140.0008 386.2033,-101.8206 422,-71 428.9304,-65.033 437.1299,-60.656 445.8094,-57.471"/>
<polygon fill="#191970" stroke="#191970" points="446.8878,-60.8009 455.3786,-54.4639 444.7892,-54.1229 446.8878,-60.8009"/>
</g>
<!-- Node13 -->
<g id="node13" class="node">
<title>Node13</title>
<g id="a_node13"><a xlink:href="../../dc/d85/classCAsset.html#ae862a51b2a6ea0668c19a07f081e0b3c" target="_top" xlink:title="Method helps to set size of vector for next method returnOfAsset()">
<polygon fill="none" stroke="#000000" points="659,-40.5 659,-61.5 745,-61.5 745,-40.5 659,-40.5"/>
<text text-anchor="middle" x="702" y="-47.9" font-family="Helvetica,sans-Serif" font-size="12.00" fill="#000000">CAsset::slice</text>
</a>
</g>
</g>
<!-- Node12&#45;&gt;Node13 -->
<g id="edge12" class="edge">
<title>Node12&#45;&gt;Node13</title>
<path fill="none" stroke="#191970" d="M589.5944,-51C609.171,-51 630.2863,-51 648.8725,-51"/>
<polygon fill="#191970" stroke="#191970" points="648.9121,-54.5001 658.9121,-51 648.912,-47.5001 648.9121,-54.5001"/>
</g>
<!-- Node16 -->
<g id="node16" class="node">
<title>Node16</title>
<g id="a_node16"><a xlink:href="../../db/d52/classCRisk.html#a8742c21ca8a8034b4fe20b3676ab931b" target="_top" xlink:title="Method calculate risk of the portfolio &#45; standard deviation to help calculate std of portfolio taking...">
<polygon fill="none" stroke="#000000" points="464.5,-.5 464.5,-21.5 580.5,-21.5 580.5,-.5 464.5,-.5"/>
<text text-anchor="middle" x="522.5" y="-7.9" font-family="Helvetica,sans-Serif" font-size="12.00" fill="#000000">CRisk::portfolioStd</text>
</a>
</g>
</g>
<!-- Node15&#45;&gt;Node16 -->
<g id="edge15" class="edge">
<title>Node15&#45;&gt;Node16</title>
<path fill="none" stroke="#191970" d="M321.8743,-60.5C348.3637,-51.8661 387.3981,-39.683 422,-31 432.5027,-28.3644 443.6924,-25.8515 454.6488,-23.552"/>
<polygon fill="#191970" stroke="#191970" points="455.5283,-26.9445 464.6188,-21.5027 454.1189,-20.0878 455.5283,-26.9445"/>
</g>
</g>
</svg>
        <g id="navigator" transform="translate(0 0)" fill="#404254">
                <rect fill="#f2f5e9" fill-opacity="0.5" stroke="#606060" stroke-width=".5" x="0" y="0" width="60" height="60"/>
                <use id="zoomplus" xlink:href="#zoomPlus" x="17" y="9" onmousedown="handleZoom(evt,'in')"/>
                <use id="zoomminus" xlink:href="#zoomMin" x="42" y="9" onmousedown="handleZoom(evt,'out')"/>
                <use id="reset" xlink:href="#resetDef" x="30" y="36" onmousedown="handleReset()"/>
                <g id="arrowUp" xlink:href="#dirArrow" transform="translate(30 24)" onmousedown="handlePan(0,-1)">
                  <use xlink:href="#rim" fill="#404040">
                        <set attributeName="fill" to="#808080" begin="arrowUp.mouseover" end="arrowUp.mouseout"/>
                  </use>
                  <path fill="none" stroke="white" stroke-width="1.5" d="M0,-3.0v7 M-2.5,-0.5L0,-3.0L2.5,-0.5"/>
                </g>
                <g id="arrowRight" xlink:href="#dirArrow" transform="rotate(90) translate(36 -43)" onmousedown="handlePan(1,0)">
                  <use xlink:href="#rim" fill="#404040">
                        <set attributeName="fill" to="#808080" begin="arrowRight.mouseover" end="arrowRight.mouseout"/>
                  </use>
                  <path fill="none" stroke="white" stroke-width="1.5" d="M0,-3.0v7 M-2.5,-0.5L0,-3.0L2.5,-0.5"/>
                </g>
                <g id="arrowDown" xlink:href="#dirArrow" transform="rotate(180) translate(-30 -48)" onmousedown="handlePan(0,1)">
                  <use xlink:href="#rim" fill="#404040">
                        <set attributeName="fill" to="#808080" begin="arrowDown.mouseover" end="arrowDown.mouseout"/>
                  </use>
                  <path fill="none" stroke="white" stroke-width="1.5" d="M0,-3.0v7 M-2.5,-0.5L0,-3.0L2.5,-0.5"/>
                </g>
                <g id="arrowLeft" xlink:href="#dirArrow" transform="rotate(270) translate(-36 17)" onmousedown="handlePan(-1,0)">
                  <use xlink:href="#rim" fill="#404040">
                        <set attributeName="fill" to="#808080" begin="arrowLeft.mouseover" end="arrowLeft.mouseout"/>
                  </use>
                  <path fill="none" stroke="white" stroke-width="1.5" d="M0,-3.0v7 M-2.5,-0.5L0,-3.0L2.5,-0.5"/>
                </g>
        </g>
        <svg viewBox="0 0 15 15" width="100%" height="30px" preserveAspectRatio="xMaxYMin meet">
         <g id="arrow_out" transform="scale(0.3 0.3)">
          <a xlink:href="classCDataBase_a763fc57fb5ad33e7d4ef92dd32698f34_cgraph_org.svg" target="_base">
           <rect id="button" ry="5" rx="5" y="6" x="6" height="38" width="38"
                fill="#f2f5e9" fill-opacity="0.5" stroke="#606060" stroke-width="1.0"/>
           <path id="arrow"
             d="M 11.500037,31.436501 C 11.940474,20.09759 22.043105,11.32322 32.158766,21.979434 L 37.068811,17.246167 C 37.068811,17.246167 37.088388,32 37.088388,32 L 22.160133,31.978069 C 22.160133,31.978069 26.997745,27.140456 26.997745,27.140456 C 18.528582,18.264221 13.291696,25.230495 11.500037,31.436501 z"
             style="fill:#404040;"/>
          </a>
         </g>
        </svg>
</svg>
