<?xml version="1.0" encoding="UTF-8" standalone="no"?>
<!DOCTYPE svg PUBLIC "-//W3C//DTD SVG 1.1//EN"
 "http://www.w3.org/Graphics/SVG/1.1/DTD/svg11.dtd">
<!-- Generated by graphviz version 2.40.1 (20161225.0304)
 -->
<!-- Title: CDataBase::returnOfAsset Pages: 1 -->
<svg width="1520pt" height="253pt"
 viewBox="0.00 0.00 1520.00 253.00" xmlns="http://www.w3.org/2000/svg" xmlns:xlink="http://www.w3.org/1999/xlink">
<g id="graph0" class="graph" transform="scale(1 1) rotate(0) translate(4 249)">
<title>CDataBase::returnOfAsset</title>
<!-- Node1 -->
<g id="node1" class="node">
<title>Node1</title>
<g id="a_node1"><a xlink:title="Method calculate return of Assets.">
<polygon fill="#bfbfbf" stroke="#000000" points="1354,-113 1354,-134 1512,-134 1512,-113 1354,-113"/>
<text text-anchor="middle" x="1433" y="-120.4" font-family="Helvetica,sans-Serif" font-size="12.00" fill="#000000">CDataBase::returnOfAsset</text>
</a>
</g>
</g>
<!-- Node2 -->
<g id="node2" class="node">
<title>Node2</title>
<g id="a_node2"><a xlink:href="../../d5/de1/classCDataBase.html#a05366b9fffcc574425739ec7007d59f1" target="_top" xlink:title="Method get and set data of Stocks to database in this program database are the files and relation wit...">
<polygon fill="none" stroke="#000000" points="1159,-113 1159,-134 1318,-134 1318,-113 1159,-113"/>
<text text-anchor="middle" x="1238.5" y="-120.4" font-family="Helvetica,sans-Serif" font-size="12.00" fill="#000000">CDataBase::inputForStock</text>
</a>
</g>
</g>
<!-- Node1&#45;&gt;Node2 -->
<g id="edge1" class="edge">
<title>Node1&#45;&gt;Node2</title>
<path fill="none" stroke="#191970" d="M1343.8794,-123.5C1335.3053,-123.5 1326.6465,-123.5 1318.1718,-123.5"/>
<polygon fill="#191970" stroke="#191970" points="1343.8894,-127.0001 1353.8894,-123.5 1343.8894,-120.0001 1343.8894,-127.0001"/>
</g>
<!-- Node3 -->
<g id="node3" class="node">
<title>Node3</title>
<g id="a_node3"><a xlink:href="../../dc/d85/classCAsset.html#a88a8db3713a384a78007fe0ede5851d9" target="_top" xlink:title="Getting data from database.">
<polygon fill="none" stroke="#000000" points="965,-210.5 965,-244.5 1123,-244.5 1123,-210.5 965,-210.5"/>
<text text-anchor="start" x="973" y="-230.9" font-family="Helvetica,sans-Serif" font-size="12.00" fill="#000000">CAsset::countTotalPriceOf</text>
<text text-anchor="middle" x="1044" y="-217.9" font-family="Helvetica,sans-Serif" font-size="12.00" fill="#000000">Assets</text>
</a>
</g>
</g>
<!-- Node2&#45;&gt;Node3 -->
<g id="edge2" class="edge">
<title>Node2&#45;&gt;Node3</title>
<path fill="none" stroke="#191970" d="M1214.9322,-139.8785C1192.0722,-155.3542 1156.0855,-178.6459 1123,-195.5 1112.5835,-200.8063 1101.0727,-205.885 1090.135,-210.3712"/>
<polygon fill="#191970" stroke="#191970" points="1217.0194,-142.6915 1223.3044,-134.1621 1213.0722,-136.9105 1217.0194,-142.6915"/>
</g>
<!-- Node5 -->
<g id="node5" class="node">
<title>Node5</title>
<g id="a_node5"><a xlink:href="../../da/d8b/classCAdministrator.html#a834db63b1ee3b716b1e8e97a101e51de" target="_top" xlink:title="Method with while loop, switch expression and fstream library to register the administrator and can g...">
<polygon fill="none" stroke="#000000" points="79,-133 79,-154 315,-154 315,-133 79,-133"/>
<text text-anchor="middle" x="197" y="-140.4" font-family="Helvetica,sans-Serif" font-size="12.00" fill="#000000">CAdministrator::createAdministratorMenu</text>
</a>
</g>
</g>
<!-- Node2&#45;&gt;Node5 -->
<g id="edge4" class="edge">
<title>Node2&#45;&gt;Node5</title>
<path fill="none" stroke="#191970" d="M1148.7577,-130.8369C1071.1838,-136.5443 956.0225,-143.5 855.5,-143.5 855.5,-143.5 855.5,-143.5 649,-143.5 535.6076,-143.5 406.2141,-143.5 315.0109,-143.5"/>
<polygon fill="#191970" stroke="#191970" points="1149.2618,-134.3092 1158.9744,-130.0764 1148.7422,-127.3285 1149.2618,-134.3092"/>
</g>
<!-- Node7 -->
<g id="node7" class="node">
<title>Node7</title>
<g id="a_node7"><a xlink:href="../../db/da6/classCBroker.html#abce158f7c4dce747c076db9e7d1cdf52" target="_top" xlink:title="This function create Broker menu through this you can register, change info about Broker.">
<polygon fill="none" stroke="#000000" points="351,-172 351,-193 516,-193 516,-172 351,-172"/>
<text text-anchor="middle" x="433.5" y="-179.4" font-family="Helvetica,sans-Serif" font-size="12.00" fill="#000000">CBroker::createBrokerMenu</text>
</a>
</g>
</g>
<!-- Node2&#45;&gt;Node7 -->
<g id="edge7" class="edge">
<title>Node2&#45;&gt;Node7</title>
<path fill="none" stroke="#191970" d="M1200.2828,-137.3691C1178.0474,-144.7734 1149.3005,-153.2215 1123,-157.5 906.1969,-192.7688 646.2086,-190.3384 516.1442,-186.1209"/>
<polygon fill="#191970" stroke="#191970" points="1201.6694,-140.5944 1210.0087,-134.0593 1199.4142,-133.9676 1201.6694,-140.5944"/>
</g>
<!-- Node8 -->
<g id="node8" class="node">
<title>Node8</title>
<g id="a_node8"><a xlink:href="../../d0/dc4/classCETF.html#abfd92cb6e0c471932af46e30df2fd308" target="_top" xlink:title="Method get and set all info about object of class CETF.">
<polygon fill="none" stroke="#000000" points="1000.5,-94 1000.5,-115 1087.5,-115 1087.5,-94 1000.5,-94"/>
<text text-anchor="middle" x="1044" y="-101.4" font-family="Helvetica,sans-Serif" font-size="12.00" fill="#000000">CETF::etfInfo</text>
</a>
</g>
</g>
<!-- Node2&#45;&gt;Node8 -->
<g id="edge10" class="edge">
<title>Node2&#45;&gt;Node8</title>
<path fill="none" stroke="#191970" d="M1148.7765,-114.7352C1127.5092,-112.6577 1105.759,-110.533 1087.6269,-108.7618"/>
<polygon fill="#191970" stroke="#191970" points="1148.5353,-118.2282 1158.8282,-115.7172 1149.2159,-111.2614 1148.5353,-118.2282"/>
</g>
<!-- Node12 -->
<g id="node12" class="node">
<title>Node12</title>
<g id="a_node12"><a xlink:href="../../d7/d8f/classCStock.html#a0ef2eda44098e896ddb09d5d4629d7aa" target="_top" xlink:title="Method gets and sets all info about stock using switch statement, case, if, else if,...">
<polygon fill="none" stroke="#000000" points="989.5,-54 989.5,-75 1098.5,-75 1098.5,-54 989.5,-54"/>
<text text-anchor="middle" x="1044" y="-61.4" font-family="Helvetica,sans-Serif" font-size="12.00" fill="#000000">CStock::stockInfo</text>
</a>
</g>
</g>
<!-- Node2&#45;&gt;Node12 -->
<g id="edge16" class="edge">
<title>Node2&#45;&gt;Node12</title>
<path fill="none" stroke="#191970" d="M1199.8068,-109.5967C1177.4889,-101.7885 1148.8173,-92.1143 1123,-84.5 1111.7368,-81.1782 1099.4728,-77.908 1088.0409,-75.0051"/>
<polygon fill="#191970" stroke="#191970" points="1198.6727,-112.9079 1209.2676,-112.9278 1200.9976,-106.3053 1198.6727,-112.9079"/>
</g>
<!-- Node13 -->
<g id="node13" class="node">
<title>Node13</title>
<g id="a_node13"><a xlink:href="../../dc/d85/classCAsset.html#a6ae21827de3314066a3c1e59059a8e00" target="_top" xlink:title=" ">
<polygon fill="none" stroke="#000000" points="965.5,-.5 965.5,-34.5 1122.5,-34.5 1122.5,-.5 965.5,-.5"/>
<text text-anchor="start" x="973.5" y="-20.9" font-family="Helvetica,sans-Serif" font-size="12.00" fill="#000000">CAsset::valueFromDiffrent</text>
<text text-anchor="middle" x="1044" y="-7.9" font-family="Helvetica,sans-Serif" font-size="12.00" fill="#000000">Function</text>
</a>
</g>
</g>
<!-- Node2&#45;&gt;Node13 -->
<g id="edge18" class="edge">
<title>Node2&#45;&gt;Node13</title>
<path fill="none" stroke="#191970" d="M1217.2652,-106.3571C1194.8877,-88.9379 1158.0875,-62.086 1123,-44.5 1115.7437,-40.8631 1107.8817,-37.5253 1100.0263,-34.5299"/>
<polygon fill="#191970" stroke="#191970" points="1215.3564,-109.3092 1225.3764,-112.7516 1219.6902,-103.8119 1215.3564,-109.3092"/>
</g>
<!-- Node4 -->
<g id="node4" class="node">
<title>Node4</title>
<g id="a_node4"><a xlink:href="../../d9/d52/classCPortfolio.html#ab64355d52c78bff52e08c46a5eaf392f" target="_top" xlink:title=" ">
<polygon fill="none" stroke="#000000" points="782,-210.5 782,-244.5 929,-244.5 929,-210.5 782,-210.5"/>
<text text-anchor="start" x="790" y="-230.9" font-family="Helvetica,sans-Serif" font-size="12.00" fill="#000000">CPortfolio::getTotalPrice</text>
<text text-anchor="middle" x="855.5" y="-217.9" font-family="Helvetica,sans-Serif" font-size="12.00" fill="#000000">OfStocks</text>
</a>
</g>
</g>
<!-- Node3&#45;&gt;Node4 -->
<g id="edge3" class="edge">
<title>Node3&#45;&gt;Node4</title>
<path fill="none" stroke="#191970" d="M954.7864,-227.5C946.1526,-227.5 937.4623,-227.5 929.0063,-227.5"/>
<polygon fill="#191970" stroke="#191970" points="954.8784,-231.0001 964.8784,-227.5 954.8783,-224.0001 954.8784,-231.0001"/>
</g>
<!-- Node5&#45;&gt;Node5 -->
<g id="edge5" class="edge">
<title>Node5&#45;&gt;Node5</title>
<path fill="none" stroke="#191970" d="M229.3758,-163.1791C227.6409,-168.4746 216.849,-172.5 197,-172.5 166.7539,-172.5 157.5383,-163.1531 169.3532,-154.2079"/>
<polygon fill="#191970" stroke="#191970" points="232.4061,-161.422 224.6468,-154.2079 226.2138,-164.6862 232.4061,-161.422"/>
</g>
<!-- Node6 -->
<g id="node6" class="node">
<title>Node6</title>
<g id="a_node6"><a xlink:href="../../df/d0a/main_8cpp.html#ae66f6b31b5ad750f1fe042a706a4e3d4" target="_top" xlink:title=" ">
<polygon fill="none" stroke="#000000" points="0,-133 0,-154 43,-154 43,-133 0,-133"/>
<text text-anchor="middle" x="21.5" y="-140.4" font-family="Helvetica,sans-Serif" font-size="12.00" fill="#000000">main</text>
</a>
</g>
</g>
<!-- Node5&#45;&gt;Node6 -->
<g id="edge6" class="edge">
<title>Node5&#45;&gt;Node6</title>
<path fill="none" stroke="#191970" d="M68.7546,-143.5C59.2156,-143.5 50.4943,-143.5 43.2123,-143.5"/>
<polygon fill="#191970" stroke="#191970" points="68.9653,-147.0001 78.9653,-143.5 68.9652,-140.0001 68.9653,-147.0001"/>
</g>
<!-- Node7&#45;&gt;Node5 -->
<g id="edge8" class="edge">
<title>Node7&#45;&gt;Node5</title>
<path fill="none" stroke="#191970" d="M359.7074,-170.3312C328.0039,-165.1032 291.3104,-159.0522 260.8025,-154.0213"/>
<polygon fill="#191970" stroke="#191970" points="359.375,-173.8236 369.8112,-171.9974 360.514,-166.9169 359.375,-173.8236"/>
</g>
<!-- Node7&#45;&gt;Node6 -->
<g id="edge9" class="edge">
<title>Node7&#45;&gt;Node6</title>
<path fill="none" stroke="#191970" d="M360.0863,-194.3238C287.1114,-203.3115 172.8281,-209.8473 79,-181.5 61.3604,-176.1707 44.1355,-163.5019 33.2097,-154.2525"/>
<polygon fill="#191970" stroke="#191970" points="360.6276,-197.7831 370.1028,-193.0427 359.7395,-190.8397 360.6276,-197.7831"/>
</g>
<!-- Node9 -->
<g id="node9" class="node">
<title>Node9</title>
<g id="a_node9"><a xlink:href="../../d9/d52/classCPortfolio.html#a1253d72b078e2ad23e28744f232a078a" target="_top" xlink:title="Mehtod set and get all information about the portfolios.">
<polygon fill="none" stroke="#000000" points="784,-94 784,-115 927,-115 927,-94 784,-94"/>
<text text-anchor="middle" x="855.5" y="-101.4" font-family="Helvetica,sans-Serif" font-size="12.00" fill="#000000">CPortfolio::userPortfolio</text>
</a>
</g>
</g>
<!-- Node8&#45;&gt;Node9 -->
<g id="edge11" class="edge">
<title>Node8&#45;&gt;Node9</title>
<path fill="none" stroke="#191970" d="M990.0101,-104.5C970.3989,-104.5 947.924,-104.5 927.0325,-104.5"/>
<polygon fill="#191970" stroke="#191970" points="990.2806,-108.0001 1000.2805,-104.5 990.2805,-101.0001 990.2806,-108.0001"/>
</g>
<!-- Node10 -->
<g id="node10" class="node">
<title>Node10</title>
<g id="a_node10"><a xlink:href="../../d1/d60/classCMyHolding.html#a2da746680d2dd9d7af60d49719b0fd37" target="_top" xlink:title="Method set and gets all information about holding of Client.">
<polygon fill="none" stroke="#000000" points="552,-94 552,-115 746,-115 746,-94 552,-94"/>
<text text-anchor="middle" x="649" y="-101.4" font-family="Helvetica,sans-Serif" font-size="12.00" fill="#000000">CMyHolding::createHoldingMenu</text>
</a>
</g>
</g>
<!-- Node9&#45;&gt;Node10 -->
<g id="edge12" class="edge">
<title>Node9&#45;&gt;Node10</title>
<path fill="none" stroke="#191970" d="M773.7894,-104.5C764.7733,-104.5 755.5278,-104.5 746.3449,-104.5"/>
<polygon fill="#191970" stroke="#191970" points="773.8559,-108.0001 783.8559,-104.5 773.8558,-101.0001 773.8559,-108.0001"/>
</g>
<!-- Node11 -->
<g id="node11" class="node">
<title>Node11</title>
<g id="a_node11"><a xlink:href="../../df/da7/classCClient.html#a1cb513868f3ae0f1130528cdaeb3fb26" target="_top" xlink:title="Method create Client menu through which you can set and get data for Client.">
<polygon fill="none" stroke="#000000" points="354.5,-94 354.5,-115 512.5,-115 512.5,-94 354.5,-94"/>
<text text-anchor="middle" x="433.5" y="-101.4" font-family="Helvetica,sans-Serif" font-size="12.00" fill="#000000">CClient::createClientMenu</text>
</a>
</g>
</g>
<!-- Node10&#45;&gt;Node11 -->
<g id="edge13" class="edge">
<title>Node10&#45;&gt;Node11</title>
<path fill="none" stroke="#191970" d="M541.7418,-104.5C531.9146,-104.5 522.0819,-104.5 512.5707,-104.5"/>
<polygon fill="#191970" stroke="#191970" points="541.9672,-108.0001 551.9671,-104.5 541.9671,-101.0001 541.9672,-108.0001"/>
</g>
<!-- Node11&#45;&gt;Node5 -->
<g id="edge14" class="edge">
<title>Node11&#45;&gt;Node5</title>
<path fill="none" stroke="#191970" d="M359.7074,-116.6688C328.0039,-121.8968 291.3104,-127.9478 260.8025,-132.9787"/>
<polygon fill="#191970" stroke="#191970" points="360.514,-120.0831 369.8112,-115.0026 359.375,-113.1764 360.514,-120.0831"/>
</g>
<!-- Node11&#45;&gt;Node6 -->
<g id="edge15" class="edge">
<title>Node11&#45;&gt;Node6</title>
<path fill="none" stroke="#191970" d="M343.8042,-102.394C271.619,-102.3496 167.911,-106.0185 79,-123.5 66.8663,-125.8857 53.8131,-130.2683 43.2153,-134.3241"/>
<polygon fill="#191970" stroke="#191970" points="344.2094,-105.8951 354.2203,-102.4262 344.2312,-98.8952 344.2094,-105.8951"/>
</g>
<!-- Node12&#45;&gt;Node9 -->
<g id="edge17" class="edge">
<title>Node12&#45;&gt;Node9</title>
<path fill="none" stroke="#191970" d="M984.5187,-77.122C958.9388,-82.5501 929.3851,-88.8215 905.0223,-93.9913"/>
<polygon fill="#191970" stroke="#191970" points="985.4182,-80.5092 994.4738,-75.0095 983.9651,-73.6616 985.4182,-80.5092"/>
</g>
</g>
</svg>
