<?xml version="1.0" encoding="UTF-8" standalone="no"?>
<!DOCTYPE svg PUBLIC "-//W3C//DTD SVG 1.1//EN"
 "http://www.w3.org/Graphics/SVG/1.1/DTD/svg11.dtd">
<!-- Generated by graphviz version 2.40.1 (20161225.0304)
 -->
<!-- Title: sources/CStock.cpp Pages: 1 -->
<svg width="967pt" height="320pt"
 viewBox="0.00 0.00 966.50 320.00" xmlns="http://www.w3.org/2000/svg" xmlns:xlink="http://www.w3.org/1999/xlink">
<g id="graph0" class="graph" transform="scale(1 1) rotate(0) translate(4 316)">
<title>sources/CStock.cpp</title>
<!-- Node1 -->
<g id="node1" class="node">
<title>Node1</title>
<g id="a_node1"><a xlink:title=" ">
<polygon fill="#bfbfbf" stroke="#000000" points="458.5,-290.5 458.5,-311.5 581.5,-311.5 581.5,-290.5 458.5,-290.5"/>
<text text-anchor="middle" x="520" y="-297.9" font-family="Helvetica,sans-Serif" font-size="12.00" fill="#000000">sources/CStock.cpp</text>
</a>
</g>
</g>
<!-- Node2 -->
<g id="node2" class="node">
<title>Node2</title>
<g id="a_node2"><a xlink:href="../../d2/d2d/CStock_8h.html" target="_top" xlink:title=" ">
<polygon fill="none" stroke="#000000" points="205.5,-232.5 205.5,-253.5 326.5,-253.5 326.5,-232.5 205.5,-232.5"/>
<text text-anchor="middle" x="266" y="-239.9" font-family="Helvetica,sans-Serif" font-size="12.00" fill="#000000">../headers/CStock.h</text>
</a>
</g>
</g>
<!-- Node1&#45;&gt;Node2 -->
<g id="edge1" class="edge">
<title>Node1&#45;&gt;Node2</title>
<path fill="none" stroke="#191970" d="M474.0025,-290.4966C431.3388,-280.7545 367.7436,-266.2328 322.112,-255.813"/>
<polygon fill="#191970" stroke="#191970" points="322.612,-252.3371 312.0837,-253.5231 321.0536,-259.1615 322.612,-252.3371"/>
</g>
<!-- Node4 -->
<g id="node4" class="node">
<title>Node4</title>
<g id="a_node4"><a xlink:href="../../d7/d79/CAsset_8h.html" target="_top" xlink:title=" ">
<polygon fill="none" stroke="#000000" points="233.5,-174.5 233.5,-195.5 298.5,-195.5 298.5,-174.5 233.5,-174.5"/>
<text text-anchor="middle" x="266" y="-181.9" font-family="Helvetica,sans-Serif" font-size="12.00" fill="#000000">CAsset.h</text>
</a>
</g>
</g>
<!-- Node1&#45;&gt;Node4 -->
<g id="edge18" class="edge">
<title>Node1&#45;&gt;Node4</title>
<path fill="none" stroke="#191970" d="M483.741,-290.4423C456.1349,-281.9134 417.48,-268.9055 385,-254 351.0842,-238.4356 314.2362,-216.1646 290.6714,-201.1729"/>
<polygon fill="#191970" stroke="#191970" points="292.3327,-198.0802 282.0273,-195.6203 288.5494,-203.9698 292.3327,-198.0802"/>
</g>
<!-- Node5 -->
<g id="node5" class="node">
<title>Node5</title>
<g id="a_node5"><a xlink:title=" ">
<polygon fill="none" stroke="#bfbfbf" points="58,-.5 58,-21.5 120,-21.5 120,-.5 58,-.5"/>
<text text-anchor="middle" x="89" y="-7.9" font-family="Helvetica,sans-Serif" font-size="12.00" fill="#000000">iostream</text>
</a>
</g>
</g>
<!-- Node1&#45;&gt;Node5 -->
<g id="edge19" class="edge">
<title>Node1&#45;&gt;Node5</title>
<path fill="none" stroke="#191970" d="M458.4077,-295.663C392.7172,-289.1383 285.9636,-276.1371 196,-254 106.3236,-231.9335 0,-277.3514 0,-185 0,-185 0,-185 0,-127 0,-84.3974 38.2543,-47.7966 64.6031,-27.6395"/>
<polygon fill="#191970" stroke="#191970" points="66.7052,-30.4382 72.676,-21.6861 62.5505,-24.8045 66.7052,-30.4382"/>
</g>
<!-- Node7 -->
<g id="node7" class="node">
<title>Node7</title>
<g id="a_node7"><a xlink:title=" ">
<polygon fill="none" stroke="#bfbfbf" points="367.5,-116.5 367.5,-137.5 410.5,-137.5 410.5,-116.5 367.5,-116.5"/>
<text text-anchor="middle" x="389" y="-123.9" font-family="Helvetica,sans-Serif" font-size="12.00" fill="#000000">tuple</text>
</a>
</g>
</g>
<!-- Node1&#45;&gt;Node7 -->
<g id="edge28" class="edge">
<title>Node1&#45;&gt;Node7</title>
<path fill="none" stroke="#191970" d="M480.9851,-290.352C461.2986,-283.1078 438.5679,-271.5714 424,-254 398.4552,-223.1885 391.4794,-175.155 389.6224,-147.8434"/>
<polygon fill="#191970" stroke="#191970" points="393.101,-147.3283 389.1007,-137.5177 386.1099,-147.6816 393.101,-147.3283"/>
</g>
<!-- Node9 -->
<g id="node9" class="node">
<title>Node9</title>
<g id="a_node9"><a xlink:title=" ">
<polygon fill="none" stroke="#bfbfbf" points="411,-58.5 411,-79.5 467,-79.5 467,-58.5 411,-58.5"/>
<text text-anchor="middle" x="439" y="-65.9" font-family="Helvetica,sans-Serif" font-size="12.00" fill="#000000">fstream</text>
</a>
</g>
</g>
<!-- Node1&#45;&gt;Node9 -->
<g id="edge20" class="edge">
<title>Node1&#45;&gt;Node9</title>
<path fill="none" stroke="#191970" d="M497.4577,-290.3564C483.3256,-282.42 466.1151,-270.1657 457,-254 427.2526,-201.2425 431.4488,-126.4034 435.8065,-90.2192"/>
<polygon fill="#191970" stroke="#191970" points="439.3291,-90.2817 437.1842,-79.9063 432.3908,-89.3548 439.3291,-90.2817"/>
</g>
<!-- Node12 -->
<g id="node12" class="node">
<title>Node12</title>
<g id="a_node12"><a xlink:title=" ">
<polygon fill="none" stroke="#bfbfbf" points="466,-232.5 466,-253.5 506,-253.5 506,-232.5 466,-232.5"/>
<text text-anchor="middle" x="486" y="-239.9" font-family="Helvetica,sans-Serif" font-size="12.00" fill="#000000">map</text>
</a>
</g>
</g>
<!-- Node1&#45;&gt;Node12 -->
<g id="edge21" class="edge">
<title>Node1&#45;&gt;Node12</title>
<path fill="none" stroke="#191970" d="M513.7639,-290.3619C509.1629,-282.5131 502.7748,-271.6159 497.2861,-262.2527"/>
<polygon fill="#191970" stroke="#191970" points="500.2733,-260.4276 492.1966,-253.5707 494.2344,-263.9677 500.2733,-260.4276"/>
</g>
<!-- Node13 -->
<g id="node13" class="node">
<title>Node13</title>
<g id="a_node13"><a xlink:title=" ">
<polygon fill="none" stroke="#bfbfbf" points="524.5,-232.5 524.5,-253.5 583.5,-253.5 583.5,-232.5 524.5,-232.5"/>
<text text-anchor="middle" x="554" y="-239.9" font-family="Helvetica,sans-Serif" font-size="12.00" fill="#000000">sstream</text>
</a>
</g>
</g>
<!-- Node1&#45;&gt;Node13 -->
<g id="edge22" class="edge">
<title>Node1&#45;&gt;Node13</title>
<path fill="none" stroke="#191970" d="M526.2361,-290.3619C530.8371,-282.5131 537.2252,-271.6159 542.7139,-262.2527"/>
<polygon fill="#191970" stroke="#191970" points="545.7656,-263.9677 547.8034,-253.5707 539.7267,-260.4276 545.7656,-263.9677"/>
</g>
<!-- Node14 -->
<g id="node14" class="node">
<title>Node14</title>
<g id="a_node14"><a xlink:title=" ">
<polygon fill="none" stroke="#bfbfbf" points="601.5,-232.5 601.5,-253.5 682.5,-253.5 682.5,-232.5 601.5,-232.5"/>
<text text-anchor="middle" x="642" y="-239.9" font-family="Helvetica,sans-Serif" font-size="12.00" fill="#000000">itpp/itbase.h</text>
</a>
</g>
</g>
<!-- Node1&#45;&gt;Node14 -->
<g id="edge23" class="edge">
<title>Node1&#45;&gt;Node14</title>
<path fill="none" stroke="#191970" d="M542.0933,-290.4966C561.234,-281.397 589.1461,-268.1273 610.6053,-257.9253"/>
<polygon fill="#191970" stroke="#191970" points="612.1302,-261.0758 619.6588,-253.6212 609.1247,-254.7539 612.1302,-261.0758"/>
</g>
<!-- Node15 -->
<g id="node15" class="node">
<title>Node15</title>
<g id="a_node15"><a xlink:title=" ">
<polygon fill="none" stroke="#bfbfbf" points="700.5,-232.5 700.5,-253.5 759.5,-253.5 759.5,-232.5 700.5,-232.5"/>
<text text-anchor="middle" x="730" y="-239.9" font-family="Helvetica,sans-Serif" font-size="12.00" fill="#000000">iomanip</text>
</a>
</g>
</g>
<!-- Node1&#45;&gt;Node15 -->
<g id="edge24" class="edge">
<title>Node1&#45;&gt;Node15</title>
<path fill="none" stroke="#191970" d="M559.3261,-290.4342C592.1058,-281.5869 640.2827,-268.4911 690.4255,-254.4209"/>
<polygon fill="#191970" stroke="#191970" points="691.462,-257.7653 700.1414,-251.6892 689.5673,-251.0265 691.462,-257.7653"/>
</g>
<!-- Node16 -->
<g id="node16" class="node">
<title>Node16</title>
<g id="a_node16"><a xlink:title=" ">
<polygon fill="none" stroke="#bfbfbf" points="777.5,-232.5 777.5,-253.5 826.5,-253.5 826.5,-232.5 777.5,-232.5"/>
<text text-anchor="middle" x="802" y="-239.9" font-family="Helvetica,sans-Serif" font-size="12.00" fill="#000000">cmath</text>
</a>
</g>
</g>
<!-- Node1&#45;&gt;Node16 -->
<g id="edge25" class="edge">
<title>Node1&#45;&gt;Node16</title>
<path fill="none" stroke="#191970" d="M581.6539,-291.745C629.9815,-283.9489 699.034,-271.6214 767.1941,-254.2515"/>
<polygon fill="#191970" stroke="#191970" points="768.4368,-257.5453 777.2414,-251.6521 766.6835,-250.7685 768.4368,-257.5453"/>
</g>
<!-- Node17 -->
<g id="node17" class="node">
<title>Node17</title>
<g id="a_node17"><a xlink:title=" ">
<polygon fill="none" stroke="#bfbfbf" points="844.5,-232.5 844.5,-253.5 889.5,-253.5 889.5,-232.5 844.5,-232.5"/>
<text text-anchor="middle" x="867" y="-239.9" font-family="Helvetica,sans-Serif" font-size="12.00" fill="#000000">ctime</text>
</a>
</g>
</g>
<!-- Node1&#45;&gt;Node17 -->
<g id="edge26" class="edge">
<title>Node1&#45;&gt;Node17</title>
<path fill="none" stroke="#191970" d="M581.5605,-295.4035C643.5563,-288.97 741.9411,-276.5851 834.6484,-253.9997"/>
<polygon fill="#191970" stroke="#191970" points="835.6049,-257.3686 844.4677,-251.5634 833.9191,-250.5746 835.6049,-257.3686"/>
</g>
<!-- Node18 -->
<g id="node18" class="node">
<title>Node18</title>
<g id="a_node18"><a xlink:title=" ">
<polygon fill="none" stroke="#bfbfbf" points="907.5,-232.5 907.5,-253.5 958.5,-253.5 958.5,-232.5 907.5,-232.5"/>
<text text-anchor="middle" x="933" y="-239.9" font-family="Helvetica,sans-Serif" font-size="12.00" fill="#000000">cstdlib</text>
</a>
</g>
</g>
<!-- Node1&#45;&gt;Node18 -->
<g id="edge27" class="edge">
<title>Node1&#45;&gt;Node18</title>
<path fill="none" stroke="#191970" d="M581.6556,-296.9608C655.0243,-291.3533 781.2314,-279.18 897.052,-254.1435"/>
<polygon fill="#191970" stroke="#191970" points="898.1367,-257.4886 907.151,-251.9214 896.6325,-250.6521 898.1367,-257.4886"/>
</g>
<!-- Node3 -->
<g id="node3" class="node">
<title>Node3</title>
<g id="a_node3"><a xlink:title=" ">
<polygon fill="none" stroke="#bfbfbf" points="66,-58.5 66,-79.5 112,-79.5 112,-58.5 66,-58.5"/>
<text text-anchor="middle" x="89" y="-65.9" font-family="Helvetica,sans-Serif" font-size="12.00" fill="#000000">string</text>
</a>
</g>
</g>
<!-- Node2&#45;&gt;Node3 -->
<g id="edge2" class="edge">
<title>Node2&#45;&gt;Node3</title>
<path fill="none" stroke="#191970" d="M254.9113,-232.3191C235.2883,-213.3954 193.194,-172.7018 158,-138 140.4932,-120.7381 120.661,-100.8731 106.766,-86.9037"/>
<polygon fill="#191970" stroke="#191970" points="109.2414,-84.4294 99.7098,-79.8035 104.2763,-89.3638 109.2414,-84.4294"/>
</g>
<!-- Node2&#45;&gt;Node4 -->
<g id="edge3" class="edge">
<title>Node2&#45;&gt;Node4</title>
<path fill="none" stroke="#191970" d="M266,-232.3619C266,-224.9219 266,-214.7427 266,-205.7276"/>
<polygon fill="#191970" stroke="#191970" points="269.5001,-205.5706 266,-195.5707 262.5001,-205.5707 269.5001,-205.5706"/>
</g>
<!-- Node4&#45;&gt;Node3 -->
<g id="edge5" class="edge">
<title>Node4&#45;&gt;Node3</title>
<path fill="none" stroke="#191970" d="M249.6655,-174.2949C218.5017,-153.8712 150.3978,-109.2381 113.6616,-85.1624"/>
<polygon fill="#191970" stroke="#191970" points="115.3217,-82.0657 105.0393,-79.5117 111.4847,-87.9205 115.3217,-82.0657"/>
</g>
<!-- Node4&#45;&gt;Node5 -->
<g id="edge4" class="edge">
<title>Node4&#45;&gt;Node5</title>
<path fill="none" stroke="#191970" d="M233.3896,-179.8644C184.5361,-170.19 94.1279,-144.1353 57,-80 47.3773,-63.3777 59.0198,-43.3693 70.8691,-29.1887"/>
<polygon fill="#191970" stroke="#191970" points="73.6254,-31.3581 77.7105,-21.5825 68.4209,-26.6769 73.6254,-31.3581"/>
</g>
<!-- Node6 -->
<g id="node6" class="node">
<title>Node6</title>
<g id="a_node6"><a xlink:title=" ">
<polygon fill="none" stroke="#bfbfbf" points="288.5,-.5 288.5,-21.5 337.5,-21.5 337.5,-.5 288.5,-.5"/>
<text text-anchor="middle" x="313" y="-7.9" font-family="Helvetica,sans-Serif" font-size="12.00" fill="#000000">vector</text>
</a>
</g>
</g>
<!-- Node4&#45;&gt;Node6 -->
<g id="edge6" class="edge">
<title>Node4&#45;&gt;Node6</title>
<path fill="none" stroke="#191970" d="M281.8458,-174.2971C293.5276,-165.6921 309.0538,-152.6526 319,-138 334.3974,-115.3168 335.262,-107.0029 340,-80 341.6898,-70.3693 342.5205,-67.4473 340,-58 337.3916,-48.223 332.2107,-38.367 327.0786,-30.2234"/>
<polygon fill="#191970" stroke="#191970" points="329.9318,-28.1941 321.4448,-21.8521 324.1244,-32.1025 329.9318,-28.1941"/>
</g>
<!-- Node4&#45;&gt;Node7 -->
<g id="edge7" class="edge">
<title>Node4&#45;&gt;Node7</title>
<path fill="none" stroke="#191970" d="M288.2744,-174.4966C307.8132,-165.2832 336.4178,-151.7949 358.1562,-141.5442"/>
<polygon fill="#191970" stroke="#191970" points="359.7522,-144.6613 367.3042,-137.2305 356.7666,-138.3299 359.7522,-144.6613"/>
</g>
<!-- Node8 -->
<g id="node8" class="node">
<title>Node8</title>
<g id="a_node8"><a xlink:href="../../dd/d85/CDataBase_8h.html" target="_top" xlink:title=" ">
<polygon fill="none" stroke="#000000" points="221.5,-116.5 221.5,-137.5 310.5,-137.5 310.5,-116.5 221.5,-116.5"/>
<text text-anchor="middle" x="266" y="-123.9" font-family="Helvetica,sans-Serif" font-size="12.00" fill="#000000">CDataBase.h</text>
</a>
</g>
</g>
<!-- Node4&#45;&gt;Node8 -->
<g id="edge8" class="edge">
<title>Node4&#45;&gt;Node8</title>
<path fill="none" stroke="#191970" d="M266,-174.3619C266,-166.9219 266,-156.7427 266,-147.7276"/>
<polygon fill="#191970" stroke="#191970" points="269.5001,-147.5706 266,-137.5707 262.5001,-147.5707 269.5001,-147.5706"/>
</g>
<!-- Node8&#45;&gt;Node3 -->
<g id="edge10" class="edge">
<title>Node8&#45;&gt;Node3</title>
<path fill="none" stroke="#191970" d="M233.9466,-116.4966C202.2143,-106.0985 153.865,-90.2552 121.8559,-79.7664"/>
<polygon fill="#191970" stroke="#191970" points="122.6721,-76.3507 112.0793,-76.5627 120.4923,-83.0027 122.6721,-76.3507"/>
</g>
<!-- Node8&#45;&gt;Node5 -->
<g id="edge9" class="edge">
<title>Node8&#45;&gt;Node5</title>
<path fill="none" stroke="#191970" d="M234.0047,-116.4427C211.8788,-108.3278 182.3393,-95.832 159,-80 137.7908,-65.6129 117.3745,-44.3582 104.1206,-29.2458"/>
<polygon fill="#191970" stroke="#191970" points="106.7007,-26.8779 97.5346,-21.5645 101.3866,-31.4343 106.7007,-26.8779"/>
</g>
<!-- Node8&#45;&gt;Node6 -->
<g id="edge12" class="edge">
<title>Node8&#45;&gt;Node6</title>
<path fill="none" stroke="#191970" d="M287.3449,-116.4516C300.8618,-108.4865 317.2113,-96.1625 325,-80 332.3907,-64.6634 328.1072,-45.4625 322.7088,-31.2121"/>
<polygon fill="#191970" stroke="#191970" points="325.8591,-29.6758 318.7319,-21.8366 319.4149,-32.4094 325.8591,-29.6758"/>
</g>
<!-- Node8&#45;&gt;Node9 -->
<g id="edge11" class="edge">
<title>Node8&#45;&gt;Node9</title>
<path fill="none" stroke="#191970" d="M297.329,-116.4966C326.4992,-106.717 370.0358,-92.121 401.1402,-81.6929"/>
<polygon fill="#191970" stroke="#191970" points="402.3995,-84.9622 410.7682,-78.465 400.1743,-78.3253 402.3995,-84.9622"/>
</g>
<!-- Node10 -->
<g id="node10" class="node">
<title>Node10</title>
<g id="a_node10"><a xlink:href="../../d2/d92/CRisk_8h.html" target="_top" xlink:title=" ">
<polygon fill="none" stroke="#000000" points="168.5,-58.5 168.5,-79.5 227.5,-79.5 227.5,-58.5 168.5,-58.5"/>
<text text-anchor="middle" x="198" y="-65.9" font-family="Helvetica,sans-Serif" font-size="12.00" fill="#000000">CRisk.h</text>
</a>
</g>
</g>
<!-- Node8&#45;&gt;Node10 -->
<g id="edge13" class="edge">
<title>Node8&#45;&gt;Node10</title>
<path fill="none" stroke="#191970" d="M253.5278,-116.3619C243.6547,-107.9408 229.6675,-96.0105 218.2016,-86.2308"/>
<polygon fill="#191970" stroke="#191970" points="220.2729,-83.3972 210.3932,-79.5707 215.7302,-88.7231 220.2729,-83.3972"/>
</g>
<!-- Node11 -->
<g id="node11" class="node">
<title>Node11</title>
<g id="a_node11"><a xlink:href="../../d3/d97/CReturn_8h.html" target="_top" xlink:title=" ">
<polygon fill="none" stroke="#000000" points="245.5,-58.5 245.5,-79.5 316.5,-79.5 316.5,-58.5 245.5,-58.5"/>
<text text-anchor="middle" x="281" y="-65.9" font-family="Helvetica,sans-Serif" font-size="12.00" fill="#000000">CReturn.h</text>
</a>
</g>
</g>
<!-- Node8&#45;&gt;Node11 -->
<g id="edge16" class="edge">
<title>Node8&#45;&gt;Node11</title>
<path fill="none" stroke="#191970" d="M268.7512,-116.3619C270.6965,-108.8401 273.3659,-98.5187 275.7162,-89.4308"/>
<polygon fill="#191970" stroke="#191970" points="279.1508,-90.1285 278.2662,-79.5707 272.3738,-88.3758 279.1508,-90.1285"/>
</g>
<!-- Node10&#45;&gt;Node5 -->
<g id="edge14" class="edge">
<title>Node10&#45;&gt;Node5</title>
<path fill="none" stroke="#191970" d="M178.2609,-58.4966C161.3899,-49.5194 136.8915,-36.4835 117.8262,-26.3387"/>
<polygon fill="#191970" stroke="#191970" points="119.4327,-23.2289 108.9606,-21.6212 116.1445,-29.4086 119.4327,-23.2289"/>
</g>
<!-- Node10&#45;&gt;Node6 -->
<g id="edge15" class="edge">
<title>Node10&#45;&gt;Node6</title>
<path fill="none" stroke="#191970" d="M218.8256,-58.4966C236.7063,-49.4786 262.7074,-36.3649 282.861,-26.2006"/>
<polygon fill="#191970" stroke="#191970" points="284.5881,-29.2495 291.9407,-21.6212 281.4359,-22.9994 284.5881,-29.2495"/>
</g>
<!-- Node11&#45;&gt;Node6 -->
<g id="edge17" class="edge">
<title>Node11&#45;&gt;Node6</title>
<path fill="none" stroke="#191970" d="M286.8693,-58.3619C291.1546,-50.5949 297.0869,-39.8426 302.2161,-30.5458"/>
<polygon fill="#191970" stroke="#191970" points="305.4016,-32.0172 307.1679,-21.5707 299.2726,-28.6357 305.4016,-32.0172"/>
</g>
</g>
</svg>
