<?xml version="1.0" encoding="UTF-8" standalone="no"?>
<!DOCTYPE svg PUBLIC "-//W3C//DTD SVG 1.1//EN"
 "http://www.w3.org/Graphics/SVG/1.1/DTD/svg11.dtd">
<!-- Generated by graphviz version 2.40.1 (20161225.0304)
 -->
<!-- Title: CRisk Pages: 1 -->
<svg width="194pt" height="276pt"
 viewBox="0.00 0.00 193.50 276.00" xmlns="http://www.w3.org/2000/svg" xmlns:xlink="http://www.w3.org/1999/xlink">
<g id="graph0" class="graph" transform="scale(1 1) rotate(0) translate(4 272)">
<title>CRisk</title>
<!-- Node1 -->
<g id="node1" class="node">
<title>Node1</title>
<g id="a_node1"><a xlink:title="This class calculate risk (standard deviation) of portfolios.">
<polygon fill="#bfbfbf" stroke="#000000" points="0,-.5 0,-154.5 173,-154.5 173,-.5 0,-.5"/>
<text text-anchor="middle" x="86.5" y="-140.9" font-family="Helvetica,sans-Serif" font-size="12.00" fill="#000000">CRisk</text>
<polyline fill="none" stroke="#000000" points="0,-133.5 173,-133.5 "/>
<text text-anchor="middle" x="86.5" y="-119.9" font-family="Helvetica,sans-Serif" font-size="12.00" fill="#000000"> </text>
<polyline fill="none" stroke="#000000" points="0,-112.5 173,-112.5 "/>
<text text-anchor="start" x="8" y="-98.9" font-family="Helvetica,sans-Serif" font-size="12.00" fill="#000000">+ CRisk()</text>
<text text-anchor="start" x="8" y="-85.9" font-family="Helvetica,sans-Serif" font-size="12.00" fill="#000000">+ CRisk()</text>
<text text-anchor="start" x="8" y="-72.9" font-family="Helvetica,sans-Serif" font-size="12.00" fill="#000000">+ portfolioVariance()</text>
<text text-anchor="start" x="8" y="-59.9" font-family="Helvetica,sans-Serif" font-size="12.00" fill="#000000">+ getMDPortfolioRisk()</text>
<text text-anchor="start" x="8" y="-46.9" font-family="Helvetica,sans-Serif" font-size="12.00" fill="#000000">+ setMDPortfolioRisk()</text>
<text text-anchor="start" x="8" y="-33.9" font-family="Helvetica,sans-Serif" font-size="12.00" fill="#000000">+ ~CRisk()</text>
<text text-anchor="start" x="8" y="-20.9" font-family="Helvetica,sans-Serif" font-size="12.00" fill="#000000">+ covarianceVarianceMatrix()</text>
<text text-anchor="start" x="8" y="-7.9" font-family="Helvetica,sans-Serif" font-size="12.00" fill="#000000">+ portfolioStd()</text>
</a>
</g>
</g>
<!-- Node2 -->
<g id="node2" class="node">
<title>Node2</title>
<g id="a_node2"><a xlink:title=" ">
<polygon fill="none" stroke="#bfbfbf" points="60,-204.5 60,-267.5 113,-267.5 113,-204.5 60,-204.5"/>
<text text-anchor="middle" x="86.5" y="-253.9" font-family="Helvetica,sans-Serif" font-size="12.00" fill="#000000">double</text>
<polyline fill="none" stroke="#bfbfbf" points="60,-246.5 113,-246.5 "/>
<text text-anchor="middle" x="86.5" y="-232.9" font-family="Helvetica,sans-Serif" font-size="12.00" fill="#000000"> </text>
<polyline fill="none" stroke="#bfbfbf" points="60,-225.5 113,-225.5 "/>
<text text-anchor="middle" x="86.5" y="-211.9" font-family="Helvetica,sans-Serif" font-size="12.00" fill="#000000"> </text>
</a>
</g>
</g>
<!-- Node2&#45;&gt;Node1 -->
<g id="edge1" class="edge">
<title>Node2&#45;&gt;Node1</title>
<path fill="none" stroke="#404040" d="M86.5,-204.3061C86.5,-193.3086 86.5,-180.3721 86.5,-167.0405"/>
<polygon fill="none" stroke="#404040" points="86.5001,-166.7304 82.5,-160.7305 86.5,-154.7304 90.5,-160.7304 86.5001,-166.7304"/>
<text text-anchor="middle" x="136" y="-176.4" font-family="Helvetica,sans-Serif" font-size="12.00" fill="#000000"> &#45;m_dPortfolioRisk</text>
</g>
</g>
</svg>
