<?xml version="1.0" encoding="UTF-8" standalone="no"?>
<!DOCTYPE svg PUBLIC "-//W3C//DTD SVG 1.1//EN"
 "http://www.w3.org/Graphics/SVG/1.1/DTD/svg11.dtd">
<!-- Generated by graphviz version 2.40.1 (20161225.0304)
 -->
<!-- Title: CBroker Pages: 1 -->
<!--zoomable 1252 -->
<svg id="main" version="1.1" xmlns="http://www.w3.org/2000/svg" xmlns:xlink="http://www.w3.org/1999/xlink" xml:space="preserve" onload="init(evt)">
<style type="text/css"><![CDATA[
.edge:hover path { stroke: red; }
.edge:hover polygon { stroke: red; fill: red; }
]]></style>
<script type="text/javascript"><![CDATA[
var edges = document.getElementsByTagName('g');
if (edges && edges.length) {
  for (var i=0;i<edges.length;i++) {
    if (edges[i].id.substr(0,4)=='edge') {
      edges[i].setAttribute('class','edge');
    }
  }
}
]]></script>
        <defs>
                <circle id="rim" cx="0" cy="0" r="7"/>
                <circle id="rim2" cx="0" cy="0" r="3.5"/>
                <g id="zoomPlus">
                        <use xlink:href="#rim" fill="#404040">
                                <set attributeName="fill" to="#808080" begin="zoomplus.mouseover" end="zoomplus.mouseout"/>
                        </use>
                        <path d="M-4,0h8M0,-4v8" fill="none" stroke="white" stroke-width="1.5" pointer-events="none"/>
                </g>
                <g id="zoomMin">
                        <use xlink:href="#rim" fill="#404040">
                                <set attributeName="fill" to="#808080" begin="zoomminus.mouseover" end="zoomminus.mouseout"/>
                        </use>
                        <path d="M-4,0h8" fill="none" stroke="white" stroke-width="1.5" pointer-events="none"/>
                </g>
                <g id="dirArrow">
                        <path fill="none" stroke="white" stroke-width="1.5" d="M0,-3.0v7 M-2.5,-0.5L0,-3.0L2.5,-0.5"/>
                </g>
               <g id="resetDef">
                       <use xlink:href="#rim2" fill="#404040">
                               <set attributeName="fill" to="#808080" begin="reset.mouseover" end="reset.mouseout"/>
                       </use>
               </g>
        </defs>

<script type="text/javascript">
var viewWidth = 896;
var viewHeight = 1252;
var sectionId = 'dynsection-1';
</script>
<script xlink:href="../../svgpan.js"/>
<svg id="graph" class="graph">
<g id="viewport">
<title>CBroker</title>
<!-- Node1 -->
<g id="node1" class="node">
<title>Node1</title>
<g id="a_node1"><a xlink:title="CBroker class create object of broker who is related with class CPortfolio through aggregation relati...">
<polygon fill="#bfbfbf" stroke="#000000" points="355.2613,-.5 355.2613,-180.5 498.2613,-180.5 498.2613,-.5 355.2613,-.5"/>
<text text-anchor="middle" x="426.7613" y="-166.9" font-family="Helvetica,sans-Serif" font-size="12.00" fill="#000000">CBroker</text>
<polyline fill="none" stroke="#000000" points="355.2613,-159.5 498.2613,-159.5 "/>
<text text-anchor="middle" x="426.7613" y="-145.9" font-family="Helvetica,sans-Serif" font-size="12.00" fill="#000000"> </text>
<polyline fill="none" stroke="#000000" points="355.2613,-138.5 498.2613,-138.5 "/>
<text text-anchor="start" x="363.2613" y="-124.9" font-family="Helvetica,sans-Serif" font-size="12.00" fill="#000000">+ CBroker()</text>
<text text-anchor="start" x="363.2613" y="-111.9" font-family="Helvetica,sans-Serif" font-size="12.00" fill="#000000">+ CBroker()</text>
<text text-anchor="start" x="363.2613" y="-98.9" font-family="Helvetica,sans-Serif" font-size="12.00" fill="#000000">+ getMStrBrokerName()</text>
<text text-anchor="start" x="363.2613" y="-85.9" font-family="Helvetica,sans-Serif" font-size="12.00" fill="#000000">+ setMStrBrokerName()</text>
<text text-anchor="start" x="363.2613" y="-72.9" font-family="Helvetica,sans-Serif" font-size="12.00" fill="#000000">+ getMDSalary()</text>
<text text-anchor="start" x="363.2613" y="-59.9" font-family="Helvetica,sans-Serif" font-size="12.00" fill="#000000">+ setMDSalary()</text>
<text text-anchor="start" x="363.2613" y="-46.9" font-family="Helvetica,sans-Serif" font-size="12.00" fill="#000000">+ brokerMenu()</text>
<text text-anchor="start" x="363.2613" y="-33.9" font-family="Helvetica,sans-Serif" font-size="12.00" fill="#000000">+ createBrokerMenu()</text>
<text text-anchor="start" x="363.2613" y="-20.9" font-family="Helvetica,sans-Serif" font-size="12.00" fill="#000000">+ getAllInfoAboutUser()</text>
<text text-anchor="start" x="363.2613" y="-7.9" font-family="Helvetica,sans-Serif" font-size="12.00" fill="#000000">+ ~CBroker()</text>
</a>
</g>
</g>
<!-- Node2 -->
<g id="node2" class="node">
<title>Node2</title>
<g id="a_node2"><a xlink:href="../../de/dd6/classCUser.html" target="_top" xlink:title="This class create the user who will be use the program, a trader, a broker or an administrator and ha...">
<polygon fill="none" stroke="#000000" points="167.2613,-455.5 167.2613,-726.5 320.2613,-726.5 320.2613,-455.5 167.2613,-455.5"/>
<text text-anchor="middle" x="243.7613" y="-712.9" font-family="Helvetica,sans-Serif" font-size="12.00" fill="#000000">CUser</text>
<polyline fill="none" stroke="#000000" points="167.2613,-705.5 320.2613,-705.5 "/>
<text text-anchor="middle" x="243.7613" y="-691.9" font-family="Helvetica,sans-Serif" font-size="12.00" fill="#000000"> </text>
<polyline fill="none" stroke="#000000" points="167.2613,-684.5 320.2613,-684.5 "/>
<text text-anchor="start" x="175.2613" y="-670.9" font-family="Helvetica,sans-Serif" font-size="12.00" fill="#000000">+ CUser()</text>
<text text-anchor="start" x="175.2613" y="-657.9" font-family="Helvetica,sans-Serif" font-size="12.00" fill="#000000">+ CUser()</text>
<text text-anchor="start" x="175.2613" y="-644.9" font-family="Helvetica,sans-Serif" font-size="12.00" fill="#000000">+ CUser()</text>
<text text-anchor="start" x="175.2613" y="-631.9" font-family="Helvetica,sans-Serif" font-size="12.00" fill="#000000">+ getMStrUsername()</text>
<text text-anchor="start" x="175.2613" y="-618.9" font-family="Helvetica,sans-Serif" font-size="12.00" fill="#000000">+ setMStrUsername()</text>
<text text-anchor="start" x="175.2613" y="-605.9" font-family="Helvetica,sans-Serif" font-size="12.00" fill="#000000">+ getMStrPassword()</text>
<text text-anchor="start" x="175.2613" y="-592.9" font-family="Helvetica,sans-Serif" font-size="12.00" fill="#000000">+ setMStrPassword()</text>
<text text-anchor="start" x="175.2613" y="-579.9" font-family="Helvetica,sans-Serif" font-size="12.00" fill="#000000">+ getMStrRegisterDate()</text>
<text text-anchor="start" x="175.2613" y="-566.9" font-family="Helvetica,sans-Serif" font-size="12.00" fill="#000000">+ setMStrRegisterDate()</text>
<text text-anchor="start" x="175.2613" y="-553.9" font-family="Helvetica,sans-Serif" font-size="12.00" fill="#000000">+ getMStrPhoneNumber()</text>
<text text-anchor="start" x="175.2613" y="-540.9" font-family="Helvetica,sans-Serif" font-size="12.00" fill="#000000">+ setMStrPhoneNumber()</text>
<text text-anchor="start" x="175.2613" y="-527.9" font-family="Helvetica,sans-Serif" font-size="12.00" fill="#000000">+ getMStrEmail()</text>
<text text-anchor="start" x="175.2613" y="-514.9" font-family="Helvetica,sans-Serif" font-size="12.00" fill="#000000">+ setMStrEmail()</text>
<text text-anchor="start" x="175.2613" y="-501.9" font-family="Helvetica,sans-Serif" font-size="12.00" fill="#000000">+ getMStrAddress()</text>
<text text-anchor="start" x="175.2613" y="-488.9" font-family="Helvetica,sans-Serif" font-size="12.00" fill="#000000">+ setMStrAddress()</text>
<text text-anchor="start" x="175.2613" y="-475.9" font-family="Helvetica,sans-Serif" font-size="12.00" fill="#000000">+ getAllInfoAboutUser()</text>
<text text-anchor="start" x="175.2613" y="-462.9" font-family="Helvetica,sans-Serif" font-size="12.00" fill="#000000">+ ~CUser()</text>
</a>
</g>
</g>
<!-- Node2&#45;&gt;Node1 -->
<g id="edge1" class="edge">
<title>Node2&#45;&gt;Node1</title>
<path fill="none" stroke="#191970" d="M296.8908,-445.6925C328.1737,-360.1344 366.7643,-254.5903 393.7156,-180.8792"/>
<polygon fill="none" stroke="#191970" points="293.5513,-444.6337 293.4044,-455.2275 300.1257,-447.0375 293.5513,-444.6337"/>
</g>
<!-- Node3 -->
<g id="node3" class="node">
<title>Node3</title>
<g id="a_node3"><a xlink:title="STL class.">
<polygon fill="none" stroke="#bfbfbf" points="238.7613,-1066.5 238.7613,-1129.5 306.7613,-1129.5 306.7613,-1066.5 238.7613,-1066.5"/>
<text text-anchor="middle" x="272.7613" y="-1115.9" font-family="Helvetica,sans-Serif" font-size="12.00" fill="#000000">std::string</text>
<polyline fill="none" stroke="#bfbfbf" points="238.7613,-1108.5 306.7613,-1108.5 "/>
<text text-anchor="middle" x="272.7613" y="-1094.9" font-family="Helvetica,sans-Serif" font-size="12.00" fill="#000000"> </text>
<polyline fill="none" stroke="#bfbfbf" points="238.7613,-1087.5 306.7613,-1087.5 "/>
<text text-anchor="middle" x="272.7613" y="-1073.9" font-family="Helvetica,sans-Serif" font-size="12.00" fill="#000000"> </text>
</a>
</g>
</g>
<!-- Node3&#45;&gt;Node1 -->
<g id="edge12" class="edge">
<title>Node3&#45;&gt;Node1</title>
<path fill="none" stroke="#404040" d="M238.3944,-1086.3525C218.9485,-1078.2459 195.4565,-1065.6881 179.7613,-1048 .9313,-846.4626 -50.7813,-703.3311 53.7613,-455 112.5953,-315.2455 254.0818,-202.3505 344.9018,-140.9821"/>
<polygon fill="none" stroke="#404040" points="344.92,-140.97 347.6838,-134.3095 354.8949,-134.2991 352.1311,-140.9595 344.92,-140.97"/>
<text text-anchor="middle" x="105.7613" y="-587.9" font-family="Helvetica,sans-Serif" font-size="12.00" fill="#000000"> &#45;m_strBrokerName</text>
</g>
<!-- Node3&#45;&gt;Node2 -->
<g id="edge2" class="edge">
<title>Node3&#45;&gt;Node2</title>
<path fill="none" stroke="#404040" d="M238.5209,-1079.4109C227.2158,-1071.3678 215.9561,-1060.8251 209.7613,-1048 163.4694,-952.1609 174.8439,-831.6893 196.2566,-738.5016"/>
<polygon fill="none" stroke="#404040" points="196.2866,-738.3747 193.779,-731.6137 199.0555,-726.6985 201.5631,-733.4596 196.2866,-738.3747"/>
<text text-anchor="middle" x="265.7613" y="-1038.4" font-family="Helvetica,sans-Serif" font-size="12.00" fill="#000000"> &#45;m_strAddress</text>
<text text-anchor="middle" x="265.7613" y="-1025.4" font-family="Helvetica,sans-Serif" font-size="12.00" fill="#000000">&#45;m_strRegisterDate</text>
<text text-anchor="middle" x="265.7613" y="-1012.4" font-family="Helvetica,sans-Serif" font-size="12.00" fill="#000000">&#45;m_strUsername</text>
<text text-anchor="middle" x="265.7613" y="-999.4" font-family="Helvetica,sans-Serif" font-size="12.00" fill="#000000">&#45;m_strLoginStatus</text>
<text text-anchor="middle" x="265.7613" y="-986.4" font-family="Helvetica,sans-Serif" font-size="12.00" fill="#000000">&#45;m_strPassword</text>
<text text-anchor="middle" x="265.7613" y="-973.4" font-family="Helvetica,sans-Serif" font-size="12.00" fill="#000000">&#45;m_strPhoneNumber</text>
<text text-anchor="middle" x="265.7613" y="-960.4" font-family="Helvetica,sans-Serif" font-size="12.00" fill="#000000">&#45;m_strEmail</text>
</g>
<!-- Node6 -->
<g id="node6" class="node">
<title>Node6</title>
<g id="a_node6"><a xlink:href="../../d5/de1/classCDataBase.html" target="_top" xlink:title="This class connect with database in this program database represent the files with extension ....">
<polygon fill="none" stroke="#000000" points="480.7613,-230.5 480.7613,-436.5 626.7613,-436.5 626.7613,-230.5 480.7613,-230.5"/>
<text text-anchor="middle" x="553.7613" y="-422.9" font-family="Helvetica,sans-Serif" font-size="12.00" fill="#000000">CDataBase</text>
<polyline fill="none" stroke="#000000" points="480.7613,-415.5 626.7613,-415.5 "/>
<text text-anchor="middle" x="553.7613" y="-401.9" font-family="Helvetica,sans-Serif" font-size="12.00" fill="#000000"> </text>
<polyline fill="none" stroke="#000000" points="480.7613,-394.5 626.7613,-394.5 "/>
<text text-anchor="start" x="488.7613" y="-380.9" font-family="Helvetica,sans-Serif" font-size="12.00" fill="#000000">+ CDataBase()</text>
<text text-anchor="start" x="488.7613" y="-367.9" font-family="Helvetica,sans-Serif" font-size="12.00" fill="#000000">+ CDataBase()</text>
<text text-anchor="start" x="488.7613" y="-354.9" font-family="Helvetica,sans-Serif" font-size="12.00" fill="#000000">+ inputForETF()</text>
<text text-anchor="start" x="488.7613" y="-341.9" font-family="Helvetica,sans-Serif" font-size="12.00" fill="#000000">+ inputForStock()</text>
<text text-anchor="start" x="488.7613" y="-328.9" font-family="Helvetica,sans-Serif" font-size="12.00" fill="#000000">+ meanOfAsset()</text>
<text text-anchor="start" x="488.7613" y="-315.9" font-family="Helvetica,sans-Serif" font-size="12.00" fill="#000000">+ slice()</text>
<text text-anchor="start" x="488.7613" y="-302.9" font-family="Helvetica,sans-Serif" font-size="12.00" fill="#000000">+ returnOfAsset()</text>
<text text-anchor="start" x="488.7613" y="-289.9" font-family="Helvetica,sans-Serif" font-size="12.00" fill="#000000">+ choosePortfolio()</text>
<text text-anchor="start" x="488.7613" y="-276.9" font-family="Helvetica,sans-Serif" font-size="12.00" fill="#000000">+ getMStrToItPortfolio()</text>
<text text-anchor="start" x="488.7613" y="-263.9" font-family="Helvetica,sans-Serif" font-size="12.00" fill="#000000">+ setMStrToItPortfolio()</text>
<text text-anchor="start" x="488.7613" y="-250.9" font-family="Helvetica,sans-Serif" font-size="12.00" fill="#000000">+ getMStrToetfPortfolio()</text>
<text text-anchor="start" x="488.7613" y="-237.9" font-family="Helvetica,sans-Serif" font-size="12.00" fill="#000000">+ ~CDataBase()</text>
</a>
</g>
</g>
<!-- Node3&#45;&gt;Node6 -->
<g id="edge7" class="edge">
<title>Node3&#45;&gt;Node6</title>
<path fill="none" stroke="#404040" d="M306.9639,-1069.7185C312.8437,-1063.2058 318.1991,-1055.8598 321.7613,-1048 377.5121,-924.99 308.3668,-875.0578 344.7613,-745 374.5706,-638.475 433.0082,-527.1735 480.529,-447.2253"/>
<polygon fill="none" stroke="#404040" points="480.6963,-446.9456 480.3462,-439.743 486.8601,-436.6496 487.2102,-443.8522 480.6963,-446.9456"/>
<text text-anchor="middle" x="403.7613" y="-864.9" font-family="Helvetica,sans-Serif" font-size="12.00" fill="#000000"> &#45;strSymbol</text>
<text text-anchor="middle" x="403.7613" y="-851.9" font-family="Helvetica,sans-Serif" font-size="12.00" fill="#000000">&#45;strInstrumentName</text>
<text text-anchor="middle" x="403.7613" y="-838.9" font-family="Helvetica,sans-Serif" font-size="12.00" fill="#000000">&#45;m_strTOETFPortfolio</text>
<text text-anchor="middle" x="403.7613" y="-825.9" font-family="Helvetica,sans-Serif" font-size="12.00" fill="#000000">&#45;m_strToITPortfolio</text>
<text text-anchor="middle" x="403.7613" y="-812.9" font-family="Helvetica,sans-Serif" font-size="12.00" fill="#000000">&#45;strTradeDate</text>
</g>
<!-- Node7 -->
<g id="node7" class="node">
<title>Node7</title>
<g id="a_node7"><a xlink:href="../../dc/d85/classCAsset.html" target="_top" xlink:title="This class is pure virtual class and from it are inhereted those class: CPortfolio,...">
<polygon fill="none" stroke="#000000" points="471.7613,-745.5 471.7613,-938.5 635.7613,-938.5 635.7613,-745.5 471.7613,-745.5"/>
<text text-anchor="middle" x="553.7613" y="-924.9" font-family="Helvetica,sans-Serif" font-size="12.00" fill="#000000">CAsset</text>
<polyline fill="none" stroke="#000000" points="471.7613,-917.5 635.7613,-917.5 "/>
<text text-anchor="middle" x="553.7613" y="-903.9" font-family="Helvetica,sans-Serif" font-size="12.00" fill="#000000"> </text>
<polyline fill="none" stroke="#000000" points="471.7613,-896.5 635.7613,-896.5 "/>
<text text-anchor="start" x="479.7613" y="-882.9" font-family="Helvetica,sans-Serif" font-size="12.00" fill="#000000">+ CAsset()</text>
<text text-anchor="start" x="479.7613" y="-869.9" font-family="Helvetica,sans-Serif" font-size="12.00" fill="#000000">+ CAsset()</text>
<text text-anchor="start" x="479.7613" y="-856.9" font-family="Helvetica,sans-Serif" font-size="12.00" fill="#000000">+ getMStrAssetName()</text>
<text text-anchor="start" x="479.7613" y="-843.9" font-family="Helvetica,sans-Serif" font-size="12.00" fill="#000000">+ getFromBase()</text>
<text text-anchor="start" x="479.7613" y="-830.9" font-family="Helvetica,sans-Serif" font-size="12.00" fill="#000000">+ printAssetInfo()</text>
<text text-anchor="start" x="479.7613" y="-817.9" font-family="Helvetica,sans-Serif" font-size="12.00" fill="#000000">+ slice()</text>
<text text-anchor="start" x="479.7613" y="-804.9" font-family="Helvetica,sans-Serif" font-size="12.00" fill="#000000">+ returnOfAsset()</text>
<text text-anchor="start" x="479.7613" y="-791.9" font-family="Helvetica,sans-Serif" font-size="12.00" fill="#000000">+ meanOfAsset()</text>
<text text-anchor="start" x="479.7613" y="-778.9" font-family="Helvetica,sans-Serif" font-size="12.00" fill="#000000">+ returnAndMeanDiffrence()</text>
<text text-anchor="start" x="479.7613" y="-765.9" font-family="Helvetica,sans-Serif" font-size="12.00" fill="#000000">+ riskOfAsset()</text>
<text text-anchor="start" x="479.7613" y="-752.9" font-family="Helvetica,sans-Serif" font-size="12.00" fill="#000000">+ ~CAsset()</text>
</a>
</g>
</g>
<!-- Node3&#45;&gt;Node7 -->
<g id="edge11" class="edge">
<title>Node3&#45;&gt;Node7</title>
<path fill="none" stroke="#404040" d="M306.841,-1081.0622C320.7869,-1072.7171 336.1134,-1061.5212 346.7613,-1048 373.4734,-1014.08 348.3429,-985.5157 380.7613,-957 407.1501,-933.7881 427.0908,-956.1603 457.7613,-939 458.9244,-938.3493 460.0827,-937.6803 461.2359,-936.9942"/>
<polygon fill="none" stroke="#404040" points="461.3863,-936.8971 464.2567,-930.2819 471.4671,-930.3872 468.5967,-937.0024 461.3863,-936.8971"/>
<text text-anchor="middle" x="428.7613" y="-1012.4" font-family="Helvetica,sans-Serif" font-size="12.00" fill="#000000"> &#45;m_strTradeDate</text>
<text text-anchor="middle" x="428.7613" y="-999.4" font-family="Helvetica,sans-Serif" font-size="12.00" fill="#000000">&#45;m_strAssetName</text>
<text text-anchor="middle" x="428.7613" y="-986.4" font-family="Helvetica,sans-Serif" font-size="12.00" fill="#000000">&#45;m_strSymbol</text>
</g>
<!-- Node4 -->
<g id="node4" class="node">
<title>Node4</title>
<g id="a_node4"><a xlink:title="STL class.">
<polygon fill="none" stroke="#bfbfbf" points="217.7613,-1167.5 217.7613,-1243.5 327.7613,-1243.5 327.7613,-1167.5 217.7613,-1167.5"/>
<text text-anchor="start" x="225.7613" y="-1229.9" font-family="Helvetica,sans-Serif" font-size="12.00" fill="#000000">std::basic_string&lt;</text>
<text text-anchor="middle" x="272.7613" y="-1216.9" font-family="Helvetica,sans-Serif" font-size="12.00" fill="#000000"> char &gt;</text>
<polyline fill="none" stroke="#bfbfbf" points="217.7613,-1209.5 327.7613,-1209.5 "/>
<text text-anchor="middle" x="272.7613" y="-1195.9" font-family="Helvetica,sans-Serif" font-size="12.00" fill="#000000"> </text>
<polyline fill="none" stroke="#bfbfbf" points="217.7613,-1188.5 327.7613,-1188.5 "/>
<text text-anchor="middle" x="272.7613" y="-1174.9" font-family="Helvetica,sans-Serif" font-size="12.00" fill="#000000"> </text>
</a>
</g>
</g>
<!-- Node4&#45;&gt;Node3 -->
<g id="edge3" class="edge">
<title>Node4&#45;&gt;Node3</title>
<path fill="none" stroke="#191970" d="M272.7613,-1157.2888C272.7613,-1147.9337 272.7613,-1138.3524 272.7613,-1129.6948"/>
<polygon fill="none" stroke="#191970" points="269.2614,-1157.2968 272.7613,-1167.2968 276.2614,-1157.2969 269.2614,-1157.2968"/>
</g>
<!-- Node5 -->
<g id="node5" class="node">
<title>Node5</title>
<g id="a_node5"><a xlink:title=" ">
<polygon fill="none" stroke="#bfbfbf" points="706.2613,-1066.5 706.2613,-1129.5 759.2613,-1129.5 759.2613,-1066.5 706.2613,-1066.5"/>
<text text-anchor="middle" x="732.7613" y="-1115.9" font-family="Helvetica,sans-Serif" font-size="12.00" fill="#000000">double</text>
<polyline fill="none" stroke="#bfbfbf" points="706.2613,-1108.5 759.2613,-1108.5 "/>
<text text-anchor="middle" x="732.7613" y="-1094.9" font-family="Helvetica,sans-Serif" font-size="12.00" fill="#000000"> </text>
<polyline fill="none" stroke="#bfbfbf" points="706.2613,-1087.5 759.2613,-1087.5 "/>
<text text-anchor="middle" x="732.7613" y="-1073.9" font-family="Helvetica,sans-Serif" font-size="12.00" fill="#000000"> </text>
</a>
</g>
</g>
<!-- Node5&#45;&gt;Node1 -->
<g id="edge4" class="edge">
<title>Node5&#45;&gt;Node1</title>
<path fill="none" stroke="#404040" d="M758.5445,-1066.2583C781.5457,-1035.7404 813.5647,-987.253 826.7613,-939 849.5068,-855.832 841.9918,-829.8664 826.7613,-745 783.6388,-504.7154 787.1087,-421.5469 635.7613,-230 602.2267,-187.5582 552.1474,-153.504 509.4171,-129.6689"/>
<polygon fill="none" stroke="#404040" points="509.2581,-129.5821 502.075,-130.2169 498.7263,-123.8304 505.9094,-123.1957 509.2581,-129.5821"/>
<text text-anchor="middle" x="855.2613" y="-587.9" font-family="Helvetica,sans-Serif" font-size="12.00" fill="#000000"> &#45;m_dSalary</text>
</g>
<!-- Node5&#45;&gt;Node6 -->
<g id="edge6" class="edge">
<title>Node5&#45;&gt;Node6</title>
<path fill="none" stroke="#404040" d="M730.944,-1066.4625C728.9797,-1037.7701 725.2267,-994.3275 718.7613,-957 679.5216,-730.4493 657.5322,-675.9033 593.7613,-455 593.1415,-452.853 592.5087,-450.6871 591.8647,-448.5071"/>
<polygon fill="none" stroke="#404040" points="591.7823,-448.2328 586.2238,-443.639 588.3265,-436.7412 593.8849,-441.3351 591.7823,-448.2328"/>
<text text-anchor="middle" x="768.7613" y="-858.4" font-family="Helvetica,sans-Serif" font-size="12.00" fill="#000000"> &#45;dInstrumenAmount</text>
<text text-anchor="middle" x="768.7613" y="-845.4" font-family="Helvetica,sans-Serif" font-size="12.00" fill="#000000">&#45;dMarketValue</text>
<text text-anchor="middle" x="768.7613" y="-832.4" font-family="Helvetica,sans-Serif" font-size="12.00" fill="#000000">&#45;dTotalGain</text>
<text text-anchor="middle" x="768.7613" y="-819.4" font-family="Helvetica,sans-Serif" font-size="12.00" fill="#000000">&#45;dDayGain</text>
</g>
<!-- Node5&#45;&gt;Node7 -->
<g id="edge9" class="edge">
<title>Node5&#45;&gt;Node7</title>
<path fill="none" stroke="#404040" d="M705.8475,-1092.6223C680.9307,-1086.2369 644.6719,-1073.1232 623.7613,-1048 597.0744,-1015.9367 613.7956,-996.6277 600.7613,-957 600.0158,-954.7335 599.247,-952.4481 598.4582,-950.1497"/>
<polygon fill="none" stroke="#404040" points="598.3663,-949.8895 592.5942,-945.5671 594.3641,-938.5765 600.1362,-942.899 598.3663,-949.8895"/>
<text text-anchor="middle" x="671.2613" y="-1018.9" font-family="Helvetica,sans-Serif" font-size="12.00" fill="#000000"> &#45;m_dDayGain</text>
<text text-anchor="middle" x="671.2613" y="-1005.9" font-family="Helvetica,sans-Serif" font-size="12.00" fill="#000000">&#45;m_dMarketValue</text>
<text text-anchor="middle" x="671.2613" y="-992.9" font-family="Helvetica,sans-Serif" font-size="12.00" fill="#000000">&#45;m_dTotalGain</text>
<text text-anchor="middle" x="671.2613" y="-979.9" font-family="Helvetica,sans-Serif" font-size="12.00" fill="#000000">&#45;m_dAmount</text>
</g>
<!-- Node6&#45;&gt;Node1 -->
<g id="edge5" class="edge">
<title>Node6&#45;&gt;Node1</title>
<path fill="none" stroke="#404040" d="M499.9019,-230.4461C493.1414,-217.5106 486.2316,-204.2896 479.4888,-191.3879"/>
<polygon fill="none" stroke="#404040" points="479.4293,-191.274 473.1051,-187.8092 473.871,-180.6389 480.1952,-184.1037 479.4293,-191.274"/>
<text text-anchor="middle" x="536.2613" y="-202.4" font-family="Helvetica,sans-Serif" font-size="12.00" fill="#000000"> &#45;brokerDatabase</text>
</g>
<!-- Node7&#45;&gt;Node1 -->
<g id="edge13" class="edge">
<title>Node7&#45;&gt;Node1</title>
<path fill="none" stroke="#404040" d="M517.9648,-745.3936C489.7939,-664.3271 452.5794,-544.818 435.7613,-437 423.075,-355.6698 421.3763,-262.3263 422.5454,-193.0275"/>
<polygon fill="none" stroke="#404040" points="422.5496,-192.8107 418.6682,-186.7333 422.7853,-180.813 426.6667,-186.8904 422.5496,-192.8107"/>
<text text-anchor="middle" x="453.7613" y="-330.4" font-family="Helvetica,sans-Serif" font-size="12.00" fill="#000000"> &#45;asset</text>
</g>
<!-- Node7&#45;&gt;Node6 -->
<g id="edge8" class="edge">
<title>Node7&#45;&gt;Node6</title>
<path fill="none" stroke="#404040" d="M553.7613,-745.4578C553.7613,-661.0522 553.7613,-538.322 553.7613,-448.7832"/>
<polygon fill="none" stroke="#404040" points="553.7614,-448.6535 549.7614,-442.6535 553.7613,-436.6535 557.7614,-442.6535 553.7614,-448.6535"/>
<text text-anchor="middle" x="571.7613" y="-587.9" font-family="Helvetica,sans-Serif" font-size="12.00" fill="#000000"> &#45;asset</text>
</g>
<!-- Node8 -->
<g id="node8" class="node">
<title>Node8</title>
<g id="a_node8"><a xlink:title=" ">
<polygon fill="none" stroke="#bfbfbf" points="473.2613,-1066.5 473.2613,-1129.5 502.2613,-1129.5 502.2613,-1066.5 473.2613,-1066.5"/>
<text text-anchor="middle" x="487.7613" y="-1115.9" font-family="Helvetica,sans-Serif" font-size="12.00" fill="#000000">int</text>
<polyline fill="none" stroke="#bfbfbf" points="473.2613,-1108.5 502.2613,-1108.5 "/>
<text text-anchor="middle" x="487.7613" y="-1094.9" font-family="Helvetica,sans-Serif" font-size="12.00" fill="#000000"> </text>
<polyline fill="none" stroke="#bfbfbf" points="473.2613,-1087.5 502.2613,-1087.5 "/>
<text text-anchor="middle" x="487.7613" y="-1073.9" font-family="Helvetica,sans-Serif" font-size="12.00" fill="#000000"> </text>
</a>
</g>
</g>
<!-- Node8&#45;&gt;Node7 -->
<g id="edge10" class="edge">
<title>Node8&#45;&gt;Node7</title>
<path fill="none" stroke="#404040" d="M483.5096,-1066.3142C480.6646,-1037.3337 479.01,-993.5426 488.7613,-957 489.3711,-954.7149 490.0372,-952.4273 490.7542,-950.1411"/>
<polygon fill="none" stroke="#404040" points="490.7794,-950.0686 488.9819,-943.0851 494.7368,-938.7399 496.5344,-945.7233 490.7794,-950.0686"/>
<text text-anchor="middle" x="544.7613" y="-999.4" font-family="Helvetica,sans-Serif" font-size="12.00" fill="#000000"> &#45;m_nPredictionDays</text>
</g>
</g>
</svg>
        <g id="navigator" transform="translate(0 0)" fill="#404254">
                <rect fill="#f2f5e9" fill-opacity="0.5" stroke="#606060" stroke-width=".5" x="0" y="0" width="60" height="60"/>
                <use id="zoomplus" xlink:href="#zoomPlus" x="17" y="9" onmousedown="handleZoom(evt,'in')"/>
                <use id="zoomminus" xlink:href="#zoomMin" x="42" y="9" onmousedown="handleZoom(evt,'out')"/>
                <use id="reset" xlink:href="#resetDef" x="30" y="36" onmousedown="handleReset()"/>
                <g id="arrowUp" xlink:href="#dirArrow" transform="translate(30 24)" onmousedown="handlePan(0,-1)">
                  <use xlink:href="#rim" fill="#404040">
                        <set attributeName="fill" to="#808080" begin="arrowUp.mouseover" end="arrowUp.mouseout"/>
                  </use>
                  <path fill="none" stroke="white" stroke-width="1.5" d="M0,-3.0v7 M-2.5,-0.5L0,-3.0L2.5,-0.5"/>
                </g>
                <g id="arrowRight" xlink:href="#dirArrow" transform="rotate(90) translate(36 -43)" onmousedown="handlePan(1,0)">
                  <use xlink:href="#rim" fill="#404040">
                        <set attributeName="fill" to="#808080" begin="arrowRight.mouseover" end="arrowRight.mouseout"/>
                  </use>
                  <path fill="none" stroke="white" stroke-width="1.5" d="M0,-3.0v7 M-2.5,-0.5L0,-3.0L2.5,-0.5"/>
                </g>
                <g id="arrowDown" xlink:href="#dirArrow" transform="rotate(180) translate(-30 -48)" onmousedown="handlePan(0,1)">
                  <use xlink:href="#rim" fill="#404040">
                        <set attributeName="fill" to="#808080" begin="arrowDown.mouseover" end="arrowDown.mouseout"/>
                  </use>
                  <path fill="none" stroke="white" stroke-width="1.5" d="M0,-3.0v7 M-2.5,-0.5L0,-3.0L2.5,-0.5"/>
                </g>
                <g id="arrowLeft" xlink:href="#dirArrow" transform="rotate(270) translate(-36 17)" onmousedown="handlePan(-1,0)">
                  <use xlink:href="#rim" fill="#404040">
                        <set attributeName="fill" to="#808080" begin="arrowLeft.mouseover" end="arrowLeft.mouseout"/>
                  </use>
                  <path fill="none" stroke="white" stroke-width="1.5" d="M0,-3.0v7 M-2.5,-0.5L0,-3.0L2.5,-0.5"/>
                </g>
        </g>
        <svg viewBox="0 0 15 15" width="100%" height="30px" preserveAspectRatio="xMaxYMin meet">
         <g id="arrow_out" transform="scale(0.3 0.3)">
          <a xlink:href="classCBroker__coll__graph_org.svg" target="_base">
           <rect id="button" ry="5" rx="5" y="6" x="6" height="38" width="38"
                fill="#f2f5e9" fill-opacity="0.5" stroke="#606060" stroke-width="1.0"/>
           <path id="arrow"
             d="M 11.500037,31.436501 C 11.940474,20.09759 22.043105,11.32322 32.158766,21.979434 L 37.068811,17.246167 C 37.068811,17.246167 37.088388,32 37.088388,32 L 22.160133,31.978069 C 22.160133,31.978069 26.997745,27.140456 26.997745,27.140456 C 18.528582,18.264221 13.291696,25.230495 11.500037,31.436501 z"
             style="fill:#404040;"/>
          </a>
         </g>
        </svg>
</svg>
