<?xml version="1.0" encoding="UTF-8" standalone="no"?>
<!DOCTYPE svg PUBLIC "-//W3C//DTD SVG 1.1//EN"
 "http://www.w3.org/Graphics/SVG/1.1/DTD/svg11.dtd">
<!-- Generated by graphviz version 2.40.1 (20161225.0304)
 -->
<!-- Title: CBroker::createBrokerMenu Pages: 1 -->
<svg width="977pt" height="668pt"
 viewBox="0.00 0.00 977.00 668.00" xmlns="http://www.w3.org/2000/svg" xmlns:xlink="http://www.w3.org/1999/xlink">
<g id="graph0" class="graph" transform="scale(1 1) rotate(0) translate(4 664)">
<title>CBroker::createBrokerMenu</title>
<!-- Node1 -->
<g id="node1" class="node">
<title>Node1</title>
<g id="a_node1"><a xlink:title="This function create Broker menu through this you can register, change info about Broker.">
<polygon fill="#bfbfbf" stroke="#000000" points="0,-320.5 0,-341.5 165,-341.5 165,-320.5 0,-320.5"/>
<text text-anchor="middle" x="82.5" y="-327.9" font-family="Helvetica,sans-Serif" font-size="12.00" fill="#000000">CBroker::createBrokerMenu</text>
</a>
</g>
</g>
<!-- Node2 -->
<g id="node2" class="node">
<title>Node2</title>
<g id="a_node2"><a xlink:href="../../db/da6/classCBroker.html#a0a4c0561e0aa269774c971c7b59a6055" target="_top" xlink:title="this CBroker member function is creating menu to get info or to create broker account">
<polygon fill="none" stroke="#000000" points="223.5,-638.5 223.5,-659.5 354.5,-659.5 354.5,-638.5 223.5,-638.5"/>
<text text-anchor="middle" x="289" y="-645.9" font-family="Helvetica,sans-Serif" font-size="12.00" fill="#000000">CBroker::brokerMenu</text>
</a>
</g>
</g>
<!-- Node1&#45;&gt;Node2 -->
<g id="edge1" class="edge">
<title>Node1&#45;&gt;Node2</title>
<path fill="none" stroke="#191970" d="M83.5106,-341.6773C88.1181,-384.2091 110.9733,-543.1681 201,-624 205.4668,-628.0105 210.5328,-631.3818 215.9239,-634.2151"/>
<polygon fill="#191970" stroke="#191970" points="214.7061,-637.5071 225.2549,-638.4934 217.6236,-631.144 214.7061,-637.5071"/>
</g>
<!-- Node3 -->
<g id="node3" class="node">
<title>Node3</title>
<g id="a_node3"><a xlink:href="../../db/da6/classCBroker.html#a2222652bc234a4136a5aa321f5e0b6c5" target="_top" xlink:title="Method get Broker name from member field m_strBrokerName.">
<polygon fill="none" stroke="#000000" points="423.5,-618.5 423.5,-639.5 599.5,-639.5 599.5,-618.5 423.5,-618.5"/>
<text text-anchor="middle" x="511.5" y="-625.9" font-family="Helvetica,sans-Serif" font-size="12.00" fill="#000000">CBroker::getMStrBrokerName</text>
</a>
</g>
</g>
<!-- Node1&#45;&gt;Node3 -->
<g id="edge4" class="edge">
<title>Node1&#45;&gt;Node3</title>
<path fill="none" stroke="#191970" d="M83.7194,-341.6992C88.9498,-382.1616 113.3762,-526.7806 201,-591 233.856,-615.0801 334.8276,-623.9874 412.8017,-627.2354"/>
<polygon fill="#191970" stroke="#191970" points="413.0281,-630.7468 423.157,-627.6395 413.3011,-623.7521 413.0281,-630.7468"/>
</g>
<!-- Node4 -->
<g id="node4" class="node">
<title>Node4</title>
<g id="a_node4"><a xlink:href="../../de/dd6/classCUser.html#a4426efd46e3ed6df6d3b1765eefb0094" target="_top" xlink:title=" ">
<polygon fill="none" stroke="#000000" points="217.5,-560.5 217.5,-581.5 360.5,-581.5 360.5,-560.5 217.5,-560.5"/>
<text text-anchor="middle" x="289" y="-567.9" font-family="Helvetica,sans-Serif" font-size="12.00" fill="#000000">CUser::getMStrAddress</text>
</a>
</g>
</g>
<!-- Node1&#45;&gt;Node4 -->
<g id="edge3" class="edge">
<title>Node1&#45;&gt;Node4</title>
<path fill="none" stroke="#191970" d="M84.8713,-341.5277C93.4813,-377.199 126.5799,-494.414 201,-551 203.3384,-552.778 205.8064,-554.4029 208.3723,-555.8875"/>
<polygon fill="#191970" stroke="#191970" points="206.9186,-559.0737 217.4284,-560.4135 210.048,-552.8121 206.9186,-559.0737"/>
</g>
<!-- Node5 -->
<g id="node5" class="node">
<title>Node5</title>
<g id="a_node5"><a xlink:href="../../de/dd6/classCUser.html#a6a8a1d2949cabbf38017689411a10f90" target="_top" xlink:title=" ">
<polygon fill="none" stroke="#000000" points="224.5,-520.5 224.5,-541.5 353.5,-541.5 353.5,-520.5 224.5,-520.5"/>
<text text-anchor="middle" x="289" y="-527.9" font-family="Helvetica,sans-Serif" font-size="12.00" fill="#000000">CUser::getMStrEmail</text>
</a>
</g>
</g>
<!-- Node1&#45;&gt;Node5 -->
<g id="edge5" class="edge">
<title>Node1&#45;&gt;Node5</title>
<path fill="none" stroke="#191970" d="M86.1827,-341.5618C97.6875,-372.9107 136.1151,-466.033 201,-511 205.2374,-513.9366 209.8395,-516.4488 214.6424,-518.597"/>
<polygon fill="#191970" stroke="#191970" points="213.4956,-521.9067 224.0833,-522.2957 216.049,-515.389 213.4956,-521.9067"/>
</g>
<!-- Node6 -->
<g id="node6" class="node">
<title>Node6</title>
<g id="a_node6"><a xlink:href="../../de/dd6/classCUser.html#a2a1b7d80c34e48084f111736f0161c34" target="_top" xlink:title=" ">
<polygon fill="none" stroke="#000000" points="213,-480.5 213,-501.5 365,-501.5 365,-480.5 213,-480.5"/>
<text text-anchor="middle" x="289" y="-487.9" font-family="Helvetica,sans-Serif" font-size="12.00" fill="#000000">CUser::getMStrPassword</text>
</a>
</g>
</g>
<!-- Node1&#45;&gt;Node6 -->
<g id="edge6" class="edge">
<title>Node1&#45;&gt;Node6</title>
<path fill="none" stroke="#191970" d="M88.3096,-341.8076C103.197,-368.3965 145.4817,-437.2717 201,-471 204.4417,-473.0909 208.0793,-474.9635 211.8389,-476.6406"/>
<polygon fill="#191970" stroke="#191970" points="210.8069,-479.9962 221.3933,-480.4198 213.3817,-473.4869 210.8069,-479.9962"/>
</g>
<!-- Node7 -->
<g id="node7" class="node">
<title>Node7</title>
<g id="a_node7"><a xlink:href="../../de/dd6/classCUser.html#aae8a3eea4ee7e459e75cbb94934d6420" target="_top" xlink:title=" ">
<polygon fill="none" stroke="#000000" points="201,-440.5 201,-461.5 377,-461.5 377,-440.5 201,-440.5"/>
<text text-anchor="middle" x="289" y="-447.9" font-family="Helvetica,sans-Serif" font-size="12.00" fill="#000000">CUser::getMStrPhoneNumber</text>
</a>
</g>
</g>
<!-- Node1&#45;&gt;Node7 -->
<g id="edge7" class="edge">
<title>Node1&#45;&gt;Node7</title>
<path fill="none" stroke="#191970" d="M91.7598,-341.6575C110.3063,-362.2921 154.2561,-407.7124 201,-431 205.8206,-433.4016 210.9332,-435.5188 216.1726,-437.3848"/>
<polygon fill="#191970" stroke="#191970" points="215.1125,-440.7204 225.7046,-440.4792 217.274,-434.0624 215.1125,-440.7204"/>
</g>
<!-- Node8 -->
<g id="node8" class="node">
<title>Node8</title>
<g id="a_node8"><a xlink:href="../../de/dd6/classCUser.html#a99623f378da2bc2bde96372447041938" target="_top" xlink:title=" ">
<polygon fill="none" stroke="#000000" points="204.5,-400.5 204.5,-421.5 373.5,-421.5 373.5,-400.5 204.5,-400.5"/>
<text text-anchor="middle" x="289" y="-407.9" font-family="Helvetica,sans-Serif" font-size="12.00" fill="#000000">CUser::getMStrRegisterDate</text>
</a>
</g>
</g>
<!-- Node1&#45;&gt;Node8 -->
<g id="edge8" class="edge">
<title>Node1&#45;&gt;Node8</title>
<path fill="none" stroke="#191970" d="M99.9576,-341.5639C122.5488,-354.8241 163.472,-377.4674 201,-391 208.071,-393.5498 215.5824,-395.8463 223.1208,-397.895"/>
<polygon fill="#191970" stroke="#191970" points="222.4543,-401.3375 233.0115,-400.4458 224.2024,-394.5593 222.4543,-401.3375"/>
</g>
<!-- Node9 -->
<g id="node9" class="node">
<title>Node9</title>
<g id="a_node9"><a xlink:href="../../de/dd6/classCUser.html#aaa97b7e7cd44d46d703ca0abe79898c1" target="_top" xlink:title=" ">
<polygon fill="none" stroke="#000000" points="212,-360.5 212,-381.5 366,-381.5 366,-360.5 212,-360.5"/>
<text text-anchor="middle" x="289" y="-367.9" font-family="Helvetica,sans-Serif" font-size="12.00" fill="#000000">CUser::getMStrUsername</text>
</a>
</g>
</g>
<!-- Node1&#45;&gt;Node9 -->
<g id="edge9" class="edge">
<title>Node1&#45;&gt;Node9</title>
<path fill="none" stroke="#191970" d="M136.7554,-341.5095C163.6814,-346.7252 196.3946,-353.0619 224.5861,-358.5227"/>
<polygon fill="#191970" stroke="#191970" points="224.2656,-362.0256 234.7488,-360.4913 225.5969,-355.1534 224.2656,-362.0256"/>
</g>
<!-- Node10 -->
<g id="node10" class="node">
<title>Node10</title>
<g id="a_node10"><a xlink:href="../../d5/de1/classCDataBase.html#a06e986cfe90b12db4e651ca70f4c6949" target="_top" xlink:title="Method get and set data of ETF to database in this program database are the files and relation with t...">
<polygon fill="none" stroke="#000000" points="213,-280.5 213,-301.5 365,-301.5 365,-280.5 213,-280.5"/>
<text text-anchor="middle" x="289" y="-287.9" font-family="Helvetica,sans-Serif" font-size="12.00" fill="#000000">CDataBase::inputForETF</text>
</a>
</g>
</g>
<!-- Node1&#45;&gt;Node10 -->
<g id="edge10" class="edge">
<title>Node1&#45;&gt;Node10</title>
<path fill="none" stroke="#191970" d="M136.7554,-320.4905C163.6814,-315.2748 196.3946,-308.9381 224.5861,-303.4773"/>
<polygon fill="#191970" stroke="#191970" points="225.5969,-306.8466 234.7488,-301.5087 224.2656,-299.9744 225.5969,-306.8466"/>
</g>
<!-- Node26 -->
<g id="node26" class="node">
<title>Node26</title>
<g id="a_node26"><a xlink:href="../../d5/de1/classCDataBase.html#a763fc57fb5ad33e7d4ef92dd32698f34" target="_top" xlink:title="Method get and set data of Stocks to database in this program database are the files and relation wit...">
<polygon fill="none" stroke="#000000" points="209.5,-320.5 209.5,-341.5 368.5,-341.5 368.5,-320.5 209.5,-320.5"/>
<text text-anchor="middle" x="289" y="-327.9" font-family="Helvetica,sans-Serif" font-size="12.00" fill="#000000">CDataBase::inputForStock</text>
</a>
</g>
</g>
<!-- Node1&#45;&gt;Node26 -->
<g id="edge26" class="edge">
<title>Node1&#45;&gt;Node26</title>
<path fill="none" stroke="#191970" d="M165.0045,-331C176.1859,-331 187.7059,-331 199.0102,-331"/>
<polygon fill="#191970" stroke="#191970" points="199.3152,-334.5001 209.3152,-331 199.3152,-327.5001 199.3152,-334.5001"/>
</g>
<!-- Node28 -->
<g id="node28" class="node">
<title>Node28</title>
<g id="a_node28"><a xlink:href="../../de/dd6/classCUser.html#a620cb94cbb315d45238cde10b79f9093" target="_top" xlink:title=" ">
<polygon fill="none" stroke="#000000" points="218,-240.5 218,-261.5 360,-261.5 360,-240.5 218,-240.5"/>
<text text-anchor="middle" x="289" y="-247.9" font-family="Helvetica,sans-Serif" font-size="12.00" fill="#000000">CUser::setMStrAddress</text>
</a>
</g>
</g>
<!-- Node1&#45;&gt;Node28 -->
<g id="edge31" class="edge">
<title>Node1&#45;&gt;Node28</title>
<path fill="none" stroke="#191970" d="M99.9576,-320.4361C122.5488,-307.1759 163.472,-284.5326 201,-271 208.071,-268.4502 215.5824,-266.1537 223.1208,-264.105"/>
<polygon fill="#191970" stroke="#191970" points="224.2024,-267.4407 233.0115,-261.5542 222.4543,-260.6625 224.2024,-267.4407"/>
</g>
<!-- Node29 -->
<g id="node29" class="node">
<title>Node29</title>
<g id="a_node29"><a xlink:href="../../db/da6/classCBroker.html#aca0efebc9cffa5ae03d0fe2c1ffcc1b2" target="_top" xlink:title="Method set Broker name.">
<polygon fill="none" stroke="#000000" points="201.5,-200.5 201.5,-221.5 376.5,-221.5 376.5,-200.5 201.5,-200.5"/>
<text text-anchor="middle" x="289" y="-207.9" font-family="Helvetica,sans-Serif" font-size="12.00" fill="#000000">CBroker::setMStrBrokerName</text>
</a>
</g>
</g>
<!-- Node1&#45;&gt;Node29 -->
<g id="edge32" class="edge">
<title>Node1&#45;&gt;Node29</title>
<path fill="none" stroke="#191970" d="M91.7598,-320.3425C110.3063,-299.7079 154.2561,-254.2876 201,-231 205.8206,-228.5984 210.9332,-226.4812 216.1726,-224.6152"/>
<polygon fill="#191970" stroke="#191970" points="217.274,-227.9376 225.7046,-221.5208 215.1125,-221.2796 217.274,-227.9376"/>
</g>
<!-- Node30 -->
<g id="node30" class="node">
<title>Node30</title>
<g id="a_node30"><a xlink:href="../../de/dd6/classCUser.html#a8dc600d0758abdecbbe1c48b60d75cf5" target="_top" xlink:title=" ">
<polygon fill="none" stroke="#000000" points="225,-160.5 225,-181.5 353,-181.5 353,-160.5 225,-160.5"/>
<text text-anchor="middle" x="289" y="-167.9" font-family="Helvetica,sans-Serif" font-size="12.00" fill="#000000">CUser::setMStrEmail</text>
</a>
</g>
</g>
<!-- Node1&#45;&gt;Node30 -->
<g id="edge33" class="edge">
<title>Node1&#45;&gt;Node30</title>
<path fill="none" stroke="#191970" d="M88.3096,-320.1924C103.197,-293.6035 145.4817,-224.7283 201,-191 205.4062,-188.3232 210.1336,-186.0041 215.0269,-183.9949"/>
<polygon fill="#191970" stroke="#191970" points="216.4067,-187.2172 224.6005,-180.5007 214.0066,-180.6415 216.4067,-187.2172"/>
</g>
<!-- Node31 -->
<g id="node31" class="node">
<title>Node31</title>
<g id="a_node31"><a xlink:href="../../de/dd6/classCUser.html#a084834c81eac4df94fab1b039be64432" target="_top" xlink:title=" ">
<polygon fill="none" stroke="#000000" points="213.5,-120.5 213.5,-141.5 364.5,-141.5 364.5,-120.5 213.5,-120.5"/>
<text text-anchor="middle" x="289" y="-127.9" font-family="Helvetica,sans-Serif" font-size="12.00" fill="#000000">CUser::setMStrPassword</text>
</a>
</g>
</g>
<!-- Node1&#45;&gt;Node31 -->
<g id="edge34" class="edge">
<title>Node1&#45;&gt;Node31</title>
<path fill="none" stroke="#191970" d="M86.1827,-320.4382C97.6875,-289.0893 136.1151,-195.967 201,-151 203.7686,-149.0813 206.6929,-147.3438 209.7271,-145.7706"/>
<polygon fill="#191970" stroke="#191970" points="211.4438,-148.8356 219.1142,-141.527 208.5602,-142.4571 211.4438,-148.8356"/>
</g>
<!-- Node32 -->
<g id="node32" class="node">
<title>Node32</title>
<g id="a_node32"><a xlink:href="../../de/dd6/classCUser.html#a03c30cd45adbcf9a77763f78139f7a55" target="_top" xlink:title=" ">
<polygon fill="none" stroke="#000000" points="201,-80.5 201,-101.5 377,-101.5 377,-80.5 201,-80.5"/>
<text text-anchor="middle" x="289" y="-87.9" font-family="Helvetica,sans-Serif" font-size="12.00" fill="#000000">CUser::setMStrPhoneNumber</text>
</a>
</g>
</g>
<!-- Node1&#45;&gt;Node32 -->
<g id="edge35" class="edge">
<title>Node1&#45;&gt;Node32</title>
<path fill="none" stroke="#191970" d="M84.8713,-320.4723C93.4813,-284.801 126.5799,-167.586 201,-111 203.3384,-109.222 205.8064,-107.5971 208.3723,-106.1125"/>
<polygon fill="#191970" stroke="#191970" points="210.048,-109.1879 217.4284,-101.5865 206.9186,-102.9263 210.048,-109.1879"/>
</g>
<!-- Node33 -->
<g id="node33" class="node">
<title>Node33</title>
<g id="a_node33"><a xlink:href="../../de/dd6/classCUser.html#a444c52bb242a31119bf0283d3c70c1f7" target="_top" xlink:title=" ">
<polygon fill="none" stroke="#000000" points="205,-40.5 205,-61.5 373,-61.5 373,-40.5 205,-40.5"/>
<text text-anchor="middle" x="289" y="-47.9" font-family="Helvetica,sans-Serif" font-size="12.00" fill="#000000">CUser::setMStrRegisterDate</text>
</a>
</g>
</g>
<!-- Node1&#45;&gt;Node33 -->
<g id="edge36" class="edge">
<title>Node1&#45;&gt;Node33</title>
<path fill="none" stroke="#191970" d="M83.9724,-320.3028C90.0488,-280.456 116.9459,-139.4335 201,-71 203.0199,-69.3555 205.1486,-67.8402 207.3634,-66.4443"/>
<polygon fill="#191970" stroke="#191970" points="209.1459,-69.4596 216.2853,-61.6314 205.8225,-63.2988 209.1459,-69.4596"/>
</g>
<!-- Node34 -->
<g id="node34" class="node">
<title>Node34</title>
<g id="a_node34"><a xlink:href="../../de/dd6/classCUser.html#a84554247192c699b9abb455cddbd7e63" target="_top" xlink:title=" ">
<polygon fill="none" stroke="#000000" points="212.5,-.5 212.5,-21.5 365.5,-21.5 365.5,-.5 212.5,-.5"/>
<text text-anchor="middle" x="289" y="-7.9" font-family="Helvetica,sans-Serif" font-size="12.00" fill="#000000">CUser::setMStrUsername</text>
</a>
</g>
</g>
<!-- Node1&#45;&gt;Node34 -->
<g id="edge37" class="edge">
<title>Node1&#45;&gt;Node34</title>
<path fill="none" stroke="#191970" d="M83.2721,-320.2291C87.0031,-276.6099 107.0691,-111.58 201,-31 202.7874,-29.4666 204.6683,-28.0444 206.6256,-26.7255"/>
<polygon fill="#191970" stroke="#191970" points="208.6917,-29.5763 215.643,-21.5807 205.2228,-23.4963 208.6917,-29.5763"/>
</g>
<!-- Node2&#45;&gt;Node3 -->
<g id="edge2" class="edge">
<title>Node2&#45;&gt;Node3</title>
<path fill="none" stroke="#191970" d="M354.5539,-643.1075C372.9769,-641.4515 393.4234,-639.6136 413.3058,-637.8264"/>
<polygon fill="#191970" stroke="#191970" points="413.676,-641.3074 423.3224,-636.9261 413.0492,-634.3355 413.676,-641.3074"/>
</g>
<!-- Node11 -->
<g id="node11" class="node">
<title>Node11</title>
<g id="a_node11"><a xlink:href="../../db/d52/classCRisk.html#aea7aecfae721440bbed175e109518464" target="_top" xlink:title="Method calculate matrix of covariance and variance for portfolio to help calculate risk of the portfo...">
<polygon fill="none" stroke="#000000" points="430.5,-341 430.5,-375 592.5,-375 592.5,-341 430.5,-341"/>
<text text-anchor="start" x="438.5" y="-361.4" font-family="Helvetica,sans-Serif" font-size="12.00" fill="#000000">CRisk::covarianceVariance</text>
<text text-anchor="middle" x="511.5" y="-348.4" font-family="Helvetica,sans-Serif" font-size="12.00" fill="#000000">Matrix</text>
</a>
</g>
</g>
<!-- Node10&#45;&gt;Node11 -->
<g id="edge11" class="edge">
<title>Node10&#45;&gt;Node11</title>
<path fill="none" stroke="#191970" d="M346.5081,-301.5933C356.8145,-304.1877 367.3418,-307.3062 377,-311 394.0957,-317.5383 396.0525,-324.0867 413,-331 418.872,-333.3953 425.0259,-335.6484 431.2682,-337.7521"/>
<polygon fill="#191970" stroke="#191970" points="430.5309,-341.192 441.1226,-340.9341 432.6819,-334.5306 430.5309,-341.192"/>
</g>
<!-- Node12 -->
<g id="node12" class="node">
<title>Node12</title>
<g id="a_node12"><a xlink:href="../../dc/d85/classCAsset.html#ab68c11feace8e8f4b9852404a458796c" target="_top" xlink:title="Method get data from database through the class CDataBase.">
<polygon fill="none" stroke="#000000" points="444.5,-300.5 444.5,-321.5 578.5,-321.5 578.5,-300.5 444.5,-300.5"/>
<text text-anchor="middle" x="511.5" y="-307.9" font-family="Helvetica,sans-Serif" font-size="12.00" fill="#000000">CAsset::getFromBase</text>
</a>
</g>
</g>
<!-- Node10&#45;&gt;Node12 -->
<g id="edge12" class="edge">
<title>Node10&#45;&gt;Node12</title>
<path fill="none" stroke="#191970" d="M365.2606,-297.8549C387.5153,-299.8553 411.8497,-302.0427 434.1699,-304.049"/>
<polygon fill="#191970" stroke="#191970" points="433.9955,-307.5473 444.2687,-304.9567 434.6222,-300.5754 433.9955,-307.5473"/>
</g>
<!-- Node23 -->
<g id="node23" class="node">
<title>Node23</title>
<g id="a_node23"><a xlink:href="../../d5/de1/classCDataBase.html#a57a02c1f3a727f142c42c24789882730" target="_top" xlink:title=" ">
<polygon fill="none" stroke="#000000" points="413,-220.5 413,-241.5 610,-241.5 610,-220.5 413,-220.5"/>
<text text-anchor="middle" x="511.5" y="-227.9" font-family="Helvetica,sans-Serif" font-size="12.00" fill="#000000">CDataBase::getMStrToetfPortfolio</text>
</a>
</g>
</g>
<!-- Node10&#45;&gt;Node23 -->
<g id="edge23" class="edge">
<title>Node10&#45;&gt;Node23</title>
<path fill="none" stroke="#191970" d="M346.5081,-280.4067C356.8145,-277.8123 367.3418,-274.6938 377,-271 394.0957,-264.4617 395.8297,-257.3399 413,-251 420.1936,-248.3438 427.82,-246.0103 435.5187,-243.9668"/>
<polygon fill="#191970" stroke="#191970" points="436.4265,-247.3476 445.2819,-241.531 434.732,-240.5558 436.4265,-247.3476"/>
</g>
<!-- Node24 -->
<g id="node24" class="node">
<title>Node24</title>
<g id="a_node24"><a xlink:href="../../dd/d09/classCReturn.html#a4ae6568cb0c834cce8f257e8a82966c3" target="_top" xlink:title="Method calculate portfolio which have the biggest return with the lowest risk.">
<polygon fill="none" stroke="#000000" points="436,-260.5 436,-281.5 587,-281.5 587,-260.5 436,-260.5"/>
<text text-anchor="middle" x="511.5" y="-267.9" font-family="Helvetica,sans-Serif" font-size="12.00" fill="#000000">CReturn::optimalPortfolio</text>
</a>
</g>
</g>
<!-- Node10&#45;&gt;Node24 -->
<g id="edge24" class="edge">
<title>Node10&#45;&gt;Node24</title>
<path fill="none" stroke="#191970" d="M365.2606,-284.1451C384.7393,-282.3942 405.8114,-280.5001 425.7315,-278.7095"/>
<polygon fill="#191970" stroke="#191970" points="426.0697,-282.1933 435.7162,-277.812 425.4429,-275.2214 426.0697,-282.1933"/>
</g>
<!-- Node13 -->
<g id="node13" class="node">
<title>Node13</title>
<g id="a_node13"><a xlink:href="../../d7/d8f/classCStock.html#ac29f9a8363a2388481e44526a0d4aa06" target="_top" xlink:title=" ">
<polygon fill="none" stroke="#000000" points="663,-360.5 663,-381.5 830,-381.5 830,-360.5 663,-360.5"/>
<text text-anchor="middle" x="746.5" y="-367.9" font-family="Helvetica,sans-Serif" font-size="12.00" fill="#000000">CStock::getMStrPathToAppl</text>
</a>
</g>
</g>
<!-- Node12&#45;&gt;Node13 -->
<g id="edge13" class="edge">
<title>Node12&#45;&gt;Node13</title>
<path fill="none" stroke="#191970" d="M577.7181,-321.531C588.6627,-324.0972 599.7691,-327.2224 610,-331 627.1703,-337.3399 628.8175,-344.6934 646,-351 653.2805,-353.6722 660.9957,-356.0142 668.7864,-358.0611"/>
<polygon fill="#191970" stroke="#191970" points="668.1209,-361.5018 678.6681,-360.4986 669.7974,-354.7055 668.1209,-361.5018"/>
</g>
<!-- Node14 -->
<g id="node14" class="node">
<title>Node14</title>
<g id="a_node14"><a xlink:href="../../d7/d8f/classCStock.html#a71879b1e890394887791d3746cb7ef04" target="_top" xlink:title=" ">
<polygon fill="none" stroke="#000000" points="656,-320.5 656,-341.5 837,-341.5 837,-320.5 656,-320.5"/>
<text text-anchor="middle" x="746.5" y="-327.9" font-family="Helvetica,sans-Serif" font-size="12.00" fill="#000000">CStock::getMStrPathToGoogle</text>
</a>
</g>
</g>
<!-- Node12&#45;&gt;Node14 -->
<g id="edge14" class="edge">
<title>Node12&#45;&gt;Node14</title>
<path fill="none" stroke="#191970" d="M578.5271,-316.7044C599.4441,-318.4846 622.9959,-320.489 645.6987,-322.4212"/>
<polygon fill="#191970" stroke="#191970" points="645.4497,-325.9125 655.7105,-323.2732 646.0434,-318.9378 645.4497,-325.9125"/>
</g>
<!-- Node15 -->
<g id="node15" class="node">
<title>Node15</title>
<g id="a_node15"><a xlink:href="../../d0/dc4/classCETF.html#af8e267a244a73e0ad7038f83b5ec26b0" target="_top" xlink:title=" ">
<polygon fill="none" stroke="#000000" points="671,-280.5 671,-301.5 822,-301.5 822,-280.5 671,-280.5"/>
<text text-anchor="middle" x="746.5" y="-287.9" font-family="Helvetica,sans-Serif" font-size="12.00" fill="#000000">CETF::getMStrPathToIxn</text>
</a>
</g>
</g>
<!-- Node12&#45;&gt;Node15 -->
<g id="edge15" class="edge">
<title>Node12&#45;&gt;Node15</title>
<path fill="none" stroke="#191970" d="M578.5271,-305.2956C604.0296,-303.1251 633.4488,-300.6214 660.4707,-298.3216"/>
<polygon fill="#191970" stroke="#191970" points="661.0294,-301.7868 670.6965,-297.4514 660.4357,-294.8121 661.0294,-301.7868"/>
</g>
<!-- Node16 -->
<g id="node16" class="node">
<title>Node16</title>
<g id="a_node16"><a xlink:href="../../d0/dc4/classCETF.html#a8d19cc867f54575686cf448a2d17af38" target="_top" xlink:title=" ">
<polygon fill="none" stroke="#000000" points="667.5,-240.5 667.5,-261.5 825.5,-261.5 825.5,-240.5 667.5,-240.5"/>
<text text-anchor="middle" x="746.5" y="-247.9" font-family="Helvetica,sans-Serif" font-size="12.00" fill="#000000">CETF::getMStrPathToQqq</text>
</a>
</g>
</g>
<!-- Node12&#45;&gt;Node16 -->
<g id="edge16" class="edge">
<title>Node12&#45;&gt;Node16</title>
<path fill="none" stroke="#191970" d="M577.7181,-300.469C588.6627,-297.9028 599.7691,-294.7776 610,-291 627.1703,-284.6601 628.8175,-277.3066 646,-271 653.2805,-268.3278 660.9957,-265.9858 668.7864,-263.9389"/>
<polygon fill="#191970" stroke="#191970" points="669.7974,-267.2945 678.6681,-261.5014 668.1209,-260.4982 669.7974,-267.2945"/>
</g>
<!-- Node17 -->
<g id="node17" class="node">
<title>Node17</title>
<g id="a_node17"><a xlink:href="../../d0/dc4/classCETF.html#a477bc0a30dca4ce9bf7a9a52e121324b" target="_top" xlink:title=" ">
<polygon fill="none" stroke="#000000" points="670.5,-200.5 670.5,-221.5 822.5,-221.5 822.5,-200.5 670.5,-200.5"/>
<text text-anchor="middle" x="746.5" y="-207.9" font-family="Helvetica,sans-Serif" font-size="12.00" fill="#000000">CETF::getMStrPathToXlk</text>
</a>
</g>
</g>
<!-- Node12&#45;&gt;Node17 -->
<g id="edge17" class="edge">
<title>Node12&#45;&gt;Node17</title>
<path fill="none" stroke="#191970" d="M578.7074,-305.1471C589.8296,-302.0591 600.7382,-297.5473 610,-291 635.3941,-273.0486 620.5711,-248.902 646,-231 650.5913,-227.7677 655.5782,-225.0284 660.7932,-222.7097"/>
<polygon fill="#191970" stroke="#191970" points="662.3409,-225.8631 670.3907,-218.9746 659.8021,-219.3397 662.3409,-225.8631"/>
</g>
<!-- Node18 -->
<g id="node18" class="node">
<title>Node18</title>
<g id="a_node18"><a xlink:href="../../d7/d8f/classCStock.html#a157bab205439811406e6aa5da0fcaddd" target="_top" xlink:title=" ">
<polygon fill="none" stroke="#000000" points="646,-160.5 646,-181.5 847,-181.5 847,-160.5 646,-160.5"/>
<text text-anchor="middle" x="746.5" y="-167.9" font-family="Helvetica,sans-Serif" font-size="12.00" fill="#000000">CStock::getMStrPathtToAmznDate</text>
</a>
</g>
</g>
<!-- Node12&#45;&gt;Node18 -->
<g id="edge18" class="edge">
<title>Node12&#45;&gt;Node18</title>
<path fill="none" stroke="#191970" d="M578.5732,-306.9664C590.0292,-303.7335 601.089,-298.7024 610,-291 645.7368,-260.11 610.2033,-221.8206 646,-191 647.7526,-189.491 649.5864,-188.0837 651.4885,-186.7717"/>
<polygon fill="#191970" stroke="#191970" points="653.3977,-189.709 660.2273,-181.6091 649.8372,-183.6821 653.3977,-189.709"/>
</g>
<!-- Node19 -->
<g id="node19" class="node">
<title>Node19</title>
<g id="a_node19"><a xlink:href="../../dc/d85/classCAsset.html#a48d22720b57dc24776a9023be661bff9" target="_top" xlink:title="Method calculate mean of one Asset.">
<polygon fill="none" stroke="#000000" points="679.5,-480.5 679.5,-501.5 813.5,-501.5 813.5,-480.5 679.5,-480.5"/>
<text text-anchor="middle" x="746.5" y="-487.9" font-family="Helvetica,sans-Serif" font-size="12.00" fill="#000000">CAsset::meanOfAsset</text>
</a>
</g>
</g>
<!-- Node12&#45;&gt;Node19 -->
<g id="edge19" class="edge">
<title>Node12&#45;&gt;Node19</title>
<path fill="none" stroke="#191970" d="M578.67,-314.2221C590.2528,-317.5091 601.3337,-322.7678 610,-331 656.5808,-375.2474 599.3334,-426.8431 646,-471 652.7377,-477.3753 660.8998,-481.9834 669.6267,-485.2795"/>
<polygon fill="#191970" stroke="#191970" points="668.6864,-488.6533 679.2773,-488.3628 670.8169,-481.9854 668.6864,-488.6533"/>
</g>
<!-- Node20 -->
<g id="node20" class="node">
<title>Node20</title>
<g id="a_node20"><a xlink:href="../../dc/d85/classCAsset.html#aa855b3cfd867f9788d1cc0e5db7c3870" target="_top" xlink:title="Method return diffrence between vector of returns and double value of mean of return of Asset.">
<polygon fill="none" stroke="#000000" points="650.5,-440.5 650.5,-461.5 842.5,-461.5 842.5,-440.5 650.5,-440.5"/>
<text text-anchor="middle" x="746.5" y="-447.9" font-family="Helvetica,sans-Serif" font-size="12.00" fill="#000000">CAsset::returnAndMeanDiffrence</text>
</a>
</g>
</g>
<!-- Node12&#45;&gt;Node20 -->
<g id="edge20" class="edge">
<title>Node12&#45;&gt;Node20</title>
<path fill="none" stroke="#191970" d="M578.5732,-315.0336C590.0292,-318.2665 601.089,-323.2976 610,-331 645.7368,-361.89 610.2033,-400.1794 646,-431 647.7526,-432.509 649.5864,-433.9163 651.4885,-435.2283"/>
<polygon fill="#191970" stroke="#191970" points="649.8372,-438.3179 660.2273,-440.3909 653.3977,-432.291 649.8372,-438.3179"/>
</g>
<!-- Node21 -->
<g id="node21" class="node">
<title>Node21</title>
<g id="a_node21"><a xlink:href="../../dc/d85/classCAsset.html#a96031ecbece20a71af492b3cf5063f0b" target="_top" xlink:title="Method returns what is returns of one Asset in the setting period, get info for this from database.">
<polygon fill="none" stroke="#000000" points="679.5,-400.5 679.5,-421.5 813.5,-421.5 813.5,-400.5 679.5,-400.5"/>
<text text-anchor="middle" x="746.5" y="-407.9" font-family="Helvetica,sans-Serif" font-size="12.00" fill="#000000">CAsset::returnOfAsset</text>
</a>
</g>
</g>
<!-- Node12&#45;&gt;Node21 -->
<g id="edge21" class="edge">
<title>Node12&#45;&gt;Node21</title>
<path fill="none" stroke="#191970" d="M578.7074,-316.8529C589.8296,-319.9409 600.7382,-324.4527 610,-331 635.3941,-348.9514 620.5711,-373.098 646,-391 653.1342,-396.0225 661.2233,-399.8546 669.6397,-402.7682"/>
<polygon fill="#191970" stroke="#191970" points="668.6623,-406.1291 679.2477,-405.6818 670.6937,-399.4303 668.6623,-406.1291"/>
</g>
<!-- Node22 -->
<g id="node22" class="node">
<title>Node22</title>
<g id="a_node22"><a xlink:href="../../dc/d85/classCAsset.html#ae862a51b2a6ea0668c19a07f081e0b3c" target="_top" xlink:title="Method helps to set size of vector for next method returnOfAsset()">
<polygon fill="none" stroke="#000000" points="883,-400.5 883,-421.5 969,-421.5 969,-400.5 883,-400.5"/>
<text text-anchor="middle" x="926" y="-407.9" font-family="Helvetica,sans-Serif" font-size="12.00" fill="#000000">CAsset::slice</text>
</a>
</g>
</g>
<!-- Node21&#45;&gt;Node22 -->
<g id="edge22" class="edge">
<title>Node21&#45;&gt;Node22</title>
<path fill="none" stroke="#191970" d="M813.5944,-411C833.171,-411 854.2863,-411 872.8725,-411"/>
<polygon fill="#191970" stroke="#191970" points="872.9121,-414.5001 882.9121,-411 872.912,-407.5001 872.9121,-414.5001"/>
</g>
<!-- Node25 -->
<g id="node25" class="node">
<title>Node25</title>
<g id="a_node25"><a xlink:href="../../db/d52/classCRisk.html#a8742c21ca8a8034b4fe20b3676ab931b" target="_top" xlink:title="Method calculate risk of the portfolio &#45; standard deviation to help calculate std of portfolio taking...">
<polygon fill="none" stroke="#000000" points="688.5,-120.5 688.5,-141.5 804.5,-141.5 804.5,-120.5 688.5,-120.5"/>
<text text-anchor="middle" x="746.5" y="-127.9" font-family="Helvetica,sans-Serif" font-size="12.00" fill="#000000">CRisk::portfolioStd</text>
</a>
</g>
</g>
<!-- Node24&#45;&gt;Node25 -->
<g id="edge25" class="edge">
<title>Node24&#45;&gt;Node25</title>
<path fill="none" stroke="#191970" d="M587.373,-264.0741C595.6195,-260.9453 603.3993,-256.7055 610,-251 645.7368,-220.11 610.2033,-181.8206 646,-151 655.1632,-143.1105 666.5452,-138.0006 678.3217,-134.7504"/>
<polygon fill="#191970" stroke="#191970" points="679.3196,-138.1118 688.2668,-132.4374 677.7339,-131.2937 679.3196,-138.1118"/>
</g>
<!-- Node26&#45;&gt;Node11 -->
<g id="edge27" class="edge">
<title>Node26&#45;&gt;Node11</title>
<path fill="none" stroke="#191970" d="M368.6991,-340.6714C385.4814,-342.7079 403.3079,-344.8711 420.47,-346.9537"/>
<polygon fill="#191970" stroke="#191970" points="420.1363,-350.4388 430.4852,-348.169 420.9796,-343.4897 420.1363,-350.4388"/>
</g>
<!-- Node26&#45;&gt;Node12 -->
<g id="edge28" class="edge">
<title>Node26&#45;&gt;Node12</title>
<path fill="none" stroke="#191970" d="M368.6991,-323.836C390.024,-321.9192 413.0349,-319.8508 434.2265,-317.9459"/>
<polygon fill="#191970" stroke="#191970" points="434.8216,-321.4066 444.4681,-317.0253 434.1948,-314.4348 434.8216,-321.4066"/>
</g>
<!-- Node26&#45;&gt;Node24 -->
<g id="edge30" class="edge">
<title>Node26&#45;&gt;Node24</title>
<path fill="none" stroke="#191970" d="M346.5081,-320.4067C356.8145,-317.8123 367.3418,-314.6938 377,-311 394.0957,-304.4617 395.8297,-297.3399 413,-291 420.1936,-288.3438 427.82,-286.0103 435.5187,-283.9668"/>
<polygon fill="#191970" stroke="#191970" points="436.4265,-287.3476 445.2819,-281.531 434.732,-280.5558 436.4265,-287.3476"/>
</g>
<!-- Node27 -->
<g id="node27" class="node">
<title>Node27</title>
<g id="a_node27"><a xlink:href="../../d5/de1/classCDataBase.html#a4d52b0dbf60c0295aea772711839332d" target="_top" xlink:title=" ">
<polygon fill="none" stroke="#000000" points="416,-394.5 416,-415.5 607,-415.5 607,-394.5 416,-394.5"/>
<text text-anchor="middle" x="511.5" y="-401.9" font-family="Helvetica,sans-Serif" font-size="12.00" fill="#000000">CDataBase::getMStrToItPortfolio</text>
</a>
</g>
</g>
<!-- Node26&#45;&gt;Node27 -->
<g id="edge29" class="edge">
<title>Node26&#45;&gt;Node27</title>
<path fill="none" stroke="#191970" d="M353.3719,-341.5122C361.5637,-344.0299 369.6451,-347.1456 377,-351 396.2251,-361.0751 393.7078,-374.0541 413,-384 418.5074,-386.8393 424.3776,-389.2949 430.4045,-391.4187"/>
<polygon fill="#191970" stroke="#191970" points="429.3836,-394.7668 439.9748,-394.4903 431.5229,-388.1017 429.3836,-394.7668"/>
</g>
</g>
</svg>
