<?xml version="1.0" encoding="UTF-8" standalone="no"?>
<!DOCTYPE svg PUBLIC "-//W3C//DTD SVG 1.1//EN"
 "http://www.w3.org/Graphics/SVG/1.1/DTD/svg11.dtd">
<!-- Generated by graphviz version 2.40.1 (20161225.0304)
 -->
<!-- Title: CBroker::setMStrBrokerName Pages: 1 -->
<svg width="735pt" height="68pt"
 viewBox="0.00 0.00 735.00 68.00" xmlns="http://www.w3.org/2000/svg" xmlns:xlink="http://www.w3.org/1999/xlink">
<g id="graph0" class="graph" transform="scale(1 1) rotate(0) translate(4 64)">
<title>CBroker::setMStrBrokerName</title>
<!-- Node1 -->
<g id="node1" class="node">
<title>Node1</title>
<g id="a_node1"><a xlink:title="Method set Broker name.">
<polygon fill="#bfbfbf" stroke="#000000" points="552,-.5 552,-21.5 727,-21.5 727,-.5 552,-.5"/>
<text text-anchor="middle" x="639.5" y="-7.9" font-family="Helvetica,sans-Serif" font-size="12.00" fill="#000000">CBroker::setMStrBrokerName</text>
</a>
</g>
</g>
<!-- Node2 -->
<g id="node2" class="node">
<title>Node2</title>
<g id="a_node2"><a xlink:href="../../db/da6/classCBroker.html#abce158f7c4dce747c076db9e7d1cdf52" target="_top" xlink:title="This function create Broker menu through this you can register, change info about Broker.">
<polygon fill="none" stroke="#000000" points="351,-.5 351,-21.5 516,-21.5 516,-.5 351,-.5"/>
<text text-anchor="middle" x="433.5" y="-7.9" font-family="Helvetica,sans-Serif" font-size="12.00" fill="#000000">CBroker::createBrokerMenu</text>
</a>
</g>
</g>
<!-- Node1&#45;&gt;Node2 -->
<g id="edge1" class="edge">
<title>Node1&#45;&gt;Node2</title>
<path fill="none" stroke="#191970" d="M541.8087,-11C533.2331,-11 524.6083,-11 516.1729,-11"/>
<polygon fill="#191970" stroke="#191970" points="541.8388,-14.5001 551.8387,-11 541.8387,-7.5001 541.8388,-14.5001"/>
</g>
<!-- Node3 -->
<g id="node3" class="node">
<title>Node3</title>
<g id="a_node3"><a xlink:href="../../da/d8b/classCAdministrator.html#a834db63b1ee3b716b1e8e97a101e51de" target="_top" xlink:title="Method with while loop, switch expression and fstream library to register the administrator and can g...">
<polygon fill="none" stroke="#000000" points="79,-20.5 79,-41.5 315,-41.5 315,-20.5 79,-20.5"/>
<text text-anchor="middle" x="197" y="-27.9" font-family="Helvetica,sans-Serif" font-size="12.00" fill="#000000">CAdministrator::createAdministratorMenu</text>
</a>
</g>
</g>
<!-- Node2&#45;&gt;Node3 -->
<g id="edge2" class="edge">
<title>Node2&#45;&gt;Node3</title>
<path fill="none" stroke="#191970" d="M340.6206,-18.8545C332.2056,-19.5661 323.6106,-20.293 315.0172,-21.0197"/>
<polygon fill="#191970" stroke="#191970" points="341.1143,-22.3253 350.7838,-17.995 340.5244,-15.3502 341.1143,-22.3253"/>
</g>
<!-- Node4 -->
<g id="node4" class="node">
<title>Node4</title>
<g id="a_node4"><a xlink:href="../../df/d0a/main_8cpp.html#ae66f6b31b5ad750f1fe042a706a4e3d4" target="_top" xlink:title=" ">
<polygon fill="none" stroke="#000000" points="0,-.5 0,-21.5 43,-21.5 43,-.5 0,-.5"/>
<text text-anchor="middle" x="21.5" y="-7.9" font-family="Helvetica,sans-Serif" font-size="12.00" fill="#000000">main</text>
</a>
</g>
</g>
<!-- Node2&#45;&gt;Node4 -->
<g id="edge5" class="edge">
<title>Node2&#45;&gt;Node4</title>
<path fill="none" stroke="#191970" d="M340.4995,-11C243.3873,-11 97.7591,-11 43.1813,-11"/>
<polygon fill="#191970" stroke="#191970" points="340.6213,-14.5001 350.6213,-11 340.6212,-7.5001 340.6213,-14.5001"/>
</g>
<!-- Node3&#45;&gt;Node3 -->
<g id="edge3" class="edge">
<title>Node3&#45;&gt;Node3</title>
<path fill="none" stroke="#191970" d="M229.3758,-50.6791C227.6409,-55.9746 216.849,-60 197,-60 166.7539,-60 157.5383,-50.6531 169.3532,-41.7079"/>
<polygon fill="#191970" stroke="#191970" points="232.4061,-48.922 224.6468,-41.7079 226.2138,-52.1862 232.4061,-48.922"/>
</g>
<!-- Node3&#45;&gt;Node4 -->
<g id="edge4" class="edge">
<title>Node3&#45;&gt;Node4</title>
<path fill="none" stroke="#191970" d="M94.4501,-19.3134C75.1263,-17.1113 56.7886,-15.0215 43.3323,-13.488"/>
<polygon fill="#191970" stroke="#191970" points="94.2924,-22.818 104.6245,-20.4729 95.0851,-15.863 94.2924,-22.818"/>
</g>
</g>
</svg>
