<?xml version="1.0" encoding="UTF-8" standalone="no"?>
<!DOCTYPE svg PUBLIC "-//W3C//DTD SVG 1.1//EN"
 "http://www.w3.org/Graphics/SVG/1.1/DTD/svg11.dtd">
<!-- Generated by graphviz version 2.40.1 (20161225.0304)
 -->
<!-- Title: CBroker::getMStrBrokerName Pages: 1 -->
<svg width="903pt" height="68pt"
 viewBox="0.00 0.00 903.00 68.00" xmlns="http://www.w3.org/2000/svg" xmlns:xlink="http://www.w3.org/1999/xlink">
<g id="graph0" class="graph" transform="scale(1 1) rotate(0) translate(4 64)">
<title>CBroker::getMStrBrokerName</title>
<!-- Node1 -->
<g id="node1" class="node">
<title>Node1</title>
<g id="a_node1"><a xlink:title="Method get Broker name from member field m_strBrokerName.">
<polygon fill="#bfbfbf" stroke="#000000" points="719,-.5 719,-21.5 895,-21.5 895,-.5 719,-.5"/>
<text text-anchor="middle" x="807" y="-7.9" font-family="Helvetica,sans-Serif" font-size="12.00" fill="#000000">CBroker::getMStrBrokerName</text>
</a>
</g>
</g>
<!-- Node2 -->
<g id="node2" class="node">
<title>Node2</title>
<g id="a_node2"><a xlink:href="../../db/da6/classCBroker.html#a0a4c0561e0aa269774c971c7b59a6055" target="_top" xlink:title="this CBroker member function is creating menu to get info or to create broker account">
<polygon fill="none" stroke="#000000" points="552,-20.5 552,-41.5 683,-41.5 683,-20.5 552,-20.5"/>
<text text-anchor="middle" x="617.5" y="-27.9" font-family="Helvetica,sans-Serif" font-size="12.00" fill="#000000">CBroker::brokerMenu</text>
</a>
</g>
</g>
<!-- Node1&#45;&gt;Node2 -->
<g id="edge1" class="edge">
<title>Node1&#45;&gt;Node2</title>
<path fill="none" stroke="#191970" d="M708.6965,-21.375C699.999,-22.293 691.3416,-23.2067 683.0178,-24.0852"/>
<polygon fill="#191970" stroke="#191970" points="709.3298,-24.8277 718.9072,-20.2974 708.5951,-17.8664 709.3298,-24.8277"/>
</g>
<!-- Node3 -->
<g id="node3" class="node">
<title>Node3</title>
<g id="a_node3"><a xlink:href="../../db/da6/classCBroker.html#abce158f7c4dce747c076db9e7d1cdf52" target="_top" xlink:title="This function create Broker menu through this you can register, change info about Broker.">
<polygon fill="none" stroke="#000000" points="351,-.5 351,-21.5 516,-21.5 516,-.5 351,-.5"/>
<text text-anchor="middle" x="433.5" y="-7.9" font-family="Helvetica,sans-Serif" font-size="12.00" fill="#000000">CBroker::createBrokerMenu</text>
</a>
</g>
</g>
<!-- Node1&#45;&gt;Node3 -->
<g id="edge7" class="edge">
<title>Node1&#45;&gt;Node3</title>
<path fill="none" stroke="#191970" d="M708.7198,-11C648.7708,-11 573.0035,-11 516.1505,-11"/>
<polygon fill="#191970" stroke="#191970" points="708.9587,-14.5001 718.9587,-11 708.9586,-7.5001 708.9587,-14.5001"/>
</g>
<!-- Node2&#45;&gt;Node3 -->
<g id="edge2" class="edge">
<title>Node2&#45;&gt;Node3</title>
<path fill="none" stroke="#191970" d="M541.6949,-22.7603C533.2765,-21.8453 524.6713,-20.9099 516.1733,-19.9862"/>
<polygon fill="#191970" stroke="#191970" points="541.5314,-26.2631 551.851,-23.8642 542.2878,-19.3041 541.5314,-26.2631"/>
</g>
<!-- Node4 -->
<g id="node4" class="node">
<title>Node4</title>
<g id="a_node4"><a xlink:href="../../da/d8b/classCAdministrator.html#a834db63b1ee3b716b1e8e97a101e51de" target="_top" xlink:title="Method with while loop, switch expression and fstream library to register the administrator and can g...">
<polygon fill="none" stroke="#000000" points="79,-20.5 79,-41.5 315,-41.5 315,-20.5 79,-20.5"/>
<text text-anchor="middle" x="197" y="-27.9" font-family="Helvetica,sans-Serif" font-size="12.00" fill="#000000">CAdministrator::createAdministratorMenu</text>
</a>
</g>
</g>
<!-- Node3&#45;&gt;Node4 -->
<g id="edge3" class="edge">
<title>Node3&#45;&gt;Node4</title>
<path fill="none" stroke="#191970" d="M340.6206,-18.8545C332.2056,-19.5661 323.6106,-20.293 315.0172,-21.0197"/>
<polygon fill="#191970" stroke="#191970" points="341.1143,-22.3253 350.7838,-17.995 340.5244,-15.3502 341.1143,-22.3253"/>
</g>
<!-- Node5 -->
<g id="node5" class="node">
<title>Node5</title>
<g id="a_node5"><a xlink:href="../../df/d0a/main_8cpp.html#ae66f6b31b5ad750f1fe042a706a4e3d4" target="_top" xlink:title=" ">
<polygon fill="none" stroke="#000000" points="0,-.5 0,-21.5 43,-21.5 43,-.5 0,-.5"/>
<text text-anchor="middle" x="21.5" y="-7.9" font-family="Helvetica,sans-Serif" font-size="12.00" fill="#000000">main</text>
</a>
</g>
</g>
<!-- Node3&#45;&gt;Node5 -->
<g id="edge6" class="edge">
<title>Node3&#45;&gt;Node5</title>
<path fill="none" stroke="#191970" d="M340.4995,-11C243.3873,-11 97.7591,-11 43.1813,-11"/>
<polygon fill="#191970" stroke="#191970" points="340.6213,-14.5001 350.6213,-11 340.6212,-7.5001 340.6213,-14.5001"/>
</g>
<!-- Node4&#45;&gt;Node4 -->
<g id="edge4" class="edge">
<title>Node4&#45;&gt;Node4</title>
<path fill="none" stroke="#191970" d="M229.3758,-50.6791C227.6409,-55.9746 216.849,-60 197,-60 166.7539,-60 157.5383,-50.6531 169.3532,-41.7079"/>
<polygon fill="#191970" stroke="#191970" points="232.4061,-48.922 224.6468,-41.7079 226.2138,-52.1862 232.4061,-48.922"/>
</g>
<!-- Node4&#45;&gt;Node5 -->
<g id="edge5" class="edge">
<title>Node4&#45;&gt;Node5</title>
<path fill="none" stroke="#191970" d="M94.4501,-19.3134C75.1263,-17.1113 56.7886,-15.0215 43.3323,-13.488"/>
<polygon fill="#191970" stroke="#191970" points="94.2924,-22.818 104.6245,-20.4729 95.0851,-15.863 94.2924,-22.818"/>
</g>
</g>
</svg>
