<?xml version="1.0" encoding="UTF-8" standalone="no"?>
<!DOCTYPE svg PUBLIC "-//W3C//DTD SVG 1.1//EN"
 "http://www.w3.org/Graphics/SVG/1.1/DTD/svg11.dtd">
<!-- Generated by graphviz version 2.40.1 (20161225.0304)
 -->
<!-- Title: sources/CETF.cpp Pages: 1 -->
<svg width="451pt" height="320pt"
 viewBox="0.00 0.00 450.78 320.00" xmlns="http://www.w3.org/2000/svg" xmlns:xlink="http://www.w3.org/1999/xlink">
<g id="graph0" class="graph" transform="scale(1 1) rotate(0) translate(4 316)">
<title>sources/CETF.cpp</title>
<!-- Node1 -->
<g id="node1" class="node">
<title>Node1</title>
<g id="a_node1"><a xlink:title=" ">
<polygon fill="#bfbfbf" stroke="#000000" points="238.7824,-290.5 238.7824,-311.5 354.7824,-311.5 354.7824,-290.5 238.7824,-290.5"/>
<text text-anchor="middle" x="296.7824" y="-297.9" font-family="Helvetica,sans-Serif" font-size="12.00" fill="#000000">sources/CETF.cpp</text>
</a>
</g>
</g>
<!-- Node2 -->
<g id="node2" class="node">
<title>Node2</title>
<g id="a_node2"><a xlink:href="../../dc/d09/CETF_8h.html" target="_top" xlink:title=" ">
<polygon fill="none" stroke="#000000" points="197.7824,-232.5 197.7824,-253.5 311.7824,-253.5 311.7824,-232.5 197.7824,-232.5"/>
<text text-anchor="middle" x="254.7824" y="-239.9" font-family="Helvetica,sans-Serif" font-size="12.00" fill="#000000">../headers/CETF.h</text>
</a>
</g>
</g>
<!-- Node1&#45;&gt;Node2 -->
<g id="edge1" class="edge">
<title>Node1&#45;&gt;Node2</title>
<path fill="none" stroke="#191970" d="M289.079,-290.3619C283.3361,-282.4313 275.3396,-271.3885 268.5125,-261.9606"/>
<polygon fill="#191970" stroke="#191970" points="271.137,-259.6173 262.437,-253.5707 265.4673,-263.7229 271.137,-259.6173"/>
</g>
<!-- Node4 -->
<g id="node4" class="node">
<title>Node4</title>
<g id="a_node4"><a xlink:title=" ">
<polygon fill="none" stroke="#bfbfbf" points="317.7824,-.5 317.7824,-21.5 379.7824,-21.5 379.7824,-.5 317.7824,-.5"/>
<text text-anchor="middle" x="348.7824" y="-7.9" font-family="Helvetica,sans-Serif" font-size="12.00" fill="#000000">iostream</text>
</a>
</g>
</g>
<!-- Node1&#45;&gt;Node4 -->
<g id="edge17" class="edge">
<title>Node1&#45;&gt;Node4</title>
<path fill="none" stroke="#191970" d="M331.753,-290.392C374.9458,-274.8671 442.7824,-241.4921 442.7824,-185 442.7824,-185 442.7824,-185 442.7824,-127 442.7824,-83.7291 402.8123,-47.5659 374.9998,-27.6402"/>
<polygon fill="#191970" stroke="#191970" points="376.6823,-24.5489 366.4631,-21.7529 372.7082,-30.3115 376.6823,-24.5489"/>
</g>
<!-- Node3 -->
<g id="node3" class="node">
<title>Node3</title>
<g id="a_node3"><a xlink:href="../../d7/d79/CAsset_8h.html" target="_top" xlink:title=" ">
<polygon fill="none" stroke="#000000" points="144.2824,-174.5 144.2824,-195.5 209.2824,-195.5 209.2824,-174.5 144.2824,-174.5"/>
<text text-anchor="middle" x="176.7824" y="-181.9" font-family="Helvetica,sans-Serif" font-size="12.00" fill="#000000">CAsset.h</text>
</a>
</g>
</g>
<!-- Node2&#45;&gt;Node3 -->
<g id="edge2" class="edge">
<title>Node2&#45;&gt;Node3</title>
<path fill="none" stroke="#191970" d="M240.476,-232.3619C228.9312,-223.7773 212.482,-211.5459 199.192,-201.6636"/>
<polygon fill="#191970" stroke="#191970" points="201.1112,-198.7291 190.9981,-195.5707 196.9343,-204.3463 201.1112,-198.7291"/>
</g>
<!-- Node3&#45;&gt;Node4 -->
<g id="edge3" class="edge">
<title>Node3&#45;&gt;Node4</title>
<path fill="none" stroke="#191970" d="M209.4206,-179.5617C257.8772,-169.5331 347.2615,-143.0706 385.7824,-80 396.1242,-63.0672 382.6431,-43.0112 369.144,-28.8987"/>
<polygon fill="#191970" stroke="#191970" points="371.3957,-26.2057 361.7938,-21.7275 366.5073,-31.2161 371.3957,-26.2057"/>
</g>
<!-- Node5 -->
<g id="node5" class="node">
<title>Node5</title>
<g id="a_node5"><a xlink:title=" ">
<polygon fill="none" stroke="#bfbfbf" points="12.7824,-58.5 12.7824,-79.5 58.7824,-79.5 58.7824,-58.5 12.7824,-58.5"/>
<text text-anchor="middle" x="35.7824" y="-65.9" font-family="Helvetica,sans-Serif" font-size="12.00" fill="#000000">string</text>
</a>
</g>
</g>
<!-- Node3&#45;&gt;Node5 -->
<g id="edge4" class="edge">
<title>Node3&#45;&gt;Node5</title>
<path fill="none" stroke="#191970" d="M158.0116,-174.4745C142.7891,-165.5789 121.0956,-152.0683 103.7824,-138 84.5785,-122.3953 64.9882,-101.937 51.7985,-87.3579"/>
<polygon fill="#191970" stroke="#191970" points="54.0908,-84.6696 44.8235,-79.5345 48.8658,-89.3279 54.0908,-84.6696"/>
</g>
<!-- Node6 -->
<g id="node6" class="node">
<title>Node6</title>
<g id="a_node6"><a xlink:title=" ">
<polygon fill="none" stroke="#bfbfbf" points="120.2824,-.5 120.2824,-21.5 169.2824,-21.5 169.2824,-.5 120.2824,-.5"/>
<text text-anchor="middle" x="144.7824" y="-7.9" font-family="Helvetica,sans-Serif" font-size="12.00" fill="#000000">vector</text>
</a>
</g>
</g>
<!-- Node3&#45;&gt;Node6 -->
<g id="edge5" class="edge">
<title>Node3&#45;&gt;Node6</title>
<path fill="none" stroke="#191970" d="M144.1726,-176.8545C101.9448,-164.2701 30.5858,-135.5294 3.7824,-80 -17.6294,-35.6405 61.4739,-19.5245 109.8359,-13.8825"/>
<polygon fill="#191970" stroke="#191970" points="110.3621,-17.3463 119.9332,-12.8028 109.6177,-10.386 110.3621,-17.3463"/>
</g>
<!-- Node7 -->
<g id="node7" class="node">
<title>Node7</title>
<g id="a_node7"><a xlink:title=" ">
<polygon fill="none" stroke="#bfbfbf" points="113.2824,-116.5 113.2824,-137.5 156.2824,-137.5 156.2824,-116.5 113.2824,-116.5"/>
<text text-anchor="middle" x="134.7824" y="-123.9" font-family="Helvetica,sans-Serif" font-size="12.00" fill="#000000">tuple</text>
</a>
</g>
</g>
<!-- Node3&#45;&gt;Node7 -->
<g id="edge6" class="edge">
<title>Node3&#45;&gt;Node7</title>
<path fill="none" stroke="#191970" d="M169.079,-174.3619C163.3361,-166.4313 155.3396,-155.3885 148.5125,-145.9606"/>
<polygon fill="#191970" stroke="#191970" points="151.137,-143.6173 142.437,-137.5707 145.4673,-147.7229 151.137,-143.6173"/>
</g>
<!-- Node8 -->
<g id="node8" class="node">
<title>Node8</title>
<g id="a_node8"><a xlink:href="../../dd/d85/CDataBase_8h.html" target="_top" xlink:title=" ">
<polygon fill="none" stroke="#000000" points="174.2824,-116.5 174.2824,-137.5 263.2824,-137.5 263.2824,-116.5 174.2824,-116.5"/>
<text text-anchor="middle" x="218.7824" y="-123.9" font-family="Helvetica,sans-Serif" font-size="12.00" fill="#000000">CDataBase.h</text>
</a>
</g>
</g>
<!-- Node3&#45;&gt;Node8 -->
<g id="edge7" class="edge">
<title>Node3&#45;&gt;Node8</title>
<path fill="none" stroke="#191970" d="M184.4858,-174.3619C190.2287,-166.4313 198.2252,-155.3885 205.0523,-145.9606"/>
<polygon fill="#191970" stroke="#191970" points="208.0975,-147.7229 211.1278,-137.5707 202.4278,-143.6173 208.0975,-147.7229"/>
</g>
<!-- Node8&#45;&gt;Node4 -->
<g id="edge8" class="edge">
<title>Node8&#45;&gt;Node4</title>
<path fill="none" stroke="#191970" d="M231.5663,-116.3033C242.7867,-106.8609 259.4981,-92.6665 273.7824,-80 293.1058,-62.8652 314.7769,-42.8375 329.8361,-28.7867"/>
<polygon fill="#191970" stroke="#191970" points="332.5521,-31.0388 337.4652,-21.652 327.7708,-25.9262 332.5521,-31.0388"/>
</g>
<!-- Node8&#45;&gt;Node5 -->
<g id="edge9" class="edge">
<title>Node8&#45;&gt;Node5</title>
<path fill="none" stroke="#191970" d="M183.9048,-116.4615C155.2767,-107.7408 113.4591,-94.8421 68.4716,-80.1691"/>
<polygon fill="#191970" stroke="#191970" points="69.4199,-76.7968 58.8273,-77.012 67.2421,-83.4494 69.4199,-76.7968"/>
</g>
<!-- Node8&#45;&gt;Node6 -->
<g id="edge11" class="edge">
<title>Node8&#45;&gt;Node6</title>
<path fill="none" stroke="#191970" d="M211.9533,-116.2949C199.453,-96.6998 172.7364,-54.8198 157.0251,-30.1913"/>
<polygon fill="#191970" stroke="#191970" points="159.9239,-28.2275 151.595,-21.6792 154.0225,-31.9922 159.9239,-28.2275"/>
</g>
<!-- Node9 -->
<g id="node9" class="node">
<title>Node9</title>
<g id="a_node9"><a xlink:title=" ">
<polygon fill="none" stroke="#bfbfbf" points="320.7824,-58.5 320.7824,-79.5 376.7824,-79.5 376.7824,-58.5 320.7824,-58.5"/>
<text text-anchor="middle" x="348.7824" y="-65.9" font-family="Helvetica,sans-Serif" font-size="12.00" fill="#000000">fstream</text>
</a>
</g>
</g>
<!-- Node8&#45;&gt;Node9 -->
<g id="edge10" class="edge">
<title>Node8&#45;&gt;Node9</title>
<path fill="none" stroke="#191970" d="M242.3244,-116.4966C262.8117,-107.3562 292.7296,-94.0082 315.6363,-83.7883"/>
<polygon fill="#191970" stroke="#191970" points="317.27,-86.892 324.9762,-79.6212 314.4178,-80.4994 317.27,-86.892"/>
</g>
<!-- Node10 -->
<g id="node10" class="node">
<title>Node10</title>
<g id="a_node10"><a xlink:href="../../d2/d92/CRisk_8h.html" target="_top" xlink:title=" ">
<polygon fill="none" stroke="#000000" points="205.2824,-58.5 205.2824,-79.5 264.2824,-79.5 264.2824,-58.5 205.2824,-58.5"/>
<text text-anchor="middle" x="234.7824" y="-65.9" font-family="Helvetica,sans-Serif" font-size="12.00" fill="#000000">CRisk.h</text>
</a>
</g>
</g>
<!-- Node8&#45;&gt;Node10 -->
<g id="edge12" class="edge">
<title>Node8&#45;&gt;Node10</title>
<path fill="none" stroke="#191970" d="M221.717,-116.3619C223.792,-108.8401 226.6393,-98.5187 229.1463,-89.4308"/>
<polygon fill="#191970" stroke="#191970" points="232.581,-90.1414 231.8664,-79.5707 225.833,-88.2798 232.581,-90.1414"/>
</g>
<!-- Node11 -->
<g id="node11" class="node">
<title>Node11</title>
<g id="a_node11"><a xlink:href="../../d3/d97/CReturn_8h.html" target="_top" xlink:title=" ">
<polygon fill="none" stroke="#000000" points="77.2824,-58.5 77.2824,-79.5 148.2824,-79.5 148.2824,-58.5 77.2824,-58.5"/>
<text text-anchor="middle" x="112.7824" y="-65.9" font-family="Helvetica,sans-Serif" font-size="12.00" fill="#000000">CReturn.h</text>
</a>
</g>
</g>
<!-- Node8&#45;&gt;Node11 -->
<g id="edge15" class="edge">
<title>Node8&#45;&gt;Node11</title>
<path fill="none" stroke="#191970" d="M199.3404,-116.3619C182.9788,-107.4094 159.369,-94.4908 140.9389,-84.4064"/>
<polygon fill="#191970" stroke="#191970" points="142.5539,-81.3004 132.1012,-79.5707 139.1938,-87.4412 142.5539,-81.3004"/>
</g>
<!-- Node10&#45;&gt;Node4 -->
<g id="edge13" class="edge">
<title>Node10&#45;&gt;Node4</title>
<path fill="none" stroke="#191970" d="M255.4269,-58.4966C273.1521,-49.4786 298.9272,-36.3649 318.9054,-26.2006"/>
<polygon fill="#191970" stroke="#191970" points="320.5805,-29.2753 327.9062,-21.6212 317.4063,-23.0364 320.5805,-29.2753"/>
</g>
<!-- Node10&#45;&gt;Node6 -->
<g id="edge14" class="edge">
<title>Node10&#45;&gt;Node6</title>
<path fill="none" stroke="#191970" d="M218.275,-58.3619C204.7003,-49.6138 185.2492,-37.0786 169.7674,-27.1015"/>
<polygon fill="#191970" stroke="#191970" points="171.4868,-24.0457 161.1851,-21.5707 167.6949,-29.9297 171.4868,-24.0457"/>
</g>
<!-- Node11&#45;&gt;Node6 -->
<g id="edge16" class="edge">
<title>Node11&#45;&gt;Node6</title>
<path fill="none" stroke="#191970" d="M118.6517,-58.3619C122.937,-50.5949 128.8693,-39.8426 133.9985,-30.5458"/>
<polygon fill="#191970" stroke="#191970" points="137.184,-32.0172 138.9503,-21.5707 131.055,-28.6357 137.184,-32.0172"/>
</g>
</g>
</svg>
