<?xml version="1.0" encoding="UTF-8" standalone="no"?>
<!DOCTYPE svg PUBLIC "-//W3C//DTD SVG 1.1//EN"
 "http://www.w3.org/Graphics/SVG/1.1/DTD/svg11.dtd">
<!-- Generated by graphviz version 2.40.1 (20161225.0304)
 -->
<!-- Title: headers/CServer.cpp Pages: 1 -->
<svg width="360pt" height="200pt"
 viewBox="0.00 0.00 359.51 200.00" xmlns="http://www.w3.org/2000/svg" xmlns:xlink="http://www.w3.org/1999/xlink">
<g id="graph0" class="graph" transform="scale(1 1) rotate(0) translate(4 196)">
<title>headers/CServer.cpp</title>
<!-- Node1 -->
<g id="node1" class="node">
<title>Node1</title>
<g id="a_node1"><a xlink:title=" ">
<polygon fill="#bfbfbf" stroke="#000000" points="99.9345,-171.5 99.9345,-191.5 210.3985,-191.5 210.3985,-171.5 99.9345,-171.5"/>
<text text-anchor="middle" x="155.1665" y="-178.5" font-family="Helvetica,sans-Serif" font-size="10.00" fill="#000000">headers/CServer.cpp</text>
</a>
</g>
</g>
<!-- Node2 -->
<g id="node2" class="node">
<title>Node2</title>
<g id="a_node2"><a xlink:href="../../d9/d6e/CServer_8h.html" target="_top" xlink:title=" ">
<polygon fill="none" stroke="#000000" points="124.6655,-114.5 124.6655,-134.5 185.6675,-134.5 185.6675,-114.5 124.6655,-114.5"/>
<text text-anchor="middle" x="155.1665" y="-121.5" font-family="Helvetica,sans-Serif" font-size="10.00" fill="#000000">CServer.h</text>
</a>
</g>
</g>
<!-- Node1&#45;&gt;Node2 -->
<g id="edge1" class="edge">
<title>Node1&#45;&gt;Node2</title>
<path fill="none" stroke="#191970" d="M155.1665,-171.3095C155.1665,-163.9335 155.1665,-153.72 155.1665,-144.715"/>
<polygon fill="#191970" stroke="#191970" points="158.6666,-144.6022 155.1665,-134.6022 151.6666,-144.6023 158.6666,-144.6022"/>
</g>
<!-- Node3 -->
<g id="node3" class="node">
<title>Node3</title>
<g id="a_node3"><a xlink:href="../../dd/d85/CDataBase_8h.html" target="_top" xlink:title=" ">
<polygon fill="none" stroke="#000000" points="117.4365,-57.5 117.4365,-77.5 192.8965,-77.5 192.8965,-57.5 117.4365,-57.5"/>
<text text-anchor="middle" x="155.1665" y="-64.5" font-family="Helvetica,sans-Serif" font-size="10.00" fill="#000000">CDataBase.h</text>
</a>
</g>
</g>
<!-- Node2&#45;&gt;Node3 -->
<g id="edge2" class="edge">
<title>Node2&#45;&gt;Node3</title>
<path fill="none" stroke="#191970" d="M155.1665,-114.3095C155.1665,-106.9335 155.1665,-96.72 155.1665,-87.715"/>
<polygon fill="#191970" stroke="#191970" points="158.6666,-87.6022 155.1665,-77.6022 151.6666,-87.6023 158.6666,-87.6022"/>
</g>
<!-- Node4 -->
<g id="node4" class="node">
<title>Node4</title>
<g id="a_node4"><a xlink:title=" ">
<polygon fill="none" stroke="#bfbfbf" points="0,-.5 0,-20.5 54.333,-20.5 54.333,-.5 0,-.5"/>
<text text-anchor="middle" x="27.1665" y="-7.5" font-family="Helvetica,sans-Serif" font-size="10.00" fill="#000000">iostream</text>
</a>
</g>
</g>
<!-- Node3&#45;&gt;Node4 -->
<g id="edge3" class="edge">
<title>Node3&#45;&gt;Node4</title>
<path fill="none" stroke="#191970" d="M132.5773,-57.4408C112.2305,-48.3801 82.0977,-34.9615 59.2543,-24.7891"/>
<polygon fill="#191970" stroke="#191970" points="60.5194,-21.5212 49.9604,-20.6504 57.6718,-27.9158 60.5194,-21.5212"/>
</g>
<!-- Node5 -->
<g id="node5" class="node">
<title>Node5</title>
<g id="a_node5"><a xlink:title=" ">
<polygon fill="none" stroke="#bfbfbf" points="71.944,-.5 71.944,-20.5 112.389,-20.5 112.389,-.5 71.944,-.5"/>
<text text-anchor="middle" x="92.1665" y="-7.5" font-family="Helvetica,sans-Serif" font-size="10.00" fill="#000000">string</text>
</a>
</g>
</g>
<!-- Node3&#45;&gt;Node5 -->
<g id="edge4" class="edge">
<title>Node3&#45;&gt;Node5</title>
<path fill="none" stroke="#191970" d="M143.9034,-57.3095C134.7654,-49.0419 121.6873,-37.2093 110.9665,-27.5096"/>
<polygon fill="#191970" stroke="#191970" points="113.0957,-24.716 103.3321,-20.6022 108.3993,-29.9068 113.0957,-24.716"/>
</g>
<!-- Node6 -->
<g id="node6" class="node">
<title>Node6</title>
<g id="a_node6"><a xlink:title=" ">
<polygon fill="none" stroke="#bfbfbf" points="130.4995,-.5 130.4995,-20.5 179.8335,-20.5 179.8335,-.5 130.4995,-.5"/>
<text text-anchor="middle" x="155.1665" y="-7.5" font-family="Helvetica,sans-Serif" font-size="10.00" fill="#000000">fstream</text>
</a>
</g>
</g>
<!-- Node3&#45;&gt;Node6 -->
<g id="edge5" class="edge">
<title>Node3&#45;&gt;Node6</title>
<path fill="none" stroke="#191970" d="M155.1665,-57.3095C155.1665,-49.9335 155.1665,-39.72 155.1665,-30.715"/>
<polygon fill="#191970" stroke="#191970" points="158.6666,-30.6022 155.1665,-20.6022 151.6666,-30.6023 158.6666,-30.6022"/>
</g>
<!-- Node7 -->
<g id="node7" class="node">
<title>Node7</title>
<g id="a_node7"><a xlink:title=" ">
<polygon fill="none" stroke="#bfbfbf" points="197.5535,-.5 197.5535,-20.5 240.7795,-20.5 240.7795,-.5 197.5535,-.5"/>
<text text-anchor="middle" x="219.1665" y="-7.5" font-family="Helvetica,sans-Serif" font-size="10.00" fill="#000000">vector</text>
</a>
</g>
</g>
<!-- Node3&#45;&gt;Node7 -->
<g id="edge6" class="edge">
<title>Node3&#45;&gt;Node7</title>
<path fill="none" stroke="#191970" d="M166.6084,-57.3095C175.8914,-49.0419 189.1771,-37.2093 200.068,-27.5096"/>
<polygon fill="#191970" stroke="#191970" points="202.6838,-29.8668 207.8236,-20.6022 198.0281,-24.6395 202.6838,-29.8668"/>
</g>
<!-- Node8 -->
<g id="node8" class="node">
<title>Node8</title>
<g id="a_node8"><a xlink:title=" ">
<polygon fill="none" stroke="#bfbfbf" points="258.819,-.5 258.819,-20.5 351.514,-20.5 351.514,-.5 258.819,-.5"/>
<text text-anchor="middle" x="305.1665" y="-7.5" font-family="Helvetica,sans-Serif" font-size="10.00" fill="#000000">boost/variant.hpp</text>
</a>
</g>
</g>
<!-- Node3&#45;&gt;Node8 -->
<g id="edge7" class="edge">
<title>Node3&#45;&gt;Node8</title>
<path fill="none" stroke="#191970" d="M181.6382,-57.4408C205.9828,-48.1898 242.2821,-34.3961 269.2384,-24.1527"/>
<polygon fill="#191970" stroke="#191970" points="270.603,-27.3784 278.7076,-20.5544 268.1165,-20.8349 270.603,-27.3784"/>
</g>
</g>
</svg>
