<?xml version="1.0" encoding="UTF-8" standalone="no"?>
<!DOCTYPE svg PUBLIC "-//W3C//DTD SVG 1.1//EN"
 "http://www.w3.org/Graphics/SVG/1.1/DTD/svg11.dtd">
<!-- Generated by graphviz version 2.40.1 (20161225.0304)
 -->
<!-- Title: CMyHolding::getMStrHoldingRegisterDate Pages: 1 -->
<svg width="956pt" height="75pt"
 viewBox="0.00 0.00 956.00 74.50" xmlns="http://www.w3.org/2000/svg" xmlns:xlink="http://www.w3.org/1999/xlink">
<g id="graph0" class="graph" transform="scale(1 1) rotate(0) translate(4 70.5)">
<title>CMyHolding::getMStrHoldingRegisterDate</title>
<!-- Node1 -->
<g id="node1" class="node">
<title>Node1</title>
<g id="a_node1"><a xlink:title="Method get register data of holding.">
<polygon fill="#bfbfbf" stroke="#000000" points="775,-.5 775,-34.5 948,-34.5 948,-.5 775,-.5"/>
<text text-anchor="start" x="783" y="-20.9" font-family="Helvetica,sans-Serif" font-size="12.00" fill="#000000">CMyHolding::getMStrHolding</text>
<text text-anchor="middle" x="861.5" y="-7.9" font-family="Helvetica,sans-Serif" font-size="12.00" fill="#000000">RegisterDate</text>
</a>
</g>
</g>
<!-- Node2 -->
<g id="node2" class="node">
<title>Node2</title>
<g id="a_node2"><a xlink:href="../../d1/d60/classCMyHolding.html#a2da746680d2dd9d7af60d49719b0fd37" target="_top" xlink:title="Method set and gets all information about holding of Client.">
<polygon fill="none" stroke="#000000" points="545,-7 545,-28 739,-28 739,-7 545,-7"/>
<text text-anchor="middle" x="642" y="-14.4" font-family="Helvetica,sans-Serif" font-size="12.00" fill="#000000">CMyHolding::createHoldingMenu</text>
</a>
</g>
</g>
<!-- Node1&#45;&gt;Node2 -->
<g id="edge1" class="edge">
<title>Node1&#45;&gt;Node2</title>
<path fill="none" stroke="#191970" d="M764.5909,-17.5C756.212,-17.5 747.7318,-17.5 739.3493,-17.5"/>
<polygon fill="#191970" stroke="#191970" points="764.7478,-21.0001 774.7478,-17.5 764.7478,-14.0001 764.7478,-21.0001"/>
</g>
<!-- Node3 -->
<g id="node3" class="node">
<title>Node3</title>
<g id="a_node3"><a xlink:href="../../df/da7/classCClient.html#a1cb513868f3ae0f1130528cdaeb3fb26" target="_top" xlink:title="Method create Client menu through which you can set and get data for Client.">
<polygon fill="none" stroke="#000000" points="351,-7 351,-28 509,-28 509,-7 351,-7"/>
<text text-anchor="middle" x="430" y="-14.4" font-family="Helvetica,sans-Serif" font-size="12.00" fill="#000000">CClient::createClientMenu</text>
</a>
</g>
</g>
<!-- Node2&#45;&gt;Node3 -->
<g id="edge2" class="edge">
<title>Node2&#45;&gt;Node3</title>
<path fill="none" stroke="#191970" d="M534.8542,-17.5C526.2068,-17.5 517.5697,-17.5 509.173,-17.5"/>
<polygon fill="#191970" stroke="#191970" points="534.9963,-21.0001 544.9962,-17.5 534.9962,-14.0001 534.9963,-21.0001"/>
</g>
<!-- Node4 -->
<g id="node4" class="node">
<title>Node4</title>
<g id="a_node4"><a xlink:href="../../da/d8b/classCAdministrator.html#a834db63b1ee3b716b1e8e97a101e51de" target="_top" xlink:title="Method with while loop, switch expression and fstream library to register the administrator and can g...">
<polygon fill="none" stroke="#000000" points="79,-27 79,-48 315,-48 315,-27 79,-27"/>
<text text-anchor="middle" x="197" y="-34.4" font-family="Helvetica,sans-Serif" font-size="12.00" fill="#000000">CAdministrator::createAdministratorMenu</text>
</a>
</g>
</g>
<!-- Node3&#45;&gt;Node4 -->
<g id="edge3" class="edge">
<title>Node3&#45;&gt;Node4</title>
<path fill="none" stroke="#191970" d="M340.7155,-25.1639C332.3642,-25.8808 323.8153,-26.6146 315.2538,-27.3495"/>
<polygon fill="#191970" stroke="#191970" points="341.1277,-28.6415 350.7917,-24.299 340.529,-21.6671 341.1277,-28.6415"/>
</g>
<!-- Node5 -->
<g id="node5" class="node">
<title>Node5</title>
<g id="a_node5"><a xlink:href="../../df/d0a/main_8cpp.html#ae66f6b31b5ad750f1fe042a706a4e3d4" target="_top" xlink:title=" ">
<polygon fill="none" stroke="#000000" points="0,-7 0,-28 43,-28 43,-7 0,-7"/>
<text text-anchor="middle" x="21.5" y="-14.4" font-family="Helvetica,sans-Serif" font-size="12.00" fill="#000000">main</text>
</a>
</g>
</g>
<!-- Node3&#45;&gt;Node5 -->
<g id="edge6" class="edge">
<title>Node3&#45;&gt;Node5</title>
<path fill="none" stroke="#191970" d="M340.7491,-17.5C244.6831,-17.5 98.2696,-17.5 43.3341,-17.5"/>
<polygon fill="#191970" stroke="#191970" points="340.7528,-21.0001 350.7527,-17.5 340.7527,-14.0001 340.7528,-21.0001"/>
</g>
<!-- Node4&#45;&gt;Node4 -->
<g id="edge4" class="edge">
<title>Node4&#45;&gt;Node4</title>
<path fill="none" stroke="#191970" d="M229.3758,-57.1791C227.6409,-62.4746 216.849,-66.5 197,-66.5 166.7539,-66.5 157.5383,-57.1531 169.3532,-48.2079"/>
<polygon fill="#191970" stroke="#191970" points="232.4061,-55.422 224.6468,-48.2079 226.2138,-58.6862 232.4061,-55.422"/>
</g>
<!-- Node4&#45;&gt;Node5 -->
<g id="edge5" class="edge">
<title>Node4&#45;&gt;Node5</title>
<path fill="none" stroke="#191970" d="M94.4501,-25.8134C75.1263,-23.6113 56.7886,-21.5215 43.3323,-19.988"/>
<polygon fill="#191970" stroke="#191970" points="94.2924,-29.318 104.6245,-26.9729 95.0851,-22.363 94.2924,-29.318"/>
</g>
</g>
</svg>
