<?xml version="1.0" encoding="UTF-8" standalone="no"?>
<!DOCTYPE svg PUBLIC "-//W3C//DTD SVG 1.1//EN"
 "http://www.w3.org/Graphics/SVG/1.1/DTD/svg11.dtd">
<!-- Generated by graphviz version 2.40.1 (20161225.0304)
 -->
<!-- Title: CMyHolding::createHoldingMenu Pages: 1 -->
<!--zoomable 483 -->
<svg id="main" version="1.1" xmlns="http://www.w3.org/2000/svg" xmlns:xlink="http://www.w3.org/1999/xlink" xml:space="preserve" onload="init(evt)">
<style type="text/css"><![CDATA[
.edge:hover path { stroke: red; }
.edge:hover polygon { stroke: red; fill: red; }
]]></style>
<script type="text/javascript"><![CDATA[
var edges = document.getElementsByTagName('g');
if (edges && edges.length) {
  for (var i=0;i<edges.length;i++) {
    if (edges[i].id.substr(0,4)=='edge') {
      edges[i].setAttribute('class','edge');
    }
  }
}
]]></script>
        <defs>
                <circle id="rim" cx="0" cy="0" r="7"/>
                <circle id="rim2" cx="0" cy="0" r="3.5"/>
                <g id="zoomPlus">
                        <use xlink:href="#rim" fill="#404040">
                                <set attributeName="fill" to="#808080" begin="zoomplus.mouseover" end="zoomplus.mouseout"/>
                        </use>
                        <path d="M-4,0h8M0,-4v8" fill="none" stroke="white" stroke-width="1.5" pointer-events="none"/>
                </g>
                <g id="zoomMin">
                        <use xlink:href="#rim" fill="#404040">
                                <set attributeName="fill" to="#808080" begin="zoomminus.mouseover" end="zoomminus.mouseout"/>
                        </use>
                        <path d="M-4,0h8" fill="none" stroke="white" stroke-width="1.5" pointer-events="none"/>
                </g>
                <g id="dirArrow">
                        <path fill="none" stroke="white" stroke-width="1.5" d="M0,-3.0v7 M-2.5,-0.5L0,-3.0L2.5,-0.5"/>
                </g>
               <g id="resetDef">
                       <use xlink:href="#rim2" fill="#404040">
                               <set attributeName="fill" to="#808080" begin="reset.mouseover" end="reset.mouseout"/>
                       </use>
               </g>
        </defs>

<script type="text/javascript">
var viewWidth = 1439;
var viewHeight = 483;
var sectionId = 'dynsection-1';
</script>
<script xlink:href="../../svgpan.js"/>
<svg id="graph" class="graph">
<g id="viewport">
<title>CMyHolding::createHoldingMenu</title>
<!-- Node1 -->
<g id="node1" class="node">
<title>Node1</title>
<g id="a_node1"><a xlink:title="Method set and gets all information about holding of Client.">
<polygon fill="#bfbfbf" stroke="#000000" points="0,-306.5 0,-327.5 194,-327.5 194,-306.5 0,-306.5"/>
<text text-anchor="middle" x="97" y="-313.9" font-family="Helvetica,sans-Serif" font-size="12.00" fill="#000000">CMyHolding::createHoldingMenu</text>
</a>
</g>
</g>
<!-- Node2 -->
<g id="node2" class="node">
<title>Node2</title>
<g id="a_node2"><a xlink:href="../../d1/d60/classCMyHolding.html#a0fff365bd984f212b7ffb26b93ce74eb" target="_top" xlink:title="Method gets holding name.">
<polygon fill="none" stroke="#000000" points="230,-453.5 230,-474.5 435,-474.5 435,-453.5 230,-453.5"/>
<text text-anchor="middle" x="332.5" y="-460.9" font-family="Helvetica,sans-Serif" font-size="12.00" fill="#000000">CMyHolding::getMStrHoldingName</text>
</a>
</g>
</g>
<!-- Node1&#45;&gt;Node2 -->
<g id="edge1" class="edge">
<title>Node1&#45;&gt;Node2</title>
<path fill="none" stroke="#191970" d="M104.6112,-327.6123C123.0276,-352.4236 172.7224,-414.3615 230,-444 234.5138,-446.3357 239.268,-448.3996 244.1559,-450.2234"/>
<polygon fill="#191970" stroke="#191970" points="243.0981,-453.5603 253.6923,-453.4428 245.3372,-446.928 243.0981,-453.5603"/>
</g>
<!-- Node3 -->
<g id="node3" class="node">
<title>Node3</title>
<g id="a_node3"><a xlink:href="../../d1/d60/classCMyHolding.html#a1466a01e6a1cb401e51f6381764284a7" target="_top" xlink:title="Method get register data of holding.">
<polygon fill="none" stroke="#000000" points="246,-400 246,-434 419,-434 419,-400 246,-400"/>
<text text-anchor="start" x="254" y="-420.4" font-family="Helvetica,sans-Serif" font-size="12.00" fill="#000000">CMyHolding::getMStrHolding</text>
<text text-anchor="middle" x="332.5" y="-407.4" font-family="Helvetica,sans-Serif" font-size="12.00" fill="#000000">RegisterDate</text>
</a>
</g>
</g>
<!-- Node1&#45;&gt;Node3 -->
<g id="edge2" class="edge">
<title>Node1&#45;&gt;Node3</title>
<path fill="none" stroke="#191970" d="M112.7108,-327.5251C136.9384,-343.3351 185.3053,-373.2479 230,-391 235.172,-393.0542 240.5562,-394.9865 246.03,-396.7969"/>
<polygon fill="#191970" stroke="#191970" points="245.3633,-400.2565 255.9529,-399.9241 247.4673,-393.5801 245.3633,-400.2565"/>
</g>
<!-- Node4 -->
<g id="node4" class="node">
<title>Node4</title>
<g id="a_node4"><a xlink:href="../../d1/d60/classCMyHolding.html#aa4c88b276924aa8db372ea6a8a6f9e6c" target="_top" xlink:title=" ">
<polygon fill="none" stroke="#000000" points="246,-347 246,-381 419,-381 419,-347 246,-347"/>
<text text-anchor="start" x="254" y="-367.4" font-family="Helvetica,sans-Serif" font-size="12.00" fill="#000000">CMyHolding::getMStrPathFor</text>
<text text-anchor="middle" x="332.5" y="-354.4" font-family="Helvetica,sans-Serif" font-size="12.00" fill="#000000">Holding</text>
</a>
</g>
</g>
<!-- Node1&#45;&gt;Node4 -->
<g id="edge3" class="edge">
<title>Node1&#45;&gt;Node4</title>
<path fill="none" stroke="#191970" d="M149.8508,-327.5477C175.5588,-332.6784 207.2688,-339.0069 237.0121,-344.943"/>
<polygon fill="#191970" stroke="#191970" points="236.5204,-348.4138 247.0121,-346.9387 237.8905,-341.5492 236.5204,-348.4138"/>
</g>
<!-- Node5 -->
<g id="node5" class="node">
<title>Node5</title>
<g id="a_node5"><a xlink:href="../../d1/d60/classCMyHolding.html#a57be9478ef19f17041932212b5e17d65" target="_top" xlink:title="Method gets items of holding menu to enter in main menu for holding information.">
<polygon fill="none" stroke="#000000" points="253,-306.5 253,-327.5 412,-327.5 412,-306.5 253,-306.5"/>
<text text-anchor="middle" x="332.5" y="-313.9" font-family="Helvetica,sans-Serif" font-size="12.00" fill="#000000">CMyHolding::holdingMenu</text>
</a>
</g>
</g>
<!-- Node1&#45;&gt;Node5 -->
<g id="edge4" class="edge">
<title>Node1&#45;&gt;Node5</title>
<path fill="none" stroke="#191970" d="M194.1465,-317C210.1525,-317 226.6827,-317 242.504,-317"/>
<polygon fill="#191970" stroke="#191970" points="242.7859,-320.5001 252.7858,-317 242.7858,-313.5001 242.7859,-320.5001"/>
</g>
<!-- Node6 -->
<g id="node6" class="node">
<title>Node6</title>
<g id="a_node6"><a xlink:href="../../d1/d60/classCMyHolding.html#ac8f2900ec6ddf44f3302e4c7ee4fdddf" target="_top" xlink:title="Methos sets holding name.">
<polygon fill="none" stroke="#000000" points="230.5,-266.5 230.5,-287.5 434.5,-287.5 434.5,-266.5 230.5,-266.5"/>
<text text-anchor="middle" x="332.5" y="-273.9" font-family="Helvetica,sans-Serif" font-size="12.00" fill="#000000">CMyHolding::setMStrHoldingName</text>
</a>
</g>
</g>
<!-- Node1&#45;&gt;Node6 -->
<g id="edge5" class="edge">
<title>Node1&#45;&gt;Node6</title>
<path fill="none" stroke="#191970" d="M158.8749,-306.4905C190.121,-301.1833 228.2006,-294.7154 260.7274,-289.1907"/>
<polygon fill="#191970" stroke="#191970" points="261.3573,-292.6339 270.63,-287.5087 260.185,-285.7327 261.3573,-292.6339"/>
</g>
<!-- Node7 -->
<g id="node7" class="node">
<title>Node7</title>
<g id="a_node7"><a xlink:href="../../d1/d60/classCMyHolding.html#a05aa487612cb6e7058e4f60ce1235b9a" target="_top" xlink:title="Method set register Date of Holding.">
<polygon fill="none" stroke="#000000" points="246.5,-213 246.5,-247 418.5,-247 418.5,-213 246.5,-213"/>
<text text-anchor="start" x="254.5" y="-233.4" font-family="Helvetica,sans-Serif" font-size="12.00" fill="#000000">CMyHolding::setMStrHolding</text>
<text text-anchor="middle" x="332.5" y="-220.4" font-family="Helvetica,sans-Serif" font-size="12.00" fill="#000000">RegisterDate</text>
</a>
</g>
</g>
<!-- Node1&#45;&gt;Node7 -->
<g id="edge6" class="edge">
<title>Node1&#45;&gt;Node7</title>
<path fill="none" stroke="#191970" d="M117.748,-306.3353C143.5462,-293.382 189.1732,-271.4731 230,-257 236.9161,-254.5482 244.1646,-252.2052 251.474,-249.9965"/>
<polygon fill="#191970" stroke="#191970" points="252.8425,-253.2426 261.4537,-247.0702 250.8728,-246.5254 252.8425,-253.2426"/>
</g>
<!-- Node8 -->
<g id="node8" class="node">
<title>Node8</title>
<g id="a_node8"><a xlink:href="../../d9/d52/classCPortfolio.html#a1253d72b078e2ad23e28744f232a078a" target="_top" xlink:title="Mehtod set and get all information about the portfolios.">
<polygon fill="none" stroke="#000000" points="261,-172.5 261,-193.5 404,-193.5 404,-172.5 261,-172.5"/>
<text text-anchor="middle" x="332.5" y="-179.9" font-family="Helvetica,sans-Serif" font-size="12.00" fill="#000000">CPortfolio::userPortfolio</text>
</a>
</g>
</g>
<!-- Node1&#45;&gt;Node8 -->
<g id="edge7" class="edge">
<title>Node1&#45;&gt;Node8</title>
<path fill="none" stroke="#191970" d="M106.0817,-306.272C125.9987,-283.499 176.0636,-230.266 230,-204 236.6244,-200.7741 243.7228,-198.0432 250.9788,-195.7315"/>
<polygon fill="#191970" stroke="#191970" points="252.3178,-198.9871 260.9413,-192.8319 250.3616,-192.266 252.3178,-198.9871"/>
</g>
<!-- Node9 -->
<g id="node9" class="node">
<title>Node9</title>
<g id="a_node9"><a xlink:href="../../d9/d52/classCPortfolio.html#a0b7839f6c1fdda844aef3402a90c8980" target="_top" xlink:title="Method get the items of portfolio menu.">
<polygon fill="none" stroke="#000000" points="471,-274.5 471,-295.5 650,-295.5 650,-274.5 471,-274.5"/>
<text text-anchor="middle" x="560.5" y="-281.9" font-family="Helvetica,sans-Serif" font-size="12.00" fill="#000000">CPortfolio::createUserPortfolio</text>
</a>
</g>
</g>
<!-- Node8&#45;&gt;Node9 -->
<g id="edge8" class="edge">
<title>Node8&#45;&gt;Node9</title>
<path fill="none" stroke="#191970" d="M404.1373,-190.0107C415.0816,-193.1923 425.7848,-197.6851 435,-204 459.4073,-220.7255 447.1957,-242.427 471,-260 476.8002,-264.2818 483.3026,-267.8306 490.0853,-270.7717"/>
<polygon fill="#191970" stroke="#191970" points="488.8798,-274.0582 499.4686,-274.4174 491.415,-267.5333 488.8798,-274.0582"/>
</g>
<!-- Node10 -->
<g id="node10" class="node">
<title>Node10</title>
<g id="a_node10"><a xlink:href="../../d0/dc4/classCETF.html#abfd92cb6e0c471932af46e30df2fd308" target="_top" xlink:title="Method get and set all info about object of class CETF.">
<polygon fill="none" stroke="#000000" points="517,-196.5 517,-217.5 604,-217.5 604,-196.5 517,-196.5"/>
<text text-anchor="middle" x="560.5" y="-203.9" font-family="Helvetica,sans-Serif" font-size="12.00" fill="#000000">CETF::etfInfo</text>
</a>
</g>
</g>
<!-- Node8&#45;&gt;Node10 -->
<g id="edge9" class="edge">
<title>Node8&#45;&gt;Node10</title>
<path fill="none" stroke="#191970" d="M404.0151,-190.5279C437.22,-194.0232 476.0366,-198.1091 506.7027,-201.3371"/>
<polygon fill="#191970" stroke="#191970" points="506.4586,-204.8307 516.7701,-202.3969 507.1915,-197.8691 506.4586,-204.8307"/>
</g>
<!-- Node11 -->
<g id="node11" class="node">
<title>Node11</title>
<g id="a_node11"><a xlink:href="../../dc/d85/classCAsset.html#ab68c11feace8e8f4b9852404a458796c" target="_top" xlink:title="Method get data from database through the class CDataBase.">
<polygon fill="none" stroke="#000000" points="909.5,-197.5 909.5,-218.5 1043.5,-218.5 1043.5,-197.5 909.5,-197.5"/>
<text text-anchor="middle" x="976.5" y="-204.9" font-family="Helvetica,sans-Serif" font-size="12.00" fill="#000000">CAsset::getFromBase</text>
</a>
</g>
</g>
<!-- Node8&#45;&gt;Node11 -->
<g id="edge22" class="edge">
<title>Node8&#45;&gt;Node11</title>
<path fill="none" stroke="#191970" d="M401.6227,-193.5427C412.9863,-196.2979 424.4794,-199.7331 435,-204 452.5947,-211.136 452.7753,-221.6752 471,-227 630.6187,-273.6365 830.6638,-240.889 924.0077,-220.6763"/>
<polygon fill="#191970" stroke="#191970" points="924.7677,-224.0929 933.7792,-218.5212 923.2601,-217.2572 924.7677,-224.0929"/>
</g>
<!-- Node23 -->
<g id="node23" class="node">
<title>Node23</title>
<g id="a_node23"><a xlink:href="../../d9/d52/classCPortfolio.html#a387f0203e80ef58959f0b3e03c1bd930" target="_top" xlink:title=" ">
<polygon fill="none" stroke="#000000" points="487.5,-143 487.5,-177 633.5,-177 633.5,-143 487.5,-143"/>
<text text-anchor="start" x="495.5" y="-163.4" font-family="Helvetica,sans-Serif" font-size="12.00" fill="#000000">CPortfolio::getMStrToEtf</text>
<text text-anchor="middle" x="560.5" y="-150.4" font-family="Helvetica,sans-Serif" font-size="12.00" fill="#000000">Portfolio</text>
</a>
</g>
</g>
<!-- Node8&#45;&gt;Node23 -->
<g id="edge23" class="edge">
<title>Node8&#45;&gt;Node23</title>
<path fill="none" stroke="#191970" d="M404.0151,-175.7858C427.2121,-173.4457 453.1478,-170.8294 477.1302,-168.4101"/>
<polygon fill="#191970" stroke="#191970" points="477.6768,-171.8728 487.275,-167.3867 476.9742,-164.9082 477.6768,-171.8728"/>
</g>
<!-- Node24 -->
<g id="node24" class="node">
<title>Node24</title>
<g id="a_node24"><a xlink:href="../../d5/de1/classCDataBase.html#a4d52b0dbf60c0295aea772711839332d" target="_top" xlink:title=" ">
<polygon fill="none" stroke="#000000" points="881,-.5 881,-21.5 1072,-21.5 1072,-.5 881,-.5"/>
<text text-anchor="middle" x="976.5" y="-7.9" font-family="Helvetica,sans-Serif" font-size="12.00" fill="#000000">CDataBase::getMStrToItPortfolio</text>
</a>
</g>
</g>
<!-- Node8&#45;&gt;Node24 -->
<g id="edge24" class="edge">
<title>Node8&#45;&gt;Node24</title>
<path fill="none" stroke="#191970" d="M345.8645,-172.3603C369.7051,-153.8429 421.7025,-115.5195 471,-93 561.4581,-51.678 588.0652,-48.2901 686,-31 746.575,-20.3056 815.1942,-15.2591 870.5264,-12.9076"/>
<polygon fill="#191970" stroke="#191970" points="870.8471,-16.3976 880.6986,-12.4991 870.5661,-9.4033 870.8471,-16.3976"/>
</g>
<!-- Node25 -->
<g id="node25" class="node">
<title>Node25</title>
<g id="a_node25"><a xlink:href="../../d7/d8f/classCStock.html#a0ef2eda44098e896ddb09d5d4629d7aa" target="_top" xlink:title="Method gets and sets all info about stock using switch statement, case, if, else if,...">
<polygon fill="none" stroke="#000000" points="506,-102.5 506,-123.5 615,-123.5 615,-102.5 506,-102.5"/>
<text text-anchor="middle" x="560.5" y="-109.9" font-family="Helvetica,sans-Serif" font-size="12.00" fill="#000000">CStock::stockInfo</text>
</a>
</g>
</g>
<!-- Node8&#45;&gt;Node25 -->
<g id="edge25" class="edge">
<title>Node8&#45;&gt;Node25</title>
<path fill="none" stroke="#191970" d="M359.5422,-172.4399C387.2515,-161.8552 431.7178,-145.5197 471,-134 480.6486,-131.1705 490.9686,-128.4618 501.0452,-125.9859"/>
<polygon fill="#191970" stroke="#191970" points="502.1016,-129.3318 511.0067,-123.5917 500.4657,-122.5256 502.1016,-129.3318"/>
</g>
<!-- Node10&#45;&gt;Node11 -->
<g id="edge10" class="edge">
<title>Node10&#45;&gt;Node11</title>
<path fill="none" stroke="#191970" d="M604.233,-207.1051C674.2638,-207.2735 812.5026,-207.6058 899.3968,-207.8147"/>
<polygon fill="#191970" stroke="#191970" points="899.4609,-211.3147 909.4693,-207.8389 899.4778,-204.3147 899.4609,-211.3147"/>
</g>
<!-- Node22 -->
<g id="node22" class="node">
<title>Node22</title>
<g id="a_node22"><a xlink:href="../../dc/d85/classCAsset.html#ad26f4802c080f55f65007d3622afb394" target="_top" xlink:title="Method gets risk of one Asset.">
<polygon fill="none" stroke="#000000" points="704.5,-158.5 704.5,-179.5 826.5,-179.5 826.5,-158.5 704.5,-158.5"/>
<text text-anchor="middle" x="765.5" y="-165.9" font-family="Helvetica,sans-Serif" font-size="12.00" fill="#000000">CAsset::riskOfAsset</text>
</a>
</g>
</g>
<!-- Node10&#45;&gt;Node22 -->
<g id="edge21" class="edge">
<title>Node10&#45;&gt;Node22</title>
<path fill="none" stroke="#191970" d="M604.2262,-198.8947C631.7079,-193.8005 667.7032,-187.1282 698.714,-181.3798"/>
<polygon fill="#191970" stroke="#191970" points="699.3956,-184.8132 708.5902,-179.5491 698.1197,-177.9305 699.3956,-184.8132"/>
</g>
<!-- Node12 -->
<g id="node12" class="node">
<title>Node12</title>
<g id="a_node12"><a xlink:href="../../d7/d8f/classCStock.html#ac29f9a8363a2388481e44526a0d4aa06" target="_top" xlink:title=" ">
<polygon fill="none" stroke="#000000" points="1125,-337.5 1125,-358.5 1292,-358.5 1292,-337.5 1125,-337.5"/>
<text text-anchor="middle" x="1208.5" y="-344.9" font-family="Helvetica,sans-Serif" font-size="12.00" fill="#000000">CStock::getMStrPathToAppl</text>
</a>
</g>
</g>
<!-- Node11&#45;&gt;Node12 -->
<g id="edge11" class="edge">
<title>Node11&#45;&gt;Node12</title>
<path fill="none" stroke="#191970" d="M984.7053,-218.7109C1003.6041,-242.5567 1052.8351,-300.1118 1108,-328 1112.6439,-330.3477 1117.5386,-332.42 1122.5662,-334.2492"/>
<polygon fill="#191970" stroke="#191970" points="1121.7743,-337.6732 1132.3673,-337.4757 1123.9632,-331.0242 1121.7743,-337.6732"/>
</g>
<!-- Node13 -->
<g id="node13" class="node">
<title>Node13</title>
<g id="a_node13"><a xlink:href="../../d7/d8f/classCStock.html#a71879b1e890394887791d3746cb7ef04" target="_top" xlink:title=" ">
<polygon fill="none" stroke="#000000" points="1118,-297.5 1118,-318.5 1299,-318.5 1299,-297.5 1118,-297.5"/>
<text text-anchor="middle" x="1208.5" y="-304.9" font-family="Helvetica,sans-Serif" font-size="12.00" fill="#000000">CStock::getMStrPathToGoogle</text>
</a>
</g>
</g>
<!-- Node11&#45;&gt;Node13 -->
<g id="edge12" class="edge">
<title>Node11&#45;&gt;Node13</title>
<path fill="none" stroke="#191970" d="M990.2308,-218.6261C1013.2542,-235.9013 1061.6862,-269.957 1108,-288 1114.7239,-290.6195 1121.8401,-292.911 1129.0555,-294.9127"/>
<polygon fill="#191970" stroke="#191970" points="1128.3708,-298.3507 1138.9287,-297.4662 1130.1236,-291.5737 1128.3708,-298.3507"/>
</g>
<!-- Node14 -->
<g id="node14" class="node">
<title>Node14</title>
<g id="a_node14"><a xlink:href="../../d0/dc4/classCETF.html#af8e267a244a73e0ad7038f83b5ec26b0" target="_top" xlink:title=" ">
<polygon fill="none" stroke="#000000" points="1133,-257.5 1133,-278.5 1284,-278.5 1284,-257.5 1133,-257.5"/>
<text text-anchor="middle" x="1208.5" y="-264.9" font-family="Helvetica,sans-Serif" font-size="12.00" fill="#000000">CETF::getMStrPathToIxn</text>
</a>
</g>
</g>
<!-- Node11&#45;&gt;Node14 -->
<g id="edge13" class="edge">
<title>Node11&#45;&gt;Node14</title>
<path fill="none" stroke="#191970" d="M1007.8743,-218.5C1034.3637,-227.1339 1073.3981,-239.317 1108,-248 1118.5027,-250.6356 1129.6924,-253.1485 1140.6488,-255.448"/>
<polygon fill="#191970" stroke="#191970" points="1140.1189,-258.9122 1150.6188,-257.4973 1141.5283,-252.0555 1140.1189,-258.9122"/>
</g>
<!-- Node15 -->
<g id="node15" class="node">
<title>Node15</title>
<g id="a_node15"><a xlink:href="../../d0/dc4/classCETF.html#a8d19cc867f54575686cf448a2d17af38" target="_top" xlink:title=" ">
<polygon fill="none" stroke="#000000" points="1129.5,-217.5 1129.5,-238.5 1287.5,-238.5 1287.5,-217.5 1129.5,-217.5"/>
<text text-anchor="middle" x="1208.5" y="-224.9" font-family="Helvetica,sans-Serif" font-size="12.00" fill="#000000">CETF::getMStrPathToQqq</text>
</a>
</g>
</g>
<!-- Node11&#45;&gt;Node15 -->
<g id="edge14" class="edge">
<title>Node11&#45;&gt;Node15</title>
<path fill="none" stroke="#191970" d="M1043.604,-213.7848C1067.1279,-215.8128 1093.9357,-218.1238 1118.9996,-220.2844"/>
<polygon fill="#191970" stroke="#191970" points="1118.9832,-223.7959 1129.2469,-221.1678 1119.5845,-216.8218 1118.9832,-223.7959"/>
</g>
<!-- Node16 -->
<g id="node16" class="node">
<title>Node16</title>
<g id="a_node16"><a xlink:href="../../d0/dc4/classCETF.html#a477bc0a30dca4ce9bf7a9a52e121324b" target="_top" xlink:title=" ">
<polygon fill="none" stroke="#000000" points="1132.5,-177.5 1132.5,-198.5 1284.5,-198.5 1284.5,-177.5 1132.5,-177.5"/>
<text text-anchor="middle" x="1208.5" y="-184.9" font-family="Helvetica,sans-Serif" font-size="12.00" fill="#000000">CETF::getMStrPathToXlk</text>
</a>
</g>
</g>
<!-- Node11&#45;&gt;Node16 -->
<g id="edge15" class="edge">
<title>Node11&#45;&gt;Node16</title>
<path fill="none" stroke="#191970" d="M1043.604,-202.2152C1068.0595,-200.1069 1096.064,-197.6928 1121.9686,-195.4596"/>
<polygon fill="#191970" stroke="#191970" points="1122.498,-198.927 1132.1604,-194.581 1121.8968,-191.9529 1122.498,-198.927"/>
</g>
<!-- Node17 -->
<g id="node17" class="node">
<title>Node17</title>
<g id="a_node17"><a xlink:href="../../d7/d8f/classCStock.html#a157bab205439811406e6aa5da0fcaddd" target="_top" xlink:title=" ">
<polygon fill="none" stroke="#000000" points="1108,-137.5 1108,-158.5 1309,-158.5 1309,-137.5 1108,-137.5"/>
<text text-anchor="middle" x="1208.5" y="-144.9" font-family="Helvetica,sans-Serif" font-size="12.00" fill="#000000">CStock::getMStrPathtToAmznDate</text>
</a>
</g>
</g>
<!-- Node11&#45;&gt;Node17 -->
<g id="edge16" class="edge">
<title>Node11&#45;&gt;Node17</title>
<path fill="none" stroke="#191970" d="M1007.8743,-197.5C1034.3637,-188.8661 1073.3981,-176.683 1108,-168 1118.5027,-165.3644 1129.6924,-162.8515 1140.6488,-160.552"/>
<polygon fill="#191970" stroke="#191970" points="1141.5283,-163.9445 1150.6188,-158.5027 1140.1189,-157.0878 1141.5283,-163.9445"/>
</g>
<!-- Node18 -->
<g id="node18" class="node">
<title>Node18</title>
<g id="a_node18"><a xlink:href="../../dc/d85/classCAsset.html#a48d22720b57dc24776a9023be661bff9" target="_top" xlink:title="Method calculate mean of one Asset.">
<polygon fill="none" stroke="#000000" points="1141.5,-97.5 1141.5,-118.5 1275.5,-118.5 1275.5,-97.5 1141.5,-97.5"/>
<text text-anchor="middle" x="1208.5" y="-104.9" font-family="Helvetica,sans-Serif" font-size="12.00" fill="#000000">CAsset::meanOfAsset</text>
</a>
</g>
</g>
<!-- Node11&#45;&gt;Node18 -->
<g id="edge17" class="edge">
<title>Node11&#45;&gt;Node18</title>
<path fill="none" stroke="#191970" d="M990.2308,-197.3739C1013.2542,-180.0987 1061.6862,-146.043 1108,-128 1115.4834,-125.0846 1123.4528,-122.5755 1131.5041,-120.42"/>
<polygon fill="#191970" stroke="#191970" points="1132.4851,-123.7826 1141.3383,-117.9627 1130.7881,-116.9914 1132.4851,-123.7826"/>
</g>
<!-- Node19 -->
<g id="node19" class="node">
<title>Node19</title>
<g id="a_node19"><a xlink:href="../../dc/d85/classCAsset.html#aa855b3cfd867f9788d1cc0e5db7c3870" target="_top" xlink:title="Method return diffrence between vector of returns and double value of mean of return of Asset.">
<polygon fill="none" stroke="#000000" points="1112.5,-57.5 1112.5,-78.5 1304.5,-78.5 1304.5,-57.5 1112.5,-57.5"/>
<text text-anchor="middle" x="1208.5" y="-64.9" font-family="Helvetica,sans-Serif" font-size="12.00" fill="#000000">CAsset::returnAndMeanDiffrence</text>
</a>
</g>
</g>
<!-- Node11&#45;&gt;Node19 -->
<g id="edge18" class="edge">
<title>Node11&#45;&gt;Node19</title>
<path fill="none" stroke="#191970" d="M989.4669,-197.3213C1008.1203,-181.8282 1043.426,-152.0112 1072,-125 1088.6733,-109.2386 1087.8404,-98.9549 1108,-88 1112.1765,-85.7305 1116.5759,-83.7168 1121.1063,-81.9304"/>
<polygon fill="#191970" stroke="#191970" points="1122.3076,-85.218 1130.5598,-78.5733 1119.9651,-78.6215 1122.3076,-85.218"/>
</g>
<!-- Node20 -->
<g id="node20" class="node">
<title>Node20</title>
<g id="a_node20"><a xlink:href="../../dc/d85/classCAsset.html#a96031ecbece20a71af492b3cf5063f0b" target="_top" xlink:title="Method returns what is returns of one Asset in the setting period, get info for this from database.">
<polygon fill="none" stroke="#000000" points="1141.5,-377.5 1141.5,-398.5 1275.5,-398.5 1275.5,-377.5 1141.5,-377.5"/>
<text text-anchor="middle" x="1208.5" y="-384.9" font-family="Helvetica,sans-Serif" font-size="12.00" fill="#000000">CAsset::returnOfAsset</text>
</a>
</g>
</g>
<!-- Node11&#45;&gt;Node20 -->
<g id="edge19" class="edge">
<title>Node11&#45;&gt;Node20</title>
<path fill="none" stroke="#191970" d="M981.8687,-218.7126C997.1296,-247.9643 1043.8404,-329.5715 1108,-368 1115.2399,-372.3363 1123.2475,-375.7523 1131.4897,-378.4402"/>
<polygon fill="#191970" stroke="#191970" points="1130.6618,-381.8443 1141.2412,-381.2725 1132.6143,-375.1221 1130.6618,-381.8443"/>
</g>
<!-- Node21 -->
<g id="node21" class="node">
<title>Node21</title>
<g id="a_node21"><a xlink:href="../../dc/d85/classCAsset.html#ae862a51b2a6ea0668c19a07f081e0b3c" target="_top" xlink:title="Method helps to set size of vector for next method returnOfAsset()">
<polygon fill="none" stroke="#000000" points="1345,-377.5 1345,-398.5 1431,-398.5 1431,-377.5 1345,-377.5"/>
<text text-anchor="middle" x="1388" y="-384.9" font-family="Helvetica,sans-Serif" font-size="12.00" fill="#000000">CAsset::slice</text>
</a>
</g>
</g>
<!-- Node20&#45;&gt;Node21 -->
<g id="edge20" class="edge">
<title>Node20&#45;&gt;Node21</title>
<path fill="none" stroke="#191970" d="M1275.5944,-388C1295.171,-388 1316.2863,-388 1334.8725,-388"/>
<polygon fill="#191970" stroke="#191970" points="1334.9121,-391.5001 1344.9121,-388 1334.912,-384.5001 1334.9121,-391.5001"/>
</g>
<!-- Node25&#45;&gt;Node11 -->
<g id="edge26" class="edge">
<title>Node25&#45;&gt;Node11</title>
<path fill="none" stroke="#191970" d="M615.1937,-115.1288C673.1836,-118.4884 766.9913,-127.0903 845,-149 882.3325,-159.4853 922.6542,-178.8963 948.6659,-192.5845"/>
<polygon fill="#191970" stroke="#191970" points="947.1002,-195.7162 957.5696,-197.3415 950.3988,-189.5421 947.1002,-195.7162"/>
</g>
<!-- Node25&#45;&gt;Node22 -->
<g id="edge33" class="edge">
<title>Node25&#45;&gt;Node22</title>
<path fill="none" stroke="#191970" d="M608.0187,-123.5555C621.6211,-126.7377 636.4356,-130.3574 650,-134 674.3918,-140.5502 701.4205,-148.6917 723.1951,-155.4737"/>
<polygon fill="#191970" stroke="#191970" points="722.2126,-158.8336 732.8016,-158.4835 724.3055,-152.1537 722.2126,-158.8336"/>
</g>
<!-- Node26 -->
<g id="node26" class="node">
<title>Node26</title>
<g id="a_node26"><a xlink:href="../../d5/de1/classCDataBase.html#a763fc57fb5ad33e7d4ef92dd32698f34" target="_top" xlink:title="Method get and set data of Stocks to database in this program database are the files and relation wit...">
<polygon fill="none" stroke="#000000" points="686,-40.5 686,-61.5 845,-61.5 845,-40.5 686,-40.5"/>
<text text-anchor="middle" x="765.5" y="-47.9" font-family="Helvetica,sans-Serif" font-size="12.00" fill="#000000">CDataBase::inputForStock</text>
</a>
</g>
</g>
<!-- Node25&#45;&gt;Node26 -->
<g id="edge27" class="edge">
<title>Node25&#45;&gt;Node26</title>
<path fill="none" stroke="#191970" d="M589.9662,-102.4285C615.2721,-93.5208 652.8132,-80.7122 686,-71 694.1486,-68.6153 702.8166,-66.2559 711.3194,-64.0396"/>
<polygon fill="#191970" stroke="#191970" points="712.3666,-67.3844 721.1841,-61.5106 710.6281,-60.6037 712.3666,-67.3844"/>
</g>
<!-- Node30 -->
<g id="node30" class="node">
<title>Node30</title>
<g id="a_node30"><a xlink:href="../../d7/d8f/classCStock.html#a6540c1c901a28b07ddf9038ef8b7506f" target="_top" xlink:title="Method which gets the items of Stock info menu with the switch statement and the cases conditions.">
<polygon fill="none" stroke="#000000" points="706,-80.5 706,-101.5 825,-101.5 825,-80.5 706,-80.5"/>
<text text-anchor="middle" x="765.5" y="-87.9" font-family="Helvetica,sans-Serif" font-size="12.00" fill="#000000">CStock::stockMenu</text>
</a>
</g>
</g>
<!-- Node25&#45;&gt;Node30 -->
<g id="edge34" class="edge">
<title>Node25&#45;&gt;Node30</title>
<path fill="none" stroke="#191970" d="M615.1669,-107.1333C639.8786,-104.4813 669.3717,-101.3162 695.6631,-98.4947"/>
<polygon fill="#191970" stroke="#191970" points="696.3758,-101.9384 705.9452,-97.3912 695.6288,-94.9784 696.3758,-101.9384"/>
</g>
<!-- Node26&#45;&gt;Node11 -->
<g id="edge29" class="edge">
<title>Node26&#45;&gt;Node11</title>
<path fill="none" stroke="#191970" d="M827.0175,-61.5123C833.3971,-64.0276 839.5351,-67.1427 845,-71 868.5656,-87.6332 861.9445,-103.3462 881,-125 903.3482,-150.3955 933.368,-175.2729 953.7422,-191.0654"/>
<polygon fill="#191970" stroke="#191970" points="951.7633,-193.9582 961.833,-197.2525 956.0155,-188.3977 951.7633,-193.9582"/>
</g>
<!-- Node26&#45;&gt;Node24 -->
<g id="edge30" class="edge">
<title>Node26&#45;&gt;Node24</title>
<path fill="none" stroke="#191970" d="M820.9378,-40.4905C848.5712,-35.2519 882.1699,-28.8825 911.0612,-23.4055"/>
<polygon fill="#191970" stroke="#191970" points="911.8935,-26.8101 921.0665,-21.5087 910.5896,-19.9326 911.8935,-26.8101"/>
</g>
<!-- Node27 -->
<g id="node27" class="node">
<title>Node27</title>
<g id="a_node27"><a xlink:href="../../db/d52/classCRisk.html#aea7aecfae721440bbed175e109518464" target="_top" xlink:title="Method calculate matrix of covariance and variance for portfolio to help calculate risk of the portfo...">
<polygon fill="none" stroke="#000000" points="895.5,-81 895.5,-115 1057.5,-115 1057.5,-81 895.5,-81"/>
<text text-anchor="start" x="903.5" y="-101.4" font-family="Helvetica,sans-Serif" font-size="12.00" fill="#000000">CRisk::covarianceVariance</text>
<text text-anchor="middle" x="976.5" y="-88.4" font-family="Helvetica,sans-Serif" font-size="12.00" fill="#000000">Matrix</text>
</a>
</g>
</g>
<!-- Node26&#45;&gt;Node27 -->
<g id="edge28" class="edge">
<title>Node26&#45;&gt;Node27</title>
<path fill="none" stroke="#191970" d="M812.8525,-61.5477C835.5855,-66.6115 863.5569,-72.8421 889.9025,-78.7105"/>
<polygon fill="#191970" stroke="#191970" points="889.384,-82.1807 899.9057,-80.9387 890.9059,-75.3482 889.384,-82.1807"/>
</g>
<!-- Node28 -->
<g id="node28" class="node">
<title>Node28</title>
<g id="a_node28"><a xlink:href="../../dd/d09/classCReturn.html#a4ae6568cb0c834cce8f257e8a82966c3" target="_top" xlink:title="Method calculate portfolio which have the biggest return with the lowest risk.">
<polygon fill="none" stroke="#000000" points="901,-40.5 901,-61.5 1052,-61.5 1052,-40.5 901,-40.5"/>
<text text-anchor="middle" x="976.5" y="-47.9" font-family="Helvetica,sans-Serif" font-size="12.00" fill="#000000">CReturn::optimalPortfolio</text>
</a>
</g>
</g>
<!-- Node26&#45;&gt;Node28 -->
<g id="edge31" class="edge">
<title>Node26&#45;&gt;Node28</title>
<path fill="none" stroke="#191970" d="M845.2701,-51C860.0621,-51 875.5727,-51 890.5397,-51"/>
<polygon fill="#191970" stroke="#191970" points="890.7992,-54.5001 900.7992,-51 890.7991,-47.5001 890.7992,-54.5001"/>
</g>
<!-- Node29 -->
<g id="node29" class="node">
<title>Node29</title>
<g id="a_node29"><a xlink:href="../../db/d52/classCRisk.html#a8742c21ca8a8034b4fe20b3676ab931b" target="_top" xlink:title="Method calculate risk of the portfolio &#45; standard deviation to help calculate std of portfolio taking...">
<polygon fill="none" stroke="#000000" points="1150.5,-17.5 1150.5,-38.5 1266.5,-38.5 1266.5,-17.5 1150.5,-17.5"/>
<text text-anchor="middle" x="1208.5" y="-24.9" font-family="Helvetica,sans-Serif" font-size="12.00" fill="#000000">CRisk::portfolioStd</text>
</a>
</g>
</g>
<!-- Node28&#45;&gt;Node29 -->
<g id="edge32" class="edge">
<title>Node28&#45;&gt;Node29</title>
<path fill="none" stroke="#191970" d="M1052.1445,-43.5008C1080.5265,-40.687 1112.5907,-37.5082 1140.2618,-34.765"/>
<polygon fill="#191970" stroke="#191970" points="1140.6367,-38.2451 1150.2426,-33.7755 1139.9461,-31.2792 1140.6367,-38.2451"/>
</g>
</g>
</svg>
        <g id="navigator" transform="translate(0 0)" fill="#404254">
                <rect fill="#f2f5e9" fill-opacity="0.5" stroke="#606060" stroke-width=".5" x="0" y="0" width="60" height="60"/>
                <use id="zoomplus" xlink:href="#zoomPlus" x="17" y="9" onmousedown="handleZoom(evt,'in')"/>
                <use id="zoomminus" xlink:href="#zoomMin" x="42" y="9" onmousedown="handleZoom(evt,'out')"/>
                <use id="reset" xlink:href="#resetDef" x="30" y="36" onmousedown="handleReset()"/>
                <g id="arrowUp" xlink:href="#dirArrow" transform="translate(30 24)" onmousedown="handlePan(0,-1)">
                  <use xlink:href="#rim" fill="#404040">
                        <set attributeName="fill" to="#808080" begin="arrowUp.mouseover" end="arrowUp.mouseout"/>
                  </use>
                  <path fill="none" stroke="white" stroke-width="1.5" d="M0,-3.0v7 M-2.5,-0.5L0,-3.0L2.5,-0.5"/>
                </g>
                <g id="arrowRight" xlink:href="#dirArrow" transform="rotate(90) translate(36 -43)" onmousedown="handlePan(1,0)">
                  <use xlink:href="#rim" fill="#404040">
                        <set attributeName="fill" to="#808080" begin="arrowRight.mouseover" end="arrowRight.mouseout"/>
                  </use>
                  <path fill="none" stroke="white" stroke-width="1.5" d="M0,-3.0v7 M-2.5,-0.5L0,-3.0L2.5,-0.5"/>
                </g>
                <g id="arrowDown" xlink:href="#dirArrow" transform="rotate(180) translate(-30 -48)" onmousedown="handlePan(0,1)">
                  <use xlink:href="#rim" fill="#404040">
                        <set attributeName="fill" to="#808080" begin="arrowDown.mouseover" end="arrowDown.mouseout"/>
                  </use>
                  <path fill="none" stroke="white" stroke-width="1.5" d="M0,-3.0v7 M-2.5,-0.5L0,-3.0L2.5,-0.5"/>
                </g>
                <g id="arrowLeft" xlink:href="#dirArrow" transform="rotate(270) translate(-36 17)" onmousedown="handlePan(-1,0)">
                  <use xlink:href="#rim" fill="#404040">
                        <set attributeName="fill" to="#808080" begin="arrowLeft.mouseover" end="arrowLeft.mouseout"/>
                  </use>
                  <path fill="none" stroke="white" stroke-width="1.5" d="M0,-3.0v7 M-2.5,-0.5L0,-3.0L2.5,-0.5"/>
                </g>
        </g>
        <svg viewBox="0 0 15 15" width="100%" height="30px" preserveAspectRatio="xMaxYMin meet">
         <g id="arrow_out" transform="scale(0.3 0.3)">
          <a xlink:href="classCMyHolding_a2da746680d2dd9d7af60d49719b0fd37_cgraph_org.svg" target="_base">
           <rect id="button" ry="5" rx="5" y="6" x="6" height="38" width="38"
                fill="#f2f5e9" fill-opacity="0.5" stroke="#606060" stroke-width="1.0"/>
           <path id="arrow"
             d="M 11.500037,31.436501 C 11.940474,20.09759 22.043105,11.32322 32.158766,21.979434 L 37.068811,17.246167 C 37.068811,17.246167 37.088388,32 37.088388,32 L 22.160133,31.978069 C 22.160133,31.978069 26.997745,27.140456 26.997745,27.140456 C 18.528582,18.264221 13.291696,25.230495 11.500037,31.436501 z"
             style="fill:#404040;"/>
          </a>
         </g>
        </svg>
</svg>
