<?xml version="1.0" encoding="UTF-8" standalone="no"?>
<!DOCTYPE svg PUBLIC "-//W3C//DTD SVG 1.1//EN"
 "http://www.w3.org/Graphics/SVG/1.1/DTD/svg11.dtd">
<!-- Generated by graphviz version 2.40.1 (20161225.0304)
 -->
<!-- Title: headers/CETF.h Pages: 1 -->
<svg width="546pt" height="146pt"
 viewBox="0.00 0.00 546.00 146.00" xmlns="http://www.w3.org/2000/svg" xmlns:xlink="http://www.w3.org/1999/xlink">
<g id="graph0" class="graph" transform="scale(1 1) rotate(0) translate(4 142)">
<title>headers/CETF.h</title>
<!-- Node1 -->
<g id="node1" class="node">
<title>Node1</title>
<g id="a_node1"><a xlink:title=" ">
<polygon fill="#bfbfbf" stroke="#000000" points="164,-116.5 164,-137.5 269,-137.5 269,-116.5 164,-116.5"/>
<text text-anchor="middle" x="216.5" y="-123.9" font-family="Helvetica,sans-Serif" font-size="12.00" fill="#000000">headers/CETF.h</text>
</a>
</g>
</g>
<!-- Node2 -->
<g id="node2" class="node">
<title>Node2</title>
<g id="a_node2"><a xlink:href="../../d1/dea/CPortfolio_8h.html" target="_top" xlink:title=" ">
<polygon fill="none" stroke="#000000" points="82.5,-58.5 82.5,-79.5 208.5,-79.5 208.5,-58.5 82.5,-58.5"/>
<text text-anchor="middle" x="145.5" y="-65.9" font-family="Helvetica,sans-Serif" font-size="12.00" fill="#000000">headers/CPortfolio.h</text>
</a>
</g>
</g>
<!-- Node1&#45;&gt;Node2 -->
<g id="edge1" class="edge">
<title>Node1&#45;&gt;Node2</title>
<path fill="none" stroke="#191970" d="M195.6595,-109.9753C183.6093,-100.1315 168.8254,-88.0545 158.4399,-79.5707"/>
<polygon fill="#191970" stroke="#191970" points="193.5188,-112.746 203.4775,-116.3619 197.9473,-107.3249 193.5188,-112.746"/>
</g>
<!-- Node3 -->
<g id="node3" class="node">
<title>Node3</title>
<g id="a_node3"><a xlink:href="../../df/d0a/main_8cpp.html" target="_top" xlink:title=" ">
<polygon fill="none" stroke="#000000" points="0,-.5 0,-21.5 65,-21.5 65,-.5 0,-.5"/>
<text text-anchor="middle" x="32.5" y="-7.9" font-family="Helvetica,sans-Serif" font-size="12.00" fill="#000000">main.cpp</text>
</a>
</g>
</g>
<!-- Node1&#45;&gt;Node3 -->
<g id="edge6" class="edge">
<title>Node1&#45;&gt;Node3</title>
<path fill="none" stroke="#191970" d="M154.1293,-116.7056C127.1547,-109.8235 96.5564,-98.4966 73.5,-80 54.0443,-64.3921 41.751,-36.8763 36.116,-21.7359"/>
<polygon fill="#191970" stroke="#191970" points="153.3421,-120.116 163.8826,-119.045 154.9748,-113.309 153.3421,-120.116"/>
</g>
<!-- Node7 -->
<g id="node7" class="node">
<title>Node7</title>
<g id="a_node7"><a xlink:href="../../d3/d59/CAsset_8cpp.html" target="_top" xlink:title=" ">
<polygon fill="none" stroke="#000000" points="227,-58.5 227,-79.5 350,-79.5 350,-58.5 227,-58.5"/>
<text text-anchor="middle" x="288.5" y="-65.9" font-family="Helvetica,sans-Serif" font-size="12.00" fill="#000000">sources/CAsset.cpp</text>
</a>
</g>
</g>
<!-- Node1&#45;&gt;Node7 -->
<g id="edge7" class="edge">
<title>Node1&#45;&gt;Node7</title>
<path fill="none" stroke="#191970" d="M237.6341,-109.9753C249.854,-100.1315 264.8461,-88.0545 275.3778,-79.5707"/>
<polygon fill="#191970" stroke="#191970" points="235.2978,-107.3629 229.7059,-116.3619 239.6891,-112.8142 235.2978,-107.3629"/>
</g>
<!-- Node8 -->
<g id="node8" class="node">
<title>Node8</title>
<g id="a_node8"><a xlink:href="../../db/d85/CETF_8cpp.html" target="_top" xlink:title=" ">
<polygon fill="none" stroke="#000000" points="368.5,-58.5 368.5,-79.5 484.5,-79.5 484.5,-58.5 368.5,-58.5"/>
<text text-anchor="middle" x="426.5" y="-65.9" font-family="Helvetica,sans-Serif" font-size="12.00" fill="#000000">sources/CETF.cpp</text>
</a>
</g>
</g>
<!-- Node1&#45;&gt;Node8 -->
<g id="edge8" class="edge">
<title>Node1&#45;&gt;Node8</title>
<path fill="none" stroke="#191970" d="M264.2485,-113.8123C301.8453,-103.4285 353.5477,-89.1487 388.3993,-79.5231"/>
<polygon fill="#191970" stroke="#191970" points="263.2367,-110.4606 254.5294,-116.4966 265.1003,-117.208 263.2367,-110.4606"/>
</g>
<!-- Node2&#45;&gt;Node3 -->
<g id="edge2" class="edge">
<title>Node2&#45;&gt;Node3</title>
<path fill="none" stroke="#191970" d="M115.8746,-53.794C96.1592,-43.6746 70.752,-30.6338 53.1931,-21.6212"/>
<polygon fill="#191970" stroke="#191970" points="114.5418,-57.044 125.0366,-58.4966 117.7383,-50.8164 114.5418,-57.044"/>
</g>
<!-- Node4 -->
<g id="node4" class="node">
<title>Node4</title>
<g id="a_node4"><a xlink:href="../../d8/d8c/CClient_8cpp.html" target="_top" xlink:title=" ">
<polygon fill="none" stroke="#000000" points="83,-.5 83,-21.5 208,-21.5 208,-.5 83,-.5"/>
<text text-anchor="middle" x="145.5" y="-7.9" font-family="Helvetica,sans-Serif" font-size="12.00" fill="#000000">sources/CClient.cpp</text>
</a>
</g>
</g>
<!-- Node2&#45;&gt;Node4 -->
<g id="edge3" class="edge">
<title>Node2&#45;&gt;Node4</title>
<path fill="none" stroke="#191970" d="M145.5,-48.1906C145.5,-39.1684 145.5,-28.9941 145.5,-21.5707"/>
<polygon fill="#191970" stroke="#191970" points="142.0001,-48.3619 145.5,-58.3619 149.0001,-48.3619 142.0001,-48.3619"/>
</g>
<!-- Node5 -->
<g id="node5" class="node">
<title>Node5</title>
<g id="a_node5"><a xlink:href="../../d0/dce/CMyHoldings_8cpp.html" target="_top" xlink:title=" ">
<polygon fill="none" stroke="#000000" points="226,-.5 226,-21.5 383,-21.5 383,-.5 226,-.5"/>
<text text-anchor="middle" x="304.5" y="-7.9" font-family="Helvetica,sans-Serif" font-size="12.00" fill="#000000">sources/CMyHoldings.cpp</text>
</a>
</g>
</g>
<!-- Node2&#45;&gt;Node5 -->
<g id="edge4" class="edge">
<title>Node2&#45;&gt;Node5</title>
<path fill="none" stroke="#191970" d="M183.8533,-55.0095C212.1092,-44.7023 249.9384,-30.903 275.6523,-21.5231"/>
<polygon fill="#191970" stroke="#191970" points="182.4887,-51.7816 174.2937,-58.4966 184.8876,-58.3577 182.4887,-51.7816"/>
</g>
<!-- Node6 -->
<g id="node6" class="node">
<title>Node6</title>
<g id="a_node6"><a xlink:href="../../d8/dbf/CPortfolio_8cpp.html" target="_top" xlink:title=" ">
<polygon fill="none" stroke="#000000" points="401,-.5 401,-21.5 538,-21.5 538,-.5 401,-.5"/>
<text text-anchor="middle" x="469.5" y="-7.9" font-family="Helvetica,sans-Serif" font-size="12.00" fill="#000000">sources/CPortfolio.cpp</text>
</a>
</g>
</g>
<!-- Node2&#45;&gt;Node6 -->
<g id="edge5" class="edge">
<title>Node2&#45;&gt;Node6</title>
<path fill="none" stroke="#191970" d="M214.0448,-56.7296C272.4003,-46.2833 355.3434,-31.4354 410.716,-21.5231"/>
<polygon fill="#191970" stroke="#191970" points="213.4007,-53.2892 204.174,-58.4966 214.6342,-60.1797 213.4007,-53.2892"/>
</g>
</g>
</svg>
