<?xml version="1.0" encoding="UTF-8" standalone="no"?>
<!DOCTYPE svg PUBLIC "-//W3C//DTD SVG 1.1//EN"
 "http://www.w3.org/Graphics/SVG/1.1/DTD/svg11.dtd">
<!-- Generated by graphviz version 2.40.1 (20161225.0304)
 -->
<!-- Title: headers/CStock.h Pages: 1 -->
<svg width="445pt" height="262pt"
 viewBox="0.00 0.00 444.50 262.00" xmlns="http://www.w3.org/2000/svg" xmlns:xlink="http://www.w3.org/1999/xlink">
<g id="graph0" class="graph" transform="scale(1 1) rotate(0) translate(4 258)">
<title>headers/CStock.h</title>
<!-- Node1 -->
<g id="node1" class="node">
<title>Node1</title>
<g id="a_node1"><a xlink:title=" ">
<polygon fill="#bfbfbf" stroke="#000000" points="324.5027,-232.5 324.5027,-253.5 436.5027,-253.5 436.5027,-232.5 324.5027,-232.5"/>
<text text-anchor="middle" x="380.5027" y="-239.9" font-family="Helvetica,sans-Serif" font-size="12.00" fill="#000000">headers/CStock.h</text>
</a>
</g>
</g>
<!-- Node2 -->
<g id="node2" class="node">
<title>Node2</title>
<g id="a_node2"><a xlink:title=" ">
<polygon fill="none" stroke="#bfbfbf" points="332.5027,-58.5 332.5027,-79.5 378.5027,-79.5 378.5027,-58.5 332.5027,-58.5"/>
<text text-anchor="middle" x="355.5027" y="-65.9" font-family="Helvetica,sans-Serif" font-size="12.00" fill="#000000">string</text>
</a>
</g>
</g>
<!-- Node1&#45;&gt;Node2 -->
<g id="edge1" class="edge">
<title>Node1&#45;&gt;Node2</title>
<path fill="none" stroke="#191970" d="M380.8103,-232.1965C381.0559,-218.5738 381.0175,-194.4588 378.5027,-174 374.8383,-144.1898 366.6906,-110.3608 361.1452,-89.3488"/>
<polygon fill="#191970" stroke="#191970" points="364.5041,-88.3615 358.5201,-79.6183 357.7457,-90.1848 364.5041,-88.3615"/>
</g>
<!-- Node3 -->
<g id="node3" class="node">
<title>Node3</title>
<g id="a_node3"><a xlink:href="../../d7/d79/CAsset_8h.html" target="_top" xlink:title=" ">
<polygon fill="none" stroke="#000000" points="304.0027,-174.5 304.0027,-195.5 369.0027,-195.5 369.0027,-174.5 304.0027,-174.5"/>
<text text-anchor="middle" x="336.5027" y="-181.9" font-family="Helvetica,sans-Serif" font-size="12.00" fill="#000000">CAsset.h</text>
</a>
</g>
</g>
<!-- Node1&#45;&gt;Node3 -->
<g id="edge2" class="edge">
<title>Node1&#45;&gt;Node3</title>
<path fill="none" stroke="#191970" d="M372.4324,-232.3619C366.3541,-224.3496 357.8658,-213.1605 350.6658,-203.6696"/>
<polygon fill="#191970" stroke="#191970" points="353.3541,-201.4222 344.5218,-195.5707 347.7773,-205.653 353.3541,-201.4222"/>
</g>
<!-- Node3&#45;&gt;Node2 -->
<g id="edge4" class="edge">
<title>Node3&#45;&gt;Node2</title>
<path fill="none" stroke="#191970" d="M338.2561,-174.2949C341.3949,-155.1314 348.0249,-114.654 352.0887,-89.8434"/>
<polygon fill="#191970" stroke="#191970" points="355.591,-90.1135 353.7535,-79.6792 348.683,-88.9819 355.591,-90.1135"/>
</g>
<!-- Node4 -->
<g id="node4" class="node">
<title>Node4</title>
<g id="a_node4"><a xlink:title=" ">
<polygon fill="none" stroke="#bfbfbf" points="273.5027,-.5 273.5027,-21.5 335.5027,-21.5 335.5027,-.5 273.5027,-.5"/>
<text text-anchor="middle" x="304.5027" y="-7.9" font-family="Helvetica,sans-Serif" font-size="12.00" fill="#000000">iostream</text>
</a>
</g>
</g>
<!-- Node3&#45;&gt;Node4 -->
<g id="edge3" class="edge">
<title>Node3&#45;&gt;Node4</title>
<path fill="none" stroke="#191970" d="M347.137,-174.3159C368.1671,-151.8461 411.0754,-98.4381 387.5027,-58 378.2307,-42.0942 361.3574,-31.1393 345.2341,-23.835"/>
<polygon fill="#191970" stroke="#191970" points="346.4679,-20.5575 335.8907,-19.9463 343.7781,-27.0201 346.4679,-20.5575"/>
</g>
<!-- Node5 -->
<g id="node5" class="node">
<title>Node5</title>
<g id="a_node5"><a xlink:title=" ">
<polygon fill="none" stroke="#bfbfbf" points="95.0027,-.5 95.0027,-21.5 144.0027,-21.5 144.0027,-.5 95.0027,-.5"/>
<text text-anchor="middle" x="119.5027" y="-7.9" font-family="Helvetica,sans-Serif" font-size="12.00" fill="#000000">vector</text>
</a>
</g>
</g>
<!-- Node3&#45;&gt;Node5 -->
<g id="edge5" class="edge">
<title>Node3&#45;&gt;Node5</title>
<path fill="none" stroke="#191970" d="M303.8238,-179.668C227.4374,-166.4623 40.9745,-129.6764 5.5027,-80 -17.9708,-47.1266 43.6068,-26.9977 85.1376,-17.5209"/>
<polygon fill="#191970" stroke="#191970" points="85.9127,-20.9342 94.9428,-15.3928 84.428,-14.0935 85.9127,-20.9342"/>
</g>
<!-- Node6 -->
<g id="node6" class="node">
<title>Node6</title>
<g id="a_node6"><a xlink:title=" ">
<polygon fill="none" stroke="#bfbfbf" points="290.0027,-116.5 290.0027,-137.5 333.0027,-137.5 333.0027,-116.5 290.0027,-116.5"/>
<text text-anchor="middle" x="311.5027" y="-123.9" font-family="Helvetica,sans-Serif" font-size="12.00" fill="#000000">tuple</text>
</a>
</g>
</g>
<!-- Node3&#45;&gt;Node6 -->
<g id="edge6" class="edge">
<title>Node3&#45;&gt;Node6</title>
<path fill="none" stroke="#191970" d="M331.9173,-174.3619C328.6047,-166.6766 324.0322,-156.0686 320.0543,-146.8399"/>
<polygon fill="#191970" stroke="#191970" points="323.2315,-145.3685 316.059,-137.5707 316.8032,-148.1393 323.2315,-145.3685"/>
</g>
<!-- Node7 -->
<g id="node7" class="node">
<title>Node7</title>
<g id="a_node7"><a xlink:href="../../dd/d85/CDataBase_8h.html" target="_top" xlink:title=" ">
<polygon fill="none" stroke="#000000" points="183.0027,-116.5 183.0027,-137.5 272.0027,-137.5 272.0027,-116.5 183.0027,-116.5"/>
<text text-anchor="middle" x="227.5027" y="-123.9" font-family="Helvetica,sans-Serif" font-size="12.00" fill="#000000">CDataBase.h</text>
</a>
</g>
</g>
<!-- Node3&#45;&gt;Node7 -->
<g id="edge7" class="edge">
<title>Node3&#45;&gt;Node7</title>
<path fill="none" stroke="#191970" d="M316.7636,-174.4966C299.8925,-165.5194 275.3941,-152.4835 256.3289,-142.3387"/>
<polygon fill="#191970" stroke="#191970" points="257.9354,-139.2289 247.4632,-137.6212 254.6471,-145.4086 257.9354,-139.2289"/>
</g>
<!-- Node7&#45;&gt;Node2 -->
<g id="edge9" class="edge">
<title>Node7&#45;&gt;Node2</title>
<path fill="none" stroke="#191970" d="M250.6825,-116.4966C270.9806,-107.299 300.6808,-93.8411 323.2886,-83.597"/>
<polygon fill="#191970" stroke="#191970" points="324.8313,-86.7406 332.4953,-79.4252 321.9422,-80.3646 324.8313,-86.7406"/>
</g>
<!-- Node7&#45;&gt;Node4 -->
<g id="edge8" class="edge">
<title>Node7&#45;&gt;Node4</title>
<path fill="none" stroke="#191970" d="M246.044,-116.3263C258.9206,-107.9981 275.4995,-95.2934 285.5027,-80 295.0415,-65.4165 299.8313,-46.1024 302.2126,-31.6182"/>
<polygon fill="#191970" stroke="#191970" points="305.689,-32.0292 303.6029,-21.6418 298.756,-31.063 305.689,-32.0292"/>
</g>
<!-- Node7&#45;&gt;Node5 -->
<g id="edge11" class="edge">
<title>Node7&#45;&gt;Node5</title>
<path fill="none" stroke="#191970" d="M219.2222,-116.3855C208.285,-102.5483 188.2153,-77.7807 169.5027,-58 160.0042,-47.9593 148.846,-37.3665 139.4831,-28.7841"/>
<polygon fill="#191970" stroke="#191970" points="141.5641,-25.9465 131.8042,-21.8239 136.863,-31.133 141.5641,-25.9465"/>
</g>
<!-- Node8 -->
<g id="node8" class="node">
<title>Node8</title>
<g id="a_node8"><a xlink:title=" ">
<polygon fill="none" stroke="#bfbfbf" points="104.5027,-58.5 104.5027,-79.5 160.5027,-79.5 160.5027,-58.5 104.5027,-58.5"/>
<text text-anchor="middle" x="132.5027" y="-65.9" font-family="Helvetica,sans-Serif" font-size="12.00" fill="#000000">fstream</text>
</a>
</g>
</g>
<!-- Node7&#45;&gt;Node8 -->
<g id="edge10" class="edge">
<title>Node7&#45;&gt;Node8</title>
<path fill="none" stroke="#191970" d="M210.0782,-116.3619C195.6154,-107.532 174.8333,-94.844 158.4187,-84.8224"/>
<polygon fill="#191970" stroke="#191970" points="160.1755,-81.7943 149.8167,-79.5707 156.5279,-87.7688 160.1755,-81.7943"/>
</g>
<!-- Node9 -->
<g id="node9" class="node">
<title>Node9</title>
<g id="a_node9"><a xlink:href="../../d2/d92/CRisk_8h.html" target="_top" xlink:title=" ">
<polygon fill="none" stroke="#000000" points="217.0027,-58.5 217.0027,-79.5 276.0027,-79.5 276.0027,-58.5 217.0027,-58.5"/>
<text text-anchor="middle" x="246.5027" y="-65.9" font-family="Helvetica,sans-Serif" font-size="12.00" fill="#000000">CRisk.h</text>
</a>
</g>
</g>
<!-- Node7&#45;&gt;Node9 -->
<g id="edge12" class="edge">
<title>Node7&#45;&gt;Node9</title>
<path fill="none" stroke="#191970" d="M230.9876,-116.3619C233.4784,-108.7584 236.9064,-98.294 239.9068,-89.1349"/>
<polygon fill="#191970" stroke="#191970" points="243.2528,-90.1634 243.0399,-79.5707 236.6006,-87.9841 243.2528,-90.1634"/>
</g>
<!-- Node10 -->
<g id="node10" class="node">
<title>Node10</title>
<g id="a_node10"><a xlink:href="../../d3/d97/CReturn_8h.html" target="_top" xlink:title=" ">
<polygon fill="none" stroke="#000000" points="15.0027,-58.5 15.0027,-79.5 86.0027,-79.5 86.0027,-58.5 15.0027,-58.5"/>
<text text-anchor="middle" x="50.5027" y="-65.9" font-family="Helvetica,sans-Serif" font-size="12.00" fill="#000000">CReturn.h</text>
</a>
</g>
</g>
<!-- Node7&#45;&gt;Node10 -->
<g id="edge15" class="edge">
<title>Node7&#45;&gt;Node10</title>
<path fill="none" stroke="#191970" d="M195.4493,-116.4966C166.5935,-107.0411 123.997,-93.0829 92.4419,-82.7428"/>
<polygon fill="#191970" stroke="#191970" points="93.2089,-79.3111 82.6161,-79.5231 91.0291,-85.963 93.2089,-79.3111"/>
</g>
<!-- Node9&#45;&gt;Node4 -->
<g id="edge13" class="edge">
<title>Node9&#45;&gt;Node4</title>
<path fill="none" stroke="#191970" d="M257.1408,-58.3619C265.3983,-50.1043 277.0302,-38.4725 286.6998,-28.8029"/>
<polygon fill="#191970" stroke="#191970" points="289.3358,-31.1166 293.932,-21.5707 284.386,-26.1669 289.3358,-31.1166"/>
</g>
<!-- Node9&#45;&gt;Node5 -->
<g id="edge14" class="edge">
<title>Node9&#45;&gt;Node5</title>
<path fill="none" stroke="#191970" d="M223.5039,-58.4966C203.4894,-49.3562 174.2619,-36.0082 151.8839,-25.7883"/>
<polygon fill="#191970" stroke="#191970" points="153.3098,-22.5918 142.7595,-21.6212 150.4018,-28.9592 153.3098,-22.5918"/>
</g>
<!-- Node10&#45;&gt;Node5 -->
<g id="edge16" class="edge">
<title>Node10&#45;&gt;Node5</title>
<path fill="none" stroke="#191970" d="M63.1583,-58.3619C73.1765,-49.9408 87.3695,-38.0105 99.004,-28.2308"/>
<polygon fill="#191970" stroke="#191970" points="101.5244,-30.6844 106.9272,-21.5707 97.0203,-25.326 101.5244,-30.6844"/>
</g>
</g>
</svg>
