<?xml version="1.0" encoding="UTF-8" standalone="no"?>
<!DOCTYPE svg PUBLIC "-//W3C//DTD SVG 1.1//EN"
 "http://www.w3.org/Graphics/SVG/1.1/DTD/svg11.dtd">
<!-- Generated by graphviz version 2.40.1 (20161225.0304)
 -->
<!-- Title: sources/CPortfolio.cpp Pages: 1 -->
<svg width="939pt" height="494pt"
 viewBox="0.00 0.00 938.50 494.00" xmlns="http://www.w3.org/2000/svg" xmlns:xlink="http://www.w3.org/1999/xlink">
<g id="graph0" class="graph" transform="scale(1 1) rotate(0) translate(4 490)">
<title>sources/CPortfolio.cpp</title>
<!-- Node1 -->
<g id="node1" class="node">
<title>Node1</title>
<g id="a_node1"><a xlink:title=" ">
<polygon fill="#bfbfbf" stroke="#000000" points="555.5,-464.5 555.5,-485.5 692.5,-485.5 692.5,-464.5 555.5,-464.5"/>
<text text-anchor="middle" x="624" y="-471.9" font-family="Helvetica,sans-Serif" font-size="12.00" fill="#000000">sources/CPortfolio.cpp</text>
</a>
</g>
</g>
<!-- Node2 -->
<g id="node2" class="node">
<title>Node2</title>
<g id="a_node2"><a xlink:title=" ">
<polygon fill="none" stroke="#bfbfbf" points="418,-.5 418,-21.5 480,-21.5 480,-.5 418,-.5"/>
<text text-anchor="middle" x="449" y="-7.9" font-family="Helvetica,sans-Serif" font-size="12.00" fill="#000000">iostream</text>
</a>
</g>
</g>
<!-- Node1&#45;&gt;Node2 -->
<g id="edge1" class="edge">
<title>Node1&#45;&gt;Node2</title>
<path fill="none" stroke="#191970" d="M555.2779,-471.661C439.4215,-465.4916 210.3049,-450.8166 133,-428 69.1313,-409.1491 0,-425.5926 0,-359 0,-359 0,-359 0,-127 0,-43.253 296.5215,-19.0135 407.6266,-12.8706"/>
<polygon fill="#191970" stroke="#191970" points="407.9834,-16.3567 417.7837,-12.3312 407.6121,-9.3665 407.9834,-16.3567"/>
</g>
<!-- Node3 -->
<g id="node3" class="node">
<title>Node3</title>
<g id="a_node3"><a xlink:title=" ">
<polygon fill="none" stroke="#bfbfbf" points="226,-58.5 226,-79.5 272,-79.5 272,-58.5 226,-58.5"/>
<text text-anchor="middle" x="249" y="-65.9" font-family="Helvetica,sans-Serif" font-size="12.00" fill="#000000">string</text>
</a>
</g>
</g>
<!-- Node1&#45;&gt;Node3 -->
<g id="edge2" class="edge">
<title>Node1&#45;&gt;Node3</title>
<path fill="none" stroke="#191970" d="M555.3436,-468.541C400.6008,-453.0594 38,-411.2116 38,-359 38,-359 38,-359 38,-185 38,-104.9468 156.0725,-79.75 215.5682,-72.135"/>
<polygon fill="#191970" stroke="#191970" points="216.0942,-75.5973 225.6131,-70.9455 215.2709,-68.6459 216.0942,-75.5973"/>
</g>
<!-- Node4 -->
<g id="node4" class="node">
<title>Node4</title>
<g id="a_node4"><a xlink:href="../../d1/dea/CPortfolio_8h.html" target="_top" xlink:title=" ">
<polygon fill="none" stroke="#000000" points="400.5,-406.5 400.5,-427.5 535.5,-427.5 535.5,-406.5 400.5,-406.5"/>
<text text-anchor="middle" x="468" y="-413.9" font-family="Helvetica,sans-Serif" font-size="12.00" fill="#000000">../headers/CPortfolio.h</text>
</a>
</g>
</g>
<!-- Node1&#45;&gt;Node4 -->
<g id="edge3" class="edge">
<title>Node1&#45;&gt;Node4</title>
<path fill="none" stroke="#191970" d="M595.7496,-464.4966C570.5375,-455.1229 533.4238,-441.3242 505.6879,-431.0122"/>
<polygon fill="#191970" stroke="#191970" points="506.8963,-427.7274 496.3034,-427.5231 504.4568,-434.2886 506.8963,-427.7274"/>
</g>
<!-- Node6 -->
<g id="node6" class="node">
<title>Node6</title>
<g id="a_node6"><a xlink:title=" ">
<polygon fill="none" stroke="#bfbfbf" points="616.5,-.5 616.5,-21.5 665.5,-21.5 665.5,-.5 616.5,-.5"/>
<text text-anchor="middle" x="641" y="-7.9" font-family="Helvetica,sans-Serif" font-size="12.00" fill="#000000">vector</text>
</a>
</g>
</g>
<!-- Node1&#45;&gt;Node6 -->
<g id="edge45" class="edge">
<title>Node1&#45;&gt;Node6</title>
<path fill="none" stroke="#191970" d="M692.6921,-467.4452C756.9176,-456.1179 843,-428.0553 843,-359 843,-359 843,-359 843,-127 843,-95.1919 846.6855,-80.2962 824,-58 803.175,-37.5323 722.8074,-22.8015 675.7871,-15.7274"/>
<polygon fill="#191970" stroke="#191970" points="676.1327,-12.2408 665.731,-14.2546 675.1182,-19.1669 676.1327,-12.2408"/>
</g>
<!-- Node9 -->
<g id="node9" class="node">
<title>Node9</title>
<g id="a_node9"><a xlink:title=" ">
<polygon fill="none" stroke="#bfbfbf" points="759,-58.5 759,-79.5 815,-79.5 815,-58.5 759,-58.5"/>
<text text-anchor="middle" x="787" y="-65.9" font-family="Helvetica,sans-Serif" font-size="12.00" fill="#000000">fstream</text>
</a>
</g>
</g>
<!-- Node1&#45;&gt;Node9 -->
<g id="edge43" class="edge">
<title>Node1&#45;&gt;Node9</title>
<path fill="none" stroke="#191970" d="M656.4707,-464.3713C697.8281,-448.5494 764,-414.554 764,-359 764,-359 764,-359 764,-185 764,-150.97 773.6417,-112.3783 780.4399,-89.3976"/>
<polygon fill="#191970" stroke="#191970" points="783.8177,-90.3207 783.4063,-79.7339 777.1258,-88.2666 783.8177,-90.3207"/>
</g>
<!-- Node18 -->
<g id="node18" class="node">
<title>Node18</title>
<g id="a_node18"><a xlink:title=" ">
<polygon fill="none" stroke="#bfbfbf" points="871.5,-406.5 871.5,-427.5 930.5,-427.5 930.5,-406.5 871.5,-406.5"/>
<text text-anchor="middle" x="901" y="-413.9" font-family="Helvetica,sans-Serif" font-size="12.00" fill="#000000">iomanip</text>
</a>
</g>
</g>
<!-- Node1&#45;&gt;Node18 -->
<g id="edge44" class="edge">
<title>Node1&#45;&gt;Node18</title>
<path fill="none" stroke="#191970" d="M680.1783,-464.4183C727.4676,-455.3314 796.8213,-441.5843 857,-428 858.4401,-427.6749 859.9054,-427.3384 861.3842,-426.994"/>
<polygon fill="#191970" stroke="#191970" points="862.3106,-430.3712 871.2222,-424.6411 860.6823,-423.5632 862.3106,-430.3712"/>
</g>
<!-- Node4&#45;&gt;Node3 -->
<g id="edge4" class="edge">
<title>Node4&#45;&gt;Node3</title>
<path fill="none" stroke="#191970" d="M400.1663,-410.9632C287.9708,-399.0847 76,-367.8031 76,-301 76,-301 76,-301 76,-243 76,-164.1621 166.4167,-108.3747 216.5187,-83.5135"/>
<polygon fill="#191970" stroke="#191970" points="218.1861,-86.5951 225.6685,-79.0941 215.1415,-80.2919 218.1861,-86.5951"/>
</g>
<!-- Node5 -->
<g id="node5" class="node">
<title>Node5</title>
<g id="a_node5"><a xlink:href="../../d7/d79/CAsset_8h.html" target="_top" xlink:title=" ">
<polygon fill="none" stroke="#000000" points="450.5,-174.5 450.5,-195.5 515.5,-195.5 515.5,-174.5 450.5,-174.5"/>
<text text-anchor="middle" x="483" y="-181.9" font-family="Helvetica,sans-Serif" font-size="12.00" fill="#000000">CAsset.h</text>
</a>
</g>
</g>
<!-- Node4&#45;&gt;Node5 -->
<g id="edge5" class="edge">
<title>Node4&#45;&gt;Node5</title>
<path fill="none" stroke="#191970" d="M492.6558,-406.4348C524.9936,-391.0429 580.2835,-359.0624 603,-312 626.3412,-263.6433 560.0311,-221.4398 516.8892,-199.9999"/>
<polygon fill="#191970" stroke="#191970" points="518.3389,-196.8133 507.8113,-195.6215 515.298,-203.1183 518.3389,-196.8133"/>
</g>
<!-- Node8 -->
<g id="node8" class="node">
<title>Node8</title>
<g id="a_node8"><a xlink:href="../../dd/d85/CDataBase_8h.html" target="_top" xlink:title=" ">
<polygon fill="none" stroke="#000000" points="541.5,-116.5 541.5,-137.5 630.5,-137.5 630.5,-116.5 541.5,-116.5"/>
<text text-anchor="middle" x="586" y="-123.9" font-family="Helvetica,sans-Serif" font-size="12.00" fill="#000000">CDataBase.h</text>
</a>
</g>
</g>
<!-- Node4&#45;&gt;Node8 -->
<g id="edge41" class="edge">
<title>Node4&#45;&gt;Node8</title>
<path fill="none" stroke="#191970" d="M529.2779,-406.4571C585.468,-392.8599 660,-363.1167 660,-301 660,-301 660,-301 660,-243 660,-203.0029 628.3439,-165.7032 606.4412,-144.6825"/>
<polygon fill="#191970" stroke="#191970" points="608.6082,-141.9193 598.8898,-137.6998 603.8557,-147.0588 608.6082,-141.9193"/>
</g>
<!-- Node10 -->
<g id="node10" class="node">
<title>Node10</title>
<g id="a_node10"><a xlink:href="../../d2/d92/CRisk_8h.html" target="_top" xlink:title=" ">
<polygon fill="none" stroke="#000000" points="515.5,-58.5 515.5,-79.5 574.5,-79.5 574.5,-58.5 515.5,-58.5"/>
<text text-anchor="middle" x="545" y="-65.9" font-family="Helvetica,sans-Serif" font-size="12.00" fill="#000000">CRisk.h</text>
</a>
</g>
</g>
<!-- Node4&#45;&gt;Node10 -->
<g id="edge39" class="edge">
<title>Node4&#45;&gt;Node10</title>
<path fill="none" stroke="#191970" d="M460.6093,-406.3656C447.6062,-386.585 422,-342.3793 422,-301 422,-301 422,-301 422,-243 422,-182.5 430.1545,-160.6306 471,-116 482.8004,-103.1061 498.9057,-92.3221 513.0787,-84.3498"/>
<polygon fill="#191970" stroke="#191970" points="514.9012,-87.3438 522.0487,-79.523 511.5841,-81.1795 514.9012,-87.3438"/>
</g>
<!-- Node11 -->
<g id="node11" class="node">
<title>Node11</title>
<g id="a_node11"><a xlink:href="../../d3/d97/CReturn_8h.html" target="_top" xlink:title=" ">
<polygon fill="none" stroke="#000000" points="669.5,-58.5 669.5,-79.5 740.5,-79.5 740.5,-58.5 669.5,-58.5"/>
<text text-anchor="middle" x="705" y="-65.9" font-family="Helvetica,sans-Serif" font-size="12.00" fill="#000000">CReturn.h</text>
</a>
</g>
</g>
<!-- Node4&#45;&gt;Node11 -->
<g id="edge40" class="edge">
<title>Node4&#45;&gt;Node11</title>
<path fill="none" stroke="#191970" d="M535.875,-409.0525C570.613,-402.5853 612.3426,-390.93 645,-370 678.4895,-348.5367 702,-340.7772 702,-301 702,-301 702,-301 702,-185 702,-151.5866 703.2593,-112.7774 704.1461,-89.5898"/>
<polygon fill="#191970" stroke="#191970" points="707.645,-89.6847 704.5444,-79.5537 700.6505,-89.4071 707.645,-89.6847"/>
</g>
<!-- Node12 -->
<g id="node12" class="node">
<title>Node12</title>
<g id="a_node12"><a xlink:href="../../dd/d2c/CClient_8h.html" target="_top" xlink:title=" ">
<polygon fill="none" stroke="#000000" points="208.5,-348.5 208.5,-369.5 275.5,-369.5 275.5,-348.5 208.5,-348.5"/>
<text text-anchor="middle" x="242" y="-355.9" font-family="Helvetica,sans-Serif" font-size="12.00" fill="#000000">CClient.h</text>
</a>
</g>
</g>
<!-- Node4&#45;&gt;Node12 -->
<g id="edge20" class="edge">
<title>Node4&#45;&gt;Node12</title>
<path fill="none" stroke="#191970" d="M427.0731,-406.4966C387.0862,-396.2345 326.4339,-380.6689 285.5667,-370.1808"/>
<polygon fill="#191970" stroke="#191970" points="286.1838,-366.7258 275.6276,-367.6301 284.4436,-373.5061 286.1838,-366.7258"/>
</g>
<!-- Node14 -->
<g id="node14" class="node">
<title>Node14</title>
<g id="a_node14"><a xlink:href="../../df/dca/CMyHoldings_8h.html" target="_top" xlink:title=" ">
<polygon fill="none" stroke="#000000" points="256.5,-290.5 256.5,-311.5 355.5,-311.5 355.5,-290.5 256.5,-290.5"/>
<text text-anchor="middle" x="306" y="-297.9" font-family="Helvetica,sans-Serif" font-size="12.00" fill="#000000">CMyHoldings.h</text>
</a>
</g>
</g>
<!-- Node4&#45;&gt;Node14 -->
<g id="edge42" class="edge">
<title>Node4&#45;&gt;Node14</title>
<path fill="none" stroke="#191970" d="M438.9698,-406.4483C418.5818,-398.2589 391.2664,-385.6718 370,-370 350.4285,-355.5773 331.9868,-334.6098 319.9735,-319.5783"/>
<polygon fill="#191970" stroke="#191970" points="322.5914,-317.2436 313.6832,-311.5082 317.0704,-321.547 322.5914,-317.2436"/>
</g>
<!-- Node15 -->
<g id="node15" class="node">
<title>Node15</title>
<g id="a_node15"><a xlink:href="../../df/d1a/CBroker_8h.html" target="_top" xlink:title=" ">
<polygon fill="none" stroke="#000000" points="297.5,-232.5 297.5,-253.5 368.5,-253.5 368.5,-232.5 297.5,-232.5"/>
<text text-anchor="middle" x="333" y="-239.9" font-family="Helvetica,sans-Serif" font-size="12.00" fill="#000000">CBroker.h</text>
</a>
</g>
</g>
<!-- Node4&#45;&gt;Node15 -->
<g id="edge38" class="edge">
<title>Node4&#45;&gt;Node15</title>
<path fill="none" stroke="#191970" d="M450.9505,-406.3988C438.0257,-397.7549 420.4273,-384.618 408,-370 381.717,-339.0837 384.9658,-324.7427 364,-290 358.3625,-280.6581 351.7474,-270.527 346.079,-262.0712"/>
<polygon fill="#191970" stroke="#191970" points="348.8955,-259.9882 340.3909,-253.6697 343.0991,-263.9126 348.8955,-259.9882"/>
</g>
<!-- Node16 -->
<g id="node16" class="node">
<title>Node16</title>
<g id="a_node16"><a xlink:href="../../d2/d2d/CStock_8h.html" target="_top" xlink:title=" ">
<polygon fill="none" stroke="#000000" points="450.5,-232.5 450.5,-253.5 515.5,-253.5 515.5,-232.5 450.5,-232.5"/>
<text text-anchor="middle" x="483" y="-239.9" font-family="Helvetica,sans-Serif" font-size="12.00" fill="#000000">CStock.h</text>
</a>
</g>
</g>
<!-- Node4&#45;&gt;Node16 -->
<g id="edge33" class="edge">
<title>Node4&#45;&gt;Node16</title>
<path fill="none" stroke="#191970" d="M468.9157,-406.3774C471.3368,-378.293 477.9419,-301.6735 481.1722,-264.2027"/>
<polygon fill="#191970" stroke="#191970" points="484.6861,-264.1914 482.058,-253.9277 477.7119,-263.5901 484.6861,-264.1914"/>
</g>
<!-- Node17 -->
<g id="node17" class="node">
<title>Node17</title>
<g id="a_node17"><a xlink:href="../../dc/d09/CETF_8h.html" target="_top" xlink:title=" ">
<polygon fill="none" stroke="#000000" points="534.5,-290.5 534.5,-311.5 593.5,-311.5 593.5,-290.5 534.5,-290.5"/>
<text text-anchor="middle" x="564" y="-297.9" font-family="Helvetica,sans-Serif" font-size="12.00" fill="#000000">CETF.h</text>
</a>
</g>
</g>
<!-- Node4&#45;&gt;Node17 -->
<g id="edge36" class="edge">
<title>Node4&#45;&gt;Node17</title>
<path fill="none" stroke="#191970" d="M476.8594,-406.2949C493.2189,-386.5271 528.3475,-344.0801 548.653,-319.5443"/>
<polygon fill="#191970" stroke="#191970" points="551.4827,-321.6147 555.162,-311.6792 546.0899,-317.1517 551.4827,-321.6147"/>
</g>
<!-- Node5&#45;&gt;Node2 -->
<g id="edge6" class="edge">
<title>Node5&#45;&gt;Node2</title>
<path fill="none" stroke="#191970" d="M479.9936,-174.2295C477.4062,-164.7397 473.6778,-150.5174 471,-138 463.0435,-100.8077 455.9543,-57.0186 452.0881,-31.7874"/>
<polygon fill="#191970" stroke="#191970" points="455.5022,-30.9556 450.547,-21.591 448.5808,-32.0018 455.5022,-30.9556"/>
</g>
<!-- Node5&#45;&gt;Node3 -->
<g id="edge7" class="edge">
<title>Node5&#45;&gt;Node3</title>
<path fill="none" stroke="#191970" d="M463.6461,-174.3649C438.2385,-160.5053 392.1479,-135.7136 352,-116 328.5439,-104.4825 301.6719,-92.252 281.2579,-83.1552"/>
<polygon fill="#191970" stroke="#191970" points="282.6442,-79.9413 272.0841,-79.0843 279.8049,-86.3396 282.6442,-79.9413"/>
</g>
<!-- Node5&#45;&gt;Node6 -->
<g id="edge8" class="edge">
<title>Node5&#45;&gt;Node6</title>
<path fill="none" stroke="#191970" d="M515.7182,-179.8416C557.1763,-172.5628 625.0547,-157.9105 640,-138 663.3709,-106.8647 654.9798,-58.2656 647.5219,-31.1027"/>
<polygon fill="#191970" stroke="#191970" points="650.876,-30.1023 644.6777,-21.5098 644.1647,-32.0922 650.876,-30.1023"/>
</g>
<!-- Node7 -->
<g id="node7" class="node">
<title>Node7</title>
<g id="a_node7"><a xlink:title=" ">
<polygon fill="none" stroke="#bfbfbf" points="480.5,-116.5 480.5,-137.5 523.5,-137.5 523.5,-116.5 480.5,-116.5"/>
<text text-anchor="middle" x="502" y="-123.9" font-family="Helvetica,sans-Serif" font-size="12.00" fill="#000000">tuple</text>
</a>
</g>
</g>
<!-- Node5&#45;&gt;Node7 -->
<g id="edge9" class="edge">
<title>Node5&#45;&gt;Node7</title>
<path fill="none" stroke="#191970" d="M486.4849,-174.3619C488.9757,-166.7584 492.4037,-156.294 495.4041,-147.1349"/>
<polygon fill="#191970" stroke="#191970" points="498.7501,-148.1634 498.5372,-137.5707 492.098,-145.9841 498.7501,-148.1634"/>
</g>
<!-- Node5&#45;&gt;Node8 -->
<g id="edge10" class="edge">
<title>Node5&#45;&gt;Node8</title>
<path fill="none" stroke="#191970" d="M501.8918,-174.3619C517.7177,-165.4502 540.5226,-152.6087 558.3947,-142.5447"/>
<polygon fill="#191970" stroke="#191970" points="560.2318,-145.5271 567.228,-137.5707 556.7971,-139.4276 560.2318,-145.5271"/>
</g>
<!-- Node8&#45;&gt;Node2 -->
<g id="edge11" class="edge">
<title>Node8&#45;&gt;Node2</title>
<path fill="none" stroke="#191970" d="M563.2471,-116.3452C546.44,-107.8553 523.5324,-94.9409 506,-80 488.7633,-65.3111 472.6774,-44.9821 462.019,-30.1966"/>
<polygon fill="#191970" stroke="#191970" points="464.7361,-27.9756 456.1223,-21.8069 459.0091,-32.0008 464.7361,-27.9756"/>
</g>
<!-- Node8&#45;&gt;Node3 -->
<g id="edge12" class="edge">
<title>Node8&#45;&gt;Node3</title>
<path fill="none" stroke="#191970" d="M541.4929,-117.6259C538.6213,-117.0634 535.7715,-116.5167 533,-116 442.6826,-99.1612 335.6282,-82.2697 282.4492,-74.0846"/>
<polygon fill="#191970" stroke="#191970" points="282.6634,-70.5766 272.2483,-72.5197 281.6019,-77.4956 282.6634,-70.5766"/>
</g>
<!-- Node8&#45;&gt;Node6 -->
<g id="edge14" class="edge">
<title>Node8&#45;&gt;Node6</title>
<path fill="none" stroke="#191970" d="M591.0757,-116.2949C600.2846,-96.8724 619.8743,-55.5561 631.5902,-30.8462"/>
<polygon fill="#191970" stroke="#191970" points="634.8148,-32.2145 635.9366,-21.6792 628.4898,-29.2155 634.8148,-32.2145"/>
</g>
<!-- Node8&#45;&gt;Node9 -->
<g id="edge13" class="edge">
<title>Node8&#45;&gt;Node9</title>
<path fill="none" stroke="#191970" d="M623.1565,-116.4645C654.3374,-107.5981 700.3049,-94.4687 748.9629,-80.2864"/>
<polygon fill="#191970" stroke="#191970" points="750.1078,-83.5983 758.7267,-77.4368 748.1466,-76.8786 750.1078,-83.5983"/>
</g>
<!-- Node8&#45;&gt;Node10 -->
<g id="edge15" class="edge">
<title>Node8&#45;&gt;Node10</title>
<path fill="none" stroke="#191970" d="M578.48,-116.3619C572.8739,-108.4313 565.0678,-97.3885 558.4032,-87.9606"/>
<polygon fill="#191970" stroke="#191970" points="561.1028,-85.7161 552.4724,-79.5707 555.3867,-89.7568 561.1028,-85.7161"/>
</g>
<!-- Node8&#45;&gt;Node11 -->
<g id="edge18" class="edge">
<title>Node8&#45;&gt;Node11</title>
<path fill="none" stroke="#191970" d="M607.55,-116.4966C626.1363,-107.4378 653.2018,-94.2462 674.0954,-84.0628"/>
<polygon fill="#191970" stroke="#191970" points="675.7525,-87.1487 683.2082,-79.6212 672.6856,-80.8563 675.7525,-87.1487"/>
</g>
<!-- Node10&#45;&gt;Node2 -->
<g id="edge16" class="edge">
<title>Node10&#45;&gt;Node2</title>
<path fill="none" stroke="#191970" d="M527.3921,-58.3619C512.7771,-49.532 491.7762,-36.844 475.1888,-26.8224"/>
<polygon fill="#191970" stroke="#191970" points="476.8653,-23.7461 466.4963,-21.5707 473.2455,-29.7376 476.8653,-23.7461"/>
</g>
<!-- Node10&#45;&gt;Node6 -->
<g id="edge17" class="edge">
<title>Node10&#45;&gt;Node6</title>
<path fill="none" stroke="#191970" d="M562.6079,-58.3619C577.2229,-49.532 598.2238,-36.844 614.8112,-26.8224"/>
<polygon fill="#191970" stroke="#191970" points="616.7545,-29.7376 623.5037,-21.5707 613.1347,-23.7461 616.7545,-29.7376"/>
</g>
<!-- Node11&#45;&gt;Node6 -->
<g id="edge19" class="edge">
<title>Node11&#45;&gt;Node6</title>
<path fill="none" stroke="#191970" d="M693.2614,-58.3619C684.0594,-50.0226 671.0599,-38.2418 660.3283,-28.5162"/>
<polygon fill="#191970" stroke="#191970" points="662.4244,-25.6924 652.6642,-21.5707 657.7237,-30.8793 662.4244,-25.6924"/>
</g>
<!-- Node12&#45;&gt;Node2 -->
<g id="edge21" class="edge">
<title>Node12&#45;&gt;Node2</title>
<path fill="none" stroke="#191970" d="M214.0835,-348.4795C197.2628,-340.7858 176.7059,-328.7544 164,-312 111.362,-242.5897 117.0206,-188.7085 165,-116 184.0685,-87.1035 186.9532,-75.1991 217,-58 248.9815,-39.6935 350.0095,-23.9703 407.6494,-16.1951"/>
<polygon fill="#191970" stroke="#191970" points="408.4282,-19.6225 417.8807,-14.8369 407.5071,-12.6834 408.4282,-19.6225"/>
</g>
<!-- Node12&#45;&gt;Node3 -->
<g id="edge22" class="edge">
<title>Node12&#45;&gt;Node3</title>
<path fill="none" stroke="#191970" d="M225.4926,-348.3582C199.5104,-330.1632 152,-290.4105 152,-243 152,-243 152,-243 152,-185 152,-140.9868 193.6036,-104.8699 222.3179,-85.1841"/>
<polygon fill="#191970" stroke="#191970" points="224.3396,-88.0433 230.755,-79.6116 220.4818,-82.2023 224.3396,-88.0433"/>
</g>
<!-- Node12&#45;&gt;Node8 -->
<g id="edge32" class="edge">
<title>Node12&#45;&gt;Node8</title>
<path fill="none" stroke="#191970" d="M275.883,-354.7588C333.6954,-345.886 452.1891,-320.3696 525,-254 556.9172,-224.9064 573.8246,-175.5327 581.2442,-147.6925"/>
<polygon fill="#191970" stroke="#191970" points="584.6769,-148.3924 583.7103,-137.8418 577.8865,-146.6924 584.6769,-148.3924"/>
</g>
<!-- Node13 -->
<g id="node13" class="node">
<title>Node13</title>
<g id="a_node13"><a xlink:href="../../de/d98/CUser_8h.html" target="_top" xlink:title=" ">
<polygon fill="none" stroke="#000000" points="218.5,-174.5 218.5,-195.5 279.5,-195.5 279.5,-174.5 218.5,-174.5"/>
<text text-anchor="middle" x="249" y="-181.9" font-family="Helvetica,sans-Serif" font-size="12.00" fill="#000000">CUser.h</text>
</a>
</g>
</g>
<!-- Node12&#45;&gt;Node13 -->
<g id="edge23" class="edge">
<title>Node12&#45;&gt;Node13</title>
<path fill="none" stroke="#191970" d="M242.4273,-348.3774C243.5572,-320.293 246.6396,-243.6735 248.147,-206.2027"/>
<polygon fill="#191970" stroke="#191970" points="251.6555,-206.0604 248.5604,-195.9277 244.6611,-205.7789 251.6555,-206.0604"/>
</g>
<!-- Node12&#45;&gt;Node14 -->
<g id="edge25" class="edge">
<title>Node12&#45;&gt;Node14</title>
<path fill="none" stroke="#191970" d="M253.7386,-348.3619C262.9406,-340.0226 275.9401,-328.2418 286.6717,-318.5162"/>
<polygon fill="#191970" stroke="#191970" points="289.2763,-320.8793 294.3358,-311.5707 284.5756,-315.6924 289.2763,-320.8793"/>
</g>
<!-- Node13&#45;&gt;Node3 -->
<g id="edge24" class="edge">
<title>Node13&#45;&gt;Node3</title>
<path fill="none" stroke="#191970" d="M249,-174.2949C249,-155.1314 249,-114.654 249,-89.8434"/>
<polygon fill="#191970" stroke="#191970" points="252.5001,-89.6792 249,-79.6792 245.5001,-89.6792 252.5001,-89.6792"/>
</g>
<!-- Node14&#45;&gt;Node3 -->
<g id="edge31" class="edge">
<title>Node14&#45;&gt;Node3</title>
<path fill="none" stroke="#191970" d="M290.4956,-290.2957C267.5403,-273.3882 225.4556,-238.0632 209,-196 194.2986,-158.4208 218.2452,-113.0402 234.9685,-87.9706"/>
<polygon fill="#191970" stroke="#191970" points="237.8806,-89.9133 240.7179,-79.7054 232.1342,-85.9159 237.8806,-89.9133"/>
</g>
<!-- Node14&#45;&gt;Node15 -->
<g id="edge26" class="edge">
<title>Node14&#45;&gt;Node15</title>
<path fill="none" stroke="#191970" d="M310.9522,-290.3619C314.5298,-282.6766 319.4681,-272.0686 323.7642,-262.8399"/>
<polygon fill="#191970" stroke="#191970" points="327.0319,-264.1136 328.0792,-253.5707 320.6858,-261.1594 327.0319,-264.1136"/>
</g>
<!-- Node15&#45;&gt;Node3 -->
<g id="edge29" class="edge">
<title>Node15&#45;&gt;Node3</title>
<path fill="none" stroke="#191970" d="M327.8719,-232.3774C314.197,-204.0509 276.6857,-126.3488 258.7722,-89.2424"/>
<polygon fill="#191970" stroke="#191970" points="261.7749,-87.4116 254.2754,-79.9277 255.4711,-90.4549 261.7749,-87.4116"/>
</g>
<!-- Node15&#45;&gt;Node5 -->
<g id="edge30" class="edge">
<title>Node15&#45;&gt;Node5</title>
<path fill="none" stroke="#191970" d="M360.1639,-232.4966C384.3003,-223.1639 419.781,-209.4447 446.4117,-199.1475"/>
<polygon fill="#191970" stroke="#191970" points="447.7204,-202.394 455.7852,-195.5231 445.1959,-195.8651 447.7204,-202.394"/>
</g>
<!-- Node15&#45;&gt;Node8 -->
<g id="edge28" class="edge">
<title>Node15&#45;&gt;Node8</title>
<path fill="none" stroke="#191970" d="M346.9938,-232.3947C366.961,-217.66 405.184,-190.9047 441,-174 470.8632,-159.9049 506.0658,-148.3836 534.3068,-140.2759"/>
<polygon fill="#191970" stroke="#191970" points="535.3077,-143.6303 543.9854,-137.5519 533.4112,-136.8921 535.3077,-143.6303"/>
</g>
<!-- Node15&#45;&gt;Node13 -->
<g id="edge27" class="edge">
<title>Node15&#45;&gt;Node13</title>
<path fill="none" stroke="#191970" d="M317.5931,-232.3619C305.0418,-223.6955 287.1078,-211.3126 272.7255,-201.3819"/>
<polygon fill="#191970" stroke="#191970" points="274.5269,-198.3725 264.3092,-195.5707 270.5495,-204.1327 274.5269,-198.3725"/>
</g>
<!-- Node16&#45;&gt;Node3 -->
<g id="edge34" class="edge">
<title>Node16&#45;&gt;Node3</title>
<path fill="none" stroke="#191970" d="M468.7145,-232.3774C429.3872,-203.1341 319.2904,-121.2672 271.5527,-85.77"/>
<polygon fill="#191970" stroke="#191970" points="273.509,-82.8631 263.3959,-79.7046 269.332,-88.4803 273.509,-82.8631"/>
</g>
<!-- Node16&#45;&gt;Node5 -->
<g id="edge35" class="edge">
<title>Node16&#45;&gt;Node5</title>
<path fill="none" stroke="#191970" d="M483,-232.3619C483,-224.9219 483,-214.7427 483,-205.7276"/>
<polygon fill="#191970" stroke="#191970" points="486.5001,-205.5706 483,-195.5707 479.5001,-205.5707 486.5001,-205.5706"/>
</g>
<!-- Node17&#45;&gt;Node5 -->
<g id="edge37" class="edge">
<title>Node17&#45;&gt;Node5</title>
<path fill="none" stroke="#191970" d="M558.8524,-290.287C551.9524,-276.3432 538.9479,-251.4606 525,-232 517.7536,-221.8896 508.6616,-211.4911 500.7917,-203.0539"/>
<polygon fill="#191970" stroke="#191970" points="503.155,-200.4606 493.7209,-195.6389 498.0891,-205.2914 503.155,-200.4606"/>
</g>
</g>
</svg>
