<?xml version="1.0" encoding="UTF-8" standalone="no"?>
<!DOCTYPE svg PUBLIC "-//W3C//DTD SVG 1.1//EN"
 "http://www.w3.org/Graphics/SVG/1.1/DTD/svg11.dtd">
<!-- Generated by graphviz version 2.40.1 (20161225.0304)
 -->
<!-- Title: sources/CClient.cpp Pages: 1 -->
<!--zoomable 494 -->
<svg id="main" version="1.1" xmlns="http://www.w3.org/2000/svg" xmlns:xlink="http://www.w3.org/1999/xlink" xml:space="preserve" onload="init(evt)">
<style type="text/css"><![CDATA[
.edge:hover path { stroke: red; }
.edge:hover polygon { stroke: red; fill: red; }
]]></style>
<script type="text/javascript"><![CDATA[
var edges = document.getElementsByTagName('g');
if (edges && edges.length) {
  for (var i=0;i<edges.length;i++) {
    if (edges[i].id.substr(0,4)=='edge') {
      edges[i].setAttribute('class','edge');
    }
  }
}
]]></script>
        <defs>
                <circle id="rim" cx="0" cy="0" r="7"/>
                <circle id="rim2" cx="0" cy="0" r="3.5"/>
                <g id="zoomPlus">
                        <use xlink:href="#rim" fill="#404040">
                                <set attributeName="fill" to="#808080" begin="zoomplus.mouseover" end="zoomplus.mouseout"/>
                        </use>
                        <path d="M-4,0h8M0,-4v8" fill="none" stroke="white" stroke-width="1.5" pointer-events="none"/>
                </g>
                <g id="zoomMin">
                        <use xlink:href="#rim" fill="#404040">
                                <set attributeName="fill" to="#808080" begin="zoomminus.mouseover" end="zoomminus.mouseout"/>
                        </use>
                        <path d="M-4,0h8" fill="none" stroke="white" stroke-width="1.5" pointer-events="none"/>
                </g>
                <g id="dirArrow">
                        <path fill="none" stroke="white" stroke-width="1.5" d="M0,-3.0v7 M-2.5,-0.5L0,-3.0L2.5,-0.5"/>
                </g>
               <g id="resetDef">
                       <use xlink:href="#rim2" fill="#404040">
                               <set attributeName="fill" to="#808080" begin="reset.mouseover" end="reset.mouseout"/>
                       </use>
               </g>
        </defs>

<script type="text/javascript">
var viewWidth = 936;
var viewHeight = 494;
var sectionId = 'dynsection-0';
</script>
<script xlink:href="../../svgpan.js"/>
<svg id="graph" class="graph">
<g id="viewport">
<title>sources/CClient.cpp</title>
<!-- Node1 -->
<g id="node1" class="node">
<title>Node1</title>
<g id="a_node1"><a xlink:title=" ">
<polygon fill="#bfbfbf" stroke="#000000" points="615.5,-464.5 615.5,-485.5 740.5,-485.5 740.5,-464.5 615.5,-464.5"/>
<text text-anchor="middle" x="678" y="-471.9" font-family="Helvetica,sans-Serif" font-size="12.00" fill="#000000">sources/CClient.cpp</text>
</a>
</g>
</g>
<!-- Node2 -->
<g id="node2" class="node">
<title>Node2</title>
<g id="a_node2"><a xlink:href="../../dd/d2c/CClient_8h.html" target="_top" xlink:title=" ">
<polygon fill="none" stroke="#000000" points="617,-348.5 617,-369.5 739,-369.5 739,-348.5 617,-348.5"/>
<text text-anchor="middle" x="678" y="-355.9" font-family="Helvetica,sans-Serif" font-size="12.00" fill="#000000">../headers/CClient.h</text>
</a>
</g>
</g>
<!-- Node1&#45;&gt;Node2 -->
<g id="edge1" class="edge">
<title>Node1&#45;&gt;Node2</title>
<path fill="none" stroke="#191970" d="M678,-464.2949C678,-445.1314 678,-404.654 678,-379.8434"/>
<polygon fill="#191970" stroke="#191970" points="681.5001,-379.6792 678,-369.6792 674.5001,-379.6792 681.5001,-379.6792"/>
</g>
<!-- Node3 -->
<g id="node3" class="node">
<title>Node3</title>
<g id="a_node3"><a xlink:title=" ">
<polygon fill="none" stroke="#bfbfbf" points="143,-.5 143,-21.5 205,-21.5 205,-.5 143,-.5"/>
<text text-anchor="middle" x="174" y="-7.9" font-family="Helvetica,sans-Serif" font-size="12.00" fill="#000000">iostream</text>
</a>
</g>
</g>
<!-- Node1&#45;&gt;Node3 -->
<g id="edge42" class="edge">
<title>Node1&#45;&gt;Node3</title>
<path fill="none" stroke="#191970" d="M615.2201,-472.3594C493.4702,-466.768 229.5553,-452.2212 142,-428 74.3727,-409.2916 0,-429.1673 0,-359 0,-359 0,-359 0,-127 0,-63.3512 81.6009,-32.477 133.0398,-19.3378"/>
<polygon fill="#191970" stroke="#191970" points="134.0025,-22.7058 142.8923,-16.942 132.3484,-15.904 134.0025,-22.7058"/>
</g>
<!-- Node4 -->
<g id="node4" class="node">
<title>Node4</title>
<g id="a_node4"><a xlink:title=" ">
<polygon fill="none" stroke="#bfbfbf" points="528,-58.5 528,-79.5 574,-79.5 574,-58.5 528,-58.5"/>
<text text-anchor="middle" x="551" y="-65.9" font-family="Helvetica,sans-Serif" font-size="12.00" fill="#000000">string</text>
</a>
</g>
</g>
<!-- Node1&#45;&gt;Node4 -->
<g id="edge43" class="edge">
<title>Node1&#45;&gt;Node4</title>
<path fill="none" stroke="#191970" d="M698.2451,-464.4949C728.7568,-447.0404 783,-408.9816 783,-359 783,-359 783,-359 783,-185 783,-97.1262 648.2012,-75.8171 584.1051,-70.6517"/>
<polygon fill="#191970" stroke="#191970" points="584.3189,-67.1581 574.0932,-69.9304 583.8158,-74.14 584.3189,-67.1581"/>
</g>
<!-- Node9 -->
<g id="node9" class="node">
<title>Node9</title>
<g id="a_node9"><a xlink:title=" ">
<polygon fill="none" stroke="#bfbfbf" points="70,-58.5 70,-79.5 126,-79.5 126,-58.5 70,-58.5"/>
<text text-anchor="middle" x="98" y="-65.9" font-family="Helvetica,sans-Serif" font-size="12.00" fill="#000000">fstream</text>
</a>
</g>
</g>
<!-- Node1&#45;&gt;Node9 -->
<g id="edge44" class="edge">
<title>Node1&#45;&gt;Node9</title>
<path fill="none" stroke="#191970" d="M615.4688,-470.2049C454.4282,-457.0217 38,-417.2957 38,-359 38,-359 38,-359 38,-185 38,-146.969 63.7582,-108.9756 81.5204,-87.2973"/>
<polygon fill="#191970" stroke="#191970" points="84.283,-89.4513 88.0922,-79.5649 78.9492,-84.9181 84.283,-89.4513"/>
</g>
<!-- Node15 -->
<g id="node15" class="node">
<title>Node15</title>
<g id="a_node15"><a xlink:href="../../d1/dea/CPortfolio_8h.html" target="_top" xlink:title=" ">
<polygon fill="none" stroke="#000000" points="272.5,-406.5 272.5,-427.5 407.5,-427.5 407.5,-406.5 272.5,-406.5"/>
<text text-anchor="middle" x="340" y="-413.9" font-family="Helvetica,sans-Serif" font-size="12.00" fill="#000000">../headers/CPortfolio.h</text>
</a>
</g>
</g>
<!-- Node1&#45;&gt;Node15 -->
<g id="edge28" class="edge">
<title>Node1&#45;&gt;Node15</title>
<path fill="none" stroke="#191970" d="M616.7907,-464.4966C558.9444,-454.5703 472.181,-439.6819 411.2504,-429.2264"/>
<polygon fill="#191970" stroke="#191970" points="411.772,-425.7648 401.324,-427.5231 410.588,-432.664 411.772,-425.7648"/>
</g>
<!-- Node18 -->
<g id="node18" class="node">
<title>Node18</title>
<g id="a_node18"><a xlink:title=" ">
<polygon fill="none" stroke="#bfbfbf" points="811.5,-406.5 811.5,-427.5 864.5,-427.5 864.5,-406.5 811.5,-406.5"/>
<text text-anchor="middle" x="838" y="-413.9" font-family="Helvetica,sans-Serif" font-size="12.00" fill="#000000">chrono</text>
</a>
</g>
</g>
<!-- Node1&#45;&gt;Node18 -->
<g id="edge45" class="edge">
<title>Node1&#45;&gt;Node18</title>
<path fill="none" stroke="#191970" d="M706.9748,-464.4966C733.5583,-454.8601 773.0428,-440.547 801.7153,-430.1532"/>
<polygon fill="#191970" stroke="#191970" points="803.1588,-433.3529 811.3673,-426.6543 800.7731,-426.7719 803.1588,-433.3529"/>
</g>
<!-- Node19 -->
<g id="node19" class="node">
<title>Node19</title>
<g id="a_node19"><a xlink:title=" ">
<polygon fill="none" stroke="#bfbfbf" points="882.5,-406.5 882.5,-427.5 927.5,-427.5 927.5,-406.5 882.5,-406.5"/>
<text text-anchor="middle" x="905" y="-413.9" font-family="Helvetica,sans-Serif" font-size="12.00" fill="#000000">ctime</text>
</a>
</g>
</g>
<!-- Node1&#45;&gt;Node19 -->
<g id="edge46" class="edge">
<title>Node1&#45;&gt;Node19</title>
<path fill="none" stroke="#191970" d="M728.3333,-464.4664C765.9,-456.2573 818.6309,-444.005 872.6606,-428.2117"/>
<polygon fill="#191970" stroke="#191970" points="873.8078,-431.5223 882.4038,-425.3287 871.8216,-424.81 873.8078,-431.5223"/>
</g>
<!-- Node2&#45;&gt;Node3 -->
<g id="edge2" class="edge">
<title>Node2&#45;&gt;Node3</title>
<path fill="none" stroke="#191970" d="M689.3656,-348.3546C708.481,-329.2347 745,-286.9553 745,-243 745,-243 745,-243 745,-127 745,-48.7412 658.658,-78.0079 583,-58 574.1484,-55.6592 317.2989,-26.9393 215.2339,-15.5805"/>
<polygon fill="#191970" stroke="#191970" points="215.6078,-12.1006 205.2821,-14.4734 214.8338,-19.0577 215.6078,-12.1006"/>
</g>
<!-- Node2&#45;&gt;Node4 -->
<g id="edge3" class="edge">
<title>Node2&#45;&gt;Node4</title>
<path fill="none" stroke="#191970" d="M682.5313,-348.3481C690.6875,-328.1783 707,-282.8567 707,-243 707,-243 707,-243 707,-185 707,-124.1282 629.5677,-91.4504 583.8097,-77.454"/>
<polygon fill="#191970" stroke="#191970" points="584.5985,-74.0383 574.0183,-74.5948 582.6364,-80.7577 584.5985,-74.0383"/>
</g>
<!-- Node5 -->
<g id="node5" class="node">
<title>Node5</title>
<g id="a_node5"><a xlink:href="../../de/d98/CUser_8h.html" target="_top" xlink:title=" ">
<polygon fill="none" stroke="#000000" points="617.5,-174.5 617.5,-195.5 678.5,-195.5 678.5,-174.5 617.5,-174.5"/>
<text text-anchor="middle" x="648" y="-181.9" font-family="Helvetica,sans-Serif" font-size="12.00" fill="#000000">CUser.h</text>
</a>
</g>
</g>
<!-- Node2&#45;&gt;Node5 -->
<g id="edge4" class="edge">
<title>Node2&#45;&gt;Node5</title>
<path fill="none" stroke="#191970" d="M676.1685,-348.3774C671.3264,-320.293 658.1161,-243.6735 651.6556,-206.2027"/>
<polygon fill="#191970" stroke="#191970" points="655.0323,-205.1876 649.8841,-195.9277 648.1341,-206.377 655.0323,-205.1876"/>
</g>
<!-- Node6 -->
<g id="node6" class="node">
<title>Node6</title>
<g id="a_node6"><a xlink:href="../../df/dca/CMyHoldings_8h.html" target="_top" xlink:title=" ">
<polygon fill="none" stroke="#000000" points="406.5,-290.5 406.5,-311.5 505.5,-311.5 505.5,-290.5 406.5,-290.5"/>
<text text-anchor="middle" x="456" y="-297.9" font-family="Helvetica,sans-Serif" font-size="12.00" fill="#000000">CMyHoldings.h</text>
</a>
</g>
</g>
<!-- Node2&#45;&gt;Node6 -->
<g id="edge6" class="edge">
<title>Node2&#45;&gt;Node6</title>
<path fill="none" stroke="#191970" d="M637.7975,-348.4966C600.8221,-338.8364 545.8584,-324.4765 506.0516,-314.0765"/>
<polygon fill="#191970" stroke="#191970" points="506.8379,-310.6646 496.2779,-311.5231 505.0684,-317.4372 506.8379,-310.6646"/>
</g>
<!-- Node8 -->
<g id="node8" class="node">
<title>Node8</title>
<g id="a_node8"><a xlink:href="../../dd/d85/CDataBase_8h.html" target="_top" xlink:title=" ">
<polygon fill="none" stroke="#000000" points="281.5,-116.5 281.5,-137.5 370.5,-137.5 370.5,-116.5 281.5,-116.5"/>
<text text-anchor="middle" x="326" y="-123.9" font-family="Helvetica,sans-Serif" font-size="12.00" fill="#000000">CDataBase.h</text>
</a>
</g>
</g>
<!-- Node2&#45;&gt;Node8 -->
<g id="edge27" class="edge">
<title>Node2&#45;&gt;Node8</title>
<path fill="none" stroke="#191970" d="M662.8796,-348.2465C631.6217,-326.087 557.4971,-273.9027 494,-232 453.6565,-205.3767 442.9999,-199.6008 402,-174 385.3271,-163.5892 366.5412,-151.9706 351.8181,-142.89"/>
<polygon fill="#191970" stroke="#191970" points="353.5805,-139.8649 343.2312,-137.5975 349.9077,-145.824 353.5805,-139.8649"/>
</g>
<!-- Node5&#45;&gt;Node4 -->
<g id="edge5" class="edge">
<title>Node5&#45;&gt;Node4</title>
<path fill="none" stroke="#191970" d="M642.0814,-174.1213C634.1425,-159.9983 619.1618,-134.9222 603,-116 593.8618,-105.3011 582.3705,-94.6789 572.5159,-86.2466"/>
<polygon fill="#191970" stroke="#191970" points="574.6286,-83.4509 564.7105,-79.725 570.1403,-88.8227 574.6286,-83.4509"/>
</g>
<!-- Node6&#45;&gt;Node4 -->
<g id="edge26" class="edge">
<title>Node6&#45;&gt;Node4</title>
<path fill="none" stroke="#191970" d="M466.6491,-290.2622C475.0825,-281.2433 486.632,-267.6706 494,-254 523.9272,-198.4735 540.6103,-124.9257 547.3828,-89.6277"/>
<polygon fill="#191970" stroke="#191970" points="550.8636,-90.052 549.2377,-79.5826 543.98,-88.7808 550.8636,-90.052"/>
</g>
<!-- Node7 -->
<g id="node7" class="node">
<title>Node7</title>
<g id="a_node7"><a xlink:href="../../df/d1a/CBroker_8h.html" target="_top" xlink:title=" ">
<polygon fill="none" stroke="#000000" points="413.5,-232.5 413.5,-253.5 484.5,-253.5 484.5,-232.5 413.5,-232.5"/>
<text text-anchor="middle" x="449" y="-239.9" font-family="Helvetica,sans-Serif" font-size="12.00" fill="#000000">CBroker.h</text>
</a>
</g>
</g>
<!-- Node6&#45;&gt;Node7 -->
<g id="edge7" class="edge">
<title>Node6&#45;&gt;Node7</title>
<path fill="none" stroke="#191970" d="M454.7161,-290.3619C453.8182,-282.9219 452.5896,-272.7427 451.5016,-263.7276"/>
<polygon fill="#191970" stroke="#191970" points="454.9488,-263.0792 450.2758,-253.5707 447.9993,-263.918 454.9488,-263.0792"/>
</g>
<!-- Node7&#45;&gt;Node4 -->
<g id="edge19" class="edge">
<title>Node7&#45;&gt;Node4</title>
<path fill="none" stroke="#191970" d="M455.227,-232.3774C471.9032,-203.9298 517.7716,-125.6838 539.4113,-88.7689"/>
<polygon fill="#191970" stroke="#191970" points="542.5563,-90.3247 544.5941,-79.9277 536.5174,-86.7847 542.5563,-90.3247"/>
</g>
<!-- Node7&#45;&gt;Node5 -->
<g id="edge8" class="edge">
<title>Node7&#45;&gt;Node5</title>
<path fill="none" stroke="#191970" d="M484.5772,-232.6308C519.1169,-222.5639 571.478,-207.3029 607.5762,-196.7818"/>
<polygon fill="#191970" stroke="#191970" points="608.677,-200.1067 617.2982,-193.9483 606.7183,-193.3863 608.677,-200.1067"/>
</g>
<!-- Node7&#45;&gt;Node8 -->
<g id="edge9" class="edge">
<title>Node7&#45;&gt;Node8</title>
<path fill="none" stroke="#191970" d="M437.6489,-232.2949C416.4137,-212.2682 370.4964,-168.9641 344.6508,-144.5893"/>
<polygon fill="#191970" stroke="#191970" points="347.0001,-141.994 337.3236,-137.6792 342.1973,-147.0865 347.0001,-141.994"/>
</g>
<!-- Node13 -->
<g id="node13" class="node">
<title>Node13</title>
<g id="a_node13"><a xlink:href="../../d7/d79/CAsset_8h.html" target="_top" xlink:title=" ">
<polygon fill="none" stroke="#000000" points="214.5,-174.5 214.5,-195.5 279.5,-195.5 279.5,-174.5 214.5,-174.5"/>
<text text-anchor="middle" x="247" y="-181.9" font-family="Helvetica,sans-Serif" font-size="12.00" fill="#000000">CAsset.h</text>
</a>
</g>
</g>
<!-- Node7&#45;&gt;Node13 -->
<g id="edge20" class="edge">
<title>Node7&#45;&gt;Node13</title>
<path fill="none" stroke="#191970" d="M413.3514,-232.7643C378.7729,-222.8358 326.2847,-207.7649 289.5399,-197.2144"/>
<polygon fill="#191970" stroke="#191970" points="290.199,-193.7623 279.6214,-194.3665 288.2671,-200.4905 290.199,-193.7623"/>
</g>
<!-- Node8&#45;&gt;Node3 -->
<g id="edge10" class="edge">
<title>Node8&#45;&gt;Node3</title>
<path fill="none" stroke="#191970" d="M324.9373,-116.4199C322.8907,-101.469 317.0716,-74.1819 301,-58 278.083,-34.9256 242.8517,-23.0648 215.3051,-17.0362"/>
<polygon fill="#191970" stroke="#191970" points="215.659,-13.5375 205.1656,-15 214.2808,-20.4005 215.659,-13.5375"/>
</g>
<!-- Node8&#45;&gt;Node4 -->
<g id="edge11" class="edge">
<title>Node8&#45;&gt;Node4</title>
<path fill="none" stroke="#191970" d="M366.7458,-116.4966C410.0828,-105.3253 477.801,-87.8691 517.9484,-77.52"/>
<polygon fill="#191970" stroke="#191970" points="518.962,-80.8732 527.7718,-74.9877 517.2147,-74.0948 518.962,-80.8732"/>
</g>
<!-- Node8&#45;&gt;Node9 -->
<g id="edge12" class="edge">
<title>Node8&#45;&gt;Node9</title>
<path fill="none" stroke="#191970" d="M281.4627,-116.6757C244.8523,-108.0462 191.4065,-95.1236 136.2017,-80.2474"/>
<polygon fill="#191970" stroke="#191970" points="136.8096,-76.786 126.2422,-77.5472 134.9779,-83.5421 136.8096,-76.786"/>
</g>
<!-- Node10 -->
<g id="node10" class="node">
<title>Node10</title>
<g id="a_node10"><a xlink:title=" ">
<polygon fill="none" stroke="#bfbfbf" points="283.5,-.5 283.5,-21.5 332.5,-21.5 332.5,-.5 283.5,-.5"/>
<text text-anchor="middle" x="308" y="-7.9" font-family="Helvetica,sans-Serif" font-size="12.00" fill="#000000">vector</text>
</a>
</g>
</g>
<!-- Node8&#45;&gt;Node10 -->
<g id="edge13" class="edge">
<title>Node8&#45;&gt;Node10</title>
<path fill="none" stroke="#191970" d="M342.1444,-116.2997C359.8066,-103.1697 384.2113,-79.9418 373,-58 366.1677,-44.6285 353.5592,-34.1829 341.2525,-26.5706"/>
<polygon fill="#191970" stroke="#191970" points="342.8501,-23.4523 332.4316,-21.5271 339.3755,-29.5292 342.8501,-23.4523"/>
</g>
<!-- Node11 -->
<g id="node11" class="node">
<title>Node11</title>
<g id="a_node11"><a xlink:href="../../d2/d92/CRisk_8h.html" target="_top" xlink:title=" ">
<polygon fill="none" stroke="#000000" points="144.5,-58.5 144.5,-79.5 203.5,-79.5 203.5,-58.5 144.5,-58.5"/>
<text text-anchor="middle" x="174" y="-65.9" font-family="Helvetica,sans-Serif" font-size="12.00" fill="#000000">CRisk.h</text>
</a>
</g>
</g>
<!-- Node8&#45;&gt;Node11 -->
<g id="edge14" class="edge">
<title>Node8&#45;&gt;Node11</title>
<path fill="none" stroke="#191970" d="M298.4739,-116.4966C274.0157,-107.1639 238.0619,-93.4447 211.0761,-83.1475"/>
<polygon fill="#191970" stroke="#191970" points="212.1684,-79.8182 201.5777,-79.5231 209.6728,-86.3582 212.1684,-79.8182"/>
</g>
<!-- Node12 -->
<g id="node12" class="node">
<title>Node12</title>
<g id="a_node12"><a xlink:href="../../d3/d97/CReturn_8h.html" target="_top" xlink:title=" ">
<polygon fill="none" stroke="#000000" points="221.5,-58.5 221.5,-79.5 292.5,-79.5 292.5,-58.5 221.5,-58.5"/>
<text text-anchor="middle" x="257" y="-65.9" font-family="Helvetica,sans-Serif" font-size="12.00" fill="#000000">CReturn.h</text>
</a>
</g>
</g>
<!-- Node8&#45;&gt;Node12 -->
<g id="edge17" class="edge">
<title>Node8&#45;&gt;Node12</title>
<path fill="none" stroke="#191970" d="M313.3443,-116.3619C303.3261,-107.9408 289.1332,-96.0105 277.4987,-86.2308"/>
<polygon fill="#191970" stroke="#191970" points="279.4824,-83.326 269.5754,-79.5707 274.9782,-88.6844 279.4824,-83.326"/>
</g>
<!-- Node11&#45;&gt;Node3 -->
<g id="edge15" class="edge">
<title>Node11&#45;&gt;Node3</title>
<path fill="none" stroke="#191970" d="M174,-58.3619C174,-50.9219 174,-40.7427 174,-31.7276"/>
<polygon fill="#191970" stroke="#191970" points="177.5001,-31.5706 174,-21.5707 170.5001,-31.5707 177.5001,-31.5706"/>
</g>
<!-- Node11&#45;&gt;Node10 -->
<g id="edge16" class="edge">
<title>Node11&#45;&gt;Node10</title>
<path fill="none" stroke="#191970" d="M198.2664,-58.4966C219.4783,-49.3154 250.4981,-35.8889 274.1498,-25.6516"/>
<polygon fill="#191970" stroke="#191970" points="275.6744,-28.8055 283.4613,-21.6212 272.8938,-22.3815 275.6744,-28.8055"/>
</g>
<!-- Node12&#45;&gt;Node10 -->
<g id="edge18" class="edge">
<title>Node12&#45;&gt;Node10</title>
<path fill="none" stroke="#191970" d="M266.3542,-58.3619C273.5433,-50.1861 283.6409,-38.7025 292.0927,-29.0907"/>
<polygon fill="#191970" stroke="#191970" points="294.7301,-31.3916 298.7051,-21.5707 289.4733,-26.7692 294.7301,-31.3916"/>
</g>
<!-- Node13&#45;&gt;Node3 -->
<g id="edge21" class="edge">
<title>Node13&#45;&gt;Node3</title>
<path fill="none" stroke="#191970" d="M214.2478,-177.3673C170.3399,-165.1778 94.092,-136.6818 61,-80 42.036,-47.5175 93.4831,-28.3691 133.077,-18.7799"/>
<polygon fill="#191970" stroke="#191970" points="133.8709,-22.1888 142.8378,-16.5456 132.3089,-15.3652 133.8709,-22.1888"/>
</g>
<!-- Node13&#45;&gt;Node4 -->
<g id="edge22" class="edge">
<title>Node13&#45;&gt;Node4</title>
<path fill="none" stroke="#191970" d="M279.7002,-174.5892C306.6734,-165.7092 345.7678,-152.1624 379,-138 399.1135,-129.4284 402.9289,-124.6705 423,-116 454.6555,-102.3251 491.7285,-88.9955 517.805,-80.0456"/>
<polygon fill="#191970" stroke="#191970" points="519.2306,-83.2577 527.5698,-76.7225 516.9753,-76.6309 519.2306,-83.2577"/>
</g>
<!-- Node13&#45;&gt;Node8 -->
<g id="edge25" class="edge">
<title>Node13&#45;&gt;Node8</title>
<path fill="none" stroke="#191970" d="M261.4898,-174.3619C273.1827,-165.7773 289.8427,-153.5459 303.3031,-143.6636"/>
<polygon fill="#191970" stroke="#191970" points="305.6126,-146.31 311.602,-137.5707 301.4699,-140.6675 305.6126,-146.31"/>
</g>
<!-- Node13&#45;&gt;Node10 -->
<g id="edge23" class="edge">
<title>Node13&#45;&gt;Node10</title>
<path fill="none" stroke="#191970" d="M249.7035,-174.2429C253.4818,-160.2515 261.1219,-135.3174 272,-116 282.0812,-98.0977 293.1962,-99.0059 301,-80 307.2791,-64.7075 308.8365,-45.9714 308.9307,-31.8841"/>
<polygon fill="#191970" stroke="#191970" points="312.4277,-31.6754 308.7549,-21.7376 305.4288,-31.7968 312.4277,-31.6754"/>
</g>
<!-- Node14 -->
<g id="node14" class="node">
<title>Node14</title>
<g id="a_node14"><a xlink:title=" ">
<polygon fill="none" stroke="#bfbfbf" points="181.5,-116.5 181.5,-137.5 224.5,-137.5 224.5,-116.5 181.5,-116.5"/>
<text text-anchor="middle" x="203" y="-123.9" font-family="Helvetica,sans-Serif" font-size="12.00" fill="#000000">tuple</text>
</a>
</g>
</g>
<!-- Node13&#45;&gt;Node14 -->
<g id="edge24" class="edge">
<title>Node13&#45;&gt;Node14</title>
<path fill="none" stroke="#191970" d="M238.9297,-174.3619C232.8514,-166.3496 224.3631,-155.1605 217.1631,-145.6696"/>
<polygon fill="#191970" stroke="#191970" points="219.8514,-143.4222 211.0191,-137.5707 214.2746,-147.653 219.8514,-143.4222"/>
</g>
<!-- Node15&#45;&gt;Node2 -->
<g id="edge31" class="edge">
<title>Node15&#45;&gt;Node2</title>
<path fill="none" stroke="#191970" d="M401.2093,-406.4966C459.1457,-396.5549 546.0894,-381.6355 607.0341,-371.1776"/>
<polygon fill="#191970" stroke="#191970" points="607.6973,-374.615 616.9613,-369.4741 606.5134,-367.7159 607.6973,-374.615"/>
</g>
<!-- Node15&#45;&gt;Node4 -->
<g id="edge29" class="edge">
<title>Node15&#45;&gt;Node4</title>
<path fill="none" stroke="#191970" d="M382.8046,-406.4336C453.9974,-387.5957 589,-345.9478 589,-301 589,-301 589,-301 589,-185 589,-149.7411 572.9491,-111.3154 561.7108,-88.7323"/>
<polygon fill="#191970" stroke="#191970" points="564.8019,-87.0901 557.1054,-79.809 558.5815,-90.3005 564.8019,-87.0901"/>
</g>
<!-- Node15&#45;&gt;Node6 -->
<g id="edge41" class="edge">
<title>Node15&#45;&gt;Node6</title>
<path fill="none" stroke="#191970" d="M352.2559,-406.4658C362.9729,-397.1275 378.8369,-382.9946 392,-370 408.9125,-353.304 427.2672,-333.3057 439.9655,-319.1475"/>
<polygon fill="#191970" stroke="#191970" points="442.6921,-321.3486 446.7347,-311.5553 437.4673,-316.6901 442.6921,-321.3486"/>
</g>
<!-- Node15&#45;&gt;Node7 -->
<g id="edge37" class="edge">
<title>Node15&#45;&gt;Node7</title>
<path fill="none" stroke="#191970" d="M345.1462,-406.2087C349.6554,-396.7056 356.3523,-382.4755 362,-370 378.0055,-334.6447 374.3199,-321.4926 397,-290 405.1115,-278.7367 416.3178,-268.1798 426.2508,-259.9358"/>
<polygon fill="#191970" stroke="#191970" points="428.5679,-262.5646 434.1991,-253.5901 424.2005,-257.0941 428.5679,-262.5646"/>
</g>
<!-- Node15&#45;&gt;Node8 -->
<g id="edge40" class="edge">
<title>Node15&#45;&gt;Node8</title>
<path fill="none" stroke="#191970" d="M337.9277,-406.1946C332.6848,-377.7652 319.4177,-298.4924 321,-232 321.6955,-202.7708 323.4787,-169.0035 324.7158,-147.8253"/>
<polygon fill="#191970" stroke="#191970" points="328.2165,-147.9173 325.3204,-137.726 321.229,-147.499 328.2165,-147.9173"/>
</g>
<!-- Node15&#45;&gt;Node11 -->
<g id="edge38" class="edge">
<title>Node15&#45;&gt;Node11</title>
<path fill="none" stroke="#191970" d="M292.8021,-406.463C216.8663,-388.1286 76,-347.8086 76,-301 76,-301 76,-301 76,-185 76,-140.7995 118.0325,-104.7407 147.0428,-85.1172"/>
<polygon fill="#191970" stroke="#191970" points="149.0986,-87.9551 155.5669,-79.5639 145.2776,-82.0899 149.0986,-87.9551"/>
</g>
<!-- Node15&#45;&gt;Node12 -->
<g id="edge39" class="edge">
<title>Node15&#45;&gt;Node12</title>
<path fill="none" stroke="#191970" d="M297.5179,-406.4211C254.0897,-392.9119 189.8639,-364.6976 167,-312 147.3394,-266.6855 23.3858,-359.919 172,-116 181.0096,-101.2127 196.4677,-90.7261 211.7515,-83.4694"/>
<polygon fill="#191970" stroke="#191970" points="213.4164,-86.5618 221.186,-79.3588 210.6203,-80.1445 213.4164,-86.5618"/>
</g>
<!-- Node15&#45;&gt;Node13 -->
<g id="edge30" class="edge">
<title>Node15&#45;&gt;Node13</title>
<path fill="none" stroke="#191970" d="M323.4186,-406.2254C311.7392,-397.7628 296.6904,-384.9355 288,-370 256.9473,-316.6326 249.3893,-242.0779 247.5669,-206.0889"/>
<polygon fill="#191970" stroke="#191970" points="251.0536,-205.6861 247.1542,-195.835 244.0592,-205.9677 251.0536,-205.6861"/>
</g>
<!-- Node16 -->
<g id="node16" class="node">
<title>Node16</title>
<g id="a_node16"><a xlink:href="../../d2/d2d/CStock_8h.html" target="_top" xlink:title=" ">
<polygon fill="none" stroke="#000000" points="330.5,-232.5 330.5,-253.5 395.5,-253.5 395.5,-232.5 330.5,-232.5"/>
<text text-anchor="middle" x="363" y="-239.9" font-family="Helvetica,sans-Serif" font-size="12.00" fill="#000000">CStock.h</text>
</a>
</g>
</g>
<!-- Node15&#45;&gt;Node16 -->
<g id="edge32" class="edge">
<title>Node15&#45;&gt;Node16</title>
<path fill="none" stroke="#191970" d="M341.4041,-406.3774C345.1164,-378.293 355.2443,-301.6735 360.1973,-264.2027"/>
<polygon fill="#191970" stroke="#191970" points="363.7148,-264.3002 361.5555,-253.9277 356.7752,-263.3828 363.7148,-264.3002"/>
</g>
<!-- Node17 -->
<g id="node17" class="node">
<title>Node17</title>
<g id="a_node17"><a xlink:href="../../dc/d09/CETF_8h.html" target="_top" xlink:title=" ">
<polygon fill="none" stroke="#000000" points="176.5,-290.5 176.5,-311.5 235.5,-311.5 235.5,-290.5 176.5,-290.5"/>
<text text-anchor="middle" x="206" y="-297.9" font-family="Helvetica,sans-Serif" font-size="12.00" fill="#000000">CETF.h</text>
</a>
</g>
</g>
<!-- Node15&#45;&gt;Node17 -->
<g id="edge35" class="edge">
<title>Node15&#45;&gt;Node17</title>
<path fill="none" stroke="#191970" d="M310.8595,-406.3814C291.964,-398.4556 267.6678,-386.2037 250,-370 234.8567,-356.1117 222.7806,-335.8936 215.1392,-320.9302"/>
<polygon fill="#191970" stroke="#191970" points="218.0982,-319.0121 210.5743,-311.5528 211.8043,-322.076 218.0982,-319.0121"/>
</g>
<!-- Node16&#45;&gt;Node4 -->
<g id="edge33" class="edge">
<title>Node16&#45;&gt;Node4</title>
<path fill="none" stroke="#191970" d="M374.4772,-232.3774C405.7369,-203.4456 492.649,-123.0057 531.6379,-86.9202"/>
<polygon fill="#191970" stroke="#191970" points="534.2314,-89.2889 539.193,-79.9277 529.4766,-84.1516 534.2314,-89.2889"/>
</g>
<!-- Node16&#45;&gt;Node13 -->
<g id="edge34" class="edge">
<title>Node16&#45;&gt;Node13</title>
<path fill="none" stroke="#191970" d="M341.9933,-232.4966C323.9572,-223.4786 297.7299,-210.3649 277.4011,-200.2006"/>
<polygon fill="#191970" stroke="#191970" points="278.752,-196.9629 268.2424,-195.6212 275.6215,-203.2239 278.752,-196.9629"/>
</g>
<!-- Node17&#45;&gt;Node13 -->
<g id="edge36" class="edge">
<title>Node17&#45;&gt;Node13</title>
<path fill="none" stroke="#191970" d="M209.7837,-290.2949C216.618,-270.9588 231.1221,-229.9229 239.8686,-205.1767"/>
<polygon fill="#191970" stroke="#191970" points="243.1929,-206.274 243.2255,-195.6792 236.593,-203.9412 243.1929,-206.274"/>
</g>
</g>
</svg>
        <g id="navigator" transform="translate(0 0)" fill="#404254">
                <rect fill="#f2f5e9" fill-opacity="0.5" stroke="#606060" stroke-width=".5" x="0" y="0" width="60" height="60"/>
                <use id="zoomplus" xlink:href="#zoomPlus" x="17" y="9" onmousedown="handleZoom(evt,'in')"/>
                <use id="zoomminus" xlink:href="#zoomMin" x="42" y="9" onmousedown="handleZoom(evt,'out')"/>
                <use id="reset" xlink:href="#resetDef" x="30" y="36" onmousedown="handleReset()"/>
                <g id="arrowUp" xlink:href="#dirArrow" transform="translate(30 24)" onmousedown="handlePan(0,-1)">
                  <use xlink:href="#rim" fill="#404040">
                        <set attributeName="fill" to="#808080" begin="arrowUp.mouseover" end="arrowUp.mouseout"/>
                  </use>
                  <path fill="none" stroke="white" stroke-width="1.5" d="M0,-3.0v7 M-2.5,-0.5L0,-3.0L2.5,-0.5"/>
                </g>
                <g id="arrowRight" xlink:href="#dirArrow" transform="rotate(90) translate(36 -43)" onmousedown="handlePan(1,0)">
                  <use xlink:href="#rim" fill="#404040">
                        <set attributeName="fill" to="#808080" begin="arrowRight.mouseover" end="arrowRight.mouseout"/>
                  </use>
                  <path fill="none" stroke="white" stroke-width="1.5" d="M0,-3.0v7 M-2.5,-0.5L0,-3.0L2.5,-0.5"/>
                </g>
                <g id="arrowDown" xlink:href="#dirArrow" transform="rotate(180) translate(-30 -48)" onmousedown="handlePan(0,1)">
                  <use xlink:href="#rim" fill="#404040">
                        <set attributeName="fill" to="#808080" begin="arrowDown.mouseover" end="arrowDown.mouseout"/>
                  </use>
                  <path fill="none" stroke="white" stroke-width="1.5" d="M0,-3.0v7 M-2.5,-0.5L0,-3.0L2.5,-0.5"/>
                </g>
                <g id="arrowLeft" xlink:href="#dirArrow" transform="rotate(270) translate(-36 17)" onmousedown="handlePan(-1,0)">
                  <use xlink:href="#rim" fill="#404040">
                        <set attributeName="fill" to="#808080" begin="arrowLeft.mouseover" end="arrowLeft.mouseout"/>
                  </use>
                  <path fill="none" stroke="white" stroke-width="1.5" d="M0,-3.0v7 M-2.5,-0.5L0,-3.0L2.5,-0.5"/>
                </g>
        </g>
        <svg viewBox="0 0 15 15" width="100%" height="30px" preserveAspectRatio="xMaxYMin meet">
         <g id="arrow_out" transform="scale(0.3 0.3)">
          <a xlink:href="CClient_8cpp__incl_org.svg" target="_base">
           <rect id="button" ry="5" rx="5" y="6" x="6" height="38" width="38"
                fill="#f2f5e9" fill-opacity="0.5" stroke="#606060" stroke-width="1.0"/>
           <path id="arrow"
             d="M 11.500037,31.436501 C 11.940474,20.09759 22.043105,11.32322 32.158766,21.979434 L 37.068811,17.246167 C 37.068811,17.246167 37.088388,32 37.088388,32 L 22.160133,31.978069 C 22.160133,31.978069 26.997745,27.140456 26.997745,27.140456 C 18.528582,18.264221 13.291696,25.230495 11.500037,31.436501 z"
             style="fill:#404040;"/>
          </a>
         </g>
        </svg>
</svg>
