<?xml version="1.0" encoding="UTF-8" standalone="no"?>
<!DOCTYPE svg PUBLIC "-//W3C//DTD SVG 1.1//EN"
 "http://www.w3.org/Graphics/SVG/1.1/DTD/svg11.dtd">
<!-- Generated by graphviz version 2.40.1 (20161225.0304)
 -->
<!-- Title: CUser::getMStrUsername Pages: 1 -->
<!--zoomable 251 -->
<svg id="main" version="1.1" xmlns="http://www.w3.org/2000/svg" xmlns:xlink="http://www.w3.org/1999/xlink" xml:space="preserve" onload="init(evt)">
<style type="text/css"><![CDATA[
.edge:hover path { stroke: red; }
.edge:hover polygon { stroke: red; fill: red; }
]]></style>
<script type="text/javascript"><![CDATA[
var edges = document.getElementsByTagName('g');
if (edges && edges.length) {
  for (var i=0;i<edges.length;i++) {
    if (edges[i].id.substr(0,4)=='edge') {
      edges[i].setAttribute('class','edge');
    }
  }
}
]]></script>
        <defs>
                <circle id="rim" cx="0" cy="0" r="7"/>
                <circle id="rim2" cx="0" cy="0" r="3.5"/>
                <g id="zoomPlus">
                        <use xlink:href="#rim" fill="#404040">
                                <set attributeName="fill" to="#808080" begin="zoomplus.mouseover" end="zoomplus.mouseout"/>
                        </use>
                        <path d="M-4,0h8M0,-4v8" fill="none" stroke="white" stroke-width="1.5" pointer-events="none"/>
                </g>
                <g id="zoomMin">
                        <use xlink:href="#rim" fill="#404040">
                                <set attributeName="fill" to="#808080" begin="zoomminus.mouseover" end="zoomminus.mouseout"/>
                        </use>
                        <path d="M-4,0h8" fill="none" stroke="white" stroke-width="1.5" pointer-events="none"/>
                </g>
                <g id="dirArrow">
                        <path fill="none" stroke="white" stroke-width="1.5" d="M0,-3.0v7 M-2.5,-0.5L0,-3.0L2.5,-0.5"/>
                </g>
               <g id="resetDef">
                       <use xlink:href="#rim2" fill="#404040">
                               <set attributeName="fill" to="#808080" begin="reset.mouseover" end="reset.mouseout"/>
                       </use>
               </g>
        </defs>

<script type="text/javascript">
var viewWidth = 723;
var viewHeight = 251;
var sectionId = 'dynsection-7';
</script>
<script xlink:href="../../svgpan.js"/>
<svg id="graph" class="graph">
<g id="viewport">
<title>CUser::getMStrUsername</title>
<!-- Node1 -->
<g id="node1" class="node">
<title>Node1</title>
<g id="a_node1"><a xlink:title=" ">
<polygon fill="#bfbfbf" stroke="#000000" points="561,-114.5 561,-135.5 715,-135.5 715,-114.5 561,-114.5"/>
<text text-anchor="middle" x="638" y="-121.9" font-family="Helvetica,sans-Serif" font-size="12.00" fill="#000000">CUser::getMStrUsername</text>
</a>
</g>
</g>
<!-- Node2 -->
<g id="node2" class="node">
<title>Node2</title>
<g id="a_node2"><a xlink:href="../../da/d8b/classCAdministrator.html#a834db63b1ee3b716b1e8e97a101e51de" target="_top" xlink:title="Method with while loop, switch expression and fstream library to register the administrator and can g...">
<polygon fill="none" stroke="#000000" points="79,-173.5 79,-194.5 315,-194.5 315,-173.5 79,-173.5"/>
<text text-anchor="middle" x="197" y="-180.9" font-family="Helvetica,sans-Serif" font-size="12.00" fill="#000000">CAdministrator::createAdministratorMenu</text>
</a>
</g>
</g>
<!-- Node1&#45;&gt;Node2 -->
<g id="edge1" class="edge">
<title>Node1&#45;&gt;Node2</title>
<path fill="none" stroke="#191970" d="M605.0248,-139.4603C582.8531,-148.482 552.7217,-159.4082 525,-165 456.3659,-178.8443 378.1394,-183.7804 315.2994,-185.1683"/>
<polygon fill="#191970" stroke="#191970" points="606.4184,-142.6714 614.3112,-135.6037 603.7336,-136.2067 606.4184,-142.6714"/>
</g>
<!-- Node4 -->
<g id="node4" class="node">
<title>Node4</title>
<g id="a_node4"><a xlink:href="../../db/da6/classCBroker.html#abce158f7c4dce747c076db9e7d1cdf52" target="_top" xlink:title="This function create Broker menu through this you can register, change info about Broker.">
<polygon fill="none" stroke="#000000" points="355.5,-212.5 355.5,-233.5 520.5,-233.5 520.5,-212.5 355.5,-212.5"/>
<text text-anchor="middle" x="438" y="-219.9" font-family="Helvetica,sans-Serif" font-size="12.00" fill="#000000">CBroker::createBrokerMenu</text>
</a>
</g>
</g>
<!-- Node1&#45;&gt;Node4 -->
<g id="edge4" class="edge">
<title>Node1&#45;&gt;Node4</title>
<path fill="none" stroke="#191970" d="M616.2186,-141.8546C594.2457,-158.1676 558.8234,-182.623 525,-198 512.1243,-203.8536 497.5489,-208.6813 484.0604,-212.481"/>
<polygon fill="#191970" stroke="#191970" points="618.6134,-144.4327 624.4955,-135.6207 614.402,-138.8412 618.6134,-144.4327"/>
</g>
<!-- Node5 -->
<g id="node5" class="node">
<title>Node5</title>
<g id="a_node5"><a xlink:href="../../df/da7/classCClient.html#a1cb513868f3ae0f1130528cdaeb3fb26" target="_top" xlink:title="Method create Client menu through which you can set and get data for Client.">
<polygon fill="none" stroke="#000000" points="359,-134.5 359,-155.5 517,-155.5 517,-134.5 359,-134.5"/>
<text text-anchor="middle" x="438" y="-141.9" font-family="Helvetica,sans-Serif" font-size="12.00" fill="#000000">CClient::createClientMenu</text>
</a>
</g>
</g>
<!-- Node1&#45;&gt;Node5 -->
<g id="edge7" class="edge">
<title>Node1&#45;&gt;Node5</title>
<path fill="none" stroke="#191970" d="M550.8095,-133.7191C539.6721,-134.8328 528.3192,-135.9681 517.3157,-137.0684"/>
<polygon fill="#191970" stroke="#191970" points="551.3588,-137.1817 560.9609,-132.7039 550.6622,-130.2164 551.3588,-137.1817"/>
</g>
<!-- Node6 -->
<g id="node6" class="node">
<title>Node6</title>
<g id="a_node6"><a xlink:href="../../db/da6/classCBroker.html#ab7c1aedc431a34e6e860aae1fc92eef0" target="_top" xlink:title=" ">
<polygon fill="none" stroke="#000000" points="351,-94.5 351,-115.5 525,-115.5 525,-94.5 351,-94.5"/>
<text text-anchor="middle" x="438" y="-101.9" font-family="Helvetica,sans-Serif" font-size="12.00" fill="#000000">CBroker::getAllInfoAboutUser</text>
</a>
</g>
</g>
<!-- Node1&#45;&gt;Node6 -->
<g id="edge10" class="edge">
<title>Node1&#45;&gt;Node6</title>
<path fill="none" stroke="#191970" d="M550.7518,-116.2752C542.3186,-115.4319 533.7625,-114.5762 525.3286,-113.7329"/>
<polygon fill="#191970" stroke="#191970" points="550.6622,-119.7836 560.9609,-117.2961 551.3588,-112.8183 550.6622,-119.7836"/>
</g>
<!-- Node7 -->
<g id="node7" class="node">
<title>Node7</title>
<g id="a_node7"><a xlink:href="../../da/d8b/classCAdministrator.html#ac07755f9d3c399d21e2326bfb150f33f" target="_top" xlink:title=" ">
<polygon fill="none" stroke="#000000" points="362,-41 362,-75 514,-75 514,-41 362,-41"/>
<text text-anchor="start" x="370" y="-61.4" font-family="Helvetica,sans-Serif" font-size="12.00" fill="#000000">CAdministrator::getAllInfo</text>
<text text-anchor="middle" x="438" y="-48.4" font-family="Helvetica,sans-Serif" font-size="12.00" fill="#000000">AboutUser</text>
</a>
</g>
</g>
<!-- Node1&#45;&gt;Node7 -->
<g id="edge11" class="edge">
<title>Node1&#45;&gt;Node7</title>
<path fill="none" stroke="#191970" d="M599.7437,-111.0371C577.9174,-103.1767 550.0063,-93.3026 525,-85 515.094,-81.711 504.5131,-78.3233 494.2637,-75.1063"/>
<polygon fill="#191970" stroke="#191970" points="598.7172,-114.3876 609.3115,-114.494 601.0959,-107.8041 598.7172,-114.3876"/>
</g>
<!-- Node8 -->
<g id="node8" class="node">
<title>Node8</title>
<g id="a_node8"><a xlink:href="../../df/da7/classCClient.html#a1b399f9792eae759977d7b3d320181fd" target="_top" xlink:title=" ">
<polygon fill="none" stroke="#000000" points="353,-.5 353,-21.5 523,-21.5 523,-.5 353,-.5"/>
<text text-anchor="middle" x="438" y="-7.9" font-family="Helvetica,sans-Serif" font-size="12.00" fill="#000000">CClient::getAllInfoAboutUser</text>
</a>
</g>
</g>
<!-- Node1&#45;&gt;Node8 -->
<g id="edge12" class="edge">
<title>Node1&#45;&gt;Node8</title>
<path fill="none" stroke="#191970" d="M621.5622,-106.9163C601.0579,-85.4928 563.9309,-50.284 525,-31 517.3617,-27.2165 508.9898,-24.1355 500.552,-21.6299"/>
<polygon fill="#191970" stroke="#191970" points="619.1806,-109.4932 628.5758,-114.3902 624.285,-104.7031 619.1806,-109.4932"/>
</g>
<!-- Node2&#45;&gt;Node2 -->
<g id="edge2" class="edge">
<title>Node2&#45;&gt;Node2</title>
<path fill="none" stroke="#191970" d="M229.3758,-203.6791C227.6409,-208.9746 216.849,-213 197,-213 166.7539,-213 157.5383,-203.6531 169.3532,-194.7079"/>
<polygon fill="#191970" stroke="#191970" points="232.4061,-201.922 224.6468,-194.7079 226.2138,-205.1862 232.4061,-201.922"/>
</g>
<!-- Node3 -->
<g id="node3" class="node">
<title>Node3</title>
<g id="a_node3"><a xlink:href="../../df/d0a/main_8cpp.html#ae66f6b31b5ad750f1fe042a706a4e3d4" target="_top" xlink:title=" ">
<polygon fill="none" stroke="#000000" points="0,-173.5 0,-194.5 43,-194.5 43,-173.5 0,-173.5"/>
<text text-anchor="middle" x="21.5" y="-180.9" font-family="Helvetica,sans-Serif" font-size="12.00" fill="#000000">main</text>
</a>
</g>
</g>
<!-- Node2&#45;&gt;Node3 -->
<g id="edge3" class="edge">
<title>Node2&#45;&gt;Node3</title>
<path fill="none" stroke="#191970" d="M68.7546,-184C59.2156,-184 50.4943,-184 43.2123,-184"/>
<polygon fill="#191970" stroke="#191970" points="68.9653,-187.5001 78.9653,-184 68.9652,-180.5001 68.9653,-187.5001"/>
</g>
<!-- Node4&#45;&gt;Node2 -->
<g id="edge5" class="edge">
<title>Node4&#45;&gt;Node2</title>
<path fill="none" stroke="#191970" d="M363.2226,-210.8991C330.8204,-205.6556 293.2395,-199.574 262.0165,-194.5213"/>
<polygon fill="#191970" stroke="#191970" points="362.6687,-214.3549 373.0994,-212.4974 363.787,-207.4448 362.6687,-214.3549"/>
</g>
<!-- Node4&#45;&gt;Node3 -->
<g id="edge6" class="edge">
<title>Node4&#45;&gt;Node3</title>
<path fill="none" stroke="#191970" d="M364.9796,-234.8131C291.1424,-244.0015 174.5895,-250.8776 79,-222 61.3603,-216.671 44.1354,-204.0021 33.2097,-194.7526"/>
<polygon fill="#191970" stroke="#191970" points="365.6391,-238.2571 375.1082,-233.5048 364.7422,-231.3148 365.6391,-238.2571"/>
</g>
<!-- Node5&#45;&gt;Node2 -->
<g id="edge8" class="edge">
<title>Node5&#45;&gt;Node2</title>
<path fill="none" stroke="#191970" d="M363.2226,-157.1009C330.8204,-162.3444 293.2395,-168.426 262.0165,-173.4787"/>
<polygon fill="#191970" stroke="#191970" points="363.787,-160.5552 373.0994,-155.5026 362.6687,-153.6451 363.787,-160.5552"/>
</g>
<!-- Node5&#45;&gt;Node3 -->
<g id="edge9" class="edge">
<title>Node5&#45;&gt;Node3</title>
<path fill="none" stroke="#191970" d="M348.6804,-142.7927C275.521,-142.6372 169.6655,-146.2051 79,-164 66.8655,-166.3816 53.8122,-170.7639 43.2146,-174.8205"/>
<polygon fill="#191970" stroke="#191970" points="348.7658,-146.2931 358.7815,-142.8383 348.7974,-139.2931 348.7658,-146.2931"/>
</g>
</g>
</svg>
        <g id="navigator" transform="translate(0 0)" fill="#404254">
                <rect fill="#f2f5e9" fill-opacity="0.5" stroke="#606060" stroke-width=".5" x="0" y="0" width="60" height="60"/>
                <use id="zoomplus" xlink:href="#zoomPlus" x="17" y="9" onmousedown="handleZoom(evt,'in')"/>
                <use id="zoomminus" xlink:href="#zoomMin" x="42" y="9" onmousedown="handleZoom(evt,'out')"/>
                <use id="reset" xlink:href="#resetDef" x="30" y="36" onmousedown="handleReset()"/>
                <g id="arrowUp" xlink:href="#dirArrow" transform="translate(30 24)" onmousedown="handlePan(0,-1)">
                  <use xlink:href="#rim" fill="#404040">
                        <set attributeName="fill" to="#808080" begin="arrowUp.mouseover" end="arrowUp.mouseout"/>
                  </use>
                  <path fill="none" stroke="white" stroke-width="1.5" d="M0,-3.0v7 M-2.5,-0.5L0,-3.0L2.5,-0.5"/>
                </g>
                <g id="arrowRight" xlink:href="#dirArrow" transform="rotate(90) translate(36 -43)" onmousedown="handlePan(1,0)">
                  <use xlink:href="#rim" fill="#404040">
                        <set attributeName="fill" to="#808080" begin="arrowRight.mouseover" end="arrowRight.mouseout"/>
                  </use>
                  <path fill="none" stroke="white" stroke-width="1.5" d="M0,-3.0v7 M-2.5,-0.5L0,-3.0L2.5,-0.5"/>
                </g>
                <g id="arrowDown" xlink:href="#dirArrow" transform="rotate(180) translate(-30 -48)" onmousedown="handlePan(0,1)">
                  <use xlink:href="#rim" fill="#404040">
                        <set attributeName="fill" to="#808080" begin="arrowDown.mouseover" end="arrowDown.mouseout"/>
                  </use>
                  <path fill="none" stroke="white" stroke-width="1.5" d="M0,-3.0v7 M-2.5,-0.5L0,-3.0L2.5,-0.5"/>
                </g>
                <g id="arrowLeft" xlink:href="#dirArrow" transform="rotate(270) translate(-36 17)" onmousedown="handlePan(-1,0)">
                  <use xlink:href="#rim" fill="#404040">
                        <set attributeName="fill" to="#808080" begin="arrowLeft.mouseover" end="arrowLeft.mouseout"/>
                  </use>
                  <path fill="none" stroke="white" stroke-width="1.5" d="M0,-3.0v7 M-2.5,-0.5L0,-3.0L2.5,-0.5"/>
                </g>
        </g>
        <svg viewBox="0 0 15 15" width="100%" height="30px" preserveAspectRatio="xMaxYMin meet">
         <g id="arrow_out" transform="scale(0.3 0.3)">
          <a xlink:href="classCUser_aaa97b7e7cd44d46d703ca0abe79898c1_icgraph_org.svg" target="_base">
           <rect id="button" ry="5" rx="5" y="6" x="6" height="38" width="38"
                fill="#f2f5e9" fill-opacity="0.5" stroke="#606060" stroke-width="1.0"/>
           <path id="arrow"
             d="M 11.500037,31.436501 C 11.940474,20.09759 22.043105,11.32322 32.158766,21.979434 L 37.068811,17.246167 C 37.068811,17.246167 37.088388,32 37.088388,32 L 22.160133,31.978069 C 22.160133,31.978069 26.997745,27.140456 26.997745,27.140456 C 18.528582,18.264221 13.291696,25.230495 11.500037,31.436501 z"
             style="fill:#404040;"/>
          </a>
         </g>
        </svg>
</svg>
