<?xml version="1.0" encoding="UTF-8" standalone="no"?>
<!DOCTYPE svg PUBLIC "-//W3C//DTD SVG 1.1//EN"
 "http://www.w3.org/Graphics/SVG/1.1/DTD/svg11.dtd">
<!-- Generated by graphviz version 2.40.1 (20161225.0304)
 -->
<!-- Title: CUser::setMStrEmail Pages: 1 -->
<svg width="688pt" height="117pt"
 viewBox="0.00 0.00 688.00 116.81" xmlns="http://www.w3.org/2000/svg" xmlns:xlink="http://www.w3.org/1999/xlink">
<g id="graph0" class="graph" transform="scale(1 1) rotate(0) translate(4 112.8055)">
<title>CUser::setMStrEmail</title>
<!-- Node1 -->
<g id="node1" class="node">
<title>Node1</title>
<g id="a_node1"><a xlink:title=" ">
<polygon fill="#bfbfbf" stroke="#000000" points="552,-39.5 552,-60.5 680,-60.5 680,-39.5 552,-39.5"/>
<text text-anchor="middle" x="616" y="-46.9" font-family="Helvetica,sans-Serif" font-size="12.00" fill="#000000">CUser::setMStrEmail</text>
</a>
</g>
</g>
<!-- Node2 -->
<g id="node2" class="node">
<title>Node2</title>
<g id="a_node2"><a xlink:href="../../da/d8b/classCAdministrator.html#a834db63b1ee3b716b1e8e97a101e51de" target="_top" xlink:title="Method with while loop, switch expression and fstream library to register the administrator and can g...">
<polygon fill="none" stroke="#000000" points="79,-39.5 79,-60.5 315,-60.5 315,-39.5 79,-39.5"/>
<text text-anchor="middle" x="197" y="-46.9" font-family="Helvetica,sans-Serif" font-size="12.00" fill="#000000">CAdministrator::createAdministratorMenu</text>
</a>
</g>
</g>
<!-- Node1&#45;&gt;Node2 -->
<g id="edge1" class="edge">
<title>Node1&#45;&gt;Node2</title>
<path fill="none" stroke="#191970" d="M541.6904,-50C478.8956,-50 387.8163,-50 315.0502,-50"/>
<polygon fill="#191970" stroke="#191970" points="541.9069,-53.5001 551.9068,-50 541.9068,-46.5001 541.9069,-53.5001"/>
</g>
<!-- Node4 -->
<g id="node4" class="node">
<title>Node4</title>
<g id="a_node4"><a xlink:href="../../db/da6/classCBroker.html#abce158f7c4dce747c076db9e7d1cdf52" target="_top" xlink:title="This function create Broker menu through this you can register, change info about Broker.">
<polygon fill="none" stroke="#000000" points="351,-78.5 351,-99.5 516,-99.5 516,-78.5 351,-78.5"/>
<text text-anchor="middle" x="433.5" y="-85.9" font-family="Helvetica,sans-Serif" font-size="12.00" fill="#000000">CBroker::createBrokerMenu</text>
</a>
</g>
</g>
<!-- Node1&#45;&gt;Node4 -->
<g id="edge4" class="edge">
<title>Node1&#45;&gt;Node4</title>
<path fill="none" stroke="#191970" d="M556.6265,-62.688C532.7987,-67.78 505.6541,-73.5808 482.9266,-78.4376"/>
<polygon fill="#191970" stroke="#191970" points="557.5651,-66.0666 566.6129,-60.554 556.1022,-59.2211 557.5651,-66.0666"/>
</g>
<!-- Node5 -->
<g id="node5" class="node">
<title>Node5</title>
<g id="a_node5"><a xlink:href="../../df/da7/classCClient.html#a1cb513868f3ae0f1130528cdaeb3fb26" target="_top" xlink:title="Method create Client menu through which you can set and get data for Client.">
<polygon fill="none" stroke="#000000" points="354.5,-.5 354.5,-21.5 512.5,-21.5 512.5,-.5 354.5,-.5"/>
<text text-anchor="middle" x="433.5" y="-7.9" font-family="Helvetica,sans-Serif" font-size="12.00" fill="#000000">CClient::createClientMenu</text>
</a>
</g>
</g>
<!-- Node1&#45;&gt;Node5 -->
<g id="edge7" class="edge">
<title>Node1&#45;&gt;Node5</title>
<path fill="none" stroke="#191970" d="M556.6265,-37.312C532.7987,-32.22 505.6541,-26.4192 482.9266,-21.5624"/>
<polygon fill="#191970" stroke="#191970" points="556.1022,-40.7789 566.6129,-39.446 557.5651,-33.9334 556.1022,-40.7789"/>
</g>
<!-- Node2&#45;&gt;Node2 -->
<g id="edge2" class="edge">
<title>Node2&#45;&gt;Node2</title>
<path fill="none" stroke="#191970" d="M229.3758,-69.6791C227.6409,-74.9746 216.849,-79 197,-79 166.7539,-79 157.5383,-69.6531 169.3532,-60.7079"/>
<polygon fill="#191970" stroke="#191970" points="232.4061,-67.922 224.6468,-60.7079 226.2138,-71.1862 232.4061,-67.922"/>
</g>
<!-- Node3 -->
<g id="node3" class="node">
<title>Node3</title>
<g id="a_node3"><a xlink:href="../../df/d0a/main_8cpp.html#ae66f6b31b5ad750f1fe042a706a4e3d4" target="_top" xlink:title=" ">
<polygon fill="none" stroke="#000000" points="0,-39.5 0,-60.5 43,-60.5 43,-39.5 0,-39.5"/>
<text text-anchor="middle" x="21.5" y="-46.9" font-family="Helvetica,sans-Serif" font-size="12.00" fill="#000000">main</text>
</a>
</g>
</g>
<!-- Node2&#45;&gt;Node3 -->
<g id="edge3" class="edge">
<title>Node2&#45;&gt;Node3</title>
<path fill="none" stroke="#191970" d="M68.7546,-50C59.2156,-50 50.4943,-50 43.2123,-50"/>
<polygon fill="#191970" stroke="#191970" points="68.9653,-53.5001 78.9653,-50 68.9652,-46.5001 68.9653,-53.5001"/>
</g>
<!-- Node4&#45;&gt;Node2 -->
<g id="edge5" class="edge">
<title>Node4&#45;&gt;Node2</title>
<path fill="none" stroke="#191970" d="M359.7074,-76.8312C328.0039,-71.6032 291.3104,-65.5522 260.8025,-60.5213"/>
<polygon fill="#191970" stroke="#191970" points="359.375,-80.3236 369.8112,-78.4974 360.514,-73.4169 359.375,-80.3236"/>
</g>
<!-- Node4&#45;&gt;Node3 -->
<g id="edge6" class="edge">
<title>Node4&#45;&gt;Node3</title>
<path fill="none" stroke="#191970" d="M360.0863,-100.8238C287.1114,-109.8115 172.8281,-116.3473 79,-88 61.3604,-82.6707 44.1355,-70.0019 33.2097,-60.7525"/>
<polygon fill="#191970" stroke="#191970" points="360.6276,-104.2831 370.1028,-99.5427 359.7395,-97.3397 360.6276,-104.2831"/>
</g>
<!-- Node5&#45;&gt;Node2 -->
<g id="edge8" class="edge">
<title>Node5&#45;&gt;Node2</title>
<path fill="none" stroke="#191970" d="M359.7074,-23.1688C328.0039,-28.3968 291.3104,-34.4478 260.8025,-39.4787"/>
<polygon fill="#191970" stroke="#191970" points="360.514,-26.5831 369.8112,-21.5026 359.375,-19.6764 360.514,-26.5831"/>
</g>
<!-- Node5&#45;&gt;Node3 -->
<g id="edge9" class="edge">
<title>Node5&#45;&gt;Node3</title>
<path fill="none" stroke="#191970" d="M343.8042,-8.894C271.619,-8.8496 167.911,-12.5185 79,-30 66.8663,-32.3857 53.8131,-36.7683 43.2153,-40.8241"/>
<polygon fill="#191970" stroke="#191970" points="344.2094,-12.3951 354.2203,-8.9262 344.2312,-5.3952 344.2094,-12.3951"/>
</g>
</g>
</svg>
