<?xml version="1.0" encoding="UTF-8" standalone="no"?>
<!DOCTYPE svg PUBLIC "-//W3C//DTD SVG 1.1//EN"
 "http://www.w3.org/Graphics/SVG/1.1/DTD/svg11.dtd">
<!-- Generated by graphviz version 2.40.1 (20161225.0304)
 -->
<!-- Title: CUser::getMStrAddress Pages: 1 -->
<svg width="703pt" height="95pt"
 viewBox="0.00 0.00 703.00 94.65" xmlns="http://www.w3.org/2000/svg" xmlns:xlink="http://www.w3.org/1999/xlink">
<g id="graph0" class="graph" transform="scale(1 1) rotate(0) translate(4 90.6464)">
<title>CUser::getMStrAddress</title>
<!-- Node1 -->
<g id="node1" class="node">
<title>Node1</title>
<g id="a_node1"><a xlink:title=" ">
<polygon fill="#bfbfbf" stroke="#000000" points="552,-21.734 552,-42.734 695,-42.734 695,-21.734 552,-21.734"/>
<text text-anchor="middle" x="623.5" y="-29.134" font-family="Helvetica,sans-Serif" font-size="12.00" fill="#000000">CUser::getMStrAddress</text>
</a>
</g>
</g>
<!-- Node2 -->
<g id="node2" class="node">
<title>Node2</title>
<g id="a_node2"><a xlink:href="../../db/da6/classCBroker.html#abce158f7c4dce747c076db9e7d1cdf52" target="_top" xlink:title="This function create Broker menu through this you can register, change info about Broker.">
<polygon fill="none" stroke="#000000" points="351,-41.734 351,-62.734 516,-62.734 516,-41.734 351,-41.734"/>
<text text-anchor="middle" x="433.5" y="-49.134" font-family="Helvetica,sans-Serif" font-size="12.00" fill="#000000">CBroker::createBrokerMenu</text>
</a>
</g>
</g>
<!-- Node1&#45;&gt;Node2 -->
<g id="edge1" class="edge">
<title>Node1&#45;&gt;Node2</title>
<path fill="none" stroke="#191970" d="M541.9853,-40.8145C533.4327,-41.7147 524.7313,-42.6307 516.1659,-43.5323"/>
<polygon fill="#191970" stroke="#191970" points="542.3613,-44.2943 551.9399,-39.7666 541.6284,-37.3328 542.3613,-44.2943"/>
</g>
<!-- Node5 -->
<g id="node5" class="node">
<title>Node5</title>
<g id="a_node5"><a xlink:href="../../df/da7/classCClient.html#a1cb513868f3ae0f1130528cdaeb3fb26" target="_top" xlink:title="Method create Client menu through which you can set and get data for Client.">
<polygon fill="none" stroke="#000000" points="354.5,-1.734 354.5,-22.734 512.5,-22.734 512.5,-1.734 354.5,-1.734"/>
<text text-anchor="middle" x="433.5" y="-9.134" font-family="Helvetica,sans-Serif" font-size="12.00" fill="#000000">CClient::createClientMenu</text>
</a>
</g>
</g>
<!-- Node1&#45;&gt;Node5 -->
<g id="edge6" class="edge">
<title>Node1&#45;&gt;Node5</title>
<path fill="none" stroke="#191970" d="M541.9099,-23.6455C532.2023,-22.6237 522.3039,-21.5818 512.6315,-20.5636"/>
<polygon fill="#191970" stroke="#191970" points="541.6284,-27.1352 551.9399,-24.7013 542.3613,-20.1736 541.6284,-27.1352"/>
</g>
<!-- Node3 -->
<g id="node3" class="node">
<title>Node3</title>
<g id="a_node3"><a xlink:href="../../da/d8b/classCAdministrator.html#a834db63b1ee3b716b1e8e97a101e51de" target="_top" xlink:title="Method with while loop, switch expression and fstream library to register the administrator and can g...">
<polygon fill="none" stroke="#000000" points="79,-21.734 79,-42.734 315,-42.734 315,-21.734 79,-21.734"/>
<text text-anchor="middle" x="197" y="-29.134" font-family="Helvetica,sans-Serif" font-size="12.00" fill="#000000">CAdministrator::createAdministratorMenu</text>
</a>
</g>
</g>
<!-- Node2&#45;&gt;Node3 -->
<g id="edge2" class="edge">
<title>Node2&#45;&gt;Node3</title>
<path fill="none" stroke="#191970" d="M340.6206,-44.3795C332.2056,-43.6678 323.6106,-42.941 315.0172,-42.2143"/>
<polygon fill="#191970" stroke="#191970" points="340.5244,-47.8837 350.7838,-45.2389 341.1143,-40.9086 340.5244,-47.8837"/>
</g>
<!-- Node4 -->
<g id="node4" class="node">
<title>Node4</title>
<g id="a_node4"><a xlink:href="../../df/d0a/main_8cpp.html#ae66f6b31b5ad750f1fe042a706a4e3d4" target="_top" xlink:title=" ">
<polygon fill="none" stroke="#000000" points="0,-21.734 0,-42.734 43,-42.734 43,-21.734 0,-21.734"/>
<text text-anchor="middle" x="21.5" y="-29.134" font-family="Helvetica,sans-Serif" font-size="12.00" fill="#000000">main</text>
</a>
</g>
</g>
<!-- Node2&#45;&gt;Node4 -->
<g id="edge5" class="edge">
<title>Node2&#45;&gt;Node4</title>
<path fill="none" stroke="#191970" d="M384.0768,-65.0237C314.3946,-80.774 184.0463,-101.8088 79,-70.234 61.3529,-64.9296 44.1295,-52.2557 33.2061,-42.9983"/>
<polygon fill="#191970" stroke="#191970" points="384.9559,-68.4128 393.9073,-62.7451 383.3752,-61.5936 384.9559,-68.4128"/>
</g>
<!-- Node3&#45;&gt;Node3 -->
<g id="edge3" class="edge">
<title>Node3&#45;&gt;Node3</title>
<path fill="none" stroke="#191970" d="M229.3758,-51.913C227.6409,-57.2086 216.849,-61.234 197,-61.234 166.7539,-61.234 157.5383,-51.8871 169.3532,-42.9418"/>
<polygon fill="#191970" stroke="#191970" points="232.4061,-50.156 224.6468,-42.9418 226.2138,-53.4202 232.4061,-50.156"/>
</g>
<!-- Node3&#45;&gt;Node4 -->
<g id="edge4" class="edge">
<title>Node3&#45;&gt;Node4</title>
<path fill="none" stroke="#191970" d="M68.7546,-32.234C59.2156,-32.234 50.4943,-32.234 43.2123,-32.234"/>
<polygon fill="#191970" stroke="#191970" points="68.9653,-35.7341 78.9653,-32.234 68.9652,-28.7341 68.9653,-35.7341"/>
</g>
<!-- Node5&#45;&gt;Node3 -->
<g id="edge7" class="edge">
<title>Node5&#45;&gt;Node3</title>
<path fill="none" stroke="#191970" d="M344.2321,-19.7831C334.7354,-20.5862 324.9729,-21.4117 315.2108,-22.2373"/>
<polygon fill="#191970" stroke="#191970" points="344.7506,-23.2518 354.4201,-18.9215 344.1607,-16.2767 344.7506,-23.2518"/>
</g>
<!-- Node5&#45;&gt;Node4 -->
<g id="edge8" class="edge">
<title>Node5&#45;&gt;Node4</title>
<path fill="none" stroke="#191970" d="M343.9717,-4.0389C271.8813,.5997 168.219,2.8395 79,-12.234 66.8068,-14.294 53.7484,-18.6486 43.1627,-22.7701"/>
<polygon fill="#191970" stroke="#191970" points="344.161,-7.5595 354.3734,-4.7389 344.631,-.5753 344.161,-7.5595"/>
</g>
</g>
</svg>
