<?xml version="1.0" encoding="UTF-8" standalone="no"?>
<!DOCTYPE svg PUBLIC "-//W3C//DTD SVG 1.1//EN"
 "http://www.w3.org/Graphics/SVG/1.1/DTD/svg11.dtd">
<!-- Generated by graphviz version 2.40.1 (20161225.0304)
 -->
<!-- Title: CUser::getMStrUsername Pages: 1 -->
<svg width="446pt" height="104pt"
 viewBox="0.00 0.00 446.00 104.00" xmlns="http://www.w3.org/2000/svg" xmlns:xlink="http://www.w3.org/1999/xlink">
<g id="graph0" class="graph" transform="scale(1 1) rotate(0) translate(4 100)">
<title>CUser::getMStrUsername</title>
<!-- Node1 -->
<g id="node1" class="node">
<title>Node1</title>
<g id="a_node1"><a xlink:title=" ">
<polygon fill="#bfbfbf" stroke="#000000" points="307,-38.5 307,-57.5 438,-57.5 438,-38.5 307,-38.5"/>
<text text-anchor="middle" x="372.5" y="-45.5" font-family="Helvetica,sans-Serif" font-size="10.00" fill="#000000">CUser::getMStrUsername</text>
</a>
</g>
</g>
<!-- Node2 -->
<g id="node2" class="node">
<title>Node2</title>
<g id="a_node2"><a xlink:href="../../da/d8b/classCAdministrator.html#a834db63b1ee3b716b1e8e97a101e51de" target="_top" xlink:title=" ">
<polygon fill="none" stroke="#000000" points="74,-76.5 74,-95.5 271,-95.5 271,-76.5 74,-76.5"/>
<text text-anchor="middle" x="172.5" y="-83.5" font-family="Helvetica,sans-Serif" font-size="10.00" fill="#000000">CAdministrator::createAdministratorMenu</text>
</a>
</g>
</g>
<!-- Node1&#45;&gt;Node2 -->
<g id="edge1" class="edge">
<title>Node1&#45;&gt;Node2</title>
<path fill="none" stroke="#191970" d="M312.4046,-59.4181C283.7882,-64.8552 249.9566,-71.2832 222.7309,-76.4561"/>
<polygon fill="#191970" stroke="#191970" points="313.1188,-62.8451 322.2897,-57.54 311.8121,-55.9682 313.1188,-62.8451"/>
</g>
<!-- Node4 -->
<g id="node4" class="node">
<title>Node4</title>
<g id="a_node4"><a xlink:href="../../db/da6/classCBroker.html#abce158f7c4dce747c076db9e7d1cdf52" target="_top" xlink:title=" ">
<polygon fill="none" stroke="#000000" points="103.5,-38.5 103.5,-57.5 241.5,-57.5 241.5,-38.5 103.5,-38.5"/>
<text text-anchor="middle" x="172.5" y="-45.5" font-family="Helvetica,sans-Serif" font-size="10.00" fill="#000000">CBroker::createBrokerMenu</text>
</a>
</g>
</g>
<!-- Node1&#45;&gt;Node4 -->
<g id="edge3" class="edge">
<title>Node1&#45;&gt;Node4</title>
<path fill="none" stroke="#191970" d="M296.569,-48C278.5564,-48 259.436,-48 241.7395,-48"/>
<polygon fill="#191970" stroke="#191970" points="296.7355,-51.5001 306.7355,-48 296.7355,-44.5001 296.7355,-51.5001"/>
</g>
<!-- Node5 -->
<g id="node5" class="node">
<title>Node5</title>
<g id="a_node5"><a xlink:href="../../df/da7/classCClient.html#a1cb513868f3ae0f1130528cdaeb3fb26" target="_top" xlink:title=" ">
<polygon fill="none" stroke="#000000" points="106.5,-.5 106.5,-19.5 238.5,-19.5 238.5,-.5 106.5,-.5"/>
<text text-anchor="middle" x="172.5" y="-7.5" font-family="Helvetica,sans-Serif" font-size="10.00" fill="#000000">CClient::createClientMenu</text>
</a>
</g>
</g>
<!-- Node1&#45;&gt;Node5 -->
<g id="edge5" class="edge">
<title>Node1&#45;&gt;Node5</title>
<path fill="none" stroke="#191970" d="M312.4046,-36.5819C283.7882,-31.1448 249.9566,-24.7168 222.7309,-19.5439"/>
<polygon fill="#191970" stroke="#191970" points="311.8121,-40.0318 322.2897,-38.46 313.1188,-33.1549 311.8121,-40.0318"/>
</g>
<!-- Node3 -->
<g id="node3" class="node">
<title>Node3</title>
<g id="a_node3"><a xlink:href="../../df/d0a/main_8cpp.html#ae66f6b31b5ad750f1fe042a706a4e3d4" target="_top" xlink:title=" ">
<polygon fill="none" stroke="#000000" points="0,-38.5 0,-57.5 38,-57.5 38,-38.5 0,-38.5"/>
<text text-anchor="middle" x="19" y="-45.5" font-family="Helvetica,sans-Serif" font-size="10.00" fill="#000000">main</text>
</a>
</g>
</g>
<!-- Node2&#45;&gt;Node3 -->
<g id="edge2" class="edge">
<title>Node2&#45;&gt;Node3</title>
<path fill="none" stroke="#191970" d="M105.5771,-74.4214C94.9557,-72.2021 84.1355,-69.7135 74,-67 61.8993,-63.7604 48.6171,-59.2014 38.137,-55.3612"/>
<polygon fill="#191970" stroke="#191970" points="105.1749,-77.9109 115.6706,-76.4652 106.5642,-71.0501 105.1749,-77.9109"/>
</g>
<!-- Node4&#45;&gt;Node3 -->
<g id="edge4" class="edge">
<title>Node4&#45;&gt;Node3</title>
<path fill="none" stroke="#191970" d="M93.2795,-48C72.6824,-48 52.3229,-48 38.1426,-48"/>
<polygon fill="#191970" stroke="#191970" points="93.3838,-51.5001 103.3838,-48 93.3837,-44.5001 93.3838,-51.5001"/>
</g>
<!-- Node5&#45;&gt;Node3 -->
<g id="edge6" class="edge">
<title>Node5&#45;&gt;Node3</title>
<path fill="none" stroke="#191970" d="M105.5771,-21.5786C94.9557,-23.7979 84.1355,-26.2865 74,-29 61.8993,-32.2396 48.6171,-36.7986 38.137,-40.6388"/>
<polygon fill="#191970" stroke="#191970" points="106.5642,-24.9499 115.6706,-19.5348 105.1749,-18.0891 106.5642,-24.9499"/>
</g>
</g>
</svg>
