<?xml version="1.0" encoding="UTF-8" standalone="no"?>
<!DOCTYPE svg PUBLIC "-//W3C//DTD SVG 1.1//EN"
 "http://www.w3.org/Graphics/SVG/1.1/DTD/svg11.dtd">
<!-- Generated by graphviz version 2.40.1 (20161225.0304)
 -->
<!-- Title: CUser::setMStrPassword Pages: 1 -->
<!--zoomable 117 -->
<svg id="main" version="1.1" xmlns="http://www.w3.org/2000/svg" xmlns:xlink="http://www.w3.org/1999/xlink" xml:space="preserve" onload="init(evt)">
<style type="text/css"><![CDATA[
.edge:hover path { stroke: red; }
.edge:hover polygon { stroke: red; fill: red; }
]]></style>
<script type="text/javascript"><![CDATA[
var edges = document.getElementsByTagName('g');
if (edges && edges.length) {
  for (var i=0;i<edges.length;i++) {
    if (edges[i].id.substr(0,4)=='edge') {
      edges[i].setAttribute('class','edge');
    }
  }
}
]]></script>
        <defs>
                <circle id="rim" cx="0" cy="0" r="7"/>
                <circle id="rim2" cx="0" cy="0" r="3.5"/>
                <g id="zoomPlus">
                        <use xlink:href="#rim" fill="#404040">
                                <set attributeName="fill" to="#808080" begin="zoomplus.mouseover" end="zoomplus.mouseout"/>
                        </use>
                        <path d="M-4,0h8M0,-4v8" fill="none" stroke="white" stroke-width="1.5" pointer-events="none"/>
                </g>
                <g id="zoomMin">
                        <use xlink:href="#rim" fill="#404040">
                                <set attributeName="fill" to="#808080" begin="zoomminus.mouseover" end="zoomminus.mouseout"/>
                        </use>
                        <path d="M-4,0h8" fill="none" stroke="white" stroke-width="1.5" pointer-events="none"/>
                </g>
                <g id="dirArrow">
                        <path fill="none" stroke="white" stroke-width="1.5" d="M0,-3.0v7 M-2.5,-0.5L0,-3.0L2.5,-0.5"/>
                </g>
               <g id="resetDef">
                       <use xlink:href="#rim2" fill="#404040">
                               <set attributeName="fill" to="#808080" begin="reset.mouseover" end="reset.mouseout"/>
                       </use>
               </g>
        </defs>

<script type="text/javascript">
var viewWidth = 711;
var viewHeight = 117;
var sectionId = 'dynsection-10';
</script>
<script xlink:href="../../svgpan.js"/>
<svg id="graph" class="graph">
<g id="viewport">
<title>CUser::setMStrPassword</title>
<!-- Node1 -->
<g id="node1" class="node">
<title>Node1</title>
<g id="a_node1"><a xlink:title=" ">
<polygon fill="#bfbfbf" stroke="#000000" points="552,-39.5 552,-60.5 703,-60.5 703,-39.5 552,-39.5"/>
<text text-anchor="middle" x="627.5" y="-46.9" font-family="Helvetica,sans-Serif" font-size="12.00" fill="#000000">CUser::setMStrPassword</text>
</a>
</g>
</g>
<!-- Node2 -->
<g id="node2" class="node">
<title>Node2</title>
<g id="a_node2"><a xlink:href="../../da/d8b/classCAdministrator.html#a834db63b1ee3b716b1e8e97a101e51de" target="_top" xlink:title="Method with while loop, switch expression and fstream library to register the administrator and can g...">
<polygon fill="none" stroke="#000000" points="79,-39.5 79,-60.5 315,-60.5 315,-39.5 79,-39.5"/>
<text text-anchor="middle" x="197" y="-46.9" font-family="Helvetica,sans-Serif" font-size="12.00" fill="#000000">CAdministrator::createAdministratorMenu</text>
</a>
</g>
</g>
<!-- Node1&#45;&gt;Node2 -->
<g id="edge1" class="edge">
<title>Node1&#45;&gt;Node2</title>
<path fill="none" stroke="#191970" d="M541.3346,-50C476.4651,-50 386.793,-50 315.221,-50"/>
<polygon fill="#191970" stroke="#191970" points="541.5262,-53.5001 551.5262,-50 541.5262,-46.5001 541.5262,-53.5001"/>
</g>
<!-- Node4 -->
<g id="node4" class="node">
<title>Node4</title>
<g id="a_node4"><a xlink:href="../../db/da6/classCBroker.html#abce158f7c4dce747c076db9e7d1cdf52" target="_top" xlink:title="This function create Broker menu through this you can register, change info about Broker.">
<polygon fill="none" stroke="#000000" points="351,-78.5 351,-99.5 516,-99.5 516,-78.5 351,-78.5"/>
<text text-anchor="middle" x="433.5" y="-85.9" font-family="Helvetica,sans-Serif" font-size="12.00" fill="#000000">CBroker::createBrokerMenu</text>
</a>
</g>
</g>
<!-- Node1&#45;&gt;Node4 -->
<g id="edge4" class="edge">
<title>Node1&#45;&gt;Node4</title>
<path fill="none" stroke="#191970" d="M565.2738,-62.5094C539.6613,-67.6583 510.3208,-73.5566 485.8369,-78.4787"/>
<polygon fill="#191970" stroke="#191970" points="566.1423,-65.9049 575.2564,-60.5026 564.7627,-59.0422 566.1423,-65.9049"/>
</g>
<!-- Node5 -->
<g id="node5" class="node">
<title>Node5</title>
<g id="a_node5"><a xlink:href="../../df/da7/classCClient.html#a1cb513868f3ae0f1130528cdaeb3fb26" target="_top" xlink:title="Method create Client menu through which you can set and get data for Client.">
<polygon fill="none" stroke="#000000" points="354.5,-.5 354.5,-21.5 512.5,-21.5 512.5,-.5 354.5,-.5"/>
<text text-anchor="middle" x="433.5" y="-7.9" font-family="Helvetica,sans-Serif" font-size="12.00" fill="#000000">CClient::createClientMenu</text>
</a>
</g>
</g>
<!-- Node1&#45;&gt;Node5 -->
<g id="edge7" class="edge">
<title>Node1&#45;&gt;Node5</title>
<path fill="none" stroke="#191970" d="M565.2738,-37.4906C539.6613,-32.3417 510.3208,-26.4434 485.8369,-21.5213"/>
<polygon fill="#191970" stroke="#191970" points="564.7627,-40.9578 575.2564,-39.4974 566.1423,-34.0951 564.7627,-40.9578"/>
</g>
<!-- Node2&#45;&gt;Node2 -->
<g id="edge2" class="edge">
<title>Node2&#45;&gt;Node2</title>
<path fill="none" stroke="#191970" d="M229.3758,-69.6791C227.6409,-74.9746 216.849,-79 197,-79 166.7539,-79 157.5383,-69.6531 169.3532,-60.7079"/>
<polygon fill="#191970" stroke="#191970" points="232.4061,-67.922 224.6468,-60.7079 226.2138,-71.1862 232.4061,-67.922"/>
</g>
<!-- Node3 -->
<g id="node3" class="node">
<title>Node3</title>
<g id="a_node3"><a xlink:href="../../df/d0a/main_8cpp.html#ae66f6b31b5ad750f1fe042a706a4e3d4" target="_top" xlink:title=" ">
<polygon fill="none" stroke="#000000" points="0,-39.5 0,-60.5 43,-60.5 43,-39.5 0,-39.5"/>
<text text-anchor="middle" x="21.5" y="-46.9" font-family="Helvetica,sans-Serif" font-size="12.00" fill="#000000">main</text>
</a>
</g>
</g>
<!-- Node2&#45;&gt;Node3 -->
<g id="edge3" class="edge">
<title>Node2&#45;&gt;Node3</title>
<path fill="none" stroke="#191970" d="M68.7546,-50C59.2156,-50 50.4943,-50 43.2123,-50"/>
<polygon fill="#191970" stroke="#191970" points="68.9653,-53.5001 78.9653,-50 68.9652,-46.5001 68.9653,-53.5001"/>
</g>
<!-- Node4&#45;&gt;Node2 -->
<g id="edge5" class="edge">
<title>Node4&#45;&gt;Node2</title>
<path fill="none" stroke="#191970" d="M359.7074,-76.8312C328.0039,-71.6032 291.3104,-65.5522 260.8025,-60.5213"/>
<polygon fill="#191970" stroke="#191970" points="359.375,-80.3236 369.8112,-78.4974 360.514,-73.4169 359.375,-80.3236"/>
</g>
<!-- Node4&#45;&gt;Node3 -->
<g id="edge6" class="edge">
<title>Node4&#45;&gt;Node3</title>
<path fill="none" stroke="#191970" d="M360.0863,-100.8238C287.1114,-109.8115 172.8281,-116.3473 79,-88 61.3604,-82.6707 44.1355,-70.0019 33.2097,-60.7525"/>
<polygon fill="#191970" stroke="#191970" points="360.6276,-104.2831 370.1028,-99.5427 359.7395,-97.3397 360.6276,-104.2831"/>
</g>
<!-- Node5&#45;&gt;Node2 -->
<g id="edge8" class="edge">
<title>Node5&#45;&gt;Node2</title>
<path fill="none" stroke="#191970" d="M359.7074,-23.1688C328.0039,-28.3968 291.3104,-34.4478 260.8025,-39.4787"/>
<polygon fill="#191970" stroke="#191970" points="360.514,-26.5831 369.8112,-21.5026 359.375,-19.6764 360.514,-26.5831"/>
</g>
<!-- Node5&#45;&gt;Node3 -->
<g id="edge9" class="edge">
<title>Node5&#45;&gt;Node3</title>
<path fill="none" stroke="#191970" d="M343.8042,-8.894C271.619,-8.8496 167.911,-12.5185 79,-30 66.8663,-32.3857 53.8131,-36.7683 43.2153,-40.8241"/>
<polygon fill="#191970" stroke="#191970" points="344.2094,-12.3951 354.2203,-8.9262 344.2312,-5.3952 344.2094,-12.3951"/>
</g>
</g>
</svg>
        <g id="navigator" transform="translate(0 0)" fill="#404254">
                <rect fill="#f2f5e9" fill-opacity="0.5" stroke="#606060" stroke-width=".5" x="0" y="0" width="60" height="60"/>
                <use id="zoomplus" xlink:href="#zoomPlus" x="17" y="9" onmousedown="handleZoom(evt,'in')"/>
                <use id="zoomminus" xlink:href="#zoomMin" x="42" y="9" onmousedown="handleZoom(evt,'out')"/>
                <use id="reset" xlink:href="#resetDef" x="30" y="36" onmousedown="handleReset()"/>
                <g id="arrowUp" xlink:href="#dirArrow" transform="translate(30 24)" onmousedown="handlePan(0,-1)">
                  <use xlink:href="#rim" fill="#404040">
                        <set attributeName="fill" to="#808080" begin="arrowUp.mouseover" end="arrowUp.mouseout"/>
                  </use>
                  <path fill="none" stroke="white" stroke-width="1.5" d="M0,-3.0v7 M-2.5,-0.5L0,-3.0L2.5,-0.5"/>
                </g>
                <g id="arrowRight" xlink:href="#dirArrow" transform="rotate(90) translate(36 -43)" onmousedown="handlePan(1,0)">
                  <use xlink:href="#rim" fill="#404040">
                        <set attributeName="fill" to="#808080" begin="arrowRight.mouseover" end="arrowRight.mouseout"/>
                  </use>
                  <path fill="none" stroke="white" stroke-width="1.5" d="M0,-3.0v7 M-2.5,-0.5L0,-3.0L2.5,-0.5"/>
                </g>
                <g id="arrowDown" xlink:href="#dirArrow" transform="rotate(180) translate(-30 -48)" onmousedown="handlePan(0,1)">
                  <use xlink:href="#rim" fill="#404040">
                        <set attributeName="fill" to="#808080" begin="arrowDown.mouseover" end="arrowDown.mouseout"/>
                  </use>
                  <path fill="none" stroke="white" stroke-width="1.5" d="M0,-3.0v7 M-2.5,-0.5L0,-3.0L2.5,-0.5"/>
                </g>
                <g id="arrowLeft" xlink:href="#dirArrow" transform="rotate(270) translate(-36 17)" onmousedown="handlePan(-1,0)">
                  <use xlink:href="#rim" fill="#404040">
                        <set attributeName="fill" to="#808080" begin="arrowLeft.mouseover" end="arrowLeft.mouseout"/>
                  </use>
                  <path fill="none" stroke="white" stroke-width="1.5" d="M0,-3.0v7 M-2.5,-0.5L0,-3.0L2.5,-0.5"/>
                </g>
        </g>
        <svg viewBox="0 0 15 15" width="100%" height="30px" preserveAspectRatio="xMaxYMin meet">
         <g id="arrow_out" transform="scale(0.3 0.3)">
          <a xlink:href="classCUser_a084834c81eac4df94fab1b039be64432_icgraph_org.svg" target="_base">
           <rect id="button" ry="5" rx="5" y="6" x="6" height="38" width="38"
                fill="#f2f5e9" fill-opacity="0.5" stroke="#606060" stroke-width="1.0"/>
           <path id="arrow"
             d="M 11.500037,31.436501 C 11.940474,20.09759 22.043105,11.32322 32.158766,21.979434 L 37.068811,17.246167 C 37.068811,17.246167 37.088388,32 37.088388,32 L 22.160133,31.978069 C 22.160133,31.978069 26.997745,27.140456 26.997745,27.140456 C 18.528582,18.264221 13.291696,25.230495 11.500037,31.436501 z"
             style="fill:#404040;"/>
          </a>
         </g>
        </svg>
</svg>
