<?xml version="1.0" encoding="UTF-8" standalone="no"?>
<!DOCTYPE svg PUBLIC "-//W3C//DTD SVG 1.1//EN"
 "http://www.w3.org/Graphics/SVG/1.1/DTD/svg11.dtd">
<!-- Generated by graphviz version 2.40.1 (20161225.0304)
 -->
<!-- Title: headers/CMyHoldings.h Pages: 1 -->
<svg width="729pt" height="204pt"
 viewBox="0.00 0.00 728.50 204.00" xmlns="http://www.w3.org/2000/svg" xmlns:xlink="http://www.w3.org/1999/xlink">
<g id="graph0" class="graph" transform="scale(1 1) rotate(0) translate(4 200)">
<title>headers/CMyHoldings.h</title>
<!-- Node1 -->
<g id="node1" class="node">
<title>Node1</title>
<g id="a_node1"><a xlink:title=" ">
<polygon fill="#bfbfbf" stroke="#000000" points="346,-174.5 346,-195.5 492,-195.5 492,-174.5 346,-174.5"/>
<text text-anchor="middle" x="419" y="-181.9" font-family="Helvetica,sans-Serif" font-size="12.00" fill="#000000">headers/CMyHoldings.h</text>
</a>
</g>
</g>
<!-- Node2 -->
<g id="node2" class="node">
<title>Node2</title>
<g id="a_node2"><a xlink:href="../../dd/d2c/CClient_8h.html" target="_top" xlink:title=" ">
<polygon fill="none" stroke="#000000" points="271.5,-116.5 271.5,-137.5 384.5,-137.5 384.5,-116.5 271.5,-116.5"/>
<text text-anchor="middle" x="328" y="-123.9" font-family="Helvetica,sans-Serif" font-size="12.00" fill="#000000">headers/CClient.h</text>
</a>
</g>
</g>
<!-- Node1&#45;&gt;Node2 -->
<g id="edge1" class="edge">
<title>Node1&#45;&gt;Node2</title>
<path fill="none" stroke="#191970" d="M393.6165,-168.8215C377.9421,-158.8312 358.2799,-146.2993 344.585,-137.5707"/>
<polygon fill="#191970" stroke="#191970" points="391.9952,-171.9386 402.3092,-174.3619 395.7576,-166.0356 391.9952,-171.9386"/>
</g>
<!-- Node6 -->
<g id="node6" class="node">
<title>Node6</title>
<g id="a_node6"><a xlink:href="../../d1/dea/CPortfolio_8h.html" target="_top" xlink:title=" ">
<polygon fill="none" stroke="#000000" points="356,-58.5 356,-79.5 482,-79.5 482,-58.5 356,-58.5"/>
<text text-anchor="middle" x="419" y="-65.9" font-family="Helvetica,sans-Serif" font-size="12.00" fill="#000000">headers/CPortfolio.h</text>
</a>
</g>
</g>
<!-- Node1&#45;&gt;Node6 -->
<g id="edge12" class="edge">
<title>Node1&#45;&gt;Node6</title>
<path fill="none" stroke="#191970" d="M419,-164.1231C419,-139.2984 419,-98.8235 419,-79.6792"/>
<polygon fill="#191970" stroke="#191970" points="415.5001,-164.2949 419,-174.2949 422.5001,-164.295 415.5001,-164.2949"/>
</g>
<!-- Node8 -->
<g id="node8" class="node">
<title>Node8</title>
<g id="a_node8"><a xlink:href="../../d0/dce/CMyHoldings_8cpp.html" target="_top" xlink:title=" ">
<polygon fill="none" stroke="#000000" points="563.5,-.5 563.5,-21.5 720.5,-21.5 720.5,-.5 563.5,-.5"/>
<text text-anchor="middle" x="642" y="-7.9" font-family="Helvetica,sans-Serif" font-size="12.00" fill="#000000">sources/CMyHoldings.cpp</text>
</a>
</g>
</g>
<!-- Node1&#45;&gt;Node8 -->
<g id="edge13" class="edge">
<title>Node1&#45;&gt;Node8</title>
<path fill="none" stroke="#191970" d="M440.6485,-168.1084C486.1828,-132.5793 590.7544,-50.9853 628.2809,-21.7046"/>
<polygon fill="#191970" stroke="#191970" points="438.3449,-165.4664 432.614,-174.3774 442.6511,-170.9852 438.3449,-165.4664"/>
</g>
<!-- Node3 -->
<g id="node3" class="node">
<title>Node3</title>
<g id="a_node3"><a xlink:href="../../d6/d5c/CAdministrator_8h.html" target="_top" xlink:title=" ">
<polygon fill="none" stroke="#000000" points="110,-58.5 110,-79.5 262,-79.5 262,-58.5 110,-58.5"/>
<text text-anchor="middle" x="186" y="-65.9" font-family="Helvetica,sans-Serif" font-size="12.00" fill="#000000">headers/CAdministrator.h</text>
</a>
</g>
</g>
<!-- Node2&#45;&gt;Node3 -->
<g id="edge2" class="edge">
<title>Node2&#45;&gt;Node3</title>
<path fill="none" stroke="#191970" d="M292.7824,-112.6153C267.7453,-102.3889 234.6707,-88.8796 212.0037,-79.6212"/>
<polygon fill="#191970" stroke="#191970" points="291.7039,-115.9555 302.2849,-116.4966 294.3508,-109.4752 291.7039,-115.9555"/>
</g>
<!-- Node4 -->
<g id="node4" class="node">
<title>Node4</title>
<g id="a_node4"><a xlink:href="../../df/d0a/main_8cpp.html" target="_top" xlink:title=" ">
<polygon fill="none" stroke="#000000" points="182.5,-.5 182.5,-21.5 247.5,-21.5 247.5,-.5 182.5,-.5"/>
<text text-anchor="middle" x="215" y="-7.9" font-family="Helvetica,sans-Serif" font-size="12.00" fill="#000000">main.cpp</text>
</a>
</g>
</g>
<!-- Node2&#45;&gt;Node4 -->
<g id="edge10" class="edge">
<title>Node2&#45;&gt;Node4</title>
<path fill="none" stroke="#191970" d="M313.8869,-108.0832C302.8456,-93.7553 286.7697,-73.8931 271,-58 257.59,-44.4851 240.6688,-30.6718 228.955,-21.5498"/>
<polygon fill="#191970" stroke="#191970" points="311.2238,-110.3634 320.0632,-116.2042 316.7955,-106.1259 311.2238,-110.3634"/>
</g>
<!-- Node2&#45;&gt;Node6 -->
<g id="edge5" class="edge">
<title>Node2&#45;&gt;Node6</title>
<path fill="none" stroke="#191970" d="M353.3835,-110.8215C369.0579,-100.8312 388.7201,-88.2993 402.415,-79.5707"/>
<polygon fill="#191970" stroke="#191970" points="351.2424,-108.0356 344.6908,-116.3619 355.0048,-113.9386 351.2424,-108.0356"/>
</g>
<!-- Node7 -->
<g id="node7" class="node">
<title>Node7</title>
<g id="a_node7"><a xlink:href="../../d8/d8c/CClient_8cpp.html" target="_top" xlink:title=" ">
<polygon fill="none" stroke="#000000" points="265.5,-.5 265.5,-21.5 390.5,-21.5 390.5,-.5 265.5,-.5"/>
<text text-anchor="middle" x="328" y="-7.9" font-family="Helvetica,sans-Serif" font-size="12.00" fill="#000000">sources/CClient.cpp</text>
</a>
</g>
</g>
<!-- Node2&#45;&gt;Node7 -->
<g id="edge11" class="edge">
<title>Node2&#45;&gt;Node7</title>
<path fill="none" stroke="#191970" d="M328,-106.1231C328,-81.2984 328,-40.8235 328,-21.6792"/>
<polygon fill="#191970" stroke="#191970" points="324.5001,-106.2949 328,-116.2949 331.5001,-106.295 324.5001,-106.2949"/>
</g>
<!-- Node3&#45;&gt;Node4 -->
<g id="edge3" class="edge">
<title>Node3&#45;&gt;Node4</title>
<path fill="none" stroke="#191970" d="M195.8133,-49.3733C200.4659,-40.0682 205.8398,-29.3204 209.7147,-21.5707"/>
<polygon fill="#191970" stroke="#191970" points="192.6607,-47.8524 191.319,-58.3619 198.9217,-50.9829 192.6607,-47.8524"/>
</g>
<!-- Node5 -->
<g id="node5" class="node">
<title>Node5</title>
<g id="a_node5"><a xlink:href="../../d2/da4/CAdministrator_8cpp.html" target="_top" xlink:title=" ">
<polygon fill="none" stroke="#000000" points="0,-.5 0,-21.5 164,-21.5 164,-.5 0,-.5"/>
<text text-anchor="middle" x="82" y="-7.9" font-family="Helvetica,sans-Serif" font-size="12.00" fill="#000000">sources/CAdministrator.cpp</text>
</a>
</g>
</g>
<!-- Node3&#45;&gt;Node5 -->
<g id="edge4" class="edge">
<title>Node3&#45;&gt;Node5</title>
<path fill="none" stroke="#191970" d="M157.9899,-53.379C139.9191,-43.3011 116.8981,-30.4624 100.9543,-21.5707"/>
<polygon fill="#191970" stroke="#191970" points="156.4864,-56.548 166.9248,-58.3619 159.8959,-50.4344 156.4864,-56.548"/>
</g>
<!-- Node6&#45;&gt;Node4 -->
<g id="edge6" class="edge">
<title>Node6&#45;&gt;Node4</title>
<path fill="none" stroke="#191970" d="M372.2187,-55.6994C334.1142,-44.8658 281.2925,-29.8479 247.6294,-20.277"/>
<polygon fill="#191970" stroke="#191970" points="371.4812,-59.1284 382.0571,-58.4966 373.3955,-52.3952 371.4812,-59.1284"/>
</g>
<!-- Node6&#45;&gt;Node7 -->
<g id="edge7" class="edge">
<title>Node6&#45;&gt;Node7</title>
<path fill="none" stroke="#191970" d="M393.6165,-52.8215C377.9421,-42.8312 358.2799,-30.2993 344.585,-21.5707"/>
<polygon fill="#191970" stroke="#191970" points="391.9952,-55.9386 402.3092,-58.3619 395.7576,-50.0356 391.9952,-55.9386"/>
</g>
<!-- Node6&#45;&gt;Node8 -->
<g id="edge8" class="edge">
<title>Node6&#45;&gt;Node8</title>
<path fill="none" stroke="#191970" d="M469.1955,-55.9447C509.161,-45.5501 564.3742,-31.1897 601.5406,-21.5231"/>
<polygon fill="#191970" stroke="#191970" points="468.1806,-52.5921 459.3836,-58.4966 469.9427,-59.3667 468.1806,-52.5921"/>
</g>
<!-- Node9 -->
<g id="node9" class="node">
<title>Node9</title>
<g id="a_node9"><a xlink:href="../../d8/dbf/CPortfolio_8cpp.html" target="_top" xlink:title=" ">
<polygon fill="none" stroke="#000000" points="408.5,-.5 408.5,-21.5 545.5,-21.5 545.5,-.5 408.5,-.5"/>
<text text-anchor="middle" x="477" y="-7.9" font-family="Helvetica,sans-Serif" font-size="12.00" fill="#000000">sources/CPortfolio.cpp</text>
</a>
</g>
</g>
<!-- Node6&#45;&gt;Node9 -->
<g id="edge9" class="edge">
<title>Node6&#45;&gt;Node9</title>
<path fill="none" stroke="#191970" d="M436.882,-51.118C446.5623,-41.4377 458.1902,-29.8098 466.4293,-21.5707"/>
<polygon fill="#191970" stroke="#191970" points="434.2343,-48.8159 429.6381,-58.3619 439.1841,-53.7657 434.2343,-48.8159"/>
</g>
</g>
</svg>
