<?xml version="1.0" encoding="UTF-8" standalone="no"?>
<!DOCTYPE svg PUBLIC "-//W3C//DTD SVG 1.1//EN"
 "http://www.w3.org/Graphics/SVG/1.1/DTD/svg11.dtd">
<!-- Generated by graphviz version 2.40.1 (20161225.0304)
 -->
<!-- Title: CClient::createClientMenu Pages: 1 -->
<svg width="1633pt" height="857pt"
 viewBox="0.00 0.00 1633.00 857.00" xmlns="http://www.w3.org/2000/svg" xmlns:xlink="http://www.w3.org/1999/xlink">
<g id="graph0" class="graph" transform="scale(1 1) rotate(0) translate(4 853)">
<title>CClient::createClientMenu</title>
<!-- Node1 -->
<g id="node1" class="node">
<title>Node1</title>
<g id="a_node1"><a xlink:title="Method create Client menu through which you can set and get data for Client.">
<polygon fill="#bfbfbf" stroke="#000000" points="0,-360.5 0,-381.5 158,-381.5 158,-360.5 0,-360.5"/>
<text text-anchor="middle" x="79" y="-367.9" font-family="Helvetica,sans-Serif" font-size="12.00" fill="#000000">CClient::createClientMenu</text>
</a>
</g>
</g>
<!-- Node2 -->
<g id="node2" class="node">
<title>Node2</title>
<g id="a_node2"><a xlink:href="../../df/da7/classCClient.html#aa62615d19789dedf8ef7636c67c2bd2d" target="_top" xlink:title="Method create items of Client menu.">
<polygon fill="none" stroke="#000000" points="230,-720.5 230,-741.5 352,-741.5 352,-720.5 230,-720.5"/>
<text text-anchor="middle" x="291" y="-727.9" font-family="Helvetica,sans-Serif" font-size="12.00" fill="#000000">CClient::clientMenu</text>
</a>
</g>
</g>
<!-- Node1&#45;&gt;Node2 -->
<g id="edge1" class="edge">
<title>Node1&#45;&gt;Node2</title>
<path fill="none" stroke="#191970" d="M81.1232,-381.6419C91.7923,-434.0716 141.1316,-664.2565 194,-711 201.4874,-717.62 210.5754,-722.2649 220.151,-725.4903"/>
<polygon fill="#191970" stroke="#191970" points="219.2711,-728.8789 229.848,-728.2631 221.1956,-722.1487 219.2711,-728.8789"/>
</g>
<!-- Node3 -->
<g id="node3" class="node">
<title>Node3</title>
<g id="a_node3"><a xlink:href="../../d1/d60/classCMyHolding.html#a2da746680d2dd9d7af60d49719b0fd37" target="_top" xlink:title="Method set and gets all information about holding of Client.">
<polygon fill="none" stroke="#000000" points="194,-680.5 194,-701.5 388,-701.5 388,-680.5 194,-680.5"/>
<text text-anchor="middle" x="291" y="-687.9" font-family="Helvetica,sans-Serif" font-size="12.00" fill="#000000">CMyHolding::createHoldingMenu</text>
</a>
</g>
</g>
<!-- Node1&#45;&gt;Node3 -->
<g id="edge2" class="edge">
<title>Node1&#45;&gt;Node3</title>
<path fill="none" stroke="#191970" d="M79.5718,-381.5196C82.5246,-424.8553 99.8257,-591.0258 194,-671 195.7571,-672.4921 197.5961,-673.8828 199.5037,-675.1786"/>
<polygon fill="#191970" stroke="#191970" points="197.8612,-678.2722 208.2656,-680.2724 201.3795,-672.2205 197.8612,-678.2722"/>
</g>
<!-- Node33 -->
<g id="node33" class="node">
<title>Node33</title>
<g id="a_node33"><a xlink:href="../../de/dd6/classCUser.html#a4426efd46e3ed6df6d3b1765eefb0094" target="_top" xlink:title=" ">
<polygon fill="none" stroke="#000000" points="219.5,-640.5 219.5,-661.5 362.5,-661.5 362.5,-640.5 219.5,-640.5"/>
<text text-anchor="middle" x="291" y="-647.9" font-family="Helvetica,sans-Serif" font-size="12.00" fill="#000000">CUser::getMStrAddress</text>
</a>
</g>
</g>
<!-- Node1&#45;&gt;Node33 -->
<g id="edge37" class="edge">
<title>Node1&#45;&gt;Node33</title>
<path fill="none" stroke="#191970" d="M80.2768,-381.7434C85.6332,-421.7543 110.0642,-563.2843 194,-631 198.7152,-634.804 203.97,-637.9398 209.5264,-640.5192"/>
<polygon fill="#191970" stroke="#191970" points="208.5356,-643.8924 219.1204,-644.3546 211.1341,-637.3925 208.5356,-643.8924"/>
</g>
<!-- Node34 -->
<g id="node34" class="node">
<title>Node34</title>
<g id="a_node34"><a xlink:href="../../df/da7/classCClient.html#ab8d4abdefb9344de7ea42159eca1e930" target="_top" xlink:title="Method get Client name.">
<polygon fill="none" stroke="#000000" points="207,-600.5 207,-621.5 375,-621.5 375,-600.5 207,-600.5"/>
<text text-anchor="middle" x="291" y="-607.9" font-family="Helvetica,sans-Serif" font-size="12.00" fill="#000000">CClient::getMStrClientName</text>
</a>
</g>
</g>
<!-- Node1&#45;&gt;Node34 -->
<g id="edge38" class="edge">
<title>Node1&#45;&gt;Node34</title>
<path fill="none" stroke="#191970" d="M81.1567,-381.5771C89.0475,-417.4071 119.8518,-535.0716 194,-591 196.2393,-592.689 198.587,-594.244 201.0203,-595.6752"/>
<polygon fill="#191970" stroke="#191970" points="199.6651,-598.9128 210.1642,-600.3339 202.8429,-592.6756 199.6651,-598.9128"/>
</g>
<!-- Node35 -->
<g id="node35" class="node">
<title>Node35</title>
<g id="a_node35"><a xlink:href="../../df/da7/classCClient.html#ad9a4086254010f751180a349513a3351" target="_top" xlink:title="Method get Credit card number.">
<polygon fill="none" stroke="#000000" points="200,-560.5 200,-581.5 382,-581.5 382,-560.5 200,-560.5"/>
<text text-anchor="middle" x="291" y="-567.9" font-family="Helvetica,sans-Serif" font-size="12.00" fill="#000000">CClient::getMStrCreditCardInfo</text>
</a>
</g>
</g>
<!-- Node1&#45;&gt;Node35 -->
<g id="edge39" class="edge">
<title>Node1&#45;&gt;Node35</title>
<path fill="none" stroke="#191970" d="M82.4361,-381.6179C93.2163,-413.1235 129.545,-506.6382 194,-551 196.762,-552.901 199.666,-554.6284 202.6744,-556.1976"/>
<polygon fill="#191970" stroke="#191970" points="201.4248,-559.4747 211.975,-560.4464 204.3335,-553.1076 201.4248,-559.4747"/>
</g>
<!-- Node36 -->
<g id="node36" class="node">
<title>Node36</title>
<g id="a_node36"><a xlink:href="../../de/dd6/classCUser.html#a6a8a1d2949cabbf38017689411a10f90" target="_top" xlink:title=" ">
<polygon fill="none" stroke="#000000" points="226.5,-520.5 226.5,-541.5 355.5,-541.5 355.5,-520.5 226.5,-520.5"/>
<text text-anchor="middle" x="291" y="-527.9" font-family="Helvetica,sans-Serif" font-size="12.00" fill="#000000">CUser::getMStrEmail</text>
</a>
</g>
</g>
<!-- Node1&#45;&gt;Node36 -->
<g id="edge40" class="edge">
<title>Node1&#45;&gt;Node36</title>
<path fill="none" stroke="#191970" d="M84.5079,-381.8769C98.6588,-408.6241 139.0705,-477.8319 194,-511 200.9589,-515.202 208.6557,-518.534 216.5806,-521.1742"/>
<polygon fill="#191970" stroke="#191970" points="215.7436,-524.5766 226.326,-524.0634 217.7334,-517.8653 215.7436,-524.5766"/>
</g>
<!-- Node37 -->
<g id="node37" class="node">
<title>Node37</title>
<g id="a_node37"><a xlink:href="../../de/dd6/classCUser.html#a2a1b7d80c34e48084f111736f0161c34" target="_top" xlink:title=" ">
<polygon fill="none" stroke="#000000" points="215,-480.5 215,-501.5 367,-501.5 367,-480.5 215,-480.5"/>
<text text-anchor="middle" x="291" y="-487.9" font-family="Helvetica,sans-Serif" font-size="12.00" fill="#000000">CUser::getMStrPassword</text>
</a>
</g>
</g>
<!-- Node1&#45;&gt;Node37 -->
<g id="edge41" class="edge">
<title>Node1&#45;&gt;Node37</title>
<path fill="none" stroke="#191970" d="M87.8737,-381.7493C105.6749,-402.5448 147.9966,-448.2341 194,-471 198.864,-473.4071 204.0031,-475.5246 209.2755,-477.3874"/>
<polygon fill="#191970" stroke="#191970" points="208.2879,-480.7463 218.8792,-480.4729 210.4291,-474.0818 208.2879,-480.7463"/>
</g>
<!-- Node38 -->
<g id="node38" class="node">
<title>Node38</title>
<g id="a_node38"><a xlink:href="../../df/da7/classCClient.html#a42a1283313de9b6a680ee19b738495ef" target="_top" xlink:title=" ">
<polygon fill="none" stroke="#000000" points="201.5,-440.5 201.5,-461.5 380.5,-461.5 380.5,-440.5 201.5,-440.5"/>
<text text-anchor="middle" x="291" y="-447.9" font-family="Helvetica,sans-Serif" font-size="12.00" fill="#000000">CClient::getMStrPathForClient</text>
</a>
</g>
</g>
<!-- Node1&#45;&gt;Node38 -->
<g id="edge42" class="edge">
<title>Node1&#45;&gt;Node38</title>
<path fill="none" stroke="#191970" d="M95.8533,-381.7099C117.6837,-395.1243 157.2993,-417.9303 194,-431 201.4853,-433.6656 209.4289,-436.0206 217.4214,-438.0902"/>
<polygon fill="#191970" stroke="#191970" points="216.6221,-441.4977 227.1674,-440.4748 218.2858,-434.6983 216.6221,-441.4977"/>
</g>
<!-- Node39 -->
<g id="node39" class="node">
<title>Node39</title>
<g id="a_node39"><a xlink:href="../../de/dd6/classCUser.html#aae8a3eea4ee7e459e75cbb94934d6420" target="_top" xlink:title=" ">
<polygon fill="none" stroke="#000000" points="203,-400.5 203,-421.5 379,-421.5 379,-400.5 203,-400.5"/>
<text text-anchor="middle" x="291" y="-407.9" font-family="Helvetica,sans-Serif" font-size="12.00" fill="#000000">CUser::getMStrPhoneNumber</text>
</a>
</g>
</g>
<!-- Node1&#45;&gt;Node39 -->
<g id="edge43" class="edge">
<title>Node1&#45;&gt;Node39</title>
<path fill="none" stroke="#191970" d="M134.7005,-381.5095C162.4649,-386.7481 196.2229,-393.1175 225.251,-398.5945"/>
<polygon fill="#191970" stroke="#191970" points="224.8283,-402.0764 235.3038,-400.4913 226.1262,-395.1978 224.8283,-402.0764"/>
</g>
<!-- Node40 -->
<g id="node40" class="node">
<title>Node40</title>
<g id="a_node40"><a xlink:href="../../de/dd6/classCUser.html#a99623f378da2bc2bde96372447041938" target="_top" xlink:title=" ">
<polygon fill="none" stroke="#000000" points="206.5,-360.5 206.5,-381.5 375.5,-381.5 375.5,-360.5 206.5,-360.5"/>
<text text-anchor="middle" x="291" y="-367.9" font-family="Helvetica,sans-Serif" font-size="12.00" fill="#000000">CUser::getMStrRegisterDate</text>
</a>
</g>
</g>
<!-- Node1&#45;&gt;Node40 -->
<g id="edge44" class="edge">
<title>Node1&#45;&gt;Node40</title>
<path fill="none" stroke="#191970" d="M158.2425,-371C170.5849,-371 183.4452,-371 196.0926,-371"/>
<polygon fill="#191970" stroke="#191970" points="196.176,-374.5001 206.1759,-371 196.1759,-367.5001 196.176,-374.5001"/>
</g>
<!-- Node41 -->
<g id="node41" class="node">
<title>Node41</title>
<g id="a_node41"><a xlink:href="../../de/dd6/classCUser.html#aaa97b7e7cd44d46d703ca0abe79898c1" target="_top" xlink:title=" ">
<polygon fill="none" stroke="#000000" points="214,-320.5 214,-341.5 368,-341.5 368,-320.5 214,-320.5"/>
<text text-anchor="middle" x="291" y="-327.9" font-family="Helvetica,sans-Serif" font-size="12.00" fill="#000000">CUser::getMStrUsername</text>
</a>
</g>
</g>
<!-- Node1&#45;&gt;Node41 -->
<g id="edge45" class="edge">
<title>Node1&#45;&gt;Node41</title>
<path fill="none" stroke="#191970" d="M134.7005,-360.4905C162.4649,-355.2519 196.2229,-348.8825 225.251,-343.4055"/>
<polygon fill="#191970" stroke="#191970" points="226.1262,-346.8022 235.3038,-341.5087 224.8283,-339.9236 226.1262,-346.8022"/>
</g>
<!-- Node42 -->
<g id="node42" class="node">
<title>Node42</title>
<g id="a_node42"><a xlink:href="../../de/dd6/classCUser.html#a620cb94cbb315d45238cde10b79f9093" target="_top" xlink:title=" ">
<polygon fill="none" stroke="#000000" points="220,-280.5 220,-301.5 362,-301.5 362,-280.5 220,-280.5"/>
<text text-anchor="middle" x="291" y="-287.9" font-family="Helvetica,sans-Serif" font-size="12.00" fill="#000000">CUser::setMStrAddress</text>
</a>
</g>
</g>
<!-- Node1&#45;&gt;Node42 -->
<g id="edge46" class="edge">
<title>Node1&#45;&gt;Node42</title>
<path fill="none" stroke="#191970" d="M95.8533,-360.2901C117.6837,-346.8757 157.2993,-324.0697 194,-311 201.4853,-308.3344 209.4289,-305.9794 217.4214,-303.9098"/>
<polygon fill="#191970" stroke="#191970" points="218.2858,-307.3017 227.1674,-301.5252 216.6221,-300.5023 218.2858,-307.3017"/>
</g>
<!-- Node43 -->
<g id="node43" class="node">
<title>Node43</title>
<g id="a_node43"><a xlink:href="../../df/da7/classCClient.html#af5a9c9e2eb759560f7bcb63a7af56d46" target="_top" xlink:title="Method set Client name.">
<polygon fill="none" stroke="#000000" points="207.5,-240.5 207.5,-261.5 374.5,-261.5 374.5,-240.5 207.5,-240.5"/>
<text text-anchor="middle" x="291" y="-247.9" font-family="Helvetica,sans-Serif" font-size="12.00" fill="#000000">CClient::setMStrClientName</text>
</a>
</g>
</g>
<!-- Node1&#45;&gt;Node43 -->
<g id="edge47" class="edge">
<title>Node1&#45;&gt;Node43</title>
<path fill="none" stroke="#191970" d="M87.8737,-360.2507C105.6749,-339.4552 147.9966,-293.7659 194,-271 198.864,-268.5929 204.0031,-266.4754 209.2755,-264.6126"/>
<polygon fill="#191970" stroke="#191970" points="210.4291,-267.9182 218.8792,-261.5271 208.2879,-261.2537 210.4291,-267.9182"/>
</g>
<!-- Node44 -->
<g id="node44" class="node">
<title>Node44</title>
<g id="a_node44"><a xlink:href="../../df/da7/classCClient.html#acf02bc712666dc630a14b0e118a3dea2" target="_top" xlink:title="Method set number of credit card of Client.">
<polygon fill="none" stroke="#000000" points="200,-200.5 200,-221.5 382,-221.5 382,-200.5 200,-200.5"/>
<text text-anchor="middle" x="291" y="-207.9" font-family="Helvetica,sans-Serif" font-size="12.00" fill="#000000">CClient::setMStrCreditCardInfo</text>
</a>
</g>
</g>
<!-- Node1&#45;&gt;Node44 -->
<g id="edge48" class="edge">
<title>Node1&#45;&gt;Node44</title>
<path fill="none" stroke="#191970" d="M84.5079,-360.1231C98.6588,-333.3759 139.0705,-264.1681 194,-231 197.4613,-228.91 201.1052,-227.0351 204.8689,-225.3536"/>
<polygon fill="#191970" stroke="#191970" points="206.4303,-228.4997 214.4356,-221.5595 203.8496,-221.9927 206.4303,-228.4997"/>
</g>
<!-- Node45 -->
<g id="node45" class="node">
<title>Node45</title>
<g id="a_node45"><a xlink:href="../../de/dd6/classCUser.html#a8dc600d0758abdecbbe1c48b60d75cf5" target="_top" xlink:title=" ">
<polygon fill="none" stroke="#000000" points="227,-160.5 227,-181.5 355,-181.5 355,-160.5 227,-160.5"/>
<text text-anchor="middle" x="291" y="-167.9" font-family="Helvetica,sans-Serif" font-size="12.00" fill="#000000">CUser::setMStrEmail</text>
</a>
</g>
</g>
<!-- Node1&#45;&gt;Node45 -->
<g id="edge49" class="edge">
<title>Node1&#45;&gt;Node45</title>
<path fill="none" stroke="#191970" d="M82.4361,-360.3821C93.2163,-328.8765 129.545,-235.3618 194,-191 201.0244,-186.1654 208.9676,-182.4533 217.21,-179.6103"/>
<polygon fill="#191970" stroke="#191970" points="218.4255,-182.8994 226.986,-176.657 216.4011,-176.1985 218.4255,-182.8994"/>
</g>
<!-- Node46 -->
<g id="node46" class="node">
<title>Node46</title>
<g id="a_node46"><a xlink:href="../../de/dd6/classCUser.html#a084834c81eac4df94fab1b039be64432" target="_top" xlink:title=" ">
<polygon fill="none" stroke="#000000" points="215.5,-120.5 215.5,-141.5 366.5,-141.5 366.5,-120.5 215.5,-120.5"/>
<text text-anchor="middle" x="291" y="-127.9" font-family="Helvetica,sans-Serif" font-size="12.00" fill="#000000">CUser::setMStrPassword</text>
</a>
</g>
</g>
<!-- Node1&#45;&gt;Node46 -->
<g id="edge50" class="edge">
<title>Node1&#45;&gt;Node46</title>
<path fill="none" stroke="#191970" d="M81.1567,-360.4229C89.0475,-324.5929 119.8518,-206.9284 194,-151 197.6506,-148.2464 201.5895,-145.8491 205.7175,-143.7637"/>
<polygon fill="#191970" stroke="#191970" points="207.2689,-146.9051 215.0177,-139.6796 204.4543,-140.4959 207.2689,-146.9051"/>
</g>
<!-- Node47 -->
<g id="node47" class="node">
<title>Node47</title>
<g id="a_node47"><a xlink:href="../../de/dd6/classCUser.html#a03c30cd45adbcf9a77763f78139f7a55" target="_top" xlink:title=" ">
<polygon fill="none" stroke="#000000" points="203,-80.5 203,-101.5 379,-101.5 379,-80.5 203,-80.5"/>
<text text-anchor="middle" x="291" y="-87.9" font-family="Helvetica,sans-Serif" font-size="12.00" fill="#000000">CUser::setMStrPhoneNumber</text>
</a>
</g>
</g>
<!-- Node1&#45;&gt;Node47 -->
<g id="edge51" class="edge">
<title>Node1&#45;&gt;Node47</title>
<path fill="none" stroke="#191970" d="M80.2768,-360.2566C85.6332,-320.2457 110.0642,-178.7157 194,-111 196.0492,-109.3468 198.2003,-107.8198 200.4337,-106.4099"/>
<polygon fill="#191970" stroke="#191970" points="202.298,-109.3803 209.4156,-101.5324 198.9574,-103.2288 202.298,-109.3803"/>
</g>
<!-- Node48 -->
<g id="node48" class="node">
<title>Node48</title>
<g id="a_node48"><a xlink:href="../../de/dd6/classCUser.html#a444c52bb242a31119bf0283d3c70c1f7" target="_top" xlink:title=" ">
<polygon fill="none" stroke="#000000" points="207,-40.5 207,-61.5 375,-61.5 375,-40.5 207,-40.5"/>
<text text-anchor="middle" x="291" y="-47.9" font-family="Helvetica,sans-Serif" font-size="12.00" fill="#000000">CUser::setMStrRegisterDate</text>
</a>
</g>
</g>
<!-- Node1&#45;&gt;Node48 -->
<g id="edge52" class="edge">
<title>Node1&#45;&gt;Node48</title>
<path fill="none" stroke="#191970" d="M79.5718,-360.4804C82.5246,-317.1447 99.8257,-150.9742 194,-71 195.7571,-69.5079 197.5961,-68.1172 199.5037,-66.8214"/>
<polygon fill="#191970" stroke="#191970" points="201.3795,-69.7795 208.2656,-61.7276 197.8612,-63.7278 201.3795,-69.7795"/>
</g>
<!-- Node49 -->
<g id="node49" class="node">
<title>Node49</title>
<g id="a_node49"><a xlink:href="../../de/dd6/classCUser.html#a84554247192c699b9abb455cddbd7e63" target="_top" xlink:title=" ">
<polygon fill="none" stroke="#000000" points="214.5,-.5 214.5,-21.5 367.5,-21.5 367.5,-.5 214.5,-.5"/>
<text text-anchor="middle" x="291" y="-7.9" font-family="Helvetica,sans-Serif" font-size="12.00" fill="#000000">CUser::setMStrUsername</text>
</a>
</g>
</g>
<!-- Node1&#45;&gt;Node49 -->
<g id="edge53" class="edge">
<title>Node1&#45;&gt;Node49</title>
<path fill="none" stroke="#191970" d="M81.1232,-360.3581C91.7923,-307.9284 141.1316,-77.7435 194,-31 197.4257,-27.9712 201.1864,-25.3558 205.1756,-23.1006"/>
<polygon fill="#191970" stroke="#191970" points="206.7551,-26.2247 214.2323,-18.7185 203.7062,-19.9235 206.7551,-26.2247"/>
</g>
<!-- Node4 -->
<g id="node4" class="node">
<title>Node4</title>
<g id="a_node4"><a xlink:href="../../d1/d60/classCMyHolding.html#a0fff365bd984f212b7ffb26b93ce74eb" target="_top" xlink:title="Method gets holding name.">
<polygon fill="none" stroke="#000000" points="424,-827.5 424,-848.5 629,-848.5 629,-827.5 424,-827.5"/>
<text text-anchor="middle" x="526.5" y="-834.9" font-family="Helvetica,sans-Serif" font-size="12.00" fill="#000000">CMyHolding::getMStrHoldingName</text>
</a>
</g>
</g>
<!-- Node3&#45;&gt;Node4 -->
<g id="edge3" class="edge">
<title>Node3&#45;&gt;Node4</title>
<path fill="none" stroke="#191970" d="M373.91,-701.5251C378.9875,-704.1138 383.7521,-707.2381 388,-711 425.5629,-744.2649 386.2607,-784.9353 424,-818 425.7174,-819.5047 427.5139,-820.9097 429.3776,-822.2213"/>
<polygon fill="#191970" stroke="#191970" points="427.5723,-825.2198 437.942,-827.3922 431.1904,-819.2273 427.5723,-825.2198"/>
</g>
<!-- Node5 -->
<g id="node5" class="node">
<title>Node5</title>
<g id="a_node5"><a xlink:href="../../d1/d60/classCMyHolding.html#a1466a01e6a1cb401e51f6381764284a7" target="_top" xlink:title="Method get register data of holding.">
<polygon fill="none" stroke="#000000" points="440,-774 440,-808 613,-808 613,-774 440,-774"/>
<text text-anchor="start" x="448" y="-794.4" font-family="Helvetica,sans-Serif" font-size="12.00" fill="#000000">CMyHolding::getMStrHolding</text>
<text text-anchor="middle" x="526.5" y="-781.4" font-family="Helvetica,sans-Serif" font-size="12.00" fill="#000000">RegisterDate</text>
</a>
</g>
</g>
<!-- Node3&#45;&gt;Node5 -->
<g id="edge4" class="edge">
<title>Node3&#45;&gt;Node5</title>
<path fill="none" stroke="#191970" d="M369.9458,-701.67C376.3216,-704.1819 382.4393,-707.2521 388,-711 411.9187,-727.1213 400.4507,-748.3437 424,-765 426.164,-766.5306 428.4099,-767.9712 430.7215,-769.3271"/>
<polygon fill="#191970" stroke="#191970" points="429.4475,-772.6108 439.9301,-774.1486 432.6945,-766.4094 429.4475,-772.6108"/>
</g>
<!-- Node6 -->
<g id="node6" class="node">
<title>Node6</title>
<g id="a_node6"><a xlink:href="../../d1/d60/classCMyHolding.html#aa4c88b276924aa8db372ea6a8a6f9e6c" target="_top" xlink:title=" ">
<polygon fill="none" stroke="#000000" points="440,-721 440,-755 613,-755 613,-721 440,-721"/>
<text text-anchor="start" x="448" y="-741.4" font-family="Helvetica,sans-Serif" font-size="12.00" fill="#000000">CMyHolding::getMStrPathFor</text>
<text text-anchor="middle" x="526.5" y="-728.4" font-family="Helvetica,sans-Serif" font-size="12.00" fill="#000000">Holding</text>
</a>
</g>
</g>
<!-- Node3&#45;&gt;Node6 -->
<g id="edge5" class="edge">
<title>Node3&#45;&gt;Node6</title>
<path fill="none" stroke="#191970" d="M343.8508,-701.5477C369.5588,-706.6784 401.2688,-713.0069 431.0121,-718.943"/>
<polygon fill="#191970" stroke="#191970" points="430.5204,-722.4138 441.0121,-720.9387 431.8905,-715.5492 430.5204,-722.4138"/>
</g>
<!-- Node7 -->
<g id="node7" class="node">
<title>Node7</title>
<g id="a_node7"><a xlink:href="../../d1/d60/classCMyHolding.html#a57be9478ef19f17041932212b5e17d65" target="_top" xlink:title="Method gets items of holding menu to enter in main menu for holding information.">
<polygon fill="none" stroke="#000000" points="447,-680.5 447,-701.5 606,-701.5 606,-680.5 447,-680.5"/>
<text text-anchor="middle" x="526.5" y="-687.9" font-family="Helvetica,sans-Serif" font-size="12.00" fill="#000000">CMyHolding::holdingMenu</text>
</a>
</g>
</g>
<!-- Node3&#45;&gt;Node7 -->
<g id="edge6" class="edge">
<title>Node3&#45;&gt;Node7</title>
<path fill="none" stroke="#191970" d="M388.1465,-691C404.1525,-691 420.6827,-691 436.504,-691"/>
<polygon fill="#191970" stroke="#191970" points="436.7859,-694.5001 446.7858,-691 436.7858,-687.5001 436.7859,-694.5001"/>
</g>
<!-- Node8 -->
<g id="node8" class="node">
<title>Node8</title>
<g id="a_node8"><a xlink:href="../../d1/d60/classCMyHolding.html#ac8f2900ec6ddf44f3302e4c7ee4fdddf" target="_top" xlink:title="Methos sets holding name.">
<polygon fill="none" stroke="#000000" points="424.5,-640.5 424.5,-661.5 628.5,-661.5 628.5,-640.5 424.5,-640.5"/>
<text text-anchor="middle" x="526.5" y="-647.9" font-family="Helvetica,sans-Serif" font-size="12.00" fill="#000000">CMyHolding::setMStrHoldingName</text>
</a>
</g>
</g>
<!-- Node3&#45;&gt;Node8 -->
<g id="edge7" class="edge">
<title>Node3&#45;&gt;Node8</title>
<path fill="none" stroke="#191970" d="M352.8749,-680.4905C384.121,-675.1833 422.2006,-668.7154 454.7274,-663.1907"/>
<polygon fill="#191970" stroke="#191970" points="455.3573,-666.6339 464.63,-661.5087 454.185,-659.7327 455.3573,-666.6339"/>
</g>
<!-- Node9 -->
<g id="node9" class="node">
<title>Node9</title>
<g id="a_node9"><a xlink:href="../../d1/d60/classCMyHolding.html#a05aa487612cb6e7058e4f60ce1235b9a" target="_top" xlink:title="Method set register Date of Holding.">
<polygon fill="none" stroke="#000000" points="440.5,-587 440.5,-621 612.5,-621 612.5,-587 440.5,-587"/>
<text text-anchor="start" x="448.5" y="-607.4" font-family="Helvetica,sans-Serif" font-size="12.00" fill="#000000">CMyHolding::setMStrHolding</text>
<text text-anchor="middle" x="526.5" y="-594.4" font-family="Helvetica,sans-Serif" font-size="12.00" fill="#000000">RegisterDate</text>
</a>
</g>
</g>
<!-- Node3&#45;&gt;Node9 -->
<g id="edge8" class="edge">
<title>Node3&#45;&gt;Node9</title>
<path fill="none" stroke="#191970" d="M366.3825,-680.4811C373.9381,-677.9629 381.2878,-674.849 388,-671 408.7483,-659.1022 403.5819,-643.4559 424,-631 427.4365,-628.9036 431.0341,-626.9683 434.7402,-625.1819"/>
<polygon fill="#191970" stroke="#191970" points="436.4039,-628.2737 444.146,-621.0412 433.5834,-621.8671 436.4039,-628.2737"/>
</g>
<!-- Node10 -->
<g id="node10" class="node">
<title>Node10</title>
<g id="a_node10"><a xlink:href="../../d9/d52/classCPortfolio.html#a1253d72b078e2ad23e28744f232a078a" target="_top" xlink:title="Mehtod set and get all information about the portfolios.">
<polygon fill="none" stroke="#000000" points="455,-546.5 455,-567.5 598,-567.5 598,-546.5 455,-546.5"/>
<text text-anchor="middle" x="526.5" y="-553.9" font-family="Helvetica,sans-Serif" font-size="12.00" fill="#000000">CPortfolio::userPortfolio</text>
</a>
</g>
</g>
<!-- Node3&#45;&gt;Node10 -->
<g id="edge9" class="edge">
<title>Node3&#45;&gt;Node10</title>
<path fill="none" stroke="#191970" d="M373.2543,-680.4855C378.5497,-677.9033 383.5377,-674.7769 388,-671 421.8308,-642.3657 390.1513,-606.6131 424,-578 430.312,-572.6644 437.6181,-568.562 445.3657,-565.4231"/>
<polygon fill="#191970" stroke="#191970" points="446.7142,-568.6594 454.9978,-562.0539 444.403,-562.0519 446.7142,-568.6594"/>
</g>
<!-- Node11 -->
<g id="node11" class="node">
<title>Node11</title>
<g id="a_node11"><a xlink:href="../../d9/d52/classCPortfolio.html#a0b7839f6c1fdda844aef3402a90c8980" target="_top" xlink:title="Method get the items of portfolio menu.">
<polygon fill="none" stroke="#000000" points="665,-648.5 665,-669.5 844,-669.5 844,-648.5 665,-648.5"/>
<text text-anchor="middle" x="754.5" y="-655.9" font-family="Helvetica,sans-Serif" font-size="12.00" fill="#000000">CPortfolio::createUserPortfolio</text>
</a>
</g>
</g>
<!-- Node10&#45;&gt;Node11 -->
<g id="edge10" class="edge">
<title>Node10&#45;&gt;Node11</title>
<path fill="none" stroke="#191970" d="M598.1373,-564.0107C609.0816,-567.1923 619.7848,-571.6851 629,-578 653.4073,-594.7255 641.1957,-616.427 665,-634 670.8002,-638.2818 677.3026,-641.8306 684.0853,-644.7717"/>
<polygon fill="#191970" stroke="#191970" points="682.8798,-648.0582 693.4686,-648.4174 685.415,-641.5333 682.8798,-648.0582"/>
</g>
<!-- Node12 -->
<g id="node12" class="node">
<title>Node12</title>
<g id="a_node12"><a xlink:href="../../d0/dc4/classCETF.html#abfd92cb6e0c471932af46e30df2fd308" target="_top" xlink:title="Method get and set all info about object of class CETF.">
<polygon fill="none" stroke="#000000" points="711,-570.5 711,-591.5 798,-591.5 798,-570.5 711,-570.5"/>
<text text-anchor="middle" x="754.5" y="-577.9" font-family="Helvetica,sans-Serif" font-size="12.00" fill="#000000">CETF::etfInfo</text>
</a>
</g>
</g>
<!-- Node10&#45;&gt;Node12 -->
<g id="edge11" class="edge">
<title>Node10&#45;&gt;Node12</title>
<path fill="none" stroke="#191970" d="M598.0151,-564.5279C631.22,-568.0232 670.0366,-572.1091 700.7027,-575.3371"/>
<polygon fill="#191970" stroke="#191970" points="700.4586,-578.8307 710.7701,-576.3969 701.1915,-571.8691 700.4586,-578.8307"/>
</g>
<!-- Node13 -->
<g id="node13" class="node">
<title>Node13</title>
<g id="a_node13"><a xlink:href="../../dc/d85/classCAsset.html#ab68c11feace8e8f4b9852404a458796c" target="_top" xlink:title="Method get data from database through the class CDataBase.">
<polygon fill="none" stroke="#000000" points="1103.5,-571.5 1103.5,-592.5 1237.5,-592.5 1237.5,-571.5 1103.5,-571.5"/>
<text text-anchor="middle" x="1170.5" y="-578.9" font-family="Helvetica,sans-Serif" font-size="12.00" fill="#000000">CAsset::getFromBase</text>
</a>
</g>
</g>
<!-- Node10&#45;&gt;Node13 -->
<g id="edge24" class="edge">
<title>Node10&#45;&gt;Node13</title>
<path fill="none" stroke="#191970" d="M595.6227,-567.5427C606.9863,-570.2979 618.4794,-573.7331 629,-578 646.5947,-585.136 646.7753,-595.6752 665,-601 824.6187,-647.6365 1024.6638,-614.889 1118.0077,-594.6763"/>
<polygon fill="#191970" stroke="#191970" points="1118.7677,-598.0929 1127.7792,-592.5212 1117.2601,-591.2572 1118.7677,-598.0929"/>
</g>
<!-- Node25 -->
<g id="node25" class="node">
<title>Node25</title>
<g id="a_node25"><a xlink:href="../../d9/d52/classCPortfolio.html#a387f0203e80ef58959f0b3e03c1bd930" target="_top" xlink:title=" ">
<polygon fill="none" stroke="#000000" points="681.5,-517 681.5,-551 827.5,-551 827.5,-517 681.5,-517"/>
<text text-anchor="start" x="689.5" y="-537.4" font-family="Helvetica,sans-Serif" font-size="12.00" fill="#000000">CPortfolio::getMStrToEtf</text>
<text text-anchor="middle" x="754.5" y="-524.4" font-family="Helvetica,sans-Serif" font-size="12.00" fill="#000000">Portfolio</text>
</a>
</g>
</g>
<!-- Node10&#45;&gt;Node25 -->
<g id="edge25" class="edge">
<title>Node10&#45;&gt;Node25</title>
<path fill="none" stroke="#191970" d="M598.0151,-549.7858C621.2121,-547.4457 647.1478,-544.8294 671.1302,-542.4101"/>
<polygon fill="#191970" stroke="#191970" points="671.6768,-545.8728 681.275,-541.3867 670.9742,-538.9082 671.6768,-545.8728"/>
</g>
<!-- Node26 -->
<g id="node26" class="node">
<title>Node26</title>
<g id="a_node26"><a xlink:href="../../d5/de1/classCDataBase.html#a4d52b0dbf60c0295aea772711839332d" target="_top" xlink:title=" ">
<polygon fill="none" stroke="#000000" points="1075,-374.5 1075,-395.5 1266,-395.5 1266,-374.5 1075,-374.5"/>
<text text-anchor="middle" x="1170.5" y="-381.9" font-family="Helvetica,sans-Serif" font-size="12.00" fill="#000000">CDataBase::getMStrToItPortfolio</text>
</a>
</g>
</g>
<!-- Node10&#45;&gt;Node26 -->
<g id="edge26" class="edge">
<title>Node10&#45;&gt;Node26</title>
<path fill="none" stroke="#191970" d="M539.8645,-546.3603C563.7051,-527.8429 615.7025,-489.5195 665,-467 755.4581,-425.678 782.0652,-422.2901 880,-405 940.575,-394.3056 1009.1942,-389.2591 1064.5264,-386.9076"/>
<polygon fill="#191970" stroke="#191970" points="1064.8471,-390.3976 1074.6986,-386.4991 1064.5661,-383.4033 1064.8471,-390.3976"/>
</g>
<!-- Node27 -->
<g id="node27" class="node">
<title>Node27</title>
<g id="a_node27"><a xlink:href="../../d7/d8f/classCStock.html#a0ef2eda44098e896ddb09d5d4629d7aa" target="_top" xlink:title="Method gets and sets all info about stock using switch statement, case, if, else if,...">
<polygon fill="none" stroke="#000000" points="700,-476.5 700,-497.5 809,-497.5 809,-476.5 700,-476.5"/>
<text text-anchor="middle" x="754.5" y="-483.9" font-family="Helvetica,sans-Serif" font-size="12.00" fill="#000000">CStock::stockInfo</text>
</a>
</g>
</g>
<!-- Node10&#45;&gt;Node27 -->
<g id="edge27" class="edge">
<title>Node10&#45;&gt;Node27</title>
<path fill="none" stroke="#191970" d="M553.5422,-546.4399C581.2515,-535.8552 625.7178,-519.5197 665,-508 674.6486,-505.1705 684.9686,-502.4618 695.0452,-499.9859"/>
<polygon fill="#191970" stroke="#191970" points="696.1016,-503.3318 705.0067,-497.5917 694.4657,-496.5256 696.1016,-503.3318"/>
</g>
<!-- Node12&#45;&gt;Node13 -->
<g id="edge12" class="edge">
<title>Node12&#45;&gt;Node13</title>
<path fill="none" stroke="#191970" d="M798.233,-581.1051C868.2638,-581.2735 1006.5026,-581.6058 1093.3968,-581.8147"/>
<polygon fill="#191970" stroke="#191970" points="1093.4609,-585.3147 1103.4693,-581.8389 1093.4778,-578.3147 1093.4609,-585.3147"/>
</g>
<!-- Node24 -->
<g id="node24" class="node">
<title>Node24</title>
<g id="a_node24"><a xlink:href="../../dc/d85/classCAsset.html#ad26f4802c080f55f65007d3622afb394" target="_top" xlink:title="Method gets risk of one Asset.">
<polygon fill="none" stroke="#000000" points="898.5,-532.5 898.5,-553.5 1020.5,-553.5 1020.5,-532.5 898.5,-532.5"/>
<text text-anchor="middle" x="959.5" y="-539.9" font-family="Helvetica,sans-Serif" font-size="12.00" fill="#000000">CAsset::riskOfAsset</text>
</a>
</g>
</g>
<!-- Node12&#45;&gt;Node24 -->
<g id="edge23" class="edge">
<title>Node12&#45;&gt;Node24</title>
<path fill="none" stroke="#191970" d="M798.2262,-572.8947C825.7079,-567.8005 861.7032,-561.1282 892.714,-555.3798"/>
<polygon fill="#191970" stroke="#191970" points="893.3956,-558.8132 902.5902,-553.5491 892.1197,-551.9305 893.3956,-558.8132"/>
</g>
<!-- Node14 -->
<g id="node14" class="node">
<title>Node14</title>
<g id="a_node14"><a xlink:href="../../d7/d8f/classCStock.html#ac29f9a8363a2388481e44526a0d4aa06" target="_top" xlink:title=" ">
<polygon fill="none" stroke="#000000" points="1319,-711.5 1319,-732.5 1486,-732.5 1486,-711.5 1319,-711.5"/>
<text text-anchor="middle" x="1402.5" y="-718.9" font-family="Helvetica,sans-Serif" font-size="12.00" fill="#000000">CStock::getMStrPathToAppl</text>
</a>
</g>
</g>
<!-- Node13&#45;&gt;Node14 -->
<g id="edge13" class="edge">
<title>Node13&#45;&gt;Node14</title>
<path fill="none" stroke="#191970" d="M1178.7053,-592.7109C1197.6041,-616.5567 1246.8351,-674.1118 1302,-702 1306.6439,-704.3477 1311.5386,-706.42 1316.5662,-708.2492"/>
<polygon fill="#191970" stroke="#191970" points="1315.7743,-711.6732 1326.3673,-711.4757 1317.9632,-705.0242 1315.7743,-711.6732"/>
</g>
<!-- Node15 -->
<g id="node15" class="node">
<title>Node15</title>
<g id="a_node15"><a xlink:href="../../d7/d8f/classCStock.html#a71879b1e890394887791d3746cb7ef04" target="_top" xlink:title=" ">
<polygon fill="none" stroke="#000000" points="1312,-671.5 1312,-692.5 1493,-692.5 1493,-671.5 1312,-671.5"/>
<text text-anchor="middle" x="1402.5" y="-678.9" font-family="Helvetica,sans-Serif" font-size="12.00" fill="#000000">CStock::getMStrPathToGoogle</text>
</a>
</g>
</g>
<!-- Node13&#45;&gt;Node15 -->
<g id="edge14" class="edge">
<title>Node13&#45;&gt;Node15</title>
<path fill="none" stroke="#191970" d="M1184.2308,-592.6261C1207.2542,-609.9013 1255.6862,-643.957 1302,-662 1308.7239,-664.6195 1315.8401,-666.911 1323.0555,-668.9127"/>
<polygon fill="#191970" stroke="#191970" points="1322.3708,-672.3507 1332.9287,-671.4662 1324.1236,-665.5737 1322.3708,-672.3507"/>
</g>
<!-- Node16 -->
<g id="node16" class="node">
<title>Node16</title>
<g id="a_node16"><a xlink:href="../../d0/dc4/classCETF.html#af8e267a244a73e0ad7038f83b5ec26b0" target="_top" xlink:title=" ">
<polygon fill="none" stroke="#000000" points="1327,-631.5 1327,-652.5 1478,-652.5 1478,-631.5 1327,-631.5"/>
<text text-anchor="middle" x="1402.5" y="-638.9" font-family="Helvetica,sans-Serif" font-size="12.00" fill="#000000">CETF::getMStrPathToIxn</text>
</a>
</g>
</g>
<!-- Node13&#45;&gt;Node16 -->
<g id="edge15" class="edge">
<title>Node13&#45;&gt;Node16</title>
<path fill="none" stroke="#191970" d="M1201.8743,-592.5C1228.3637,-601.1339 1267.3981,-613.317 1302,-622 1312.5027,-624.6356 1323.6924,-627.1485 1334.6488,-629.448"/>
<polygon fill="#191970" stroke="#191970" points="1334.1189,-632.9122 1344.6188,-631.4973 1335.5283,-626.0555 1334.1189,-632.9122"/>
</g>
<!-- Node17 -->
<g id="node17" class="node">
<title>Node17</title>
<g id="a_node17"><a xlink:href="../../d0/dc4/classCETF.html#a8d19cc867f54575686cf448a2d17af38" target="_top" xlink:title=" ">
<polygon fill="none" stroke="#000000" points="1323.5,-591.5 1323.5,-612.5 1481.5,-612.5 1481.5,-591.5 1323.5,-591.5"/>
<text text-anchor="middle" x="1402.5" y="-598.9" font-family="Helvetica,sans-Serif" font-size="12.00" fill="#000000">CETF::getMStrPathToQqq</text>
</a>
</g>
</g>
<!-- Node13&#45;&gt;Node17 -->
<g id="edge16" class="edge">
<title>Node13&#45;&gt;Node17</title>
<path fill="none" stroke="#191970" d="M1237.604,-587.7848C1261.1279,-589.8128 1287.9357,-592.1238 1312.9996,-594.2844"/>
<polygon fill="#191970" stroke="#191970" points="1312.9832,-597.7959 1323.2469,-595.1678 1313.5845,-590.8218 1312.9832,-597.7959"/>
</g>
<!-- Node18 -->
<g id="node18" class="node">
<title>Node18</title>
<g id="a_node18"><a xlink:href="../../d0/dc4/classCETF.html#a477bc0a30dca4ce9bf7a9a52e121324b" target="_top" xlink:title=" ">
<polygon fill="none" stroke="#000000" points="1326.5,-551.5 1326.5,-572.5 1478.5,-572.5 1478.5,-551.5 1326.5,-551.5"/>
<text text-anchor="middle" x="1402.5" y="-558.9" font-family="Helvetica,sans-Serif" font-size="12.00" fill="#000000">CETF::getMStrPathToXlk</text>
</a>
</g>
</g>
<!-- Node13&#45;&gt;Node18 -->
<g id="edge17" class="edge">
<title>Node13&#45;&gt;Node18</title>
<path fill="none" stroke="#191970" d="M1237.604,-576.2152C1262.0595,-574.1069 1290.064,-571.6928 1315.9686,-569.4596"/>
<polygon fill="#191970" stroke="#191970" points="1316.498,-572.927 1326.1604,-568.581 1315.8968,-565.9529 1316.498,-572.927"/>
</g>
<!-- Node19 -->
<g id="node19" class="node">
<title>Node19</title>
<g id="a_node19"><a xlink:href="../../d7/d8f/classCStock.html#a157bab205439811406e6aa5da0fcaddd" target="_top" xlink:title=" ">
<polygon fill="none" stroke="#000000" points="1302,-511.5 1302,-532.5 1503,-532.5 1503,-511.5 1302,-511.5"/>
<text text-anchor="middle" x="1402.5" y="-518.9" font-family="Helvetica,sans-Serif" font-size="12.00" fill="#000000">CStock::getMStrPathtToAmznDate</text>
</a>
</g>
</g>
<!-- Node13&#45;&gt;Node19 -->
<g id="edge18" class="edge">
<title>Node13&#45;&gt;Node19</title>
<path fill="none" stroke="#191970" d="M1201.8743,-571.5C1228.3637,-562.8661 1267.3981,-550.683 1302,-542 1312.5027,-539.3644 1323.6924,-536.8515 1334.6488,-534.552"/>
<polygon fill="#191970" stroke="#191970" points="1335.5283,-537.9445 1344.6188,-532.5027 1334.1189,-531.0878 1335.5283,-537.9445"/>
</g>
<!-- Node20 -->
<g id="node20" class="node">
<title>Node20</title>
<g id="a_node20"><a xlink:href="../../dc/d85/classCAsset.html#a48d22720b57dc24776a9023be661bff9" target="_top" xlink:title="Method calculate mean of one Asset.">
<polygon fill="none" stroke="#000000" points="1335.5,-471.5 1335.5,-492.5 1469.5,-492.5 1469.5,-471.5 1335.5,-471.5"/>
<text text-anchor="middle" x="1402.5" y="-478.9" font-family="Helvetica,sans-Serif" font-size="12.00" fill="#000000">CAsset::meanOfAsset</text>
</a>
</g>
</g>
<!-- Node13&#45;&gt;Node20 -->
<g id="edge19" class="edge">
<title>Node13&#45;&gt;Node20</title>
<path fill="none" stroke="#191970" d="M1184.2308,-571.3739C1207.2542,-554.0987 1255.6862,-520.043 1302,-502 1309.4834,-499.0846 1317.4528,-496.5755 1325.5041,-494.42"/>
<polygon fill="#191970" stroke="#191970" points="1326.4851,-497.7826 1335.3383,-491.9627 1324.7881,-490.9914 1326.4851,-497.7826"/>
</g>
<!-- Node21 -->
<g id="node21" class="node">
<title>Node21</title>
<g id="a_node21"><a xlink:href="../../dc/d85/classCAsset.html#aa855b3cfd867f9788d1cc0e5db7c3870" target="_top" xlink:title="Method return diffrence between vector of returns and double value of mean of return of Asset.">
<polygon fill="none" stroke="#000000" points="1306.5,-431.5 1306.5,-452.5 1498.5,-452.5 1498.5,-431.5 1306.5,-431.5"/>
<text text-anchor="middle" x="1402.5" y="-438.9" font-family="Helvetica,sans-Serif" font-size="12.00" fill="#000000">CAsset::returnAndMeanDiffrence</text>
</a>
</g>
</g>
<!-- Node13&#45;&gt;Node21 -->
<g id="edge20" class="edge">
<title>Node13&#45;&gt;Node21</title>
<path fill="none" stroke="#191970" d="M1183.4669,-571.3213C1202.1203,-555.8282 1237.426,-526.0112 1266,-499 1282.6733,-483.2386 1281.8404,-472.9549 1302,-462 1306.1765,-459.7305 1310.5759,-457.7168 1315.1063,-455.9304"/>
<polygon fill="#191970" stroke="#191970" points="1316.3076,-459.218 1324.5598,-452.5733 1313.9651,-452.6215 1316.3076,-459.218"/>
</g>
<!-- Node22 -->
<g id="node22" class="node">
<title>Node22</title>
<g id="a_node22"><a xlink:href="../../dc/d85/classCAsset.html#a96031ecbece20a71af492b3cf5063f0b" target="_top" xlink:title="Method returns what is returns of one Asset in the setting period, get info for this from database.">
<polygon fill="none" stroke="#000000" points="1335.5,-751.5 1335.5,-772.5 1469.5,-772.5 1469.5,-751.5 1335.5,-751.5"/>
<text text-anchor="middle" x="1402.5" y="-758.9" font-family="Helvetica,sans-Serif" font-size="12.00" fill="#000000">CAsset::returnOfAsset</text>
</a>
</g>
</g>
<!-- Node13&#45;&gt;Node22 -->
<g id="edge21" class="edge">
<title>Node13&#45;&gt;Node22</title>
<path fill="none" stroke="#191970" d="M1175.8687,-592.7126C1191.1296,-621.9643 1237.8404,-703.5715 1302,-742 1309.2399,-746.3363 1317.2475,-749.7523 1325.4897,-752.4402"/>
<polygon fill="#191970" stroke="#191970" points="1324.6618,-755.8443 1335.2412,-755.2725 1326.6143,-749.1221 1324.6618,-755.8443"/>
</g>
<!-- Node23 -->
<g id="node23" class="node">
<title>Node23</title>
<g id="a_node23"><a xlink:href="../../dc/d85/classCAsset.html#ae862a51b2a6ea0668c19a07f081e0b3c" target="_top" xlink:title="Method helps to set size of vector for next method returnOfAsset()">
<polygon fill="none" stroke="#000000" points="1539,-751.5 1539,-772.5 1625,-772.5 1625,-751.5 1539,-751.5"/>
<text text-anchor="middle" x="1582" y="-758.9" font-family="Helvetica,sans-Serif" font-size="12.00" fill="#000000">CAsset::slice</text>
</a>
</g>
</g>
<!-- Node22&#45;&gt;Node23 -->
<g id="edge22" class="edge">
<title>Node22&#45;&gt;Node23</title>
<path fill="none" stroke="#191970" d="M1469.5944,-762C1489.171,-762 1510.2863,-762 1528.8725,-762"/>
<polygon fill="#191970" stroke="#191970" points="1528.9121,-765.5001 1538.9121,-762 1528.912,-758.5001 1528.9121,-765.5001"/>
</g>
<!-- Node27&#45;&gt;Node13 -->
<g id="edge28" class="edge">
<title>Node27&#45;&gt;Node13</title>
<path fill="none" stroke="#191970" d="M809.1937,-489.1288C867.1836,-492.4884 960.9913,-501.0903 1039,-523 1076.3325,-533.4853 1116.6542,-552.8963 1142.6659,-566.5845"/>
<polygon fill="#191970" stroke="#191970" points="1141.1002,-569.7162 1151.5696,-571.3415 1144.3988,-563.5421 1141.1002,-569.7162"/>
</g>
<!-- Node27&#45;&gt;Node24 -->
<g id="edge35" class="edge">
<title>Node27&#45;&gt;Node24</title>
<path fill="none" stroke="#191970" d="M802.0187,-497.5555C815.6211,-500.7377 830.4356,-504.3574 844,-508 868.3918,-514.5502 895.4205,-522.6917 917.1951,-529.4737"/>
<polygon fill="#191970" stroke="#191970" points="916.2126,-532.8336 926.8016,-532.4835 918.3055,-526.1537 916.2126,-532.8336"/>
</g>
<!-- Node28 -->
<g id="node28" class="node">
<title>Node28</title>
<g id="a_node28"><a xlink:href="../../d5/de1/classCDataBase.html#a763fc57fb5ad33e7d4ef92dd32698f34" target="_top" xlink:title="Method get and set data of Stocks to database in this program database are the files and relation wit...">
<polygon fill="none" stroke="#000000" points="880,-414.5 880,-435.5 1039,-435.5 1039,-414.5 880,-414.5"/>
<text text-anchor="middle" x="959.5" y="-421.9" font-family="Helvetica,sans-Serif" font-size="12.00" fill="#000000">CDataBase::inputForStock</text>
</a>
</g>
</g>
<!-- Node27&#45;&gt;Node28 -->
<g id="edge29" class="edge">
<title>Node27&#45;&gt;Node28</title>
<path fill="none" stroke="#191970" d="M783.9662,-476.4285C809.2721,-467.5208 846.8132,-454.7122 880,-445 888.1486,-442.6153 896.8166,-440.2559 905.3194,-438.0396"/>
<polygon fill="#191970" stroke="#191970" points="906.3666,-441.3844 915.1841,-435.5106 904.6281,-434.6037 906.3666,-441.3844"/>
</g>
<!-- Node32 -->
<g id="node32" class="node">
<title>Node32</title>
<g id="a_node32"><a xlink:href="../../d7/d8f/classCStock.html#a6540c1c901a28b07ddf9038ef8b7506f" target="_top" xlink:title="Method which gets the items of Stock info menu with the switch statement and the cases conditions.">
<polygon fill="none" stroke="#000000" points="900,-454.5 900,-475.5 1019,-475.5 1019,-454.5 900,-454.5"/>
<text text-anchor="middle" x="959.5" y="-461.9" font-family="Helvetica,sans-Serif" font-size="12.00" fill="#000000">CStock::stockMenu</text>
</a>
</g>
</g>
<!-- Node27&#45;&gt;Node32 -->
<g id="edge36" class="edge">
<title>Node27&#45;&gt;Node32</title>
<path fill="none" stroke="#191970" d="M809.1669,-481.1333C833.8786,-478.4813 863.3717,-475.3162 889.6631,-472.4947"/>
<polygon fill="#191970" stroke="#191970" points="890.3758,-475.9384 899.9452,-471.3912 889.6288,-468.9784 890.3758,-475.9384"/>
</g>
<!-- Node28&#45;&gt;Node13 -->
<g id="edge31" class="edge">
<title>Node28&#45;&gt;Node13</title>
<path fill="none" stroke="#191970" d="M1021.0175,-435.5123C1027.3971,-438.0276 1033.5351,-441.1427 1039,-445 1062.5656,-461.6332 1055.9445,-477.3462 1075,-499 1097.3482,-524.3955 1127.368,-549.2729 1147.7422,-565.0654"/>
<polygon fill="#191970" stroke="#191970" points="1145.7633,-567.9582 1155.833,-571.2525 1150.0155,-562.3977 1145.7633,-567.9582"/>
</g>
<!-- Node28&#45;&gt;Node26 -->
<g id="edge32" class="edge">
<title>Node28&#45;&gt;Node26</title>
<path fill="none" stroke="#191970" d="M1014.9378,-414.4905C1042.5712,-409.2519 1076.1699,-402.8825 1105.0612,-397.4055"/>
<polygon fill="#191970" stroke="#191970" points="1105.8935,-400.8101 1115.0665,-395.5087 1104.5896,-393.9326 1105.8935,-400.8101"/>
</g>
<!-- Node29 -->
<g id="node29" class="node">
<title>Node29</title>
<g id="a_node29"><a xlink:href="../../db/d52/classCRisk.html#aea7aecfae721440bbed175e109518464" target="_top" xlink:title="Method calculate matrix of covariance and variance for portfolio to help calculate risk of the portfo...">
<polygon fill="none" stroke="#000000" points="1089.5,-455 1089.5,-489 1251.5,-489 1251.5,-455 1089.5,-455"/>
<text text-anchor="start" x="1097.5" y="-475.4" font-family="Helvetica,sans-Serif" font-size="12.00" fill="#000000">CRisk::covarianceVariance</text>
<text text-anchor="middle" x="1170.5" y="-462.4" font-family="Helvetica,sans-Serif" font-size="12.00" fill="#000000">Matrix</text>
</a>
</g>
</g>
<!-- Node28&#45;&gt;Node29 -->
<g id="edge30" class="edge">
<title>Node28&#45;&gt;Node29</title>
<path fill="none" stroke="#191970" d="M1006.8525,-435.5477C1029.5855,-440.6115 1057.5569,-446.8421 1083.9025,-452.7105"/>
<polygon fill="#191970" stroke="#191970" points="1083.384,-456.1807 1093.9057,-454.9387 1084.9059,-449.3482 1083.384,-456.1807"/>
</g>
<!-- Node30 -->
<g id="node30" class="node">
<title>Node30</title>
<g id="a_node30"><a xlink:href="../../dd/d09/classCReturn.html#a4ae6568cb0c834cce8f257e8a82966c3" target="_top" xlink:title="Method calculate portfolio which have the biggest return with the lowest risk.">
<polygon fill="none" stroke="#000000" points="1095,-414.5 1095,-435.5 1246,-435.5 1246,-414.5 1095,-414.5"/>
<text text-anchor="middle" x="1170.5" y="-421.9" font-family="Helvetica,sans-Serif" font-size="12.00" fill="#000000">CReturn::optimalPortfolio</text>
</a>
</g>
</g>
<!-- Node28&#45;&gt;Node30 -->
<g id="edge33" class="edge">
<title>Node28&#45;&gt;Node30</title>
<path fill="none" stroke="#191970" d="M1039.2701,-425C1054.0621,-425 1069.5727,-425 1084.5397,-425"/>
<polygon fill="#191970" stroke="#191970" points="1084.7992,-428.5001 1094.7992,-425 1084.7991,-421.5001 1084.7992,-428.5001"/>
</g>
<!-- Node31 -->
<g id="node31" class="node">
<title>Node31</title>
<g id="a_node31"><a xlink:href="../../db/d52/classCRisk.html#a8742c21ca8a8034b4fe20b3676ab931b" target="_top" xlink:title="Method calculate risk of the portfolio &#45; standard deviation to help calculate std of portfolio taking...">
<polygon fill="none" stroke="#000000" points="1344.5,-391.5 1344.5,-412.5 1460.5,-412.5 1460.5,-391.5 1344.5,-391.5"/>
<text text-anchor="middle" x="1402.5" y="-398.9" font-family="Helvetica,sans-Serif" font-size="12.00" fill="#000000">CRisk::portfolioStd</text>
</a>
</g>
</g>
<!-- Node30&#45;&gt;Node31 -->
<g id="edge34" class="edge">
<title>Node30&#45;&gt;Node31</title>
<path fill="none" stroke="#191970" d="M1246.1445,-417.5008C1274.5265,-414.687 1306.5907,-411.5082 1334.2618,-408.765"/>
<polygon fill="#191970" stroke="#191970" points="1334.6367,-412.2451 1344.2426,-407.7755 1333.9461,-405.2792 1334.6367,-412.2451"/>
</g>
</g>
</svg>
