<?xml version="1.0" encoding="UTF-8" standalone="no"?>
<!DOCTYPE svg PUBLIC "-//W3C//DTD SVG 1.1//EN"
 "http://www.w3.org/Graphics/SVG/1.1/DTD/svg11.dtd">
<!-- Generated by graphviz version 2.40.1 (20161225.0304)
 -->
<!-- Title: CClient::getDataFromBaseString Pages: 1 -->
<svg width="464pt" height="68pt"
 viewBox="0.00 0.00 463.61 68.00" xmlns="http://www.w3.org/2000/svg" xmlns:xlink="http://www.w3.org/1999/xlink">
<g id="graph0" class="graph" transform="scale(1 1) rotate(0) translate(4 64)">
<title>CClient::getDataFromBaseString</title>
<!-- Node1 -->
<g id="node1" class="node">
<title>Node1</title>
<g id="a_node1"><a xlink:title=" ">
<polygon fill="#bfbfbf" stroke="#000000" points="0,-13.5 0,-45.5 135.457,-45.5 135.457,-13.5 0,-13.5"/>
<text text-anchor="start" x="8" y="-32.5" font-family="Helvetica,sans-Serif" font-size="10.00" fill="#000000">CClient::getDataFromBase</text>
<text text-anchor="middle" x="67.7285" y="-20.5" font-family="Helvetica,sans-Serif" font-size="10.00" fill="#000000">String</text>
</a>
</g>
</g>
<!-- Node2 -->
<g id="node2" class="node">
<title>Node2</title>
<g id="a_node2"><a xlink:href="../../dc/d85/classCAsset.html#ace101483df4bf277b7114b60501a3c3d" target="_top" xlink:title=" ">
<polygon fill="none" stroke="#000000" points="171.457,-19.5 171.457,-39.5 285.251,-39.5 285.251,-19.5 171.457,-19.5"/>
<text text-anchor="middle" x="228.354" y="-26.5" font-family="Helvetica,sans-Serif" font-size="10.00" fill="#000000">CAsset::getFromBase</text>
</a>
</g>
</g>
<!-- Node1&#45;&gt;Node2 -->
<g id="edge1" class="edge">
<title>Node1&#45;&gt;Node2</title>
<path fill="none" stroke="#191970" d="M135.8482,-29.5C144.237,-29.5 152.8075,-29.5 161.1821,-29.5"/>
<polygon fill="#191970" stroke="#191970" points="161.2748,-33.0001 171.2747,-29.5 161.2747,-26.0001 161.2748,-33.0001"/>
</g>
<!-- Node3 -->
<g id="node3" class="node">
<title>Node3</title>
<g id="a_node3"><a xlink:href="../../dc/d85/classCAsset.html#a250e2ea666e815df850ceb34297d95cd" target="_top" xlink:title=" ">
<polygon fill="none" stroke="#000000" points="326.8045,-39.5 326.8045,-59.5 450.0565,-59.5 450.0565,-39.5 326.8045,-39.5"/>
<text text-anchor="middle" x="388.4305" y="-46.5" font-family="Helvetica,sans-Serif" font-size="10.00" fill="#000000">CAsset::doubeVecToStr</text>
</a>
</g>
</g>
<!-- Node2&#45;&gt;Node3 -->
<g id="edge2" class="edge">
<title>Node2&#45;&gt;Node3</title>
<path fill="none" stroke="#191970" d="M285.6931,-36.664C295.6511,-37.9081 306.1201,-39.2161 316.4105,-40.5018"/>
<polygon fill="#191970" stroke="#191970" points="316.2591,-44.01 326.6159,-41.7769 317.127,-37.064 316.2591,-44.01"/>
</g>
<!-- Node4 -->
<g id="node4" class="node">
<title>Node4</title>
<g id="a_node4"><a xlink:href="../../d5/de1/classCDataBase.html#a05366b9fffcc574425739ec7007d59f1" target="_top" xlink:title=" ">
<polygon fill="none" stroke="#000000" points="321.251,-.5 321.251,-20.5 455.61,-20.5 455.61,-.5 321.251,-.5"/>
<text text-anchor="middle" x="388.4305" y="-7.5" font-family="Helvetica,sans-Serif" font-size="10.00" fill="#000000">CDataBase::inputForStock</text>
</a>
</g>
</g>
<!-- Node2&#45;&gt;Node4 -->
<g id="edge3" class="edge">
<title>Node2&#45;&gt;Node4</title>
<path fill="none" stroke="#191970" d="M285.6931,-22.6942C293.9466,-21.7146 302.5511,-20.6933 311.114,-19.6769"/>
<polygon fill="#191970" stroke="#191970" points="311.6058,-23.1432 321.1235,-18.4889 310.7807,-16.192 311.6058,-23.1432"/>
</g>
</g>
</svg>
