<?xml version="1.0" encoding="UTF-8" standalone="no"?>
<!DOCTYPE svg PUBLIC "-//W3C//DTD SVG 1.1//EN"
 "http://www.w3.org/Graphics/SVG/1.1/DTD/svg11.dtd">
<!-- Generated by graphviz version 2.40.1 (20161225.0304)
 -->
<!-- Title: main.cpp Pages: 1 -->
<!--zoomable 494 -->
<svg id="main" version="1.1" xmlns="http://www.w3.org/2000/svg" xmlns:xlink="http://www.w3.org/1999/xlink" xml:space="preserve" onload="init(evt)">
<style type="text/css"><![CDATA[
.edge:hover path { stroke: red; }
.edge:hover polygon { stroke: red; fill: red; }
]]></style>
<script type="text/javascript"><![CDATA[
var edges = document.getElementsByTagName('g');
if (edges && edges.length) {
  for (var i=0;i<edges.length;i++) {
    if (edges[i].id.substr(0,4)=='edge') {
      edges[i].setAttribute('class','edge');
    }
  }
}
]]></script>
        <defs>
                <circle id="rim" cx="0" cy="0" r="7"/>
                <circle id="rim2" cx="0" cy="0" r="3.5"/>
                <g id="zoomPlus">
                        <use xlink:href="#rim" fill="#404040">
                                <set attributeName="fill" to="#808080" begin="zoomplus.mouseover" end="zoomplus.mouseout"/>
                        </use>
                        <path d="M-4,0h8M0,-4v8" fill="none" stroke="white" stroke-width="1.5" pointer-events="none"/>
                </g>
                <g id="zoomMin">
                        <use xlink:href="#rim" fill="#404040">
                                <set attributeName="fill" to="#808080" begin="zoomminus.mouseover" end="zoomminus.mouseout"/>
                        </use>
                        <path d="M-4,0h8" fill="none" stroke="white" stroke-width="1.5" pointer-events="none"/>
                </g>
                <g id="dirArrow">
                        <path fill="none" stroke="white" stroke-width="1.5" d="M0,-3.0v7 M-2.5,-0.5L0,-3.0L2.5,-0.5"/>
                </g>
               <g id="resetDef">
                       <use xlink:href="#rim2" fill="#404040">
                               <set attributeName="fill" to="#808080" begin="reset.mouseover" end="reset.mouseout"/>
                       </use>
               </g>
        </defs>

<script type="text/javascript">
var viewWidth = 851;
var viewHeight = 494;
var sectionId = 'dynsection-0';
</script>
<script xlink:href="../../svgpan.js"/>
<svg id="graph" class="graph">
<g id="viewport">
<title>main.cpp</title>
<!-- Node1 -->
<g id="node1" class="node">
<title>Node1</title>
<g id="a_node1"><a xlink:title=" ">
<polygon fill="#bfbfbf" stroke="#000000" points="408.5,-464.5 408.5,-485.5 473.5,-485.5 473.5,-464.5 408.5,-464.5"/>
<text text-anchor="middle" x="441" y="-471.9" font-family="Helvetica,sans-Serif" font-size="12.00" fill="#000000">main.cpp</text>
</a>
</g>
</g>
<!-- Node2 -->
<g id="node2" class="node">
<title>Node2</title>
<g id="a_node2"><a xlink:title=" ">
<polygon fill="none" stroke="#bfbfbf" points="243,-.5 243,-21.5 305,-21.5 305,-.5 243,-.5"/>
<text text-anchor="middle" x="274" y="-7.9" font-family="Helvetica,sans-Serif" font-size="12.00" fill="#000000">iostream</text>
</a>
</g>
</g>
<!-- Node1&#45;&gt;Node2 -->
<g id="edge1" class="edge">
<title>Node1&#45;&gt;Node2</title>
<path fill="none" stroke="#191970" d="M408.3695,-473.6571C328.7612,-469.9462 126.7356,-457.7865 67,-428 28.7466,-408.9254 0,-401.7453 0,-359 0,-359 0,-359 0,-127 0,-80.0464 38.238,-79.4611 80,-58 129.0539,-32.7917 192.0924,-20.7617 232.7703,-15.2671"/>
<polygon fill="#191970" stroke="#191970" points="233.3858,-18.717 242.8608,-13.9765 232.4976,-11.7736 233.3858,-18.717"/>
</g>
<!-- Node3 -->
<g id="node3" class="node">
<title>Node3</title>
<g id="a_node3"><a xlink:href="../../dd/d2c/CClient_8h.html" target="_top" xlink:title=" ">
<polygon fill="none" stroke="#000000" points="186.5,-348.5 186.5,-369.5 299.5,-369.5 299.5,-348.5 186.5,-348.5"/>
<text text-anchor="middle" x="243" y="-355.9" font-family="Helvetica,sans-Serif" font-size="12.00" fill="#000000">headers/CClient.h</text>
</a>
</g>
</g>
<!-- Node1&#45;&gt;Node3 -->
<g id="edge2" class="edge">
<title>Node1&#45;&gt;Node3</title>
<path fill="none" stroke="#191970" d="M422.7275,-464.2949C387.6448,-443.7414 310.7122,-398.6698 269.8083,-374.7059"/>
<polygon fill="#191970" stroke="#191970" points="271.3399,-371.5468 260.9423,-369.5117 267.8014,-377.5866 271.3399,-371.5468"/>
</g>
<!-- Node7 -->
<g id="node7" class="node">
<title>Node7</title>
<g id="a_node7"><a xlink:href="../../df/d1a/CBroker_8h.html" target="_top" xlink:title=" ">
<polygon fill="none" stroke="#000000" points="393.5,-232.5 393.5,-253.5 464.5,-253.5 464.5,-232.5 393.5,-232.5"/>
<text text-anchor="middle" x="429" y="-239.9" font-family="Helvetica,sans-Serif" font-size="12.00" fill="#000000">CBroker.h</text>
</a>
</g>
</g>
<!-- Node1&#45;&gt;Node7 -->
<g id="edge29" class="edge">
<title>Node1&#45;&gt;Node7</title>
<path fill="none" stroke="#191970" d="M440.4532,-464.4286C438.6025,-428.6481 432.5515,-311.6628 430.0732,-263.7481"/>
<polygon fill="#191970" stroke="#191970" points="433.562,-263.4393 429.55,-253.6335 426.5713,-263.801 433.562,-263.4393"/>
</g>
<!-- Node13 -->
<g id="node13" class="node">
<title>Node13</title>
<g id="a_node13"><a xlink:href="../../d7/d79/CAsset_8h.html" target="_top" xlink:title=" ">
<polygon fill="none" stroke="#000000" points="648.5,-174.5 648.5,-195.5 713.5,-195.5 713.5,-174.5 648.5,-174.5"/>
<text text-anchor="middle" x="681" y="-181.9" font-family="Helvetica,sans-Serif" font-size="12.00" fill="#000000">CAsset.h</text>
</a>
</g>
</g>
<!-- Node1&#45;&gt;Node13 -->
<g id="edge49" class="edge">
<title>Node1&#45;&gt;Node13</title>
<path fill="none" stroke="#191970" d="M473.8235,-470.4399C527.0075,-462.6475 629.2655,-445.8701 661,-428 697.7106,-407.3277 726,-401.1309 726,-359 726,-359 726,-359 726,-301 726,-264.8991 706.8215,-226.4958 693.5051,-204.1822"/>
<polygon fill="#191970" stroke="#191970" points="696.4685,-202.3196 688.23,-195.6579 690.5161,-206.0031 696.4685,-202.3196"/>
</g>
<!-- Node15 -->
<g id="node15" class="node">
<title>Node15</title>
<g id="a_node15"><a xlink:href="../../d6/d5c/CAdministrator_8h.html" target="_top" xlink:title=" ">
<polygon fill="none" stroke="#000000" points="76,-406.5 76,-427.5 228,-427.5 228,-406.5 76,-406.5"/>
<text text-anchor="middle" x="152" y="-413.9" font-family="Helvetica,sans-Serif" font-size="12.00" fill="#000000">headers/CAdministrator.h</text>
</a>
</g>
</g>
<!-- Node1&#45;&gt;Node15 -->
<g id="edge30" class="edge">
<title>Node1&#45;&gt;Node15</title>
<path fill="none" stroke="#191970" d="M408.4098,-468.4594C361.5224,-459.0495 274.1304,-441.5106 214.5333,-429.5499"/>
<polygon fill="#191970" stroke="#191970" points="214.9755,-426.069 204.4823,-427.5328 213.5981,-432.9321 214.9755,-426.069"/>
</g>
<!-- Node16 -->
<g id="node16" class="node">
<title>Node16</title>
<g id="a_node16"><a xlink:href="../../d1/dea/CPortfolio_8h.html" target="_top" xlink:title=" ">
<polygon fill="none" stroke="#000000" points="526,-406.5 526,-427.5 652,-427.5 652,-406.5 526,-406.5"/>
<text text-anchor="middle" x="589" y="-413.9" font-family="Helvetica,sans-Serif" font-size="12.00" fill="#000000">headers/CPortfolio.h</text>
</a>
</g>
</g>
<!-- Node1&#45;&gt;Node16 -->
<g id="edge35" class="edge">
<title>Node1&#45;&gt;Node16</title>
<path fill="none" stroke="#191970" d="M467.8017,-464.4966C491.438,-455.2337 526.1003,-441.6499 552.3079,-431.3793"/>
<polygon fill="#191970" stroke="#191970" points="553.8641,-434.5287 561.8976,-427.6212 551.3099,-428.0113 553.8641,-434.5287"/>
</g>
<!-- Node17 -->
<g id="node17" class="node">
<title>Node17</title>
<g id="a_node17"><a xlink:href="../../d2/d2d/CStock_8h.html" target="_top" xlink:title=" ">
<polygon fill="none" stroke="#000000" points="526.5,-290.5 526.5,-311.5 591.5,-311.5 591.5,-290.5 526.5,-290.5"/>
<text text-anchor="middle" x="559" y="-297.9" font-family="Helvetica,sans-Serif" font-size="12.00" fill="#000000">CStock.h</text>
</a>
</g>
</g>
<!-- Node1&#45;&gt;Node17 -->
<g id="edge50" class="edge">
<title>Node1&#45;&gt;Node17</title>
<path fill="none" stroke="#191970" d="M448.2038,-464.3774C467.578,-435.8088 521.0115,-357.017 545.9116,-320.2999"/>
<polygon fill="#191970" stroke="#191970" points="548.8732,-322.1685 551.5892,-311.9277 543.0798,-318.2396 548.8732,-322.1685"/>
</g>
<!-- Node18 -->
<g id="node18" class="node">
<title>Node18</title>
<g id="a_node18"><a xlink:href="../../dc/d09/CETF_8h.html" target="_top" xlink:title=" ">
<polygon fill="none" stroke="#000000" points="754.5,-348.5 754.5,-369.5 813.5,-369.5 813.5,-348.5 754.5,-348.5"/>
<text text-anchor="middle" x="784" y="-355.9" font-family="Helvetica,sans-Serif" font-size="12.00" fill="#000000">CETF.h</text>
</a>
</g>
</g>
<!-- Node1&#45;&gt;Node18 -->
<g id="edge51" class="edge">
<title>Node1&#45;&gt;Node18</title>
<path fill="none" stroke="#191970" d="M473.6442,-473.2265C541.8044,-468.9928 696.5272,-456.4524 740,-428 757.6505,-416.448 769.6278,-395.0855 776.5753,-379.1783"/>
<polygon fill="#191970" stroke="#191970" points="779.916,-380.2534 780.4236,-369.6707 773.4273,-377.627 779.916,-380.2534"/>
</g>
<!-- Node3&#45;&gt;Node2 -->
<g id="edge3" class="edge">
<title>Node3&#45;&gt;Node2</title>
<path fill="none" stroke="#191970" d="M215.0089,-348.4621C177.069,-332.1451 114,-296.9128 114,-243 114,-243 114,-243 114,-127 114,-68.2219 185.652,-36.1644 233.0573,-21.3871"/>
<polygon fill="#191970" stroke="#191970" points="234.1866,-24.7028 242.7706,-18.4927 232.1875,-17.9943 234.1866,-24.7028"/>
</g>
<!-- Node4 -->
<g id="node4" class="node">
<title>Node4</title>
<g id="a_node4"><a xlink:title=" ">
<polygon fill="none" stroke="#bfbfbf" points="342,-58.5 342,-79.5 388,-79.5 388,-58.5 342,-58.5"/>
<text text-anchor="middle" x="365" y="-65.9" font-family="Helvetica,sans-Serif" font-size="12.00" fill="#000000">string</text>
</a>
</g>
</g>
<!-- Node3&#45;&gt;Node4 -->
<g id="edge4" class="edge">
<title>Node3&#45;&gt;Node4</title>
<path fill="none" stroke="#191970" d="M242.4351,-348.4797C241.9952,-334.7443 242.2323,-310.0867 248,-290 271.0851,-209.6037 325.6953,-125.0398 351.301,-88.1216"/>
<polygon fill="#191970" stroke="#191970" points="354.2666,-89.9888 357.1492,-79.7936 348.538,-85.9659 354.2666,-89.9888"/>
</g>
<!-- Node5 -->
<g id="node5" class="node">
<title>Node5</title>
<g id="a_node5"><a xlink:href="../../de/d98/CUser_8h.html" target="_top" xlink:title=" ">
<polygon fill="none" stroke="#000000" points="142.5,-174.5 142.5,-195.5 203.5,-195.5 203.5,-174.5 142.5,-174.5"/>
<text text-anchor="middle" x="173" y="-181.9" font-family="Helvetica,sans-Serif" font-size="12.00" fill="#000000">CUser.h</text>
</a>
</g>
</g>
<!-- Node3&#45;&gt;Node5 -->
<g id="edge5" class="edge">
<title>Node3&#45;&gt;Node5</title>
<path fill="none" stroke="#191970" d="M235.3024,-348.2149C228.949,-338.9493 220.0288,-325.0574 214,-312 197.3331,-275.9025 184.5877,-231.1326 177.9956,-205.5375"/>
<polygon fill="#191970" stroke="#191970" points="181.3114,-204.3706 175.4806,-195.5245 174.5222,-206.0759 181.3114,-204.3706"/>
</g>
<!-- Node6 -->
<g id="node6" class="node">
<title>Node6</title>
<g id="a_node6"><a xlink:href="../../df/dca/CMyHoldings_8h.html" target="_top" xlink:title=" ">
<polygon fill="none" stroke="#000000" points="256.5,-290.5 256.5,-311.5 355.5,-311.5 355.5,-290.5 256.5,-290.5"/>
<text text-anchor="middle" x="306" y="-297.9" font-family="Helvetica,sans-Serif" font-size="12.00" fill="#000000">CMyHoldings.h</text>
</a>
</g>
</g>
<!-- Node3&#45;&gt;Node6 -->
<g id="edge7" class="edge">
<title>Node3&#45;&gt;Node6</title>
<path fill="none" stroke="#191970" d="M254.5552,-348.3619C263.6134,-340.0226 276.4097,-328.2418 286.9737,-318.5162"/>
<polygon fill="#191970" stroke="#191970" points="289.5317,-320.9187 294.5181,-311.5707 284.7905,-315.7688 289.5317,-320.9187"/>
</g>
<!-- Node8 -->
<g id="node8" class="node">
<title>Node8</title>
<g id="a_node8"><a xlink:href="../../dd/d85/CDataBase_8h.html" target="_top" xlink:title=" ">
<polygon fill="none" stroke="#000000" points="507.5,-116.5 507.5,-137.5 596.5,-137.5 596.5,-116.5 507.5,-116.5"/>
<text text-anchor="middle" x="552" y="-123.9" font-family="Helvetica,sans-Serif" font-size="12.00" fill="#000000">CDataBase.h</text>
</a>
</g>
</g>
<!-- Node3&#45;&gt;Node8 -->
<g id="edge28" class="edge">
<title>Node3&#45;&gt;Node8</title>
<path fill="none" stroke="#191970" d="M286.557,-348.4043C336.9523,-334.2445 419.9164,-304.8419 474,-254 507.2669,-222.7271 531.7319,-174.2266 543.7235,-147.1061"/>
<polygon fill="#191970" stroke="#191970" points="546.973,-148.4091 547.701,-137.8393 540.5405,-145.6481 546.973,-148.4091"/>
</g>
<!-- Node5&#45;&gt;Node4 -->
<g id="edge6" class="edge">
<title>Node5&#45;&gt;Node4</title>
<path fill="none" stroke="#191970" d="M177.1296,-174.4925C183.5956,-159.377 197.5248,-131.6033 218,-116 251.6978,-90.3203 299.8509,-78.4324 331.7454,-73.0961"/>
<polygon fill="#191970" stroke="#191970" points="332.5464,-76.5139 341.8942,-71.5271 331.4768,-69.5961 332.5464,-76.5139"/>
</g>
<!-- Node6&#45;&gt;Node4 -->
<g id="edge27" class="edge">
<title>Node6&#45;&gt;Node4</title>
<path fill="none" stroke="#191970" d="M308.4454,-290.1076C314.9193,-261.4682 333.228,-181.7323 351,-116 353.3485,-107.3136 356.1441,-97.7888 358.6172,-89.5984"/>
<polygon fill="#191970" stroke="#191970" points="362.0415,-90.3691 361.618,-79.7827 355.3473,-88.3225 362.0415,-90.3691"/>
</g>
<!-- Node6&#45;&gt;Node7 -->
<g id="edge8" class="edge">
<title>Node6&#45;&gt;Node7</title>
<path fill="none" stroke="#191970" d="M328.2744,-290.4966C347.5719,-281.397 375.7129,-268.1273 397.348,-257.9253"/>
<polygon fill="#191970" stroke="#191970" points="398.9236,-261.052 406.4757,-253.6212 395.938,-254.7206 398.9236,-261.052"/>
</g>
<!-- Node7&#45;&gt;Node4 -->
<g id="edge20" class="edge">
<title>Node7&#45;&gt;Node4</title>
<path fill="none" stroke="#191970" d="M425.0929,-232.3774C414.7184,-204.1719 386.3378,-127.0121 372.6213,-89.7203"/>
<polygon fill="#191970" stroke="#191970" points="375.7564,-88.1048 369.0194,-79.9277 369.1867,-90.5212 375.7564,-88.1048"/>
</g>
<!-- Node7&#45;&gt;Node5 -->
<g id="edge9" class="edge">
<title>Node7&#45;&gt;Node5</title>
<path fill="none" stroke="#191970" d="M393.4043,-234.9353C346.3318,-224.2705 263.5583,-205.5171 213.9461,-194.2769"/>
<polygon fill="#191970" stroke="#191970" points="214.4138,-190.7942 203.8875,-191.998 212.867,-197.6211 214.4138,-190.7942"/>
</g>
<!-- Node7&#45;&gt;Node8 -->
<g id="edge10" class="edge">
<title>Node7&#45;&gt;Node8</title>
<path fill="none" stroke="#191970" d="M435.9838,-232.3883C445.6891,-218.1157 464.2964,-192.4038 484,-174 496.4411,-162.3796 511.9533,-151.4367 525.019,-143.0385"/>
<polygon fill="#191970" stroke="#191970" points="526.9932,-145.9318 533.6059,-137.6539 523.2744,-140.0013 526.9932,-145.9318"/>
</g>
<!-- Node7&#45;&gt;Node13 -->
<g id="edge21" class="edge">
<title>Node7&#45;&gt;Node13</title>
<path fill="none" stroke="#191970" d="M464.571,-234.813C510.2961,-224.289 589.6025,-206.0359 638.4673,-194.7893"/>
<polygon fill="#191970" stroke="#191970" points="639.4493,-198.1549 648.4094,-192.501 637.8791,-191.3332 639.4493,-198.1549"/>
</g>
<!-- Node8&#45;&gt;Node2 -->
<g id="edge11" class="edge">
<title>Node8&#45;&gt;Node2</title>
<path fill="none" stroke="#191970" d="M529.3173,-116.4422C499.2643,-102.56 444.503,-77.6324 397,-58 368.9615,-46.4121 336.9373,-34.2074 312.5953,-25.1397"/>
<polygon fill="#191970" stroke="#191970" points="313.595,-21.7775 303.002,-21.5802 311.1599,-28.3403 313.595,-21.7775"/>
</g>
<!-- Node8&#45;&gt;Node4 -->
<g id="edge12" class="edge">
<title>Node8&#45;&gt;Node4</title>
<path fill="none" stroke="#191970" d="M518.1357,-116.4966C483.9885,-105.9055 431.628,-89.6654 397.8479,-79.1881"/>
<polygon fill="#191970" stroke="#191970" points="398.5896,-75.7537 388.0016,-76.1342 396.5159,-82.4395 398.5896,-75.7537"/>
</g>
<!-- Node9 -->
<g id="node9" class="node">
<title>Node9</title>
<g id="a_node9"><a xlink:title=" ">
<polygon fill="none" stroke="#bfbfbf" points="462,-58.5 462,-79.5 518,-79.5 518,-58.5 462,-58.5"/>
<text text-anchor="middle" x="490" y="-65.9" font-family="Helvetica,sans-Serif" font-size="12.00" fill="#000000">fstream</text>
</a>
</g>
</g>
<!-- Node8&#45;&gt;Node9 -->
<g id="edge13" class="edge">
<title>Node8&#45;&gt;Node9</title>
<path fill="none" stroke="#191970" d="M540.6282,-116.3619C531.7138,-108.0226 519.1206,-96.2418 508.7243,-86.5162"/>
<polygon fill="#191970" stroke="#191970" points="510.9935,-83.8463 501.2997,-79.5707 506.2113,-88.9582 510.9935,-83.8463"/>
</g>
<!-- Node10 -->
<g id="node10" class="node">
<title>Node10</title>
<g id="a_node10"><a xlink:title=" ">
<polygon fill="none" stroke="#bfbfbf" points="658.5,-.5 658.5,-21.5 707.5,-21.5 707.5,-.5 658.5,-.5"/>
<text text-anchor="middle" x="683" y="-7.9" font-family="Helvetica,sans-Serif" font-size="12.00" fill="#000000">vector</text>
</a>
</g>
</g>
<!-- Node8&#45;&gt;Node10 -->
<g id="edge14" class="edge">
<title>Node8&#45;&gt;Node10</title>
<path fill="none" stroke="#191970" d="M558.3014,-116.1592C567.1356,-101.6269 584.342,-75.6218 604,-58 617.9741,-45.4733 635.7794,-34.5378 650.9476,-26.3748"/>
<polygon fill="#191970" stroke="#191970" points="652.7426,-29.3861 659.9934,-21.661 649.5077,-23.1784 652.7426,-29.3861"/>
</g>
<!-- Node11 -->
<g id="node11" class="node">
<title>Node11</title>
<g id="a_node11"><a xlink:href="../../d2/d92/CRisk_8h.html" target="_top" xlink:title=" ">
<polygon fill="none" stroke="#000000" points="612.5,-58.5 612.5,-79.5 671.5,-79.5 671.5,-58.5 612.5,-58.5"/>
<text text-anchor="middle" x="642" y="-65.9" font-family="Helvetica,sans-Serif" font-size="12.00" fill="#000000">CRisk.h</text>
</a>
</g>
</g>
<!-- Node8&#45;&gt;Node11 -->
<g id="edge15" class="edge">
<title>Node8&#45;&gt;Node11</title>
<path fill="none" stroke="#191970" d="M568.5074,-116.3619C582.0821,-107.6138 601.5332,-95.0786 617.015,-85.1015"/>
<polygon fill="#191970" stroke="#191970" points="619.0875,-87.9297 625.5973,-79.5707 615.2956,-82.0457 619.0875,-87.9297"/>
</g>
<!-- Node12 -->
<g id="node12" class="node">
<title>Node12</title>
<g id="a_node12"><a xlink:href="../../d3/d97/CReturn_8h.html" target="_top" xlink:title=" ">
<polygon fill="none" stroke="#000000" points="689.5,-58.5 689.5,-79.5 760.5,-79.5 760.5,-58.5 689.5,-58.5"/>
<text text-anchor="middle" x="725" y="-65.9" font-family="Helvetica,sans-Serif" font-size="12.00" fill="#000000">CReturn.h</text>
</a>
</g>
</g>
<!-- Node8&#45;&gt;Node12 -->
<g id="edge18" class="edge">
<title>Node8&#45;&gt;Node12</title>
<path fill="none" stroke="#191970" d="M583.329,-116.4966C611.5327,-107.0411 653.1666,-93.0829 684.0085,-82.7428"/>
<polygon fill="#191970" stroke="#191970" points="685.2435,-86.0203 693.6122,-79.5231 683.0183,-79.3834 685.2435,-86.0203"/>
</g>
<!-- Node11&#45;&gt;Node2 -->
<g id="edge16" class="edge">
<title>Node11&#45;&gt;Node2</title>
<path fill="none" stroke="#191970" d="M612.2694,-61.1354C607.5148,-60.0026 602.6353,-58.9132 598,-58 497.0468,-38.1113 376.855,-22.8487 315.1143,-15.6148"/>
<polygon fill="#191970" stroke="#191970" points="315.3378,-12.1173 305.0009,-14.4406 314.5305,-19.0706 315.3378,-12.1173"/>
</g>
<!-- Node11&#45;&gt;Node10 -->
<g id="edge17" class="edge">
<title>Node11&#45;&gt;Node10</title>
<path fill="none" stroke="#191970" d="M649.52,-58.3619C655.1261,-50.4313 662.9322,-39.3885 669.5968,-29.9606"/>
<polygon fill="#191970" stroke="#191970" points="672.6133,-31.7568 675.5276,-21.5707 666.8972,-27.7161 672.6133,-31.7568"/>
</g>
<!-- Node12&#45;&gt;Node10 -->
<g id="edge19" class="edge">
<title>Node12&#45;&gt;Node10</title>
<path fill="none" stroke="#191970" d="M717.2966,-58.3619C711.5537,-50.4313 703.5572,-39.3885 696.7301,-29.9606"/>
<polygon fill="#191970" stroke="#191970" points="699.3546,-27.6173 690.6546,-21.5707 693.6849,-31.7229 699.3546,-27.6173"/>
</g>
<!-- Node13&#45;&gt;Node2 -->
<g id="edge22" class="edge">
<title>Node13&#45;&gt;Node2</title>
<path fill="none" stroke="#191970" d="M681.7459,-174.3635C682.1988,-159.5917 680.8344,-132.7926 667,-116 645.5876,-90.009 559.2862,-67.572 527,-58 454.0219,-36.3639 366.1168,-22.7086 315.4803,-15.9948"/>
<polygon fill="#191970" stroke="#191970" points="315.627,-12.4845 305.2594,-14.6671 314.7252,-19.4262 315.627,-12.4845"/>
</g>
<!-- Node13&#45;&gt;Node4 -->
<g id="edge23" class="edge">
<title>Node13&#45;&gt;Node4</title>
<path fill="none" stroke="#191970" d="M648.436,-178.8781C611.4889,-171.4114 549.773,-157.3502 499,-138 493.6042,-135.9436 431.9259,-103.91 394.1565,-84.2221"/>
<polygon fill="#191970" stroke="#191970" points="395.6032,-81.0292 385.118,-79.5084 392.3663,-87.2359 395.6032,-81.0292"/>
</g>
<!-- Node13&#45;&gt;Node8 -->
<g id="edge26" class="edge">
<title>Node13&#45;&gt;Node8</title>
<path fill="none" stroke="#191970" d="M657.6391,-174.4966C637.3094,-165.3562 607.6216,-152.0082 584.8911,-141.7883"/>
<polygon fill="#191970" stroke="#191970" points="586.1789,-138.5298 575.6231,-137.6212 583.3083,-144.9142 586.1789,-138.5298"/>
</g>
<!-- Node13&#45;&gt;Node10 -->
<g id="edge24" class="edge">
<title>Node13&#45;&gt;Node10</title>
<path fill="none" stroke="#191970" d="M694.91,-174.2707C715.9325,-157.07 754.9409,-121.0561 770,-80 773.3671,-70.8202 775.0082,-66.3978 770,-58 758.6185,-38.9152 736.505,-27.1141 717.4217,-20.1102"/>
<polygon fill="#191970" stroke="#191970" points="718.3856,-16.7418 707.7915,-16.8717 716.1543,-23.3767 718.3856,-16.7418"/>
</g>
<!-- Node14 -->
<g id="node14" class="node">
<title>Node14</title>
<g id="a_node14"><a xlink:title=" ">
<polygon fill="none" stroke="#bfbfbf" points="614.5,-116.5 614.5,-137.5 657.5,-137.5 657.5,-116.5 614.5,-116.5"/>
<text text-anchor="middle" x="636" y="-123.9" font-family="Helvetica,sans-Serif" font-size="12.00" fill="#000000">tuple</text>
</a>
</g>
</g>
<!-- Node13&#45;&gt;Node14 -->
<g id="edge25" class="edge">
<title>Node13&#45;&gt;Node14</title>
<path fill="none" stroke="#191970" d="M672.7463,-174.3619C666.5299,-166.3496 657.8487,-155.1605 650.485,-145.6696"/>
<polygon fill="#191970" stroke="#191970" points="653.0967,-143.326 644.2014,-137.5707 647.5661,-147.617 653.0967,-143.326"/>
</g>
<!-- Node15&#45;&gt;Node2 -->
<g id="edge31" class="edge">
<title>Node15&#45;&gt;Node2</title>
<path fill="none" stroke="#191970" d="M128.9304,-406.4077C95.6193,-389.3399 38,-352.3899 38,-301 38,-301 38,-301 38,-127 38,-84.1179 165.0821,-41.7067 232.7369,-22.1666"/>
<polygon fill="#191970" stroke="#191970" points="234.0016,-25.4457 242.661,-19.3412 232.0848,-18.7133 234.0016,-25.4457"/>
</g>
<!-- Node15&#45;&gt;Node3 -->
<g id="edge34" class="edge">
<title>Node15&#45;&gt;Node3</title>
<path fill="none" stroke="#191970" d="M168.6908,-406.3619C182.4163,-397.6138 202.0836,-385.0786 217.7374,-375.1015"/>
<polygon fill="#191970" stroke="#191970" points="219.8634,-377.8969 226.415,-369.5707 216.101,-371.994 219.8634,-377.8969"/>
</g>
<!-- Node15&#45;&gt;Node4 -->
<g id="edge32" class="edge">
<title>Node15&#45;&gt;Node4</title>
<path fill="none" stroke="#191970" d="M138.7618,-406.3753C116.9873,-387.6058 76,-346.2634 76,-301 76,-301 76,-301 76,-185 76,-130.3952 255.9353,-89.74 331.8469,-75.018"/>
<polygon fill="#191970" stroke="#191970" points="332.6704,-78.4241 341.8384,-73.114 331.36,-71.5479 332.6704,-78.4241"/>
</g>
<!-- Node15&#45;&gt;Node5 -->
<g id="edge33" class="edge">
<title>Node15&#45;&gt;Node5</title>
<path fill="none" stroke="#191970" d="M152.9569,-406.4286C156.1956,-370.6481 166.7848,-253.6628 171.1219,-205.7481"/>
<polygon fill="#191970" stroke="#191970" points="174.6217,-205.9083 172.0375,-195.6335 167.6502,-205.2772 174.6217,-205.9083"/>
</g>
<!-- Node16&#45;&gt;Node3 -->
<g id="edge38" class="edge">
<title>Node16&#45;&gt;Node3</title>
<path fill="none" stroke="#191970" d="M526.342,-406.4966C465.1895,-396.2456 372.4674,-380.7026 309.903,-370.215"/>
<polygon fill="#191970" stroke="#191970" points="310.1862,-366.7137 299.7452,-368.5122 309.0289,-373.6173 310.1862,-366.7137"/>
</g>
<!-- Node16&#45;&gt;Node4 -->
<g id="edge36" class="edge">
<title>Node16&#45;&gt;Node4</title>
<path fill="none" stroke="#191970" d="M565.8129,-406.4524C521.6306,-384.9594 426.125,-331.4834 385,-254 356.5743,-200.4433 359.0791,-125.9769 362.4401,-90.0485"/>
<polygon fill="#191970" stroke="#191970" points="365.9513,-90.1257 363.5232,-79.8129 358.9902,-89.389 365.9513,-90.1257"/>
</g>
<!-- Node16&#45;&gt;Node6 -->
<g id="edge48" class="edge">
<title>Node16&#45;&gt;Node6</title>
<path fill="none" stroke="#191970" d="M527.3209,-406.4214C491.473,-398.9538 446.0173,-387.1789 408,-370 377.6213,-356.2727 346.4086,-333.6697 326.6479,-318.0957"/>
<polygon fill="#191970" stroke="#191970" points="328.6581,-315.2213 318.6673,-311.6949 324.2784,-320.682 328.6581,-315.2213"/>
</g>
<!-- Node16&#45;&gt;Node7 -->
<g id="edge44" class="edge">
<title>Node16&#45;&gt;Node7</title>
<path fill="none" stroke="#191970" d="M579.2321,-406.3774C552.7395,-377.5667 479.2786,-297.6779 445.897,-261.3755"/>
<polygon fill="#191970" stroke="#191970" points="448.3936,-258.9197 439.0485,-253.9277 443.2409,-263.6578 448.3936,-258.9197"/>
</g>
<!-- Node16&#45;&gt;Node8 -->
<g id="edge47" class="edge">
<title>Node16&#45;&gt;Node8</title>
<path fill="none" stroke="#191970" d="M590.6304,-406.3025C593.4271,-387.3533 599.0281,-346.6213 601,-312 604.5272,-250.0724 576.8517,-180.0825 561.6067,-146.7223"/>
<polygon fill="#191970" stroke="#191970" points="564.7399,-145.1602 557.3229,-137.5947 558.4031,-148.1343 564.7399,-145.1602"/>
</g>
<!-- Node16&#45;&gt;Node11 -->
<g id="edge45" class="edge">
<title>Node16&#45;&gt;Node11</title>
<path fill="none" stroke="#191970" d="M624.1726,-406.3579C684.6706,-385.626 802,-333.7238 802,-243 802,-243 802,-243 802,-185 802,-153.5433 719.9113,-107.6358 673.3306,-84.1181"/>
<polygon fill="#191970" stroke="#191970" points="674.7583,-80.919 664.2473,-79.5883 671.6343,-87.1833 674.7583,-80.919"/>
</g>
<!-- Node16&#45;&gt;Node12 -->
<g id="edge46" class="edge">
<title>Node16&#45;&gt;Node12</title>
<path fill="none" stroke="#191970" d="M652.2407,-411.7224C712.8713,-405.3883 798.6729,-392.6701 823,-370 846.2702,-348.3148 842,-332.8081 842,-301 842,-301 842,-301 842,-185 842,-137.5458 792.8627,-102.8802 758.2756,-84.3575"/>
<polygon fill="#191970" stroke="#191970" points="759.4524,-81.0269 748.959,-79.564 756.2498,-87.2514 759.4524,-81.0269"/>
</g>
<!-- Node16&#45;&gt;Node13 -->
<g id="edge37" class="edge">
<title>Node16&#45;&gt;Node13</title>
<path fill="none" stroke="#191970" d="M599.4248,-406.2497C607.6689,-397.2236 618.9308,-383.6472 626,-370 654.926,-314.158 671.0009,-240.7573 677.5202,-205.5603"/>
<polygon fill="#191970" stroke="#191970" points="680.9961,-206.0048 679.3053,-195.5458 674.1047,-204.7764 680.9961,-206.0048"/>
</g>
<!-- Node16&#45;&gt;Node17 -->
<g id="edge39" class="edge">
<title>Node16&#45;&gt;Node17</title>
<path fill="none" stroke="#191970" d="M586.2314,-406.2949C581.253,-387.0451 570.7126,-346.2889 564.3041,-321.5091"/>
<polygon fill="#191970" stroke="#191970" points="567.6543,-320.4843 561.7619,-311.6792 560.8773,-322.237 567.6543,-320.4843"/>
</g>
<!-- Node16&#45;&gt;Node18 -->
<g id="edge42" class="edge">
<title>Node16&#45;&gt;Node18</title>
<path fill="none" stroke="#191970" d="M624.313,-406.4966C658.1766,-396.4244 709.2173,-381.2431 744.4347,-370.7681"/>
<polygon fill="#191970" stroke="#191970" points="745.7825,-374.0189 754.3696,-367.8131 743.7868,-367.3094 745.7825,-374.0189"/>
</g>
<!-- Node17&#45;&gt;Node4 -->
<g id="edge40" class="edge">
<title>Node17&#45;&gt;Node4</title>
<path fill="none" stroke="#191970" d="M550.1601,-290.4286C519.7352,-254.0442 419.0949,-133.6908 380.371,-87.3818"/>
<polygon fill="#191970" stroke="#191970" points="382.9917,-85.0597 373.8918,-79.6335 377.6217,-89.5501 382.9917,-85.0597"/>
</g>
<!-- Node17&#45;&gt;Node13 -->
<g id="edge41" class="edge">
<title>Node17&#45;&gt;Node13</title>
<path fill="none" stroke="#191970" d="M570.2588,-290.2949C591.3214,-270.2682 636.8653,-226.9641 662.5009,-202.5893"/>
<polygon fill="#191970" stroke="#191970" points="664.9331,-205.1063 669.7684,-195.6792 660.1096,-200.0334 664.9331,-205.1063"/>
</g>
<!-- Node18&#45;&gt;Node13 -->
<g id="edge43" class="edge">
<title>Node18&#45;&gt;Node13</title>
<path fill="none" stroke="#191970" d="M782.3574,-348.2047C778.4139,-325.0616 766.6876,-269.7148 740,-232 731.4403,-219.9034 718.9203,-209.3178 707.6134,-201.2709"/>
<polygon fill="#191970" stroke="#191970" points="709.5307,-198.3422 699.2892,-195.6292 705.6035,-204.1368 709.5307,-198.3422"/>
</g>
</g>
</svg>
        <g id="navigator" transform="translate(0 0)" fill="#404254">
                <rect fill="#f2f5e9" fill-opacity="0.5" stroke="#606060" stroke-width=".5" x="0" y="0" width="60" height="60"/>
                <use id="zoomplus" xlink:href="#zoomPlus" x="17" y="9" onmousedown="handleZoom(evt,'in')"/>
                <use id="zoomminus" xlink:href="#zoomMin" x="42" y="9" onmousedown="handleZoom(evt,'out')"/>
                <use id="reset" xlink:href="#resetDef" x="30" y="36" onmousedown="handleReset()"/>
                <g id="arrowUp" xlink:href="#dirArrow" transform="translate(30 24)" onmousedown="handlePan(0,-1)">
                  <use xlink:href="#rim" fill="#404040">
                        <set attributeName="fill" to="#808080" begin="arrowUp.mouseover" end="arrowUp.mouseout"/>
                  </use>
                  <path fill="none" stroke="white" stroke-width="1.5" d="M0,-3.0v7 M-2.5,-0.5L0,-3.0L2.5,-0.5"/>
                </g>
                <g id="arrowRight" xlink:href="#dirArrow" transform="rotate(90) translate(36 -43)" onmousedown="handlePan(1,0)">
                  <use xlink:href="#rim" fill="#404040">
                        <set attributeName="fill" to="#808080" begin="arrowRight.mouseover" end="arrowRight.mouseout"/>
                  </use>
                  <path fill="none" stroke="white" stroke-width="1.5" d="M0,-3.0v7 M-2.5,-0.5L0,-3.0L2.5,-0.5"/>
                </g>
                <g id="arrowDown" xlink:href="#dirArrow" transform="rotate(180) translate(-30 -48)" onmousedown="handlePan(0,1)">
                  <use xlink:href="#rim" fill="#404040">
                        <set attributeName="fill" to="#808080" begin="arrowDown.mouseover" end="arrowDown.mouseout"/>
                  </use>
                  <path fill="none" stroke="white" stroke-width="1.5" d="M0,-3.0v7 M-2.5,-0.5L0,-3.0L2.5,-0.5"/>
                </g>
                <g id="arrowLeft" xlink:href="#dirArrow" transform="rotate(270) translate(-36 17)" onmousedown="handlePan(-1,0)">
                  <use xlink:href="#rim" fill="#404040">
                        <set attributeName="fill" to="#808080" begin="arrowLeft.mouseover" end="arrowLeft.mouseout"/>
                  </use>
                  <path fill="none" stroke="white" stroke-width="1.5" d="M0,-3.0v7 M-2.5,-0.5L0,-3.0L2.5,-0.5"/>
                </g>
        </g>
        <svg viewBox="0 0 15 15" width="100%" height="30px" preserveAspectRatio="xMaxYMin meet">
         <g id="arrow_out" transform="scale(0.3 0.3)">
          <a xlink:href="main_8cpp__incl_org.svg" target="_base">
           <rect id="button" ry="5" rx="5" y="6" x="6" height="38" width="38"
                fill="#f2f5e9" fill-opacity="0.5" stroke="#606060" stroke-width="1.0"/>
           <path id="arrow"
             d="M 11.500037,31.436501 C 11.940474,20.09759 22.043105,11.32322 32.158766,21.979434 L 37.068811,17.246167 C 37.068811,17.246167 37.088388,32 37.088388,32 L 22.160133,31.978069 C 22.160133,31.978069 26.997745,27.140456 26.997745,27.140456 C 18.528582,18.264221 13.291696,25.230495 11.500037,31.436501 z"
             style="fill:#404040;"/>
          </a>
         </g>
        </svg>
</svg>
