<?xml version="1.0" encoding="UTF-8" standalone="no"?>
<!DOCTYPE svg PUBLIC "-//W3C//DTD SVG 1.1//EN"
 "http://www.w3.org/Graphics/SVG/1.1/DTD/svg11.dtd">
<!-- Generated by graphviz version 2.40.1 (20161225.0304)
 -->
<!-- Title: CPortfolio::getMStrToItPortfolio Pages: 1 -->
<svg width="599pt" height="30pt"
 viewBox="0.00 0.00 599.00 30.00" xmlns="http://www.w3.org/2000/svg" xmlns:xlink="http://www.w3.org/1999/xlink">
<g id="graph0" class="graph" transform="scale(1 1) rotate(0) translate(4 26)">
<title>CPortfolio::getMStrToItPortfolio</title>
<!-- Node1 -->
<g id="node1" class="node">
<title>Node1</title>
<g id="a_node1"><a xlink:title=" ">
<polygon fill="#bfbfbf" stroke="#000000" points="409,-.5 409,-21.5 591,-21.5 591,-.5 409,-.5"/>
<text text-anchor="middle" x="500" y="-7.9" font-family="Helvetica,sans-Serif" font-size="12.00" fill="#000000">CPortfolio::getMStrToItPortfolio</text>
</a>
</g>
</g>
<!-- Node2 -->
<g id="node2" class="node">
<title>Node2</title>
<g id="a_node2"><a xlink:href="../../d9/d52/classCPortfolio.html#a1253d72b078e2ad23e28744f232a078a" target="_top" xlink:title="Mehtod set and get all information about the portfolios.">
<polygon fill="none" stroke="#000000" points="230,-.5 230,-21.5 373,-21.5 373,-.5 230,-.5"/>
<text text-anchor="middle" x="301.5" y="-7.9" font-family="Helvetica,sans-Serif" font-size="12.00" fill="#000000">CPortfolio::userPortfolio</text>
</a>
</g>
</g>
<!-- Node1&#45;&gt;Node2 -->
<g id="edge1" class="edge">
<title>Node1&#45;&gt;Node2</title>
<path fill="none" stroke="#191970" d="M398.714,-11C390.0457,-11 381.3982,-11 373.036,-11"/>
<polygon fill="#191970" stroke="#191970" points="398.8835,-14.5001 408.8835,-11 398.8835,-7.5001 398.8835,-14.5001"/>
</g>
<!-- Node3 -->
<g id="node3" class="node">
<title>Node3</title>
<g id="a_node3"><a xlink:href="../../d1/d60/classCMyHolding.html#a2da746680d2dd9d7af60d49719b0fd37" target="_top" xlink:title="Method set and gets all information about holding of Client.">
<polygon fill="none" stroke="#000000" points="0,-.5 0,-21.5 194,-21.5 194,-.5 0,-.5"/>
<text text-anchor="middle" x="97" y="-7.9" font-family="Helvetica,sans-Serif" font-size="12.00" fill="#000000">CMyHolding::createHoldingMenu</text>
</a>
</g>
</g>
<!-- Node2&#45;&gt;Node3 -->
<g id="edge2" class="edge">
<title>Node2&#45;&gt;Node3</title>
<path fill="none" stroke="#191970" d="M219.7576,-11C211.2874,-11 202.6213,-11 194.0051,-11"/>
<polygon fill="#191970" stroke="#191970" points="219.9759,-14.5001 229.9758,-11 219.9758,-7.5001 219.9759,-14.5001"/>
</g>
</g>
</svg>
