<?xml version="1.0" encoding="UTF-8" standalone="no"?>
<!DOCTYPE svg PUBLIC "-//W3C//DTD SVG 1.1//EN"
 "http://www.w3.org/Graphics/SVG/1.1/DTD/svg11.dtd">
<!-- Generated by graphviz version 2.40.1 (20161225.0304)
 -->
<!-- Title: CPortfolio::userPortfolio Pages: 1 -->
<svg width="1147pt" height="407pt"
 viewBox="0.00 0.00 1147.00 407.00" xmlns="http://www.w3.org/2000/svg" xmlns:xlink="http://www.w3.org/1999/xlink">
<g id="graph0" class="graph" transform="scale(1 1) rotate(0) translate(4 403)">
<title>CPortfolio::userPortfolio</title>
<!-- Node1 -->
<g id="node1" class="node">
<title>Node1</title>
<g id="a_node1"><a xlink:title="Mehtod set and get all information about the portfolios.">
<polygon fill="#bfbfbf" stroke="#000000" points="0,-172.5 0,-193.5 143,-193.5 143,-172.5 0,-172.5"/>
<text text-anchor="middle" x="71.5" y="-179.9" font-family="Helvetica,sans-Serif" font-size="12.00" fill="#000000">CPortfolio::userPortfolio</text>
</a>
</g>
</g>
<!-- Node2 -->
<g id="node2" class="node">
<title>Node2</title>
<g id="a_node2"><a xlink:href="../../d9/d52/classCPortfolio.html#a0b7839f6c1fdda844aef3402a90c8980" target="_top" xlink:title="Method get the items of portfolio menu.">
<polygon fill="none" stroke="#000000" points="179,-274.5 179,-295.5 358,-295.5 358,-274.5 179,-274.5"/>
<text text-anchor="middle" x="268.5" y="-281.9" font-family="Helvetica,sans-Serif" font-size="12.00" fill="#000000">CPortfolio::createUserPortfolio</text>
</a>
</g>
</g>
<!-- Node1&#45;&gt;Node2 -->
<g id="edge1" class="edge">
<title>Node1&#45;&gt;Node2</title>
<path fill="none" stroke="#191970" d="M83.1879,-193.5136C102.0392,-209.9514 140.9091,-241.7418 179,-260 188.371,-264.4918 198.6925,-268.306 208.893,-271.4991"/>
<polygon fill="#191970" stroke="#191970" points="208.0186,-274.8903 218.6007,-274.3722 210.0051,-268.1781 208.0186,-274.8903"/>
</g>
<!-- Node3 -->
<g id="node3" class="node">
<title>Node3</title>
<g id="a_node3"><a xlink:href="../../d0/dc4/classCETF.html#abfd92cb6e0c471932af46e30df2fd308" target="_top" xlink:title="Method get and set all info about object of class CETF.">
<polygon fill="none" stroke="#000000" points="225,-196.5 225,-217.5 312,-217.5 312,-196.5 225,-196.5"/>
<text text-anchor="middle" x="268.5" y="-203.9" font-family="Helvetica,sans-Serif" font-size="12.00" fill="#000000">CETF::etfInfo</text>
</a>
</g>
</g>
<!-- Node1&#45;&gt;Node3 -->
<g id="edge2" class="edge">
<title>Node1&#45;&gt;Node3</title>
<path fill="none" stroke="#191970" d="M143.1788,-191.7324C166.8271,-194.6135 192.7081,-197.7665 214.7787,-200.4553"/>
<polygon fill="#191970" stroke="#191970" points="214.6041,-203.9598 224.954,-201.6949 215.4507,-197.0112 214.6041,-203.9598"/>
</g>
<!-- Node4 -->
<g id="node4" class="node">
<title>Node4</title>
<g id="a_node4"><a xlink:href="../../dc/d85/classCAsset.html#ab68c11feace8e8f4b9852404a458796c" target="_top" xlink:title="Method get data from database through the class CDataBase.">
<polygon fill="none" stroke="#000000" points="617.5,-197.5 617.5,-218.5 751.5,-218.5 751.5,-197.5 617.5,-197.5"/>
<text text-anchor="middle" x="684.5" y="-204.9" font-family="Helvetica,sans-Serif" font-size="12.00" fill="#000000">CAsset::getFromBase</text>
</a>
</g>
</g>
<!-- Node1&#45;&gt;Node4 -->
<g id="edge15" class="edge">
<title>Node1&#45;&gt;Node4</title>
<path fill="none" stroke="#191970" d="M90.9842,-193.6893C111.985,-204.5519 146.7476,-220.655 179,-227 333.7992,-257.4537 520.2643,-235.8109 617.7268,-220.1907"/>
<polygon fill="#191970" stroke="#191970" points="618.4287,-223.6225 627.7344,-218.5575 617.3012,-216.7139 618.4287,-223.6225"/>
</g>
<!-- Node16 -->
<g id="node16" class="node">
<title>Node16</title>
<g id="a_node16"><a xlink:href="../../d9/d52/classCPortfolio.html#a387f0203e80ef58959f0b3e03c1bd930" target="_top" xlink:title=" ">
<polygon fill="none" stroke="#000000" points="195.5,-143 195.5,-177 341.5,-177 341.5,-143 195.5,-143"/>
<text text-anchor="start" x="203.5" y="-163.4" font-family="Helvetica,sans-Serif" font-size="12.00" fill="#000000">CPortfolio::getMStrToEtf</text>
<text text-anchor="middle" x="268.5" y="-150.4" font-family="Helvetica,sans-Serif" font-size="12.00" fill="#000000">Portfolio</text>
</a>
</g>
</g>
<!-- Node1&#45;&gt;Node16 -->
<g id="edge16" class="edge">
<title>Node1&#45;&gt;Node16</title>
<path fill="none" stroke="#191970" d="M143.1788,-174.6314C156.8119,-173.0397 171.1871,-171.3614 185.1465,-169.7316"/>
<polygon fill="#191970" stroke="#191970" points="185.6944,-173.1915 195.221,-168.5554 184.8826,-166.2387 185.6944,-173.1915"/>
</g>
<!-- Node17 -->
<g id="node17" class="node">
<title>Node17</title>
<g id="a_node17"><a xlink:href="../../d5/de1/classCDataBase.html#a4d52b0dbf60c0295aea772711839332d" target="_top" xlink:title=" ">
<polygon fill="none" stroke="#000000" points="589,-.5 589,-21.5 780,-21.5 780,-.5 589,-.5"/>
<text text-anchor="middle" x="684.5" y="-7.9" font-family="Helvetica,sans-Serif" font-size="12.00" fill="#000000">CDataBase::getMStrToItPortfolio</text>
</a>
</g>
</g>
<!-- Node1&#45;&gt;Node17 -->
<g id="edge17" class="edge">
<title>Node1&#45;&gt;Node17</title>
<path fill="none" stroke="#191970" d="M81.11,-172.4692C98.7319,-153.7749 138.1708,-114.7196 179,-93 305.0357,-25.9539 471.8364,-10.7542 578.6798,-8.7387"/>
<polygon fill="#191970" stroke="#191970" points="578.8837,-12.2361 588.829,-8.5836 578.7766,-5.2369 578.8837,-12.2361"/>
</g>
<!-- Node18 -->
<g id="node18" class="node">
<title>Node18</title>
<g id="a_node18"><a xlink:href="../../d7/d8f/classCStock.html#a0ef2eda44098e896ddb09d5d4629d7aa" target="_top" xlink:title="Method gets and sets all info about stock using switch statement, case, if, else if,...">
<polygon fill="none" stroke="#000000" points="214,-102.5 214,-123.5 323,-123.5 323,-102.5 214,-102.5"/>
<text text-anchor="middle" x="268.5" y="-109.9" font-family="Helvetica,sans-Serif" font-size="12.00" fill="#000000">CStock::stockInfo</text>
</a>
</g>
</g>
<!-- Node1&#45;&gt;Node18 -->
<g id="edge18" class="edge">
<title>Node1&#45;&gt;Node18</title>
<path fill="none" stroke="#191970" d="M91.6191,-172.3754C112.8596,-161.5078 147.5558,-144.7379 179,-134 187.6516,-131.0456 196.9125,-128.3619 206.0768,-125.9757"/>
<polygon fill="#191970" stroke="#191970" points="207.0989,-129.3279 215.9498,-123.5044 205.3992,-122.5374 207.0989,-129.3279"/>
</g>
<!-- Node3&#45;&gt;Node4 -->
<g id="edge3" class="edge">
<title>Node3&#45;&gt;Node4</title>
<path fill="none" stroke="#191970" d="M312.233,-207.1051C382.2638,-207.2735 520.5026,-207.6058 607.3968,-207.8147"/>
<polygon fill="#191970" stroke="#191970" points="607.4609,-211.3147 617.4693,-207.8389 607.4778,-204.3147 607.4609,-211.3147"/>
</g>
<!-- Node15 -->
<g id="node15" class="node">
<title>Node15</title>
<g id="a_node15"><a xlink:href="../../dc/d85/classCAsset.html#ad26f4802c080f55f65007d3622afb394" target="_top" xlink:title="Method gets risk of one Asset.">
<polygon fill="none" stroke="#000000" points="412.5,-158.5 412.5,-179.5 534.5,-179.5 534.5,-158.5 412.5,-158.5"/>
<text text-anchor="middle" x="473.5" y="-165.9" font-family="Helvetica,sans-Serif" font-size="12.00" fill="#000000">CAsset::riskOfAsset</text>
</a>
</g>
</g>
<!-- Node3&#45;&gt;Node15 -->
<g id="edge14" class="edge">
<title>Node3&#45;&gt;Node15</title>
<path fill="none" stroke="#191970" d="M312.2262,-198.8947C339.7079,-193.8005 375.7032,-187.1282 406.714,-181.3798"/>
<polygon fill="#191970" stroke="#191970" points="407.3956,-184.8132 416.5902,-179.5491 406.1197,-177.9305 407.3956,-184.8132"/>
</g>
<!-- Node5 -->
<g id="node5" class="node">
<title>Node5</title>
<g id="a_node5"><a xlink:href="../../d7/d8f/classCStock.html#ac29f9a8363a2388481e44526a0d4aa06" target="_top" xlink:title=" ">
<polygon fill="none" stroke="#000000" points="833,-337.5 833,-358.5 1000,-358.5 1000,-337.5 833,-337.5"/>
<text text-anchor="middle" x="916.5" y="-344.9" font-family="Helvetica,sans-Serif" font-size="12.00" fill="#000000">CStock::getMStrPathToAppl</text>
</a>
</g>
</g>
<!-- Node4&#45;&gt;Node5 -->
<g id="edge4" class="edge">
<title>Node4&#45;&gt;Node5</title>
<path fill="none" stroke="#191970" d="M692.7053,-218.7109C711.6041,-242.5567 760.8351,-300.1118 816,-328 820.6439,-330.3477 825.5386,-332.42 830.5662,-334.2492"/>
<polygon fill="#191970" stroke="#191970" points="829.7743,-337.6732 840.3673,-337.4757 831.9632,-331.0242 829.7743,-337.6732"/>
</g>
<!-- Node6 -->
<g id="node6" class="node">
<title>Node6</title>
<g id="a_node6"><a xlink:href="../../d7/d8f/classCStock.html#a71879b1e890394887791d3746cb7ef04" target="_top" xlink:title=" ">
<polygon fill="none" stroke="#000000" points="826,-297.5 826,-318.5 1007,-318.5 1007,-297.5 826,-297.5"/>
<text text-anchor="middle" x="916.5" y="-304.9" font-family="Helvetica,sans-Serif" font-size="12.00" fill="#000000">CStock::getMStrPathToGoogle</text>
</a>
</g>
</g>
<!-- Node4&#45;&gt;Node6 -->
<g id="edge5" class="edge">
<title>Node4&#45;&gt;Node6</title>
<path fill="none" stroke="#191970" d="M698.2308,-218.6261C721.2542,-235.9013 769.6862,-269.957 816,-288 822.7239,-290.6195 829.8401,-292.911 837.0555,-294.9127"/>
<polygon fill="#191970" stroke="#191970" points="836.3708,-298.3507 846.9287,-297.4662 838.1236,-291.5737 836.3708,-298.3507"/>
</g>
<!-- Node7 -->
<g id="node7" class="node">
<title>Node7</title>
<g id="a_node7"><a xlink:href="../../d0/dc4/classCETF.html#af8e267a244a73e0ad7038f83b5ec26b0" target="_top" xlink:title=" ">
<polygon fill="none" stroke="#000000" points="841,-257.5 841,-278.5 992,-278.5 992,-257.5 841,-257.5"/>
<text text-anchor="middle" x="916.5" y="-264.9" font-family="Helvetica,sans-Serif" font-size="12.00" fill="#000000">CETF::getMStrPathToIxn</text>
</a>
</g>
</g>
<!-- Node4&#45;&gt;Node7 -->
<g id="edge6" class="edge">
<title>Node4&#45;&gt;Node7</title>
<path fill="none" stroke="#191970" d="M715.8743,-218.5C742.3637,-227.1339 781.3981,-239.317 816,-248 826.5027,-250.6356 837.6924,-253.1485 848.6488,-255.448"/>
<polygon fill="#191970" stroke="#191970" points="848.1189,-258.9122 858.6188,-257.4973 849.5283,-252.0555 848.1189,-258.9122"/>
</g>
<!-- Node8 -->
<g id="node8" class="node">
<title>Node8</title>
<g id="a_node8"><a xlink:href="../../d0/dc4/classCETF.html#a8d19cc867f54575686cf448a2d17af38" target="_top" xlink:title=" ">
<polygon fill="none" stroke="#000000" points="837.5,-217.5 837.5,-238.5 995.5,-238.5 995.5,-217.5 837.5,-217.5"/>
<text text-anchor="middle" x="916.5" y="-224.9" font-family="Helvetica,sans-Serif" font-size="12.00" fill="#000000">CETF::getMStrPathToQqq</text>
</a>
</g>
</g>
<!-- Node4&#45;&gt;Node8 -->
<g id="edge7" class="edge">
<title>Node4&#45;&gt;Node8</title>
<path fill="none" stroke="#191970" d="M751.604,-213.7848C775.1279,-215.8128 801.9357,-218.1238 826.9996,-220.2844"/>
<polygon fill="#191970" stroke="#191970" points="826.9832,-223.7959 837.2469,-221.1678 827.5845,-216.8218 826.9832,-223.7959"/>
</g>
<!-- Node9 -->
<g id="node9" class="node">
<title>Node9</title>
<g id="a_node9"><a xlink:href="../../d0/dc4/classCETF.html#a477bc0a30dca4ce9bf7a9a52e121324b" target="_top" xlink:title=" ">
<polygon fill="none" stroke="#000000" points="840.5,-177.5 840.5,-198.5 992.5,-198.5 992.5,-177.5 840.5,-177.5"/>
<text text-anchor="middle" x="916.5" y="-184.9" font-family="Helvetica,sans-Serif" font-size="12.00" fill="#000000">CETF::getMStrPathToXlk</text>
</a>
</g>
</g>
<!-- Node4&#45;&gt;Node9 -->
<g id="edge8" class="edge">
<title>Node4&#45;&gt;Node9</title>
<path fill="none" stroke="#191970" d="M751.604,-202.2152C776.0595,-200.1069 804.064,-197.6928 829.9686,-195.4596"/>
<polygon fill="#191970" stroke="#191970" points="830.498,-198.927 840.1604,-194.581 829.8968,-191.9529 830.498,-198.927"/>
</g>
<!-- Node10 -->
<g id="node10" class="node">
<title>Node10</title>
<g id="a_node10"><a xlink:href="../../d7/d8f/classCStock.html#a157bab205439811406e6aa5da0fcaddd" target="_top" xlink:title=" ">
<polygon fill="none" stroke="#000000" points="816,-137.5 816,-158.5 1017,-158.5 1017,-137.5 816,-137.5"/>
<text text-anchor="middle" x="916.5" y="-144.9" font-family="Helvetica,sans-Serif" font-size="12.00" fill="#000000">CStock::getMStrPathtToAmznDate</text>
</a>
</g>
</g>
<!-- Node4&#45;&gt;Node10 -->
<g id="edge9" class="edge">
<title>Node4&#45;&gt;Node10</title>
<path fill="none" stroke="#191970" d="M715.8743,-197.5C742.3637,-188.8661 781.3981,-176.683 816,-168 826.5027,-165.3644 837.6924,-162.8515 848.6488,-160.552"/>
<polygon fill="#191970" stroke="#191970" points="849.5283,-163.9445 858.6188,-158.5027 848.1189,-157.0878 849.5283,-163.9445"/>
</g>
<!-- Node11 -->
<g id="node11" class="node">
<title>Node11</title>
<g id="a_node11"><a xlink:href="../../dc/d85/classCAsset.html#a48d22720b57dc24776a9023be661bff9" target="_top" xlink:title="Method calculate mean of one Asset.">
<polygon fill="none" stroke="#000000" points="849.5,-97.5 849.5,-118.5 983.5,-118.5 983.5,-97.5 849.5,-97.5"/>
<text text-anchor="middle" x="916.5" y="-104.9" font-family="Helvetica,sans-Serif" font-size="12.00" fill="#000000">CAsset::meanOfAsset</text>
</a>
</g>
</g>
<!-- Node4&#45;&gt;Node11 -->
<g id="edge10" class="edge">
<title>Node4&#45;&gt;Node11</title>
<path fill="none" stroke="#191970" d="M698.2308,-197.3739C721.2542,-180.0987 769.6862,-146.043 816,-128 823.4834,-125.0846 831.4528,-122.5755 839.5041,-120.42"/>
<polygon fill="#191970" stroke="#191970" points="840.4851,-123.7826 849.3383,-117.9627 838.7881,-116.9914 840.4851,-123.7826"/>
</g>
<!-- Node12 -->
<g id="node12" class="node">
<title>Node12</title>
<g id="a_node12"><a xlink:href="../../dc/d85/classCAsset.html#aa855b3cfd867f9788d1cc0e5db7c3870" target="_top" xlink:title="Method return diffrence between vector of returns and double value of mean of return of Asset.">
<polygon fill="none" stroke="#000000" points="820.5,-57.5 820.5,-78.5 1012.5,-78.5 1012.5,-57.5 820.5,-57.5"/>
<text text-anchor="middle" x="916.5" y="-64.9" font-family="Helvetica,sans-Serif" font-size="12.00" fill="#000000">CAsset::returnAndMeanDiffrence</text>
</a>
</g>
</g>
<!-- Node4&#45;&gt;Node12 -->
<g id="edge11" class="edge">
<title>Node4&#45;&gt;Node12</title>
<path fill="none" stroke="#191970" d="M697.4669,-197.3213C716.1203,-181.8282 751.426,-152.0112 780,-125 796.6733,-109.2386 795.8404,-98.9549 816,-88 820.1765,-85.7305 824.5759,-83.7168 829.1063,-81.9304"/>
<polygon fill="#191970" stroke="#191970" points="830.3076,-85.218 838.5598,-78.5733 827.9651,-78.6215 830.3076,-85.218"/>
</g>
<!-- Node13 -->
<g id="node13" class="node">
<title>Node13</title>
<g id="a_node13"><a xlink:href="../../dc/d85/classCAsset.html#a96031ecbece20a71af492b3cf5063f0b" target="_top" xlink:title="Method returns what is returns of one Asset in the setting period, get info for this from database.">
<polygon fill="none" stroke="#000000" points="849.5,-377.5 849.5,-398.5 983.5,-398.5 983.5,-377.5 849.5,-377.5"/>
<text text-anchor="middle" x="916.5" y="-384.9" font-family="Helvetica,sans-Serif" font-size="12.00" fill="#000000">CAsset::returnOfAsset</text>
</a>
</g>
</g>
<!-- Node4&#45;&gt;Node13 -->
<g id="edge12" class="edge">
<title>Node4&#45;&gt;Node13</title>
<path fill="none" stroke="#191970" d="M689.8687,-218.7126C705.1296,-247.9643 751.8404,-329.5715 816,-368 823.2399,-372.3363 831.2475,-375.7523 839.4897,-378.4402"/>
<polygon fill="#191970" stroke="#191970" points="838.6618,-381.8443 849.2412,-381.2725 840.6143,-375.1221 838.6618,-381.8443"/>
</g>
<!-- Node14 -->
<g id="node14" class="node">
<title>Node14</title>
<g id="a_node14"><a xlink:href="../../dc/d85/classCAsset.html#ae862a51b2a6ea0668c19a07f081e0b3c" target="_top" xlink:title="Method helps to set size of vector for next method returnOfAsset()">
<polygon fill="none" stroke="#000000" points="1053,-377.5 1053,-398.5 1139,-398.5 1139,-377.5 1053,-377.5"/>
<text text-anchor="middle" x="1096" y="-384.9" font-family="Helvetica,sans-Serif" font-size="12.00" fill="#000000">CAsset::slice</text>
</a>
</g>
</g>
<!-- Node13&#45;&gt;Node14 -->
<g id="edge13" class="edge">
<title>Node13&#45;&gt;Node14</title>
<path fill="none" stroke="#191970" d="M983.5944,-388C1003.171,-388 1024.2863,-388 1042.8725,-388"/>
<polygon fill="#191970" stroke="#191970" points="1042.9121,-391.5001 1052.9121,-388 1042.912,-384.5001 1042.9121,-391.5001"/>
</g>
<!-- Node18&#45;&gt;Node4 -->
<g id="edge19" class="edge">
<title>Node18&#45;&gt;Node4</title>
<path fill="none" stroke="#191970" d="M323.1937,-115.1288C381.1836,-118.4884 474.9913,-127.0903 553,-149 590.3325,-159.4853 630.6542,-178.8963 656.6659,-192.5845"/>
<polygon fill="#191970" stroke="#191970" points="655.1002,-195.7162 665.5696,-197.3415 658.3988,-189.5421 655.1002,-195.7162"/>
</g>
<!-- Node18&#45;&gt;Node15 -->
<g id="edge26" class="edge">
<title>Node18&#45;&gt;Node15</title>
<path fill="none" stroke="#191970" d="M316.0187,-123.5555C329.6211,-126.7377 344.4356,-130.3574 358,-134 382.3918,-140.5502 409.4205,-148.6917 431.1951,-155.4737"/>
<polygon fill="#191970" stroke="#191970" points="430.2126,-158.8336 440.8016,-158.4835 432.3055,-152.1537 430.2126,-158.8336"/>
</g>
<!-- Node19 -->
<g id="node19" class="node">
<title>Node19</title>
<g id="a_node19"><a xlink:href="../../d5/de1/classCDataBase.html#a763fc57fb5ad33e7d4ef92dd32698f34" target="_top" xlink:title="Method get and set data of Stocks to database in this program database are the files and relation wit...">
<polygon fill="none" stroke="#000000" points="394,-40.5 394,-61.5 553,-61.5 553,-40.5 394,-40.5"/>
<text text-anchor="middle" x="473.5" y="-47.9" font-family="Helvetica,sans-Serif" font-size="12.00" fill="#000000">CDataBase::inputForStock</text>
</a>
</g>
</g>
<!-- Node18&#45;&gt;Node19 -->
<g id="edge20" class="edge">
<title>Node18&#45;&gt;Node19</title>
<path fill="none" stroke="#191970" d="M297.9662,-102.4285C323.2721,-93.5208 360.8132,-80.7122 394,-71 402.1486,-68.6153 410.8166,-66.2559 419.3194,-64.0396"/>
<polygon fill="#191970" stroke="#191970" points="420.3666,-67.3844 429.1841,-61.5106 418.6281,-60.6037 420.3666,-67.3844"/>
</g>
<!-- Node23 -->
<g id="node23" class="node">
<title>Node23</title>
<g id="a_node23"><a xlink:href="../../d7/d8f/classCStock.html#a6540c1c901a28b07ddf9038ef8b7506f" target="_top" xlink:title="Method which gets the items of Stock info menu with the switch statement and the cases conditions.">
<polygon fill="none" stroke="#000000" points="414,-80.5 414,-101.5 533,-101.5 533,-80.5 414,-80.5"/>
<text text-anchor="middle" x="473.5" y="-87.9" font-family="Helvetica,sans-Serif" font-size="12.00" fill="#000000">CStock::stockMenu</text>
</a>
</g>
</g>
<!-- Node18&#45;&gt;Node23 -->
<g id="edge27" class="edge">
<title>Node18&#45;&gt;Node23</title>
<path fill="none" stroke="#191970" d="M323.1669,-107.1333C347.8786,-104.4813 377.3717,-101.3162 403.6631,-98.4947"/>
<polygon fill="#191970" stroke="#191970" points="404.3758,-101.9384 413.9452,-97.3912 403.6288,-94.9784 404.3758,-101.9384"/>
</g>
<!-- Node19&#45;&gt;Node4 -->
<g id="edge22" class="edge">
<title>Node19&#45;&gt;Node4</title>
<path fill="none" stroke="#191970" d="M535.0175,-61.5123C541.3971,-64.0276 547.5351,-67.1427 553,-71 576.5656,-87.6332 569.9445,-103.3462 589,-125 611.3482,-150.3955 641.368,-175.2729 661.7422,-191.0654"/>
<polygon fill="#191970" stroke="#191970" points="659.7633,-193.9582 669.833,-197.2525 664.0155,-188.3977 659.7633,-193.9582"/>
</g>
<!-- Node19&#45;&gt;Node17 -->
<g id="edge23" class="edge">
<title>Node19&#45;&gt;Node17</title>
<path fill="none" stroke="#191970" d="M528.9378,-40.4905C556.5712,-35.2519 590.1699,-28.8825 619.0612,-23.4055"/>
<polygon fill="#191970" stroke="#191970" points="619.8935,-26.8101 629.0665,-21.5087 618.5896,-19.9326 619.8935,-26.8101"/>
</g>
<!-- Node20 -->
<g id="node20" class="node">
<title>Node20</title>
<g id="a_node20"><a xlink:href="../../db/d52/classCRisk.html#aea7aecfae721440bbed175e109518464" target="_top" xlink:title="Method calculate matrix of covariance and variance for portfolio to help calculate risk of the portfo...">
<polygon fill="none" stroke="#000000" points="603.5,-81 603.5,-115 765.5,-115 765.5,-81 603.5,-81"/>
<text text-anchor="start" x="611.5" y="-101.4" font-family="Helvetica,sans-Serif" font-size="12.00" fill="#000000">CRisk::covarianceVariance</text>
<text text-anchor="middle" x="684.5" y="-88.4" font-family="Helvetica,sans-Serif" font-size="12.00" fill="#000000">Matrix</text>
</a>
</g>
</g>
<!-- Node19&#45;&gt;Node20 -->
<g id="edge21" class="edge">
<title>Node19&#45;&gt;Node20</title>
<path fill="none" stroke="#191970" d="M520.8525,-61.5477C543.5855,-66.6115 571.5569,-72.8421 597.9025,-78.7105"/>
<polygon fill="#191970" stroke="#191970" points="597.384,-82.1807 607.9057,-80.9387 598.9059,-75.3482 597.384,-82.1807"/>
</g>
<!-- Node21 -->
<g id="node21" class="node">
<title>Node21</title>
<g id="a_node21"><a xlink:href="../../dd/d09/classCReturn.html#a4ae6568cb0c834cce8f257e8a82966c3" target="_top" xlink:title="Method calculate portfolio which have the biggest return with the lowest risk.">
<polygon fill="none" stroke="#000000" points="609,-40.5 609,-61.5 760,-61.5 760,-40.5 609,-40.5"/>
<text text-anchor="middle" x="684.5" y="-47.9" font-family="Helvetica,sans-Serif" font-size="12.00" fill="#000000">CReturn::optimalPortfolio</text>
</a>
</g>
</g>
<!-- Node19&#45;&gt;Node21 -->
<g id="edge24" class="edge">
<title>Node19&#45;&gt;Node21</title>
<path fill="none" stroke="#191970" d="M553.2701,-51C568.0621,-51 583.5727,-51 598.5397,-51"/>
<polygon fill="#191970" stroke="#191970" points="598.7992,-54.5001 608.7992,-51 598.7991,-47.5001 598.7992,-54.5001"/>
</g>
<!-- Node22 -->
<g id="node22" class="node">
<title>Node22</title>
<g id="a_node22"><a xlink:href="../../db/d52/classCRisk.html#a8742c21ca8a8034b4fe20b3676ab931b" target="_top" xlink:title="Method calculate risk of the portfolio &#45; standard deviation to help calculate std of portfolio taking...">
<polygon fill="none" stroke="#000000" points="858.5,-17.5 858.5,-38.5 974.5,-38.5 974.5,-17.5 858.5,-17.5"/>
<text text-anchor="middle" x="916.5" y="-24.9" font-family="Helvetica,sans-Serif" font-size="12.00" fill="#000000">CRisk::portfolioStd</text>
</a>
</g>
</g>
<!-- Node21&#45;&gt;Node22 -->
<g id="edge25" class="edge">
<title>Node21&#45;&gt;Node22</title>
<path fill="none" stroke="#191970" d="M760.1445,-43.5008C788.5265,-40.687 820.5907,-37.5082 848.2618,-34.765"/>
<polygon fill="#191970" stroke="#191970" points="848.6367,-38.2451 858.2426,-33.7755 847.9461,-31.2792 848.6367,-38.2451"/>
</g>
</g>
</svg>
