<?xml version="1.0" encoding="UTF-8" standalone="no"?>
<!DOCTYPE svg PUBLIC "-//W3C//DTD SVG 1.1//EN"
 "http://www.w3.org/Graphics/SVG/1.1/DTD/svg11.dtd">
<!-- Generated by graphviz version 2.40.1 (20161225.0304)
 -->
<!-- Title: CPortfolio::getTotalPriceOfStocks Pages: 1 -->
<svg width="884pt" height="70pt"
 viewBox="0.00 0.00 884.00 70.00" xmlns="http://www.w3.org/2000/svg" xmlns:xlink="http://www.w3.org/1999/xlink">
<g id="graph0" class="graph" transform="scale(1 1) rotate(0) translate(4 66)">
<title>CPortfolio::getTotalPriceOfStocks</title>
<!-- Node1 -->
<g id="node1" class="node">
<title>Node1</title>
<g id="a_node1"><a xlink:title=" ">
<polygon fill="#bfbfbf" stroke="#000000" points="0,-14 0,-48 147,-48 147,-14 0,-14"/>
<text text-anchor="start" x="8" y="-34.4" font-family="Helvetica,sans-Serif" font-size="12.00" fill="#000000">CPortfolio::getTotalPrice</text>
<text text-anchor="middle" x="73.5" y="-21.4" font-family="Helvetica,sans-Serif" font-size="12.00" fill="#000000">OfStocks</text>
</a>
</g>
</g>
<!-- Node2 -->
<g id="node2" class="node">
<title>Node2</title>
<g id="a_node2"><a xlink:href="../../dc/d85/classCAsset.html#a88a8db3713a384a78007fe0ede5851d9" target="_top" xlink:title="Getting data from database.">
<polygon fill="none" stroke="#000000" points="183,-14 183,-48 341,-48 341,-14 183,-14"/>
<text text-anchor="start" x="191" y="-34.4" font-family="Helvetica,sans-Serif" font-size="12.00" fill="#000000">CAsset::countTotalPriceOf</text>
<text text-anchor="middle" x="262" y="-21.4" font-family="Helvetica,sans-Serif" font-size="12.00" fill="#000000">Assets</text>
</a>
</g>
</g>
<!-- Node1&#45;&gt;Node2 -->
<g id="edge1" class="edge">
<title>Node1&#45;&gt;Node2</title>
<path fill="none" stroke="#191970" d="M147.1889,-31C155.5755,-31 164.1904,-31 172.7502,-31"/>
<polygon fill="#191970" stroke="#191970" points="172.7563,-34.5001 182.7563,-31 172.7562,-27.5001 172.7563,-34.5001"/>
</g>
<!-- Node3 -->
<g id="node3" class="node">
<title>Node3</title>
<g id="a_node3"><a xlink:href="../../d5/de1/classCDataBase.html#a05366b9fffcc574425739ec7007d59f1" target="_top" xlink:title="Method get and set data of Stocks to database in this program database are the files and relation wit...">
<polygon fill="none" stroke="#000000" points="377,-20.5 377,-41.5 536,-41.5 536,-20.5 377,-20.5"/>
<text text-anchor="middle" x="456.5" y="-27.9" font-family="Helvetica,sans-Serif" font-size="12.00" fill="#000000">CDataBase::inputForStock</text>
</a>
</g>
</g>
<!-- Node2&#45;&gt;Node3 -->
<g id="edge2" class="edge">
<title>Node2&#45;&gt;Node3</title>
<path fill="none" stroke="#191970" d="M341.1106,-31C349.577,-31 358.2336,-31 366.8112,-31"/>
<polygon fill="#191970" stroke="#191970" points="366.8282,-34.5001 376.8282,-31 366.8282,-27.5001 366.8282,-34.5001"/>
</g>
<!-- Node4 -->
<g id="node4" class="node">
<title>Node4</title>
<g id="a_node4"><a xlink:href="../../d5/de1/classCDataBase.html#a3ac9748e34a93b398f72a9d770b4d0cc" target="_top" xlink:title="calculate meanOfAsset">
<polygon fill="none" stroke="#000000" points="572.5,-40.5 572.5,-61.5 729.5,-61.5 729.5,-40.5 572.5,-40.5"/>
<text text-anchor="middle" x="651" y="-47.9" font-family="Helvetica,sans-Serif" font-size="12.00" fill="#000000">CDataBase::meanOfAsset</text>
</a>
</g>
</g>
<!-- Node3&#45;&gt;Node4 -->
<g id="edge3" class="edge">
<title>Node3&#45;&gt;Node4</title>
<path fill="none" stroke="#191970" d="M536.1718,-39.1925C544.7678,-40.0764 553.5534,-40.9798 562.2477,-41.8738"/>
<polygon fill="#191970" stroke="#191970" points="562.0897,-45.3759 572.3953,-42.9173 562.8058,-38.4126 562.0897,-45.3759"/>
</g>
<!-- Node5 -->
<g id="node5" class="node">
<title>Node5</title>
<g id="a_node5"><a xlink:href="../../d5/de1/classCDataBase.html#addbd9873807ba906964fdc719cc2966f" target="_top" xlink:title="Method calculate return of Assets.">
<polygon fill="none" stroke="#000000" points="572,-.5 572,-21.5 730,-21.5 730,-.5 572,-.5"/>
<text text-anchor="middle" x="651" y="-7.9" font-family="Helvetica,sans-Serif" font-size="12.00" fill="#000000">CDataBase::returnOfAsset</text>
</a>
</g>
</g>
<!-- Node3&#45;&gt;Node5 -->
<g id="edge4" class="edge">
<title>Node3&#45;&gt;Node5</title>
<path fill="none" stroke="#191970" d="M536.1718,-22.8075C544.617,-21.9391 553.2452,-21.0519 561.79,-20.1733"/>
<polygon fill="#191970" stroke="#191970" points="562.1772,-23.652 571.7667,-19.1474 561.4611,-16.6887 562.1772,-23.652"/>
</g>
<!-- Node6 -->
<g id="node6" class="node">
<title>Node6</title>
<g id="a_node6"><a xlink:href="../../d5/de1/classCDataBase.html#ae2c38c644b4bd594c74676aa1983758e" target="_top" xlink:title="Method helps to set size of vector.">
<polygon fill="none" stroke="#000000" points="766,-.5 766,-21.5 876,-21.5 876,-.5 766,-.5"/>
<text text-anchor="middle" x="821" y="-7.9" font-family="Helvetica,sans-Serif" font-size="12.00" fill="#000000">CDataBase::slice</text>
</a>
</g>
</g>
<!-- Node5&#45;&gt;Node6 -->
<g id="edge5" class="edge">
<title>Node5&#45;&gt;Node6</title>
<path fill="none" stroke="#191970" d="M730.0278,-11C738.658,-11 747.3706,-11 755.8076,-11"/>
<polygon fill="#191970" stroke="#191970" points="755.938,-14.5001 765.938,-11 755.9379,-7.5001 755.938,-14.5001"/>
</g>
</g>
</svg>
