<?xml version="1.0" encoding="UTF-8" standalone="no"?>
<!DOCTYPE svg PUBLIC "-//W3C//DTD SVG 1.1//EN"
 "http://www.w3.org/Graphics/SVG/1.1/DTD/svg11.dtd">
<!-- Generated by graphviz version 2.40.1 (20161225.0304)
 -->
<!-- Title: CPortfolio::getDataFromDataBase Pages: 1 -->
<svg width="496pt" height="68pt"
 viewBox="0.00 0.00 495.84 68.00" xmlns="http://www.w3.org/2000/svg" xmlns:xlink="http://www.w3.org/1999/xlink">
<g id="graph0" class="graph" transform="scale(1 1) rotate(0) translate(4 64)">
<title>CPortfolio::getDataFromDataBase</title>
<!-- Node1 -->
<g id="node1" class="node">
<title>Node1</title>
<g id="a_node1"><a xlink:title=" ">
<polygon fill="#bfbfbf" stroke="#000000" points="0,-19.5 0,-39.5 167.69,-39.5 167.69,-19.5 0,-19.5"/>
<text text-anchor="middle" x="83.845" y="-26.5" font-family="Helvetica,sans-Serif" font-size="10.00" fill="#000000">CPortfolio::getDataFromDataBase</text>
</a>
</g>
</g>
<!-- Node2 -->
<g id="node2" class="node">
<title>Node2</title>
<g id="a_node2"><a xlink:href="../../dc/d85/classCAsset.html#ace101483df4bf277b7114b60501a3c3d" target="_top" xlink:title=" ">
<polygon fill="none" stroke="#000000" points="203.69,-19.5 203.69,-39.5 317.484,-39.5 317.484,-19.5 203.69,-19.5"/>
<text text-anchor="middle" x="260.587" y="-26.5" font-family="Helvetica,sans-Serif" font-size="10.00" fill="#000000">CAsset::getFromBase</text>
</a>
</g>
</g>
<!-- Node1&#45;&gt;Node2 -->
<g id="edge1" class="edge">
<title>Node1&#45;&gt;Node2</title>
<path fill="none" stroke="#191970" d="M167.8163,-29.5C176.428,-29.5 185.0955,-29.5 193.4907,-29.5"/>
<polygon fill="#191970" stroke="#191970" points="193.5738,-33.0001 203.5738,-29.5 193.5737,-26.0001 193.5738,-33.0001"/>
</g>
<!-- Node3 -->
<g id="node3" class="node">
<title>Node3</title>
<g id="a_node3"><a xlink:href="../../dc/d85/classCAsset.html#a250e2ea666e815df850ceb34297d95cd" target="_top" xlink:title=" ">
<polygon fill="none" stroke="#000000" points="359.0375,-39.5 359.0375,-59.5 482.2895,-59.5 482.2895,-39.5 359.0375,-39.5"/>
<text text-anchor="middle" x="420.6635" y="-46.5" font-family="Helvetica,sans-Serif" font-size="10.00" fill="#000000">CAsset::doubeVecToStr</text>
</a>
</g>
</g>
<!-- Node2&#45;&gt;Node3 -->
<g id="edge2" class="edge">
<title>Node2&#45;&gt;Node3</title>
<path fill="none" stroke="#191970" d="M317.9261,-36.664C327.8841,-37.9081 338.3531,-39.2161 348.6435,-40.5018"/>
<polygon fill="#191970" stroke="#191970" points="348.4921,-44.01 358.8489,-41.7769 349.36,-37.064 348.4921,-44.01"/>
</g>
<!-- Node4 -->
<g id="node4" class="node">
<title>Node4</title>
<g id="a_node4"><a xlink:href="../../d5/de1/classCDataBase.html#a05366b9fffcc574425739ec7007d59f1" target="_top" xlink:title=" ">
<polygon fill="none" stroke="#000000" points="353.484,-.5 353.484,-20.5 487.843,-20.5 487.843,-.5 353.484,-.5"/>
<text text-anchor="middle" x="420.6635" y="-7.5" font-family="Helvetica,sans-Serif" font-size="10.00" fill="#000000">CDataBase::inputForStock</text>
</a>
</g>
</g>
<!-- Node2&#45;&gt;Node4 -->
<g id="edge3" class="edge">
<title>Node2&#45;&gt;Node4</title>
<path fill="none" stroke="#191970" d="M317.9261,-22.6942C326.1796,-21.7146 334.7841,-20.6933 343.347,-19.6769"/>
<polygon fill="#191970" stroke="#191970" points="343.8388,-23.1432 353.3565,-18.4889 343.0137,-16.192 343.8388,-23.1432"/>
</g>
</g>
</svg>
