<?xml version="1.0" encoding="UTF-8" standalone="no"?>
<!DOCTYPE svg PUBLIC "-//W3C//DTD SVG 1.1//EN"
 "http://www.w3.org/Graphics/SVG/1.1/DTD/svg11.dtd">
<!-- Generated by graphviz version 2.40.1 (20161225.0304)
 -->
<!-- Title: CPortfolio::getMStrPortfolioName Pages: 1 -->
<svg width="1156pt" height="68pt"
 viewBox="0.00 0.00 1156.00 68.00" xmlns="http://www.w3.org/2000/svg" xmlns:xlink="http://www.w3.org/1999/xlink">
<g id="graph0" class="graph" transform="scale(1 1) rotate(0) translate(4 64)">
<title>CPortfolio::getMStrPortfolioName</title>
<!-- Node1 -->
<g id="node1" class="node">
<title>Node1</title>
<g id="a_node1"><a xlink:title="Method get porftolio name.">
<polygon fill="#bfbfbf" stroke="#000000" points="954,-.5 954,-21.5 1148,-21.5 1148,-.5 954,-.5"/>
<text text-anchor="middle" x="1051" y="-7.9" font-family="Helvetica,sans-Serif" font-size="12.00" fill="#000000">CPortfolio::getMStrPortfolioName</text>
</a>
</g>
</g>
<!-- Node2 -->
<g id="node2" class="node">
<title>Node2</title>
<g id="a_node2"><a xlink:href="../../d9/d52/classCPortfolio.html#a1253d72b078e2ad23e28744f232a078a" target="_top" xlink:title="Mehtod set and get all information about the portfolios.">
<polygon fill="none" stroke="#000000" points="775,-.5 775,-21.5 918,-21.5 918,-.5 775,-.5"/>
<text text-anchor="middle" x="846.5" y="-7.9" font-family="Helvetica,sans-Serif" font-size="12.00" fill="#000000">CPortfolio::userPortfolio</text>
</a>
</g>
</g>
<!-- Node1&#45;&gt;Node2 -->
<g id="edge1" class="edge">
<title>Node1&#45;&gt;Node2</title>
<path fill="none" stroke="#191970" d="M943.6597,-11C934.9934,-11 926.376,-11 918.0573,-11"/>
<polygon fill="#191970" stroke="#191970" points="943.8407,-14.5001 953.8407,-11 943.8406,-7.5001 943.8407,-14.5001"/>
</g>
<!-- Node3 -->
<g id="node3" class="node">
<title>Node3</title>
<g id="a_node3"><a xlink:href="../../d1/d60/classCMyHolding.html#a2da746680d2dd9d7af60d49719b0fd37" target="_top" xlink:title="Method set and gets all information about holding of Client.">
<polygon fill="none" stroke="#000000" points="545,-.5 545,-21.5 739,-21.5 739,-.5 545,-.5"/>
<text text-anchor="middle" x="642" y="-7.9" font-family="Helvetica,sans-Serif" font-size="12.00" fill="#000000">CMyHolding::createHoldingMenu</text>
</a>
</g>
</g>
<!-- Node2&#45;&gt;Node3 -->
<g id="edge2" class="edge">
<title>Node2&#45;&gt;Node3</title>
<path fill="none" stroke="#191970" d="M764.7576,-11C756.2874,-11 747.6213,-11 739.0051,-11"/>
<polygon fill="#191970" stroke="#191970" points="764.9759,-14.5001 774.9758,-11 764.9758,-7.5001 764.9759,-14.5001"/>
</g>
<!-- Node4 -->
<g id="node4" class="node">
<title>Node4</title>
<g id="a_node4"><a xlink:href="../../df/da7/classCClient.html#a1cb513868f3ae0f1130528cdaeb3fb26" target="_top" xlink:title="Method create Client menu through which you can set and get data for Client.">
<polygon fill="none" stroke="#000000" points="351,-.5 351,-21.5 509,-21.5 509,-.5 351,-.5"/>
<text text-anchor="middle" x="430" y="-7.9" font-family="Helvetica,sans-Serif" font-size="12.00" fill="#000000">CClient::createClientMenu</text>
</a>
</g>
</g>
<!-- Node3&#45;&gt;Node4 -->
<g id="edge3" class="edge">
<title>Node3&#45;&gt;Node4</title>
<path fill="none" stroke="#191970" d="M534.8542,-11C526.2068,-11 517.5697,-11 509.173,-11"/>
<polygon fill="#191970" stroke="#191970" points="534.9963,-14.5001 544.9962,-11 534.9962,-7.5001 534.9963,-14.5001"/>
</g>
<!-- Node5 -->
<g id="node5" class="node">
<title>Node5</title>
<g id="a_node5"><a xlink:href="../../da/d8b/classCAdministrator.html#a834db63b1ee3b716b1e8e97a101e51de" target="_top" xlink:title="Method with while loop, switch expression and fstream library to register the administrator and can g...">
<polygon fill="none" stroke="#000000" points="79,-20.5 79,-41.5 315,-41.5 315,-20.5 79,-20.5"/>
<text text-anchor="middle" x="197" y="-27.9" font-family="Helvetica,sans-Serif" font-size="12.00" fill="#000000">CAdministrator::createAdministratorMenu</text>
</a>
</g>
</g>
<!-- Node4&#45;&gt;Node5 -->
<g id="edge4" class="edge">
<title>Node4&#45;&gt;Node5</title>
<path fill="none" stroke="#191970" d="M340.7155,-18.6639C332.3642,-19.3808 323.8153,-20.1146 315.2538,-20.8495"/>
<polygon fill="#191970" stroke="#191970" points="341.1277,-22.1415 350.7917,-17.799 340.529,-15.1671 341.1277,-22.1415"/>
</g>
<!-- Node6 -->
<g id="node6" class="node">
<title>Node6</title>
<g id="a_node6"><a xlink:href="../../df/d0a/main_8cpp.html#ae66f6b31b5ad750f1fe042a706a4e3d4" target="_top" xlink:title=" ">
<polygon fill="none" stroke="#000000" points="0,-.5 0,-21.5 43,-21.5 43,-.5 0,-.5"/>
<text text-anchor="middle" x="21.5" y="-7.9" font-family="Helvetica,sans-Serif" font-size="12.00" fill="#000000">main</text>
</a>
</g>
</g>
<!-- Node4&#45;&gt;Node6 -->
<g id="edge7" class="edge">
<title>Node4&#45;&gt;Node6</title>
<path fill="none" stroke="#191970" d="M340.7491,-11C244.6831,-11 98.2696,-11 43.3341,-11"/>
<polygon fill="#191970" stroke="#191970" points="340.7528,-14.5001 350.7527,-11 340.7527,-7.5001 340.7528,-14.5001"/>
</g>
<!-- Node5&#45;&gt;Node5 -->
<g id="edge5" class="edge">
<title>Node5&#45;&gt;Node5</title>
<path fill="none" stroke="#191970" d="M229.3758,-50.6791C227.6409,-55.9746 216.849,-60 197,-60 166.7539,-60 157.5383,-50.6531 169.3532,-41.7079"/>
<polygon fill="#191970" stroke="#191970" points="232.4061,-48.922 224.6468,-41.7079 226.2138,-52.1862 232.4061,-48.922"/>
</g>
<!-- Node5&#45;&gt;Node6 -->
<g id="edge6" class="edge">
<title>Node5&#45;&gt;Node6</title>
<path fill="none" stroke="#191970" d="M94.4501,-19.3134C75.1263,-17.1113 56.7886,-15.0215 43.3323,-13.488"/>
<polygon fill="#191970" stroke="#191970" points="94.2924,-22.818 104.6245,-20.4729 95.0851,-15.863 94.2924,-22.818"/>
</g>
</g>
</svg>
