<?xml version="1.0" encoding="UTF-8" standalone="no"?>
<!DOCTYPE svg PUBLIC "-//W3C//DTD SVG 1.1//EN"
 "http://www.w3.org/Graphics/SVG/1.1/DTD/svg11.dtd">
<!-- Generated by graphviz version 2.40.1 (20161225.0304)
 -->
<!-- Title: headers/CRisk.h Pages: 1 -->
<svg width="1449pt" height="436pt"
 viewBox="0.00 0.00 1449.00 436.00" xmlns="http://www.w3.org/2000/svg" xmlns:xlink="http://www.w3.org/1999/xlink">
<g id="graph0" class="graph" transform="scale(1 1) rotate(0) translate(4 432)">
<title>headers/CRisk.h</title>
<!-- Node1 -->
<g id="node1" class="node">
<title>Node1</title>
<g id="a_node1"><a xlink:title=" ">
<polygon fill="#bfbfbf" stroke="#000000" points="987,-406.5 987,-427.5 1093,-427.5 1093,-406.5 987,-406.5"/>
<text text-anchor="middle" x="1040" y="-413.9" font-family="Helvetica,sans-Serif" font-size="12.00" fill="#000000">headers/CRisk.h</text>
</a>
</g>
</g>
<!-- Node2 -->
<g id="node2" class="node">
<title>Node2</title>
<g id="a_node2"><a xlink:href="../../dd/d85/CDataBase_8h.html" target="_top" xlink:title=" ">
<polygon fill="none" stroke="#000000" points="750.5,-348.5 750.5,-369.5 885.5,-369.5 885.5,-348.5 750.5,-348.5"/>
<text text-anchor="middle" x="818" y="-355.9" font-family="Helvetica,sans-Serif" font-size="12.00" fill="#000000">headers/CDataBase.h</text>
</a>
</g>
</g>
<!-- Node1&#45;&gt;Node2 -->
<g id="edge1" class="edge">
<title>Node1&#45;&gt;Node2</title>
<path fill="none" stroke="#191970" d="M990.0296,-403.9447C950.2434,-393.5501 895.2777,-379.1897 858.2779,-369.5231"/>
<polygon fill="#191970" stroke="#191970" points="989.2375,-407.3551 999.7975,-406.4966 991.007,-400.5825 989.2375,-407.3551"/>
</g>
<!-- Node9 -->
<g id="node9" class="node">
<title>Node9</title>
<g id="a_node9"><a xlink:href="../../d1/dea/CPortfolio_8h.html" target="_top" xlink:title=" ">
<polygon fill="none" stroke="#000000" points="471,-58.5 471,-79.5 597,-79.5 597,-58.5 471,-58.5"/>
<text text-anchor="middle" x="534" y="-65.9" font-family="Helvetica,sans-Serif" font-size="12.00" fill="#000000">headers/CPortfolio.h</text>
</a>
</g>
</g>
<!-- Node1&#45;&gt;Node9 -->
<g id="edge40" class="edge">
<title>Node1&#45;&gt;Node9</title>
<path fill="none" stroke="#191970" d="M976.5405,-412.0741C815.3816,-398.7174 403,-358.8843 403,-301 403,-301 403,-301 403,-185 403,-130.7753 466.6895,-95.7718 505.2515,-79.5479"/>
<polygon fill="#191970" stroke="#191970" points="976.5324,-415.5851 986.7854,-412.9155 977.1054,-408.6086 976.5324,-415.5851"/>
</g>
<!-- Node20 -->
<g id="node20" class="node">
<title>Node20</title>
<g id="a_node20"><a xlink:href="../../d9/d0a/CDataBase_8cpp.html" target="_top" xlink:title=" ">
<polygon fill="none" stroke="#000000" points="1295,-232.5 1295,-253.5 1441,-253.5 1441,-232.5 1295,-232.5"/>
<text text-anchor="middle" x="1368" y="-239.9" font-family="Helvetica,sans-Serif" font-size="12.00" fill="#000000">sources/CDataBase.cpp</text>
</a>
</g>
</g>
<!-- Node1&#45;&gt;Node20 -->
<g id="edge41" class="edge">
<title>Node1&#45;&gt;Node20</title>
<path fill="none" stroke="#191970" d="M1041.0122,-396.4071C1042.818,-381.2101 1047.5952,-360.9946 1060,-348 1096.4249,-309.8434 1243.6114,-271.48 1320.5762,-253.5169"/>
<polygon fill="#191970" stroke="#191970" points="1037.5216,-396.1488 1040.1558,-406.4109 1044.496,-396.7459 1037.5216,-396.1488"/>
</g>
<!-- Node21 -->
<g id="node21" class="node">
<title>Node21</title>
<g id="a_node21"><a xlink:href="../../d7/d24/CReturn_8cpp.html" target="_top" xlink:title=" ">
<polygon fill="none" stroke="#000000" points="1068.5,-348.5 1068.5,-369.5 1197.5,-369.5 1197.5,-348.5 1068.5,-348.5"/>
<text text-anchor="middle" x="1133" y="-355.9" font-family="Helvetica,sans-Serif" font-size="12.00" fill="#000000">sources/CReturn.cpp</text>
</a>
</g>
</g>
<!-- Node1&#45;&gt;Node21 -->
<g id="edge42" class="edge">
<title>Node1&#45;&gt;Node21</title>
<path fill="none" stroke="#191970" d="M1065.9414,-400.8215C1081.9602,-390.8312 1102.0546,-378.2993 1116.0505,-369.5707"/>
<polygon fill="#191970" stroke="#191970" points="1063.6906,-398.1003 1057.0576,-406.3619 1067.3949,-404.0399 1063.6906,-398.1003"/>
</g>
<!-- Node22 -->
<g id="node22" class="node">
<title>Node22</title>
<g id="a_node22"><a xlink:href="../../d1/d4e/CRisk_8cpp.html" target="_top" xlink:title=" ">
<polygon fill="none" stroke="#000000" points="1215.5,-348.5 1215.5,-369.5 1332.5,-369.5 1332.5,-348.5 1215.5,-348.5"/>
<text text-anchor="middle" x="1274" y="-355.9" font-family="Helvetica,sans-Serif" font-size="12.00" fill="#000000">sources/CRisk.cpp</text>
</a>
</g>
</g>
<!-- Node1&#45;&gt;Node22 -->
<g id="edge43" class="edge">
<title>Node1&#45;&gt;Node22</title>
<path fill="none" stroke="#191970" d="M1092.1393,-404.0766C1134.117,-393.6718 1192.3798,-379.2306 1231.5449,-369.5231"/>
<polygon fill="#191970" stroke="#191970" points="1091.2399,-400.6935 1082.3756,-406.4966 1092.924,-407.4879 1091.2399,-400.6935"/>
</g>
<!-- Node3 -->
<g id="node3" class="node">
<title>Node3</title>
<g id="a_node3"><a xlink:href="../../df/d1a/CBroker_8h.html" target="_top" xlink:title=" ">
<polygon fill="none" stroke="#000000" points="517.5,-232.5 517.5,-253.5 634.5,-253.5 634.5,-232.5 517.5,-232.5"/>
<text text-anchor="middle" x="576" y="-239.9" font-family="Helvetica,sans-Serif" font-size="12.00" fill="#000000">headers/CBroker.h</text>
</a>
</g>
</g>
<!-- Node2&#45;&gt;Node3 -->
<g id="edge2" class="edge">
<title>Node2&#45;&gt;Node3</title>
<path fill="none" stroke="#191970" d="M742.0319,-346.1308C711.7818,-338.942 677.4674,-328.0825 649,-312 621.6696,-296.5598 596.6825,-268.7198 584.2551,-253.5507"/>
<polygon fill="#191970" stroke="#191970" points="741.5927,-349.6204 752.1204,-348.4303 743.1483,-342.7954 741.5927,-349.6204"/>
</g>
<!-- Node5 -->
<g id="node5" class="node">
<title>Node5</title>
<g id="a_node5"><a xlink:href="../../dd/d2c/CClient_8h.html" target="_top" xlink:title=" ">
<polygon fill="none" stroke="#000000" points="185.5,-116.5 185.5,-137.5 298.5,-137.5 298.5,-116.5 185.5,-116.5"/>
<text text-anchor="middle" x="242" y="-123.9" font-family="Helvetica,sans-Serif" font-size="12.00" fill="#000000">headers/CClient.h</text>
</a>
</g>
</g>
<!-- Node2&#45;&gt;Node5 -->
<g id="edge37" class="edge">
<title>Node2&#45;&gt;Node5</title>
<path fill="none" stroke="#191970" d="M759.2864,-346.2566C718.8605,-337.2581 663.9968,-324.6029 616,-312 438.6174,-265.4232 329.9521,-342.7805 220,-196 206.7329,-178.289 222.1065,-152.3174 233.0106,-137.8147"/>
<polygon fill="#191970" stroke="#191970" points="758.7196,-349.7158 769.2401,-348.4633 760.2347,-342.8818 758.7196,-349.7158"/>
</g>
<!-- Node2&#45;&gt;Node9 -->
<g id="edge38" class="edge">
<title>Node2&#45;&gt;Node9</title>
<path fill="none" stroke="#191970" d="M769.1631,-345.0585C723.7303,-328.7423 663,-296.8592 663,-243 663,-243 663,-243 663,-185 663,-131.0872 599.931,-95.8549 561.9911,-79.5379"/>
<polygon fill="#191970" stroke="#191970" points="768.2923,-348.4601 778.887,-348.4012 770.568,-341.8403 768.2923,-348.4601"/>
</g>
<!-- Node14 -->
<g id="node14" class="node">
<title>Node14</title>
<g id="a_node14"><a xlink:href="../../d7/d79/CAsset_8h.html" target="_top" xlink:title=" ">
<polygon fill="none" stroke="#000000" points="862,-290.5 862,-311.5 974,-311.5 974,-290.5 862,-290.5"/>
<text text-anchor="middle" x="918" y="-297.9" font-family="Helvetica,sans-Serif" font-size="12.00" fill="#000000">headers/CAsset.h</text>
</a>
</g>
</g>
<!-- Node2&#45;&gt;Node14 -->
<g id="edge20" class="edge">
<title>Node2&#45;&gt;Node14</title>
<path fill="none" stroke="#191970" d="M845.4122,-343.1009C862.7141,-333.0658 884.5848,-320.3808 899.7747,-311.5707"/>
<polygon fill="#191970" stroke="#191970" points="843.2358,-340.3171 836.3415,-348.3619 846.7479,-346.3723 843.2358,-340.3171"/>
</g>
<!-- Node2&#45;&gt;Node20 -->
<g id="edge39" class="edge">
<title>Node2&#45;&gt;Node20</title>
<path fill="none" stroke="#191970" d="M873.7175,-346.0239C906.126,-337.7644 947.4621,-325.997 983,-312 1002.9738,-304.1331 1005.5219,-296.4411 1026,-290 1038.685,-286.0101 1198.195,-264.958 1294.8268,-252.4222"/>
<polygon fill="#191970" stroke="#191970" points="872.8092,-342.6432 863.9626,-348.4731 874.5139,-349.4325 872.8092,-342.6432"/>
</g>
<!-- Node4 -->
<g id="node4" class="node">
<title>Node4</title>
<g id="a_node4"><a xlink:href="../../df/dca/CMyHoldings_8h.html" target="_top" xlink:title=" ">
<polygon fill="none" stroke="#000000" points="229,-174.5 229,-195.5 375,-195.5 375,-174.5 229,-174.5"/>
<text text-anchor="middle" x="302" y="-181.9" font-family="Helvetica,sans-Serif" font-size="12.00" fill="#000000">headers/CMyHoldings.h</text>
</a>
</g>
</g>
<!-- Node3&#45;&gt;Node4 -->
<g id="edge3" class="edge">
<title>Node3&#45;&gt;Node4</title>
<path fill="none" stroke="#191970" d="M516.4971,-230.4045C467.2364,-219.977 398.0561,-205.333 351.7124,-195.5231"/>
<polygon fill="#191970" stroke="#191970" points="515.8726,-233.8498 526.3807,-232.4966 517.3223,-227.0015 515.8726,-233.8498"/>
</g>
<!-- Node7 -->
<g id="node7" class="node">
<title>Node7</title>
<g id="a_node7"><a xlink:href="../../df/d0a/main_8cpp.html" target="_top" xlink:title=" ">
<polygon fill="none" stroke="#000000" points="655.5,-.5 655.5,-21.5 720.5,-21.5 720.5,-.5 655.5,-.5"/>
<text text-anchor="middle" x="688" y="-7.9" font-family="Helvetica,sans-Serif" font-size="12.00" fill="#000000">main.cpp</text>
</a>
</g>
</g>
<!-- Node3&#45;&gt;Node7 -->
<g id="edge18" class="edge">
<title>Node3&#45;&gt;Node7</title>
<path fill="none" stroke="#191970" d="M585.5418,-223.2348C608.3525,-175.9842 665.4383,-57.7349 682.8666,-21.6335"/>
<polygon fill="#191970" stroke="#191970" points="582.2991,-221.9014 581.1034,-232.4286 588.6029,-224.9447 582.2991,-221.9014"/>
</g>
<!-- Node3&#45;&gt;Node9 -->
<g id="edge17" class="edge">
<title>Node3&#45;&gt;Node9</title>
<path fill="none" stroke="#191970" d="M574.6321,-221.7974C573.4786,-208.0566 571.446,-189.8342 568,-174 560.2989,-138.614 545.4369,-98.2464 538.1851,-79.5403"/>
<polygon fill="#191970" stroke="#191970" points="571.1691,-222.4241 575.406,-232.1348 578.1496,-221.9014 571.1691,-222.4241"/>
</g>
<!-- Node13 -->
<g id="node13" class="node">
<title>Node13</title>
<g id="a_node13"><a xlink:href="../../d3/d2d/CBroker_8cpp.html" target="_top" xlink:title=" ">
<polygon fill="none" stroke="#000000" points="431,-174.5 431,-195.5 559,-195.5 559,-174.5 431,-174.5"/>
<text text-anchor="middle" x="495" y="-181.9" font-family="Helvetica,sans-Serif" font-size="12.00" fill="#000000">sources/CBroker.cpp</text>
</a>
</g>
</g>
<!-- Node3&#45;&gt;Node13 -->
<g id="edge19" class="edge">
<title>Node3&#45;&gt;Node13</title>
<path fill="none" stroke="#191970" d="M552.6199,-226.2587C538.8016,-216.3641 521.7246,-204.1361 509.7625,-195.5707"/>
<polygon fill="#191970" stroke="#191970" points="550.9751,-229.3857 561.1434,-232.3619 555.0505,-223.6943 550.9751,-229.3857"/>
</g>
<!-- Node4&#45;&gt;Node5 -->
<g id="edge4" class="edge">
<title>Node4&#45;&gt;Node5</title>
<path fill="none" stroke="#191970" d="M283.7983,-167.405C273.7259,-157.6683 261.5428,-145.8914 252.9352,-137.5707"/>
<polygon fill="#191970" stroke="#191970" points="281.3726,-169.9281 290.9951,-174.3619 286.2378,-164.8952 281.3726,-169.9281"/>
</g>
<!-- Node4&#45;&gt;Node9 -->
<g id="edge15" class="edge">
<title>Node4&#45;&gt;Node9</title>
<path fill="none" stroke="#191970" d="M320.0222,-167.4946C336.7234,-152.0955 362.8624,-130.0083 389,-116 420.1381,-99.3118 458.2323,-87.2474 487.5597,-79.5226"/>
<polygon fill="#191970" stroke="#191970" points="317.5105,-165.052 312.6229,-174.4521 322.3057,-170.1516 317.5105,-165.052"/>
</g>
<!-- Node11 -->
<g id="node11" class="node">
<title>Node11</title>
<g id="a_node11"><a xlink:href="../../d0/dce/CMyHoldings_8cpp.html" target="_top" xlink:title=" ">
<polygon fill="none" stroke="#000000" points="325.5,-.5 325.5,-21.5 482.5,-21.5 482.5,-.5 325.5,-.5"/>
<text text-anchor="middle" x="404" y="-7.9" font-family="Helvetica,sans-Serif" font-size="12.00" fill="#000000">sources/CMyHoldings.cpp</text>
</a>
</g>
</g>
<!-- Node4&#45;&gt;Node11 -->
<g id="edge16" class="edge">
<title>Node4&#45;&gt;Node11</title>
<path fill="none" stroke="#191970" d="M313.3589,-165.6231C334.8258,-129.0031 380.7111,-50.7281 397.5941,-21.9277"/>
<polygon fill="#191970" stroke="#191970" points="310.2648,-163.9804 308.227,-174.3774 316.3037,-167.5205 310.2648,-163.9804"/>
</g>
<!-- Node6 -->
<g id="node6" class="node">
<title>Node6</title>
<g id="a_node6"><a xlink:href="../../d6/d5c/CAdministrator_8h.html" target="_top" xlink:title=" ">
<polygon fill="none" stroke="#000000" points="65,-58.5 65,-79.5 217,-79.5 217,-58.5 65,-58.5"/>
<text text-anchor="middle" x="141" y="-65.9" font-family="Helvetica,sans-Serif" font-size="12.00" fill="#000000">headers/CAdministrator.h</text>
</a>
</g>
</g>
<!-- Node5&#45;&gt;Node6 -->
<g id="edge5" class="edge">
<title>Node5&#45;&gt;Node6</title>
<path fill="none" stroke="#191970" d="M214.7979,-111.379C197.2484,-101.3011 174.8915,-88.4624 159.4075,-79.5707"/>
<polygon fill="#191970" stroke="#191970" points="213.0602,-114.4171 223.475,-116.3619 216.5462,-108.3468 213.0602,-114.4171"/>
</g>
<!-- Node5&#45;&gt;Node7 -->
<g id="edge13" class="edge">
<title>Node5&#45;&gt;Node7</title>
<path fill="none" stroke="#191970" d="M281.6229,-113.1001C325.3779,-98.0976 398.1008,-74.1839 462,-58 543.2006,-37.4341 565.3873,-40.8644 647,-22 649.7286,-21.3693 652.5505,-20.6835 655.3779,-19.9728"/>
<polygon fill="#191970" stroke="#191970" points="280.2572,-109.8687 271.9432,-116.4359 282.5379,-116.4867 280.2572,-109.8687"/>
</g>
<!-- Node5&#45;&gt;Node9 -->
<g id="edge8" class="edge">
<title>Node5&#45;&gt;Node9</title>
<path fill="none" stroke="#191970" d="M304.7554,-114.5349C357.2926,-104.0994 431.4275,-89.374 481.0218,-79.5231"/>
<polygon fill="#191970" stroke="#191970" points="304.0055,-111.1154 294.879,-116.4966 305.3693,-117.9813 304.0055,-111.1154"/>
</g>
<!-- Node10 -->
<g id="node10" class="node">
<title>Node10</title>
<g id="a_node10"><a xlink:href="../../d8/d8c/CClient_8cpp.html" target="_top" xlink:title=" ">
<polygon fill="none" stroke="#000000" points="182.5,-.5 182.5,-21.5 307.5,-21.5 307.5,-.5 182.5,-.5"/>
<text text-anchor="middle" x="245" y="-7.9" font-family="Helvetica,sans-Serif" font-size="12.00" fill="#000000">sources/CClient.cpp</text>
</a>
</g>
</g>
<!-- Node5&#45;&gt;Node10 -->
<g id="edge14" class="edge">
<title>Node5&#45;&gt;Node10</title>
<path fill="none" stroke="#191970" d="M242.5399,-106.1231C243.1819,-81.2984 244.2287,-40.8235 244.7238,-21.6792"/>
<polygon fill="#191970" stroke="#191970" points="239.0367,-106.2077 242.2769,-116.2949 246.0343,-106.3888 239.0367,-106.2077"/>
</g>
<!-- Node6&#45;&gt;Node7 -->
<g id="edge6" class="edge">
<title>Node6&#45;&gt;Node7</title>
<path fill="none" stroke="#191970" d="M227.3178,-61.7863C360.9771,-50.4947 606.8771,-29.1922 647,-22 649.7566,-21.5059 652.5982,-20.9161 655.4388,-20.2699"/>
<polygon fill="#191970" stroke="#191970" points="226.7759,-58.3195 217.1056,-62.648 227.3645,-65.2947 226.7759,-58.3195"/>
</g>
<!-- Node8 -->
<g id="node8" class="node">
<title>Node8</title>
<g id="a_node8"><a xlink:href="../../d2/da4/CAdministrator_8cpp.html" target="_top" xlink:title=" ">
<polygon fill="none" stroke="#000000" points="0,-.5 0,-21.5 164,-21.5 164,-.5 0,-.5"/>
<text text-anchor="middle" x="82" y="-7.9" font-family="Helvetica,sans-Serif" font-size="12.00" fill="#000000">sources/CAdministrator.cpp</text>
</a>
</g>
</g>
<!-- Node6&#45;&gt;Node8 -->
<g id="edge7" class="edge">
<title>Node6&#45;&gt;Node8</title>
<path fill="none" stroke="#191970" d="M122.8097,-51.118C112.9625,-41.4377 101.1341,-29.8098 92.7529,-21.5707"/>
<polygon fill="#191970" stroke="#191970" points="120.5936,-53.8474 130.1785,-58.3619 125.5009,-48.8556 120.5936,-53.8474"/>
</g>
<!-- Node9&#45;&gt;Node7 -->
<g id="edge9" class="edge">
<title>Node9&#45;&gt;Node7</title>
<path fill="none" stroke="#191970" d="M571.5063,-54.8742C598.8343,-44.5819 635.263,-30.862 660.0595,-21.5231"/>
<polygon fill="#191970" stroke="#191970" points="570.0129,-51.6966 561.8882,-58.4966 572.4801,-58.2474 570.0129,-51.6966"/>
</g>
<!-- Node9&#45;&gt;Node10 -->
<g id="edge10" class="edge">
<title>Node9&#45;&gt;Node10</title>
<path fill="none" stroke="#191970" d="M471.5647,-56.4697C419.5869,-46.0382 346.4167,-31.3535 297.4339,-21.5231"/>
<polygon fill="#191970" stroke="#191970" points="471.1711,-59.9605 481.6643,-58.4966 472.5485,-53.0973 471.1711,-59.9605"/>
</g>
<!-- Node9&#45;&gt;Node11 -->
<g id="edge11" class="edge">
<title>Node9&#45;&gt;Node11</title>
<path fill="none" stroke="#191970" d="M501.1483,-54.3431C478.3021,-44.1502 448.3741,-30.7977 427.8062,-21.6212"/>
<polygon fill="#191970" stroke="#191970" points="499.8996,-57.6185 510.458,-58.4966 502.7517,-51.2259 499.8996,-57.6185"/>
</g>
<!-- Node12 -->
<g id="node12" class="node">
<title>Node12</title>
<g id="a_node12"><a xlink:href="../../d8/dbf/CPortfolio_8cpp.html" target="_top" xlink:title=" ">
<polygon fill="none" stroke="#000000" points="500.5,-.5 500.5,-21.5 637.5,-21.5 637.5,-.5 500.5,-.5"/>
<text text-anchor="middle" x="569" y="-7.9" font-family="Helvetica,sans-Serif" font-size="12.00" fill="#000000">sources/CPortfolio.cpp</text>
</a>
</g>
</g>
<!-- Node9&#45;&gt;Node12 -->
<g id="edge12" class="edge">
<title>Node9&#45;&gt;Node12</title>
<path fill="none" stroke="#191970" d="M545.6667,-49.6667C551.3221,-40.2948 557.8954,-29.4019 562.6212,-21.5707"/>
<polygon fill="#191970" stroke="#191970" points="542.5896,-47.9917 540.4195,-58.3619 548.5829,-51.6084 542.5896,-47.9917"/>
</g>
<!-- Node14&#45;&gt;Node3 -->
<g id="edge21" class="edge">
<title>Node14&#45;&gt;Node3</title>
<path fill="none" stroke="#191970" d="M851.6921,-289.7548C788.7397,-279.0787 695.0148,-263.1838 634.7019,-252.9553"/>
<polygon fill="#191970" stroke="#191970" points="851.4642,-293.266 861.9086,-291.4874 852.6346,-286.3646 851.4642,-293.266"/>
</g>
<!-- Node14&#45;&gt;Node7 -->
<g id="edge33" class="edge">
<title>Node14&#45;&gt;Node7</title>
<path fill="none" stroke="#191970" d="M984.2118,-289.2566C1082.8222,-275.1708 1123.6125,-307.8848 1207,-254 1240.0608,-232.6362 1261.62,-209.6821 1245,-174 1228.085,-137.6844 1210.8513,-135.7566 1176,-116 1107.2823,-77.0451 1084.7434,-76.7096 1008,-58 904.6206,-32.7967 778.9482,-19.1526 720.6332,-13.7647"/>
<polygon fill="#191970" stroke="#191970" points="983.5055,-285.8244 974.1647,-290.8244 984.5848,-292.7407 983.5055,-285.8244"/>
</g>
<!-- Node14&#45;&gt;Node9 -->
<g id="edge27" class="edge">
<title>Node14&#45;&gt;Node9</title>
<path fill="none" stroke="#191970" d="M872.7066,-287.2069C850.4168,-279.31 823.7375,-268.1395 802,-254 770.9095,-233.7766 767.0725,-223.3308 742,-196 711.0306,-162.2412 714.7324,-141.9814 677,-116 651.0637,-98.141 617.8607,-86.6812 589.9785,-79.5532"/>
<polygon fill="#191970" stroke="#191970" points="871.6888,-290.5579 882.2834,-290.4966 873.9629,-283.9376 871.6888,-290.5579"/>
</g>
<!-- Node15 -->
<g id="node15" class="node">
<title>Node15</title>
<g id="a_node15"><a xlink:href="../../dc/d09/CETF_8h.html" target="_top" xlink:title=" ">
<polygon fill="none" stroke="#000000" points="810.5,-232.5 810.5,-253.5 915.5,-253.5 915.5,-232.5 810.5,-232.5"/>
<text text-anchor="middle" x="863" y="-239.9" font-family="Helvetica,sans-Serif" font-size="12.00" fill="#000000">headers/CETF.h</text>
</a>
</g>
</g>
<!-- Node14&#45;&gt;Node15 -->
<g id="edge22" class="edge">
<title>Node14&#45;&gt;Node15</title>
<path fill="none" stroke="#191970" d="M900.7698,-282.8299C891.6454,-273.2078 880.7595,-261.7282 873.0239,-253.5707"/>
<polygon fill="#191970" stroke="#191970" points="898.4915,-285.514 907.9122,-290.3619 903.5709,-280.6973 898.4915,-285.514"/>
</g>
<!-- Node16 -->
<g id="node16" class="node">
<title>Node16</title>
<g id="a_node16"><a xlink:href="../../d3/d59/CAsset_8cpp.html" target="_top" xlink:title=" ">
<polygon fill="none" stroke="#000000" points="939.5,-174.5 939.5,-195.5 1062.5,-195.5 1062.5,-174.5 939.5,-174.5"/>
<text text-anchor="middle" x="1001" y="-181.9" font-family="Helvetica,sans-Serif" font-size="12.00" fill="#000000">sources/CAsset.cpp</text>
</a>
</g>
</g>
<!-- Node14&#45;&gt;Node16 -->
<g id="edge34" class="edge">
<title>Node14&#45;&gt;Node16</title>
<path fill="none" stroke="#191970" d="M931.5226,-282.1009C949.1237,-257.5018 979.2905,-215.3409 993.3588,-195.6792"/>
<polygon fill="#191970" stroke="#191970" points="928.6323,-280.1256 925.6597,-290.2949 934.3251,-284.199 928.6323,-280.1256"/>
</g>
<!-- Node18 -->
<g id="node18" class="node">
<title>Node18</title>
<g id="a_node18"><a xlink:href="../../d2/d2d/CStock_8h.html" target="_top" xlink:title=" ">
<polygon fill="none" stroke="#000000" points="1086,-232.5 1086,-253.5 1198,-253.5 1198,-232.5 1086,-232.5"/>
<text text-anchor="middle" x="1142" y="-239.9" font-family="Helvetica,sans-Serif" font-size="12.00" fill="#000000">headers/CStock.h</text>
</a>
</g>
</g>
<!-- Node14&#45;&gt;Node18 -->
<g id="edge28" class="edge">
<title>Node14&#45;&gt;Node18</title>
<path fill="none" stroke="#191970" d="M968.4206,-287.9447C1008.5653,-277.5501 1064.0261,-263.1897 1101.3592,-253.5231"/>
<polygon fill="#191970" stroke="#191970" points="967.3681,-284.6017 958.5647,-290.4966 969.1228,-291.3782 967.3681,-284.6017"/>
</g>
<!-- Node19 -->
<g id="node19" class="node">
<title>Node19</title>
<g id="a_node19"><a xlink:href="../../d0/d8b/CStock_8cpp.html" target="_top" xlink:title=" ">
<polygon fill="none" stroke="#000000" points="1080.5,-174.5 1080.5,-195.5 1203.5,-195.5 1203.5,-174.5 1080.5,-174.5"/>
<text text-anchor="middle" x="1142" y="-181.9" font-family="Helvetica,sans-Serif" font-size="12.00" fill="#000000">sources/CStock.cpp</text>
</a>
</g>
</g>
<!-- Node14&#45;&gt;Node19 -->
<g id="edge36" class="edge">
<title>Node14&#45;&gt;Node19</title>
<path fill="none" stroke="#191970" d="M947.6,-285.6714C993.8289,-261.7314 1081.9793,-216.0821 1121.7016,-195.5117"/>
<polygon fill="#191970" stroke="#191970" points="945.9423,-282.5883 938.6719,-290.2949 949.1613,-288.8043 945.9423,-282.5883"/>
</g>
<!-- Node14&#45;&gt;Node20 -->
<g id="edge35" class="edge">
<title>Node14&#45;&gt;Node20</title>
<path fill="none" stroke="#191970" d="M984.1619,-290.543C985.4518,-290.3586 986.7322,-290.1774 988,-290 1117.9349,-271.8137 1150.8061,-270.2289 1281,-254 1285.5322,-253.435 1290.197,-252.8514 1294.901,-252.2613"/>
<polygon fill="#191970" stroke="#191970" points="983.5278,-287.0984 974.1392,-292.0081 984.5403,-294.0248 983.5278,-287.0984"/>
</g>
<!-- Node15&#45;&gt;Node7 -->
<g id="edge24" class="edge">
<title>Node15&#45;&gt;Node7</title>
<path fill="none" stroke="#191970" d="M834.5055,-226.891C821.7247,-218.7441 807.0696,-208.0325 796,-196 743.3746,-138.7966 704.6925,-51.6896 692.2628,-21.6331"/>
<polygon fill="#191970" stroke="#191970" points="833.0491,-230.1038 843.4026,-232.3523 836.711,-224.138 833.0491,-230.1038"/>
</g>
<!-- Node15&#45;&gt;Node9 -->
<g id="edge23" class="edge">
<title>Node15&#45;&gt;Node9</title>
<path fill="none" stroke="#191970" d="M818.581,-228.7C799.9053,-221.1163 778.8768,-210.3482 763,-196 732.2367,-168.1984 748.2036,-140.8361 715,-116 695.8918,-101.7071 639.0475,-88.3316 594.1052,-79.5326"/>
<polygon fill="#191970" stroke="#191970" points="817.5036,-232.0359 828.0929,-232.3776 820.0279,-225.5069 817.5036,-232.0359"/>
</g>
<!-- Node15&#45;&gt;Node16 -->
<g id="edge25" class="edge">
<title>Node15&#45;&gt;Node16</title>
<path fill="none" stroke="#191970" d="M897.2256,-228.6153C921.5574,-218.3889 953.7003,-204.8796 975.7288,-195.6212"/>
<polygon fill="#191970" stroke="#191970" points="895.8535,-225.3954 887.9908,-232.4966 898.5658,-231.8486 895.8535,-225.3954"/>
</g>
<!-- Node17 -->
<g id="node17" class="node">
<title>Node17</title>
<g id="a_node17"><a xlink:href="../../db/d85/CETF_8cpp.html" target="_top" xlink:title=" ">
<polygon fill="none" stroke="#000000" points="805,-174.5 805,-195.5 921,-195.5 921,-174.5 805,-174.5"/>
<text text-anchor="middle" x="863" y="-181.9" font-family="Helvetica,sans-Serif" font-size="12.00" fill="#000000">sources/CETF.cpp</text>
</a>
</g>
</g>
<!-- Node15&#45;&gt;Node17 -->
<g id="edge26" class="edge">
<title>Node15&#45;&gt;Node17</title>
<path fill="none" stroke="#191970" d="M863,-222.1906C863,-213.1684 863,-202.9941 863,-195.5707"/>
<polygon fill="#191970" stroke="#191970" points="859.5001,-222.3619 863,-232.3619 866.5001,-222.3619 859.5001,-222.3619"/>
</g>
<!-- Node18&#45;&gt;Node7 -->
<g id="edge30" class="edge">
<title>Node18&#45;&gt;Node7</title>
<path fill="none" stroke="#191970" d="M1184.7812,-228.6969C1214.2845,-216.4247 1245.456,-197.0904 1229,-174 1167.8703,-88.2255 828.5993,-31.655 720.8511,-15.6513"/>
<polygon fill="#191970" stroke="#191970" points="1183.3405,-225.5027 1175.3232,-232.429 1185.91,-232.0141 1183.3405,-225.5027"/>
</g>
<!-- Node18&#45;&gt;Node9 -->
<g id="edge29" class="edge">
<title>Node18&#45;&gt;Node9</title>
<path fill="none" stroke="#191970" d="M1176.3533,-227.7522C1202.0052,-214.2806 1229.9376,-193.7581 1213,-174 1173.0186,-127.3607 757.7148,-87.7917 597.012,-74.1142"/>
<polygon fill="#191970" stroke="#191970" points="1174.4723,-224.7795 1167.0931,-232.3819 1177.6026,-231.0406 1174.4723,-224.7795"/>
</g>
<!-- Node18&#45;&gt;Node16 -->
<g id="edge31" class="edge">
<title>Node18&#45;&gt;Node16</title>
<path fill="none" stroke="#191970" d="M1107.0304,-228.6153C1082.1696,-218.3889 1049.328,-204.8796 1026.8206,-195.6212"/>
<polygon fill="#191970" stroke="#191970" points="1105.8863,-231.9292 1116.466,-232.4966 1108.5493,-225.4555 1105.8863,-231.9292"/>
</g>
<!-- Node18&#45;&gt;Node19 -->
<g id="edge32" class="edge">
<title>Node18&#45;&gt;Node19</title>
<path fill="none" stroke="#191970" d="M1142,-222.1906C1142,-213.1684 1142,-202.9941 1142,-195.5707"/>
<polygon fill="#191970" stroke="#191970" points="1138.5001,-222.3619 1142,-232.3619 1145.5001,-222.3619 1138.5001,-222.3619"/>
</g>
</g>
</svg>
