<?xml version="1.0" encoding="UTF-8" standalone="no"?>
<!DOCTYPE svg PUBLIC "-//W3C//DTD SVG 1.1//EN"
 "http://www.w3.org/Graphics/SVG/1.1/DTD/svg11.dtd">
<!-- Generated by graphviz version 2.40.1 (20161225.0304)
 -->
<!-- Title: headers/CClient.h Pages: 1 -->
<!--zoomable 378 -->
<svg id="main" version="1.1" xmlns="http://www.w3.org/2000/svg" xmlns:xlink="http://www.w3.org/1999/xlink" xml:space="preserve" onload="init(evt)">
<style type="text/css"><![CDATA[
.edge:hover path { stroke: red; }
.edge:hover polygon { stroke: red; fill: red; }
]]></style>
<script type="text/javascript"><![CDATA[
var edges = document.getElementsByTagName('g');
if (edges && edges.length) {
  for (var i=0;i<edges.length;i++) {
    if (edges[i].id.substr(0,4)=='edge') {
      edges[i].setAttribute('class','edge');
    }
  }
}
]]></script>
        <defs>
                <circle id="rim" cx="0" cy="0" r="7"/>
                <circle id="rim2" cx="0" cy="0" r="3.5"/>
                <g id="zoomPlus">
                        <use xlink:href="#rim" fill="#404040">
                                <set attributeName="fill" to="#808080" begin="zoomplus.mouseover" end="zoomplus.mouseout"/>
                        </use>
                        <path d="M-4,0h8M0,-4v8" fill="none" stroke="white" stroke-width="1.5" pointer-events="none"/>
                </g>
                <g id="zoomMin">
                        <use xlink:href="#rim" fill="#404040">
                                <set attributeName="fill" to="#808080" begin="zoomminus.mouseover" end="zoomminus.mouseout"/>
                        </use>
                        <path d="M-4,0h8" fill="none" stroke="white" stroke-width="1.5" pointer-events="none"/>
                </g>
                <g id="dirArrow">
                        <path fill="none" stroke="white" stroke-width="1.5" d="M0,-3.0v7 M-2.5,-0.5L0,-3.0L2.5,-0.5"/>
                </g>
               <g id="resetDef">
                       <use xlink:href="#rim2" fill="#404040">
                               <set attributeName="fill" to="#808080" begin="reset.mouseover" end="reset.mouseout"/>
                       </use>
               </g>
        </defs>

<script type="text/javascript">
var viewWidth = 633;
var viewHeight = 378;
var sectionId = 'dynsection-0';
</script>
<script xlink:href="../../svgpan.js"/>
<svg id="graph" class="graph">
<g id="viewport">
<title>headers/CClient.h</title>
<!-- Node1 -->
<g id="node1" class="node">
<title>Node1</title>
<g id="a_node1"><a xlink:title=" ">
<polygon fill="#bfbfbf" stroke="#000000" points="161,-348.5 161,-369.5 274,-369.5 274,-348.5 161,-348.5"/>
<text text-anchor="middle" x="217.5" y="-355.9" font-family="Helvetica,sans-Serif" font-size="12.00" fill="#000000">headers/CClient.h</text>
</a>
</g>
</g>
<!-- Node2 -->
<g id="node2" class="node">
<title>Node2</title>
<g id="a_node2"><a xlink:title=" ">
<polygon fill="none" stroke="#bfbfbf" points="536.5,-.5 536.5,-21.5 598.5,-21.5 598.5,-.5 536.5,-.5"/>
<text text-anchor="middle" x="567.5" y="-7.9" font-family="Helvetica,sans-Serif" font-size="12.00" fill="#000000">iostream</text>
</a>
</g>
</g>
<!-- Node1&#45;&gt;Node2 -->
<g id="edge1" class="edge">
<title>Node1&#45;&gt;Node2</title>
<path fill="none" stroke="#191970" d="M274.0916,-354.7366C385.9241,-344.749 624.5,-315.0041 624.5,-243 624.5,-243 624.5,-243 624.5,-127 624.5,-89.5289 600.2458,-51.5841 583.38,-29.7281"/>
<polygon fill="#191970" stroke="#191970" points="585.8959,-27.2705 576.9124,-21.6538 580.4325,-31.6467 585.8959,-27.2705"/>
</g>
<!-- Node3 -->
<g id="node3" class="node">
<title>Node3</title>
<g id="a_node3"><a xlink:title=" ">
<polygon fill="none" stroke="#bfbfbf" points="123.5,-58.5 123.5,-79.5 169.5,-79.5 169.5,-58.5 123.5,-58.5"/>
<text text-anchor="middle" x="146.5" y="-65.9" font-family="Helvetica,sans-Serif" font-size="12.00" fill="#000000">string</text>
</a>
</g>
</g>
<!-- Node1&#45;&gt;Node3 -->
<g id="edge2" class="edge">
<title>Node1&#45;&gt;Node3</title>
<path fill="none" stroke="#191970" d="M216.3607,-348.3612C213.8931,-326.4132 207.4614,-274.5987 197.5,-232 185.2397,-179.5704 164.7117,-119.5066 153.8141,-89.0193"/>
<polygon fill="#191970" stroke="#191970" points="157.0765,-87.7487 150.3904,-79.5301 150.492,-90.1244 157.0765,-87.7487"/>
</g>
<!-- Node4 -->
<g id="node4" class="node">
<title>Node4</title>
<g id="a_node4"><a xlink:href="../../de/d98/CUser_8h.html" target="_top" xlink:title=" ">
<polygon fill="none" stroke="#000000" points="0,-174.5 0,-195.5 61,-195.5 61,-174.5 0,-174.5"/>
<text text-anchor="middle" x="30.5" y="-181.9" font-family="Helvetica,sans-Serif" font-size="12.00" fill="#000000">CUser.h</text>
</a>
</g>
</g>
<!-- Node1&#45;&gt;Node4 -->
<g id="edge3" class="edge">
<title>Node1&#45;&gt;Node4</title>
<path fill="none" stroke="#191970" d="M160.7087,-350.8767C133.5103,-344.3893 102.216,-332.7689 80.5,-312 50.2473,-283.0668 37.9377,-233.5875 33.2134,-205.6972"/>
<polygon fill="#191970" stroke="#191970" points="36.628,-204.8697 31.6656,-195.5088 29.7074,-205.9211 36.628,-204.8697"/>
</g>
<!-- Node5 -->
<g id="node5" class="node">
<title>Node5</title>
<g id="a_node5"><a xlink:href="../../df/dca/CMyHoldings_8h.html" target="_top" xlink:title=" ">
<polygon fill="none" stroke="#000000" points="90,-290.5 90,-311.5 189,-311.5 189,-290.5 90,-290.5"/>
<text text-anchor="middle" x="139.5" y="-297.9" font-family="Helvetica,sans-Serif" font-size="12.00" fill="#000000">CMyHoldings.h</text>
</a>
</g>
</g>
<!-- Node1&#45;&gt;Node5 -->
<g id="edge5" class="edge">
<title>Node1&#45;&gt;Node5</title>
<path fill="none" stroke="#191970" d="M203.1936,-348.3619C191.6488,-339.7773 175.1996,-327.5459 161.9096,-317.6636"/>
<polygon fill="#191970" stroke="#191970" points="163.8288,-314.7291 153.7157,-311.5707 159.6519,-320.3463 163.8288,-314.7291"/>
</g>
<!-- Node7 -->
<g id="node7" class="node">
<title>Node7</title>
<g id="a_node7"><a xlink:href="../../dd/d85/CDataBase_8h.html" target="_top" xlink:title=" ">
<polygon fill="none" stroke="#000000" points="332,-116.5 332,-137.5 421,-137.5 421,-116.5 332,-116.5"/>
<text text-anchor="middle" x="376.5" y="-123.9" font-family="Helvetica,sans-Serif" font-size="12.00" fill="#000000">CDataBase.h</text>
</a>
</g>
</g>
<!-- Node1&#45;&gt;Node7 -->
<g id="edge26" class="edge">
<title>Node1&#45;&gt;Node7</title>
<path fill="none" stroke="#191970" d="M224.7451,-348.4286C249.5775,-312.1951 331.481,-192.6882 363.5044,-145.9621"/>
<polygon fill="#191970" stroke="#191970" points="366.4462,-147.8609 369.2124,-137.6335 360.6721,-143.9036 366.4462,-147.8609"/>
</g>
<!-- Node4&#45;&gt;Node3 -->
<g id="edge4" class="edge">
<title>Node4&#45;&gt;Node3</title>
<path fill="none" stroke="#191970" d="M35.7405,-174.2288C43.1446,-159.7753 57.7626,-133.8592 75.5,-116 87.6032,-103.8137 103.3452,-93.0077 116.9299,-84.8393"/>
<polygon fill="#191970" stroke="#191970" points="119.0276,-87.6686 125.9188,-79.6211 115.5132,-81.6148 119.0276,-87.6686"/>
</g>
<!-- Node5&#45;&gt;Node3 -->
<g id="edge25" class="edge">
<title>Node5&#45;&gt;Node3</title>
<path fill="none" stroke="#191970" d="M129.8234,-290.3613C122.3695,-281.3999 112.6581,-267.8562 108.5,-254 90.8206,-195.0861 119.4569,-123.174 136.0231,-88.9491"/>
<polygon fill="#191970" stroke="#191970" points="139.3604,-90.1018 140.7123,-79.5936 133.1024,-86.9652 139.3604,-90.1018"/>
</g>
<!-- Node6 -->
<g id="node6" class="node">
<title>Node6</title>
<g id="a_node6"><a xlink:href="../../df/d1a/CBroker_8h.html" target="_top" xlink:title=" ">
<polygon fill="none" stroke="#000000" points="118,-232.5 118,-253.5 189,-253.5 189,-232.5 118,-232.5"/>
<text text-anchor="middle" x="153.5" y="-239.9" font-family="Helvetica,sans-Serif" font-size="12.00" fill="#000000">CBroker.h</text>
</a>
</g>
</g>
<!-- Node5&#45;&gt;Node6 -->
<g id="edge6" class="edge">
<title>Node5&#45;&gt;Node6</title>
<path fill="none" stroke="#191970" d="M142.0678,-290.3619C143.8834,-282.8401 146.3748,-272.5187 148.5684,-263.4308"/>
<polygon fill="#191970" stroke="#191970" points="152.0043,-264.1127 150.9485,-253.5707 145.1997,-262.4702 152.0043,-264.1127"/>
</g>
<!-- Node6&#45;&gt;Node3 -->
<g id="edge18" class="edge">
<title>Node6&#45;&gt;Node3</title>
<path fill="none" stroke="#191970" d="M153.0727,-232.3774C151.9428,-204.293 148.8604,-127.6735 147.353,-90.2027"/>
<polygon fill="#191970" stroke="#191970" points="150.8389,-89.7789 146.9396,-79.9277 143.8445,-90.0604 150.8389,-89.7789"/>
</g>
<!-- Node6&#45;&gt;Node4 -->
<g id="edge7" class="edge">
<title>Node6&#45;&gt;Node4</title>
<path fill="none" stroke="#191970" d="M131.2256,-232.4966C111.9281,-223.397 83.7871,-210.1273 62.152,-199.9253"/>
<polygon fill="#191970" stroke="#191970" points="63.562,-196.7206 53.0243,-195.6212 60.5764,-203.052 63.562,-196.7206"/>
</g>
<!-- Node6&#45;&gt;Node7 -->
<g id="edge8" class="edge">
<title>Node6&#45;&gt;Node7</title>
<path fill="none" stroke="#191970" d="M189.1785,-235.5946C219.3689,-228.3596 263.0886,-215.5526 297.5,-196 321.6339,-182.2871 345.036,-160.4414 360.0215,-145.0096"/>
<polygon fill="#191970" stroke="#191970" points="362.7064,-147.2649 367.0501,-137.6014 357.6282,-142.447 362.7064,-147.2649"/>
</g>
<!-- Node12 -->
<g id="node12" class="node">
<title>Node12</title>
<g id="a_node12"><a xlink:href="../../d7/d79/CAsset_8h.html" target="_top" xlink:title=" ">
<polygon fill="none" stroke="#000000" points="224,-174.5 224,-195.5 289,-195.5 289,-174.5 224,-174.5"/>
<text text-anchor="middle" x="256.5" y="-181.9" font-family="Helvetica,sans-Serif" font-size="12.00" fill="#000000">CAsset.h</text>
</a>
</g>
</g>
<!-- Node6&#45;&gt;Node12 -->
<g id="edge19" class="edge">
<title>Node6&#45;&gt;Node12</title>
<path fill="none" stroke="#191970" d="M172.3918,-232.3619C188.2177,-223.4502 211.0226,-210.6087 228.8947,-200.5447"/>
<polygon fill="#191970" stroke="#191970" points="230.7318,-203.5271 237.728,-195.5707 227.2971,-197.4276 230.7318,-203.5271"/>
</g>
<!-- Node7&#45;&gt;Node2 -->
<g id="edge9" class="edge">
<title>Node7&#45;&gt;Node2</title>
<path fill="none" stroke="#191970" d="M421.2485,-122.3228C454.2342,-116.879 498.5625,-105.1574 529.5,-80 545.0177,-67.3815 555.2073,-46.661 561.0921,-31.214"/>
<polygon fill="#191970" stroke="#191970" points="564.4828,-32.1216 564.491,-21.5268 557.8775,-29.8041 564.4828,-32.1216"/>
</g>
<!-- Node7&#45;&gt;Node3 -->
<g id="edge10" class="edge">
<title>Node7&#45;&gt;Node3</title>
<path fill="none" stroke="#191970" d="M334.8487,-116.4966C290.2159,-105.2414 220.2844,-87.6065 179.3661,-77.288"/>
<polygon fill="#191970" stroke="#191970" points="180.1736,-73.8821 169.6213,-74.8306 178.4619,-80.6696 180.1736,-73.8821"/>
</g>
<!-- Node8 -->
<g id="node8" class="node">
<title>Node8</title>
<g id="a_node8"><a xlink:title=" ">
<polygon fill="none" stroke="#bfbfbf" points="348.5,-58.5 348.5,-79.5 404.5,-79.5 404.5,-58.5 348.5,-58.5"/>
<text text-anchor="middle" x="376.5" y="-65.9" font-family="Helvetica,sans-Serif" font-size="12.00" fill="#000000">fstream</text>
</a>
</g>
</g>
<!-- Node7&#45;&gt;Node8 -->
<g id="edge11" class="edge">
<title>Node7&#45;&gt;Node8</title>
<path fill="none" stroke="#191970" d="M376.5,-116.3619C376.5,-108.9219 376.5,-98.7427 376.5,-89.7276"/>
<polygon fill="#191970" stroke="#191970" points="380.0001,-89.5706 376.5,-79.5707 373.0001,-89.5707 380.0001,-89.5706"/>
</g>
<!-- Node9 -->
<g id="node9" class="node">
<title>Node9</title>
<g id="a_node9"><a xlink:title=" ">
<polygon fill="none" stroke="#bfbfbf" points="339,-.5 339,-21.5 388,-21.5 388,-.5 339,-.5"/>
<text text-anchor="middle" x="363.5" y="-7.9" font-family="Helvetica,sans-Serif" font-size="12.00" fill="#000000">vector</text>
</a>
</g>
</g>
<!-- Node7&#45;&gt;Node9 -->
<g id="edge12" class="edge">
<title>Node7&#45;&gt;Node9</title>
<path fill="none" stroke="#191970" d="M389.3266,-116.0518C403.3461,-102.6777 422.6719,-79.2095 413.5,-58 408.3797,-46.1595 398.6455,-35.9269 389.1167,-28.0602"/>
<polygon fill="#191970" stroke="#191970" points="390.9828,-25.0807 380.9168,-21.7752 386.7245,-30.6365 390.9828,-25.0807"/>
</g>
<!-- Node10 -->
<g id="node10" class="node">
<title>Node10</title>
<g id="a_node10"><a xlink:href="../../d2/d92/CRisk_8h.html" target="_top" xlink:title=" ">
<polygon fill="none" stroke="#000000" points="461,-58.5 461,-79.5 520,-79.5 520,-58.5 461,-58.5"/>
<text text-anchor="middle" x="490.5" y="-65.9" font-family="Helvetica,sans-Serif" font-size="12.00" fill="#000000">CRisk.h</text>
</a>
</g>
</g>
<!-- Node7&#45;&gt;Node10 -->
<g id="edge13" class="edge">
<title>Node7&#45;&gt;Node10</title>
<path fill="none" stroke="#191970" d="M397.1445,-116.4966C414.8697,-107.4786 440.6448,-94.3649 460.623,-84.2006"/>
<polygon fill="#191970" stroke="#191970" points="462.2981,-87.2753 469.6238,-79.6212 459.1239,-81.0364 462.2981,-87.2753"/>
</g>
<!-- Node11 -->
<g id="node11" class="node">
<title>Node11</title>
<g id="a_node11"><a xlink:href="../../d3/d97/CReturn_8h.html" target="_top" xlink:title=" ">
<polygon fill="none" stroke="#000000" points="259,-58.5 259,-79.5 330,-79.5 330,-58.5 259,-58.5"/>
<text text-anchor="middle" x="294.5" y="-65.9" font-family="Helvetica,sans-Serif" font-size="12.00" fill="#000000">CReturn.h</text>
</a>
</g>
</g>
<!-- Node7&#45;&gt;Node11 -->
<g id="edge16" class="edge">
<title>Node7&#45;&gt;Node11</title>
<path fill="none" stroke="#191970" d="M361.4599,-116.3619C349.2075,-107.6955 331.7005,-95.3126 317.6606,-85.3819"/>
<polygon fill="#191970" stroke="#191970" points="319.63,-82.4879 309.4447,-79.5707 315.5877,-88.2028 319.63,-82.4879"/>
</g>
<!-- Node10&#45;&gt;Node2 -->
<g id="edge14" class="edge">
<title>Node10&#45;&gt;Node2</title>
<path fill="none" stroke="#191970" d="M504.623,-58.3619C516.0198,-49.7773 532.2581,-37.5459 545.3777,-27.6636"/>
<polygon fill="#191970" stroke="#191970" points="547.5848,-30.3829 553.4665,-21.5707 543.3732,-24.7916 547.5848,-30.3829"/>
</g>
<!-- Node10&#45;&gt;Node9 -->
<g id="edge15" class="edge">
<title>Node10&#45;&gt;Node9</title>
<path fill="none" stroke="#191970" d="M467.5013,-58.4966C447.4868,-49.3562 418.2592,-36.0082 395.8812,-25.7883"/>
<polygon fill="#191970" stroke="#191970" points="397.3071,-22.5918 386.7568,-21.6212 394.3991,-28.9592 397.3071,-22.5918"/>
</g>
<!-- Node11&#45;&gt;Node9 -->
<g id="edge17" class="edge">
<title>Node11&#45;&gt;Node9</title>
<path fill="none" stroke="#191970" d="M307.1557,-58.3619C317.1739,-49.9408 331.3668,-38.0105 343.0013,-28.2308"/>
<polygon fill="#191970" stroke="#191970" points="345.5218,-30.6844 350.9246,-21.5707 341.0176,-25.326 345.5218,-30.6844"/>
</g>
<!-- Node12&#45;&gt;Node2 -->
<g id="edge20" class="edge">
<title>Node12&#45;&gt;Node2</title>
<path fill="none" stroke="#191970" d="M289.0812,-177.9106C358.5449,-162.1154 517.6386,-122.0938 551.5,-80 562.4329,-66.4091 566.1625,-46.6959 567.3147,-31.8173"/>
<polygon fill="#191970" stroke="#191970" points="570.8229,-31.7088 567.7701,-21.5634 563.8298,-31.3982 570.8229,-31.7088"/>
</g>
<!-- Node12&#45;&gt;Node3 -->
<g id="edge21" class="edge">
<title>Node12&#45;&gt;Node3</title>
<path fill="none" stroke="#191970" d="M246.3486,-174.2949C227.5215,-154.4408 186.9999,-111.709 163.7813,-87.2239"/>
<polygon fill="#191970" stroke="#191970" points="166.0475,-84.5271 156.6268,-79.6792 160.9681,-89.3438 166.0475,-84.5271"/>
</g>
<!-- Node12&#45;&gt;Node7 -->
<g id="edge24" class="edge">
<title>Node12&#45;&gt;Node7</title>
<path fill="none" stroke="#191970" d="M278.2311,-174.4966C296.9736,-165.4378 324.2665,-152.2462 345.3357,-142.0628"/>
<polygon fill="#191970" stroke="#191970" points="347.0447,-145.1242 354.5251,-137.6212 343.9985,-138.8217 347.0447,-145.1242"/>
</g>
<!-- Node12&#45;&gt;Node9 -->
<g id="edge22" class="edge">
<title>Node12&#45;&gt;Node9</title>
<path fill="none" stroke="#191970" d="M265.9535,-174.2293C276.6761,-160.6403 291.6743,-136.5601 283.5,-116 275.3692,-95.5492 257.6308,-100.4508 249.5,-80 245.8876,-70.914 244.061,-66.1254 249.5,-58 267.0562,-31.7722 302.2002,-20.1655 328.8519,-15.0381"/>
<polygon fill="#191970" stroke="#191970" points="329.6839,-18.4469 338.9554,-13.3197 328.5101,-11.546 329.6839,-18.4469"/>
</g>
<!-- Node13 -->
<g id="node13" class="node">
<title>Node13</title>
<g id="a_node13"><a xlink:title=" ">
<polygon fill="none" stroke="#bfbfbf" points="232,-116.5 232,-137.5 275,-137.5 275,-116.5 232,-116.5"/>
<text text-anchor="middle" x="253.5" y="-123.9" font-family="Helvetica,sans-Serif" font-size="12.00" fill="#000000">tuple</text>
</a>
</g>
</g>
<!-- Node12&#45;&gt;Node13 -->
<g id="edge23" class="edge">
<title>Node12&#45;&gt;Node13</title>
<path fill="none" stroke="#191970" d="M255.9498,-174.3619C255.5649,-166.9219 255.0384,-156.7427 254.5721,-147.7276"/>
<polygon fill="#191970" stroke="#191970" points="258.0587,-147.3765 254.0468,-137.5707 251.0681,-147.7381 258.0587,-147.3765"/>
</g>
</g>
</svg>
        <g id="navigator" transform="translate(0 0)" fill="#404254">
                <rect fill="#f2f5e9" fill-opacity="0.5" stroke="#606060" stroke-width=".5" x="0" y="0" width="60" height="60"/>
                <use id="zoomplus" xlink:href="#zoomPlus" x="17" y="9" onmousedown="handleZoom(evt,'in')"/>
                <use id="zoomminus" xlink:href="#zoomMin" x="42" y="9" onmousedown="handleZoom(evt,'out')"/>
                <use id="reset" xlink:href="#resetDef" x="30" y="36" onmousedown="handleReset()"/>
                <g id="arrowUp" xlink:href="#dirArrow" transform="translate(30 24)" onmousedown="handlePan(0,-1)">
                  <use xlink:href="#rim" fill="#404040">
                        <set attributeName="fill" to="#808080" begin="arrowUp.mouseover" end="arrowUp.mouseout"/>
                  </use>
                  <path fill="none" stroke="white" stroke-width="1.5" d="M0,-3.0v7 M-2.5,-0.5L0,-3.0L2.5,-0.5"/>
                </g>
                <g id="arrowRight" xlink:href="#dirArrow" transform="rotate(90) translate(36 -43)" onmousedown="handlePan(1,0)">
                  <use xlink:href="#rim" fill="#404040">
                        <set attributeName="fill" to="#808080" begin="arrowRight.mouseover" end="arrowRight.mouseout"/>
                  </use>
                  <path fill="none" stroke="white" stroke-width="1.5" d="M0,-3.0v7 M-2.5,-0.5L0,-3.0L2.5,-0.5"/>
                </g>
                <g id="arrowDown" xlink:href="#dirArrow" transform="rotate(180) translate(-30 -48)" onmousedown="handlePan(0,1)">
                  <use xlink:href="#rim" fill="#404040">
                        <set attributeName="fill" to="#808080" begin="arrowDown.mouseover" end="arrowDown.mouseout"/>
                  </use>
                  <path fill="none" stroke="white" stroke-width="1.5" d="M0,-3.0v7 M-2.5,-0.5L0,-3.0L2.5,-0.5"/>
                </g>
                <g id="arrowLeft" xlink:href="#dirArrow" transform="rotate(270) translate(-36 17)" onmousedown="handlePan(-1,0)">
                  <use xlink:href="#rim" fill="#404040">
                        <set attributeName="fill" to="#808080" begin="arrowLeft.mouseover" end="arrowLeft.mouseout"/>
                  </use>
                  <path fill="none" stroke="white" stroke-width="1.5" d="M0,-3.0v7 M-2.5,-0.5L0,-3.0L2.5,-0.5"/>
                </g>
        </g>
        <svg viewBox="0 0 15 15" width="100%" height="30px" preserveAspectRatio="xMaxYMin meet">
         <g id="arrow_out" transform="scale(0.3 0.3)">
          <a xlink:href="CClient_8h__incl_org.svg" target="_base">
           <rect id="button" ry="5" rx="5" y="6" x="6" height="38" width="38"
                fill="#f2f5e9" fill-opacity="0.5" stroke="#606060" stroke-width="1.0"/>
           <path id="arrow"
             d="M 11.500037,31.436501 C 11.940474,20.09759 22.043105,11.32322 32.158766,21.979434 L 37.068811,17.246167 C 37.068811,17.246167 37.088388,32 37.088388,32 L 22.160133,31.978069 C 22.160133,31.978069 26.997745,27.140456 26.997745,27.140456 C 18.528582,18.264221 13.291696,25.230495 11.500037,31.436501 z"
             style="fill:#404040;"/>
          </a>
         </g>
        </svg>
</svg>
