<?xml version="1.0" encoding="UTF-8" standalone="no"?>
<!DOCTYPE svg PUBLIC "-//W3C//DTD SVG 1.1//EN"
 "http://www.w3.org/Graphics/SVG/1.1/DTD/svg11.dtd">
<!-- Generated by graphviz version 2.40.1 (20161225.0304)
 -->
<!-- Title: Graphical Class Hierarchy Pages: 1 -->
<svg width="171pt" height="104pt"
 viewBox="0.00 0.00 171.00 104.00" xmlns="http://www.w3.org/2000/svg" xmlns:xlink="http://www.w3.org/1999/xlink">
<g id="graph0" class="graph" transform="scale(1 1) rotate(0) translate(4 100)">
<title>Graphical Class Hierarchy</title>
<!-- Node0 -->
<g id="node1" class="node">
<title>Node0</title>
<g id="a_node1"><a xlink:href="de/dd6/classCUser.html" target="_top" xlink:title="This class create the user who will be use the program, a trader, a broker or an administrator.">
<polygon fill="none" stroke="#000000" points="0,-38.5 0,-57.5 45,-57.5 45,-38.5 0,-38.5"/>
<text text-anchor="middle" x="22.5" y="-45.5" font-family="Helvetica,sans-Serif" font-size="10.00" fill="#000000">CUser</text>
</a>
</g>
</g>
<!-- Node1 -->
<g id="node2" class="node">
<title>Node1</title>
<g id="a_node2"><a xlink:href="da/d8b/classCAdministrator.html" target="_top" xlink:title="CAdministrator class create object of administrator all program.">
<polygon fill="none" stroke="#000000" points="81,-76.5 81,-95.5 163,-95.5 163,-76.5 81,-76.5"/>
<text text-anchor="middle" x="122" y="-83.5" font-family="Helvetica,sans-Serif" font-size="10.00" fill="#000000">CAdministrator</text>
</a>
</g>
</g>
<!-- Node0&#45;&gt;Node1 -->
<g id="edge1" class="edge">
<title>Node0&#45;&gt;Node1</title>
<path fill="none" stroke="#191970" d="M54.6566,-60.2809C68.4096,-65.5333 84.2216,-71.5721 97.0665,-76.4777"/>
<polygon fill="#191970" stroke="#191970" points="55.6687,-56.9209 45.0781,-56.6228 53.1713,-63.4603 55.6687,-56.9209"/>
</g>
<!-- Node2 -->
<g id="node3" class="node">
<title>Node2</title>
<g id="a_node3"><a xlink:href="db/da6/classCBroker.html" target="_top" xlink:title="CBroker class create object of broker who is related with class CPortfolio through aggregation relati...">
<polygon fill="none" stroke="#000000" points="95.5,-38.5 95.5,-57.5 148.5,-57.5 148.5,-38.5 95.5,-38.5"/>
<text text-anchor="middle" x="122" y="-45.5" font-family="Helvetica,sans-Serif" font-size="10.00" fill="#000000">CBroker</text>
</a>
</g>
</g>
<!-- Node0&#45;&gt;Node2 -->
<g id="edge2" class="edge">
<title>Node0&#45;&gt;Node2</title>
<path fill="none" stroke="#191970" d="M55.4452,-48C68.3747,-48 83.0202,-48 95.2745,-48"/>
<polygon fill="#191970" stroke="#191970" points="55.0781,-44.5001 45.0781,-48 55.0781,-51.5001 55.0781,-44.5001"/>
</g>
<!-- Node3 -->
<g id="node4" class="node">
<title>Node3</title>
<g id="a_node4"><a xlink:href="df/da7/classCClient.html" target="_top" xlink:title=" ">
<polygon fill="none" stroke="#000000" points="97,-.5 97,-19.5 147,-19.5 147,-.5 97,-.5"/>
<text text-anchor="middle" x="122" y="-7.5" font-family="Helvetica,sans-Serif" font-size="10.00" fill="#000000">CClient</text>
</a>
</g>
</g>
<!-- Node0&#45;&gt;Node3 -->
<g id="edge3" class="edge">
<title>Node0&#45;&gt;Node3</title>
<path fill="none" stroke="#191970" d="M54.6566,-35.7191C68.4096,-30.4667 84.2216,-24.4279 97.0665,-19.5223"/>
<polygon fill="#191970" stroke="#191970" points="53.1713,-32.5397 45.0781,-39.3772 55.6687,-39.0791 53.1713,-32.5397"/>
</g>
</g>
</svg>
