<?xml version="1.0" encoding="UTF-8" standalone="no"?>
<!DOCTYPE svg PUBLIC "-//W3C//DTD SVG 1.1//EN"
 "http://www.w3.org/Graphics/SVG/1.1/DTD/svg11.dtd">
<!-- Generated by graphviz version 2.40.1 (20161225.0304)
 -->
<!-- Title: Graphical Class Hierarchy Pages: 1 -->
<svg width="191pt" height="110pt"
 viewBox="0.00 0.00 191.00 110.00" xmlns="http://www.w3.org/2000/svg" xmlns:xlink="http://www.w3.org/1999/xlink">
<g id="graph0" class="graph" transform="scale(1 1) rotate(0) translate(4 106)">
<title>Graphical Class Hierarchy</title>
<!-- Node0 -->
<g id="node1" class="node">
<title>Node0</title>
<g id="a_node1"><a xlink:href="de/dd6/classCUser.html" target="_top" xlink:title="This class create the user who will be use the program, a trader, a broker or an administrator and ha...">
<polygon fill="none" stroke="#000000" points="0,-40.5 0,-61.5 51,-61.5 51,-40.5 0,-40.5"/>
<text text-anchor="middle" x="25.5" y="-47.9" font-family="Helvetica,sans-Serif" font-size="12.00" fill="#000000">CUser</text>
</a>
</g>
</g>
<!-- Node1 -->
<g id="node2" class="node">
<title>Node1</title>
<g id="a_node2"><a xlink:href="da/d8b/classCAdministrator.html" target="_top" xlink:title="The class CAdministrator creates object of administrator that maintain, change the program Optimal Po...">
<polygon fill="none" stroke="#000000" points="87,-80.5 87,-101.5 183,-101.5 183,-80.5 87,-80.5"/>
<text text-anchor="middle" x="135" y="-87.9" font-family="Helvetica,sans-Serif" font-size="12.00" fill="#000000">CAdministrator</text>
</a>
</g>
</g>
<!-- Node0&#45;&gt;Node1 -->
<g id="edge1" class="edge">
<title>Node0&#45;&gt;Node1</title>
<path fill="none" stroke="#191970" d="M60.8762,-63.9228C75.4665,-69.2526 92.1641,-75.3522 106.013,-80.4111"/>
<polygon fill="#191970" stroke="#191970" points="61.7667,-60.522 51.1729,-60.3782 59.3649,-67.097 61.7667,-60.522"/>
</g>
<!-- Node2 -->
<g id="node3" class="node">
<title>Node2</title>
<g id="a_node3"><a xlink:href="db/da6/classCBroker.html" target="_top" xlink:title="CBroker class create object of broker who is related with class CPortfolio through aggregation relati...">
<polygon fill="none" stroke="#000000" points="104.5,-40.5 104.5,-61.5 165.5,-61.5 165.5,-40.5 104.5,-40.5"/>
<text text-anchor="middle" x="135" y="-47.9" font-family="Helvetica,sans-Serif" font-size="12.00" fill="#000000">CBroker</text>
</a>
</g>
</g>
<!-- Node0&#45;&gt;Node2 -->
<g id="edge2" class="edge">
<title>Node0&#45;&gt;Node2</title>
<path fill="none" stroke="#191970" d="M61.3821,-51C75.2971,-51 91.0646,-51 104.4276,-51"/>
<polygon fill="#191970" stroke="#191970" points="61.1729,-47.5001 51.1729,-51 61.1729,-54.5001 61.1729,-47.5001"/>
</g>
<!-- Node3 -->
<g id="node4" class="node">
<title>Node3</title>
<g id="a_node4"><a xlink:href="df/da7/classCClient.html" target="_top" xlink:title="This class create client objects and maintain them.">
<polygon fill="none" stroke="#000000" points="106.5,-.5 106.5,-21.5 163.5,-21.5 163.5,-.5 106.5,-.5"/>
<text text-anchor="middle" x="135" y="-7.9" font-family="Helvetica,sans-Serif" font-size="12.00" fill="#000000">CClient</text>
</a>
</g>
</g>
<!-- Node0&#45;&gt;Node3 -->
<g id="edge3" class="edge">
<title>Node0&#45;&gt;Node3</title>
<path fill="none" stroke="#191970" d="M60.954,-38.0488C75.664,-32.6753 92.5049,-26.5233 106.4056,-21.4455"/>
<polygon fill="#191970" stroke="#191970" points="59.3649,-34.903 51.1729,-41.6218 61.7667,-41.478 59.3649,-34.903"/>
</g>
</g>
</svg>
