<?xml version="1.0" encoding="UTF-8" standalone="no"?>
<!DOCTYPE svg PUBLIC "-//W3C//DTD SVG 1.1//EN"
 "http://www.w3.org/Graphics/SVG/1.1/DTD/svg11.dtd">
<!-- Generated by graphviz version 2.40.1 (20161225.0304)
 -->
<!-- Title: Graphical Class Hierarchy Pages: 1 -->
<svg width="170pt" height="110pt"
 viewBox="0.00 0.00 170.00 110.00" xmlns="http://www.w3.org/2000/svg" xmlns:xlink="http://www.w3.org/1999/xlink">
<g id="graph0" class="graph" transform="scale(1 1) rotate(0) translate(4 106)">
<title>Graphical Class Hierarchy</title>
<!-- Node0 -->
<g id="node1" class="node">
<title>Node0</title>
<g id="a_node1"><a xlink:href="dc/d85/classCAsset.html" target="_top" xlink:title="This class is pure virtual class and from it are inhereted those class: CPortfolio,...">
<polygon fill="none" stroke="#000000" points="0,-40.5 0,-61.5 56,-61.5 56,-40.5 0,-40.5"/>
<text text-anchor="middle" x="28" y="-47.9" font-family="Helvetica,sans-Serif" font-size="12.00" fill="#000000">CAsset</text>
</a>
</g>
</g>
<!-- Node1 -->
<g id="node2" class="node">
<title>Node1</title>
<g id="a_node2"><a xlink:href="d0/dc4/classCETF.html" target="_top" xlink:title="This class show info about Asset &#45; ETF, it inherited from class CAsset.">
<polygon fill="none" stroke="#000000" points="102.5,-80.5 102.5,-101.5 151.5,-101.5 151.5,-80.5 102.5,-80.5"/>
<text text-anchor="middle" x="127" y="-87.9" font-family="Helvetica,sans-Serif" font-size="12.00" fill="#000000">CETF</text>
</a>
</g>
</g>
<!-- Node0&#45;&gt;Node1 -->
<g id="edge1" class="edge">
<title>Node0&#45;&gt;Node1</title>
<path fill="none" stroke="#191970" d="M63.4814,-65.3359C76.2972,-70.514 90.4794,-76.2442 102.1858,-80.9741"/>
<polygon fill="#191970" stroke="#191970" points="64.5941,-62.0106 54.0111,-61.5095 61.9717,-68.5009 64.5941,-62.0106"/>
</g>
<!-- Node2 -->
<g id="node3" class="node">
<title>Node2</title>
<g id="a_node3"><a xlink:href="d9/d52/classCPortfolio.html" target="_top" xlink:title="This class is connected with CBroker, CDatabase,CRisk, CReturn,CStock and CETF classes.">
<polygon fill="none" stroke="#000000" points="92,-40.5 92,-61.5 162,-61.5 162,-40.5 92,-40.5"/>
<text text-anchor="middle" x="127" y="-47.9" font-family="Helvetica,sans-Serif" font-size="12.00" fill="#000000">CPortfolio</text>
</a>
</g>
</g>
<!-- Node0&#45;&gt;Node2 -->
<g id="edge2" class="edge">
<title>Node0&#45;&gt;Node2</title>
<path fill="none" stroke="#191970" d="M66.374,-51C74.7305,-51 83.533,-51 91.7609,-51"/>
<polygon fill="#191970" stroke="#191970" points="66.1046,-47.5001 56.1046,-51 66.1046,-54.5001 66.1046,-47.5001"/>
</g>
<!-- Node3 -->
<g id="node4" class="node">
<title>Node3</title>
<g id="a_node4"><a xlink:href="d7/d8f/classCStock.html" target="_top" xlink:title="This class show info about Asset &#45; Stocks, it inherited from class CAsset.">
<polygon fill="none" stroke="#000000" points="99,-.5 99,-21.5 155,-21.5 155,-.5 99,-.5"/>
<text text-anchor="middle" x="127" y="-7.9" font-family="Helvetica,sans-Serif" font-size="12.00" fill="#000000">CStock</text>
</a>
</g>
</g>
<!-- Node0&#45;&gt;Node3 -->
<g id="edge3" class="edge">
<title>Node0&#45;&gt;Node3</title>
<path fill="none" stroke="#191970" d="M63.5452,-36.6383C75.8493,-31.667 89.4059,-26.1895 100.8189,-21.5782"/>
<polygon fill="#191970" stroke="#191970" points="61.9717,-33.4991 54.0111,-40.4905 64.5941,-39.9894 61.9717,-33.4991"/>
</g>
</g>
</svg>
