<?xml version="1.0" encoding="UTF-8" standalone="no"?>
<!DOCTYPE svg PUBLIC "-//W3C//DTD SVG 1.1//EN"
 "http://www.w3.org/Graphics/SVG/1.1/DTD/svg11.dtd">
<!-- Generated by graphviz version 2.40.1 (20161225.0304)
 -->
<!-- Title: headers/CPortfolio.h Pages: 1 -->
<svg width="546pt" height="88pt"
 viewBox="0.00 0.00 546.00 88.00" xmlns="http://www.w3.org/2000/svg" xmlns:xlink="http://www.w3.org/1999/xlink">
<g id="graph0" class="graph" transform="scale(1 1) rotate(0) translate(4 84)">
<title>headers/CPortfolio.h</title>
<!-- Node1 -->
<g id="node1" class="node">
<title>Node1</title>
<g id="a_node1"><a xlink:title=" ">
<polygon fill="#bfbfbf" stroke="#000000" points="161.5,-58.5 161.5,-79.5 287.5,-79.5 287.5,-58.5 161.5,-58.5"/>
<text text-anchor="middle" x="224.5" y="-65.9" font-family="Helvetica,sans-Serif" font-size="12.00" fill="#000000">headers/CPortfolio.h</text>
</a>
</g>
</g>
<!-- Node2 -->
<g id="node2" class="node">
<title>Node2</title>
<g id="a_node2"><a xlink:href="../../df/d0a/main_8cpp.html" target="_top" xlink:title=" ">
<polygon fill="none" stroke="#000000" points="0,-.5 0,-21.5 65,-21.5 65,-.5 0,-.5"/>
<text text-anchor="middle" x="32.5" y="-7.9" font-family="Helvetica,sans-Serif" font-size="12.00" fill="#000000">main.cpp</text>
</a>
</g>
</g>
<!-- Node1&#45;&gt;Node2 -->
<g id="edge1" class="edge">
<title>Node1&#45;&gt;Node2</title>
<path fill="none" stroke="#191970" d="M179.7421,-55.4794C144.6424,-44.8763 96.6148,-30.368 65.0906,-20.8451"/>
<polygon fill="#191970" stroke="#191970" points="179.1453,-58.9553 189.7302,-58.4966 181.1696,-52.2543 179.1453,-58.9553"/>
</g>
<!-- Node3 -->
<g id="node3" class="node">
<title>Node3</title>
<g id="a_node3"><a xlink:href="../../d8/d8c/CClient_8cpp.html" target="_top" xlink:title=" ">
<polygon fill="none" stroke="#000000" points="83,-.5 83,-21.5 208,-21.5 208,-.5 83,-.5"/>
<text text-anchor="middle" x="145.5" y="-7.9" font-family="Helvetica,sans-Serif" font-size="12.00" fill="#000000">sources/CClient.cpp</text>
</a>
</g>
</g>
<!-- Node1&#45;&gt;Node3 -->
<g id="edge2" class="edge">
<title>Node1&#45;&gt;Node3</title>
<path fill="none" stroke="#191970" d="M201.6971,-52.2587C188.2201,-42.3641 171.5647,-30.1361 159.898,-21.5707"/>
<polygon fill="#191970" stroke="#191970" points="199.878,-55.2651 210.0102,-58.3619 204.0207,-49.6225 199.878,-55.2651"/>
</g>
<!-- Node4 -->
<g id="node4" class="node">
<title>Node4</title>
<g id="a_node4"><a xlink:href="../../d0/dce/CMyHoldings_8cpp.html" target="_top" xlink:title=" ">
<polygon fill="none" stroke="#000000" points="226,-.5 226,-21.5 383,-21.5 383,-.5 226,-.5"/>
<text text-anchor="middle" x="304.5" y="-7.9" font-family="Helvetica,sans-Serif" font-size="12.00" fill="#000000">sources/CMyHoldings.cpp</text>
</a>
</g>
</g>
<!-- Node1&#45;&gt;Node4 -->
<g id="edge3" class="edge">
<title>Node1&#45;&gt;Node4</title>
<path fill="none" stroke="#191970" d="M247.5915,-52.2587C261.2392,-42.3641 278.1054,-30.1361 289.9198,-21.5707"/>
<polygon fill="#191970" stroke="#191970" points="245.215,-49.6585 239.1732,-58.3619 249.3238,-55.3258 245.215,-49.6585"/>
</g>
<!-- Node5 -->
<g id="node5" class="node">
<title>Node5</title>
<g id="a_node5"><a xlink:href="../../d8/dbf/CPortfolio_8cpp.html" target="_top" xlink:title=" ">
<polygon fill="none" stroke="#000000" points="401,-.5 401,-21.5 538,-21.5 538,-.5 401,-.5"/>
<text text-anchor="middle" x="469.5" y="-7.9" font-family="Helvetica,sans-Serif" font-size="12.00" fill="#000000">sources/CPortfolio.cpp</text>
</a>
</g>
</g>
<!-- Node1&#45;&gt;Node5 -->
<g id="edge4" class="edge">
<title>Node1&#45;&gt;Node5</title>
<path fill="none" stroke="#191970" d="M278.8124,-56.1424C322.7839,-45.7328 383.9565,-31.2511 425.0491,-21.5231"/>
<polygon fill="#191970" stroke="#191970" points="277.7924,-52.787 268.8677,-58.4966 279.405,-59.5988 277.7924,-52.787"/>
</g>
</g>
</svg>
