<?xml version="1.0" encoding="UTF-8" standalone="no"?>
<!DOCTYPE svg PUBLIC "-//W3C//DTD SVG 1.1//EN"
 "http://www.w3.org/Graphics/SVG/1.1/DTD/svg11.dtd">
<!-- Generated by graphviz version 2.40.1 (20161225.0304)
 -->
<!-- Title: headers/CMyHoldings.h Pages: 1 -->
<svg width="562pt" height="320pt"
 viewBox="0.00 0.00 561.79 320.00" xmlns="http://www.w3.org/2000/svg" xmlns:xlink="http://www.w3.org/1999/xlink">
<g id="graph0" class="graph" transform="scale(1 1) rotate(0) translate(4 316)">
<title>headers/CMyHoldings.h</title>
<!-- Node1 -->
<g id="node1" class="node">
<title>Node1</title>
<g id="a_node1"><a xlink:title=" ">
<polygon fill="#bfbfbf" stroke="#000000" points="0,-290.5 0,-311.5 146,-311.5 146,-290.5 0,-290.5"/>
<text text-anchor="middle" x="73" y="-297.9" font-family="Helvetica,sans-Serif" font-size="12.00" fill="#000000">headers/CMyHoldings.h</text>
</a>
</g>
</g>
<!-- Node2 -->
<g id="node2" class="node">
<title>Node2</title>
<g id="a_node2"><a xlink:href="../../df/d1a/CBroker_8h.html" target="_top" xlink:title=" ">
<polygon fill="none" stroke="#000000" points="86.5,-232.5 86.5,-253.5 157.5,-253.5 157.5,-232.5 86.5,-232.5"/>
<text text-anchor="middle" x="122" y="-239.9" font-family="Helvetica,sans-Serif" font-size="12.00" fill="#000000">CBroker.h</text>
</a>
</g>
</g>
<!-- Node1&#45;&gt;Node2 -->
<g id="edge1" class="edge">
<title>Node1&#45;&gt;Node2</title>
<path fill="none" stroke="#191970" d="M81.9874,-290.3619C88.8255,-282.2678 98.4024,-270.9318 106.4724,-261.3796"/>
<polygon fill="#191970" stroke="#191970" points="109.2897,-263.4683 113.0696,-253.5707 103.9425,-258.9508 109.2897,-263.4683"/>
</g>
<!-- Node4 -->
<g id="node4" class="node">
<title>Node4</title>
<g id="a_node4"><a xlink:title=" ">
<polygon fill="none" stroke="#bfbfbf" points="78,-58.5 78,-79.5 124,-79.5 124,-58.5 78,-58.5"/>
<text text-anchor="middle" x="101" y="-65.9" font-family="Helvetica,sans-Serif" font-size="12.00" fill="#000000">string</text>
</a>
</g>
</g>
<!-- Node1&#45;&gt;Node4 -->
<g id="edge21" class="edge">
<title>Node1&#45;&gt;Node4</title>
<path fill="none" stroke="#191970" d="M71.3042,-290.3211C67.1179,-261.5462 57.8259,-180.2319 75,-116 77.6251,-106.1821 82.7272,-96.2053 87.7216,-87.9844"/>
<polygon fill="#191970" stroke="#191970" points="90.6844,-89.8483 93.1769,-79.5508 84.8068,-86.0464 90.6844,-89.8483"/>
</g>
<!-- Node3 -->
<g id="node3" class="node">
<title>Node3</title>
<g id="a_node3"><a xlink:href="../../de/d98/CUser_8h.html" target="_top" xlink:title=" ">
<polygon fill="none" stroke="#000000" points="91.5,-174.5 91.5,-195.5 152.5,-195.5 152.5,-174.5 91.5,-174.5"/>
<text text-anchor="middle" x="122" y="-181.9" font-family="Helvetica,sans-Serif" font-size="12.00" fill="#000000">CUser.h</text>
</a>
</g>
</g>
<!-- Node2&#45;&gt;Node3 -->
<g id="edge2" class="edge">
<title>Node2&#45;&gt;Node3</title>
<path fill="none" stroke="#191970" d="M122,-232.3619C122,-224.9219 122,-214.7427 122,-205.7276"/>
<polygon fill="#191970" stroke="#191970" points="125.5001,-205.5706 122,-195.5707 118.5001,-205.5707 125.5001,-205.5706"/>
</g>
<!-- Node2&#45;&gt;Node4 -->
<g id="edge14" class="edge">
<title>Node2&#45;&gt;Node4</title>
<path fill="none" stroke="#191970" d="M108.7897,-232.1981C99.318,-223.5413 87.3277,-210.4803 82,-196 68.6712,-159.7734 82.0636,-114.4549 92.1288,-88.9146"/>
<polygon fill="#191970" stroke="#191970" points="95.411,-90.1371 96.021,-79.5598 88.9481,-87.448 95.411,-90.1371"/>
</g>
<!-- Node5 -->
<g id="node5" class="node">
<title>Node5</title>
<g id="a_node5"><a xlink:href="../../dd/d85/CDataBase_8h.html" target="_top" xlink:title=" ">
<polygon fill="none" stroke="#000000" points="278.5,-116.5 278.5,-137.5 367.5,-137.5 367.5,-116.5 278.5,-116.5"/>
<text text-anchor="middle" x="323" y="-123.9" font-family="Helvetica,sans-Serif" font-size="12.00" fill="#000000">CDataBase.h</text>
</a>
</g>
</g>
<!-- Node2&#45;&gt;Node5 -->
<g id="edge4" class="edge">
<title>Node2&#45;&gt;Node5</title>
<path fill="none" stroke="#191970" d="M157.644,-236.6143C187.6433,-230.0092 230.6968,-217.5541 263,-196 282.7591,-182.8159 299.9183,-161.4706 310.7664,-146.009"/>
<polygon fill="#191970" stroke="#191970" points="313.6893,-147.9346 316.3962,-137.6914 307.8924,-144.0109 313.6893,-147.9346"/>
</g>
<!-- Node11 -->
<g id="node11" class="node">
<title>Node11</title>
<g id="a_node11"><a xlink:href="../../d7/d79/CAsset_8h.html" target="_top" xlink:title=" ">
<polygon fill="none" stroke="#000000" points="188.5,-174.5 188.5,-195.5 253.5,-195.5 253.5,-174.5 188.5,-174.5"/>
<text text-anchor="middle" x="221" y="-181.9" font-family="Helvetica,sans-Serif" font-size="12.00" fill="#000000">CAsset.h</text>
</a>
</g>
</g>
<!-- Node2&#45;&gt;Node11 -->
<g id="edge15" class="edge">
<title>Node2&#45;&gt;Node11</title>
<path fill="none" stroke="#191970" d="M140.1581,-232.3619C155.2299,-223.532 176.8871,-210.844 193.9928,-200.8224"/>
<polygon fill="#191970" stroke="#191970" points="196.0979,-203.6456 202.957,-195.5707 192.5594,-197.6058 196.0979,-203.6456"/>
</g>
<!-- Node3&#45;&gt;Node4 -->
<g id="edge3" class="edge">
<title>Node3&#45;&gt;Node4</title>
<path fill="none" stroke="#191970" d="M120.062,-174.2949C116.5928,-155.1314 109.2649,-114.654 104.7734,-89.8434"/>
<polygon fill="#191970" stroke="#191970" points="108.1588,-88.8957 102.9333,-79.6792 101.2708,-90.1428 108.1588,-88.8957"/>
</g>
<!-- Node5&#45;&gt;Node4 -->
<g id="edge6" class="edge">
<title>Node5&#45;&gt;Node4</title>
<path fill="none" stroke="#191970" d="M282.7975,-116.4966C240.1532,-105.3553 173.5821,-87.9629 133.9309,-77.6036"/>
<polygon fill="#191970" stroke="#191970" points="134.7816,-74.2084 124.2216,-75.0669 133.0122,-80.9811 134.7816,-74.2084"/>
</g>
<!-- Node6 -->
<g id="node6" class="node">
<title>Node6</title>
<g id="a_node6"><a xlink:title=" ">
<polygon fill="none" stroke="#bfbfbf" points="240,-.5 240,-21.5 302,-21.5 302,-.5 240,-.5"/>
<text text-anchor="middle" x="271" y="-7.9" font-family="Helvetica,sans-Serif" font-size="12.00" fill="#000000">iostream</text>
</a>
</g>
</g>
<!-- Node5&#45;&gt;Node6 -->
<g id="edge5" class="edge">
<title>Node5&#45;&gt;Node6</title>
<path fill="none" stroke="#191970" d="M314.3279,-116.3897C307.2086,-107.2307 297.3062,-93.3972 291,-80 283.7071,-64.5066 278.4841,-45.7851 275.2085,-31.7545"/>
<polygon fill="#191970" stroke="#191970" points="278.5558,-30.6784 272.9966,-21.6593 271.718,-32.1767 278.5558,-30.6784"/>
</g>
<!-- Node7 -->
<g id="node7" class="node">
<title>Node7</title>
<g id="a_node7"><a xlink:title=" ">
<polygon fill="none" stroke="#bfbfbf" points="377,-58.5 377,-79.5 433,-79.5 433,-58.5 377,-58.5"/>
<text text-anchor="middle" x="405" y="-65.9" font-family="Helvetica,sans-Serif" font-size="12.00" fill="#000000">fstream</text>
</a>
</g>
</g>
<!-- Node5&#45;&gt;Node7 -->
<g id="edge7" class="edge">
<title>Node5&#45;&gt;Node7</title>
<path fill="none" stroke="#191970" d="M338.0401,-116.3619C350.2925,-107.6955 367.7995,-95.3126 381.8394,-85.3819"/>
<polygon fill="#191970" stroke="#191970" points="383.9123,-88.2028 390.0553,-79.5707 379.87,-82.4879 383.9123,-88.2028"/>
</g>
<!-- Node8 -->
<g id="node8" class="node">
<title>Node8</title>
<g id="a_node8"><a xlink:title=" ">
<polygon fill="none" stroke="#bfbfbf" points="494.5,-.5 494.5,-21.5 543.5,-21.5 543.5,-.5 494.5,-.5"/>
<text text-anchor="middle" x="519" y="-7.9" font-family="Helvetica,sans-Serif" font-size="12.00" fill="#000000">vector</text>
</a>
</g>
</g>
<!-- Node5&#45;&gt;Node8 -->
<g id="edge8" class="edge">
<title>Node5&#45;&gt;Node8</title>
<path fill="none" stroke="#191970" d="M367.8472,-123.3515C423.0101,-117.8253 511.844,-105.1921 532,-80 543.1199,-66.1018 537.3255,-45.6104 530.2943,-30.5685"/>
<polygon fill="#191970" stroke="#191970" points="533.3585,-28.8742 525.6604,-21.5948 527.1388,-32.086 533.3585,-28.8742"/>
</g>
<!-- Node9 -->
<g id="node9" class="node">
<title>Node9</title>
<g id="a_node9"><a xlink:href="../../d2/d92/CRisk_8h.html" target="_top" xlink:title=" ">
<polygon fill="none" stroke="#000000" points="299.5,-58.5 299.5,-79.5 358.5,-79.5 358.5,-58.5 299.5,-58.5"/>
<text text-anchor="middle" x="329" y="-65.9" font-family="Helvetica,sans-Serif" font-size="12.00" fill="#000000">CRisk.h</text>
</a>
</g>
</g>
<!-- Node5&#45;&gt;Node9 -->
<g id="edge9" class="edge">
<title>Node5&#45;&gt;Node9</title>
<path fill="none" stroke="#191970" d="M324.1005,-116.3619C324.8701,-108.9219 325.9232,-98.7427 326.8558,-89.7276"/>
<polygon fill="#191970" stroke="#191970" points="330.3588,-89.8777 327.9065,-79.5707 323.396,-89.1574 330.3588,-89.8777"/>
</g>
<!-- Node10 -->
<g id="node10" class="node">
<title>Node10</title>
<g id="a_node10"><a xlink:href="../../d3/d97/CReturn_8h.html" target="_top" xlink:title=" ">
<polygon fill="none" stroke="#000000" points="451.5,-58.5 451.5,-79.5 522.5,-79.5 522.5,-58.5 451.5,-58.5"/>
<text text-anchor="middle" x="487" y="-65.9" font-family="Helvetica,sans-Serif" font-size="12.00" fill="#000000">CReturn.h</text>
</a>
</g>
</g>
<!-- Node5&#45;&gt;Node10 -->
<g id="edge12" class="edge">
<title>Node5&#45;&gt;Node10</title>
<path fill="none" stroke="#191970" d="M352.6992,-116.4966C379.3199,-107.082 418.5621,-93.2036 447.7608,-82.8773"/>
<polygon fill="#191970" stroke="#191970" points="448.9844,-86.1571 457.2451,-79.5231 446.6504,-79.5576 448.9844,-86.1571"/>
</g>
<!-- Node9&#45;&gt;Node6 -->
<g id="edge10" class="edge">
<title>Node9&#45;&gt;Node6</title>
<path fill="none" stroke="#191970" d="M318.3619,-58.3619C310.1043,-50.1043 298.4725,-38.4725 288.8029,-28.8029"/>
<polygon fill="#191970" stroke="#191970" points="291.1166,-26.1669 281.5707,-21.5707 286.1669,-31.1166 291.1166,-26.1669"/>
</g>
<!-- Node9&#45;&gt;Node8 -->
<g id="edge11" class="edge">
<title>Node9&#45;&gt;Node8</title>
<path fill="none" stroke="#191970" d="M358.6875,-59.9375C392.841,-49.5117 448.823,-32.4225 484.7798,-21.4462"/>
<polygon fill="#191970" stroke="#191970" points="485.8132,-24.7902 494.3556,-18.523 483.7694,-18.0952 485.8132,-24.7902"/>
</g>
<!-- Node10&#45;&gt;Node8 -->
<g id="edge13" class="edge">
<title>Node10&#45;&gt;Node8</title>
<path fill="none" stroke="#191970" d="M492.8693,-58.3619C497.1546,-50.5949 503.0869,-39.8426 508.2161,-30.5458"/>
<polygon fill="#191970" stroke="#191970" points="511.4016,-32.0172 513.1679,-21.5707 505.2726,-28.6357 511.4016,-32.0172"/>
</g>
<!-- Node11&#45;&gt;Node4 -->
<g id="edge17" class="edge">
<title>Node11&#45;&gt;Node4</title>
<path fill="none" stroke="#191970" d="M204.634,-174.3969C191.4001,-165.4562 172.6296,-151.9229 158,-138 141.7816,-122.565 125.7621,-102.6452 114.8559,-88.1794"/>
<polygon fill="#191970" stroke="#191970" points="117.5357,-85.917 108.77,-79.966 111.9114,-90.0845 117.5357,-85.917"/>
</g>
<!-- Node11&#45;&gt;Node5 -->
<g id="edge20" class="edge">
<title>Node11&#45;&gt;Node5</title>
<path fill="none" stroke="#191970" d="M239.7084,-174.3619C255.3806,-165.4502 277.9641,-152.6087 295.6627,-142.5447"/>
<polygon fill="#191970" stroke="#191970" points="297.4474,-145.5562 304.4102,-137.5707 293.9872,-139.4712 297.4474,-145.5562"/>
</g>
<!-- Node11&#45;&gt;Node6 -->
<g id="edge16" class="edge">
<title>Node11&#45;&gt;Node6</title>
<path fill="none" stroke="#191970" d="M224.0525,-174.3774C232.1575,-146.1719 254.3299,-69.0121 265.0459,-31.7203"/>
<polygon fill="#191970" stroke="#191970" points="268.4619,-32.5054 267.8599,-21.9277 261.7341,-30.5721 268.4619,-32.5054"/>
</g>
<!-- Node11&#45;&gt;Node8 -->
<g id="edge18" class="edge">
<title>Node11&#45;&gt;Node8</title>
<path fill="none" stroke="#191970" d="M253.6422,-179.5525C329.465,-166.1603 513.7317,-129.1122 549,-80 560.2098,-64.3899 548.6263,-43.9324 536.7459,-29.355"/>
<polygon fill="#191970" stroke="#191970" points="539.1113,-26.7438 529.8867,-21.5326 533.8481,-31.359 539.1113,-26.7438"/>
</g>
<!-- Node12 -->
<g id="node12" class="node">
<title>Node12</title>
<g id="a_node12"><a xlink:title=" ">
<polygon fill="none" stroke="#bfbfbf" points="167.5,-116.5 167.5,-137.5 210.5,-137.5 210.5,-116.5 167.5,-116.5"/>
<text text-anchor="middle" x="189" y="-123.9" font-family="Helvetica,sans-Serif" font-size="12.00" fill="#000000">tuple</text>
</a>
</g>
</g>
<!-- Node11&#45;&gt;Node12 -->
<g id="edge19" class="edge">
<title>Node11&#45;&gt;Node12</title>
<path fill="none" stroke="#191970" d="M215.1307,-174.3619C210.8454,-166.5949 204.9131,-155.8426 199.7839,-146.5458"/>
<polygon fill="#191970" stroke="#191970" points="202.7274,-144.6357 194.8321,-137.5707 196.5984,-148.0172 202.7274,-144.6357"/>
</g>
</g>
</svg>
